G04 Layer_Color=16711935*
%FSLAX25Y25*%
%MOIN*%
%TF.FileFunction,Soldermask,Bot*%
%TF.Part,CustomerPanel*%
G01*
G75*
%TA.AperFunction,ComponentPad*%
%ADD130C,0.00800*%
%ADD131C,0.08674*%
%TA.AperFunction,WasherPad*%
%ADD132C,0.00800*%
%TA.AperFunction,ViaPad*%
%ADD133C,0.08674*%
%TA.AperFunction,ComponentPad*%
%ADD135O,0.06800X0.10737*%
%ADD136C,0.06800*%
%ADD137O,0.08674X0.06312*%
%TA.AperFunction,ViaPad*%
%ADD138C,0.02768*%
%TA.AperFunction,NonConductor*%
G04:AMPARAMS|DCode=139|XSize=60.83mil|YSize=86.74mil|CornerRadius=0mil|HoleSize=0mil|Usage=FLASHONLY|Rotation=11.000|XOffset=0mil|YOffset=0mil|HoleType=Round|Shape=Rectangle|*
%AMROTATEDRECTD139*
4,1,4,-0.02158,-0.04838,-0.03813,0.03677,0.02158,0.04838,0.03813,-0.03677,-0.02158,-0.04838,0.0*
%
%ADD139ROTATEDRECTD139*%

G04:AMPARAMS|DCode=140|XSize=60.7mil|YSize=86.61mil|CornerRadius=0mil|HoleSize=0mil|Usage=FLASHONLY|Rotation=11.000|XOffset=0mil|YOffset=0mil|HoleType=Round|Shape=Rectangle|*
%AMROTATEDRECTD140*
4,1,4,-0.02153,-0.04830,-0.03806,0.03672,0.02153,0.04830,0.03806,-0.03672,-0.02153,-0.04830,0.0*
%
%ADD140ROTATEDRECTD140*%

%TA.AperFunction,SMDPad,CuDef*%
G04:AMPARAMS|DCode=150|XSize=283.59mil|YSize=204.85mil|CornerRadius=53.21mil|HoleSize=0mil|Usage=FLASHONLY|Rotation=180.000|XOffset=0mil|YOffset=0mil|HoleType=Round|Shape=RoundedRectangle|*
%AMROUNDEDRECTD150*
21,1,0.28359,0.09842,0,0,180.0*
21,1,0.17716,0.20485,0,0,180.0*
1,1,0.10642,-0.08858,0.04921*
1,1,0.10642,0.08858,0.04921*
1,1,0.10642,0.08858,-0.04921*
1,1,0.10642,-0.08858,-0.04921*
%
%ADD150ROUNDEDRECTD150*%
D130*
X33966Y478454D02*
D03*
Y228061D02*
D03*
X96958Y445383D02*
D03*
X60173Y364059D02*
D03*
X70752Y353480D02*
D03*
X172764Y478454D02*
D03*
Y228061D02*
D03*
X235756Y445383D02*
D03*
X198971Y364059D02*
D03*
X209550Y353480D02*
D03*
X311563Y478454D02*
D03*
Y228061D02*
D03*
X374555Y445383D02*
D03*
X337769Y364059D02*
D03*
X348348Y353480D02*
D03*
X450361Y478454D02*
D03*
Y228061D02*
D03*
X513353Y445383D02*
D03*
X476568Y364059D02*
D03*
X487146Y353480D02*
D03*
X589159Y478454D02*
D03*
Y228061D02*
D03*
X652151Y445383D02*
D03*
X615366Y364059D02*
D03*
X625945Y353480D02*
D03*
X727957Y478454D02*
D03*
Y228061D02*
D03*
X790950Y445383D02*
D03*
X754164Y364059D02*
D03*
X764743Y353480D02*
D03*
X866756Y478454D02*
D03*
Y228061D02*
D03*
X929748Y445383D02*
D03*
X892962Y364059D02*
D03*
X903541Y353480D02*
D03*
X1005554Y478454D02*
D03*
Y228061D02*
D03*
X1068546Y445383D02*
D03*
X1031761Y364059D02*
D03*
X1042340Y353480D02*
D03*
X1144352Y478454D02*
D03*
Y228061D02*
D03*
X1207344Y445383D02*
D03*
X1170559Y364059D02*
D03*
X1181138Y353480D02*
D03*
D131*
X50362Y599081D02*
D03*
X60362D02*
D03*
X70362D02*
D03*
X80362D02*
D03*
X189160D02*
D03*
X199160D02*
D03*
X209160D02*
D03*
X219160D02*
D03*
X327959D02*
D03*
X337959D02*
D03*
X347959D02*
D03*
X357959D02*
D03*
X466757D02*
D03*
X476757D02*
D03*
X486757D02*
D03*
X496757D02*
D03*
X605555D02*
D03*
X615555D02*
D03*
X625555D02*
D03*
X635555D02*
D03*
X744353D02*
D03*
X754354D02*
D03*
X764354D02*
D03*
X774354D02*
D03*
X883152D02*
D03*
X893152D02*
D03*
X903152D02*
D03*
X913152D02*
D03*
X1021950D02*
D03*
X1031950D02*
D03*
X1041950D02*
D03*
X1051950D02*
D03*
X1160748D02*
D03*
X1170748D02*
D03*
X1180748D02*
D03*
X1190748D02*
D03*
D132*
X80362Y584381D02*
D03*
X120362Y584281D02*
D03*
X110738Y612706D02*
D03*
X20187D02*
D03*
X49714Y86919D02*
D03*
X81210D02*
D03*
Y118612D02*
D03*
X49714D02*
D03*
X18218Y559557D02*
D03*
X49714D02*
D03*
Y528061D02*
D03*
X18218D02*
D03*
X81210Y559557D02*
D03*
X112706D02*
D03*
Y528061D02*
D03*
X81210D02*
D03*
X219160Y584381D02*
D03*
X259160Y584281D02*
D03*
X249536Y612706D02*
D03*
X158985D02*
D03*
X188512Y86919D02*
D03*
X220008D02*
D03*
Y118612D02*
D03*
X188512D02*
D03*
X157016Y559557D02*
D03*
X188512D02*
D03*
Y528061D02*
D03*
X157016D02*
D03*
X220008Y559557D02*
D03*
X251504D02*
D03*
Y528061D02*
D03*
X220008D02*
D03*
X357959Y584381D02*
D03*
X397959Y584281D02*
D03*
X388334Y612706D02*
D03*
X297783D02*
D03*
X327311Y86919D02*
D03*
X358807D02*
D03*
Y118612D02*
D03*
X327311D02*
D03*
X295815Y559557D02*
D03*
X327311D02*
D03*
Y528061D02*
D03*
X295815D02*
D03*
X358807Y559557D02*
D03*
X390303D02*
D03*
Y528061D02*
D03*
X358807D02*
D03*
X496757Y584381D02*
D03*
X536757Y584281D02*
D03*
X527133Y612706D02*
D03*
X436581D02*
D03*
X466109Y86919D02*
D03*
X497605D02*
D03*
Y118612D02*
D03*
X466109D02*
D03*
X434613Y559557D02*
D03*
X466109D02*
D03*
Y528061D02*
D03*
X434613D02*
D03*
X497605Y559557D02*
D03*
X529101D02*
D03*
Y528061D02*
D03*
X497605D02*
D03*
X635555Y584381D02*
D03*
X675555Y584281D02*
D03*
X665931Y612706D02*
D03*
X575380D02*
D03*
X604907Y86919D02*
D03*
X636403D02*
D03*
Y118612D02*
D03*
X604907D02*
D03*
X573411Y559557D02*
D03*
X604907D02*
D03*
Y528061D02*
D03*
X573411D02*
D03*
X636403Y559557D02*
D03*
X667899D02*
D03*
Y528061D02*
D03*
X636403D02*
D03*
X774354Y584381D02*
D03*
X814353Y584281D02*
D03*
X804729Y612706D02*
D03*
X714178D02*
D03*
X743706Y86919D02*
D03*
X775202D02*
D03*
Y118612D02*
D03*
X743706D02*
D03*
X712209Y559557D02*
D03*
X743706D02*
D03*
Y528061D02*
D03*
X712209D02*
D03*
X775202Y559557D02*
D03*
X806698D02*
D03*
Y528061D02*
D03*
X775202D02*
D03*
X913152Y584381D02*
D03*
X953152Y584281D02*
D03*
X943527Y612706D02*
D03*
X852976D02*
D03*
X882504Y86919D02*
D03*
X914000D02*
D03*
Y118612D02*
D03*
X882504D02*
D03*
X851008Y559557D02*
D03*
X882504D02*
D03*
Y528061D02*
D03*
X851008D02*
D03*
X914000Y559557D02*
D03*
X945496D02*
D03*
Y528061D02*
D03*
X914000D02*
D03*
X1051950Y584381D02*
D03*
X1091950Y584281D02*
D03*
X1082326Y612706D02*
D03*
X991774D02*
D03*
X1021302Y86919D02*
D03*
X1052798D02*
D03*
Y118612D02*
D03*
X1021302D02*
D03*
X989806Y559557D02*
D03*
X1021302D02*
D03*
Y528061D02*
D03*
X989806D02*
D03*
X1052798Y559557D02*
D03*
X1084294D02*
D03*
Y528061D02*
D03*
X1052798D02*
D03*
X1190748Y584381D02*
D03*
X1230748Y584281D02*
D03*
X1221124Y612706D02*
D03*
X1130573D02*
D03*
X1160100Y86919D02*
D03*
X1191596D02*
D03*
Y118612D02*
D03*
X1160100D02*
D03*
X1128604Y559557D02*
D03*
X1160100D02*
D03*
Y528061D02*
D03*
X1128604D02*
D03*
X1191596Y559557D02*
D03*
X1223092D02*
D03*
Y528061D02*
D03*
X1191596D02*
D03*
D133*
X18893Y234614D02*
D03*
X7239Y293471D02*
D03*
X9181Y283662D02*
D03*
X11123Y273852D02*
D03*
X13066Y264042D02*
D03*
X15008Y254233D02*
D03*
X16950Y244423D02*
D03*
X20835Y224804D02*
D03*
X24762Y205175D02*
D03*
X22762Y214976D02*
D03*
X157691Y234614D02*
D03*
X146037Y293471D02*
D03*
X147979Y283662D02*
D03*
X149922Y273852D02*
D03*
X151864Y264042D02*
D03*
X153806Y254233D02*
D03*
X155749Y244423D02*
D03*
X159633Y224804D02*
D03*
X163560Y205175D02*
D03*
X161560Y214976D02*
D03*
X296489Y234614D02*
D03*
X284835Y293471D02*
D03*
X286778Y283662D02*
D03*
X288720Y273852D02*
D03*
X290662Y264042D02*
D03*
X292605Y254233D02*
D03*
X294547Y244423D02*
D03*
X298432Y224804D02*
D03*
X302359Y205175D02*
D03*
X300359Y214976D02*
D03*
X435288Y234614D02*
D03*
X423633Y293471D02*
D03*
X425576Y283662D02*
D03*
X427518Y273852D02*
D03*
X429461Y264042D02*
D03*
X431403Y254233D02*
D03*
X433345Y244423D02*
D03*
X437230Y224804D02*
D03*
X441157Y205175D02*
D03*
X439157Y214976D02*
D03*
X574086Y234614D02*
D03*
X562432Y293471D02*
D03*
X564374Y283662D02*
D03*
X566317Y273852D02*
D03*
X568259Y264042D02*
D03*
X570201Y254233D02*
D03*
X572144Y244423D02*
D03*
X576028Y224804D02*
D03*
X579955Y205175D02*
D03*
X577955Y214976D02*
D03*
X712884Y234614D02*
D03*
X701230Y293471D02*
D03*
X703172Y283662D02*
D03*
X705115Y273852D02*
D03*
X707057Y264042D02*
D03*
X708999Y254233D02*
D03*
X710942Y244423D02*
D03*
X714826Y224804D02*
D03*
X718753Y205175D02*
D03*
X716753Y214976D02*
D03*
X851682Y234614D02*
D03*
X840028Y293471D02*
D03*
X841971Y283662D02*
D03*
X843913Y273852D02*
D03*
X845855Y264042D02*
D03*
X847798Y254233D02*
D03*
X849740Y244423D02*
D03*
X853625Y224804D02*
D03*
X857552Y205175D02*
D03*
X855552Y214976D02*
D03*
X990481Y234614D02*
D03*
X978827Y293471D02*
D03*
X980769Y283662D02*
D03*
X982711Y273852D02*
D03*
X984654Y264042D02*
D03*
X986596Y254233D02*
D03*
X988538Y244423D02*
D03*
X992423Y224804D02*
D03*
X996350Y205175D02*
D03*
X994350Y214976D02*
D03*
X1129279Y234614D02*
D03*
X1117625Y293471D02*
D03*
X1119567Y283662D02*
D03*
X1121510Y273852D02*
D03*
X1123452Y264042D02*
D03*
X1125394Y254233D02*
D03*
X1127337Y244423D02*
D03*
X1131221Y224804D02*
D03*
X1135148Y205175D02*
D03*
X1133148Y214976D02*
D03*
D135*
X82962Y611738D02*
D03*
X92962D02*
D03*
X72962D02*
D03*
X38362D02*
D03*
X48362D02*
D03*
X221760D02*
D03*
X231760D02*
D03*
X211760D02*
D03*
X177160D02*
D03*
X187160D02*
D03*
X360559D02*
D03*
X370559D02*
D03*
X350559D02*
D03*
X315959D02*
D03*
X325959D02*
D03*
X499357D02*
D03*
X509357D02*
D03*
X489357D02*
D03*
X454757D02*
D03*
X464757D02*
D03*
X638155D02*
D03*
X648155D02*
D03*
X628155D02*
D03*
X593555D02*
D03*
X603555D02*
D03*
X776954D02*
D03*
X786953D02*
D03*
X766954D02*
D03*
X732353D02*
D03*
X742353D02*
D03*
X915752D02*
D03*
X925752D02*
D03*
X905752D02*
D03*
X871152D02*
D03*
X881152D02*
D03*
X1054550D02*
D03*
X1064550D02*
D03*
X1044550D02*
D03*
X1009950D02*
D03*
X1019950D02*
D03*
X1193348D02*
D03*
X1203348D02*
D03*
X1183348D02*
D03*
X1148748D02*
D03*
X1158748D02*
D03*
D136*
X95095Y210979D02*
D03*
X93217Y201318D02*
D03*
X105584Y198914D02*
D03*
X107462Y208576D02*
D03*
X109340Y218237D02*
D03*
X96973Y220641D02*
D03*
X114984Y246714D02*
D03*
X116862Y256376D02*
D03*
X104495Y258779D02*
D03*
X102617Y249118D02*
D03*
X100739Y239456D02*
D03*
X113106Y237052D02*
D03*
X233893Y210979D02*
D03*
X232015Y201318D02*
D03*
X244382Y198914D02*
D03*
X246260Y208576D02*
D03*
X248138Y218237D02*
D03*
X235771Y220641D02*
D03*
X253782Y246714D02*
D03*
X255660Y256376D02*
D03*
X243293Y258779D02*
D03*
X241415Y249118D02*
D03*
X239537Y239456D02*
D03*
X251904Y237052D02*
D03*
X372692Y210979D02*
D03*
X370814Y201318D02*
D03*
X383181Y198914D02*
D03*
X385059Y208576D02*
D03*
X386937Y218237D02*
D03*
X374570Y220641D02*
D03*
X392581Y246714D02*
D03*
X394459Y256376D02*
D03*
X382092Y258779D02*
D03*
X380214Y249118D02*
D03*
X378336Y239456D02*
D03*
X390703Y237052D02*
D03*
X511490Y210979D02*
D03*
X509612Y201318D02*
D03*
X521979Y198914D02*
D03*
X523857Y208576D02*
D03*
X525735Y218237D02*
D03*
X513368Y220641D02*
D03*
X531379Y246714D02*
D03*
X533257Y256376D02*
D03*
X520890Y258779D02*
D03*
X519012Y249118D02*
D03*
X517134Y239456D02*
D03*
X529501Y237052D02*
D03*
X650288Y210979D02*
D03*
X648410Y201318D02*
D03*
X660777Y198914D02*
D03*
X662655Y208576D02*
D03*
X664533Y218237D02*
D03*
X652166Y220641D02*
D03*
X670177Y246714D02*
D03*
X672055Y256376D02*
D03*
X659688Y258779D02*
D03*
X657810Y249118D02*
D03*
X655932Y239456D02*
D03*
X668299Y237052D02*
D03*
X789087Y210979D02*
D03*
X787209Y201318D02*
D03*
X799576Y198914D02*
D03*
X801453Y208576D02*
D03*
X803332Y218237D02*
D03*
X790965Y220641D02*
D03*
X808976Y246714D02*
D03*
X810853Y256376D02*
D03*
X798487Y258779D02*
D03*
X796608Y249118D02*
D03*
X794731Y239456D02*
D03*
X807098Y237052D02*
D03*
X927885Y210979D02*
D03*
X926007Y201318D02*
D03*
X938374Y198914D02*
D03*
X940252Y208576D02*
D03*
X942130Y218237D02*
D03*
X929763Y220641D02*
D03*
X947774Y246714D02*
D03*
X949652Y256376D02*
D03*
X937285Y258779D02*
D03*
X935407Y249118D02*
D03*
X933529Y239456D02*
D03*
X945896Y237052D02*
D03*
X1066683Y210979D02*
D03*
X1064805Y201318D02*
D03*
X1077172Y198914D02*
D03*
X1079050Y208576D02*
D03*
X1080928Y218237D02*
D03*
X1068561Y220641D02*
D03*
X1086572Y246714D02*
D03*
X1088450Y256376D02*
D03*
X1076083Y258779D02*
D03*
X1074205Y249118D02*
D03*
X1072327Y239456D02*
D03*
X1084694Y237052D02*
D03*
X1205481Y210979D02*
D03*
X1203603Y201318D02*
D03*
X1215970Y198914D02*
D03*
X1217848Y208576D02*
D03*
X1219726Y218237D02*
D03*
X1207359Y220641D02*
D03*
X1225370Y246714D02*
D03*
X1227248Y256376D02*
D03*
X1214881Y258779D02*
D03*
X1213003Y249118D02*
D03*
X1211125Y239456D02*
D03*
X1223492Y237052D02*
D03*
D137*
X19762Y322167D02*
D03*
Y308781D02*
D03*
X158560Y322167D02*
D03*
Y308781D02*
D03*
X297359Y322167D02*
D03*
Y308781D02*
D03*
X436157Y322167D02*
D03*
Y308781D02*
D03*
X574955Y322167D02*
D03*
Y308781D02*
D03*
X713754Y322167D02*
D03*
Y308781D02*
D03*
X852552Y322167D02*
D03*
Y308781D02*
D03*
X991350Y322167D02*
D03*
Y308781D02*
D03*
X1130148Y322167D02*
D03*
Y308781D02*
D03*
D138*
X25501Y395383D02*
D03*
Y391053D02*
D03*
X21171Y395383D02*
D03*
Y391053D02*
D03*
X16840Y395383D02*
D03*
Y391053D02*
D03*
X37118Y245682D02*
D03*
X37118Y250012D02*
D03*
X37118Y254343D02*
D03*
X32787Y245682D02*
D03*
X32787Y250012D02*
D03*
X32787Y254343D02*
D03*
X41449D02*
D03*
Y245682D02*
D03*
X41449Y250012D02*
D03*
X45777Y183791D02*
D03*
X48839Y180729D02*
D03*
X42715Y180729D02*
D03*
X39653Y177667D02*
D03*
X42715Y174605D02*
D03*
X45777Y171542D02*
D03*
Y177667D02*
D03*
X48839Y174605D02*
D03*
X164300Y395383D02*
D03*
Y391053D02*
D03*
X159969Y395383D02*
D03*
Y391053D02*
D03*
X155638Y395383D02*
D03*
Y391053D02*
D03*
X175916Y245682D02*
D03*
X175916Y250012D02*
D03*
X175916Y254343D02*
D03*
X171586Y245682D02*
D03*
X171586Y250012D02*
D03*
X171586Y254343D02*
D03*
X180247D02*
D03*
Y245682D02*
D03*
X180247Y250012D02*
D03*
X184575Y183791D02*
D03*
X187638Y180729D02*
D03*
X181513Y180729D02*
D03*
X178451Y177667D02*
D03*
X181513Y174605D02*
D03*
X184575Y171542D02*
D03*
Y177667D02*
D03*
X187638Y174605D02*
D03*
X303098Y395383D02*
D03*
Y391053D02*
D03*
X298767Y395383D02*
D03*
Y391053D02*
D03*
X294437Y395383D02*
D03*
Y391053D02*
D03*
X314715Y245682D02*
D03*
X314715Y250012D02*
D03*
X314715Y254343D02*
D03*
X310384Y245682D02*
D03*
X310384Y250012D02*
D03*
X310384Y254343D02*
D03*
X319045D02*
D03*
Y245682D02*
D03*
X319045Y250012D02*
D03*
X323374Y183791D02*
D03*
X326436Y180729D02*
D03*
X320311Y180729D02*
D03*
X317249Y177667D02*
D03*
X320311Y174605D02*
D03*
X323374Y171542D02*
D03*
Y177667D02*
D03*
X326436Y174605D02*
D03*
X441896Y395383D02*
D03*
Y391053D02*
D03*
X437566Y395383D02*
D03*
Y391053D02*
D03*
X433235Y395383D02*
D03*
Y391053D02*
D03*
X453513Y245682D02*
D03*
X453513Y250012D02*
D03*
X453513Y254343D02*
D03*
X449182Y245682D02*
D03*
X449182Y250012D02*
D03*
X449182Y254343D02*
D03*
X457844D02*
D03*
Y245682D02*
D03*
X457844Y250012D02*
D03*
X462172Y183791D02*
D03*
X465234Y180729D02*
D03*
X459110Y180729D02*
D03*
X456047Y177667D02*
D03*
X459110Y174605D02*
D03*
X462172Y171542D02*
D03*
Y177667D02*
D03*
X465234Y174605D02*
D03*
X580695Y395383D02*
D03*
Y391053D02*
D03*
X576364Y395383D02*
D03*
Y391053D02*
D03*
X572033Y395383D02*
D03*
Y391053D02*
D03*
X592311Y245682D02*
D03*
X592311Y250012D02*
D03*
X592311Y254343D02*
D03*
X587981Y245682D02*
D03*
X587980Y250012D02*
D03*
X587981Y254343D02*
D03*
X596642D02*
D03*
Y245682D02*
D03*
X596642Y250012D02*
D03*
X600970Y183791D02*
D03*
X604033Y180729D02*
D03*
X597908Y180729D02*
D03*
X594846Y177667D02*
D03*
X597908Y174605D02*
D03*
X600970Y171542D02*
D03*
Y177667D02*
D03*
X604033Y174605D02*
D03*
X719493Y395383D02*
D03*
Y391053D02*
D03*
X715162Y395383D02*
D03*
Y391053D02*
D03*
X710831Y395383D02*
D03*
Y391053D02*
D03*
X731109Y245682D02*
D03*
X731109Y250012D02*
D03*
X731109Y254343D02*
D03*
X726779Y245682D02*
D03*
X726779Y250012D02*
D03*
X726779Y254343D02*
D03*
X735440D02*
D03*
Y245682D02*
D03*
X735440Y250012D02*
D03*
X739769Y183791D02*
D03*
X742831Y180729D02*
D03*
X736706Y180729D02*
D03*
X733644Y177667D02*
D03*
X736706Y174605D02*
D03*
X739769Y171542D02*
D03*
Y177667D02*
D03*
X742831Y174605D02*
D03*
X858291Y395383D02*
D03*
Y391053D02*
D03*
X853961Y395383D02*
D03*
Y391053D02*
D03*
X849630Y395383D02*
D03*
Y391053D02*
D03*
X869908Y245682D02*
D03*
X869908Y250012D02*
D03*
X869908Y254343D02*
D03*
X865577Y245682D02*
D03*
X865577Y250012D02*
D03*
X865577Y254343D02*
D03*
X874238D02*
D03*
Y245682D02*
D03*
X874238Y250012D02*
D03*
X878567Y183791D02*
D03*
X881629Y180729D02*
D03*
X875504Y180729D02*
D03*
X872442Y177667D02*
D03*
X875504Y174605D02*
D03*
X878567Y171542D02*
D03*
Y177667D02*
D03*
X881629Y174605D02*
D03*
X997089Y395383D02*
D03*
Y391053D02*
D03*
X992759Y395383D02*
D03*
Y391053D02*
D03*
X988428Y395383D02*
D03*
Y391053D02*
D03*
X1008706Y245682D02*
D03*
X1008706Y250012D02*
D03*
X1008706Y254343D02*
D03*
X1004375Y245682D02*
D03*
X1004375Y250012D02*
D03*
X1004375Y254343D02*
D03*
X1013037D02*
D03*
Y245682D02*
D03*
X1013037Y250012D02*
D03*
X1017365Y183791D02*
D03*
X1020427Y180729D02*
D03*
X1014303Y180729D02*
D03*
X1011240Y177667D02*
D03*
X1014303Y174605D02*
D03*
X1017365Y171542D02*
D03*
Y177667D02*
D03*
X1020427Y174605D02*
D03*
X1135888Y395383D02*
D03*
Y391053D02*
D03*
X1131557Y395383D02*
D03*
Y391053D02*
D03*
X1127226Y395383D02*
D03*
Y391053D02*
D03*
X1147504Y245682D02*
D03*
X1147504Y250012D02*
D03*
X1147504Y254343D02*
D03*
X1143174Y245682D02*
D03*
X1143174Y250012D02*
D03*
X1143174Y254343D02*
D03*
X1151835D02*
D03*
Y245682D02*
D03*
X1151835Y250012D02*
D03*
X1156163Y183791D02*
D03*
X1159226Y180729D02*
D03*
X1153101Y180729D02*
D03*
X1150039Y177667D02*
D03*
X1153101Y174605D02*
D03*
X1156163Y171542D02*
D03*
Y177667D02*
D03*
X1159226Y174605D02*
D03*
D139*
X12413Y253738D02*
D03*
X4644Y292977D02*
D03*
X20167Y214481D02*
D03*
X18240Y224310D02*
D03*
X16298Y234119D02*
D03*
X14356Y243929D02*
D03*
X10471Y263548D02*
D03*
X8529Y273358D02*
D03*
X6586Y283167D02*
D03*
X151212Y253738D02*
D03*
X143442Y292977D02*
D03*
X158966Y214481D02*
D03*
X157039Y224310D02*
D03*
X155096Y234119D02*
D03*
X153154Y243929D02*
D03*
X149269Y263548D02*
D03*
X147327Y273358D02*
D03*
X145385Y283167D02*
D03*
X290010Y253738D02*
D03*
X282241Y292977D02*
D03*
X297764Y214481D02*
D03*
X295837Y224310D02*
D03*
X293895Y234119D02*
D03*
X291952Y243929D02*
D03*
X288068Y263548D02*
D03*
X286125Y273358D02*
D03*
X284183Y283167D02*
D03*
X428808Y253738D02*
D03*
X421039Y292977D02*
D03*
X436562Y214481D02*
D03*
X434635Y224310D02*
D03*
X432693Y234119D02*
D03*
X430751Y243929D02*
D03*
X426866Y263548D02*
D03*
X424924Y273358D02*
D03*
X422981Y283167D02*
D03*
X567606Y253738D02*
D03*
X559837Y292977D02*
D03*
X575360Y214481D02*
D03*
X573433Y224310D02*
D03*
X571491Y234119D02*
D03*
X569549Y243929D02*
D03*
X565664Y263548D02*
D03*
X563722Y273358D02*
D03*
X561779Y283167D02*
D03*
X706405Y253738D02*
D03*
X698635Y292977D02*
D03*
X714159Y214481D02*
D03*
X712232Y224310D02*
D03*
X710289Y234119D02*
D03*
X708347Y243929D02*
D03*
X704462Y263548D02*
D03*
X702520Y273358D02*
D03*
X700578Y283167D02*
D03*
X845203Y253738D02*
D03*
X837434Y292977D02*
D03*
X852957Y214481D02*
D03*
X851030Y224310D02*
D03*
X849088Y234119D02*
D03*
X847145Y243929D02*
D03*
X843261Y263548D02*
D03*
X841318Y273358D02*
D03*
X839376Y283167D02*
D03*
X984001Y253738D02*
D03*
X976232Y292977D02*
D03*
X991755Y214481D02*
D03*
X989828Y224310D02*
D03*
X987886Y234119D02*
D03*
X985944Y243929D02*
D03*
X982059Y263548D02*
D03*
X980117Y273358D02*
D03*
X978174Y283167D02*
D03*
X1122800Y253738D02*
D03*
X1115030Y292977D02*
D03*
X1130554Y214481D02*
D03*
X1128627Y224310D02*
D03*
X1126684Y234119D02*
D03*
X1124742Y243929D02*
D03*
X1120857Y263548D02*
D03*
X1118915Y273358D02*
D03*
X1116973Y283167D02*
D03*
D140*
X22167Y204681D02*
D03*
X160966D02*
D03*
X299764D02*
D03*
X438562D02*
D03*
X577360D02*
D03*
X716159D02*
D03*
X854957D02*
D03*
X993755D02*
D03*
X1132554D02*
D03*
D150*
X65462Y174320D02*
D03*
Y499123D02*
D03*
X204260Y174320D02*
D03*
Y499123D02*
D03*
X343059Y174320D02*
D03*
Y499123D02*
D03*
X481857Y174320D02*
D03*
Y499123D02*
D03*
X620655Y174320D02*
D03*
Y499123D02*
D03*
X759453Y174320D02*
D03*
Y499123D02*
D03*
X898252Y174320D02*
D03*
Y499123D02*
D03*
X1037050Y174320D02*
D03*
Y499123D02*
D03*
X1175848Y174320D02*
D03*
Y499123D02*
D03*
%TF.MD5,da216622359da6f7f95f4d0050dcbd7e*%
M02*
