G04 Layer_Color=255*
%FSLAX25Y25*%
%MOIN*%
%TF.FileFunction,Pads,Bot*%
%TF.Part,CustomerPanel*%
G01*
G75*
%TA.AperFunction,ComponentPad*%
%ADD68C,0.07874*%
%TA.AperFunction,ViaPad*%
%ADD69C,0.07874*%
%TA.AperFunction,ComponentPad*%
%ADD70C,0.02500*%
%ADD71O,0.06000X0.09937*%
%ADD72C,0.06000*%
%ADD73O,0.07874X0.05512*%
%TA.AperFunction,SMDPad,CuDef*%
G04:AMPARAMS|DCode=80|XSize=275.59mil|YSize=196.85mil|CornerRadius=49.21mil|HoleSize=0mil|Usage=FLASHONLY|Rotation=180.000|XOffset=0mil|YOffset=0mil|HoleType=Round|Shape=RoundedRectangle|*
%AMROUNDEDRECTD80*
21,1,0.27559,0.09842,0,0,180.0*
21,1,0.17716,0.19685,0,0,180.0*
1,1,0.09842,-0.08858,0.04921*
1,1,0.09842,0.08858,0.04921*
1,1,0.09842,0.08858,-0.04921*
1,1,0.09842,-0.08858,-0.04921*
%
%ADD80ROUNDEDRECTD80*%
D68*
X50362Y599081D02*
D03*
X60362D02*
D03*
X70362D02*
D03*
X80362D02*
D03*
X189160D02*
D03*
X199160D02*
D03*
X209160D02*
D03*
X219160D02*
D03*
X327959D02*
D03*
X337959D02*
D03*
X347959D02*
D03*
X357959D02*
D03*
X466757D02*
D03*
X476757D02*
D03*
X486757D02*
D03*
X496757D02*
D03*
X605555D02*
D03*
X615555D02*
D03*
X625555D02*
D03*
X635555D02*
D03*
X744353D02*
D03*
X754354D02*
D03*
X764354D02*
D03*
X774354D02*
D03*
X883152D02*
D03*
X893152D02*
D03*
X903152D02*
D03*
X913152D02*
D03*
X1021950D02*
D03*
X1031950D02*
D03*
X1041950D02*
D03*
X1051950D02*
D03*
X1160748D02*
D03*
X1170748D02*
D03*
X1180748D02*
D03*
X1190748D02*
D03*
D69*
X18893Y234614D02*
D03*
X7239Y293471D02*
D03*
X9181Y283662D02*
D03*
X11123Y273852D02*
D03*
X13066Y264042D02*
D03*
X15008Y254233D02*
D03*
X16950Y244423D02*
D03*
X20835Y224804D02*
D03*
X24762Y205175D02*
D03*
X22762Y214976D02*
D03*
X157691Y234614D02*
D03*
X146037Y293471D02*
D03*
X147979Y283662D02*
D03*
X149922Y273852D02*
D03*
X151864Y264042D02*
D03*
X153806Y254233D02*
D03*
X155749Y244423D02*
D03*
X159633Y224804D02*
D03*
X163560Y205175D02*
D03*
X161560Y214976D02*
D03*
X296489Y234614D02*
D03*
X284835Y293471D02*
D03*
X286778Y283662D02*
D03*
X288720Y273852D02*
D03*
X290662Y264042D02*
D03*
X292605Y254233D02*
D03*
X294547Y244423D02*
D03*
X298432Y224804D02*
D03*
X302359Y205175D02*
D03*
X300359Y214976D02*
D03*
X435288Y234614D02*
D03*
X423633Y293471D02*
D03*
X425576Y283662D02*
D03*
X427518Y273852D02*
D03*
X429461Y264042D02*
D03*
X431403Y254233D02*
D03*
X433345Y244423D02*
D03*
X437230Y224804D02*
D03*
X441157Y205175D02*
D03*
X439157Y214976D02*
D03*
X574086Y234614D02*
D03*
X562432Y293471D02*
D03*
X564374Y283662D02*
D03*
X566317Y273852D02*
D03*
X568259Y264042D02*
D03*
X570201Y254233D02*
D03*
X572144Y244423D02*
D03*
X576028Y224804D02*
D03*
X579955Y205175D02*
D03*
X577955Y214976D02*
D03*
X712884Y234614D02*
D03*
X701230Y293471D02*
D03*
X703172Y283662D02*
D03*
X705115Y273852D02*
D03*
X707057Y264042D02*
D03*
X708999Y254233D02*
D03*
X710942Y244423D02*
D03*
X714826Y224804D02*
D03*
X718753Y205175D02*
D03*
X716753Y214976D02*
D03*
X851682Y234614D02*
D03*
X840028Y293471D02*
D03*
X841971Y283662D02*
D03*
X843913Y273852D02*
D03*
X845855Y264042D02*
D03*
X847798Y254233D02*
D03*
X849740Y244423D02*
D03*
X853625Y224804D02*
D03*
X857552Y205175D02*
D03*
X855552Y214976D02*
D03*
X990481Y234614D02*
D03*
X978827Y293471D02*
D03*
X980769Y283662D02*
D03*
X982711Y273852D02*
D03*
X984654Y264042D02*
D03*
X986596Y254233D02*
D03*
X988538Y244423D02*
D03*
X992423Y224804D02*
D03*
X996350Y205175D02*
D03*
X994350Y214976D02*
D03*
X1129279Y234614D02*
D03*
X1117625Y293471D02*
D03*
X1119567Y283662D02*
D03*
X1121510Y273852D02*
D03*
X1123452Y264042D02*
D03*
X1125394Y254233D02*
D03*
X1127337Y244423D02*
D03*
X1131221Y224804D02*
D03*
X1135148Y205175D02*
D03*
X1133148Y214976D02*
D03*
D70*
X68400Y144009D02*
D03*
X207199D02*
D03*
X345997D02*
D03*
X484795D02*
D03*
X623593D02*
D03*
X762392D02*
D03*
X901190D02*
D03*
X1039988D02*
D03*
X1178786D02*
D03*
D71*
X82962Y611738D02*
D03*
X92962D02*
D03*
X72962D02*
D03*
X38362D02*
D03*
X48362D02*
D03*
X221760D02*
D03*
X231760D02*
D03*
X211760D02*
D03*
X177160D02*
D03*
X187160D02*
D03*
X360559D02*
D03*
X370559D02*
D03*
X350559D02*
D03*
X315959D02*
D03*
X325959D02*
D03*
X499357D02*
D03*
X509357D02*
D03*
X489357D02*
D03*
X454757D02*
D03*
X464757D02*
D03*
X638155D02*
D03*
X648155D02*
D03*
X628155D02*
D03*
X593555D02*
D03*
X603555D02*
D03*
X776954D02*
D03*
X786953D02*
D03*
X766954D02*
D03*
X732353D02*
D03*
X742353D02*
D03*
X915752D02*
D03*
X925752D02*
D03*
X905752D02*
D03*
X871152D02*
D03*
X881152D02*
D03*
X1054550D02*
D03*
X1064550D02*
D03*
X1044550D02*
D03*
X1009950D02*
D03*
X1019950D02*
D03*
X1193348D02*
D03*
X1203348D02*
D03*
X1183348D02*
D03*
X1148748D02*
D03*
X1158748D02*
D03*
D72*
X95095Y210979D02*
D03*
X93217Y201318D02*
D03*
X105584Y198914D02*
D03*
X107462Y208576D02*
D03*
X109340Y218237D02*
D03*
X96973Y220641D02*
D03*
X114984Y246714D02*
D03*
X116862Y256376D02*
D03*
X104495Y258779D02*
D03*
X102617Y249118D02*
D03*
X100739Y239456D02*
D03*
X113106Y237052D02*
D03*
X233893Y210979D02*
D03*
X232015Y201318D02*
D03*
X244382Y198914D02*
D03*
X246260Y208576D02*
D03*
X248138Y218237D02*
D03*
X235771Y220641D02*
D03*
X253782Y246714D02*
D03*
X255660Y256376D02*
D03*
X243293Y258779D02*
D03*
X241415Y249118D02*
D03*
X239537Y239456D02*
D03*
X251904Y237052D02*
D03*
X372692Y210979D02*
D03*
X370814Y201318D02*
D03*
X383181Y198914D02*
D03*
X385059Y208576D02*
D03*
X386937Y218237D02*
D03*
X374570Y220641D02*
D03*
X392581Y246714D02*
D03*
X394459Y256376D02*
D03*
X382092Y258779D02*
D03*
X380214Y249118D02*
D03*
X378336Y239456D02*
D03*
X390703Y237052D02*
D03*
X511490Y210979D02*
D03*
X509612Y201318D02*
D03*
X521979Y198914D02*
D03*
X523857Y208576D02*
D03*
X525735Y218237D02*
D03*
X513368Y220641D02*
D03*
X531379Y246714D02*
D03*
X533257Y256376D02*
D03*
X520890Y258779D02*
D03*
X519012Y249118D02*
D03*
X517134Y239456D02*
D03*
X529501Y237052D02*
D03*
X650288Y210979D02*
D03*
X648410Y201318D02*
D03*
X660777Y198914D02*
D03*
X662655Y208576D02*
D03*
X664533Y218237D02*
D03*
X652166Y220641D02*
D03*
X670177Y246714D02*
D03*
X672055Y256376D02*
D03*
X659688Y258779D02*
D03*
X657810Y249118D02*
D03*
X655932Y239456D02*
D03*
X668299Y237052D02*
D03*
X789087Y210979D02*
D03*
X787209Y201318D02*
D03*
X799576Y198914D02*
D03*
X801453Y208576D02*
D03*
X803332Y218237D02*
D03*
X790965Y220641D02*
D03*
X808976Y246714D02*
D03*
X810853Y256376D02*
D03*
X798487Y258779D02*
D03*
X796608Y249118D02*
D03*
X794731Y239456D02*
D03*
X807098Y237052D02*
D03*
X927885Y210979D02*
D03*
X926007Y201318D02*
D03*
X938374Y198914D02*
D03*
X940252Y208576D02*
D03*
X942130Y218237D02*
D03*
X929763Y220641D02*
D03*
X947774Y246714D02*
D03*
X949652Y256376D02*
D03*
X937285Y258779D02*
D03*
X935407Y249118D02*
D03*
X933529Y239456D02*
D03*
X945896Y237052D02*
D03*
X1066683Y210979D02*
D03*
X1064805Y201318D02*
D03*
X1077172Y198914D02*
D03*
X1079050Y208576D02*
D03*
X1080928Y218237D02*
D03*
X1068561Y220641D02*
D03*
X1086572Y246714D02*
D03*
X1088450Y256376D02*
D03*
X1076083Y258779D02*
D03*
X1074205Y249118D02*
D03*
X1072327Y239456D02*
D03*
X1084694Y237052D02*
D03*
X1205481Y210979D02*
D03*
X1203603Y201318D02*
D03*
X1215970Y198914D02*
D03*
X1217848Y208576D02*
D03*
X1219726Y218237D02*
D03*
X1207359Y220641D02*
D03*
X1225370Y246714D02*
D03*
X1227248Y256376D02*
D03*
X1214881Y258779D02*
D03*
X1213003Y249118D02*
D03*
X1211125Y239456D02*
D03*
X1223492Y237052D02*
D03*
D73*
X19762Y322167D02*
D03*
Y308781D02*
D03*
X158560Y322167D02*
D03*
Y308781D02*
D03*
X297359Y322167D02*
D03*
Y308781D02*
D03*
X436157Y322167D02*
D03*
Y308781D02*
D03*
X574955Y322167D02*
D03*
Y308781D02*
D03*
X713754Y322167D02*
D03*
Y308781D02*
D03*
X852552Y322167D02*
D03*
Y308781D02*
D03*
X991350Y322167D02*
D03*
Y308781D02*
D03*
X1130148Y322167D02*
D03*
Y308781D02*
D03*
D80*
X65462Y174320D02*
D03*
Y499123D02*
D03*
X204260Y174320D02*
D03*
Y499123D02*
D03*
X343059Y174320D02*
D03*
Y499123D02*
D03*
X481857Y174320D02*
D03*
Y499123D02*
D03*
X620655Y174320D02*
D03*
Y499123D02*
D03*
X759453Y174320D02*
D03*
Y499123D02*
D03*
X898252Y174320D02*
D03*
Y499123D02*
D03*
X1037050Y174320D02*
D03*
Y499123D02*
D03*
X1175848Y174320D02*
D03*
Y499123D02*
D03*
%TF.MD5,2ada7cbf64f5a4e3eaf8312147f8d328*%
M02*
