G04 Layer_Color=255*
%FSLAX25Y25*%
%MOIN*%
%TF.FileFunction,Pads,Top*%
%TF.Part,CustomerPanel*%
G01*
G75*
%TA.AperFunction,FiducialPad,Global*%
%ADD10C,0.03937*%
%TA.AperFunction,SMDPad,CuDef*%
%ADD11R,0.04331X0.02559*%
%ADD12O,0.02559X0.06496*%
G04:AMPARAMS|DCode=13|XSize=23.62mil|YSize=39.37mil|CornerRadius=2.95mil|HoleSize=0mil|Usage=FLASHONLY|Rotation=180.000|XOffset=0mil|YOffset=0mil|HoleType=Round|Shape=RoundedRectangle|*
%AMROUNDEDRECTD13*
21,1,0.02362,0.03347,0,0,180.0*
21,1,0.01772,0.03937,0,0,180.0*
1,1,0.00591,-0.00886,0.01673*
1,1,0.00591,0.00886,0.01673*
1,1,0.00591,0.00886,-0.01673*
1,1,0.00591,-0.00886,-0.01673*
%
%ADD13ROUNDEDRECTD13*%
%ADD14R,0.03937X0.03543*%
%ADD15O,0.02362X0.06693*%
%ADD16R,0.06693X0.06693*%
%ADD17R,0.04724X0.03937*%
%ADD18R,0.02756X0.04724*%
%ADD19R,0.01968X0.02953*%
%ADD20R,0.08268X0.04724*%
G04:AMPARAMS|DCode=21|XSize=43.31mil|YSize=78.74mil|CornerRadius=0mil|HoleSize=0mil|Usage=FLASHONLY|Rotation=135.000|XOffset=0mil|YOffset=0mil|HoleType=Round|Shape=Rectangle|*
%AMROTATEDRECTD21*
4,1,4,0.04315,0.01253,-0.01253,-0.04315,-0.04315,-0.01253,0.01253,0.04315,0.04315,0.01253,0.0*
%
%ADD21ROTATEDRECTD21*%

G04:AMPARAMS|DCode=22|XSize=74.8mil|YSize=78.74mil|CornerRadius=0mil|HoleSize=0mil|Usage=FLASHONLY|Rotation=135.000|XOffset=0mil|YOffset=0mil|HoleType=Round|Shape=Rectangle|*
%AMROTATEDRECTD22*
4,1,4,0.05429,0.00139,-0.00139,-0.05429,-0.05429,-0.00139,0.00139,0.05429,0.05429,0.00139,0.0*
%
%ADD22ROTATEDRECTD22*%

G04:AMPARAMS|DCode=23|XSize=51.18mil|YSize=43.31mil|CornerRadius=4.33mil|HoleSize=0mil|Usage=FLASHONLY|Rotation=281.000|XOffset=0mil|YOffset=0mil|HoleType=Round|Shape=RoundedRectangle|*
%AMROUNDEDRECTD23*
21,1,0.05118,0.03465,0,0,281.0*
21,1,0.04252,0.04331,0,0,281.0*
1,1,0.00866,-0.01295,-0.02418*
1,1,0.00866,-0.02106,0.01756*
1,1,0.00866,0.01295,0.02418*
1,1,0.00866,0.02106,-0.01756*
%
%ADD23ROUNDEDRECTD23*%
%ADD24R,0.13386X0.09842*%
%ADD25O,0.02362X0.05709*%
%ADD26O,0.03740X0.00787*%
%ADD27O,0.00787X0.03740*%
%ADD28R,0.12323X0.12323*%
%ADD29R,0.07087X0.04528*%
G04:AMPARAMS|DCode=30|XSize=39.37mil|YSize=35.43mil|CornerRadius=0mil|HoleSize=0mil|Usage=FLASHONLY|Rotation=315.000|XOffset=0mil|YOffset=0mil|HoleType=Round|Shape=Rectangle|*
%AMROTATEDRECTD30*
4,1,4,-0.02645,0.00139,-0.00139,0.02645,0.02645,-0.00139,0.00139,-0.02645,-0.02645,0.00139,0.0*
%
%ADD30ROTATEDRECTD30*%

%ADD31R,0.03543X0.03937*%
G04:AMPARAMS|DCode=32|XSize=39.37mil|YSize=35.43mil|CornerRadius=0mil|HoleSize=0mil|Usage=FLASHONLY|Rotation=269.600|XOffset=0mil|YOffset=0mil|HoleType=Round|Shape=Rectangle|*
%AMROTATEDRECTD32*
4,1,4,-0.01758,0.01981,0.01785,0.01956,0.01758,-0.01981,-0.01785,-0.01956,-0.01758,0.01981,0.0*
%
%ADD32ROTATEDRECTD32*%

%ADD33R,0.03740X0.03543*%
%ADD34O,0.01772X0.05512*%
%ADD35R,0.03543X0.03740*%
%ADD36R,0.04724X0.08268*%
%ADD37R,0.03543X0.02756*%
G04:AMPARAMS|DCode=38|XSize=39.37mil|YSize=35.43mil|CornerRadius=0mil|HoleSize=0mil|Usage=FLASHONLY|Rotation=225.000|XOffset=0mil|YOffset=0mil|HoleType=Round|Shape=Rectangle|*
%AMROTATEDRECTD38*
4,1,4,0.00139,0.02645,0.02645,0.00139,-0.00139,-0.02645,-0.02645,-0.00139,0.00139,0.02645,0.0*
%
%ADD38ROTATEDRECTD38*%

%ADD39R,0.02559X0.04331*%
G04:AMPARAMS|DCode=40|XSize=9.84mil|YSize=23.62mil|CornerRadius=1.97mil|HoleSize=0mil|Usage=FLASHONLY|Rotation=180.000|XOffset=0mil|YOffset=0mil|HoleType=Round|Shape=RoundedRectangle|*
%AMROUNDEDRECTD40*
21,1,0.00984,0.01968,0,0,180.0*
21,1,0.00591,0.02362,0,0,180.0*
1,1,0.00394,-0.00295,0.00984*
1,1,0.00394,0.00295,0.00984*
1,1,0.00394,0.00295,-0.00984*
1,1,0.00394,-0.00295,-0.00984*
%
%ADD40ROUNDEDRECTD40*%
%ADD41R,0.03740X0.00787*%
%ADD42R,0.00787X0.03740*%
%ADD43P,0.18374X4X180.0*%
G04:AMPARAMS|DCode=44|XSize=9.84mil|YSize=31.5mil|CornerRadius=0mil|HoleSize=0mil|Usage=FLASHONLY|Rotation=135.000|XOffset=0mil|YOffset=0mil|HoleType=Round|Shape=Round|*
%AMOVALD44*
21,1,0.02165,0.00984,0.00000,0.00000,225.0*
1,1,0.00984,0.00766,0.00766*
1,1,0.00984,-0.00766,-0.00766*
%
%ADD44OVALD44*%

G04:AMPARAMS|DCode=45|XSize=9.84mil|YSize=31.5mil|CornerRadius=0mil|HoleSize=0mil|Usage=FLASHONLY|Rotation=225.000|XOffset=0mil|YOffset=0mil|HoleType=Round|Shape=Round|*
%AMOVALD45*
21,1,0.02165,0.00984,0.00000,0.00000,315.0*
1,1,0.00984,-0.00766,0.00766*
1,1,0.00984,0.00766,-0.00766*
%
%ADD45OVALD45*%

%ADD46O,0.02756X0.01181*%
%ADD47O,0.01181X0.02756*%
G04:AMPARAMS|DCode=48|XSize=70mil|YSize=405.51mil|CornerRadius=17.5mil|HoleSize=0mil|Usage=FLASHONLY|Rotation=180.000|XOffset=0mil|YOffset=0mil|HoleType=Round|Shape=RoundedRectangle|*
%AMROUNDEDRECTD48*
21,1,0.07000,0.37051,0,0,180.0*
21,1,0.03500,0.40551,0,0,180.0*
1,1,0.03500,-0.01750,0.18526*
1,1,0.03500,0.01750,0.18526*
1,1,0.03500,0.01750,-0.18526*
1,1,0.03500,-0.01750,-0.18526*
%
%ADD48ROUNDEDRECTD48*%
G04:AMPARAMS|DCode=49|XSize=51.18mil|YSize=354.33mil|CornerRadius=12.79mil|HoleSize=0mil|Usage=FLASHONLY|Rotation=180.000|XOffset=0mil|YOffset=0mil|HoleType=Round|Shape=RoundedRectangle|*
%AMROUNDEDRECTD49*
21,1,0.05118,0.32874,0,0,180.0*
21,1,0.02559,0.35433,0,0,180.0*
1,1,0.02559,-0.01279,0.16437*
1,1,0.02559,0.01279,0.16437*
1,1,0.02559,0.01279,-0.16437*
1,1,0.02559,-0.01279,-0.16437*
%
%ADD49ROUNDEDRECTD49*%
%ADD50R,0.05905X0.03937*%
G04:AMPARAMS|DCode=51|XSize=98.42mil|YSize=196.85mil|CornerRadius=24.61mil|HoleSize=0mil|Usage=FLASHONLY|Rotation=270.000|XOffset=0mil|YOffset=0mil|HoleType=Round|Shape=RoundedRectangle|*
%AMROUNDEDRECTD51*
21,1,0.09842,0.14764,0,0,270.0*
21,1,0.04921,0.19685,0,0,270.0*
1,1,0.04921,-0.07382,-0.02461*
1,1,0.04921,-0.07382,0.02461*
1,1,0.04921,0.07382,0.02461*
1,1,0.04921,0.07382,-0.02461*
%
%ADD51ROUNDEDRECTD51*%
G04:AMPARAMS|DCode=52|XSize=98.42mil|YSize=66.93mil|CornerRadius=16.73mil|HoleSize=0mil|Usage=FLASHONLY|Rotation=180.000|XOffset=0mil|YOffset=0mil|HoleType=Round|Shape=RoundedRectangle|*
%AMROUNDEDRECTD52*
21,1,0.09842,0.03347,0,0,180.0*
21,1,0.06496,0.06693,0,0,180.0*
1,1,0.03346,-0.03248,0.01673*
1,1,0.03346,0.03248,0.01673*
1,1,0.03346,0.03248,-0.01673*
1,1,0.03346,-0.03248,-0.01673*
%
%ADD52ROUNDEDRECTD52*%
%ADD53R,0.02362X0.05512*%
%ADD54R,0.02362X0.07087*%
%ADD55R,0.04134X0.05512*%
%ADD56R,0.02165X0.15748*%
G04:AMPARAMS|DCode=57|XSize=75mil|YSize=25mil|CornerRadius=0mil|HoleSize=0mil|Usage=FLASHONLY|Rotation=349.000|XOffset=0mil|YOffset=0mil|HoleType=Round|Shape=Round|*
%AMOVALD57*
21,1,0.05000,0.02500,0.00000,0.00000,349.0*
1,1,0.02500,-0.02454,0.00477*
1,1,0.02500,0.02454,-0.00477*
%
%ADD57OVALD57*%

%TA.AperFunction,ComponentPad*%
%ADD68C,0.07874*%
%TA.AperFunction,ViaPad*%
%ADD69C,0.07874*%
%TA.AperFunction,ComponentPad*%
%ADD70C,0.02500*%
%ADD71O,0.06000X0.09937*%
%ADD72C,0.06000*%
%ADD73O,0.07874X0.05512*%
D10*
X19685Y6890D02*
D03*
X1220472D02*
D03*
Y637795D02*
D03*
X19685D02*
D03*
D11*
X60038Y223141D02*
D03*
Y226881D02*
D03*
Y230621D02*
D03*
X69486D02*
D03*
Y226881D02*
D03*
Y223141D02*
D03*
X90738Y270135D02*
D03*
Y277616D02*
D03*
X100187D02*
D03*
Y273875D02*
D03*
Y270135D02*
D03*
X198836Y223141D02*
D03*
Y226881D02*
D03*
Y230621D02*
D03*
X208285D02*
D03*
Y226881D02*
D03*
Y223141D02*
D03*
X229536Y270135D02*
D03*
Y277616D02*
D03*
X238985D02*
D03*
Y273875D02*
D03*
Y270135D02*
D03*
X337634Y223141D02*
D03*
Y226881D02*
D03*
Y230621D02*
D03*
X347083D02*
D03*
Y226881D02*
D03*
Y223141D02*
D03*
X368334Y270135D02*
D03*
Y277616D02*
D03*
X377783D02*
D03*
Y273875D02*
D03*
Y270135D02*
D03*
X476433Y223141D02*
D03*
Y226881D02*
D03*
Y230621D02*
D03*
X485881D02*
D03*
Y226881D02*
D03*
Y223141D02*
D03*
X507133Y270135D02*
D03*
Y277616D02*
D03*
X516581D02*
D03*
Y273875D02*
D03*
Y270135D02*
D03*
X615231Y223141D02*
D03*
Y226881D02*
D03*
Y230621D02*
D03*
X624680D02*
D03*
Y226881D02*
D03*
Y223141D02*
D03*
X645931Y270135D02*
D03*
Y277616D02*
D03*
X655380D02*
D03*
Y273875D02*
D03*
Y270135D02*
D03*
X754029Y223141D02*
D03*
Y226881D02*
D03*
Y230621D02*
D03*
X763478D02*
D03*
Y226881D02*
D03*
Y223141D02*
D03*
X784729Y270135D02*
D03*
Y277616D02*
D03*
X794178D02*
D03*
Y273875D02*
D03*
Y270135D02*
D03*
X892827Y223141D02*
D03*
Y226881D02*
D03*
Y230621D02*
D03*
X902276D02*
D03*
Y226881D02*
D03*
Y223141D02*
D03*
X923527Y270135D02*
D03*
Y277616D02*
D03*
X932976D02*
D03*
Y273875D02*
D03*
Y270135D02*
D03*
X1031626Y223141D02*
D03*
Y226881D02*
D03*
Y230621D02*
D03*
X1041074D02*
D03*
Y226881D02*
D03*
Y223141D02*
D03*
X1062326Y270135D02*
D03*
Y277616D02*
D03*
X1071774D02*
D03*
Y273875D02*
D03*
Y270135D02*
D03*
X1170424Y223141D02*
D03*
Y226881D02*
D03*
Y230621D02*
D03*
X1179873D02*
D03*
Y226881D02*
D03*
Y223141D02*
D03*
X1201124Y270135D02*
D03*
Y277616D02*
D03*
X1210573D02*
D03*
Y273875D02*
D03*
Y270135D02*
D03*
D12*
X21962Y271253D02*
D03*
X26962D02*
D03*
X31962D02*
D03*
X36962D02*
D03*
X41962D02*
D03*
X46962D02*
D03*
X51962D02*
D03*
X56962D02*
D03*
X21962Y293498D02*
D03*
X26962D02*
D03*
X31962D02*
D03*
X36962D02*
D03*
X41962D02*
D03*
X46962D02*
D03*
X51962D02*
D03*
X56962D02*
D03*
X160760Y271253D02*
D03*
X165760D02*
D03*
X170760D02*
D03*
X175760D02*
D03*
X180760D02*
D03*
X185760D02*
D03*
X190760D02*
D03*
X195760D02*
D03*
X160760Y293498D02*
D03*
X165760D02*
D03*
X170760D02*
D03*
X175760D02*
D03*
X180760D02*
D03*
X185760D02*
D03*
X190760D02*
D03*
X195760D02*
D03*
X299559Y271253D02*
D03*
X304559D02*
D03*
X309559D02*
D03*
X314559D02*
D03*
X319559D02*
D03*
X324559D02*
D03*
X329559D02*
D03*
X334559D02*
D03*
X299559Y293498D02*
D03*
X304559D02*
D03*
X309559D02*
D03*
X314559D02*
D03*
X319559D02*
D03*
X324559D02*
D03*
X329559D02*
D03*
X334559D02*
D03*
X438357Y271253D02*
D03*
X443357D02*
D03*
X448357D02*
D03*
X453357D02*
D03*
X458357D02*
D03*
X463357D02*
D03*
X468357D02*
D03*
X473357D02*
D03*
X438357Y293498D02*
D03*
X443357D02*
D03*
X448357D02*
D03*
X453357D02*
D03*
X458357D02*
D03*
X463357D02*
D03*
X468357D02*
D03*
X473357D02*
D03*
X577155Y271253D02*
D03*
X582155D02*
D03*
X587155D02*
D03*
X592155D02*
D03*
X597155D02*
D03*
X602155D02*
D03*
X607155D02*
D03*
X612155D02*
D03*
X577155Y293498D02*
D03*
X582155D02*
D03*
X587155D02*
D03*
X592155D02*
D03*
X597155D02*
D03*
X602155D02*
D03*
X607155D02*
D03*
X612155D02*
D03*
X715953Y271253D02*
D03*
X720954D02*
D03*
X725953D02*
D03*
X730954D02*
D03*
X735954D02*
D03*
X740953D02*
D03*
X745954D02*
D03*
X750953D02*
D03*
X715953Y293498D02*
D03*
X720954D02*
D03*
X725953D02*
D03*
X730954D02*
D03*
X735954D02*
D03*
X740953D02*
D03*
X745954D02*
D03*
X750953D02*
D03*
X854752Y271253D02*
D03*
X859752D02*
D03*
X864752D02*
D03*
X869752D02*
D03*
X874752D02*
D03*
X879752D02*
D03*
X884752D02*
D03*
X889752D02*
D03*
X854752Y293498D02*
D03*
X859752D02*
D03*
X864752D02*
D03*
X869752D02*
D03*
X874752D02*
D03*
X879752D02*
D03*
X884752D02*
D03*
X889752D02*
D03*
X993550Y271253D02*
D03*
X998550D02*
D03*
X1003550D02*
D03*
X1008550D02*
D03*
X1013550D02*
D03*
X1018550D02*
D03*
X1023550D02*
D03*
X1028550D02*
D03*
X993550Y293498D02*
D03*
X998550D02*
D03*
X1003550D02*
D03*
X1008550D02*
D03*
X1013550D02*
D03*
X1018550D02*
D03*
X1023550D02*
D03*
X1028550D02*
D03*
X1132348Y271253D02*
D03*
X1137348D02*
D03*
X1142348D02*
D03*
X1147348D02*
D03*
X1152348D02*
D03*
X1157348D02*
D03*
X1162348D02*
D03*
X1167348D02*
D03*
X1132348Y293498D02*
D03*
X1137348D02*
D03*
X1142348D02*
D03*
X1147348D02*
D03*
X1152348D02*
D03*
X1157348D02*
D03*
X1162348D02*
D03*
X1167348D02*
D03*
D13*
X52702Y216403D02*
D03*
X45222D02*
D03*
X48962Y207348D02*
D03*
X52702Y231403D02*
D03*
X45222D02*
D03*
X48962Y222348D02*
D03*
X191501Y216403D02*
D03*
X184020D02*
D03*
X187760Y207348D02*
D03*
X191501Y231403D02*
D03*
X184020D02*
D03*
X187760Y222348D02*
D03*
X330299Y216403D02*
D03*
X322818D02*
D03*
X326559Y207348D02*
D03*
X330299Y231403D02*
D03*
X322818D02*
D03*
X326559Y222348D02*
D03*
X469097Y216403D02*
D03*
X461617D02*
D03*
X465357Y207348D02*
D03*
X469097Y231403D02*
D03*
X461617D02*
D03*
X465357Y222348D02*
D03*
X607895Y216403D02*
D03*
X600415D02*
D03*
X604155Y207348D02*
D03*
X607895Y231403D02*
D03*
X600415D02*
D03*
X604155Y222348D02*
D03*
X746694Y216403D02*
D03*
X739213D02*
D03*
X742953Y207348D02*
D03*
X746694Y231403D02*
D03*
X739213D02*
D03*
X742953Y222348D02*
D03*
X885492Y216403D02*
D03*
X878012D02*
D03*
X881752Y207348D02*
D03*
X885492Y231403D02*
D03*
X878012D02*
D03*
X881752Y222348D02*
D03*
X1024290Y216403D02*
D03*
X1016810D02*
D03*
X1020550Y207348D02*
D03*
X1024290Y231403D02*
D03*
X1016810D02*
D03*
X1020550Y222348D02*
D03*
X1163089Y216403D02*
D03*
X1155608D02*
D03*
X1159348Y207348D02*
D03*
X1163089Y231403D02*
D03*
X1155608D02*
D03*
X1159348Y222348D02*
D03*
D14*
X84462Y276925D02*
D03*
Y270626D02*
D03*
X76462Y223831D02*
D03*
Y230131D02*
D03*
X8769Y361919D02*
D03*
Y368218D02*
D03*
X6407Y391053D02*
D03*
Y397352D02*
D03*
X53862Y238326D02*
D03*
Y244625D02*
D03*
X8769Y349714D02*
D03*
Y356013D02*
D03*
X93362Y181831D02*
D03*
Y188131D02*
D03*
X28362Y198525D02*
D03*
Y192226D02*
D03*
X51289Y144990D02*
D03*
Y138690D02*
D03*
X7262Y324831D02*
D03*
Y331131D02*
D03*
X43362Y310926D02*
D03*
Y317225D02*
D03*
X7262Y308131D02*
D03*
Y301831D02*
D03*
X56801Y138690D02*
D03*
Y144990D02*
D03*
X45462Y132226D02*
D03*
Y138525D02*
D03*
X53862Y259625D02*
D03*
Y253326D02*
D03*
X39462Y132226D02*
D03*
Y138525D02*
D03*
X98162Y188131D02*
D03*
Y181831D02*
D03*
X7262Y313331D02*
D03*
Y319631D02*
D03*
X77862Y254125D02*
D03*
Y247826D02*
D03*
X37662Y317231D02*
D03*
Y310931D02*
D03*
X103062Y188131D02*
D03*
Y181831D02*
D03*
X95562Y258531D02*
D03*
Y264831D02*
D03*
X15262Y290126D02*
D03*
Y296425D02*
D03*
X77862Y242425D02*
D03*
Y236126D02*
D03*
X49062Y401931D02*
D03*
Y408231D02*
D03*
X34362Y600131D02*
D03*
Y593831D02*
D03*
X89962Y258531D02*
D03*
Y264831D02*
D03*
X84462Y258531D02*
D03*
Y264831D02*
D03*
X41062Y593831D02*
D03*
Y600131D02*
D03*
X223260Y276925D02*
D03*
Y270626D02*
D03*
X215260Y223831D02*
D03*
Y230131D02*
D03*
X147567Y361919D02*
D03*
Y368218D02*
D03*
X145205Y391053D02*
D03*
Y397352D02*
D03*
X192660Y238326D02*
D03*
Y244625D02*
D03*
X147567Y349714D02*
D03*
Y356013D02*
D03*
X232160Y181831D02*
D03*
Y188131D02*
D03*
X167160Y198525D02*
D03*
Y192226D02*
D03*
X190087Y144990D02*
D03*
Y138690D02*
D03*
X146060Y324831D02*
D03*
Y331131D02*
D03*
X182160Y310926D02*
D03*
Y317225D02*
D03*
X146060Y308131D02*
D03*
Y301831D02*
D03*
X195599Y138690D02*
D03*
Y144990D02*
D03*
X184260Y132226D02*
D03*
Y138525D02*
D03*
X192660Y259625D02*
D03*
Y253326D02*
D03*
X178260Y132226D02*
D03*
Y138525D02*
D03*
X236960Y188131D02*
D03*
Y181831D02*
D03*
X146060Y313331D02*
D03*
Y319631D02*
D03*
X216660Y254125D02*
D03*
Y247826D02*
D03*
X176460Y317231D02*
D03*
Y310931D02*
D03*
X241860Y188131D02*
D03*
Y181831D02*
D03*
X234360Y258531D02*
D03*
Y264831D02*
D03*
X154060Y290126D02*
D03*
Y296425D02*
D03*
X216660Y242425D02*
D03*
Y236126D02*
D03*
X187860Y401931D02*
D03*
Y408231D02*
D03*
X173160Y600131D02*
D03*
Y593831D02*
D03*
X228760Y258531D02*
D03*
Y264831D02*
D03*
X223260Y258531D02*
D03*
Y264831D02*
D03*
X179860Y593831D02*
D03*
Y600131D02*
D03*
X362059Y276925D02*
D03*
Y270626D02*
D03*
X354059Y223831D02*
D03*
Y230131D02*
D03*
X286366Y361919D02*
D03*
Y368218D02*
D03*
X284004Y391053D02*
D03*
Y397352D02*
D03*
X331459Y238326D02*
D03*
Y244625D02*
D03*
X286366Y349714D02*
D03*
Y356013D02*
D03*
X370959Y181831D02*
D03*
Y188131D02*
D03*
X305959Y198525D02*
D03*
Y192226D02*
D03*
X328886Y144990D02*
D03*
Y138690D02*
D03*
X284859Y324831D02*
D03*
Y331131D02*
D03*
X320959Y310926D02*
D03*
Y317225D02*
D03*
X284859Y308131D02*
D03*
Y301831D02*
D03*
X334397Y138690D02*
D03*
Y144990D02*
D03*
X323059Y132226D02*
D03*
Y138525D02*
D03*
X331459Y259625D02*
D03*
Y253326D02*
D03*
X317059Y132226D02*
D03*
Y138525D02*
D03*
X375759Y188131D02*
D03*
Y181831D02*
D03*
X284859Y313331D02*
D03*
Y319631D02*
D03*
X355459Y254125D02*
D03*
Y247826D02*
D03*
X315259Y317231D02*
D03*
Y310931D02*
D03*
X380659Y188131D02*
D03*
Y181831D02*
D03*
X373159Y258531D02*
D03*
Y264831D02*
D03*
X292859Y290126D02*
D03*
Y296425D02*
D03*
X355459Y242425D02*
D03*
Y236126D02*
D03*
X326659Y401931D02*
D03*
Y408231D02*
D03*
X311959Y600131D02*
D03*
Y593831D02*
D03*
X367559Y258531D02*
D03*
Y264831D02*
D03*
X362059Y258531D02*
D03*
Y264831D02*
D03*
X318659Y593831D02*
D03*
Y600131D02*
D03*
X500857Y276925D02*
D03*
Y270626D02*
D03*
X492857Y223831D02*
D03*
Y230131D02*
D03*
X425164Y361919D02*
D03*
Y368218D02*
D03*
X422802Y391053D02*
D03*
Y397352D02*
D03*
X470257Y238326D02*
D03*
Y244625D02*
D03*
X425164Y349714D02*
D03*
Y356013D02*
D03*
X509757Y181831D02*
D03*
Y188131D02*
D03*
X444757Y198525D02*
D03*
Y192226D02*
D03*
X467684Y144990D02*
D03*
Y138690D02*
D03*
X423657Y324831D02*
D03*
Y331131D02*
D03*
X459757Y310926D02*
D03*
Y317225D02*
D03*
X423657Y308131D02*
D03*
Y301831D02*
D03*
X473196Y138690D02*
D03*
Y144990D02*
D03*
X461857Y132226D02*
D03*
Y138525D02*
D03*
X470257Y259625D02*
D03*
Y253326D02*
D03*
X455857Y132226D02*
D03*
Y138525D02*
D03*
X514557Y188131D02*
D03*
Y181831D02*
D03*
X423657Y313331D02*
D03*
Y319631D02*
D03*
X494257Y254125D02*
D03*
Y247826D02*
D03*
X454057Y317231D02*
D03*
Y310931D02*
D03*
X519457Y188131D02*
D03*
Y181831D02*
D03*
X511957Y258531D02*
D03*
Y264831D02*
D03*
X431657Y290126D02*
D03*
Y296425D02*
D03*
X494257Y242425D02*
D03*
Y236126D02*
D03*
X465457Y401931D02*
D03*
Y408231D02*
D03*
X450757Y600131D02*
D03*
Y593831D02*
D03*
X506357Y258531D02*
D03*
Y264831D02*
D03*
X500857Y258531D02*
D03*
Y264831D02*
D03*
X457457Y593831D02*
D03*
Y600131D02*
D03*
X639655Y276925D02*
D03*
Y270626D02*
D03*
X631655Y223831D02*
D03*
Y230131D02*
D03*
X563962Y361919D02*
D03*
Y368218D02*
D03*
X561600Y391053D02*
D03*
Y397352D02*
D03*
X609055Y238326D02*
D03*
Y244625D02*
D03*
X563962Y349714D02*
D03*
Y356013D02*
D03*
X648555Y181831D02*
D03*
Y188131D02*
D03*
X583555Y198525D02*
D03*
Y192226D02*
D03*
X606482Y144990D02*
D03*
Y138690D02*
D03*
X562455Y324831D02*
D03*
Y331131D02*
D03*
X598555Y310926D02*
D03*
Y317225D02*
D03*
X562455Y308131D02*
D03*
Y301831D02*
D03*
X611994Y138690D02*
D03*
Y144990D02*
D03*
X600655Y132226D02*
D03*
Y138525D02*
D03*
X609055Y259625D02*
D03*
Y253326D02*
D03*
X594655Y132226D02*
D03*
Y138525D02*
D03*
X653355Y188131D02*
D03*
Y181831D02*
D03*
X562455Y313331D02*
D03*
Y319631D02*
D03*
X633055Y254125D02*
D03*
Y247826D02*
D03*
X592855Y317231D02*
D03*
Y310931D02*
D03*
X658255Y188131D02*
D03*
Y181831D02*
D03*
X650755Y258531D02*
D03*
Y264831D02*
D03*
X570455Y290126D02*
D03*
Y296425D02*
D03*
X633055Y242425D02*
D03*
Y236126D02*
D03*
X604255Y401931D02*
D03*
Y408231D02*
D03*
X589555Y600131D02*
D03*
Y593831D02*
D03*
X645155Y258531D02*
D03*
Y264831D02*
D03*
X639655Y258531D02*
D03*
Y264831D02*
D03*
X596255Y593831D02*
D03*
Y600131D02*
D03*
X778453Y276925D02*
D03*
Y270626D02*
D03*
X770454Y223831D02*
D03*
Y230131D02*
D03*
X702761Y361919D02*
D03*
Y368218D02*
D03*
X700398Y391053D02*
D03*
Y397352D02*
D03*
X747854Y238326D02*
D03*
Y244625D02*
D03*
X702761Y349714D02*
D03*
Y356013D02*
D03*
X787354Y181831D02*
D03*
Y188131D02*
D03*
X722354Y198525D02*
D03*
Y192226D02*
D03*
X745280Y144990D02*
D03*
Y138690D02*
D03*
X701254Y324831D02*
D03*
Y331131D02*
D03*
X737354Y310926D02*
D03*
Y317225D02*
D03*
X701254Y308131D02*
D03*
Y301831D02*
D03*
X750792Y138690D02*
D03*
Y144990D02*
D03*
X739454Y132226D02*
D03*
Y138525D02*
D03*
X747854Y259625D02*
D03*
Y253326D02*
D03*
X733454Y132226D02*
D03*
Y138525D02*
D03*
X792154Y188131D02*
D03*
Y181831D02*
D03*
X701254Y313331D02*
D03*
Y319631D02*
D03*
X771853Y254125D02*
D03*
Y247826D02*
D03*
X731653Y317231D02*
D03*
Y310931D02*
D03*
X797053Y188131D02*
D03*
Y181831D02*
D03*
X789553Y258531D02*
D03*
Y264831D02*
D03*
X709254Y290126D02*
D03*
Y296425D02*
D03*
X771853Y242425D02*
D03*
Y236126D02*
D03*
X743053Y401931D02*
D03*
Y408231D02*
D03*
X728354Y600131D02*
D03*
Y593831D02*
D03*
X783954Y258531D02*
D03*
Y264831D02*
D03*
X778453Y258531D02*
D03*
Y264831D02*
D03*
X735053Y593831D02*
D03*
Y600131D02*
D03*
X917252Y276925D02*
D03*
Y270626D02*
D03*
X909252Y223831D02*
D03*
Y230131D02*
D03*
X841559Y361919D02*
D03*
Y368218D02*
D03*
X839197Y391053D02*
D03*
Y397352D02*
D03*
X886652Y238326D02*
D03*
Y244625D02*
D03*
X841559Y349714D02*
D03*
Y356013D02*
D03*
X926152Y181831D02*
D03*
Y188131D02*
D03*
X861152Y198525D02*
D03*
Y192226D02*
D03*
X884079Y144990D02*
D03*
Y138690D02*
D03*
X840052Y324831D02*
D03*
Y331131D02*
D03*
X876152Y310926D02*
D03*
Y317225D02*
D03*
X840052Y308131D02*
D03*
Y301831D02*
D03*
X889590Y138690D02*
D03*
Y144990D02*
D03*
X878252Y132226D02*
D03*
Y138525D02*
D03*
X886652Y259625D02*
D03*
Y253326D02*
D03*
X872252Y132226D02*
D03*
Y138525D02*
D03*
X930952Y188131D02*
D03*
Y181831D02*
D03*
X840052Y313331D02*
D03*
Y319631D02*
D03*
X910652Y254125D02*
D03*
Y247826D02*
D03*
X870452Y317231D02*
D03*
Y310931D02*
D03*
X935852Y188131D02*
D03*
Y181831D02*
D03*
X928352Y258531D02*
D03*
Y264831D02*
D03*
X848052Y290126D02*
D03*
Y296425D02*
D03*
X910652Y242425D02*
D03*
Y236126D02*
D03*
X881852Y401931D02*
D03*
Y408231D02*
D03*
X867152Y600131D02*
D03*
Y593831D02*
D03*
X922752Y258531D02*
D03*
Y264831D02*
D03*
X917252Y258531D02*
D03*
Y264831D02*
D03*
X873852Y593831D02*
D03*
Y600131D02*
D03*
X1056050Y276925D02*
D03*
Y270626D02*
D03*
X1048050Y223831D02*
D03*
Y230131D02*
D03*
X980357Y361919D02*
D03*
Y368218D02*
D03*
X977995Y391053D02*
D03*
Y397352D02*
D03*
X1025450Y238326D02*
D03*
Y244625D02*
D03*
X980357Y349714D02*
D03*
Y356013D02*
D03*
X1064950Y181831D02*
D03*
Y188131D02*
D03*
X999950Y198525D02*
D03*
Y192226D02*
D03*
X1022877Y144990D02*
D03*
Y138690D02*
D03*
X978850Y324831D02*
D03*
Y331131D02*
D03*
X1014950Y310926D02*
D03*
Y317225D02*
D03*
X978850Y308131D02*
D03*
Y301831D02*
D03*
X1028389Y138690D02*
D03*
Y144990D02*
D03*
X1017050Y132226D02*
D03*
Y138525D02*
D03*
X1025450Y259625D02*
D03*
Y253326D02*
D03*
X1011050Y132226D02*
D03*
Y138525D02*
D03*
X1069750Y188131D02*
D03*
Y181831D02*
D03*
X978850Y313331D02*
D03*
Y319631D02*
D03*
X1049450Y254125D02*
D03*
Y247826D02*
D03*
X1009250Y317231D02*
D03*
Y310931D02*
D03*
X1074650Y188131D02*
D03*
Y181831D02*
D03*
X1067150Y258531D02*
D03*
Y264831D02*
D03*
X986850Y290126D02*
D03*
Y296425D02*
D03*
X1049450Y242425D02*
D03*
Y236126D02*
D03*
X1020650Y401931D02*
D03*
Y408231D02*
D03*
X1005950Y600131D02*
D03*
Y593831D02*
D03*
X1061550Y258531D02*
D03*
Y264831D02*
D03*
X1056050Y258531D02*
D03*
Y264831D02*
D03*
X1012650Y593831D02*
D03*
Y600131D02*
D03*
X1194848Y276925D02*
D03*
Y270626D02*
D03*
X1186848Y223831D02*
D03*
Y230131D02*
D03*
X1119156Y361919D02*
D03*
Y368218D02*
D03*
X1116793Y391053D02*
D03*
Y397352D02*
D03*
X1164248Y238326D02*
D03*
Y244625D02*
D03*
X1119156Y349714D02*
D03*
Y356013D02*
D03*
X1203748Y181831D02*
D03*
Y188131D02*
D03*
X1138748Y198525D02*
D03*
Y192226D02*
D03*
X1161675Y144990D02*
D03*
Y138690D02*
D03*
X1117648Y324831D02*
D03*
Y331131D02*
D03*
X1153748Y310926D02*
D03*
Y317225D02*
D03*
X1117648Y308131D02*
D03*
Y301831D02*
D03*
X1167187Y138690D02*
D03*
Y144990D02*
D03*
X1155848Y132226D02*
D03*
Y138525D02*
D03*
X1164248Y259625D02*
D03*
Y253326D02*
D03*
X1149848Y132226D02*
D03*
Y138525D02*
D03*
X1208548Y188131D02*
D03*
Y181831D02*
D03*
X1117648Y313331D02*
D03*
Y319631D02*
D03*
X1188248Y254125D02*
D03*
Y247826D02*
D03*
X1148048Y317231D02*
D03*
Y310931D02*
D03*
X1213448Y188131D02*
D03*
Y181831D02*
D03*
X1205948Y258531D02*
D03*
Y264831D02*
D03*
X1125648Y290126D02*
D03*
Y296425D02*
D03*
X1188248Y242425D02*
D03*
Y236126D02*
D03*
X1159448Y401931D02*
D03*
Y408231D02*
D03*
X1144748Y600131D02*
D03*
Y593831D02*
D03*
X1200348Y258531D02*
D03*
Y264831D02*
D03*
X1194848Y258531D02*
D03*
Y264831D02*
D03*
X1151448Y593831D02*
D03*
Y600131D02*
D03*
D15*
X70462Y188099D02*
D03*
X75462D02*
D03*
X80462D02*
D03*
X85462D02*
D03*
X70462Y216052D02*
D03*
X75462D02*
D03*
X80462D02*
D03*
X85462D02*
D03*
X209260Y188099D02*
D03*
X214260D02*
D03*
X219260D02*
D03*
X224260D02*
D03*
X209260Y216052D02*
D03*
X214260D02*
D03*
X219260D02*
D03*
X224260D02*
D03*
X348059Y188099D02*
D03*
X353059D02*
D03*
X358059D02*
D03*
X363059D02*
D03*
X348059Y216052D02*
D03*
X353059D02*
D03*
X358059D02*
D03*
X363059D02*
D03*
X486857Y188099D02*
D03*
X491857D02*
D03*
X496857D02*
D03*
X501857D02*
D03*
X486857Y216052D02*
D03*
X491857D02*
D03*
X496857D02*
D03*
X501857D02*
D03*
X625655Y188099D02*
D03*
X630655D02*
D03*
X635655D02*
D03*
X640655D02*
D03*
X625655Y216052D02*
D03*
X630655D02*
D03*
X635655D02*
D03*
X640655D02*
D03*
X764454Y188099D02*
D03*
X769453D02*
D03*
X774453D02*
D03*
X779454D02*
D03*
X764454Y216052D02*
D03*
X769453D02*
D03*
X774453D02*
D03*
X779454D02*
D03*
X903252Y188099D02*
D03*
X908252D02*
D03*
X913252D02*
D03*
X918252D02*
D03*
X903252Y216052D02*
D03*
X908252D02*
D03*
X913252D02*
D03*
X918252D02*
D03*
X1042050Y188099D02*
D03*
X1047050D02*
D03*
X1052050D02*
D03*
X1057050D02*
D03*
X1042050Y216052D02*
D03*
X1047050D02*
D03*
X1052050D02*
D03*
X1057050D02*
D03*
X1180848Y188099D02*
D03*
X1185848D02*
D03*
X1190848D02*
D03*
X1195848D02*
D03*
X1180848Y216052D02*
D03*
X1185848D02*
D03*
X1190848D02*
D03*
X1195848D02*
D03*
D16*
X108479Y580339D02*
D03*
Y588213D02*
D03*
X100605Y580339D02*
D03*
Y588213D02*
D03*
X247277Y580339D02*
D03*
Y588213D02*
D03*
X239403Y580339D02*
D03*
Y588213D02*
D03*
X386075Y580339D02*
D03*
Y588213D02*
D03*
X378201Y580339D02*
D03*
Y588213D02*
D03*
X524873Y580339D02*
D03*
Y588213D02*
D03*
X516999Y580339D02*
D03*
Y588213D02*
D03*
X663672Y580339D02*
D03*
Y588213D02*
D03*
X655798Y580339D02*
D03*
Y588213D02*
D03*
X802470Y580339D02*
D03*
Y588213D02*
D03*
X794596Y580339D02*
D03*
Y588213D02*
D03*
X941268Y580339D02*
D03*
Y588213D02*
D03*
X933394Y580339D02*
D03*
Y588213D02*
D03*
X1080067Y580339D02*
D03*
Y588213D02*
D03*
X1072193Y580339D02*
D03*
Y588213D02*
D03*
X1218865Y580339D02*
D03*
Y588213D02*
D03*
X1210991Y580339D02*
D03*
Y588213D02*
D03*
D17*
X90762Y590576D02*
D03*
Y577583D02*
D03*
X229560Y590576D02*
D03*
Y577583D02*
D03*
X368359Y590576D02*
D03*
Y577583D02*
D03*
X507157Y590576D02*
D03*
Y577583D02*
D03*
X645955Y590576D02*
D03*
Y577583D02*
D03*
X784754Y590576D02*
D03*
Y577583D02*
D03*
X923552Y590576D02*
D03*
Y577583D02*
D03*
X1062350Y590576D02*
D03*
Y577583D02*
D03*
X1201148Y590576D02*
D03*
Y577583D02*
D03*
D18*
X68462Y591559D02*
D03*
Y576992D02*
D03*
X207260Y591559D02*
D03*
Y576992D02*
D03*
X346059Y591559D02*
D03*
Y576992D02*
D03*
X484857Y591559D02*
D03*
Y576992D02*
D03*
X623655Y591559D02*
D03*
Y576992D02*
D03*
X762454Y591559D02*
D03*
Y576992D02*
D03*
X901252Y591559D02*
D03*
Y576992D02*
D03*
X1040050Y591559D02*
D03*
Y576992D02*
D03*
X1178848Y591559D02*
D03*
Y576992D02*
D03*
D19*
X35419Y386876D02*
D03*
X38962D02*
D03*
Y379789D02*
D03*
X35419D02*
D03*
X174217Y386876D02*
D03*
X177760D02*
D03*
Y379789D02*
D03*
X174217D02*
D03*
X313015Y386876D02*
D03*
X316559D02*
D03*
Y379789D02*
D03*
X313015D02*
D03*
X451814Y386876D02*
D03*
X455357D02*
D03*
Y379789D02*
D03*
X451814D02*
D03*
X590612Y386876D02*
D03*
X594155D02*
D03*
Y379789D02*
D03*
X590612D02*
D03*
X729410Y386876D02*
D03*
X732954D02*
D03*
Y379789D02*
D03*
X729410D02*
D03*
X868209Y386876D02*
D03*
X871752D02*
D03*
Y379789D02*
D03*
X868209D02*
D03*
X1007007Y386876D02*
D03*
X1010550D02*
D03*
Y379789D02*
D03*
X1007007D02*
D03*
X1145805Y386876D02*
D03*
X1149348D02*
D03*
Y379789D02*
D03*
X1145805D02*
D03*
D20*
X57588Y315462D02*
D03*
Y321368D02*
D03*
Y309557D02*
D03*
X73336Y321368D02*
D03*
Y309557D02*
D03*
Y315462D02*
D03*
X57588Y402076D02*
D03*
Y407982D02*
D03*
Y396171D02*
D03*
X73336Y407982D02*
D03*
Y396171D02*
D03*
Y402076D02*
D03*
X196386Y315462D02*
D03*
Y321368D02*
D03*
Y309557D02*
D03*
X212134Y321368D02*
D03*
Y309557D02*
D03*
Y315462D02*
D03*
X196386Y402076D02*
D03*
Y407982D02*
D03*
Y396171D02*
D03*
X212134Y407982D02*
D03*
Y396171D02*
D03*
Y402076D02*
D03*
X335185Y315462D02*
D03*
Y321368D02*
D03*
Y309557D02*
D03*
X350933Y321368D02*
D03*
Y309557D02*
D03*
Y315462D02*
D03*
X335185Y402076D02*
D03*
Y407982D02*
D03*
Y396171D02*
D03*
X350933Y407982D02*
D03*
Y396171D02*
D03*
Y402076D02*
D03*
X473983Y315462D02*
D03*
Y321368D02*
D03*
Y309557D02*
D03*
X489731Y321368D02*
D03*
Y309557D02*
D03*
Y315462D02*
D03*
X473983Y402076D02*
D03*
Y407982D02*
D03*
Y396171D02*
D03*
X489731Y407982D02*
D03*
Y396171D02*
D03*
Y402076D02*
D03*
X612781Y315462D02*
D03*
Y321368D02*
D03*
Y309557D02*
D03*
X628529Y321368D02*
D03*
Y309557D02*
D03*
Y315462D02*
D03*
X612781Y402076D02*
D03*
Y407982D02*
D03*
Y396171D02*
D03*
X628529Y407982D02*
D03*
Y396171D02*
D03*
Y402076D02*
D03*
X751580Y315462D02*
D03*
Y321368D02*
D03*
Y309557D02*
D03*
X767327Y321368D02*
D03*
Y309557D02*
D03*
Y315462D02*
D03*
X751580Y402076D02*
D03*
Y407982D02*
D03*
Y396171D02*
D03*
X767327Y407982D02*
D03*
Y396171D02*
D03*
Y402076D02*
D03*
X890378Y315462D02*
D03*
Y321368D02*
D03*
Y309557D02*
D03*
X906126Y321368D02*
D03*
Y309557D02*
D03*
Y315462D02*
D03*
X890378Y402076D02*
D03*
Y407982D02*
D03*
Y396171D02*
D03*
X906126Y407982D02*
D03*
Y396171D02*
D03*
Y402076D02*
D03*
X1029176Y315462D02*
D03*
Y321368D02*
D03*
Y309557D02*
D03*
X1044924Y321368D02*
D03*
Y309557D02*
D03*
Y315462D02*
D03*
X1029176Y402076D02*
D03*
Y407982D02*
D03*
Y396171D02*
D03*
X1044924Y407982D02*
D03*
Y396171D02*
D03*
Y402076D02*
D03*
X1167974Y315462D02*
D03*
Y321368D02*
D03*
Y309557D02*
D03*
X1183722Y321368D02*
D03*
Y309557D02*
D03*
Y315462D02*
D03*
X1167974Y402076D02*
D03*
Y407982D02*
D03*
Y396171D02*
D03*
X1183722Y407982D02*
D03*
Y396171D02*
D03*
Y402076D02*
D03*
D21*
X52044Y353313D02*
D03*
X56025Y349332D02*
D03*
X60006Y345351D02*
D03*
X70919Y372188D02*
D03*
X74900Y368207D02*
D03*
X78881Y364226D02*
D03*
X190842Y353313D02*
D03*
X194823Y349332D02*
D03*
X198804Y345351D02*
D03*
X209717Y372188D02*
D03*
X213698Y368207D02*
D03*
X217679Y364226D02*
D03*
X329640Y353313D02*
D03*
X333621Y349332D02*
D03*
X337602Y345351D02*
D03*
X348515Y372188D02*
D03*
X352496Y368207D02*
D03*
X356477Y364226D02*
D03*
X468439Y353313D02*
D03*
X472420Y349332D02*
D03*
X476401Y345351D02*
D03*
X487313Y372188D02*
D03*
X491294Y368207D02*
D03*
X495275Y364226D02*
D03*
X607237Y353313D02*
D03*
X611218Y349332D02*
D03*
X615199Y345351D02*
D03*
X626112Y372188D02*
D03*
X630093Y368207D02*
D03*
X634074Y364226D02*
D03*
X746035Y353313D02*
D03*
X750016Y349332D02*
D03*
X753997Y345351D02*
D03*
X764910Y372188D02*
D03*
X768891Y368207D02*
D03*
X772872Y364226D02*
D03*
X884834Y353313D02*
D03*
X888814Y349332D02*
D03*
X892795Y345351D02*
D03*
X903708Y372188D02*
D03*
X907689Y368207D02*
D03*
X911670Y364226D02*
D03*
X1023632Y353313D02*
D03*
X1027613Y349332D02*
D03*
X1031594Y345351D02*
D03*
X1042507Y372188D02*
D03*
X1046488Y368207D02*
D03*
X1050468Y364226D02*
D03*
X1162430Y353313D02*
D03*
X1166411Y349332D02*
D03*
X1170392Y345351D02*
D03*
X1181305Y372188D02*
D03*
X1185286Y368207D02*
D03*
X1189267Y364226D02*
D03*
D22*
X55440Y368791D02*
D03*
X75484Y348747D02*
D03*
X194238Y368791D02*
D03*
X214282Y348747D02*
D03*
X333037Y368791D02*
D03*
X353081Y348747D02*
D03*
X471835Y368791D02*
D03*
X491879Y348747D02*
D03*
X610633Y368791D02*
D03*
X630677Y348747D02*
D03*
X749432Y368791D02*
D03*
X769476Y348747D02*
D03*
X888230Y368791D02*
D03*
X908274Y348747D02*
D03*
X1027028Y368791D02*
D03*
X1047072Y348747D02*
D03*
X1165826Y368791D02*
D03*
X1185870Y348747D02*
D03*
D23*
X43117Y148888D02*
D03*
X41614Y156617D02*
D03*
X34658Y155265D02*
D03*
X36160Y147536D02*
D03*
X181915Y148888D02*
D03*
X180413Y156617D02*
D03*
X173456Y155265D02*
D03*
X174959Y147536D02*
D03*
X320713Y148888D02*
D03*
X319211Y156617D02*
D03*
X312255Y155265D02*
D03*
X313757Y147536D02*
D03*
X459512Y148888D02*
D03*
X458009Y156617D02*
D03*
X451053Y155265D02*
D03*
X452555Y147536D02*
D03*
X598310Y148888D02*
D03*
X596807Y156617D02*
D03*
X589851Y155265D02*
D03*
X591353Y147536D02*
D03*
X737108Y148888D02*
D03*
X735606Y156617D02*
D03*
X728649Y155265D02*
D03*
X730152Y147536D02*
D03*
X875906Y148888D02*
D03*
X874404Y156617D02*
D03*
X867448Y155265D02*
D03*
X868950Y147536D02*
D03*
X1014705Y148888D02*
D03*
X1013202Y156617D02*
D03*
X1006246Y155265D02*
D03*
X1007748Y147536D02*
D03*
X1153503Y148888D02*
D03*
X1152001Y156617D02*
D03*
X1145044Y155265D02*
D03*
X1146547Y147536D02*
D03*
D24*
X21171Y393218D02*
D03*
X159969D02*
D03*
X298767D02*
D03*
X437566D02*
D03*
X576364D02*
D03*
X715162D02*
D03*
X853961D02*
D03*
X992759D02*
D03*
X1131557D02*
D03*
D25*
X28671Y403946D02*
D03*
X23671D02*
D03*
X18671D02*
D03*
X13671D02*
D03*
X28671Y382490D02*
D03*
X23671D02*
D03*
X18671D02*
D03*
X13671D02*
D03*
X167469Y403946D02*
D03*
X162469D02*
D03*
X157469D02*
D03*
X152469D02*
D03*
X167469Y382490D02*
D03*
X162469D02*
D03*
X157469D02*
D03*
X152469D02*
D03*
X306267Y403946D02*
D03*
X301267D02*
D03*
X296267D02*
D03*
X291267D02*
D03*
X306267Y382490D02*
D03*
X301267D02*
D03*
X296267D02*
D03*
X291267D02*
D03*
X445066Y403946D02*
D03*
X440066D02*
D03*
X435066D02*
D03*
X430066D02*
D03*
X445066Y382490D02*
D03*
X440066D02*
D03*
X435066D02*
D03*
X430066D02*
D03*
X583864Y403946D02*
D03*
X578864D02*
D03*
X573864D02*
D03*
X568864D02*
D03*
X583864Y382490D02*
D03*
X578864D02*
D03*
X573864D02*
D03*
X568864D02*
D03*
X722662Y403946D02*
D03*
X717662D02*
D03*
X712662D02*
D03*
X707662D02*
D03*
X722662Y382490D02*
D03*
X717662D02*
D03*
X712662D02*
D03*
X707662D02*
D03*
X861460Y403946D02*
D03*
X856460D02*
D03*
X851460D02*
D03*
X846461D02*
D03*
X861460Y382490D02*
D03*
X856460D02*
D03*
X851460D02*
D03*
X846461D02*
D03*
X1000259Y403946D02*
D03*
X995259D02*
D03*
X990259D02*
D03*
X985259D02*
D03*
X1000259Y382490D02*
D03*
X995259D02*
D03*
X990259D02*
D03*
X985259D02*
D03*
X1139057Y403946D02*
D03*
X1134057D02*
D03*
X1129057D02*
D03*
X1124057D02*
D03*
X1139057Y382490D02*
D03*
X1134057D02*
D03*
X1129057D02*
D03*
X1124057D02*
D03*
D26*
X46862Y244107D02*
D03*
X46862Y246076D02*
D03*
Y248044D02*
D03*
Y250012D02*
D03*
Y251981D02*
D03*
Y253949D02*
D03*
X46862Y255918D02*
D03*
X27374D02*
D03*
Y253949D02*
D03*
X27374Y251981D02*
D03*
Y250012D02*
D03*
Y248044D02*
D03*
Y246076D02*
D03*
X27374Y244107D02*
D03*
X185660D02*
D03*
X185660Y246076D02*
D03*
Y248044D02*
D03*
Y250012D02*
D03*
Y251981D02*
D03*
Y253949D02*
D03*
X185660Y255918D02*
D03*
X166172D02*
D03*
Y253949D02*
D03*
X166172Y251981D02*
D03*
Y250012D02*
D03*
Y248044D02*
D03*
Y246076D02*
D03*
X166172Y244107D02*
D03*
X324459D02*
D03*
X324459Y246076D02*
D03*
Y248044D02*
D03*
Y250012D02*
D03*
Y251981D02*
D03*
Y253949D02*
D03*
X324459Y255918D02*
D03*
X304971D02*
D03*
Y253949D02*
D03*
X304971Y251981D02*
D03*
Y250012D02*
D03*
Y248044D02*
D03*
Y246076D02*
D03*
X304971Y244107D02*
D03*
X463257D02*
D03*
X463257Y246076D02*
D03*
Y248044D02*
D03*
Y250012D02*
D03*
Y251981D02*
D03*
Y253949D02*
D03*
X463257Y255918D02*
D03*
X443769D02*
D03*
Y253949D02*
D03*
X443769Y251981D02*
D03*
Y250012D02*
D03*
Y248044D02*
D03*
Y246076D02*
D03*
X443769Y244107D02*
D03*
X602055D02*
D03*
X602055Y246076D02*
D03*
Y248044D02*
D03*
Y250012D02*
D03*
Y251981D02*
D03*
Y253949D02*
D03*
X602055Y255918D02*
D03*
X582567D02*
D03*
Y253949D02*
D03*
X582567Y251981D02*
D03*
Y250012D02*
D03*
Y248044D02*
D03*
Y246076D02*
D03*
X582567Y244107D02*
D03*
X740854D02*
D03*
X740854Y246076D02*
D03*
Y248044D02*
D03*
Y250012D02*
D03*
Y251981D02*
D03*
Y253949D02*
D03*
X740854Y255918D02*
D03*
X721365D02*
D03*
Y253949D02*
D03*
X721365Y251981D02*
D03*
Y250012D02*
D03*
Y248044D02*
D03*
Y246076D02*
D03*
X721365Y244107D02*
D03*
X879652D02*
D03*
X879652Y246076D02*
D03*
Y248044D02*
D03*
Y250012D02*
D03*
Y251981D02*
D03*
Y253949D02*
D03*
X879652Y255918D02*
D03*
X860164D02*
D03*
Y253949D02*
D03*
X860164Y251981D02*
D03*
Y250012D02*
D03*
Y248044D02*
D03*
Y246076D02*
D03*
X860164Y244107D02*
D03*
X1018450D02*
D03*
X1018450Y246076D02*
D03*
Y248044D02*
D03*
Y250012D02*
D03*
Y251981D02*
D03*
Y253949D02*
D03*
X1018450Y255918D02*
D03*
X998962D02*
D03*
Y253949D02*
D03*
X998962Y251981D02*
D03*
Y250012D02*
D03*
Y248044D02*
D03*
Y246076D02*
D03*
X998962Y244107D02*
D03*
X1157248D02*
D03*
X1157248Y246076D02*
D03*
Y248044D02*
D03*
Y250012D02*
D03*
Y251981D02*
D03*
Y253949D02*
D03*
X1157248Y255918D02*
D03*
X1137760D02*
D03*
Y253949D02*
D03*
X1137760Y251981D02*
D03*
Y250012D02*
D03*
Y248044D02*
D03*
Y246076D02*
D03*
X1137760Y244107D02*
D03*
D27*
X43023Y259757D02*
D03*
X41055D02*
D03*
X39086D02*
D03*
X37118D02*
D03*
X35149D02*
D03*
X33181D02*
D03*
X31212D02*
D03*
Y240268D02*
D03*
X33181Y240268D02*
D03*
X35149D02*
D03*
X37118Y240268D02*
D03*
X39086D02*
D03*
X41055D02*
D03*
X43023D02*
D03*
X181822Y259757D02*
D03*
X179853D02*
D03*
X177885D02*
D03*
X175916D02*
D03*
X173948D02*
D03*
X171979D02*
D03*
X170011D02*
D03*
Y240268D02*
D03*
X171979Y240268D02*
D03*
X173948D02*
D03*
X175916Y240268D02*
D03*
X177885D02*
D03*
X179853D02*
D03*
X181822D02*
D03*
X320620Y259757D02*
D03*
X318652D02*
D03*
X316683D02*
D03*
X314715D02*
D03*
X312746D02*
D03*
X310778D02*
D03*
X308809D02*
D03*
Y240268D02*
D03*
X310778Y240268D02*
D03*
X312746D02*
D03*
X314715Y240268D02*
D03*
X316683D02*
D03*
X318652D02*
D03*
X320620D02*
D03*
X459418Y259757D02*
D03*
X457450D02*
D03*
X455481D02*
D03*
X453513D02*
D03*
X451544D02*
D03*
X449576D02*
D03*
X447607D02*
D03*
Y240268D02*
D03*
X449576Y240268D02*
D03*
X451544D02*
D03*
X453513Y240268D02*
D03*
X455481D02*
D03*
X457450D02*
D03*
X459418D02*
D03*
X598217Y259757D02*
D03*
X596248D02*
D03*
X594280D02*
D03*
X592311D02*
D03*
X590343D02*
D03*
X588374D02*
D03*
X586406D02*
D03*
Y240268D02*
D03*
X588374Y240268D02*
D03*
X590343D02*
D03*
X592311Y240268D02*
D03*
X594280D02*
D03*
X596248D02*
D03*
X598217D02*
D03*
X737015Y259757D02*
D03*
X735046D02*
D03*
X733078D02*
D03*
X731109D02*
D03*
X729141D02*
D03*
X727172D02*
D03*
X725204D02*
D03*
Y240268D02*
D03*
X727172Y240268D02*
D03*
X729141D02*
D03*
X731109Y240268D02*
D03*
X733078D02*
D03*
X735046D02*
D03*
X737015D02*
D03*
X875813Y259757D02*
D03*
X873845D02*
D03*
X871876D02*
D03*
X869908D02*
D03*
X867939D02*
D03*
X865971D02*
D03*
X864002D02*
D03*
Y240268D02*
D03*
X865971Y240268D02*
D03*
X867939D02*
D03*
X869908Y240268D02*
D03*
X871876D02*
D03*
X873845D02*
D03*
X875813D02*
D03*
X1014612Y259757D02*
D03*
X1012643D02*
D03*
X1010674D02*
D03*
X1008706D02*
D03*
X1006738D02*
D03*
X1004769D02*
D03*
X1002800D02*
D03*
Y240268D02*
D03*
X1004769Y240268D02*
D03*
X1006738D02*
D03*
X1008706Y240268D02*
D03*
X1010674D02*
D03*
X1012643D02*
D03*
X1014612D02*
D03*
X1153410Y259757D02*
D03*
X1151441D02*
D03*
X1149473D02*
D03*
X1147504D02*
D03*
X1145536D02*
D03*
X1143567D02*
D03*
X1141599D02*
D03*
Y240268D02*
D03*
X1143567Y240268D02*
D03*
X1145536D02*
D03*
X1147504Y240268D02*
D03*
X1149473D02*
D03*
X1151441D02*
D03*
X1153410D02*
D03*
D28*
X37118Y250012D02*
D03*
X175916D02*
D03*
X314715D02*
D03*
X453513D02*
D03*
X592311D02*
D03*
X731109D02*
D03*
X869908D02*
D03*
X1008706D02*
D03*
X1147504D02*
D03*
D29*
X65462Y107588D02*
D03*
Y96171D02*
D03*
X204260Y107588D02*
D03*
Y96171D02*
D03*
X343059Y107588D02*
D03*
Y96171D02*
D03*
X481857Y107588D02*
D03*
Y96171D02*
D03*
X620655Y107588D02*
D03*
Y96171D02*
D03*
X759453Y107588D02*
D03*
Y96171D02*
D03*
X898252Y107588D02*
D03*
Y96171D02*
D03*
X1037050Y107588D02*
D03*
Y96171D02*
D03*
X1175848Y107588D02*
D03*
Y96171D02*
D03*
D30*
X60996Y155091D02*
D03*
X56542Y150637D02*
D03*
X89736Y354303D02*
D03*
X85282Y349849D02*
D03*
X69735Y334148D02*
D03*
X74189Y338603D02*
D03*
X61390Y382650D02*
D03*
X56936Y378196D02*
D03*
X61266Y164022D02*
D03*
X65721Y168477D02*
D03*
X199795Y155091D02*
D03*
X195340Y150637D02*
D03*
X228535Y354303D02*
D03*
X224080Y349849D02*
D03*
X208533Y334148D02*
D03*
X212987Y338603D02*
D03*
X200188Y382650D02*
D03*
X195734Y378196D02*
D03*
X200065Y164022D02*
D03*
X204519Y168477D02*
D03*
X338593Y155091D02*
D03*
X334139Y150637D02*
D03*
X367333Y354303D02*
D03*
X362879Y349849D02*
D03*
X347332Y334148D02*
D03*
X351786Y338603D02*
D03*
X338987Y382650D02*
D03*
X334532Y378196D02*
D03*
X338863Y164022D02*
D03*
X343317Y168477D02*
D03*
X477391Y155091D02*
D03*
X472937Y150637D02*
D03*
X506131Y354303D02*
D03*
X501677Y349849D02*
D03*
X486130Y334148D02*
D03*
X490584Y338603D02*
D03*
X477785Y382650D02*
D03*
X473331Y378196D02*
D03*
X477661Y164022D02*
D03*
X482116Y168477D02*
D03*
X616189Y155091D02*
D03*
X611735Y150637D02*
D03*
X644930Y354303D02*
D03*
X640475Y349849D02*
D03*
X624928Y334148D02*
D03*
X629382Y338603D02*
D03*
X616583Y382650D02*
D03*
X612129Y378196D02*
D03*
X616460Y164022D02*
D03*
X620914Y168477D02*
D03*
X754988Y155091D02*
D03*
X750533Y150637D02*
D03*
X783728Y354303D02*
D03*
X779274Y349849D02*
D03*
X763726Y334148D02*
D03*
X768181Y338603D02*
D03*
X755381Y382650D02*
D03*
X750927Y378196D02*
D03*
X755258Y164022D02*
D03*
X759712Y168477D02*
D03*
X893786Y155091D02*
D03*
X889332Y150637D02*
D03*
X922526Y354303D02*
D03*
X918072Y349849D02*
D03*
X902525Y334148D02*
D03*
X906979Y338603D02*
D03*
X894180Y382650D02*
D03*
X889725Y378196D02*
D03*
X894056Y164022D02*
D03*
X898510Y168477D02*
D03*
X1032584Y155091D02*
D03*
X1028130Y150637D02*
D03*
X1061324Y354303D02*
D03*
X1056870Y349849D02*
D03*
X1041323Y334148D02*
D03*
X1045777Y338603D02*
D03*
X1032978Y382650D02*
D03*
X1028524Y378196D02*
D03*
X1032854Y164022D02*
D03*
X1037309Y168477D02*
D03*
X1171383Y155091D02*
D03*
X1166928Y150637D02*
D03*
X1200123Y354303D02*
D03*
X1195669Y349849D02*
D03*
X1180121Y334148D02*
D03*
X1184575Y338603D02*
D03*
X1171776Y382650D02*
D03*
X1167322Y378196D02*
D03*
X1171653Y164022D02*
D03*
X1176107Y168477D02*
D03*
D31*
X87712Y406081D02*
D03*
X81413D02*
D03*
X63812Y203776D02*
D03*
X57512D02*
D03*
X39112Y210475D02*
D03*
X32812D02*
D03*
X32812Y215476D02*
D03*
X39112D02*
D03*
X99412Y176281D02*
D03*
X93112D02*
D03*
X15313Y330881D02*
D03*
X21612D02*
D03*
X92212Y411581D02*
D03*
X98512D02*
D03*
X87812D02*
D03*
X81512D02*
D03*
X98512Y406081D02*
D03*
X92212D02*
D03*
X97212Y597781D02*
D03*
X90912D02*
D03*
X65512Y216581D02*
D03*
X59212D02*
D03*
X109212Y411581D02*
D03*
X102912D02*
D03*
X63812Y209676D02*
D03*
X57512D02*
D03*
X63112Y236375D02*
D03*
X69412D02*
D03*
X68612Y133475D02*
D03*
X62313D02*
D03*
X15213Y301981D02*
D03*
X21512D02*
D03*
X36513Y324176D02*
D03*
X42812D02*
D03*
X32812Y205475D02*
D03*
X39112D02*
D03*
X64012Y612481D02*
D03*
X57713D02*
D03*
X9163Y594990D02*
D03*
X15462D02*
D03*
X109212Y406081D02*
D03*
X102912D02*
D03*
X33572Y410344D02*
D03*
X27273D02*
D03*
X21612Y410375D02*
D03*
X15313D02*
D03*
X113612Y411581D02*
D03*
X119912D02*
D03*
X112912Y276975D02*
D03*
X119212D02*
D03*
X21413Y594981D02*
D03*
X27712D02*
D03*
X226510Y406081D02*
D03*
X220211D02*
D03*
X202610Y203776D02*
D03*
X196311D02*
D03*
X177910Y210475D02*
D03*
X171611D02*
D03*
X171611Y215476D02*
D03*
X177910D02*
D03*
X238210Y176281D02*
D03*
X231911D02*
D03*
X154111Y330881D02*
D03*
X160410D02*
D03*
X231011Y411581D02*
D03*
X237310D02*
D03*
X226610D02*
D03*
X220311D02*
D03*
X237310Y406081D02*
D03*
X231011D02*
D03*
X236010Y597781D02*
D03*
X229711D02*
D03*
X204310Y216581D02*
D03*
X198011D02*
D03*
X248010Y411581D02*
D03*
X241711D02*
D03*
X202610Y209676D02*
D03*
X196311D02*
D03*
X201911Y236375D02*
D03*
X208210D02*
D03*
X207410Y133475D02*
D03*
X201111D02*
D03*
X154011Y301981D02*
D03*
X160310D02*
D03*
X175311Y324176D02*
D03*
X181610D02*
D03*
X171611Y205475D02*
D03*
X177910D02*
D03*
X202810Y612481D02*
D03*
X196511D02*
D03*
X147961Y594990D02*
D03*
X154260D02*
D03*
X248010Y406081D02*
D03*
X241711D02*
D03*
X172371Y410344D02*
D03*
X166071D02*
D03*
X160410Y410375D02*
D03*
X154111D02*
D03*
X252411Y411581D02*
D03*
X258710D02*
D03*
X251711Y276975D02*
D03*
X258010D02*
D03*
X160211Y594981D02*
D03*
X166510D02*
D03*
X365308Y406081D02*
D03*
X359009D02*
D03*
X341408Y203776D02*
D03*
X335109D02*
D03*
X316708Y210475D02*
D03*
X310409D02*
D03*
X310409Y215476D02*
D03*
X316708D02*
D03*
X377008Y176281D02*
D03*
X370709D02*
D03*
X292909Y330881D02*
D03*
X299208D02*
D03*
X369809Y411581D02*
D03*
X376108D02*
D03*
X365408D02*
D03*
X359109D02*
D03*
X376108Y406081D02*
D03*
X369809D02*
D03*
X374808Y597781D02*
D03*
X368509D02*
D03*
X343108Y216581D02*
D03*
X336809D02*
D03*
X386808Y411581D02*
D03*
X380509D02*
D03*
X341408Y209676D02*
D03*
X335109D02*
D03*
X340709Y236375D02*
D03*
X347008D02*
D03*
X346208Y133475D02*
D03*
X339909D02*
D03*
X292809Y301981D02*
D03*
X299108D02*
D03*
X314109Y324176D02*
D03*
X320408D02*
D03*
X310409Y205475D02*
D03*
X316708D02*
D03*
X341608Y612481D02*
D03*
X335309D02*
D03*
X286759Y594990D02*
D03*
X293059D02*
D03*
X386808Y406081D02*
D03*
X380509D02*
D03*
X311169Y410344D02*
D03*
X304870D02*
D03*
X299208Y410375D02*
D03*
X292909D02*
D03*
X391209Y411581D02*
D03*
X397508D02*
D03*
X390509Y276975D02*
D03*
X396808D02*
D03*
X299009Y594981D02*
D03*
X305308D02*
D03*
X504107Y406081D02*
D03*
X497807D02*
D03*
X480207Y203776D02*
D03*
X473907D02*
D03*
X455507Y210475D02*
D03*
X449207D02*
D03*
X449207Y215476D02*
D03*
X455507D02*
D03*
X515807Y176281D02*
D03*
X509507D02*
D03*
X431707Y330881D02*
D03*
X438007D02*
D03*
X508607Y411581D02*
D03*
X514907D02*
D03*
X504207D02*
D03*
X497907D02*
D03*
X514907Y406081D02*
D03*
X508607D02*
D03*
X513607Y597781D02*
D03*
X507307D02*
D03*
X481907Y216581D02*
D03*
X475607D02*
D03*
X525607Y411581D02*
D03*
X519307D02*
D03*
X480207Y209676D02*
D03*
X473907D02*
D03*
X479507Y236375D02*
D03*
X485807D02*
D03*
X485007Y133475D02*
D03*
X478707D02*
D03*
X431607Y301981D02*
D03*
X437907D02*
D03*
X452907Y324176D02*
D03*
X459207D02*
D03*
X449207Y205475D02*
D03*
X455507D02*
D03*
X480407Y612481D02*
D03*
X474107D02*
D03*
X425558Y594990D02*
D03*
X431857D02*
D03*
X525607Y406081D02*
D03*
X519307D02*
D03*
X449967Y410344D02*
D03*
X443668D02*
D03*
X438007Y410375D02*
D03*
X431707D02*
D03*
X530007Y411581D02*
D03*
X536307D02*
D03*
X529307Y276975D02*
D03*
X535607D02*
D03*
X437807Y594981D02*
D03*
X444107D02*
D03*
X642905Y406081D02*
D03*
X636606D02*
D03*
X619005Y203776D02*
D03*
X612706D02*
D03*
X594305Y210475D02*
D03*
X588006D02*
D03*
X588006Y215476D02*
D03*
X594305D02*
D03*
X654605Y176281D02*
D03*
X648306D02*
D03*
X570506Y330881D02*
D03*
X576805D02*
D03*
X647406Y411581D02*
D03*
X653705D02*
D03*
X643005D02*
D03*
X636706D02*
D03*
X653705Y406081D02*
D03*
X647406D02*
D03*
X652405Y597781D02*
D03*
X646106D02*
D03*
X620705Y216581D02*
D03*
X614406D02*
D03*
X664405Y411581D02*
D03*
X658106D02*
D03*
X619005Y209676D02*
D03*
X612706D02*
D03*
X618306Y236375D02*
D03*
X624605D02*
D03*
X623805Y133475D02*
D03*
X617506D02*
D03*
X570406Y301981D02*
D03*
X576705D02*
D03*
X591706Y324176D02*
D03*
X598005D02*
D03*
X588006Y205475D02*
D03*
X594305D02*
D03*
X619205Y612481D02*
D03*
X612906D02*
D03*
X564356Y594990D02*
D03*
X570655D02*
D03*
X664405Y406081D02*
D03*
X658106D02*
D03*
X588765Y410344D02*
D03*
X582466D02*
D03*
X576805Y410375D02*
D03*
X570506D02*
D03*
X668806Y411581D02*
D03*
X675105D02*
D03*
X668106Y276975D02*
D03*
X674405D02*
D03*
X576606Y594981D02*
D03*
X582905D02*
D03*
X781703Y406081D02*
D03*
X775404D02*
D03*
X757803Y203776D02*
D03*
X751504D02*
D03*
X733103Y210475D02*
D03*
X726804D02*
D03*
X726804Y215476D02*
D03*
X733103D02*
D03*
X793403Y176281D02*
D03*
X787104D02*
D03*
X709304Y330881D02*
D03*
X715603D02*
D03*
X786204Y411581D02*
D03*
X792503D02*
D03*
X781803D02*
D03*
X775504D02*
D03*
X792503Y406081D02*
D03*
X786204D02*
D03*
X791203Y597781D02*
D03*
X784904D02*
D03*
X759503Y216581D02*
D03*
X753204D02*
D03*
X803203Y411581D02*
D03*
X796904D02*
D03*
X757803Y209676D02*
D03*
X751504D02*
D03*
X757104Y236375D02*
D03*
X763403D02*
D03*
X762603Y133475D02*
D03*
X756304D02*
D03*
X709204Y301981D02*
D03*
X715503D02*
D03*
X730504Y324176D02*
D03*
X736803D02*
D03*
X726804Y205475D02*
D03*
X733103D02*
D03*
X758003Y612481D02*
D03*
X751704D02*
D03*
X703154Y594990D02*
D03*
X709453D02*
D03*
X803203Y406081D02*
D03*
X796904D02*
D03*
X727564Y410344D02*
D03*
X721265D02*
D03*
X715603Y410375D02*
D03*
X709304D02*
D03*
X807604Y411581D02*
D03*
X813903D02*
D03*
X806904Y276975D02*
D03*
X813203D02*
D03*
X715404Y594981D02*
D03*
X721703D02*
D03*
X920501Y406081D02*
D03*
X914202D02*
D03*
X896601Y203776D02*
D03*
X890302D02*
D03*
X871901Y210475D02*
D03*
X865602D02*
D03*
X865602Y215476D02*
D03*
X871901D02*
D03*
X932201Y176281D02*
D03*
X925902D02*
D03*
X848102Y330881D02*
D03*
X854401D02*
D03*
X925002Y411581D02*
D03*
X931301D02*
D03*
X920601D02*
D03*
X914302D02*
D03*
X931301Y406081D02*
D03*
X925002D02*
D03*
X930001Y597781D02*
D03*
X923702D02*
D03*
X898301Y216581D02*
D03*
X892002D02*
D03*
X942001Y411581D02*
D03*
X935702D02*
D03*
X896601Y209676D02*
D03*
X890302D02*
D03*
X895902Y236375D02*
D03*
X902201D02*
D03*
X901401Y133475D02*
D03*
X895102D02*
D03*
X848002Y301981D02*
D03*
X854301D02*
D03*
X869302Y324176D02*
D03*
X875601D02*
D03*
X865602Y205475D02*
D03*
X871901D02*
D03*
X896801Y612481D02*
D03*
X890502D02*
D03*
X841953Y594990D02*
D03*
X848252D02*
D03*
X942001Y406081D02*
D03*
X935702D02*
D03*
X866362Y410344D02*
D03*
X860063D02*
D03*
X854401Y410375D02*
D03*
X848102D02*
D03*
X946402Y411581D02*
D03*
X952701D02*
D03*
X945702Y276975D02*
D03*
X952001D02*
D03*
X854202Y594981D02*
D03*
X860501D02*
D03*
X1059300Y406081D02*
D03*
X1053001D02*
D03*
X1035400Y203776D02*
D03*
X1029101D02*
D03*
X1010700Y210475D02*
D03*
X1004401D02*
D03*
X1004401Y215476D02*
D03*
X1010700D02*
D03*
X1071000Y176281D02*
D03*
X1064701D02*
D03*
X986901Y330881D02*
D03*
X993200D02*
D03*
X1063801Y411581D02*
D03*
X1070100D02*
D03*
X1059400D02*
D03*
X1053100D02*
D03*
X1070100Y406081D02*
D03*
X1063801D02*
D03*
X1068800Y597781D02*
D03*
X1062500D02*
D03*
X1037100Y216581D02*
D03*
X1030801D02*
D03*
X1080800Y411581D02*
D03*
X1074500D02*
D03*
X1035400Y209676D02*
D03*
X1029101D02*
D03*
X1034700Y236375D02*
D03*
X1041000D02*
D03*
X1040200Y133475D02*
D03*
X1033901D02*
D03*
X986800Y301981D02*
D03*
X993100D02*
D03*
X1008101Y324176D02*
D03*
X1014400D02*
D03*
X1004401Y205475D02*
D03*
X1010700D02*
D03*
X1035600Y612481D02*
D03*
X1029300D02*
D03*
X980751Y594990D02*
D03*
X987050D02*
D03*
X1080800Y406081D02*
D03*
X1074500D02*
D03*
X1005160Y410344D02*
D03*
X998861D02*
D03*
X993200Y410375D02*
D03*
X986901D02*
D03*
X1085201Y411581D02*
D03*
X1091500D02*
D03*
X1084501Y276975D02*
D03*
X1090800D02*
D03*
X993001Y594981D02*
D03*
X999300D02*
D03*
X1198098Y406081D02*
D03*
X1191799D02*
D03*
X1174198Y203776D02*
D03*
X1167899D02*
D03*
X1149498Y210475D02*
D03*
X1143199D02*
D03*
X1143199Y215476D02*
D03*
X1149498D02*
D03*
X1209798Y176281D02*
D03*
X1203499D02*
D03*
X1125699Y330881D02*
D03*
X1131998D02*
D03*
X1202599Y411581D02*
D03*
X1208898D02*
D03*
X1198198D02*
D03*
X1191899D02*
D03*
X1208898Y406081D02*
D03*
X1202599D02*
D03*
X1207598Y597781D02*
D03*
X1201299D02*
D03*
X1175898Y216581D02*
D03*
X1169599D02*
D03*
X1219598Y411581D02*
D03*
X1213299D02*
D03*
X1174198Y209676D02*
D03*
X1167899D02*
D03*
X1173499Y236375D02*
D03*
X1179798D02*
D03*
X1178998Y133475D02*
D03*
X1172699D02*
D03*
X1125599Y301981D02*
D03*
X1131898D02*
D03*
X1146899Y324176D02*
D03*
X1153198D02*
D03*
X1143199Y205475D02*
D03*
X1149498D02*
D03*
X1174398Y612481D02*
D03*
X1168099D02*
D03*
X1119549Y594990D02*
D03*
X1125848D02*
D03*
X1219598Y406081D02*
D03*
X1213299D02*
D03*
X1143959Y410344D02*
D03*
X1137659D02*
D03*
X1131998Y410375D02*
D03*
X1125699D02*
D03*
X1223999Y411581D02*
D03*
X1230298D02*
D03*
X1223299Y276975D02*
D03*
X1229598D02*
D03*
X1131799Y594981D02*
D03*
X1138098D02*
D03*
D32*
X45612Y199354D02*
D03*
X39313Y199398D02*
D03*
X184410Y199354D02*
D03*
X178111Y199398D02*
D03*
X323208Y199354D02*
D03*
X316909Y199398D02*
D03*
X462007Y199354D02*
D03*
X455707Y199398D02*
D03*
X600805Y199354D02*
D03*
X594506Y199398D02*
D03*
X739603Y199354D02*
D03*
X733304Y199398D02*
D03*
X878401Y199354D02*
D03*
X872102Y199398D02*
D03*
X1017200Y199354D02*
D03*
X1010901Y199398D02*
D03*
X1155998Y199354D02*
D03*
X1149699Y199398D02*
D03*
D33*
X67041Y293116D02*
D03*
X76883Y289375D02*
D03*
X67041Y285635D02*
D03*
X205839Y293116D02*
D03*
X215682Y289375D02*
D03*
X205839Y285635D02*
D03*
X344637Y293116D02*
D03*
X354480Y289375D02*
D03*
X344637Y285635D02*
D03*
X483436Y293116D02*
D03*
X493278Y289375D02*
D03*
X483436Y285635D02*
D03*
X622234Y293116D02*
D03*
X632077Y289375D02*
D03*
X622234Y285635D02*
D03*
X761032Y293116D02*
D03*
X770875Y289375D02*
D03*
X761032Y285635D02*
D03*
X899831Y293116D02*
D03*
X909673Y289375D02*
D03*
X899831Y285635D02*
D03*
X1038629Y293116D02*
D03*
X1048471Y289375D02*
D03*
X1038629Y285635D02*
D03*
X1177427Y293116D02*
D03*
X1187270Y289375D02*
D03*
X1177427Y285635D02*
D03*
D34*
X91212Y248390D02*
D03*
X88712D02*
D03*
X86212D02*
D03*
X83712D02*
D03*
X91212Y225161D02*
D03*
X88712D02*
D03*
X86212D02*
D03*
X83712D02*
D03*
X230010Y248390D02*
D03*
X227510D02*
D03*
X225010D02*
D03*
X222510D02*
D03*
X230010Y225161D02*
D03*
X227510D02*
D03*
X225010D02*
D03*
X222510D02*
D03*
X368809Y248390D02*
D03*
X366309D02*
D03*
X363809D02*
D03*
X361309D02*
D03*
X368809Y225161D02*
D03*
X366309D02*
D03*
X363809D02*
D03*
X361309D02*
D03*
X507607Y248390D02*
D03*
X505107D02*
D03*
X502607D02*
D03*
X500107D02*
D03*
X507607Y225161D02*
D03*
X505107D02*
D03*
X502607D02*
D03*
X500107D02*
D03*
X646405Y248390D02*
D03*
X643905D02*
D03*
X641405D02*
D03*
X638905D02*
D03*
X646405Y225161D02*
D03*
X643905D02*
D03*
X641405D02*
D03*
X638905D02*
D03*
X785204Y248390D02*
D03*
X782703D02*
D03*
X780203D02*
D03*
X777704D02*
D03*
X785204Y225161D02*
D03*
X782703D02*
D03*
X780203D02*
D03*
X777704D02*
D03*
X924002Y248390D02*
D03*
X921502D02*
D03*
X919002D02*
D03*
X916502D02*
D03*
X924002Y225161D02*
D03*
X921502D02*
D03*
X919002D02*
D03*
X916502D02*
D03*
X1062800Y248390D02*
D03*
X1060300D02*
D03*
X1057800D02*
D03*
X1055300D02*
D03*
X1062800Y225161D02*
D03*
X1060300D02*
D03*
X1057800D02*
D03*
X1055300D02*
D03*
X1201598Y248390D02*
D03*
X1199098D02*
D03*
X1196598D02*
D03*
X1194098D02*
D03*
X1201598Y225161D02*
D03*
X1199098D02*
D03*
X1196598D02*
D03*
X1194098D02*
D03*
D35*
X35922Y393654D02*
D03*
X39662Y403497D02*
D03*
X43402Y393654D02*
D03*
X48822Y577454D02*
D03*
X52562Y587297D02*
D03*
X56302Y577454D02*
D03*
X29045Y577470D02*
D03*
X25305Y587313D02*
D03*
X21565Y577470D02*
D03*
X35344D02*
D03*
X39084Y587313D02*
D03*
X42824Y577470D02*
D03*
X174720Y393654D02*
D03*
X178460Y403497D02*
D03*
X182201Y393654D02*
D03*
X187620Y577454D02*
D03*
X191360Y587297D02*
D03*
X195101Y577454D02*
D03*
X167843Y577470D02*
D03*
X164103Y587313D02*
D03*
X160363Y577470D02*
D03*
X174142D02*
D03*
X177883Y587313D02*
D03*
X181623Y577470D02*
D03*
X313519Y393654D02*
D03*
X317259Y403497D02*
D03*
X320999Y393654D02*
D03*
X326418Y577454D02*
D03*
X330159Y587297D02*
D03*
X333899Y577454D02*
D03*
X306641Y577470D02*
D03*
X302901Y587313D02*
D03*
X299161Y577470D02*
D03*
X312941D02*
D03*
X316681Y587313D02*
D03*
X320421Y577470D02*
D03*
X452317Y393654D02*
D03*
X456057Y403497D02*
D03*
X459797Y393654D02*
D03*
X465217Y577454D02*
D03*
X468957Y587297D02*
D03*
X472697Y577454D02*
D03*
X445440Y577470D02*
D03*
X441700Y587313D02*
D03*
X437959Y577470D02*
D03*
X451739D02*
D03*
X455479Y587313D02*
D03*
X459219Y577470D02*
D03*
X591115Y393654D02*
D03*
X594855Y403497D02*
D03*
X598595Y393654D02*
D03*
X604015Y577454D02*
D03*
X607755Y587297D02*
D03*
X611495Y577454D02*
D03*
X584238Y577470D02*
D03*
X580498Y587313D02*
D03*
X576758Y577470D02*
D03*
X590537D02*
D03*
X594277Y587313D02*
D03*
X598018Y577470D02*
D03*
X729913Y393654D02*
D03*
X733653Y403497D02*
D03*
X737394Y393654D02*
D03*
X742813Y577454D02*
D03*
X746554Y587297D02*
D03*
X750294Y577454D02*
D03*
X723036Y577470D02*
D03*
X719296Y587313D02*
D03*
X715556Y577470D02*
D03*
X729335D02*
D03*
X733076Y587313D02*
D03*
X736816Y577470D02*
D03*
X868712Y393654D02*
D03*
X872452Y403497D02*
D03*
X876192Y393654D02*
D03*
X881612Y577454D02*
D03*
X885352Y587297D02*
D03*
X889092Y577454D02*
D03*
X861835Y577470D02*
D03*
X858094Y587313D02*
D03*
X854354Y577470D02*
D03*
X868134D02*
D03*
X871874Y587313D02*
D03*
X875614Y577470D02*
D03*
X1007510Y393654D02*
D03*
X1011250Y403497D02*
D03*
X1014990Y393654D02*
D03*
X1020410Y577454D02*
D03*
X1024150Y587297D02*
D03*
X1027890Y577454D02*
D03*
X1000633Y577470D02*
D03*
X996893Y587313D02*
D03*
X993152Y577470D02*
D03*
X1006932D02*
D03*
X1010672Y587313D02*
D03*
X1014412Y577470D02*
D03*
X1146308Y393654D02*
D03*
X1150048Y403497D02*
D03*
X1153788Y393654D02*
D03*
X1159208Y577454D02*
D03*
X1162948Y587297D02*
D03*
X1166689Y577454D02*
D03*
X1139431Y577470D02*
D03*
X1135691Y587313D02*
D03*
X1131951Y577470D02*
D03*
X1145730D02*
D03*
X1149470Y587313D02*
D03*
X1153211Y577470D02*
D03*
D36*
X108769Y350895D02*
D03*
X102864D02*
D03*
X114675D02*
D03*
X102864Y366643D02*
D03*
X114675D02*
D03*
X108769D02*
D03*
X22155Y350895D02*
D03*
X16250D02*
D03*
X28061D02*
D03*
X16250Y366643D02*
D03*
X28061D02*
D03*
X22155D02*
D03*
X247568Y350895D02*
D03*
X241662D02*
D03*
X253473D02*
D03*
X241662Y366643D02*
D03*
X253473D02*
D03*
X247568D02*
D03*
X160953Y350895D02*
D03*
X155048D02*
D03*
X166859D02*
D03*
X155048Y366643D02*
D03*
X166859D02*
D03*
X160953D02*
D03*
X386366Y350895D02*
D03*
X380460D02*
D03*
X392271D02*
D03*
X380460Y366643D02*
D03*
X392271D02*
D03*
X386366D02*
D03*
X299752Y350895D02*
D03*
X293846D02*
D03*
X305657D02*
D03*
X293846Y366643D02*
D03*
X305657D02*
D03*
X299752D02*
D03*
X525164Y350895D02*
D03*
X519259D02*
D03*
X531070D02*
D03*
X519259Y366643D02*
D03*
X531070D02*
D03*
X525164D02*
D03*
X438550Y350895D02*
D03*
X432644D02*
D03*
X444455D02*
D03*
X432644Y366643D02*
D03*
X444455D02*
D03*
X438550D02*
D03*
X663962Y350895D02*
D03*
X658057D02*
D03*
X669868D02*
D03*
X658057Y366643D02*
D03*
X669868D02*
D03*
X663962D02*
D03*
X577348Y350895D02*
D03*
X571443D02*
D03*
X583254D02*
D03*
X571443Y366643D02*
D03*
X583254D02*
D03*
X577348D02*
D03*
X802761Y350895D02*
D03*
X796855D02*
D03*
X808666D02*
D03*
X796855Y366643D02*
D03*
X808666D02*
D03*
X802761D02*
D03*
X716146Y350895D02*
D03*
X710241D02*
D03*
X722052D02*
D03*
X710241Y366643D02*
D03*
X722052D02*
D03*
X716146D02*
D03*
X941559Y350895D02*
D03*
X935653D02*
D03*
X947464D02*
D03*
X935653Y366643D02*
D03*
X947464D02*
D03*
X941559D02*
D03*
X854945Y350895D02*
D03*
X849039D02*
D03*
X860850D02*
D03*
X849039Y366643D02*
D03*
X860850D02*
D03*
X854945D02*
D03*
X1080357Y350895D02*
D03*
X1074452D02*
D03*
X1086263D02*
D03*
X1074452Y366643D02*
D03*
X1086263D02*
D03*
X1080357D02*
D03*
X993743Y350895D02*
D03*
X987838D02*
D03*
X999648D02*
D03*
X987838Y366643D02*
D03*
X999648D02*
D03*
X993743D02*
D03*
X1219156Y350895D02*
D03*
X1213250D02*
D03*
X1225061D02*
D03*
X1213250Y366643D02*
D03*
X1225061D02*
D03*
X1219156D02*
D03*
X1132541Y350895D02*
D03*
X1126636D02*
D03*
X1138447D02*
D03*
X1126636Y366643D02*
D03*
X1138447D02*
D03*
X1132541D02*
D03*
D37*
X9557Y414281D02*
D03*
Y408769D02*
D03*
X148355Y414281D02*
D03*
Y408769D02*
D03*
X287153Y414281D02*
D03*
Y408769D02*
D03*
X425951Y414281D02*
D03*
Y408769D02*
D03*
X564750Y414281D02*
D03*
Y408769D02*
D03*
X703548Y414281D02*
D03*
Y408769D02*
D03*
X842346Y414281D02*
D03*
Y408769D02*
D03*
X981145Y414281D02*
D03*
Y408769D02*
D03*
X1119943Y414281D02*
D03*
Y408769D02*
D03*
D38*
X52729Y154180D02*
D03*
X48274Y158634D02*
D03*
X56272Y157723D02*
D03*
X51818Y162177D02*
D03*
X191527Y154180D02*
D03*
X187073Y158634D02*
D03*
X195070Y157723D02*
D03*
X190616Y162177D02*
D03*
X330325Y154180D02*
D03*
X325871Y158634D02*
D03*
X333869Y157723D02*
D03*
X329414Y162177D02*
D03*
X469123Y154180D02*
D03*
X464669Y158634D02*
D03*
X472667Y157723D02*
D03*
X468213Y162177D02*
D03*
X607922Y154180D02*
D03*
X603468Y158634D02*
D03*
X611465Y157723D02*
D03*
X607011Y162177D02*
D03*
X746720Y154180D02*
D03*
X742266Y158634D02*
D03*
X750263Y157723D02*
D03*
X745809Y162177D02*
D03*
X885518Y154180D02*
D03*
X881064Y158634D02*
D03*
X889062Y157723D02*
D03*
X884607Y162177D02*
D03*
X1024317Y154180D02*
D03*
X1019862Y158634D02*
D03*
X1027860Y157723D02*
D03*
X1023406Y162177D02*
D03*
X1163115Y154180D02*
D03*
X1158661Y158634D02*
D03*
X1166658Y157723D02*
D03*
X1162204Y162177D02*
D03*
D39*
X69202Y67551D02*
D03*
X65462D02*
D03*
X61722D02*
D03*
Y77000D02*
D03*
X65462D02*
D03*
X69202D02*
D03*
X208001Y67551D02*
D03*
X204260D02*
D03*
X200520D02*
D03*
Y77000D02*
D03*
X204260D02*
D03*
X208001D02*
D03*
X346799Y67551D02*
D03*
X343059D02*
D03*
X339318D02*
D03*
Y77000D02*
D03*
X343059D02*
D03*
X346799D02*
D03*
X485597Y67551D02*
D03*
X481857D02*
D03*
X478117D02*
D03*
Y77000D02*
D03*
X481857D02*
D03*
X485597D02*
D03*
X624395Y67551D02*
D03*
X620655D02*
D03*
X616915D02*
D03*
Y77000D02*
D03*
X620655D02*
D03*
X624395D02*
D03*
X763194Y67551D02*
D03*
X759453D02*
D03*
X755713D02*
D03*
Y77000D02*
D03*
X759453D02*
D03*
X763194D02*
D03*
X901992Y67551D02*
D03*
X898252D02*
D03*
X894512D02*
D03*
Y77000D02*
D03*
X898252D02*
D03*
X901992D02*
D03*
X1040790Y67551D02*
D03*
X1037050D02*
D03*
X1033310D02*
D03*
Y77000D02*
D03*
X1037050D02*
D03*
X1040790D02*
D03*
X1179589Y67551D02*
D03*
X1175848D02*
D03*
X1172108D02*
D03*
Y77000D02*
D03*
X1175848D02*
D03*
X1179589D02*
D03*
D40*
X15215Y589586D02*
D03*
X13246D02*
D03*
X11278D02*
D03*
X9309D02*
D03*
X15215Y577775D02*
D03*
X13246D02*
D03*
X11278D02*
D03*
X9309D02*
D03*
X154013Y589586D02*
D03*
X152045D02*
D03*
X150076D02*
D03*
X148108D02*
D03*
X154013Y577775D02*
D03*
X152045D02*
D03*
X150076D02*
D03*
X148108D02*
D03*
X292811Y589586D02*
D03*
X290843D02*
D03*
X288874D02*
D03*
X286906D02*
D03*
X292811Y577775D02*
D03*
X290843D02*
D03*
X288874D02*
D03*
X286906D02*
D03*
X431610Y589586D02*
D03*
X429641D02*
D03*
X427673D02*
D03*
X425704D02*
D03*
X431610Y577775D02*
D03*
X429641D02*
D03*
X427673D02*
D03*
X425704D02*
D03*
X570408Y589586D02*
D03*
X568439D02*
D03*
X566471D02*
D03*
X564502D02*
D03*
X570408Y577775D02*
D03*
X568439D02*
D03*
X566471D02*
D03*
X564502D02*
D03*
X709206Y589586D02*
D03*
X707238D02*
D03*
X705269D02*
D03*
X703301D02*
D03*
X709206Y577775D02*
D03*
X707238D02*
D03*
X705269D02*
D03*
X703301D02*
D03*
X848005Y589586D02*
D03*
X846036D02*
D03*
X844067D02*
D03*
X842099D02*
D03*
X848005Y577775D02*
D03*
X846036D02*
D03*
X844067D02*
D03*
X842099D02*
D03*
X986803Y589586D02*
D03*
X984834D02*
D03*
X982866D02*
D03*
X980897D02*
D03*
X986803Y577775D02*
D03*
X984834D02*
D03*
X982866D02*
D03*
X980897D02*
D03*
X1125601Y589586D02*
D03*
X1123633D02*
D03*
X1121664D02*
D03*
X1119696D02*
D03*
X1125601Y577775D02*
D03*
X1123633D02*
D03*
X1121664D02*
D03*
X1119696D02*
D03*
D41*
X65525Y271076D02*
D03*
X73399D02*
D03*
X204323D02*
D03*
X212197D02*
D03*
X343122D02*
D03*
X350996D02*
D03*
X481920D02*
D03*
X489794D02*
D03*
X620718D02*
D03*
X628592D02*
D03*
X759516D02*
D03*
X767390D02*
D03*
X898315D02*
D03*
X906189D02*
D03*
X1037113D02*
D03*
X1044987D02*
D03*
X1175911D02*
D03*
X1183785D02*
D03*
D42*
X66312Y267670D02*
D03*
X67887D02*
D03*
X69462D02*
D03*
X71037D02*
D03*
X72612D02*
D03*
X66312Y274481D02*
D03*
X67887D02*
D03*
X69462D02*
D03*
X71037D02*
D03*
X72612D02*
D03*
X205111Y267670D02*
D03*
X206686D02*
D03*
X208260D02*
D03*
X209835D02*
D03*
X211410D02*
D03*
X205111Y274481D02*
D03*
X206686D02*
D03*
X208260D02*
D03*
X209835D02*
D03*
X211410D02*
D03*
X343909Y267670D02*
D03*
X345484D02*
D03*
X347059D02*
D03*
X348634D02*
D03*
X350208D02*
D03*
X343909Y274481D02*
D03*
X345484D02*
D03*
X347059D02*
D03*
X348634D02*
D03*
X350208D02*
D03*
X482707Y267670D02*
D03*
X484282D02*
D03*
X485857D02*
D03*
X487432D02*
D03*
X489007D02*
D03*
X482707Y274481D02*
D03*
X484282D02*
D03*
X485857D02*
D03*
X487432D02*
D03*
X489007D02*
D03*
X621506Y267670D02*
D03*
X623080D02*
D03*
X624655D02*
D03*
X626230D02*
D03*
X627805D02*
D03*
X621506Y274481D02*
D03*
X623080D02*
D03*
X624655D02*
D03*
X626230D02*
D03*
X627805D02*
D03*
X760304Y267670D02*
D03*
X761879D02*
D03*
X763453D02*
D03*
X765028D02*
D03*
X766603D02*
D03*
X760304Y274481D02*
D03*
X761879D02*
D03*
X763453D02*
D03*
X765028D02*
D03*
X766603D02*
D03*
X899102Y267670D02*
D03*
X900677D02*
D03*
X902252D02*
D03*
X903827D02*
D03*
X905401D02*
D03*
X899102Y274481D02*
D03*
X900677D02*
D03*
X902252D02*
D03*
X903827D02*
D03*
X905401D02*
D03*
X1037901Y267670D02*
D03*
X1039475D02*
D03*
X1041050D02*
D03*
X1042625D02*
D03*
X1044200D02*
D03*
X1037901Y274481D02*
D03*
X1039475D02*
D03*
X1041050D02*
D03*
X1042625D02*
D03*
X1044200D02*
D03*
X1176699Y267670D02*
D03*
X1178274D02*
D03*
X1179848D02*
D03*
X1181423D02*
D03*
X1182998D02*
D03*
X1176699Y274481D02*
D03*
X1178274D02*
D03*
X1179848D02*
D03*
X1181423D02*
D03*
X1182998D02*
D03*
D43*
X45777Y177667D02*
D03*
X184575D02*
D03*
X323374D02*
D03*
X462172D02*
D03*
X600970D02*
D03*
X739769D02*
D03*
X878567D02*
D03*
X1017365D02*
D03*
X1156163D02*
D03*
D44*
X43689Y165835D02*
D03*
X42297Y167227D02*
D03*
X40905Y168619D02*
D03*
X39513Y170011D02*
D03*
X38121Y171403D02*
D03*
X36729Y172795D02*
D03*
X35337Y174187D02*
D03*
X33946Y175579D02*
D03*
X47865Y189498D02*
D03*
X49257Y188106D02*
D03*
X50649Y186714D02*
D03*
X52041Y185322D02*
D03*
X53433Y183931D02*
D03*
X54825Y182539D02*
D03*
X56217Y181147D02*
D03*
X57609Y179755D02*
D03*
X182487Y165835D02*
D03*
X181096Y167227D02*
D03*
X179704Y168619D02*
D03*
X178312Y170011D02*
D03*
X176920Y171403D02*
D03*
X175528Y172795D02*
D03*
X174136Y174187D02*
D03*
X172744Y175579D02*
D03*
X186663Y189498D02*
D03*
X188055Y188106D02*
D03*
X189447Y186714D02*
D03*
X190839Y185322D02*
D03*
X192231Y183931D02*
D03*
X193623Y182539D02*
D03*
X195015Y181147D02*
D03*
X196407Y179755D02*
D03*
X321286Y165835D02*
D03*
X319894Y167227D02*
D03*
X318502Y168619D02*
D03*
X317110Y170011D02*
D03*
X315718Y171403D02*
D03*
X314326Y172795D02*
D03*
X312934Y174187D02*
D03*
X311542Y175579D02*
D03*
X325462Y189498D02*
D03*
X326853Y188106D02*
D03*
X328245Y186714D02*
D03*
X329637Y185322D02*
D03*
X331029Y183931D02*
D03*
X332421Y182539D02*
D03*
X333813Y181147D02*
D03*
X335205Y179755D02*
D03*
X460084Y165835D02*
D03*
X458692Y167227D02*
D03*
X457300Y168619D02*
D03*
X455908Y170011D02*
D03*
X454516Y171403D02*
D03*
X453124Y172795D02*
D03*
X451732Y174187D02*
D03*
X450340Y175579D02*
D03*
X464260Y189498D02*
D03*
X465652Y188106D02*
D03*
X467044Y186714D02*
D03*
X468436Y185322D02*
D03*
X469828Y183931D02*
D03*
X471220Y182539D02*
D03*
X472612Y181147D02*
D03*
X474003Y179755D02*
D03*
X598882Y165835D02*
D03*
X597490Y167227D02*
D03*
X596098Y168619D02*
D03*
X594706Y170011D02*
D03*
X593315Y171403D02*
D03*
X591923Y172795D02*
D03*
X590531Y174187D02*
D03*
X589139Y175579D02*
D03*
X603058Y189498D02*
D03*
X604450Y188106D02*
D03*
X605842Y186714D02*
D03*
X607234Y185322D02*
D03*
X608626Y183931D02*
D03*
X610018Y182539D02*
D03*
X611410Y181147D02*
D03*
X612802Y179755D02*
D03*
X737681Y165835D02*
D03*
X736289Y167227D02*
D03*
X734897Y168619D02*
D03*
X733505Y170011D02*
D03*
X732113Y171403D02*
D03*
X730721Y172795D02*
D03*
X729329Y174187D02*
D03*
X727937Y175579D02*
D03*
X741856Y189498D02*
D03*
X743248Y188106D02*
D03*
X744640Y186714D02*
D03*
X746032Y185322D02*
D03*
X747424Y183931D02*
D03*
X748816Y182539D02*
D03*
X750208Y181147D02*
D03*
X751600Y179755D02*
D03*
X876479Y165835D02*
D03*
X875087Y167227D02*
D03*
X873695Y168619D02*
D03*
X872303Y170011D02*
D03*
X870911Y171403D02*
D03*
X869519Y172795D02*
D03*
X868127Y174187D02*
D03*
X866735Y175579D02*
D03*
X880655Y189498D02*
D03*
X882047Y188106D02*
D03*
X883439Y186714D02*
D03*
X884830Y185322D02*
D03*
X886222Y183931D02*
D03*
X887614Y182539D02*
D03*
X889006Y181147D02*
D03*
X890398Y179755D02*
D03*
X1015277Y165835D02*
D03*
X1013885Y167227D02*
D03*
X1012493Y168619D02*
D03*
X1011101Y170011D02*
D03*
X1009709Y171403D02*
D03*
X1008317Y172795D02*
D03*
X1006925Y174187D02*
D03*
X1005534Y175579D02*
D03*
X1019453Y189498D02*
D03*
X1020845Y188106D02*
D03*
X1022237Y186714D02*
D03*
X1023629Y185322D02*
D03*
X1025021Y183931D02*
D03*
X1026413Y182539D02*
D03*
X1027805Y181147D02*
D03*
X1029197Y179755D02*
D03*
X1154075Y165835D02*
D03*
X1152684Y167227D02*
D03*
X1151291Y168619D02*
D03*
X1149900Y170011D02*
D03*
X1148508Y171403D02*
D03*
X1147116Y172795D02*
D03*
X1145724Y174187D02*
D03*
X1144332Y175579D02*
D03*
X1158251Y189498D02*
D03*
X1159643Y188106D02*
D03*
X1161035Y186714D02*
D03*
X1162427Y185322D02*
D03*
X1163819Y183931D02*
D03*
X1165211Y182539D02*
D03*
X1166603Y181147D02*
D03*
X1167995Y179755D02*
D03*
D45*
X33946D02*
D03*
X35337Y181147D02*
D03*
X36729Y182539D02*
D03*
X38121Y183931D02*
D03*
X39513Y185322D02*
D03*
X40905Y186714D02*
D03*
X42297Y188106D02*
D03*
X43689Y189498D02*
D03*
X57609Y175579D02*
D03*
X56217Y174187D02*
D03*
X54825Y172795D02*
D03*
X53433Y171403D02*
D03*
X52041Y170011D02*
D03*
X50649Y168619D02*
D03*
X49257Y167227D02*
D03*
X47865Y165835D02*
D03*
X172744Y179755D02*
D03*
X174136Y181147D02*
D03*
X175528Y182539D02*
D03*
X176920Y183931D02*
D03*
X178312Y185322D02*
D03*
X179704Y186714D02*
D03*
X181096Y188106D02*
D03*
X182487Y189498D02*
D03*
X196407Y175579D02*
D03*
X195015Y174187D02*
D03*
X193623Y172795D02*
D03*
X192231Y171403D02*
D03*
X190839Y170011D02*
D03*
X189447Y168619D02*
D03*
X188055Y167227D02*
D03*
X186663Y165835D02*
D03*
X311542Y179755D02*
D03*
X312934Y181147D02*
D03*
X314326Y182539D02*
D03*
X315718Y183931D02*
D03*
X317110Y185322D02*
D03*
X318502Y186714D02*
D03*
X319894Y188106D02*
D03*
X321286Y189498D02*
D03*
X335205Y175579D02*
D03*
X333813Y174187D02*
D03*
X332421Y172795D02*
D03*
X331029Y171403D02*
D03*
X329637Y170011D02*
D03*
X328245Y168619D02*
D03*
X326853Y167227D02*
D03*
X325462Y165835D02*
D03*
X450340Y179755D02*
D03*
X451732Y181147D02*
D03*
X453124Y182539D02*
D03*
X454516Y183931D02*
D03*
X455908Y185322D02*
D03*
X457300Y186714D02*
D03*
X458692Y188106D02*
D03*
X460084Y189498D02*
D03*
X474003Y175579D02*
D03*
X472612Y174187D02*
D03*
X471220Y172795D02*
D03*
X469828Y171403D02*
D03*
X468436Y170011D02*
D03*
X467044Y168619D02*
D03*
X465652Y167227D02*
D03*
X464260Y165835D02*
D03*
X589139Y179755D02*
D03*
X590531Y181147D02*
D03*
X591923Y182539D02*
D03*
X593315Y183931D02*
D03*
X594706Y185322D02*
D03*
X596098Y186714D02*
D03*
X597490Y188106D02*
D03*
X598882Y189498D02*
D03*
X612802Y175579D02*
D03*
X611410Y174187D02*
D03*
X610018Y172795D02*
D03*
X608626Y171403D02*
D03*
X607234Y170011D02*
D03*
X605842Y168619D02*
D03*
X604450Y167227D02*
D03*
X603058Y165835D02*
D03*
X727937Y179755D02*
D03*
X729329Y181147D02*
D03*
X730721Y182539D02*
D03*
X732113Y183931D02*
D03*
X733505Y185322D02*
D03*
X734897Y186714D02*
D03*
X736289Y188106D02*
D03*
X737681Y189498D02*
D03*
X751600Y175579D02*
D03*
X750208Y174187D02*
D03*
X748816Y172795D02*
D03*
X747424Y171403D02*
D03*
X746032Y170011D02*
D03*
X744640Y168619D02*
D03*
X743248Y167227D02*
D03*
X741856Y165835D02*
D03*
X866735Y179755D02*
D03*
X868127Y181147D02*
D03*
X869519Y182539D02*
D03*
X870911Y183931D02*
D03*
X872303Y185322D02*
D03*
X873695Y186714D02*
D03*
X875087Y188106D02*
D03*
X876479Y189498D02*
D03*
X890398Y175579D02*
D03*
X889006Y174187D02*
D03*
X887614Y172795D02*
D03*
X886222Y171403D02*
D03*
X884830Y170011D02*
D03*
X883439Y168619D02*
D03*
X882047Y167227D02*
D03*
X880655Y165835D02*
D03*
X1005534Y179755D02*
D03*
X1006925Y181147D02*
D03*
X1008317Y182539D02*
D03*
X1009709Y183931D02*
D03*
X1011101Y185322D02*
D03*
X1012493Y186714D02*
D03*
X1013885Y188106D02*
D03*
X1015277Y189498D02*
D03*
X1029197Y175579D02*
D03*
X1027805Y174187D02*
D03*
X1026413Y172795D02*
D03*
X1025021Y171403D02*
D03*
X1023629Y170011D02*
D03*
X1022237Y168619D02*
D03*
X1020845Y167227D02*
D03*
X1019453Y165835D02*
D03*
X1144332Y179755D02*
D03*
X1145724Y181147D02*
D03*
X1147116Y182539D02*
D03*
X1148508Y183931D02*
D03*
X1149900Y185322D02*
D03*
X1151291Y186714D02*
D03*
X1152684Y188106D02*
D03*
X1154075Y189498D02*
D03*
X1167995Y175579D02*
D03*
X1166603Y174187D02*
D03*
X1165211Y172795D02*
D03*
X1163819Y171403D02*
D03*
X1162427Y170011D02*
D03*
X1161035Y168619D02*
D03*
X1159643Y167227D02*
D03*
X1158251Y165835D02*
D03*
D46*
X59678Y259834D02*
D03*
X72833Y259792D02*
D03*
Y257823D02*
D03*
Y255855D02*
D03*
Y253887D02*
D03*
Y251918D02*
D03*
Y249950D02*
D03*
Y247981D02*
D03*
Y246012D02*
D03*
Y244044D02*
D03*
Y242075D02*
D03*
X59678Y242117D02*
D03*
Y244086D02*
D03*
Y246054D02*
D03*
Y248023D02*
D03*
Y249991D02*
D03*
Y251960D02*
D03*
Y253928D02*
D03*
Y255897D02*
D03*
Y257865D02*
D03*
X198476Y259834D02*
D03*
X211631Y259792D02*
D03*
Y257823D02*
D03*
Y255855D02*
D03*
Y253887D02*
D03*
Y251918D02*
D03*
Y249950D02*
D03*
Y247981D02*
D03*
Y246012D02*
D03*
Y244044D02*
D03*
Y242075D02*
D03*
X198476Y242117D02*
D03*
Y244086D02*
D03*
Y246054D02*
D03*
Y248023D02*
D03*
Y249991D02*
D03*
Y251960D02*
D03*
Y253928D02*
D03*
Y255897D02*
D03*
Y257865D02*
D03*
X337274Y259834D02*
D03*
X350430Y259792D02*
D03*
Y257823D02*
D03*
Y255855D02*
D03*
Y253887D02*
D03*
Y251918D02*
D03*
Y249950D02*
D03*
Y247981D02*
D03*
Y246012D02*
D03*
Y244044D02*
D03*
Y242075D02*
D03*
X337274Y242117D02*
D03*
Y244086D02*
D03*
Y246054D02*
D03*
Y248023D02*
D03*
Y249991D02*
D03*
Y251960D02*
D03*
Y253928D02*
D03*
Y255897D02*
D03*
Y257865D02*
D03*
X476073Y259834D02*
D03*
X489228Y259792D02*
D03*
Y257823D02*
D03*
Y255855D02*
D03*
Y253887D02*
D03*
Y251918D02*
D03*
Y249950D02*
D03*
Y247981D02*
D03*
Y246012D02*
D03*
Y244044D02*
D03*
Y242075D02*
D03*
X476073Y242117D02*
D03*
Y244086D02*
D03*
Y246054D02*
D03*
Y248023D02*
D03*
Y249991D02*
D03*
Y251960D02*
D03*
Y253928D02*
D03*
Y255897D02*
D03*
Y257865D02*
D03*
X614871Y259834D02*
D03*
X628026Y259792D02*
D03*
Y257823D02*
D03*
Y255855D02*
D03*
Y253887D02*
D03*
Y251918D02*
D03*
Y249950D02*
D03*
Y247981D02*
D03*
Y246012D02*
D03*
Y244044D02*
D03*
Y242075D02*
D03*
X614871Y242117D02*
D03*
Y244086D02*
D03*
Y246054D02*
D03*
Y248023D02*
D03*
Y249991D02*
D03*
Y251960D02*
D03*
Y253928D02*
D03*
Y255897D02*
D03*
Y257865D02*
D03*
X753669Y259834D02*
D03*
X766824Y259792D02*
D03*
Y257823D02*
D03*
Y255855D02*
D03*
Y253887D02*
D03*
Y251918D02*
D03*
Y249950D02*
D03*
Y247981D02*
D03*
Y246012D02*
D03*
Y244044D02*
D03*
Y242075D02*
D03*
X753669Y242117D02*
D03*
Y244086D02*
D03*
Y246054D02*
D03*
Y248023D02*
D03*
Y249991D02*
D03*
Y251960D02*
D03*
Y253928D02*
D03*
Y255897D02*
D03*
Y257865D02*
D03*
X892467Y259834D02*
D03*
X905623Y259792D02*
D03*
Y257823D02*
D03*
Y255855D02*
D03*
Y253887D02*
D03*
Y251918D02*
D03*
Y249950D02*
D03*
Y247981D02*
D03*
Y246012D02*
D03*
Y244044D02*
D03*
Y242075D02*
D03*
X892467Y242117D02*
D03*
Y244086D02*
D03*
Y246054D02*
D03*
Y248023D02*
D03*
Y249991D02*
D03*
Y251960D02*
D03*
Y253928D02*
D03*
Y255897D02*
D03*
Y257865D02*
D03*
X1031266Y259834D02*
D03*
X1044421Y259792D02*
D03*
Y257823D02*
D03*
Y255855D02*
D03*
Y253887D02*
D03*
Y251918D02*
D03*
Y249950D02*
D03*
Y247981D02*
D03*
Y246012D02*
D03*
Y244044D02*
D03*
Y242075D02*
D03*
X1031266Y242117D02*
D03*
Y244086D02*
D03*
Y246054D02*
D03*
Y248023D02*
D03*
Y249991D02*
D03*
Y251960D02*
D03*
Y253928D02*
D03*
Y255897D02*
D03*
Y257865D02*
D03*
X1170064Y259834D02*
D03*
X1183219Y259792D02*
D03*
Y257823D02*
D03*
Y255855D02*
D03*
Y253887D02*
D03*
Y251918D02*
D03*
Y249950D02*
D03*
Y247981D02*
D03*
Y246012D02*
D03*
Y244044D02*
D03*
Y242075D02*
D03*
X1170064Y242117D02*
D03*
Y244086D02*
D03*
Y246054D02*
D03*
Y248023D02*
D03*
Y249991D02*
D03*
Y251960D02*
D03*
Y253928D02*
D03*
Y255897D02*
D03*
Y257865D02*
D03*
D47*
X63325Y260277D02*
D03*
X65294D02*
D03*
X67262D02*
D03*
X69231D02*
D03*
Y241576D02*
D03*
X67262D02*
D03*
X65294D02*
D03*
X63325D02*
D03*
X202123Y260277D02*
D03*
X204092D02*
D03*
X206060D02*
D03*
X208029D02*
D03*
Y241576D02*
D03*
X206060D02*
D03*
X204092D02*
D03*
X202123D02*
D03*
X340922Y260277D02*
D03*
X342890D02*
D03*
X344859D02*
D03*
X346827D02*
D03*
Y241576D02*
D03*
X344859D02*
D03*
X342890D02*
D03*
X340922D02*
D03*
X479720Y260277D02*
D03*
X481688D02*
D03*
X483657D02*
D03*
X485626D02*
D03*
Y241576D02*
D03*
X483657D02*
D03*
X481688D02*
D03*
X479720D02*
D03*
X618518Y260277D02*
D03*
X620487D02*
D03*
X622455D02*
D03*
X624424D02*
D03*
Y241576D02*
D03*
X622455D02*
D03*
X620487D02*
D03*
X618518D02*
D03*
X757316Y260277D02*
D03*
X759285D02*
D03*
X761253D02*
D03*
X763222D02*
D03*
Y241576D02*
D03*
X761253D02*
D03*
X759285D02*
D03*
X757316D02*
D03*
X896115Y260277D02*
D03*
X898083D02*
D03*
X900052D02*
D03*
X902020D02*
D03*
Y241576D02*
D03*
X900052D02*
D03*
X898083D02*
D03*
X896115D02*
D03*
X1034913Y260277D02*
D03*
X1036882D02*
D03*
X1038850D02*
D03*
X1040819D02*
D03*
Y241576D02*
D03*
X1038850D02*
D03*
X1036882D02*
D03*
X1034913D02*
D03*
X1173711Y260277D02*
D03*
X1175680D02*
D03*
X1177648D02*
D03*
X1179617D02*
D03*
Y241576D02*
D03*
X1177648D02*
D03*
X1175680D02*
D03*
X1173711D02*
D03*
D48*
X50462Y36722D02*
D03*
X80462D02*
D03*
X189260D02*
D03*
X219260D02*
D03*
X328059D02*
D03*
X358059D02*
D03*
X466857D02*
D03*
X496857D02*
D03*
X605655D02*
D03*
X635655D02*
D03*
X744453D02*
D03*
X774453D02*
D03*
X883252D02*
D03*
X913252D02*
D03*
X1022050D02*
D03*
X1052050D02*
D03*
X1160848D02*
D03*
X1190848D02*
D03*
D49*
X60962Y39084D02*
D03*
X69962D02*
D03*
X199760D02*
D03*
X208760D02*
D03*
X338559D02*
D03*
X347559D02*
D03*
X477357D02*
D03*
X486357D02*
D03*
X616155D02*
D03*
X625155D02*
D03*
X754953D02*
D03*
X763953D02*
D03*
X893752D02*
D03*
X902752D02*
D03*
X1032550D02*
D03*
X1041550D02*
D03*
X1171348D02*
D03*
X1180348D02*
D03*
D50*
X6407Y374517D02*
D03*
Y379242D02*
D03*
X145205Y374517D02*
D03*
Y379242D02*
D03*
X284004Y374517D02*
D03*
Y379242D02*
D03*
X422802Y374517D02*
D03*
Y379242D02*
D03*
X561600Y374517D02*
D03*
Y379242D02*
D03*
X700398Y374517D02*
D03*
Y379242D02*
D03*
X839197Y374517D02*
D03*
Y379242D02*
D03*
X977995Y374517D02*
D03*
Y379242D02*
D03*
X1116793Y374517D02*
D03*
Y379242D02*
D03*
D51*
X113962Y312781D02*
D03*
Y300970D02*
D03*
X252760Y312781D02*
D03*
Y300970D02*
D03*
X391559Y312781D02*
D03*
Y300970D02*
D03*
X530357Y312781D02*
D03*
Y300970D02*
D03*
X669155Y312781D02*
D03*
Y300970D02*
D03*
X807953Y312781D02*
D03*
Y300970D02*
D03*
X946752Y312781D02*
D03*
Y300970D02*
D03*
X1085550Y312781D02*
D03*
Y300970D02*
D03*
X1224348Y312781D02*
D03*
Y300970D02*
D03*
D52*
X116336Y287876D02*
D03*
X100588D02*
D03*
X255134D02*
D03*
X239386D02*
D03*
X393933D02*
D03*
X378185D02*
D03*
X532731D02*
D03*
X516983D02*
D03*
X671529D02*
D03*
X655781D02*
D03*
X810328D02*
D03*
X794580D02*
D03*
X949126D02*
D03*
X933378D02*
D03*
X1087924D02*
D03*
X1072176D02*
D03*
X1226722D02*
D03*
X1210974D02*
D03*
D53*
X87151Y298376D02*
D03*
X98962D02*
D03*
X225949D02*
D03*
X237760D02*
D03*
X364748D02*
D03*
X376559D02*
D03*
X503546D02*
D03*
X515357D02*
D03*
X642344D02*
D03*
X654155D02*
D03*
X781143D02*
D03*
X792953D02*
D03*
X919941D02*
D03*
X931752D02*
D03*
X1058739D02*
D03*
X1070550D02*
D03*
X1197537D02*
D03*
X1209348D02*
D03*
D54*
X93057Y299163D02*
D03*
X231855D02*
D03*
X370653D02*
D03*
X509451D02*
D03*
X648250D02*
D03*
X787048D02*
D03*
X925846D02*
D03*
X1064645D02*
D03*
X1203443D02*
D03*
D55*
X114802Y322776D02*
D03*
X107322D02*
D03*
X83722Y288876D02*
D03*
X91202D02*
D03*
X253601Y322776D02*
D03*
X246120D02*
D03*
X222520Y288876D02*
D03*
X230001D02*
D03*
X392399Y322776D02*
D03*
X384918D02*
D03*
X361318Y288876D02*
D03*
X368799D02*
D03*
X531197Y322776D02*
D03*
X523717D02*
D03*
X500117Y288876D02*
D03*
X507597D02*
D03*
X669995Y322776D02*
D03*
X662515D02*
D03*
X638915Y288876D02*
D03*
X646395D02*
D03*
X808794Y322776D02*
D03*
X801313D02*
D03*
X777713Y288876D02*
D03*
X785194D02*
D03*
X947592Y322776D02*
D03*
X940112D02*
D03*
X916512Y288876D02*
D03*
X923992D02*
D03*
X1086390Y322776D02*
D03*
X1078910D02*
D03*
X1055310Y288876D02*
D03*
X1062790D02*
D03*
X1225189Y322776D02*
D03*
X1217708D02*
D03*
X1194108Y288876D02*
D03*
X1201589D02*
D03*
D56*
X89071Y461175D02*
D03*
X83953D02*
D03*
X78835D02*
D03*
X73716D02*
D03*
X68598D02*
D03*
X63480D02*
D03*
X58362D02*
D03*
X53244D02*
D03*
X48126D02*
D03*
X43008D02*
D03*
X37890D02*
D03*
X32772D02*
D03*
X27654D02*
D03*
X227869D02*
D03*
X222751D02*
D03*
X217633D02*
D03*
X212515D02*
D03*
X207397D02*
D03*
X202278D02*
D03*
X197160D02*
D03*
X192042D02*
D03*
X186924D02*
D03*
X181806D02*
D03*
X176688D02*
D03*
X171570D02*
D03*
X166452D02*
D03*
X366667D02*
D03*
X361549D02*
D03*
X356431D02*
D03*
X351313D02*
D03*
X346195D02*
D03*
X341077D02*
D03*
X335959D02*
D03*
X330841D02*
D03*
X325723D02*
D03*
X320604D02*
D03*
X315486D02*
D03*
X310368D02*
D03*
X305250D02*
D03*
X505466D02*
D03*
X500348D02*
D03*
X495229D02*
D03*
X490111D02*
D03*
X484993D02*
D03*
X479875D02*
D03*
X474757D02*
D03*
X469639D02*
D03*
X464521D02*
D03*
X459403D02*
D03*
X454284D02*
D03*
X449166D02*
D03*
X444048D02*
D03*
X644264D02*
D03*
X639146D02*
D03*
X634028D02*
D03*
X628910D02*
D03*
X623792D02*
D03*
X618673D02*
D03*
X613555D02*
D03*
X608437D02*
D03*
X603319D02*
D03*
X598201D02*
D03*
X593083D02*
D03*
X587965D02*
D03*
X582847D02*
D03*
X783062D02*
D03*
X777944D02*
D03*
X772826D02*
D03*
X767708D02*
D03*
X762590D02*
D03*
X757472D02*
D03*
X752353D02*
D03*
X747235D02*
D03*
X742117D02*
D03*
X736999D02*
D03*
X731881D02*
D03*
X726763D02*
D03*
X721645D02*
D03*
X921861D02*
D03*
X916742D02*
D03*
X911624D02*
D03*
X906506D02*
D03*
X901388D02*
D03*
X896270D02*
D03*
X891152D02*
D03*
X886034D02*
D03*
X880916D02*
D03*
X875797D02*
D03*
X870679D02*
D03*
X865561D02*
D03*
X860443D02*
D03*
X1060659D02*
D03*
X1055541D02*
D03*
X1050422D02*
D03*
X1045304D02*
D03*
X1040186D02*
D03*
X1035068D02*
D03*
X1029950D02*
D03*
X1024832D02*
D03*
X1019714D02*
D03*
X1014596D02*
D03*
X1009478D02*
D03*
X1004360D02*
D03*
X999241D02*
D03*
X1199457D02*
D03*
X1194339D02*
D03*
X1189221D02*
D03*
X1184103D02*
D03*
X1178985D02*
D03*
X1173866D02*
D03*
X1168748D02*
D03*
X1163630D02*
D03*
X1158512D02*
D03*
X1153394D02*
D03*
X1148276D02*
D03*
X1143158D02*
D03*
X1138040D02*
D03*
D57*
X71193Y171481D02*
D03*
X209992D02*
D03*
X348790D02*
D03*
X487588D02*
D03*
X626386D02*
D03*
X765185D02*
D03*
X903983D02*
D03*
X1042781D02*
D03*
X1181580D02*
D03*
D68*
X50362Y599081D02*
D03*
X60362D02*
D03*
X70362D02*
D03*
X80362D02*
D03*
X189160D02*
D03*
X199160D02*
D03*
X209160D02*
D03*
X219160D02*
D03*
X327959D02*
D03*
X337959D02*
D03*
X347959D02*
D03*
X357959D02*
D03*
X466757D02*
D03*
X476757D02*
D03*
X486757D02*
D03*
X496757D02*
D03*
X605555D02*
D03*
X615555D02*
D03*
X625555D02*
D03*
X635555D02*
D03*
X744353D02*
D03*
X754354D02*
D03*
X764354D02*
D03*
X774354D02*
D03*
X883152D02*
D03*
X893152D02*
D03*
X903152D02*
D03*
X913152D02*
D03*
X1021950D02*
D03*
X1031950D02*
D03*
X1041950D02*
D03*
X1051950D02*
D03*
X1160748D02*
D03*
X1170748D02*
D03*
X1180748D02*
D03*
X1190748D02*
D03*
D69*
X18893Y234614D02*
D03*
X7239Y293471D02*
D03*
X9181Y283662D02*
D03*
X11123Y273852D02*
D03*
X13066Y264042D02*
D03*
X15008Y254233D02*
D03*
X16950Y244423D02*
D03*
X20835Y224804D02*
D03*
X24762Y205175D02*
D03*
X22762Y214976D02*
D03*
X157691Y234614D02*
D03*
X146037Y293471D02*
D03*
X147979Y283662D02*
D03*
X149922Y273852D02*
D03*
X151864Y264042D02*
D03*
X153806Y254233D02*
D03*
X155749Y244423D02*
D03*
X159633Y224804D02*
D03*
X163560Y205175D02*
D03*
X161560Y214976D02*
D03*
X296489Y234614D02*
D03*
X284835Y293471D02*
D03*
X286778Y283662D02*
D03*
X288720Y273852D02*
D03*
X290662Y264042D02*
D03*
X292605Y254233D02*
D03*
X294547Y244423D02*
D03*
X298432Y224804D02*
D03*
X302359Y205175D02*
D03*
X300359Y214976D02*
D03*
X435288Y234614D02*
D03*
X423633Y293471D02*
D03*
X425576Y283662D02*
D03*
X427518Y273852D02*
D03*
X429461Y264042D02*
D03*
X431403Y254233D02*
D03*
X433345Y244423D02*
D03*
X437230Y224804D02*
D03*
X441157Y205175D02*
D03*
X439157Y214976D02*
D03*
X574086Y234614D02*
D03*
X562432Y293471D02*
D03*
X564374Y283662D02*
D03*
X566317Y273852D02*
D03*
X568259Y264042D02*
D03*
X570201Y254233D02*
D03*
X572144Y244423D02*
D03*
X576028Y224804D02*
D03*
X579955Y205175D02*
D03*
X577955Y214976D02*
D03*
X712884Y234614D02*
D03*
X701230Y293471D02*
D03*
X703172Y283662D02*
D03*
X705115Y273852D02*
D03*
X707057Y264042D02*
D03*
X708999Y254233D02*
D03*
X710942Y244423D02*
D03*
X714826Y224804D02*
D03*
X718753Y205175D02*
D03*
X716753Y214976D02*
D03*
X851682Y234614D02*
D03*
X840028Y293471D02*
D03*
X841971Y283662D02*
D03*
X843913Y273852D02*
D03*
X845855Y264042D02*
D03*
X847798Y254233D02*
D03*
X849740Y244423D02*
D03*
X853625Y224804D02*
D03*
X857552Y205175D02*
D03*
X855552Y214976D02*
D03*
X990481Y234614D02*
D03*
X978827Y293471D02*
D03*
X980769Y283662D02*
D03*
X982711Y273852D02*
D03*
X984654Y264042D02*
D03*
X986596Y254233D02*
D03*
X988538Y244423D02*
D03*
X992423Y224804D02*
D03*
X996350Y205175D02*
D03*
X994350Y214976D02*
D03*
X1129279Y234614D02*
D03*
X1117625Y293471D02*
D03*
X1119567Y283662D02*
D03*
X1121510Y273852D02*
D03*
X1123452Y264042D02*
D03*
X1125394Y254233D02*
D03*
X1127337Y244423D02*
D03*
X1131221Y224804D02*
D03*
X1135148Y205175D02*
D03*
X1133148Y214976D02*
D03*
D70*
X68400Y144009D02*
D03*
X207199D02*
D03*
X345997D02*
D03*
X484795D02*
D03*
X623593D02*
D03*
X762392D02*
D03*
X901190D02*
D03*
X1039988D02*
D03*
X1178786D02*
D03*
D71*
X82962Y611738D02*
D03*
X92962D02*
D03*
X72962D02*
D03*
X38362D02*
D03*
X48362D02*
D03*
X221760D02*
D03*
X231760D02*
D03*
X211760D02*
D03*
X177160D02*
D03*
X187160D02*
D03*
X360559D02*
D03*
X370559D02*
D03*
X350559D02*
D03*
X315959D02*
D03*
X325959D02*
D03*
X499357D02*
D03*
X509357D02*
D03*
X489357D02*
D03*
X454757D02*
D03*
X464757D02*
D03*
X638155D02*
D03*
X648155D02*
D03*
X628155D02*
D03*
X593555D02*
D03*
X603555D02*
D03*
X776954D02*
D03*
X786953D02*
D03*
X766954D02*
D03*
X732353D02*
D03*
X742353D02*
D03*
X915752D02*
D03*
X925752D02*
D03*
X905752D02*
D03*
X871152D02*
D03*
X881152D02*
D03*
X1054550D02*
D03*
X1064550D02*
D03*
X1044550D02*
D03*
X1009950D02*
D03*
X1019950D02*
D03*
X1193348D02*
D03*
X1203348D02*
D03*
X1183348D02*
D03*
X1148748D02*
D03*
X1158748D02*
D03*
D72*
X95095Y210979D02*
D03*
X93217Y201318D02*
D03*
X105584Y198914D02*
D03*
X107462Y208576D02*
D03*
X109340Y218237D02*
D03*
X96973Y220641D02*
D03*
X114984Y246714D02*
D03*
X116862Y256376D02*
D03*
X104495Y258779D02*
D03*
X102617Y249118D02*
D03*
X100739Y239456D02*
D03*
X113106Y237052D02*
D03*
X233893Y210979D02*
D03*
X232015Y201318D02*
D03*
X244382Y198914D02*
D03*
X246260Y208576D02*
D03*
X248138Y218237D02*
D03*
X235771Y220641D02*
D03*
X253782Y246714D02*
D03*
X255660Y256376D02*
D03*
X243293Y258779D02*
D03*
X241415Y249118D02*
D03*
X239537Y239456D02*
D03*
X251904Y237052D02*
D03*
X372692Y210979D02*
D03*
X370814Y201318D02*
D03*
X383181Y198914D02*
D03*
X385059Y208576D02*
D03*
X386937Y218237D02*
D03*
X374570Y220641D02*
D03*
X392581Y246714D02*
D03*
X394459Y256376D02*
D03*
X382092Y258779D02*
D03*
X380214Y249118D02*
D03*
X378336Y239456D02*
D03*
X390703Y237052D02*
D03*
X511490Y210979D02*
D03*
X509612Y201318D02*
D03*
X521979Y198914D02*
D03*
X523857Y208576D02*
D03*
X525735Y218237D02*
D03*
X513368Y220641D02*
D03*
X531379Y246714D02*
D03*
X533257Y256376D02*
D03*
X520890Y258779D02*
D03*
X519012Y249118D02*
D03*
X517134Y239456D02*
D03*
X529501Y237052D02*
D03*
X650288Y210979D02*
D03*
X648410Y201318D02*
D03*
X660777Y198914D02*
D03*
X662655Y208576D02*
D03*
X664533Y218237D02*
D03*
X652166Y220641D02*
D03*
X670177Y246714D02*
D03*
X672055Y256376D02*
D03*
X659688Y258779D02*
D03*
X657810Y249118D02*
D03*
X655932Y239456D02*
D03*
X668299Y237052D02*
D03*
X789087Y210979D02*
D03*
X787209Y201318D02*
D03*
X799576Y198914D02*
D03*
X801453Y208576D02*
D03*
X803332Y218237D02*
D03*
X790965Y220641D02*
D03*
X808976Y246714D02*
D03*
X810853Y256376D02*
D03*
X798487Y258779D02*
D03*
X796608Y249118D02*
D03*
X794731Y239456D02*
D03*
X807098Y237052D02*
D03*
X927885Y210979D02*
D03*
X926007Y201318D02*
D03*
X938374Y198914D02*
D03*
X940252Y208576D02*
D03*
X942130Y218237D02*
D03*
X929763Y220641D02*
D03*
X947774Y246714D02*
D03*
X949652Y256376D02*
D03*
X937285Y258779D02*
D03*
X935407Y249118D02*
D03*
X933529Y239456D02*
D03*
X945896Y237052D02*
D03*
X1066683Y210979D02*
D03*
X1064805Y201318D02*
D03*
X1077172Y198914D02*
D03*
X1079050Y208576D02*
D03*
X1080928Y218237D02*
D03*
X1068561Y220641D02*
D03*
X1086572Y246714D02*
D03*
X1088450Y256376D02*
D03*
X1076083Y258779D02*
D03*
X1074205Y249118D02*
D03*
X1072327Y239456D02*
D03*
X1084694Y237052D02*
D03*
X1205481Y210979D02*
D03*
X1203603Y201318D02*
D03*
X1215970Y198914D02*
D03*
X1217848Y208576D02*
D03*
X1219726Y218237D02*
D03*
X1207359Y220641D02*
D03*
X1225370Y246714D02*
D03*
X1227248Y256376D02*
D03*
X1214881Y258779D02*
D03*
X1213003Y249118D02*
D03*
X1211125Y239456D02*
D03*
X1223492Y237052D02*
D03*
D73*
X19762Y322167D02*
D03*
Y308781D02*
D03*
X158560Y322167D02*
D03*
Y308781D02*
D03*
X297359Y322167D02*
D03*
Y308781D02*
D03*
X436157Y322167D02*
D03*
Y308781D02*
D03*
X574955Y322167D02*
D03*
Y308781D02*
D03*
X713754Y322167D02*
D03*
Y308781D02*
D03*
X852552Y322167D02*
D03*
Y308781D02*
D03*
X991350Y322167D02*
D03*
Y308781D02*
D03*
X1130148Y322167D02*
D03*
Y308781D02*
D03*
%TF.MD5,f9523a0b2e3670ae270dfdb51121a528*%
M02*
