G04 Layer_Color=16711935*
%FSLAX25Y25*%
%MOIN*%
%TF.FileFunction,Other,Mechanical_31*%
%TF.Part,CustomerPanel*%
G01*
G75*
%TA.AperFunction,NonConductor*%
%ADD141C,0.00787*%
%ADD143C,0.01000*%
D141*
X-78740Y629921D02*
X1242126D01*
X-78740Y13780D02*
X1242126D01*
D143*
X-76772Y23715D02*
Y19716D01*
X-74772Y17717D01*
X-72773Y19716D01*
Y23715D01*
X-70774Y20716D02*
X-66775D01*
X-60777Y22715D02*
X-61777Y23715D01*
X-63776D01*
X-64776Y22715D01*
Y18716D01*
X-63776Y17717D01*
X-61777D01*
X-60777Y18716D01*
Y20716D01*
X-62776D01*
X-58777Y21715D02*
Y17717D01*
Y19716D01*
X-57778Y20716D01*
X-56778Y21715D01*
X-55778D01*
X-51780Y17717D02*
X-49780D01*
X-48781Y18716D01*
Y20716D01*
X-49780Y21715D01*
X-51780D01*
X-52779Y20716D01*
Y18716D01*
X-51780Y17717D01*
X-45782D02*
X-43782D01*
X-42783Y18716D01*
Y20716D01*
X-43782Y21715D01*
X-45782D01*
X-46781Y20716D01*
Y18716D01*
X-45782Y17717D01*
X-40783Y21715D02*
X-38784Y17717D01*
X-36785Y21715D01*
X-31786Y17717D02*
X-33786D01*
X-34785Y18716D01*
Y20716D01*
X-33786Y21715D01*
X-31786D01*
X-30786Y20716D01*
Y19716D01*
X-34785D01*
X-76772Y639856D02*
Y635858D01*
X-74772Y633858D01*
X-72773Y635858D01*
Y639856D01*
X-70774Y636857D02*
X-66775D01*
X-60777Y638857D02*
X-61777Y639856D01*
X-63776D01*
X-64776Y638857D01*
Y634858D01*
X-63776Y633858D01*
X-61777D01*
X-60777Y634858D01*
Y636857D01*
X-62776D01*
X-58777Y637857D02*
Y633858D01*
Y635858D01*
X-57778Y636857D01*
X-56778Y637857D01*
X-55778D01*
X-51780Y633858D02*
X-49780D01*
X-48781Y634858D01*
Y636857D01*
X-49780Y637857D01*
X-51780D01*
X-52779Y636857D01*
Y634858D01*
X-51780Y633858D01*
X-45782D02*
X-43782D01*
X-42783Y634858D01*
Y636857D01*
X-43782Y637857D01*
X-45782D01*
X-46781Y636857D01*
Y634858D01*
X-45782Y633858D01*
X-40783Y637857D02*
X-38784Y633858D01*
X-36785Y637857D01*
X-31786Y633858D02*
X-33786D01*
X-34785Y634858D01*
Y636857D01*
X-33786Y637857D01*
X-31786D01*
X-30786Y636857D01*
Y635858D01*
X-34785D01*
%TF.MD5,947decf7cbb63373f8f01c4feda7b79e*%
M02*
