G04 Layer_Color=2752767*
%FSLAX25Y25*%
%MOIN*%
%TF.FileFunction,Drawing*%
%TF.Part,Single*%
G01*
G75*
%TA.AperFunction,NonConductor*%
%ADD143C,0.00500*%
%ADD189C,0.00667*%
%ADD190C,0.00400*%
D143*
X-47700Y292500D02*
Y296500D01*
X-43700D01*
Y292500D01*
X-47700D01*
Y305886D02*
Y309886D01*
X-43700D01*
Y305886D01*
X-47700D01*
X47644Y220771D02*
X45644Y224771D01*
X49644D01*
X47644Y220771D01*
X35277Y223175D02*
X33277Y227175D01*
X37277D01*
X35277Y223175D01*
X37155Y232837D02*
X35155Y236837D01*
X39155D01*
X37155Y232837D01*
X39033Y242498D02*
X37033Y246498D01*
X41033D01*
X39033Y242498D01*
X51400Y240094D02*
X49400Y244094D01*
X53400D01*
X51400Y240094D01*
X49522Y230433D02*
X47522Y234433D01*
X51522D01*
X49522Y230433D01*
X31511Y204360D02*
X29511Y208360D01*
X33511D01*
X31511Y204360D01*
X43878Y201956D02*
X41878Y205956D01*
X45878D01*
X43878Y201956D01*
X42000Y192295D02*
X40000Y196294D01*
X44000D01*
X42000Y192295D01*
X40122Y182633D02*
X38122Y186633D01*
X42122D01*
X40122Y182633D01*
X27755Y185037D02*
X25755Y189037D01*
X29755D01*
X27755Y185037D01*
X29633Y194698D02*
X27633Y198698D01*
X31633D01*
X29633Y194698D01*
X-17100Y595457D02*
X-16100Y596457D01*
X-15100D01*
X-16100Y597457D01*
X-15100Y598457D01*
X-16100D01*
X-17100Y599457D01*
X-18100Y598457D01*
X-19100D01*
X-18100Y597457D01*
X-19100Y596457D01*
X-18100D01*
X-17100Y595457D01*
X-27100D02*
X-26100Y596457D01*
X-25100D01*
X-26100Y597457D01*
X-25100Y598457D01*
X-26100D01*
X-27100Y599457D01*
X-28100Y598457D01*
X-29100D01*
X-28100Y597457D01*
X-29100Y596457D01*
X-28100D01*
X-27100Y595457D01*
X7500D02*
X8500Y596457D01*
X9500D01*
X8500Y597457D01*
X9500Y598457D01*
X8500D01*
X7500Y599457D01*
X6500Y598457D01*
X5500D01*
X6500Y597457D01*
X5500Y596457D01*
X6500D01*
X7500Y595457D01*
X27500D02*
X28500Y596457D01*
X29500D01*
X28500Y597457D01*
X29500Y598457D01*
X28500D01*
X27500Y599457D01*
X26500Y598457D01*
X25500D01*
X26500Y597457D01*
X25500Y596457D01*
X26500D01*
X27500Y595457D01*
X17500D02*
X18500Y596457D01*
X19500D01*
X18500Y597457D01*
X19500Y598457D01*
X18500D01*
X17500Y599457D01*
X16500Y598457D01*
X15500D01*
X16500Y597457D01*
X15500Y596457D01*
X16500D01*
X17500Y595457D01*
X938Y127728D02*
X1938Y129728D01*
X938Y131728D01*
X2938Y130728D01*
X4938Y131728D01*
X3938Y129728D01*
X4938Y127728D01*
X2938Y128728D01*
X938Y127728D01*
X14748Y512780D02*
Y511779D01*
X16748D01*
Y512780D01*
X17748D01*
Y514780D01*
X16748D01*
Y515779D01*
X14748D01*
Y514780D01*
X13748D01*
Y512780D01*
X14748D01*
X46244D02*
Y511779D01*
X48244D01*
Y512780D01*
X49244D01*
Y514780D01*
X48244D01*
Y515779D01*
X46244D01*
Y514780D01*
X45244D01*
Y512780D01*
X46244D01*
Y544276D02*
Y543276D01*
X48244D01*
Y544276D01*
X49244D01*
Y546276D01*
X48244D01*
Y547276D01*
X46244D01*
Y546276D01*
X45244D01*
Y544276D01*
X46244D01*
X14748D02*
Y543276D01*
X16748D01*
Y544276D01*
X17748D01*
Y546276D01*
X16748D01*
Y547276D01*
X14748D01*
Y546276D01*
X13748D01*
Y544276D01*
X14748D01*
X-48244Y512780D02*
Y511779D01*
X-46244D01*
Y512780D01*
X-45244D01*
Y514780D01*
X-46244D01*
Y515779D01*
X-48244D01*
Y514780D01*
X-49244D01*
Y512780D01*
X-48244D01*
X-16748D02*
Y511779D01*
X-14748D01*
Y512780D01*
X-13748D01*
Y514780D01*
X-14748D01*
Y515779D01*
X-16748D01*
Y514780D01*
X-17748D01*
Y512780D01*
X-16748D01*
Y544276D02*
Y543276D01*
X-14748D01*
Y544276D01*
X-13748D01*
Y546276D01*
X-14748D01*
Y547276D01*
X-16748D01*
Y546276D01*
X-17748D01*
Y544276D01*
X-16748D01*
X-48244D02*
Y543276D01*
X-46244D01*
Y544276D01*
X-45244D01*
Y546276D01*
X-46244D01*
Y547276D01*
X-48244D01*
Y546276D01*
X-49244D01*
Y544276D01*
X-48244D01*
X-16748Y103331D02*
Y102331D01*
X-14748D01*
Y103331D01*
X-13748D01*
Y105331D01*
X-14748D01*
Y106331D01*
X-16748D01*
Y105331D01*
X-17748D01*
Y103331D01*
X-16748D01*
X14748D02*
Y102331D01*
X16748D01*
Y103331D01*
X17748D01*
Y105331D01*
X16748D01*
Y106331D01*
X14748D01*
Y105331D01*
X13748D01*
Y103331D01*
X14748D01*
Y71638D02*
Y70638D01*
X16748D01*
Y71638D01*
X17748D01*
Y73638D01*
X16748D01*
Y74638D01*
X14748D01*
Y73638D01*
X13748D01*
Y71638D01*
X14748D01*
X-16748D02*
Y70638D01*
X-14748D01*
Y71638D01*
X-13748D01*
Y73638D01*
X-14748D01*
Y74638D01*
X-16748D01*
Y73638D01*
X-17748D01*
Y71638D01*
X-16748D01*
X-47276Y596425D02*
X-46276D01*
X-45276Y597425D01*
X-44276Y596425D01*
X-43276D01*
Y597425D01*
X-44276Y598425D01*
X-43276Y599425D01*
Y600425D01*
X-44276D01*
X-45276Y599425D01*
X-46276Y600425D01*
X-47276D01*
Y599425D01*
X-46276Y598425D01*
X-47276Y597425D01*
Y596425D01*
X43276D02*
X44276D01*
X45276Y597425D01*
X46276Y596425D01*
X47276D01*
Y597425D01*
X46276Y598425D01*
X47276Y599425D01*
Y600425D01*
X46276D01*
X45276Y599425D01*
X44276Y600425D01*
X43276D01*
Y599425D01*
X44276Y598425D01*
X43276Y597425D01*
Y596425D01*
X52900Y570000D02*
X54900Y572000D01*
X56900Y570000D01*
X54900Y568000D01*
X52900Y570000D01*
X12900Y570100D02*
X14900Y572100D01*
X16900Y570100D01*
X14900Y568100D01*
X12900Y570100D01*
X3289Y337199D02*
Y341199D01*
X7289D01*
Y337199D01*
X3289D01*
X4089Y337999D02*
Y340399D01*
X6489D01*
Y337999D01*
X4089D01*
X14900Y582800D02*
X12900Y586800D01*
X16900D01*
X14900Y582800D01*
Y583600D02*
X13700Y586000D01*
X16100D01*
X14900Y583600D01*
X4900Y582800D02*
X2900Y586800D01*
X6900D01*
X4900Y582800D01*
Y583600D02*
X3700Y586000D01*
X6100D01*
X4900Y583600D01*
X-5100Y582800D02*
X-7100Y586800D01*
X-3100D01*
X-5100Y582800D01*
Y583600D02*
X-6300Y586000D01*
X-3900D01*
X-5100Y583600D01*
X-15100Y582800D02*
X-17100Y586800D01*
X-13100D01*
X-15100Y582800D01*
Y583600D02*
X-16300Y586000D01*
X-13900D01*
X-15100Y583600D01*
X31496Y429102D02*
X32496Y430102D01*
X33496D01*
X32496Y431102D01*
X33496Y432102D01*
X32496D01*
X31496Y433102D01*
X30496Y432102D01*
X29496D01*
X30496Y431102D01*
X29496Y430102D01*
X30496D01*
X31496Y429102D01*
Y429902D02*
X32096Y430502D01*
X32696D01*
X32096Y431102D01*
X32696Y431702D01*
X32096D01*
X31496Y432302D01*
X30896Y431702D01*
X30296D01*
X30896Y431102D01*
X30296Y430502D01*
X30896D01*
X31496Y429902D01*
X-31496Y211779D02*
X-30496Y212779D01*
X-29496D01*
X-30496Y213779D01*
X-29496Y214779D01*
X-30496D01*
X-31496Y215779D01*
X-32496Y214779D01*
X-33496D01*
X-32496Y213779D01*
X-33496Y212779D01*
X-32496D01*
X-31496Y211779D01*
Y212579D02*
X-30896Y213179D01*
X-30296D01*
X-30896Y213779D01*
X-30296Y214380D01*
X-30896D01*
X-31496Y214980D01*
X-32096Y214380D01*
X-32696D01*
X-32096Y213779D01*
X-32696Y213179D01*
X-32096D01*
X-31496Y212579D01*
X-33496Y462173D02*
X-32496Y464173D01*
X-33496Y466173D01*
X-31496Y465173D01*
X-29496Y466173D01*
X-30496Y464173D01*
X-29496Y462173D01*
X-31496Y463173D01*
X-33496Y462173D01*
X-32696Y462973D02*
X-32096Y464173D01*
X-32696Y465373D01*
X-31496Y464773D01*
X-30296Y465373D01*
X-30896Y464173D01*
X-30296Y462973D01*
X-31496Y463573D01*
X-32696Y462973D01*
X-13300Y359500D02*
Y358500D01*
X-11300D01*
Y359500D01*
X-10300D01*
Y361500D01*
X-11300D01*
Y362500D01*
X-13300D01*
Y361500D01*
X-14300D01*
Y359500D01*
X-13300D01*
X-12900Y359900D02*
Y359300D01*
X-11700D01*
Y359900D01*
X-11100D01*
Y361100D01*
X-11700D01*
Y361700D01*
X-12900D01*
Y361100D01*
X-13500D01*
Y359900D01*
X-12900D01*
X9400Y310300D02*
Y309300D01*
X11400D01*
Y310300D01*
X12400D01*
Y312300D01*
X11400D01*
Y313300D01*
X9400D01*
Y312300D01*
X8400D01*
Y310300D01*
X9400D01*
X9800Y310700D02*
Y310100D01*
X11000D01*
Y310700D01*
X11600D01*
Y311900D01*
X11000D01*
Y312500D01*
X9800D01*
Y311900D01*
X9200D01*
Y310700D01*
X9800D01*
X30100Y344400D02*
Y343400D01*
X32100D01*
Y344400D01*
X33100D01*
Y346400D01*
X32100D01*
Y347400D01*
X30100D01*
Y346400D01*
X29100D01*
Y344400D01*
X30100D01*
X30500Y344800D02*
Y344200D01*
X31700D01*
Y344800D01*
X32300D01*
Y346000D01*
X31700D01*
Y346600D01*
X30500D01*
Y346000D01*
X29900D01*
Y344800D01*
X30500D01*
X37200Y162100D02*
Y161100D01*
X39200D01*
Y162100D01*
X40200D01*
Y164100D01*
X39200D01*
Y165100D01*
X37200D01*
Y164100D01*
X36200D01*
Y162100D01*
X37200D01*
X37600Y162500D02*
Y161900D01*
X38800D01*
Y162500D01*
X39400D01*
Y163700D01*
X38800D01*
Y164300D01*
X37600D01*
Y163700D01*
X37000D01*
Y162500D01*
X37600D01*
X36718Y188618D02*
Y187618D01*
X38718D01*
Y188618D01*
X39718D01*
Y190618D01*
X38718D01*
Y191618D01*
X36718D01*
Y190618D01*
X35718D01*
Y188618D01*
X36718D01*
X37118Y189018D02*
Y188418D01*
X38318D01*
Y189018D01*
X38918D01*
Y190218D01*
X38318D01*
Y190818D01*
X37118D01*
Y190218D01*
X36518D01*
Y189018D01*
X37118D01*
X33300Y218500D02*
Y217500D01*
X35300D01*
Y218500D01*
X36300D01*
Y220500D01*
X35300D01*
Y221500D01*
X33300D01*
Y220500D01*
X32300D01*
Y218500D01*
X33300D01*
X33700Y218900D02*
Y218300D01*
X34900D01*
Y218900D01*
X35500D01*
Y220100D01*
X34900D01*
Y220700D01*
X33700D01*
Y220100D01*
X33100D01*
Y218900D01*
X33700D01*
X25700Y216500D02*
Y215500D01*
X27700D01*
Y216500D01*
X28700D01*
Y218500D01*
X27700D01*
Y219500D01*
X25700D01*
Y218500D01*
X24700D01*
Y216500D01*
X25700D01*
X26100Y216900D02*
Y216300D01*
X27300D01*
Y216900D01*
X27900D01*
Y218100D01*
X27300D01*
Y218700D01*
X26100D01*
Y218100D01*
X25500D01*
Y216900D01*
X26100D01*
X-34100Y152600D02*
Y151600D01*
X-32100D01*
Y152600D01*
X-31100D01*
Y154600D01*
X-32100D01*
Y155600D01*
X-34100D01*
Y154600D01*
X-35100D01*
Y152600D01*
X-34100D01*
X-33700Y153000D02*
Y152400D01*
X-32500D01*
Y153000D01*
X-31900D01*
Y154200D01*
X-32500D01*
Y154800D01*
X-33700D01*
Y154200D01*
X-34300D01*
Y153000D01*
X-33700D01*
X-20400Y323400D02*
Y322400D01*
X-18400D01*
Y323400D01*
X-17400D01*
Y325400D01*
X-18400D01*
Y326400D01*
X-20400D01*
Y325400D01*
X-21400D01*
Y323400D01*
X-20400D01*
X-20000Y323800D02*
Y323200D01*
X-18800D01*
Y323800D01*
X-18200D01*
Y325000D01*
X-18800D01*
Y325600D01*
X-20000D01*
Y325000D01*
X-20600D01*
Y323800D01*
X-20000D01*
X-20400Y331300D02*
Y330300D01*
X-18400D01*
Y331300D01*
X-17400D01*
Y333300D01*
X-18400D01*
Y334300D01*
X-20400D01*
Y333300D01*
X-21400D01*
Y331300D01*
X-20400D01*
X-20000Y331700D02*
Y331100D01*
X-18800D01*
Y331700D01*
X-18200D01*
Y332900D01*
X-18800D01*
Y333500D01*
X-20000D01*
Y332900D01*
X-20600D01*
Y331700D01*
X-20000D01*
X-36600Y469700D02*
Y468700D01*
X-34600D01*
Y469700D01*
X-33600D01*
Y471700D01*
X-34600D01*
Y472700D01*
X-36600D01*
Y471700D01*
X-37600D01*
Y469700D01*
X-36600D01*
X-36200Y470100D02*
Y469500D01*
X-35000D01*
Y470100D01*
X-34400D01*
Y471300D01*
X-35000D01*
Y471900D01*
X-36200D01*
Y471300D01*
X-36800D01*
Y470100D01*
X-36200D01*
X-48200Y476100D02*
Y475100D01*
X-46200D01*
Y476100D01*
X-45200D01*
Y478100D01*
X-46200D01*
Y479100D01*
X-48200D01*
Y478100D01*
X-49200D01*
Y476100D01*
X-48200D01*
X-47800Y476500D02*
Y475900D01*
X-46600D01*
Y476500D01*
X-46000D01*
Y477700D01*
X-46600D01*
Y478300D01*
X-47800D01*
Y477700D01*
X-48400D01*
Y476500D01*
X-47800D01*
Y460100D02*
Y459100D01*
X-45800D01*
Y460100D01*
X-44800D01*
Y462100D01*
X-45800D01*
Y463100D01*
X-47800D01*
Y462100D01*
X-48800D01*
Y460100D01*
X-47800D01*
X-47400Y460500D02*
Y459900D01*
X-46200D01*
Y460500D01*
X-45600D01*
Y461700D01*
X-46200D01*
Y462300D01*
X-47400D01*
Y461700D01*
X-48000D01*
Y460500D01*
X-47400D01*
X-47800Y423300D02*
Y422300D01*
X-45800D01*
Y423300D01*
X-44800D01*
Y425300D01*
X-45800D01*
Y426300D01*
X-47800D01*
Y425300D01*
X-48800D01*
Y423300D01*
X-47800D01*
X-47400Y423700D02*
Y423100D01*
X-46200D01*
Y423700D01*
X-45600D01*
Y424900D01*
X-46200D01*
Y425500D01*
X-47400D01*
Y424900D01*
X-48000D01*
Y423700D01*
X-47400D01*
X-43700Y413500D02*
Y412500D01*
X-41700D01*
Y413500D01*
X-40700D01*
Y415500D01*
X-41700D01*
Y416500D01*
X-43700D01*
Y415500D01*
X-44700D01*
Y413500D01*
X-43700D01*
X-43300Y413900D02*
Y413300D01*
X-42100D01*
Y413900D01*
X-41500D01*
Y415100D01*
X-42100D01*
Y415700D01*
X-43300D01*
Y415100D01*
X-43900D01*
Y413900D01*
X-43300D01*
X-40800Y329600D02*
Y328600D01*
X-38800D01*
Y329600D01*
X-37800D01*
Y331600D01*
X-38800D01*
Y332600D01*
X-40800D01*
Y331600D01*
X-41800D01*
Y329600D01*
X-40800D01*
X-40400Y330000D02*
Y329400D01*
X-39200D01*
Y330000D01*
X-38600D01*
Y331200D01*
X-39200D01*
Y331800D01*
X-40400D01*
Y331200D01*
X-41000D01*
Y330000D01*
X-40400D01*
X-54100Y308900D02*
Y307900D01*
X-52100D01*
Y308900D01*
X-51100D01*
Y310900D01*
X-52100D01*
Y311900D01*
X-54100D01*
Y310900D01*
X-55100D01*
Y308900D01*
X-54100D01*
X-53700Y309300D02*
Y308700D01*
X-52500D01*
Y309300D01*
X-51900D01*
Y310500D01*
X-52500D01*
Y311100D01*
X-53700D01*
Y310500D01*
X-54300D01*
Y309300D01*
X-53700D01*
X-54500Y321000D02*
Y320000D01*
X-52500D01*
Y321000D01*
X-51500D01*
Y323000D01*
X-52500D01*
Y324000D01*
X-54500D01*
Y323000D01*
X-55500D01*
Y321000D01*
X-54500D01*
X-54100Y321400D02*
Y320800D01*
X-52900D01*
Y321400D01*
X-52300D01*
Y322600D01*
X-52900D01*
Y323200D01*
X-54100D01*
Y322600D01*
X-54700D01*
Y321400D01*
X-54100D01*
X-46300Y322300D02*
Y321300D01*
X-44300D01*
Y322300D01*
X-43300D01*
Y324300D01*
X-44300D01*
Y325300D01*
X-46300D01*
Y324300D01*
X-47300D01*
Y322300D01*
X-46300D01*
X-45900Y322700D02*
Y322100D01*
X-44700D01*
Y322700D01*
X-44100D01*
Y323900D01*
X-44700D01*
Y324500D01*
X-45900D01*
Y323900D01*
X-46500D01*
Y322700D01*
X-45900D01*
X-62900Y327600D02*
Y326600D01*
X-60900D01*
Y327600D01*
X-59900D01*
Y329600D01*
X-60900D01*
Y330600D01*
X-62900D01*
Y329600D01*
X-63900D01*
Y327600D01*
X-62900D01*
X-62500Y328000D02*
Y327400D01*
X-61300D01*
Y328000D01*
X-60700D01*
Y329200D01*
X-61300D01*
Y329800D01*
X-62500D01*
Y329200D01*
X-63100D01*
Y328000D01*
X-62500D01*
X-63300Y347000D02*
Y346000D01*
X-61300D01*
Y347000D01*
X-60300D01*
Y349000D01*
X-61300D01*
Y350000D01*
X-63300D01*
Y349000D01*
X-64300D01*
Y347000D01*
X-63300D01*
X-62900Y347400D02*
Y346800D01*
X-61700D01*
Y347400D01*
X-61100D01*
Y348600D01*
X-61700D01*
Y349200D01*
X-62900D01*
Y348600D01*
X-63500D01*
Y347400D01*
X-62900D01*
X-54543Y356677D02*
Y355677D01*
X-52543D01*
Y356677D01*
X-51543D01*
Y358677D01*
X-52543D01*
Y359677D01*
X-54543D01*
Y358677D01*
X-55543D01*
Y356677D01*
X-54543D01*
X-54143Y357077D02*
Y356477D01*
X-52943D01*
Y357077D01*
X-52343D01*
Y358277D01*
X-52943D01*
Y358877D01*
X-54143D01*
Y358277D01*
X-54743D01*
Y357077D01*
X-54143D01*
X-32800Y355800D02*
Y354800D01*
X-30800D01*
Y355800D01*
X-29800D01*
Y357800D01*
X-30800D01*
Y358800D01*
X-32800D01*
Y357800D01*
X-33800D01*
Y355800D01*
X-32800D01*
X-32400Y356200D02*
Y355600D01*
X-31200D01*
Y356200D01*
X-30600D01*
Y357400D01*
X-31200D01*
Y358000D01*
X-32400D01*
Y357400D01*
X-33000D01*
Y356200D01*
X-32400D01*
X-3200Y360600D02*
Y359600D01*
X-1200D01*
Y360600D01*
X-200D01*
Y362600D01*
X-1200D01*
Y363600D01*
X-3200D01*
Y362600D01*
X-4200D01*
Y360600D01*
X-3200D01*
X-2800Y361000D02*
Y360400D01*
X-1600D01*
Y361000D01*
X-1000D01*
Y362200D01*
X-1600D01*
Y362800D01*
X-2800D01*
Y362200D01*
X-3400D01*
Y361000D01*
X-2800D01*
X-4500Y339700D02*
Y338700D01*
X-2500D01*
Y339700D01*
X-1500D01*
Y341700D01*
X-2500D01*
Y342700D01*
X-4500D01*
Y341700D01*
X-5500D01*
Y339700D01*
X-4500D01*
X-4100Y340100D02*
Y339500D01*
X-2900D01*
Y340100D01*
X-2300D01*
Y341300D01*
X-2900D01*
Y341900D01*
X-4100D01*
Y341300D01*
X-4700D01*
Y340100D01*
X-4100D01*
X700Y326000D02*
Y325000D01*
X2700D01*
Y326000D01*
X3700D01*
Y328000D01*
X2700D01*
Y329000D01*
X700D01*
Y328000D01*
X-300D01*
Y326000D01*
X700D01*
X1100Y326400D02*
Y325800D01*
X2300D01*
Y326400D01*
X2900D01*
Y327600D01*
X2300D01*
Y328200D01*
X1100D01*
Y327600D01*
X500D01*
Y326400D01*
X1100D01*
X-4500Y321000D02*
Y320000D01*
X-2500D01*
Y321000D01*
X-1500D01*
Y323000D01*
X-2500D01*
Y324000D01*
X-4500D01*
Y323000D01*
X-5500D01*
Y321000D01*
X-4500D01*
X-4100Y321400D02*
Y320800D01*
X-2900D01*
Y321400D01*
X-2300D01*
Y322600D01*
X-2900D01*
Y323200D01*
X-4100D01*
Y322600D01*
X-4700D01*
Y321400D01*
X-4100D01*
X23500Y330800D02*
Y329800D01*
X25500D01*
Y330800D01*
X26500D01*
Y332800D01*
X25500D01*
Y333800D01*
X23500D01*
Y332800D01*
X22500D01*
Y330800D01*
X23500D01*
X23900Y331200D02*
Y330600D01*
X25100D01*
Y331200D01*
X25700D01*
Y332400D01*
X25100D01*
Y333000D01*
X23900D01*
Y332400D01*
X23300D01*
Y331200D01*
X23900D01*
X4500Y344600D02*
Y343600D01*
X6500D01*
Y344600D01*
X7500D01*
Y346600D01*
X6500D01*
Y347600D01*
X4500D01*
Y346600D01*
X3500D01*
Y344600D01*
X4500D01*
X4900Y345000D02*
Y344400D01*
X6100D01*
Y345000D01*
X6700D01*
Y346200D01*
X6100D01*
Y346800D01*
X4900D01*
Y346200D01*
X4300D01*
Y345000D01*
X4900D01*
X14500Y340400D02*
Y339400D01*
X16500D01*
Y340400D01*
X17500D01*
Y342400D01*
X16500D01*
Y343400D01*
X14500D01*
Y342400D01*
X13500D01*
Y340400D01*
X14500D01*
X14900Y340800D02*
Y340200D01*
X16100D01*
Y340800D01*
X16700D01*
Y342000D01*
X16100D01*
Y342600D01*
X14900D01*
Y342000D01*
X14300D01*
Y340800D01*
X14900D01*
X41000Y342800D02*
Y341800D01*
X43000D01*
Y342800D01*
X44000D01*
Y344800D01*
X43000D01*
Y345800D01*
X41000D01*
Y344800D01*
X40000D01*
Y342800D01*
X41000D01*
X41400Y343200D02*
Y342600D01*
X42600D01*
Y343200D01*
X43200D01*
Y344400D01*
X42600D01*
Y345000D01*
X41400D01*
Y344400D01*
X40800D01*
Y343200D01*
X41400D01*
X42900Y367500D02*
Y366500D01*
X44900D01*
Y367500D01*
X45900D01*
Y369500D01*
X44900D01*
Y370500D01*
X42900D01*
Y369500D01*
X41900D01*
Y367500D01*
X42900D01*
X43300Y367900D02*
Y367300D01*
X44500D01*
Y367900D01*
X45100D01*
Y369100D01*
X44500D01*
Y369700D01*
X43300D01*
Y369100D01*
X42700D01*
Y367900D01*
X43300D01*
X25500Y370600D02*
Y369600D01*
X27500D01*
Y370600D01*
X28500D01*
Y372600D01*
X27500D01*
Y373600D01*
X25500D01*
Y372600D01*
X24500D01*
Y370600D01*
X25500D01*
X25900Y371000D02*
Y370400D01*
X27100D01*
Y371000D01*
X27700D01*
Y372200D01*
X27100D01*
Y372800D01*
X25900D01*
Y372200D01*
X25300D01*
Y371000D01*
X25900D01*
X40200Y384000D02*
Y383000D01*
X42200D01*
Y384000D01*
X43200D01*
Y386000D01*
X42200D01*
Y387000D01*
X40200D01*
Y386000D01*
X39200D01*
Y384000D01*
X40200D01*
X40600Y384400D02*
Y383800D01*
X41800D01*
Y384400D01*
X42400D01*
Y385600D01*
X41800D01*
Y386200D01*
X40600D01*
Y385600D01*
X40000D01*
Y384400D01*
X40600D01*
X26600Y353400D02*
Y352400D01*
X28600D01*
Y353400D01*
X29600D01*
Y355400D01*
X28600D01*
Y356400D01*
X26600D01*
Y355400D01*
X25600D01*
Y353400D01*
X26600D01*
X27000Y353800D02*
Y353200D01*
X28200D01*
Y353800D01*
X28800D01*
Y355000D01*
X28200D01*
Y355600D01*
X27000D01*
Y355000D01*
X26400D01*
Y353800D01*
X27000D01*
X17700Y380300D02*
Y379300D01*
X19700D01*
Y380300D01*
X20700D01*
Y382300D01*
X19700D01*
Y383300D01*
X17700D01*
Y382300D01*
X16700D01*
Y380300D01*
X17700D01*
X18100Y380700D02*
Y380100D01*
X19300D01*
Y380700D01*
X19900D01*
Y381900D01*
X19300D01*
Y382500D01*
X18100D01*
Y381900D01*
X17500D01*
Y380700D01*
X18100D01*
X8800Y365800D02*
Y364800D01*
X10800D01*
Y365800D01*
X11800D01*
Y367800D01*
X10800D01*
Y368800D01*
X8800D01*
Y367800D01*
X7800D01*
Y365800D01*
X8800D01*
X9200Y366200D02*
Y365600D01*
X10400D01*
Y366200D01*
X11000D01*
Y367400D01*
X10400D01*
Y368000D01*
X9200D01*
Y367400D01*
X8600D01*
Y366200D01*
X9200D01*
X-1600Y371100D02*
Y370100D01*
X400D01*
Y371100D01*
X1400D01*
Y373100D01*
X400D01*
Y374100D01*
X-1600D01*
Y373100D01*
X-2600D01*
Y371100D01*
X-1600D01*
X-1200Y371500D02*
Y370900D01*
X0D01*
Y371500D01*
X600D01*
Y372700D01*
X0D01*
Y373300D01*
X-1200D01*
Y372700D01*
X-1800D01*
Y371500D01*
X-1200D01*
X-46500Y400800D02*
Y399800D01*
X-44500D01*
Y400800D01*
X-43500D01*
Y402800D01*
X-44500D01*
Y403800D01*
X-46500D01*
Y402800D01*
X-47500D01*
Y400800D01*
X-46500D01*
X-46100Y401200D02*
Y400600D01*
X-44900D01*
Y401200D01*
X-44300D01*
Y402400D01*
X-44900D01*
Y403000D01*
X-46100D01*
Y402400D01*
X-46700D01*
Y401200D01*
X-46100D01*
X-21900Y405200D02*
Y404200D01*
X-19900D01*
Y405200D01*
X-18900D01*
Y407200D01*
X-19900D01*
Y408200D01*
X-21900D01*
Y407200D01*
X-22900D01*
Y405200D01*
X-21900D01*
X-21500Y405600D02*
Y405000D01*
X-20300D01*
Y405600D01*
X-19700D01*
Y406800D01*
X-20300D01*
Y407400D01*
X-21500D01*
Y406800D01*
X-22100D01*
Y405600D01*
X-21500D01*
X-9900Y404600D02*
Y403600D01*
X-7900D01*
Y404600D01*
X-6900D01*
Y406600D01*
X-7900D01*
Y407600D01*
X-9900D01*
Y406600D01*
X-10900D01*
Y404600D01*
X-9900D01*
X-9500Y405000D02*
Y404400D01*
X-8300D01*
Y405000D01*
X-7700D01*
Y406200D01*
X-8300D01*
Y406800D01*
X-9500D01*
Y406200D01*
X-10100D01*
Y405000D01*
X-9500D01*
X4900Y399500D02*
Y398500D01*
X6900D01*
Y399500D01*
X7900D01*
Y401500D01*
X6900D01*
Y402500D01*
X4900D01*
Y401500D01*
X3900D01*
Y399500D01*
X4900D01*
X5300Y399900D02*
Y399300D01*
X6500D01*
Y399900D01*
X7100D01*
Y401100D01*
X6500D01*
Y401700D01*
X5300D01*
Y401100D01*
X4700D01*
Y399900D01*
X5300D01*
X13000Y410900D02*
Y409900D01*
X15000D01*
Y410900D01*
X16000D01*
Y412900D01*
X15000D01*
Y413900D01*
X13000D01*
Y412900D01*
X12000D01*
Y410900D01*
X13000D01*
X13400Y411300D02*
Y410700D01*
X14600D01*
Y411300D01*
X15200D01*
Y412500D01*
X14600D01*
Y413100D01*
X13400D01*
Y412500D01*
X12800D01*
Y411300D01*
X13400D01*
X3300Y415200D02*
Y414200D01*
X5300D01*
Y415200D01*
X6300D01*
Y417200D01*
X5300D01*
Y418200D01*
X3300D01*
Y417200D01*
X2300D01*
Y415200D01*
X3300D01*
X3700Y415600D02*
Y415000D01*
X4900D01*
Y415600D01*
X5500D01*
Y416800D01*
X4900D01*
Y417400D01*
X3700D01*
Y416800D01*
X3100D01*
Y415600D01*
X3700D01*
X28600Y415100D02*
Y414100D01*
X30600D01*
Y415100D01*
X31600D01*
Y417100D01*
X30600D01*
Y418100D01*
X28600D01*
Y417100D01*
X27600D01*
Y415100D01*
X28600D01*
X29000Y415500D02*
Y414900D01*
X30200D01*
Y415500D01*
X30800D01*
Y416700D01*
X30200D01*
Y417300D01*
X29000D01*
Y416700D01*
X28400D01*
Y415500D01*
X29000D01*
X25600Y403400D02*
Y402400D01*
X27600D01*
Y403400D01*
X28600D01*
Y405400D01*
X27600D01*
Y406400D01*
X25600D01*
Y405400D01*
X24600D01*
Y403400D01*
X25600D01*
X26000Y403800D02*
Y403200D01*
X27200D01*
Y403800D01*
X27800D01*
Y405000D01*
X27200D01*
Y405600D01*
X26000D01*
Y405000D01*
X25400D01*
Y403800D01*
X26000D01*
X34200Y442400D02*
Y441400D01*
X36200D01*
Y442400D01*
X37200D01*
Y444400D01*
X36200D01*
Y445400D01*
X34200D01*
Y444400D01*
X33200D01*
Y442400D01*
X34200D01*
X34600Y442800D02*
Y442200D01*
X35800D01*
Y442800D01*
X36400D01*
Y444000D01*
X35800D01*
Y444600D01*
X34600D01*
Y444000D01*
X34000D01*
Y442800D01*
X34600D01*
X-12000Y432800D02*
Y431800D01*
X-10000D01*
Y432800D01*
X-9000D01*
Y434800D01*
X-10000D01*
Y435800D01*
X-12000D01*
Y434800D01*
X-13000D01*
Y432800D01*
X-12000D01*
X-11600Y433200D02*
Y432600D01*
X-10400D01*
Y433200D01*
X-9800D01*
Y434400D01*
X-10400D01*
Y435000D01*
X-11600D01*
Y434400D01*
X-12200D01*
Y433200D01*
X-11600D01*
X-5700Y425200D02*
Y424200D01*
X-3700D01*
Y425200D01*
X-2700D01*
Y427200D01*
X-3700D01*
Y428200D01*
X-5700D01*
Y427200D01*
X-6700D01*
Y425200D01*
X-5700D01*
X-5300Y425600D02*
Y425000D01*
X-4100D01*
Y425600D01*
X-3500D01*
Y426800D01*
X-4100D01*
Y427400D01*
X-5300D01*
Y426800D01*
X-5900D01*
Y425600D01*
X-5300D01*
X-13000Y419100D02*
Y418100D01*
X-11000D01*
Y419100D01*
X-10000D01*
Y421100D01*
X-11000D01*
Y422100D01*
X-13000D01*
Y421100D01*
X-14000D01*
Y419100D01*
X-13000D01*
X-12600Y419500D02*
Y418900D01*
X-11400D01*
Y419500D01*
X-10800D01*
Y420700D01*
X-11400D01*
Y421300D01*
X-12600D01*
Y420700D01*
X-13200D01*
Y419500D01*
X-12600D01*
X-24900Y421100D02*
Y420100D01*
X-22900D01*
Y421100D01*
X-21900D01*
Y423100D01*
X-22900D01*
Y424100D01*
X-24900D01*
Y423100D01*
X-25900D01*
Y421100D01*
X-24900D01*
X-24500Y421500D02*
Y420900D01*
X-23300D01*
Y421500D01*
X-22700D01*
Y422700D01*
X-23300D01*
Y423300D01*
X-24500D01*
Y422700D01*
X-25100D01*
Y421500D01*
X-24500D01*
X-42500Y423900D02*
Y422900D01*
X-40500D01*
Y423900D01*
X-39500D01*
Y425900D01*
X-40500D01*
Y426900D01*
X-42500D01*
Y425900D01*
X-43500D01*
Y423900D01*
X-42500D01*
X-42100Y424300D02*
Y423700D01*
X-40900D01*
Y424300D01*
X-40300D01*
Y425500D01*
X-40900D01*
Y426100D01*
X-42100D01*
Y425500D01*
X-42700D01*
Y424300D01*
X-42100D01*
X-39500Y457800D02*
Y456800D01*
X-37500D01*
Y457800D01*
X-36500D01*
Y459800D01*
X-37500D01*
Y460800D01*
X-39500D01*
Y459800D01*
X-40500D01*
Y457800D01*
X-39500D01*
X-39100Y458200D02*
Y457600D01*
X-37900D01*
Y458200D01*
X-37300D01*
Y459400D01*
X-37900D01*
Y460000D01*
X-39100D01*
Y459400D01*
X-39700D01*
Y458200D01*
X-39100D01*
X-17000Y456700D02*
Y455700D01*
X-15000D01*
Y456700D01*
X-14000D01*
Y458700D01*
X-15000D01*
Y459700D01*
X-17000D01*
Y458700D01*
X-18000D01*
Y456700D01*
X-17000D01*
X-16600Y457100D02*
Y456500D01*
X-15400D01*
Y457100D01*
X-14800D01*
Y458300D01*
X-15400D01*
Y458900D01*
X-16600D01*
Y458300D01*
X-17200D01*
Y457100D01*
X-16600D01*
X38100Y501100D02*
Y500100D01*
X40100D01*
Y501100D01*
X41100D01*
Y503100D01*
X40100D01*
Y504100D01*
X38100D01*
Y503100D01*
X37100D01*
Y501100D01*
X38100D01*
X38500Y501500D02*
Y500900D01*
X39700D01*
Y501500D01*
X40300D01*
Y502700D01*
X39700D01*
Y503300D01*
X38500D01*
Y502700D01*
X37900D01*
Y501500D01*
X38500D01*
X37200Y487500D02*
Y486500D01*
X39200D01*
Y487500D01*
X40200D01*
Y489500D01*
X39200D01*
Y490500D01*
X37200D01*
Y489500D01*
X36200D01*
Y487500D01*
X37200D01*
X37600Y487900D02*
Y487300D01*
X38800D01*
Y487900D01*
X39400D01*
Y489100D01*
X38800D01*
Y489700D01*
X37600D01*
Y489100D01*
X37000D01*
Y487900D01*
X37600D01*
X20900Y474800D02*
Y473800D01*
X22900D01*
Y474800D01*
X23900D01*
Y476800D01*
X22900D01*
Y477800D01*
X20900D01*
Y476800D01*
X19900D01*
Y474800D01*
X20900D01*
X21300Y475200D02*
Y474600D01*
X22500D01*
Y475200D01*
X23100D01*
Y476400D01*
X22500D01*
Y477000D01*
X21300D01*
Y476400D01*
X20700D01*
Y475200D01*
X21300D01*
X-9400Y467800D02*
Y466800D01*
X-7400D01*
Y467800D01*
X-6400D01*
Y469800D01*
X-7400D01*
Y470800D01*
X-9400D01*
Y469800D01*
X-10400D01*
Y467800D01*
X-9400D01*
X-9000Y468200D02*
Y467600D01*
X-7800D01*
Y468200D01*
X-7200D01*
Y469400D01*
X-7800D01*
Y470000D01*
X-9000D01*
Y469400D01*
X-9600D01*
Y468200D01*
X-9000D01*
X23300Y496200D02*
Y495200D01*
X25300D01*
Y496200D01*
X26300D01*
Y498200D01*
X25300D01*
Y499200D01*
X23300D01*
Y498200D01*
X22300D01*
Y496200D01*
X23300D01*
X23700Y496600D02*
Y496000D01*
X24900D01*
Y496600D01*
X25500D01*
Y497800D01*
X24900D01*
Y498400D01*
X23700D01*
Y497800D01*
X23100D01*
Y496600D01*
X23700D01*
X-1400Y497400D02*
Y496400D01*
X600D01*
Y497400D01*
X1600D01*
Y499400D01*
X600D01*
Y500400D01*
X-1400D01*
Y499400D01*
X-2400D01*
Y497400D01*
X-1400D01*
X-1000Y497800D02*
Y497200D01*
X200D01*
Y497800D01*
X800D01*
Y499000D01*
X200D01*
Y499600D01*
X-1000D01*
Y499000D01*
X-1600D01*
Y497800D01*
X-1000D01*
X-19600Y486000D02*
Y485000D01*
X-17600D01*
Y486000D01*
X-16600D01*
Y488000D01*
X-17600D01*
Y489000D01*
X-19600D01*
Y488000D01*
X-20600D01*
Y486000D01*
X-19600D01*
X-19200Y486400D02*
Y485800D01*
X-18000D01*
Y486400D01*
X-17400D01*
Y487600D01*
X-18000D01*
Y488200D01*
X-19200D01*
Y487600D01*
X-19800D01*
Y486400D01*
X-19200D01*
X-40800Y496300D02*
Y495300D01*
X-38800D01*
Y496300D01*
X-37800D01*
Y498300D01*
X-38800D01*
Y499300D01*
X-40800D01*
Y498300D01*
X-41800D01*
Y496300D01*
X-40800D01*
X-40400Y496700D02*
Y496100D01*
X-39200D01*
Y496700D01*
X-38600D01*
Y497900D01*
X-39200D01*
Y498500D01*
X-40400D01*
Y497900D01*
X-41000D01*
Y496700D01*
X-40400D01*
X-25000Y500600D02*
Y499600D01*
X-23000D01*
Y500600D01*
X-22000D01*
Y502600D01*
X-23000D01*
Y503600D01*
X-25000D01*
Y502600D01*
X-26000D01*
Y500600D01*
X-25000D01*
X-24600Y501000D02*
Y500400D01*
X-23400D01*
Y501000D01*
X-22800D01*
Y502200D01*
X-23400D01*
Y502800D01*
X-24600D01*
Y502200D01*
X-25200D01*
Y501000D01*
X-24600D01*
X-43500Y527100D02*
Y526100D01*
X-41500D01*
Y527100D01*
X-40500D01*
Y529100D01*
X-41500D01*
Y530100D01*
X-43500D01*
Y529100D01*
X-44500D01*
Y527100D01*
X-43500D01*
X-43100Y527500D02*
Y526900D01*
X-41900D01*
Y527500D01*
X-41300D01*
Y528700D01*
X-41900D01*
Y529300D01*
X-43100D01*
Y528700D01*
X-43700D01*
Y527500D01*
X-43100D01*
X-23500Y526700D02*
Y525700D01*
X-21500D01*
Y526700D01*
X-20500D01*
Y528700D01*
X-21500D01*
Y529700D01*
X-23500D01*
Y528700D01*
X-24500D01*
Y526700D01*
X-23500D01*
X-23100Y527100D02*
Y526500D01*
X-21900D01*
Y527100D01*
X-21300D01*
Y528300D01*
X-21900D01*
Y528900D01*
X-23100D01*
Y528300D01*
X-23700D01*
Y527100D01*
X-23100D01*
X20700Y527000D02*
Y526000D01*
X22700D01*
Y527000D01*
X23700D01*
Y529000D01*
X22700D01*
Y530000D01*
X20700D01*
Y529000D01*
X19700D01*
Y527000D01*
X20700D01*
X21100Y527400D02*
Y526800D01*
X22300D01*
Y527400D01*
X22900D01*
Y528600D01*
X22300D01*
Y529200D01*
X21100D01*
Y528600D01*
X20500D01*
Y527400D01*
X21100D01*
X36300Y529700D02*
Y528700D01*
X38300D01*
Y529700D01*
X39300D01*
Y531700D01*
X38300D01*
Y532700D01*
X36300D01*
Y531700D01*
X35300D01*
Y529700D01*
X36300D01*
X36700Y530100D02*
Y529500D01*
X37900D01*
Y530100D01*
X38500D01*
Y531300D01*
X37900D01*
Y531900D01*
X36700D01*
Y531300D01*
X36100D01*
Y530100D01*
X36700D01*
X24900Y554200D02*
Y553200D01*
X26900D01*
Y554200D01*
X27900D01*
Y556200D01*
X26900D01*
Y557200D01*
X24900D01*
Y556200D01*
X23900D01*
Y554200D01*
X24900D01*
X25300Y554600D02*
Y554000D01*
X26500D01*
Y554600D01*
X27100D01*
Y555800D01*
X26500D01*
Y556400D01*
X25300D01*
Y555800D01*
X24700D01*
Y554600D01*
X25300D01*
X24300Y568800D02*
Y567800D01*
X26300D01*
Y568800D01*
X27300D01*
Y570800D01*
X26300D01*
Y571800D01*
X24300D01*
Y570800D01*
X23300D01*
Y568800D01*
X24300D01*
X24700Y569200D02*
Y568600D01*
X25900D01*
Y569200D01*
X26500D01*
Y570400D01*
X25900D01*
Y571000D01*
X24700D01*
Y570400D01*
X24100D01*
Y569200D01*
X24700D01*
X-12700Y600400D02*
Y599400D01*
X-10700D01*
Y600400D01*
X-9700D01*
Y602400D01*
X-10700D01*
Y603400D01*
X-12700D01*
Y602400D01*
X-13700D01*
Y600400D01*
X-12700D01*
X-12300Y600800D02*
Y600200D01*
X-11100D01*
Y600800D01*
X-10500D01*
Y602000D01*
X-11100D01*
Y602600D01*
X-12300D01*
Y602000D01*
X-12900D01*
Y600800D01*
X-12300D01*
Y593100D02*
Y592100D01*
X-10300D01*
Y593100D01*
X-9300D01*
Y595100D01*
X-10300D01*
Y596100D01*
X-12300D01*
Y595100D01*
X-13300D01*
Y593100D01*
X-12300D01*
X-11900Y593500D02*
Y592900D01*
X-10700D01*
Y593500D01*
X-10100D01*
Y594700D01*
X-10700D01*
Y595300D01*
X-11900D01*
Y594700D01*
X-12500D01*
Y593500D01*
X-11900D01*
X300Y592400D02*
Y591400D01*
X2300D01*
Y592400D01*
X3300D01*
Y594400D01*
X2300D01*
Y595400D01*
X300D01*
Y594400D01*
X-700D01*
Y592400D01*
X300D01*
X700Y592800D02*
Y592200D01*
X1900D01*
Y592800D01*
X2500D01*
Y594000D01*
X1900D01*
Y594600D01*
X700D01*
Y594000D01*
X100D01*
Y592800D01*
X700D01*
X-35700Y568500D02*
Y567500D01*
X-33700D01*
Y568500D01*
X-32700D01*
Y570500D01*
X-33700D01*
Y571500D01*
X-35700D01*
Y570500D01*
X-36700D01*
Y568500D01*
X-35700D01*
X-35300Y568900D02*
Y568300D01*
X-34100D01*
Y568900D01*
X-33500D01*
Y570100D01*
X-34100D01*
Y570700D01*
X-35300D01*
Y570100D01*
X-35900D01*
Y568900D01*
X-35300D01*
X-8400Y554600D02*
Y553600D01*
X-6400D01*
Y554600D01*
X-5400D01*
Y556600D01*
X-6400D01*
Y557600D01*
X-8400D01*
Y556600D01*
X-9400D01*
Y554600D01*
X-8400D01*
X-8000Y555000D02*
Y554400D01*
X-6800D01*
Y555000D01*
X-6200D01*
Y556200D01*
X-6800D01*
Y556800D01*
X-8000D01*
Y556200D01*
X-8600D01*
Y555000D01*
X-8000D01*
X-18700Y567500D02*
Y566500D01*
X-16700D01*
Y567500D01*
X-15700D01*
Y569500D01*
X-16700D01*
Y570500D01*
X-18700D01*
Y569500D01*
X-19700D01*
Y567500D01*
X-18700D01*
X-18300Y567900D02*
Y567300D01*
X-17100D01*
Y567900D01*
X-16500D01*
Y569100D01*
X-17100D01*
Y569700D01*
X-18300D01*
Y569100D01*
X-18900D01*
Y567900D01*
X-18300D01*
X-4000Y575300D02*
Y574300D01*
X-2000D01*
Y575300D01*
X-1000D01*
Y577300D01*
X-2000D01*
Y578300D01*
X-4000D01*
Y577300D01*
X-5000D01*
Y575300D01*
X-4000D01*
X-3600Y575700D02*
Y575100D01*
X-2400D01*
Y575700D01*
X-1800D01*
Y576900D01*
X-2400D01*
Y577500D01*
X-3600D01*
Y576900D01*
X-4200D01*
Y575700D01*
X-3600D01*
X-33200Y415700D02*
Y414700D01*
X-31200D01*
Y415700D01*
X-30200D01*
Y417700D01*
X-31200D01*
Y418700D01*
X-33200D01*
Y417700D01*
X-34200D01*
Y415700D01*
X-33200D01*
X-32800Y416100D02*
Y415500D01*
X-31600D01*
Y416100D01*
X-31000D01*
Y417300D01*
X-31600D01*
Y417900D01*
X-32800D01*
Y417300D01*
X-33400D01*
Y416100D01*
X-32800D01*
X42300Y217900D02*
Y216900D01*
X44300D01*
Y217900D01*
X45300D01*
Y219900D01*
X44300D01*
Y220900D01*
X42300D01*
Y219900D01*
X41300D01*
Y217900D01*
X42300D01*
X42700Y218300D02*
Y217700D01*
X43900D01*
Y218300D01*
X44500D01*
Y219500D01*
X43900D01*
Y220100D01*
X42700D01*
Y219500D01*
X42100D01*
Y218300D01*
X42700D01*
X41200Y211500D02*
Y210500D01*
X43200D01*
Y211500D01*
X44200D01*
Y213500D01*
X43200D01*
Y214500D01*
X41200D01*
Y213500D01*
X40200D01*
Y211500D01*
X41200D01*
X41600Y211900D02*
Y211300D01*
X42800D01*
Y211900D01*
X43400D01*
Y213100D01*
X42800D01*
Y213700D01*
X41600D01*
Y213100D01*
X41000D01*
Y211900D01*
X41600D01*
X39100Y199600D02*
Y198600D01*
X41100D01*
Y199600D01*
X42100D01*
Y201600D01*
X41100D01*
Y202600D01*
X39100D01*
Y201600D01*
X38100D01*
Y199600D01*
X39100D01*
X39500Y200000D02*
Y199400D01*
X40700D01*
Y200000D01*
X41300D01*
Y201200D01*
X40700D01*
Y201800D01*
X39500D01*
Y201200D01*
X38900D01*
Y200000D01*
X39500D01*
X29100Y245600D02*
Y244600D01*
X31100D01*
Y245600D01*
X32100D01*
Y247600D01*
X31100D01*
Y248600D01*
X29100D01*
Y247600D01*
X28100D01*
Y245600D01*
X29100D01*
X29500Y246000D02*
Y245400D01*
X30700D01*
Y246000D01*
X31300D01*
Y247200D01*
X30700D01*
Y247800D01*
X29500D01*
Y247200D01*
X28900D01*
Y246000D01*
X29500D01*
X16400Y238400D02*
Y237400D01*
X18400D01*
Y238400D01*
X19400D01*
Y240400D01*
X18400D01*
Y241400D01*
X16400D01*
Y240400D01*
X15400D01*
Y238400D01*
X16400D01*
X16800Y238800D02*
Y238200D01*
X18000D01*
Y238800D01*
X18600D01*
Y240000D01*
X18000D01*
Y240600D01*
X16800D01*
Y240000D01*
X16200D01*
Y238800D01*
X16800D01*
X20900Y237900D02*
Y236900D01*
X22900D01*
Y237900D01*
X23900D01*
Y239900D01*
X22900D01*
Y240900D01*
X20900D01*
Y239900D01*
X19900D01*
Y237900D01*
X20900D01*
X21300Y238300D02*
Y237700D01*
X22500D01*
Y238300D01*
X23100D01*
Y239500D01*
X22500D01*
Y240100D01*
X21300D01*
Y239500D01*
X20700D01*
Y238300D01*
X21300D01*
X28800Y239800D02*
Y238800D01*
X30800D01*
Y239800D01*
X31800D01*
Y241800D01*
X30800D01*
Y242800D01*
X28800D01*
Y241800D01*
X27800D01*
Y239800D01*
X28800D01*
X29200Y240200D02*
Y239600D01*
X30400D01*
Y240200D01*
X31000D01*
Y241400D01*
X30400D01*
Y242000D01*
X29200D01*
Y241400D01*
X28600D01*
Y240200D01*
X29200D01*
X45100Y246100D02*
Y245100D01*
X47100D01*
Y246100D01*
X48100D01*
Y248100D01*
X47100D01*
Y249100D01*
X45100D01*
Y248100D01*
X44100D01*
Y246100D01*
X45100D01*
X45500Y246500D02*
Y245900D01*
X46700D01*
Y246500D01*
X47300D01*
Y247700D01*
X46700D01*
Y248300D01*
X45500D01*
Y247700D01*
X44900D01*
Y246500D01*
X45500D01*
X57300Y265600D02*
Y264600D01*
X59300D01*
Y265600D01*
X60300D01*
Y267600D01*
X59300D01*
Y268600D01*
X57300D01*
Y267600D01*
X56300D01*
Y265600D01*
X57300D01*
X57700Y266000D02*
Y265400D01*
X58900D01*
Y266000D01*
X59500D01*
Y267200D01*
X58900D01*
Y267800D01*
X57700D01*
Y267200D01*
X57100D01*
Y266000D01*
X57700D01*
X49700Y256900D02*
Y255900D01*
X51700D01*
Y256900D01*
X52700D01*
Y258900D01*
X51700D01*
Y259900D01*
X49700D01*
Y258900D01*
X48700D01*
Y256900D01*
X49700D01*
X50100Y257300D02*
Y256700D01*
X51300D01*
Y257300D01*
X51900D01*
Y258500D01*
X51300D01*
Y259100D01*
X50100D01*
Y258500D01*
X49500D01*
Y257300D01*
X50100D01*
X49700Y265600D02*
Y264600D01*
X51700D01*
Y265600D01*
X52700D01*
Y267600D01*
X51700D01*
Y268600D01*
X49700D01*
Y267600D01*
X48700D01*
Y265600D01*
X49700D01*
X50100Y266000D02*
Y265400D01*
X51300D01*
Y266000D01*
X51900D01*
Y267200D01*
X51300D01*
Y267800D01*
X50100D01*
Y267200D01*
X49500D01*
Y266000D01*
X50100D01*
X38500Y265500D02*
Y264500D01*
X40500D01*
Y265500D01*
X41500D01*
Y267500D01*
X40500D01*
Y268500D01*
X38500D01*
Y267500D01*
X37500D01*
Y265500D01*
X38500D01*
X38900Y265900D02*
Y265300D01*
X40100D01*
Y265900D01*
X40700D01*
Y267100D01*
X40100D01*
Y267700D01*
X38900D01*
Y267100D01*
X38300D01*
Y265900D01*
X38900D01*
X29100Y262100D02*
Y261100D01*
X31100D01*
Y262100D01*
X32100D01*
Y264100D01*
X31100D01*
Y265100D01*
X29100D01*
Y264100D01*
X28100D01*
Y262100D01*
X29100D01*
X29500Y262500D02*
Y261900D01*
X30700D01*
Y262500D01*
X31300D01*
Y263700D01*
X30700D01*
Y264300D01*
X29500D01*
Y263700D01*
X28900D01*
Y262500D01*
X29500D01*
X24900Y265400D02*
Y264400D01*
X26900D01*
Y265400D01*
X27900D01*
Y267400D01*
X26900D01*
Y268400D01*
X24900D01*
Y267400D01*
X23900D01*
Y265400D01*
X24900D01*
X25300Y265800D02*
Y265200D01*
X26500D01*
Y265800D01*
X27100D01*
Y267000D01*
X26500D01*
Y267600D01*
X25300D01*
Y267000D01*
X24700D01*
Y265800D01*
X25300D01*
X17600Y265600D02*
Y264600D01*
X19600D01*
Y265600D01*
X20600D01*
Y267600D01*
X19600D01*
Y268600D01*
X17600D01*
Y267600D01*
X16600D01*
Y265600D01*
X17600D01*
X18000Y266000D02*
Y265400D01*
X19200D01*
Y266000D01*
X19800D01*
Y267200D01*
X19200D01*
Y267800D01*
X18000D01*
Y267200D01*
X17400D01*
Y266000D01*
X18000D01*
X12500Y266500D02*
Y265500D01*
X14500D01*
Y266500D01*
X15500D01*
Y268500D01*
X14500D01*
Y269500D01*
X12500D01*
Y268500D01*
X11500D01*
Y266500D01*
X12500D01*
X12900Y266900D02*
Y266300D01*
X14100D01*
Y266900D01*
X14700D01*
Y268100D01*
X14100D01*
Y268700D01*
X12900D01*
Y268100D01*
X12300D01*
Y266900D01*
X12900D01*
X-2900Y270700D02*
Y269700D01*
X-900D01*
Y270700D01*
X100D01*
Y272700D01*
X-900D01*
Y273700D01*
X-2900D01*
Y272700D01*
X-3900D01*
Y270700D01*
X-2900D01*
X-2500Y271100D02*
Y270500D01*
X-1300D01*
Y271100D01*
X-700D01*
Y272300D01*
X-1300D01*
Y272900D01*
X-2500D01*
Y272300D01*
X-3100D01*
Y271100D01*
X-2500D01*
X1100Y284300D02*
Y283300D01*
X3100D01*
Y284300D01*
X4100D01*
Y286300D01*
X3100D01*
Y287300D01*
X1100D01*
Y286300D01*
X100D01*
Y284300D01*
X1100D01*
X1500Y284700D02*
Y284100D01*
X2700D01*
Y284700D01*
X3300D01*
Y285900D01*
X2700D01*
Y286500D01*
X1500D01*
Y285900D01*
X900D01*
Y284700D01*
X1500D01*
X-16000Y307000D02*
Y306000D01*
X-14000D01*
Y307000D01*
X-13000D01*
Y309000D01*
X-14000D01*
Y310000D01*
X-16000D01*
Y309000D01*
X-17000D01*
Y307000D01*
X-16000D01*
X-15600Y307400D02*
Y306800D01*
X-14400D01*
Y307400D01*
X-13800D01*
Y308600D01*
X-14400D01*
Y309200D01*
X-15600D01*
Y308600D01*
X-16200D01*
Y307400D01*
X-15600D01*
X-17000Y274000D02*
Y273000D01*
X-15000D01*
Y274000D01*
X-14000D01*
Y276000D01*
X-15000D01*
Y277000D01*
X-17000D01*
Y276000D01*
X-18000D01*
Y274000D01*
X-17000D01*
X-16600Y274400D02*
Y273800D01*
X-15400D01*
Y274400D01*
X-14800D01*
Y275600D01*
X-15400D01*
Y276200D01*
X-16600D01*
Y275600D01*
X-17200D01*
Y274400D01*
X-16600D01*
X-19000Y291900D02*
Y290900D01*
X-17000D01*
Y291900D01*
X-16000D01*
Y293900D01*
X-17000D01*
Y294900D01*
X-19000D01*
Y293900D01*
X-20000D01*
Y291900D01*
X-19000D01*
X-18600Y292300D02*
Y291700D01*
X-17400D01*
Y292300D01*
X-16800D01*
Y293500D01*
X-17400D01*
Y294100D01*
X-18600D01*
Y293500D01*
X-19200D01*
Y292300D01*
X-18600D01*
X-11300Y286100D02*
Y285100D01*
X-9300D01*
Y286100D01*
X-8300D01*
Y288100D01*
X-9300D01*
Y289100D01*
X-11300D01*
Y288100D01*
X-12300D01*
Y286100D01*
X-11300D01*
X-10900Y286500D02*
Y285900D01*
X-9700D01*
Y286500D01*
X-9100D01*
Y287700D01*
X-9700D01*
Y288300D01*
X-10900D01*
Y287700D01*
X-11500D01*
Y286500D01*
X-10900D01*
X-15300Y286700D02*
Y285700D01*
X-13300D01*
Y286700D01*
X-12300D01*
Y288700D01*
X-13300D01*
Y289700D01*
X-15300D01*
Y288700D01*
X-16300D01*
Y286700D01*
X-15300D01*
X-14900Y287100D02*
Y286500D01*
X-13700D01*
Y287100D01*
X-13100D01*
Y288300D01*
X-13700D01*
Y288900D01*
X-14900D01*
Y288300D01*
X-15500D01*
Y287100D01*
X-14900D01*
X-44600Y272500D02*
Y271500D01*
X-42600D01*
Y272500D01*
X-41600D01*
Y274500D01*
X-42600D01*
Y275500D01*
X-44600D01*
Y274500D01*
X-45600D01*
Y272500D01*
X-44600D01*
X-44200Y272900D02*
Y272300D01*
X-43000D01*
Y272900D01*
X-42400D01*
Y274100D01*
X-43000D01*
Y274700D01*
X-44200D01*
Y274100D01*
X-44800D01*
Y272900D01*
X-44200D01*
X-27500Y272600D02*
Y271600D01*
X-25500D01*
Y272600D01*
X-24500D01*
Y274600D01*
X-25500D01*
Y275600D01*
X-27500D01*
Y274600D01*
X-28500D01*
Y272600D01*
X-27500D01*
X-27100Y273000D02*
Y272400D01*
X-25900D01*
Y273000D01*
X-25300D01*
Y274200D01*
X-25900D01*
Y274800D01*
X-27100D01*
Y274200D01*
X-27700D01*
Y273000D01*
X-27100D01*
X-17000Y255500D02*
Y254500D01*
X-15000D01*
Y255500D01*
X-14000D01*
Y257500D01*
X-15000D01*
Y258500D01*
X-17000D01*
Y257500D01*
X-18000D01*
Y255500D01*
X-17000D01*
X-16600Y255900D02*
Y255300D01*
X-15400D01*
Y255900D01*
X-14800D01*
Y257100D01*
X-15400D01*
Y257700D01*
X-16600D01*
Y257100D01*
X-17200D01*
Y255900D01*
X-16600D01*
X-16200Y245900D02*
Y244900D01*
X-14200D01*
Y245900D01*
X-13200D01*
Y247900D01*
X-14200D01*
Y248900D01*
X-16200D01*
Y247900D01*
X-17200D01*
Y245900D01*
X-16200D01*
X-15800Y246300D02*
Y245700D01*
X-14600D01*
Y246300D01*
X-14000D01*
Y247500D01*
X-14600D01*
Y248100D01*
X-15800D01*
Y247500D01*
X-16400D01*
Y246300D01*
X-15800D01*
X-37900Y225500D02*
Y224500D01*
X-35900D01*
Y225500D01*
X-34900D01*
Y227500D01*
X-35900D01*
Y228500D01*
X-37900D01*
Y227500D01*
X-38900D01*
Y225500D01*
X-37900D01*
X-37500Y225900D02*
Y225300D01*
X-36300D01*
Y225900D01*
X-35700D01*
Y227100D01*
X-36300D01*
Y227700D01*
X-37500D01*
Y227100D01*
X-38100D01*
Y225900D01*
X-37500D01*
X-42600Y183200D02*
Y182200D01*
X-40600D01*
Y183200D01*
X-39600D01*
Y185200D01*
X-40600D01*
Y186200D01*
X-42600D01*
Y185200D01*
X-43600D01*
Y183200D01*
X-42600D01*
X-42200Y183600D02*
Y183000D01*
X-41000D01*
Y183600D01*
X-40400D01*
Y184800D01*
X-41000D01*
Y185400D01*
X-42200D01*
Y184800D01*
X-42800D01*
Y183600D01*
X-42200D01*
X-23000Y193300D02*
Y192300D01*
X-21000D01*
Y193300D01*
X-20000D01*
Y195300D01*
X-21000D01*
Y196300D01*
X-23000D01*
Y195300D01*
X-24000D01*
Y193300D01*
X-23000D01*
X-22600Y193700D02*
Y193100D01*
X-21400D01*
Y193700D01*
X-20800D01*
Y194900D01*
X-21400D01*
Y195500D01*
X-22600D01*
Y194900D01*
X-23200D01*
Y193700D01*
X-22600D01*
X-17000Y196300D02*
Y195300D01*
X-15000D01*
Y196300D01*
X-14000D01*
Y198300D01*
X-15000D01*
Y199300D01*
X-17000D01*
Y198300D01*
X-18000D01*
Y196300D01*
X-17000D01*
X-16600Y196700D02*
Y196100D01*
X-15400D01*
Y196700D01*
X-14800D01*
Y197900D01*
X-15400D01*
Y198500D01*
X-16600D01*
Y197900D01*
X-17200D01*
Y196700D01*
X-16600D01*
X-5700Y184900D02*
Y183900D01*
X-3700D01*
Y184900D01*
X-2700D01*
Y186900D01*
X-3700D01*
Y187900D01*
X-5700D01*
Y186900D01*
X-6700D01*
Y184900D01*
X-5700D01*
X-5300Y185300D02*
Y184700D01*
X-4100D01*
Y185300D01*
X-3500D01*
Y186500D01*
X-4100D01*
Y187100D01*
X-5300D01*
Y186500D01*
X-5900D01*
Y185300D01*
X-5300D01*
X-12500Y185700D02*
Y184700D01*
X-10500D01*
Y185700D01*
X-9500D01*
Y187700D01*
X-10500D01*
Y188700D01*
X-12500D01*
Y187700D01*
X-13500D01*
Y185700D01*
X-12500D01*
X-12100Y186100D02*
Y185500D01*
X-10900D01*
Y186100D01*
X-10300D01*
Y187300D01*
X-10900D01*
Y187900D01*
X-12100D01*
Y187300D01*
X-12700D01*
Y186100D01*
X-12100D01*
X-32794Y155853D02*
Y154853D01*
X-30795D01*
Y155853D01*
X-29794D01*
Y157853D01*
X-30795D01*
Y158853D01*
X-32794D01*
Y157853D01*
X-33795D01*
Y155853D01*
X-32794D01*
X-32394Y156253D02*
Y155653D01*
X-31194D01*
Y156253D01*
X-30595D01*
Y157453D01*
X-31194D01*
Y158053D01*
X-32394D01*
Y157453D01*
X-32994D01*
Y156253D01*
X-32394D01*
X-33430Y162586D02*
Y161586D01*
X-31430D01*
Y162586D01*
X-30430D01*
Y164586D01*
X-31430D01*
Y165586D01*
X-33430D01*
Y164586D01*
X-34430D01*
Y162586D01*
X-33430D01*
X-33030Y162986D02*
Y162386D01*
X-31830D01*
Y162986D01*
X-31230D01*
Y164186D01*
X-31830D01*
Y164786D01*
X-33030D01*
Y164186D01*
X-33630D01*
Y162986D01*
X-33030D01*
X-35700Y170694D02*
Y169694D01*
X-33700D01*
Y170694D01*
X-32700D01*
Y172695D01*
X-33700D01*
Y173695D01*
X-35700D01*
Y172695D01*
X-36700D01*
Y170694D01*
X-35700D01*
X-35300Y171095D02*
Y170494D01*
X-34100D01*
Y171095D01*
X-33500D01*
Y172294D01*
X-34100D01*
Y172895D01*
X-35300D01*
Y172294D01*
X-35900D01*
Y171095D01*
X-35300D01*
X35400Y154800D02*
Y153800D01*
X37400D01*
Y154800D01*
X38400D01*
Y156800D01*
X37400D01*
Y157800D01*
X35400D01*
Y156800D01*
X34400D01*
Y154800D01*
X35400D01*
X35800Y155200D02*
Y154600D01*
X37000D01*
Y155200D01*
X37600D01*
Y156400D01*
X37000D01*
Y157000D01*
X35800D01*
Y156400D01*
X35200D01*
Y155200D01*
X35800D01*
X30300Y155800D02*
Y154800D01*
X32300D01*
Y155800D01*
X33300D01*
Y157800D01*
X32300D01*
Y158800D01*
X30300D01*
Y157800D01*
X29300D01*
Y155800D01*
X30300D01*
X30700Y156200D02*
Y155600D01*
X31900D01*
Y156200D01*
X32500D01*
Y157400D01*
X31900D01*
Y158000D01*
X30700D01*
Y157400D01*
X30100D01*
Y156200D01*
X30700D01*
X9400Y118100D02*
Y117100D01*
X11400D01*
Y118100D01*
X12400D01*
Y120100D01*
X11400D01*
Y121100D01*
X9400D01*
Y120100D01*
X8400D01*
Y118100D01*
X9400D01*
X9800Y118500D02*
Y117900D01*
X11000D01*
Y118500D01*
X11600D01*
Y119700D01*
X11000D01*
Y120300D01*
X9800D01*
Y119700D01*
X9200D01*
Y118500D01*
X9800D01*
X7300Y120300D02*
Y119300D01*
X9300D01*
Y120300D01*
X10300D01*
Y122300D01*
X9300D01*
Y123300D01*
X7300D01*
Y122300D01*
X6300D01*
Y120300D01*
X7300D01*
X7700Y120700D02*
Y120100D01*
X8900D01*
Y120700D01*
X9500D01*
Y121900D01*
X8900D01*
Y122500D01*
X7700D01*
Y121900D01*
X7100D01*
Y120700D01*
X7700D01*
X-300Y143700D02*
Y142700D01*
X1700D01*
Y143700D01*
X2700D01*
Y145700D01*
X1700D01*
Y146700D01*
X-300D01*
Y145700D01*
X-1300D01*
Y143700D01*
X-300D01*
X100Y144100D02*
Y143500D01*
X1300D01*
Y144100D01*
X1900D01*
Y145300D01*
X1300D01*
Y145900D01*
X100D01*
Y145300D01*
X-500D01*
Y144100D01*
X100D01*
X-800Y140400D02*
Y139400D01*
X1200D01*
Y140400D01*
X2200D01*
Y142400D01*
X1200D01*
Y143400D01*
X-800D01*
Y142400D01*
X-1800D01*
Y140400D01*
X-800D01*
X-400Y140800D02*
Y140200D01*
X800D01*
Y140800D01*
X1400D01*
Y142000D01*
X800D01*
Y142600D01*
X-400D01*
Y142000D01*
X-1000D01*
Y140800D01*
X-400D01*
X-1500Y137000D02*
Y136000D01*
X500D01*
Y137000D01*
X1500D01*
Y139000D01*
X500D01*
Y140000D01*
X-1500D01*
Y139000D01*
X-2500D01*
Y137000D01*
X-1500D01*
X-1100Y137400D02*
Y136800D01*
X100D01*
Y137400D01*
X700D01*
Y138600D01*
X100D01*
Y139200D01*
X-1100D01*
Y138600D01*
X-1700D01*
Y137400D01*
X-1100D01*
X-2100Y133700D02*
Y132700D01*
X-100D01*
Y133700D01*
X900D01*
Y135700D01*
X-100D01*
Y136700D01*
X-2100D01*
Y135700D01*
X-3100D01*
Y133700D01*
X-2100D01*
X-1700Y134100D02*
Y133500D01*
X-500D01*
Y134100D01*
X100D01*
Y135300D01*
X-500D01*
Y135900D01*
X-1700D01*
Y135300D01*
X-2300D01*
Y134100D01*
X-1700D01*
X-2800Y130300D02*
Y129300D01*
X-800D01*
Y130300D01*
X200D01*
Y132300D01*
X-800D01*
Y133300D01*
X-2800D01*
Y132300D01*
X-3800D01*
Y130300D01*
X-2800D01*
X-2400Y130700D02*
Y130100D01*
X-1200D01*
Y130700D01*
X-600D01*
Y131900D01*
X-1200D01*
Y132500D01*
X-2400D01*
Y131900D01*
X-3000D01*
Y130700D01*
X-2400D01*
X-2500Y126900D02*
Y125900D01*
X-500D01*
Y126900D01*
X500D01*
Y128900D01*
X-500D01*
Y129900D01*
X-2500D01*
Y128900D01*
X-3500D01*
Y126900D01*
X-2500D01*
X-2100Y127300D02*
Y126700D01*
X-900D01*
Y127300D01*
X-300D01*
Y128500D01*
X-900D01*
Y129100D01*
X-2100D01*
Y128500D01*
X-2700D01*
Y127300D01*
X-2100D01*
X-600Y124400D02*
Y123400D01*
X1400D01*
Y124400D01*
X2400D01*
Y126400D01*
X1400D01*
Y127400D01*
X-600D01*
Y126400D01*
X-1600D01*
Y124400D01*
X-600D01*
X-200Y124800D02*
Y124200D01*
X1000D01*
Y124800D01*
X1600D01*
Y126000D01*
X1000D01*
Y126600D01*
X-200D01*
Y126000D01*
X-800D01*
Y124800D01*
X-200D01*
X-11600Y311500D02*
Y310500D01*
X-9600D01*
Y311500D01*
X-8600D01*
Y313500D01*
X-9600D01*
Y314500D01*
X-11600D01*
Y313500D01*
X-12600D01*
Y311500D01*
X-11600D01*
X-11200Y311900D02*
Y311300D01*
X-10000D01*
Y311900D01*
X-9400D01*
Y313100D01*
X-10000D01*
Y313700D01*
X-11200D01*
Y313100D01*
X-11800D01*
Y311900D01*
X-11200D01*
X-1600Y307900D02*
Y306900D01*
X400D01*
Y307900D01*
X1400D01*
Y309900D01*
X400D01*
Y310900D01*
X-1600D01*
Y309900D01*
X-2600D01*
Y307900D01*
X-1600D01*
X-1200Y308300D02*
Y307700D01*
X0D01*
Y308300D01*
X600D01*
Y309500D01*
X0D01*
Y310100D01*
X-1200D01*
Y309500D01*
X-1800D01*
Y308300D01*
X-1200D01*
X7700Y288300D02*
Y287300D01*
X9700D01*
Y288300D01*
X10700D01*
Y290300D01*
X9700D01*
Y291300D01*
X7700D01*
Y290300D01*
X6700D01*
Y288300D01*
X7700D01*
X8100Y288700D02*
Y288100D01*
X9300D01*
Y288700D01*
X9900D01*
Y289900D01*
X9300D01*
Y290500D01*
X8100D01*
Y289900D01*
X7500D01*
Y288700D01*
X8100D01*
X-49500Y261000D02*
Y260000D01*
X-47500D01*
Y261000D01*
X-46500D01*
Y263000D01*
X-47500D01*
Y264000D01*
X-49500D01*
Y263000D01*
X-50500D01*
Y261000D01*
X-49500D01*
X-49100Y261400D02*
Y260800D01*
X-47900D01*
Y261400D01*
X-47300D01*
Y262600D01*
X-47900D01*
Y263200D01*
X-49100D01*
Y262600D01*
X-49700D01*
Y261400D01*
X-49100D01*
X-43600Y264000D02*
Y263000D01*
X-41600D01*
Y264000D01*
X-40600D01*
Y266000D01*
X-41600D01*
Y267000D01*
X-43600D01*
Y266000D01*
X-44600D01*
Y264000D01*
X-43600D01*
X-43200Y264400D02*
Y263800D01*
X-42000D01*
Y264400D01*
X-41400D01*
Y265600D01*
X-42000D01*
Y266200D01*
X-43200D01*
Y265600D01*
X-43800D01*
Y264400D01*
X-43200D01*
X-17500Y268300D02*
Y267300D01*
X-15500D01*
Y268300D01*
X-14500D01*
Y270300D01*
X-15500D01*
Y271300D01*
X-17500D01*
Y270300D01*
X-18500D01*
Y268300D01*
X-17500D01*
X-17100Y268700D02*
Y268100D01*
X-15900D01*
Y268700D01*
X-15300D01*
Y269900D01*
X-15900D01*
Y270500D01*
X-17100D01*
Y269900D01*
X-17700D01*
Y268700D01*
X-17100D01*
X-11500Y262900D02*
Y261900D01*
X-9500D01*
Y262900D01*
X-8500D01*
Y264900D01*
X-9500D01*
Y265900D01*
X-11500D01*
Y264900D01*
X-12500D01*
Y262900D01*
X-11500D01*
X-11100Y263300D02*
Y262700D01*
X-9900D01*
Y263300D01*
X-9300D01*
Y264500D01*
X-9900D01*
Y265100D01*
X-11100D01*
Y264500D01*
X-11700D01*
Y263300D01*
X-11100D01*
X33500Y215200D02*
Y214200D01*
X35500D01*
Y215200D01*
X36500D01*
Y217200D01*
X35500D01*
Y218200D01*
X33500D01*
Y217200D01*
X32500D01*
Y215200D01*
X33500D01*
X33900Y215600D02*
Y215000D01*
X35100D01*
Y215600D01*
X35700D01*
Y216800D01*
X35100D01*
Y217400D01*
X33900D01*
Y216800D01*
X33300D01*
Y215600D01*
X33900D01*
X27900Y209700D02*
Y208700D01*
X29900D01*
Y209700D01*
X30900D01*
Y211700D01*
X29900D01*
Y212700D01*
X27900D01*
Y211700D01*
X26900D01*
Y209700D01*
X27900D01*
X28300Y210100D02*
Y209500D01*
X29500D01*
Y210100D01*
X30100D01*
Y211300D01*
X29500D01*
Y211900D01*
X28300D01*
Y211300D01*
X27700D01*
Y210100D01*
X28300D01*
X20800Y227900D02*
Y226900D01*
X22800D01*
Y227900D01*
X23800D01*
Y229900D01*
X22800D01*
Y230900D01*
X20800D01*
Y229900D01*
X19800D01*
Y227900D01*
X20800D01*
X21200Y228300D02*
Y227700D01*
X22400D01*
Y228300D01*
X23000D01*
Y229500D01*
X22400D01*
Y230100D01*
X21200D01*
Y229500D01*
X20600D01*
Y228300D01*
X21200D01*
X24800Y222400D02*
Y221400D01*
X26800D01*
Y222400D01*
X27800D01*
Y224400D01*
X26800D01*
Y225400D01*
X24800D01*
Y224400D01*
X23800D01*
Y222400D01*
X24800D01*
X25200Y222800D02*
Y222200D01*
X26400D01*
Y222800D01*
X27000D01*
Y224000D01*
X26400D01*
Y224600D01*
X25200D01*
Y224000D01*
X24600D01*
Y222800D01*
X25200D01*
X-3500Y231100D02*
Y230100D01*
X-1500D01*
Y231100D01*
X-500D01*
Y233100D01*
X-1500D01*
Y234100D01*
X-3500D01*
Y233100D01*
X-4500D01*
Y231100D01*
X-3500D01*
X-3100Y231500D02*
Y230900D01*
X-1900D01*
Y231500D01*
X-1300D01*
Y232700D01*
X-1900D01*
Y233300D01*
X-3100D01*
Y232700D01*
X-3700D01*
Y231500D01*
X-3100D01*
X-1891Y233780D02*
Y232780D01*
X109D01*
Y233780D01*
X1109D01*
Y235780D01*
X109D01*
Y236780D01*
X-1891D01*
Y235780D01*
X-2891D01*
Y233780D01*
X-1891D01*
X-1491Y234180D02*
Y233580D01*
X-291D01*
Y234180D01*
X309D01*
Y235380D01*
X-291D01*
Y235980D01*
X-1491D01*
Y235380D01*
X-2091D01*
Y234180D01*
X-1491D01*
X400Y231894D02*
Y230894D01*
X2400D01*
Y231894D01*
X3400D01*
Y233894D01*
X2400D01*
Y234894D01*
X400D01*
Y233894D01*
X-600D01*
Y231894D01*
X400D01*
X800Y232295D02*
Y231695D01*
X2000D01*
Y232295D01*
X2600D01*
Y233494D01*
X2000D01*
Y234095D01*
X800D01*
Y233494D01*
X200D01*
Y232295D01*
X800D01*
X-1300Y220800D02*
Y219800D01*
X700D01*
Y220800D01*
X1700D01*
Y222800D01*
X700D01*
Y223800D01*
X-1300D01*
Y222800D01*
X-2300D01*
Y220800D01*
X-1300D01*
X-900Y221200D02*
Y220600D01*
X300D01*
Y221200D01*
X900D01*
Y222400D01*
X300D01*
Y223000D01*
X-900D01*
Y222400D01*
X-1500D01*
Y221200D01*
X-900D01*
X-16000Y294700D02*
Y293700D01*
X-14000D01*
Y294700D01*
X-13000D01*
Y296700D01*
X-14000D01*
Y297700D01*
X-16000D01*
Y296700D01*
X-17000D01*
Y294700D01*
X-16000D01*
X-15600Y295100D02*
Y294500D01*
X-14400D01*
Y295100D01*
X-13800D01*
Y296300D01*
X-14400D01*
Y296900D01*
X-15600D01*
Y296300D01*
X-16200D01*
Y295100D01*
X-15600D01*
X-43300Y300000D02*
Y299000D01*
X-41300D01*
Y300000D01*
X-40300D01*
Y302000D01*
X-41300D01*
Y303000D01*
X-43300D01*
Y302000D01*
X-44300D01*
Y300000D01*
X-43300D01*
X-42900Y300400D02*
Y299800D01*
X-41700D01*
Y300400D01*
X-41100D01*
Y301600D01*
X-41700D01*
Y302200D01*
X-42900D01*
Y301600D01*
X-43500D01*
Y300400D01*
X-42900D01*
X-50200Y270300D02*
Y269300D01*
X-48200D01*
Y270300D01*
X-47200D01*
Y272300D01*
X-48200D01*
Y273300D01*
X-50200D01*
Y272300D01*
X-51200D01*
Y270300D01*
X-50200D01*
X-49800Y270700D02*
Y270100D01*
X-48600D01*
Y270700D01*
X-48000D01*
Y271900D01*
X-48600D01*
Y272500D01*
X-49800D01*
Y271900D01*
X-50400D01*
Y270700D01*
X-49800D01*
X17300Y227800D02*
Y226800D01*
X19300D01*
Y227800D01*
X20300D01*
Y229800D01*
X19300D01*
Y230800D01*
X17300D01*
Y229800D01*
X16300D01*
Y227800D01*
X17300D01*
X17700Y228200D02*
Y227600D01*
X18900D01*
Y228200D01*
X19500D01*
Y229400D01*
X18900D01*
Y230000D01*
X17700D01*
Y229400D01*
X17100D01*
Y228200D01*
X17700D01*
X25200Y167500D02*
Y166500D01*
X27200D01*
Y167500D01*
X28200D01*
Y169500D01*
X27200D01*
Y170500D01*
X25200D01*
Y169500D01*
X24200D01*
Y167500D01*
X25200D01*
X25600Y167900D02*
Y167300D01*
X26800D01*
Y167900D01*
X27400D01*
Y169100D01*
X26800D01*
Y169700D01*
X25600D01*
Y169100D01*
X25000D01*
Y167900D01*
X25600D01*
X-42100Y267300D02*
Y266300D01*
X-40100D01*
Y267300D01*
X-39100D01*
Y269300D01*
X-40100D01*
Y270300D01*
X-42100D01*
Y269300D01*
X-43100D01*
Y267300D01*
X-42100D01*
X-41700Y267700D02*
Y267100D01*
X-40500D01*
Y267700D01*
X-39900D01*
Y268900D01*
X-40500D01*
Y269500D01*
X-41700D01*
Y268900D01*
X-42300D01*
Y267700D01*
X-41700D01*
X-31899Y343777D02*
Y342777D01*
X-29899D01*
Y343777D01*
X-28899D01*
Y345777D01*
X-29899D01*
Y346777D01*
X-31899D01*
Y345777D01*
X-32899D01*
Y343777D01*
X-31899D01*
X-31499Y344177D02*
Y343577D01*
X-30299D01*
Y344177D01*
X-29699D01*
Y345377D01*
X-30299D01*
Y345977D01*
X-31499D01*
Y345377D01*
X-32099D01*
Y344177D01*
X-31499D01*
X-29100Y342400D02*
Y341400D01*
X-27100D01*
Y342400D01*
X-26100D01*
Y344400D01*
X-27100D01*
Y345400D01*
X-29100D01*
Y344400D01*
X-30100D01*
Y342400D01*
X-29100D01*
X-28700Y342800D02*
Y342200D01*
X-27500D01*
Y342800D01*
X-26900D01*
Y344000D01*
X-27500D01*
Y344600D01*
X-28700D01*
Y344000D01*
X-29300D01*
Y342800D01*
X-28700D01*
X-28300Y347694D02*
Y346694D01*
X-26300D01*
Y347694D01*
X-25300D01*
Y349694D01*
X-26300D01*
Y350694D01*
X-28300D01*
Y349694D01*
X-29300D01*
Y347694D01*
X-28300D01*
X-27900Y348095D02*
Y347495D01*
X-26700D01*
Y348095D01*
X-26100D01*
Y349294D01*
X-26700D01*
Y349894D01*
X-27900D01*
Y349294D01*
X-28500D01*
Y348095D01*
X-27900D01*
X-39100Y479600D02*
Y478600D01*
X-37100D01*
Y479600D01*
X-36100D01*
Y481600D01*
X-37100D01*
Y482600D01*
X-39100D01*
Y481600D01*
X-40100D01*
Y479600D01*
X-39100D01*
X-38700Y480000D02*
Y479400D01*
X-37500D01*
Y480000D01*
X-36900D01*
Y481200D01*
X-37500D01*
Y481800D01*
X-38700D01*
Y481200D01*
X-39300D01*
Y480000D01*
X-38700D01*
X3700Y553300D02*
Y552300D01*
X5700D01*
Y553300D01*
X6700D01*
Y555300D01*
X5700D01*
Y556300D01*
X3700D01*
Y555300D01*
X2700D01*
Y553300D01*
X3700D01*
X4100Y553700D02*
Y553100D01*
X5300D01*
Y553700D01*
X5900D01*
Y554900D01*
X5300D01*
Y555500D01*
X4100D01*
Y554900D01*
X3500D01*
Y553700D01*
X4100D01*
X-57000Y325400D02*
Y324400D01*
X-55000D01*
Y325400D01*
X-54000D01*
Y327400D01*
X-55000D01*
Y328400D01*
X-57000D01*
Y327400D01*
X-58000D01*
Y325400D01*
X-57000D01*
X-56600Y325800D02*
Y325200D01*
X-55400D01*
Y325800D01*
X-54800D01*
Y327000D01*
X-55400D01*
Y327600D01*
X-56600D01*
Y327000D01*
X-57200D01*
Y325800D01*
X-56600D01*
X-47100Y252300D02*
Y251300D01*
X-45100D01*
Y252300D01*
X-44100D01*
Y254300D01*
X-45100D01*
Y255300D01*
X-47100D01*
Y254300D01*
X-48100D01*
Y252300D01*
X-47100D01*
X-46700Y252700D02*
Y252100D01*
X-45500D01*
Y252700D01*
X-44900D01*
Y253900D01*
X-45500D01*
Y254500D01*
X-46700D01*
Y253900D01*
X-47300D01*
Y252700D01*
X-46700D01*
X-19600Y265400D02*
Y264400D01*
X-17600D01*
Y265400D01*
X-16600D01*
Y267400D01*
X-17600D01*
Y268400D01*
X-19600D01*
Y267400D01*
X-20600D01*
Y265400D01*
X-19600D01*
X-19200Y265800D02*
Y265200D01*
X-18000D01*
Y265800D01*
X-17400D01*
Y267000D01*
X-18000D01*
Y267600D01*
X-19200D01*
Y267000D01*
X-19800D01*
Y265800D01*
X-19200D01*
X-17100Y261700D02*
Y260700D01*
X-15100D01*
Y261700D01*
X-14100D01*
Y263700D01*
X-15100D01*
Y264700D01*
X-17100D01*
Y263700D01*
X-18100D01*
Y261700D01*
X-17100D01*
X-16700Y262100D02*
Y261500D01*
X-15500D01*
Y262100D01*
X-14900D01*
Y263300D01*
X-15500D01*
Y263900D01*
X-16700D01*
Y263300D01*
X-17300D01*
Y262100D01*
X-16700D01*
X-32500Y266200D02*
Y265200D01*
X-30500D01*
Y266200D01*
X-29500D01*
Y268200D01*
X-30500D01*
Y269200D01*
X-32500D01*
Y268200D01*
X-33500D01*
Y266200D01*
X-32500D01*
X-32100Y266600D02*
Y266000D01*
X-30900D01*
Y266600D01*
X-30300D01*
Y267800D01*
X-30900D01*
Y268400D01*
X-32100D01*
Y267800D01*
X-32700D01*
Y266600D01*
X-32100D01*
X-32200Y260600D02*
Y259600D01*
X-30200D01*
Y260600D01*
X-29200D01*
Y262600D01*
X-30200D01*
Y263600D01*
X-32200D01*
Y262600D01*
X-33200D01*
Y260600D01*
X-32200D01*
X-31800Y261000D02*
Y260400D01*
X-30600D01*
Y261000D01*
X-30000D01*
Y262200D01*
X-30600D01*
Y262800D01*
X-31800D01*
Y262200D01*
X-32400D01*
Y261000D01*
X-31800D01*
X-34700Y264100D02*
Y263100D01*
X-32700D01*
Y264100D01*
X-31700D01*
Y266100D01*
X-32700D01*
Y267100D01*
X-34700D01*
Y266100D01*
X-35700D01*
Y264100D01*
X-34700D01*
X-34300Y264500D02*
Y263900D01*
X-33100D01*
Y264500D01*
X-32500D01*
Y265700D01*
X-33100D01*
Y266300D01*
X-34300D01*
Y265700D01*
X-34900D01*
Y264500D01*
X-34300D01*
X-23800Y220495D02*
Y219495D01*
X-21800D01*
Y220495D01*
X-20800D01*
Y222495D01*
X-21800D01*
Y223495D01*
X-23800D01*
Y222495D01*
X-24800D01*
Y220495D01*
X-23800D01*
X-23400Y220895D02*
Y220294D01*
X-22200D01*
Y220895D01*
X-21600D01*
Y222094D01*
X-22200D01*
Y222694D01*
X-23400D01*
Y222094D01*
X-24000D01*
Y220895D01*
X-23400D01*
X-12300Y232500D02*
Y231500D01*
X-10300D01*
Y232500D01*
X-9300D01*
Y234500D01*
X-10300D01*
Y235500D01*
X-12300D01*
Y234500D01*
X-13300D01*
Y232500D01*
X-12300D01*
X-11900Y232900D02*
Y232300D01*
X-10700D01*
Y232900D01*
X-10100D01*
Y234100D01*
X-10700D01*
Y234700D01*
X-11900D01*
Y234100D01*
X-12500D01*
Y232900D01*
X-11900D01*
X-10000Y234500D02*
Y233500D01*
X-8000D01*
Y234500D01*
X-7000D01*
Y236500D01*
X-8000D01*
Y237500D01*
X-10000D01*
Y236500D01*
X-11000D01*
Y234500D01*
X-10000D01*
X-9600Y234900D02*
Y234300D01*
X-8400D01*
Y234900D01*
X-7800D01*
Y236100D01*
X-8400D01*
Y236700D01*
X-9600D01*
Y236100D01*
X-10200D01*
Y234900D01*
X-9600D01*
X-8200Y221900D02*
Y220900D01*
X-6200D01*
Y221900D01*
X-5200D01*
Y223900D01*
X-6200D01*
Y224900D01*
X-8200D01*
Y223900D01*
X-9200D01*
Y221900D01*
X-8200D01*
X-7800Y222300D02*
Y221700D01*
X-6600D01*
Y222300D01*
X-6000D01*
Y223500D01*
X-6600D01*
Y224100D01*
X-7800D01*
Y223500D01*
X-8400D01*
Y222300D01*
X-7800D01*
X-6500Y224400D02*
Y223400D01*
X-4500D01*
Y224400D01*
X-3500D01*
Y226400D01*
X-4500D01*
Y227400D01*
X-6500D01*
Y226400D01*
X-7500D01*
Y224400D01*
X-6500D01*
X-6100Y224800D02*
Y224200D01*
X-4900D01*
Y224800D01*
X-4300D01*
Y226000D01*
X-4900D01*
Y226600D01*
X-6100D01*
Y226000D01*
X-6700D01*
Y224800D01*
X-6100D01*
X-6900Y218794D02*
Y217794D01*
X-4900D01*
Y218794D01*
X-3900D01*
Y220795D01*
X-4900D01*
Y221795D01*
X-6900D01*
Y220795D01*
X-7900D01*
Y218794D01*
X-6900D01*
X-6500Y219195D02*
Y218595D01*
X-5300D01*
Y219195D01*
X-4700D01*
Y220394D01*
X-5300D01*
Y220994D01*
X-6500D01*
Y220394D01*
X-7100D01*
Y219195D01*
X-6500D01*
X16700Y164800D02*
Y163800D01*
X18700D01*
Y164800D01*
X19700D01*
Y166800D01*
X18700D01*
Y167800D01*
X16700D01*
Y166800D01*
X15700D01*
Y164800D01*
X16700D01*
X17100Y165200D02*
Y164600D01*
X18300D01*
Y165200D01*
X18900D01*
Y166400D01*
X18300D01*
Y167000D01*
X17100D01*
Y166400D01*
X16500D01*
Y165200D01*
X17100D01*
X19800Y167700D02*
Y166700D01*
X21800D01*
Y167700D01*
X22800D01*
Y169700D01*
X21800D01*
Y170700D01*
X19800D01*
Y169700D01*
X18800D01*
Y167700D01*
X19800D01*
X20200Y168100D02*
Y167500D01*
X21400D01*
Y168100D01*
X22000D01*
Y169300D01*
X21400D01*
Y169900D01*
X20200D01*
Y169300D01*
X19600D01*
Y168100D01*
X20200D01*
X14000Y167994D02*
Y166995D01*
X16000D01*
Y167994D01*
X17000D01*
Y169994D01*
X16000D01*
Y170994D01*
X14000D01*
Y169994D01*
X13000D01*
Y167994D01*
X14000D01*
X14400Y168394D02*
Y167795D01*
X15600D01*
Y168394D01*
X16200D01*
Y169595D01*
X15600D01*
Y170194D01*
X14400D01*
Y169595D01*
X13800D01*
Y168394D01*
X14400D01*
X10100Y258600D02*
Y257600D01*
X12100D01*
Y258600D01*
X13100D01*
Y260600D01*
X12100D01*
Y261600D01*
X10100D01*
Y260600D01*
X9100D01*
Y258600D01*
X10100D01*
X10500Y259000D02*
Y258400D01*
X11700D01*
Y259000D01*
X12300D01*
Y260200D01*
X11700D01*
Y260800D01*
X10500D01*
Y260200D01*
X9900D01*
Y259000D01*
X10500D01*
X-4900Y260000D02*
Y259000D01*
X-2900D01*
Y260000D01*
X-1900D01*
Y262000D01*
X-2900D01*
Y263000D01*
X-4900D01*
Y262000D01*
X-5900D01*
Y260000D01*
X-4900D01*
X-4500Y260400D02*
Y259800D01*
X-3300D01*
Y260400D01*
X-2700D01*
Y261600D01*
X-3300D01*
Y262200D01*
X-4500D01*
Y261600D01*
X-5100D01*
Y260400D01*
X-4500D01*
X13800Y247900D02*
Y246900D01*
X15800D01*
Y247900D01*
X16800D01*
Y249900D01*
X15800D01*
Y250900D01*
X13800D01*
Y249900D01*
X12800D01*
Y247900D01*
X13800D01*
X14200Y248300D02*
Y247700D01*
X15400D01*
Y248300D01*
X16000D01*
Y249500D01*
X15400D01*
Y250100D01*
X14200D01*
Y249500D01*
X13600D01*
Y248300D01*
X14200D01*
X10100Y250900D02*
Y249900D01*
X12100D01*
Y250900D01*
X13100D01*
Y252900D01*
X12100D01*
Y253900D01*
X10100D01*
Y252900D01*
X9100D01*
Y250900D01*
X10100D01*
X10500Y251300D02*
Y250700D01*
X11700D01*
Y251300D01*
X12300D01*
Y252500D01*
X11700D01*
Y253100D01*
X10500D01*
Y252500D01*
X9900D01*
Y251300D01*
X10500D01*
X11000Y242400D02*
Y241400D01*
X13000D01*
Y242400D01*
X14000D01*
Y244400D01*
X13000D01*
Y245400D01*
X11000D01*
Y244400D01*
X10000D01*
Y242400D01*
X11000D01*
X11400Y242800D02*
Y242200D01*
X12600D01*
Y242800D01*
X13200D01*
Y244000D01*
X12600D01*
Y244600D01*
X11400D01*
Y244000D01*
X10800D01*
Y242800D01*
X11400D01*
X14100Y242500D02*
Y241500D01*
X16100D01*
Y242500D01*
X17100D01*
Y244500D01*
X16100D01*
Y245500D01*
X14100D01*
Y244500D01*
X13100D01*
Y242500D01*
X14100D01*
X14500Y242900D02*
Y242300D01*
X15700D01*
Y242900D01*
X16300D01*
Y244100D01*
X15700D01*
Y244700D01*
X14500D01*
Y244100D01*
X13900D01*
Y242900D01*
X14500D01*
X6600Y247694D02*
Y246694D01*
X8600D01*
Y247694D01*
X9600D01*
Y249694D01*
X8600D01*
Y250694D01*
X6600D01*
Y249694D01*
X5600D01*
Y247694D01*
X6600D01*
X7000Y248095D02*
Y247495D01*
X8200D01*
Y248095D01*
X8800D01*
Y249294D01*
X8200D01*
Y249894D01*
X7000D01*
Y249294D01*
X6400D01*
Y248095D01*
X7000D01*
X-52400Y570600D02*
Y569600D01*
X-50400D01*
Y570600D01*
X-49400D01*
Y572600D01*
X-50400D01*
Y573600D01*
X-52400D01*
Y572600D01*
X-53400D01*
Y570600D01*
X-52400D01*
X-52000Y571000D02*
Y570400D01*
X-50800D01*
Y571000D01*
X-50200D01*
Y572200D01*
X-50800D01*
Y572800D01*
X-52000D01*
Y572200D01*
X-52600D01*
Y571000D01*
X-52000D01*
X-49200Y572300D02*
Y571300D01*
X-47200D01*
Y572300D01*
X-46200D01*
Y574300D01*
X-47200D01*
Y575300D01*
X-49200D01*
Y574300D01*
X-50200D01*
Y572300D01*
X-49200D01*
X-48800Y572700D02*
Y572100D01*
X-47600D01*
Y572700D01*
X-47000D01*
Y573900D01*
X-47600D01*
Y574500D01*
X-48800D01*
Y573900D01*
X-49400D01*
Y572700D01*
X-48800D01*
X30900Y231294D02*
Y230294D01*
X32900D01*
Y231294D01*
X33900D01*
Y233295D01*
X32900D01*
Y234295D01*
X30900D01*
Y233295D01*
X29900D01*
Y231294D01*
X30900D01*
X31300Y231695D02*
Y231095D01*
X32500D01*
Y231695D01*
X33100D01*
Y232894D01*
X32500D01*
Y233494D01*
X31300D01*
Y232894D01*
X30700D01*
Y231695D01*
X31300D01*
X-4100Y419000D02*
Y418000D01*
X-2100D01*
Y419000D01*
X-1100D01*
Y421000D01*
X-2100D01*
Y422000D01*
X-4100D01*
Y421000D01*
X-5100D01*
Y419000D01*
X-4100D01*
X-3700Y419400D02*
Y418800D01*
X-2500D01*
Y419400D01*
X-1900D01*
Y420600D01*
X-2500D01*
Y421200D01*
X-3700D01*
Y420600D01*
X-4300D01*
Y419400D01*
X-3700D01*
X-20600Y284600D02*
Y283600D01*
X-18600D01*
Y284600D01*
X-17600D01*
Y286600D01*
X-18600D01*
Y287600D01*
X-20600D01*
Y286600D01*
X-21600D01*
Y284600D01*
X-20600D01*
X-20200Y285000D02*
Y284400D01*
X-19000D01*
Y285000D01*
X-18400D01*
Y286200D01*
X-19000D01*
Y286800D01*
X-20200D01*
Y286200D01*
X-20800D01*
Y285000D01*
X-20200D01*
X-23800Y284600D02*
Y283600D01*
X-21800D01*
Y284600D01*
X-20800D01*
Y286600D01*
X-21800D01*
Y287600D01*
X-23800D01*
Y286600D01*
X-24800D01*
Y284600D01*
X-23800D01*
X-23400Y285000D02*
Y284400D01*
X-22200D01*
Y285000D01*
X-21600D01*
Y286200D01*
X-22200D01*
Y286800D01*
X-23400D01*
Y286200D01*
X-24000D01*
Y285000D01*
X-23400D01*
X-27000Y344800D02*
Y343800D01*
X-25000D01*
Y344800D01*
X-24000D01*
Y346800D01*
X-25000D01*
Y347800D01*
X-27000D01*
Y346800D01*
X-28000D01*
Y344800D01*
X-27000D01*
X-26600Y345200D02*
Y344600D01*
X-25400D01*
Y345200D01*
X-24800D01*
Y346400D01*
X-25400D01*
Y347000D01*
X-26600D01*
Y346400D01*
X-27200D01*
Y345200D01*
X-26600D01*
X-19600Y318195D02*
X-18600D01*
X-17600Y319195D01*
X-16600Y318195D01*
X-15600D01*
Y319195D01*
X-16600Y320195D01*
X-15600Y321195D01*
Y322195D01*
X-16600D01*
X-17600Y321195D01*
X-18600Y322195D01*
X-19600D01*
Y321195D01*
X-18600Y320195D01*
X-19600Y319195D01*
Y318195D01*
X-18800Y318995D02*
X-18200D01*
X-17600Y319595D01*
X-17000Y318995D01*
X-16400D01*
Y319595D01*
X-17000Y320195D01*
X-16400Y320795D01*
Y321395D01*
X-17000D01*
X-17600Y320795D01*
X-18200Y321395D01*
X-18800D01*
Y320795D01*
X-18200Y320195D01*
X-18800Y319595D01*
Y318995D01*
X52300Y390400D02*
X53300D01*
X54300Y391400D01*
X55300Y390400D01*
X56300D01*
Y391400D01*
X55300Y392400D01*
X56300Y393400D01*
Y394400D01*
X55300D01*
X54300Y393400D01*
X53300Y394400D01*
X52300D01*
Y393400D01*
X53300Y392400D01*
X52300Y391400D01*
Y390400D01*
X53100Y391200D02*
X53700D01*
X54300Y391800D01*
X54900Y391200D01*
X55500D01*
Y391800D01*
X54900Y392400D01*
X55500Y393000D01*
Y393600D01*
X54900D01*
X54300Y393000D01*
X53700Y393600D01*
X53100D01*
Y393000D01*
X53700Y392400D01*
X53100Y391800D01*
Y391200D01*
X47600Y390900D02*
Y389900D01*
X49600D01*
Y390900D01*
X50600D01*
Y392900D01*
X49600D01*
Y393900D01*
X47600D01*
Y392900D01*
X46600D01*
Y390900D01*
X47600D01*
X48000Y391300D02*
Y390700D01*
X49200D01*
Y391300D01*
X49800D01*
Y392500D01*
X49200D01*
Y393100D01*
X48000D01*
Y392500D01*
X47400D01*
Y391300D01*
X48000D01*
X50700Y327300D02*
X51700D01*
X52700Y328300D01*
X53700Y327300D01*
X54700D01*
Y328300D01*
X53700Y329300D01*
X54700Y330300D01*
Y331300D01*
X53700D01*
X52700Y330300D01*
X51700Y331300D01*
X50700D01*
Y330300D01*
X51700Y329300D01*
X50700Y328300D01*
Y327300D01*
X51500Y328100D02*
X52100D01*
X52700Y328700D01*
X53300Y328100D01*
X53900D01*
Y328700D01*
X53300Y329300D01*
X53900Y329900D01*
Y330500D01*
X53300D01*
X52700Y329900D01*
X52100Y330500D01*
X51500D01*
Y329900D01*
X52100Y329300D01*
X51500Y328700D01*
Y328100D01*
X12100Y311800D02*
Y310800D01*
X14100D01*
Y311800D01*
X15100D01*
Y313800D01*
X14100D01*
Y314800D01*
X12100D01*
Y313800D01*
X11100D01*
Y311800D01*
X12100D01*
X12500Y312200D02*
Y311600D01*
X13700D01*
Y312200D01*
X14300D01*
Y313400D01*
X13700D01*
Y314000D01*
X12500D01*
Y313400D01*
X11900D01*
Y312200D01*
X12500D01*
X7100Y423400D02*
Y422400D01*
X9100D01*
Y423400D01*
X10100D01*
Y425400D01*
X9100D01*
Y426400D01*
X7100D01*
Y425400D01*
X6100D01*
Y423400D01*
X7100D01*
X7500Y423800D02*
Y423200D01*
X8700D01*
Y423800D01*
X9300D01*
Y425000D01*
X8700D01*
Y425600D01*
X7500D01*
Y425000D01*
X6900D01*
Y423800D01*
X7500D01*
X12000Y399700D02*
Y398700D01*
X14000D01*
Y399700D01*
X15000D01*
Y401700D01*
X14000D01*
Y402700D01*
X12000D01*
Y401700D01*
X11000D01*
Y399700D01*
X12000D01*
X12400Y400100D02*
Y399500D01*
X13600D01*
Y400100D01*
X14200D01*
Y401300D01*
X13600D01*
Y401900D01*
X12400D01*
Y401300D01*
X11800D01*
Y400100D01*
X12400D01*
X-8600Y420300D02*
Y419300D01*
X-6600D01*
Y420300D01*
X-5600D01*
Y422300D01*
X-6600D01*
Y423300D01*
X-8600D01*
Y422300D01*
X-9600D01*
Y420300D01*
X-8600D01*
X-8200Y420700D02*
Y420100D01*
X-7000D01*
Y420700D01*
X-6400D01*
Y421900D01*
X-7000D01*
Y422500D01*
X-8200D01*
Y421900D01*
X-8800D01*
Y420700D01*
X-8200D01*
X36200Y400200D02*
Y399200D01*
X38200D01*
Y400200D01*
X39200D01*
Y402200D01*
X38200D01*
Y403200D01*
X36200D01*
Y402200D01*
X35200D01*
Y400200D01*
X36200D01*
X36600Y400600D02*
Y400000D01*
X37800D01*
Y400600D01*
X38400D01*
Y401800D01*
X37800D01*
Y402400D01*
X36600D01*
Y401800D01*
X36000D01*
Y400600D01*
X36600D01*
X29400Y448500D02*
Y447500D01*
X31400D01*
Y448500D01*
X32400D01*
Y450500D01*
X31400D01*
Y451500D01*
X29400D01*
Y450500D01*
X28400D01*
Y448500D01*
X29400D01*
X29800Y448900D02*
Y448300D01*
X31000D01*
Y448900D01*
X31600D01*
Y450100D01*
X31000D01*
Y450700D01*
X29800D01*
Y450100D01*
X29200D01*
Y448900D01*
X29800D01*
X-60900Y579400D02*
Y578400D01*
X-58900D01*
Y579400D01*
X-57900D01*
Y581400D01*
X-58900D01*
Y582400D01*
X-60900D01*
Y581400D01*
X-61900D01*
Y579400D01*
X-60900D01*
X-60500Y579800D02*
Y579200D01*
X-59300D01*
Y579800D01*
X-58700D01*
Y581000D01*
X-59300D01*
Y581600D01*
X-60500D01*
Y581000D01*
X-61100D01*
Y579800D01*
X-60500D01*
X-6100Y592200D02*
Y591200D01*
X-4100D01*
Y592200D01*
X-3100D01*
Y594200D01*
X-4100D01*
Y595200D01*
X-6100D01*
Y594200D01*
X-7100D01*
Y592200D01*
X-6100D01*
X-5700Y592600D02*
Y592000D01*
X-4500D01*
Y592600D01*
X-3900D01*
Y593800D01*
X-4500D01*
Y594400D01*
X-5700D01*
Y593800D01*
X-6300D01*
Y592600D01*
X-5700D01*
X8827Y476346D02*
X9827D01*
X10827Y477347D01*
X11827Y476346D01*
X12827D01*
Y477347D01*
X11827Y478346D01*
X12827Y479347D01*
Y480346D01*
X11827D01*
X10827Y479347D01*
X9827Y480346D01*
X8827D01*
Y479347D01*
X9827Y478346D01*
X8827Y477347D01*
Y476346D01*
X9627Y477146D02*
X10227D01*
X10827Y477746D01*
X11427Y477146D01*
X12027D01*
Y477746D01*
X11427Y478346D01*
X12027Y478946D01*
Y479546D01*
X11427D01*
X10827Y478946D01*
X10227Y479546D01*
X9627D01*
Y478946D01*
X10227Y478346D01*
X9627Y477746D01*
Y477146D01*
X-12827Y476346D02*
X-11827D01*
X-10827Y477347D01*
X-9827Y476346D01*
X-8827D01*
Y477347D01*
X-9827Y478346D01*
X-8827Y479347D01*
Y480346D01*
X-9827D01*
X-10827Y479347D01*
X-11827Y480346D01*
X-12827D01*
Y479347D01*
X-11827Y478346D01*
X-12827Y477347D01*
Y476346D01*
X-12027Y477146D02*
X-11427D01*
X-10827Y477746D01*
X-10227Y477146D01*
X-9627D01*
Y477746D01*
X-10227Y478346D01*
X-9627Y478946D01*
Y479546D01*
X-10227D01*
X-10827Y478946D01*
X-11427Y479546D01*
X-12027D01*
Y478946D01*
X-11427Y478346D01*
X-12027Y477746D01*
Y477146D01*
X-2000Y475362D02*
X-1000D01*
X0Y476362D01*
X1000Y475362D01*
X2000D01*
Y476362D01*
X1000Y477362D01*
X2000Y478362D01*
Y479362D01*
X1000D01*
X0Y478362D01*
X-1000Y479362D01*
X-2000D01*
Y478362D01*
X-1000Y477362D01*
X-2000Y476362D01*
Y475362D01*
X-1200Y476162D02*
X-600D01*
X0Y476762D01*
X600Y476162D01*
X1200D01*
Y476762D01*
X600Y477362D01*
X1200Y477962D01*
Y478562D01*
X600D01*
X0Y477962D01*
X-600Y478562D01*
X-1200D01*
Y477962D01*
X-600Y477362D01*
X-1200Y476762D01*
Y476162D01*
X-2000Y490126D02*
X-1000D01*
X0Y491126D01*
X1000Y490126D01*
X2000D01*
Y491126D01*
X1000Y492126D01*
X2000Y493126D01*
Y494126D01*
X1000D01*
X0Y493126D01*
X-1000Y494126D01*
X-2000D01*
Y493126D01*
X-1000Y492126D01*
X-2000Y491126D01*
Y490126D01*
X-1200Y490926D02*
X-600D01*
X0Y491526D01*
X600Y490926D01*
X1200D01*
Y491526D01*
X600Y492126D01*
X1200Y492726D01*
Y493326D01*
X600D01*
X0Y492726D01*
X-600Y493326D01*
X-1200D01*
Y492726D01*
X-600Y492126D01*
X-1200Y491526D01*
Y490926D01*
X8827Y489142D02*
X9827D01*
X10827Y490142D01*
X11827Y489142D01*
X12827D01*
Y490142D01*
X11827Y491142D01*
X12827Y492142D01*
Y493142D01*
X11827D01*
X10827Y492142D01*
X9827Y493142D01*
X8827D01*
Y492142D01*
X9827Y491142D01*
X8827Y490142D01*
Y489142D01*
X9627Y489942D02*
X10227D01*
X10827Y490542D01*
X11427Y489942D01*
X12027D01*
Y490542D01*
X11427Y491142D01*
X12027Y491742D01*
Y492342D01*
X11427D01*
X10827Y491742D01*
X10227Y492342D01*
X9627D01*
Y491742D01*
X10227Y491142D01*
X9627Y490542D01*
Y489942D01*
X-12827Y489142D02*
X-11827D01*
X-10827Y490142D01*
X-9827Y489142D01*
X-8827D01*
Y490142D01*
X-9827Y491142D01*
X-8827Y492142D01*
Y493142D01*
X-9827D01*
X-10827Y492142D01*
X-11827Y493142D01*
X-12827D01*
Y492142D01*
X-11827Y491142D01*
X-12827Y490142D01*
Y489142D01*
X-12027Y489942D02*
X-11427D01*
X-10827Y490542D01*
X-10227Y489942D01*
X-9627D01*
Y490542D01*
X-10227Y491142D01*
X-9627Y491742D01*
Y492342D01*
X-10227D01*
X-10827Y491742D01*
X-11427Y492342D01*
X-12027D01*
Y491742D01*
X-11427Y491142D01*
X-12027Y490542D01*
Y489942D01*
X29900Y492100D02*
X30900D01*
X31900Y493100D01*
X32900Y492100D01*
X33900D01*
Y493100D01*
X32900Y494100D01*
X33900Y495100D01*
Y496100D01*
X32900D01*
X31900Y495100D01*
X30900Y496100D01*
X29900D01*
Y495100D01*
X30900Y494100D01*
X29900Y493100D01*
Y492100D01*
X30700Y492900D02*
X31300D01*
X31900Y493500D01*
X32500Y492900D01*
X33100D01*
Y493500D01*
X32500Y494100D01*
X33100Y494700D01*
Y495300D01*
X32500D01*
X31900Y494700D01*
X31300Y495300D01*
X30700D01*
Y494700D01*
X31300Y494100D01*
X30700Y493500D01*
Y492900D01*
X22200Y586900D02*
X23200D01*
X24200Y587900D01*
X25200Y586900D01*
X26200D01*
Y587900D01*
X25200Y588900D01*
X26200Y589900D01*
Y590900D01*
X25200D01*
X24200Y589900D01*
X23200Y590900D01*
X22200D01*
Y589900D01*
X23200Y588900D01*
X22200Y587900D01*
Y586900D01*
X23000Y587700D02*
X23600D01*
X24200Y588300D01*
X24800Y587700D01*
X25400D01*
Y588300D01*
X24800Y588900D01*
X25400Y589500D01*
Y590100D01*
X24800D01*
X24200Y589500D01*
X23600Y590100D01*
X23000D01*
Y589500D01*
X23600Y588900D01*
X23000Y588300D01*
Y587700D01*
X-1000Y46894D02*
Y45895D01*
X1000D01*
Y46894D01*
X2000D01*
Y48895D01*
X1000D01*
Y49894D01*
X-1000D01*
Y48895D01*
X-2000D01*
Y46894D01*
X-1000D01*
X-600Y47295D02*
Y46694D01*
X600D01*
Y47295D01*
X1200D01*
Y48494D01*
X600D01*
Y49095D01*
X-600D01*
Y48494D01*
X-1200D01*
Y47295D01*
X-600D01*
X20100Y213794D02*
X21100D01*
X22100Y214794D01*
X23100Y213794D01*
X24100D01*
Y214794D01*
X23100Y215794D01*
X24100Y216794D01*
Y217794D01*
X23100D01*
X22100Y216794D01*
X21100Y217794D01*
X20100D01*
Y216794D01*
X21100Y215794D01*
X20100Y214794D01*
Y213794D01*
X20900Y214595D02*
X21500D01*
X22100Y215195D01*
X22700Y214595D01*
X23300D01*
Y215195D01*
X22700Y215794D01*
X23300Y216394D01*
Y216995D01*
X22700D01*
X22100Y216394D01*
X21500Y216995D01*
X20900D01*
Y216394D01*
X21500Y215794D01*
X20900Y215195D01*
Y214595D01*
X-20300Y188495D02*
Y187495D01*
X-18300D01*
Y188495D01*
X-17300D01*
Y190495D01*
X-18300D01*
Y191495D01*
X-20300D01*
Y190495D01*
X-21300D01*
Y188495D01*
X-20300D01*
X-19900Y188894D02*
Y188294D01*
X-18700D01*
Y188894D01*
X-18100D01*
Y190094D01*
X-18700D01*
Y190694D01*
X-19900D01*
Y190094D01*
X-20500D01*
Y188894D01*
X-19900D01*
X-60000Y368394D02*
Y367394D01*
X-58000D01*
Y368394D01*
X-57000D01*
Y370394D01*
X-58000D01*
Y371394D01*
X-60000D01*
Y370394D01*
X-61000D01*
Y368394D01*
X-60000D01*
X-59600Y368794D02*
Y368195D01*
X-58400D01*
Y368794D01*
X-57800D01*
Y369994D01*
X-58400D01*
Y370595D01*
X-59600D01*
Y369994D01*
X-60200D01*
Y368794D01*
X-59600D01*
X13100Y427095D02*
Y426094D01*
X15100D01*
Y427095D01*
X16100D01*
Y429095D01*
X15100D01*
Y430094D01*
X13100D01*
Y429095D01*
X12100D01*
Y427095D01*
X13100D01*
X13500Y427494D02*
Y426895D01*
X14700D01*
Y427494D01*
X15300D01*
Y428694D01*
X14700D01*
Y429294D01*
X13500D01*
Y428694D01*
X12900D01*
Y427494D01*
X13500D01*
X3000Y431595D02*
Y430594D01*
X5000D01*
Y431595D01*
X6000D01*
Y433595D01*
X5000D01*
Y434594D01*
X3000D01*
Y433595D01*
X2000D01*
Y431595D01*
X3000D01*
X3400Y431994D02*
Y431394D01*
X4600D01*
Y431994D01*
X5200D01*
Y433194D01*
X4600D01*
Y433794D01*
X3400D01*
Y433194D01*
X2800D01*
Y431994D01*
X3400D01*
X-23600Y432995D02*
Y431994D01*
X-21600D01*
Y432995D01*
X-20600D01*
Y434995D01*
X-21600D01*
Y435994D01*
X-23600D01*
Y434995D01*
X-24600D01*
Y432995D01*
X-23600D01*
X-23200Y433394D02*
Y432795D01*
X-22000D01*
Y433394D01*
X-21400D01*
Y434594D01*
X-22000D01*
Y435194D01*
X-23200D01*
Y434594D01*
X-23800D01*
Y433394D01*
X-23200D01*
X16000Y466194D02*
Y465195D01*
X18000D01*
Y466194D01*
X19000D01*
Y468194D01*
X18000D01*
Y469195D01*
X16000D01*
Y468194D01*
X15000D01*
Y466194D01*
X16000D01*
X16400Y466595D02*
Y465995D01*
X17600D01*
Y466595D01*
X18200D01*
Y467795D01*
X17600D01*
Y468395D01*
X16400D01*
Y467795D01*
X15800D01*
Y466595D01*
X16400D01*
X36300Y460194D02*
Y459195D01*
X38300D01*
Y460194D01*
X39300D01*
Y462194D01*
X38300D01*
Y463195D01*
X36300D01*
Y462194D01*
X35300D01*
Y460194D01*
X36300D01*
X36700Y460595D02*
Y459995D01*
X37900D01*
Y460595D01*
X38500D01*
Y461795D01*
X37900D01*
Y462395D01*
X36700D01*
Y461795D01*
X36100D01*
Y460595D01*
X36700D01*
X42700Y400695D02*
Y399694D01*
X44700D01*
Y400695D01*
X45700D01*
Y402695D01*
X44700D01*
Y403694D01*
X42700D01*
Y402695D01*
X41700D01*
Y400695D01*
X42700D01*
X43100Y401094D02*
Y400494D01*
X44300D01*
Y401094D01*
X44900D01*
Y402294D01*
X44300D01*
Y402894D01*
X43100D01*
Y402294D01*
X42500D01*
Y401094D01*
X43100D01*
X-19000Y130994D02*
Y129994D01*
X-17000D01*
Y130994D01*
X-16000D01*
Y132994D01*
X-17000D01*
Y133994D01*
X-19000D01*
Y132994D01*
X-20000D01*
Y130994D01*
X-19000D01*
X-18600Y131395D02*
Y130795D01*
X-17400D01*
Y131395D01*
X-16800D01*
Y132595D01*
X-17400D01*
Y133194D01*
X-18600D01*
Y132595D01*
X-19200D01*
Y131395D01*
X-18600D01*
X-13500Y345394D02*
Y344394D01*
X-11500D01*
Y345394D01*
X-10500D01*
Y347394D01*
X-11500D01*
Y348394D01*
X-13500D01*
Y347394D01*
X-14500D01*
Y345394D01*
X-13500D01*
X-13100Y345795D02*
Y345195D01*
X-11900D01*
Y345795D01*
X-11300D01*
Y346994D01*
X-11900D01*
Y347594D01*
X-13100D01*
Y346994D01*
X-13700D01*
Y345795D01*
X-13100D01*
X-15900Y115894D02*
Y114894D01*
X-13900D01*
Y115894D01*
X-12900D01*
Y117894D01*
X-13900D01*
Y118895D01*
X-15900D01*
Y117894D01*
X-16900D01*
Y115894D01*
X-15900D01*
X-15500Y116295D02*
Y115694D01*
X-14300D01*
Y116295D01*
X-13700D01*
Y117494D01*
X-14300D01*
Y118095D01*
X-15500D01*
Y117494D01*
X-16100D01*
Y116295D01*
X-15500D01*
X-5300Y97694D02*
Y96694D01*
X-3300D01*
Y97694D01*
X-2300D01*
Y99695D01*
X-3300D01*
Y100695D01*
X-5300D01*
Y99695D01*
X-6300D01*
Y97694D01*
X-5300D01*
X-4900Y98094D02*
Y97495D01*
X-3700D01*
Y98094D01*
X-3100D01*
Y99295D01*
X-3700D01*
Y99894D01*
X-4900D01*
Y99295D01*
X-5500D01*
Y98094D01*
X-4900D01*
X3300Y97694D02*
Y96694D01*
X5300D01*
Y97694D01*
X6300D01*
Y99695D01*
X5300D01*
Y100695D01*
X3300D01*
Y99695D01*
X2300D01*
Y97694D01*
X3300D01*
X3700Y98094D02*
Y97495D01*
X4900D01*
Y98094D01*
X5500D01*
Y99295D01*
X4900D01*
Y99894D01*
X3700D01*
Y99295D01*
X3100D01*
Y98094D01*
X3700D01*
X10800Y115400D02*
Y114400D01*
X12800D01*
Y115400D01*
X13800D01*
Y117400D01*
X12800D01*
Y118400D01*
X10800D01*
Y117400D01*
X9800D01*
Y115400D01*
X10800D01*
X11200Y115800D02*
Y115200D01*
X12400D01*
Y115800D01*
X13000D01*
Y117000D01*
X12400D01*
Y117600D01*
X11200D01*
Y117000D01*
X10600D01*
Y115800D01*
X11200D01*
X-20300Y139795D02*
Y138795D01*
X-18300D01*
Y139795D01*
X-17300D01*
Y141795D01*
X-18300D01*
Y142795D01*
X-20300D01*
Y141795D01*
X-21300D01*
Y139795D01*
X-20300D01*
X-19900Y140194D02*
Y139594D01*
X-18700D01*
Y140194D01*
X-18100D01*
Y141394D01*
X-18700D01*
Y141995D01*
X-19900D01*
Y141394D01*
X-20500D01*
Y140194D01*
X-19900D01*
X59000Y584094D02*
Y583095D01*
X61000D01*
Y584094D01*
X62000D01*
Y586095D01*
X61000D01*
Y587094D01*
X59000D01*
Y586095D01*
X58000D01*
Y584094D01*
X59000D01*
X59400Y584494D02*
Y583894D01*
X60600D01*
Y584494D01*
X61200D01*
Y585695D01*
X60600D01*
Y586295D01*
X59400D01*
Y585695D01*
X58800D01*
Y584494D01*
X59400D01*
X-37000Y613095D02*
Y612094D01*
X-35000D01*
Y613095D01*
X-34000D01*
Y615095D01*
X-35000D01*
Y616094D01*
X-37000D01*
Y615095D01*
X-38000D01*
Y613095D01*
X-37000D01*
X-36600Y613494D02*
Y612894D01*
X-35400D01*
Y613494D01*
X-34800D01*
Y614694D01*
X-35400D01*
Y615295D01*
X-36600D01*
Y614694D01*
X-37200D01*
Y613494D01*
X-36600D01*
X-49000Y613095D02*
Y612094D01*
X-47000D01*
Y613095D01*
X-46000D01*
Y615095D01*
X-47000D01*
Y616094D01*
X-49000D01*
Y615095D01*
X-50000D01*
Y613095D01*
X-49000D01*
X-48600Y613494D02*
Y612894D01*
X-47400D01*
Y613494D01*
X-46800D01*
Y614694D01*
X-47400D01*
Y615295D01*
X-48600D01*
Y614694D01*
X-49200D01*
Y613494D01*
X-48600D01*
X47000Y613095D02*
Y612094D01*
X49000D01*
Y613095D01*
X50000D01*
Y615095D01*
X49000D01*
Y616094D01*
X47000D01*
Y615095D01*
X46000D01*
Y613095D01*
X47000D01*
X47400Y613494D02*
Y612894D01*
X48600D01*
Y613494D01*
X49200D01*
Y614694D01*
X48600D01*
Y615295D01*
X47400D01*
Y614694D01*
X46800D01*
Y613494D01*
X47400D01*
X35000Y613095D02*
Y612094D01*
X37000D01*
Y613095D01*
X38000D01*
Y615095D01*
X37000D01*
Y616094D01*
X35000D01*
Y615095D01*
X34000D01*
Y613095D01*
X35000D01*
X35400Y613494D02*
Y612894D01*
X36600D01*
Y613494D01*
X37200D01*
Y614694D01*
X36600D01*
Y615295D01*
X35400D01*
Y614694D01*
X34800D01*
Y613494D01*
X35400D01*
X23000Y613095D02*
Y612094D01*
X25000D01*
Y613095D01*
X26000D01*
Y615095D01*
X25000D01*
Y616094D01*
X23000D01*
Y615095D01*
X22000D01*
Y613095D01*
X23000D01*
X23400Y613494D02*
Y612894D01*
X24600D01*
Y613494D01*
X25200D01*
Y614694D01*
X24600D01*
Y615295D01*
X23400D01*
Y614694D01*
X22800D01*
Y613494D01*
X23400D01*
X11000Y613095D02*
Y612094D01*
X13000D01*
Y613095D01*
X14000D01*
Y615095D01*
X13000D01*
Y616094D01*
X11000D01*
Y615095D01*
X10000D01*
Y613095D01*
X11000D01*
X11400Y613494D02*
Y612894D01*
X12600D01*
Y613494D01*
X13200D01*
Y614694D01*
X12600D01*
Y615295D01*
X11400D01*
Y614694D01*
X10800D01*
Y613494D01*
X11400D01*
X-1000Y613095D02*
Y612094D01*
X1000D01*
Y613095D01*
X2000D01*
Y615095D01*
X1000D01*
Y616094D01*
X-1000D01*
Y615095D01*
X-2000D01*
Y613095D01*
X-1000D01*
X-600Y613494D02*
Y612894D01*
X600D01*
Y613494D01*
X1200D01*
Y614694D01*
X600D01*
Y615295D01*
X-600D01*
Y614694D01*
X-1200D01*
Y613494D01*
X-600D01*
X-13000Y613095D02*
Y612094D01*
X-11000D01*
Y613095D01*
X-10000D01*
Y615095D01*
X-11000D01*
Y616094D01*
X-13000D01*
Y615095D01*
X-14000D01*
Y613095D01*
X-13000D01*
X-12600Y613494D02*
Y612894D01*
X-11400D01*
Y613494D01*
X-10800D01*
Y614694D01*
X-11400D01*
Y615295D01*
X-12600D01*
Y614694D01*
X-13200D01*
Y613494D01*
X-12600D01*
X-25000Y613095D02*
Y612094D01*
X-23000D01*
Y613095D01*
X-22000D01*
Y615095D01*
X-23000D01*
Y616094D01*
X-25000D01*
Y615095D01*
X-26000D01*
Y613095D01*
X-25000D01*
X-24600Y613494D02*
Y612894D01*
X-23400D01*
Y613494D01*
X-22800D01*
Y614694D01*
X-23400D01*
Y615295D01*
X-24600D01*
Y614694D01*
X-25200D01*
Y613494D01*
X-24600D01*
X59000Y404095D02*
Y403094D01*
X61000D01*
Y404095D01*
X62000D01*
Y406095D01*
X61000D01*
Y407094D01*
X59000D01*
Y406095D01*
X58000D01*
Y404095D01*
X59000D01*
X59400Y404494D02*
Y403895D01*
X60600D01*
Y404494D01*
X61200D01*
Y405694D01*
X60600D01*
Y406294D01*
X59400D01*
Y405694D01*
X58800D01*
Y404494D01*
X59400D01*
X59000Y416094D02*
Y415095D01*
X61000D01*
Y416094D01*
X62000D01*
Y418094D01*
X61000D01*
Y419095D01*
X59000D01*
Y418094D01*
X58000D01*
Y416094D01*
X59000D01*
X59400Y416495D02*
Y415895D01*
X60600D01*
Y416495D01*
X61200D01*
Y417695D01*
X60600D01*
Y418294D01*
X59400D01*
Y417695D01*
X58800D01*
Y416495D01*
X59400D01*
X59000Y428094D02*
Y427095D01*
X61000D01*
Y428094D01*
X62000D01*
Y430094D01*
X61000D01*
Y431095D01*
X59000D01*
Y430094D01*
X58000D01*
Y428094D01*
X59000D01*
X59400Y428495D02*
Y427894D01*
X60600D01*
Y428495D01*
X61200D01*
Y429695D01*
X60600D01*
Y430295D01*
X59400D01*
Y429695D01*
X58800D01*
Y428495D01*
X59400D01*
X59000Y440095D02*
Y439094D01*
X61000D01*
Y440095D01*
X62000D01*
Y442095D01*
X61000D01*
Y443094D01*
X59000D01*
Y442095D01*
X58000D01*
Y440095D01*
X59000D01*
X59400Y440494D02*
Y439894D01*
X60600D01*
Y440494D01*
X61200D01*
Y441694D01*
X60600D01*
Y442295D01*
X59400D01*
Y441694D01*
X58800D01*
Y440494D01*
X59400D01*
X59000Y452095D02*
Y451094D01*
X61000D01*
Y452095D01*
X62000D01*
Y454095D01*
X61000D01*
Y455094D01*
X59000D01*
Y454095D01*
X58000D01*
Y452095D01*
X59000D01*
X59400Y452494D02*
Y451895D01*
X60600D01*
Y452494D01*
X61200D01*
Y453694D01*
X60600D01*
Y454294D01*
X59400D01*
Y453694D01*
X58800D01*
Y452494D01*
X59400D01*
X59000Y464094D02*
Y463095D01*
X61000D01*
Y464094D01*
X62000D01*
Y466094D01*
X61000D01*
Y467095D01*
X59000D01*
Y466094D01*
X58000D01*
Y464094D01*
X59000D01*
X59400Y464495D02*
Y463895D01*
X60600D01*
Y464495D01*
X61200D01*
Y465695D01*
X60600D01*
Y466294D01*
X59400D01*
Y465695D01*
X58800D01*
Y464495D01*
X59400D01*
X59000Y476094D02*
Y475095D01*
X61000D01*
Y476094D01*
X62000D01*
Y478094D01*
X61000D01*
Y479095D01*
X59000D01*
Y478094D01*
X58000D01*
Y476094D01*
X59000D01*
X59400Y476495D02*
Y475894D01*
X60600D01*
Y476495D01*
X61200D01*
Y477695D01*
X60600D01*
Y478295D01*
X59400D01*
Y477695D01*
X58800D01*
Y476495D01*
X59400D01*
X59000Y488095D02*
Y487094D01*
X61000D01*
Y488095D01*
X62000D01*
Y490095D01*
X61000D01*
Y491094D01*
X59000D01*
Y490095D01*
X58000D01*
Y488095D01*
X59000D01*
X59400Y488494D02*
Y487894D01*
X60600D01*
Y488494D01*
X61200D01*
Y489694D01*
X60600D01*
Y490295D01*
X59400D01*
Y489694D01*
X58800D01*
Y488494D01*
X59400D01*
X59000Y500095D02*
Y499094D01*
X61000D01*
Y500095D01*
X62000D01*
Y502095D01*
X61000D01*
Y503094D01*
X59000D01*
Y502095D01*
X58000D01*
Y500095D01*
X59000D01*
X59400Y500494D02*
Y499895D01*
X60600D01*
Y500494D01*
X61200D01*
Y501694D01*
X60600D01*
Y502294D01*
X59400D01*
Y501694D01*
X58800D01*
Y500494D01*
X59400D01*
X59000Y512094D02*
Y511095D01*
X61000D01*
Y512094D01*
X62000D01*
Y514094D01*
X61000D01*
Y515095D01*
X59000D01*
Y514094D01*
X58000D01*
Y512094D01*
X59000D01*
X59400Y512495D02*
Y511895D01*
X60600D01*
Y512495D01*
X61200D01*
Y513694D01*
X60600D01*
Y514294D01*
X59400D01*
Y513694D01*
X58800D01*
Y512495D01*
X59400D01*
X59000Y524094D02*
Y523095D01*
X61000D01*
Y524094D01*
X62000D01*
Y526094D01*
X61000D01*
Y527095D01*
X59000D01*
Y526094D01*
X58000D01*
Y524094D01*
X59000D01*
X59400Y524495D02*
Y523895D01*
X60600D01*
Y524495D01*
X61200D01*
Y525695D01*
X60600D01*
Y526295D01*
X59400D01*
Y525695D01*
X58800D01*
Y524495D01*
X59400D01*
X59000Y536095D02*
Y535094D01*
X61000D01*
Y536095D01*
X62000D01*
Y538095D01*
X61000D01*
Y539094D01*
X59000D01*
Y538095D01*
X58000D01*
Y536095D01*
X59000D01*
X59400Y536494D02*
Y535894D01*
X60600D01*
Y536494D01*
X61200D01*
Y537695D01*
X60600D01*
Y538295D01*
X59400D01*
Y537695D01*
X58800D01*
Y536494D01*
X59400D01*
X59000Y548095D02*
Y547094D01*
X61000D01*
Y548095D01*
X62000D01*
Y550095D01*
X61000D01*
Y551094D01*
X59000D01*
Y550095D01*
X58000D01*
Y548095D01*
X59000D01*
X59400Y548494D02*
Y547894D01*
X60600D01*
Y548494D01*
X61200D01*
Y549694D01*
X60600D01*
Y550294D01*
X59400D01*
Y549694D01*
X58800D01*
Y548494D01*
X59400D01*
X-61000Y524094D02*
Y523095D01*
X-59000D01*
Y524094D01*
X-58000D01*
Y526094D01*
X-59000D01*
Y527095D01*
X-61000D01*
Y526094D01*
X-62000D01*
Y524094D01*
X-61000D01*
X-60600Y524495D02*
Y523895D01*
X-59400D01*
Y524495D01*
X-58800D01*
Y525695D01*
X-59400D01*
Y526295D01*
X-60600D01*
Y525695D01*
X-61200D01*
Y524495D01*
X-60600D01*
X-61000Y536095D02*
Y535094D01*
X-59000D01*
Y536095D01*
X-58000D01*
Y538095D01*
X-59000D01*
Y539094D01*
X-61000D01*
Y538095D01*
X-62000D01*
Y536095D01*
X-61000D01*
X-60600Y536494D02*
Y535894D01*
X-59400D01*
Y536494D01*
X-58800D01*
Y537695D01*
X-59400D01*
Y538295D01*
X-60600D01*
Y537695D01*
X-61200D01*
Y536494D01*
X-60600D01*
X-61000Y548095D02*
Y547094D01*
X-59000D01*
Y548095D01*
X-58000D01*
Y550095D01*
X-59000D01*
Y551094D01*
X-61000D01*
Y550095D01*
X-62000D01*
Y548095D01*
X-61000D01*
X-60600Y548494D02*
Y547894D01*
X-59400D01*
Y548494D01*
X-58800D01*
Y549694D01*
X-59400D01*
Y550294D01*
X-60600D01*
Y549694D01*
X-61200D01*
Y548494D01*
X-60600D01*
X-61000Y560094D02*
Y559094D01*
X-59000D01*
Y560094D01*
X-58000D01*
Y562094D01*
X-59000D01*
Y563095D01*
X-61000D01*
Y562094D01*
X-62000D01*
Y560094D01*
X-61000D01*
X-60600Y560495D02*
Y559895D01*
X-59400D01*
Y560495D01*
X-58800D01*
Y561694D01*
X-59400D01*
Y562294D01*
X-60600D01*
Y561694D01*
X-61200D01*
Y560495D01*
X-60600D01*
X-61000Y464094D02*
Y463095D01*
X-59000D01*
Y464094D01*
X-58000D01*
Y466094D01*
X-59000D01*
Y467095D01*
X-61000D01*
Y466094D01*
X-62000D01*
Y464094D01*
X-61000D01*
X-60600Y464495D02*
Y463895D01*
X-59400D01*
Y464495D01*
X-58800D01*
Y465695D01*
X-59400D01*
Y466294D01*
X-60600D01*
Y465695D01*
X-61200D01*
Y464495D01*
X-60600D01*
X-61000Y476094D02*
Y475095D01*
X-59000D01*
Y476094D01*
X-58000D01*
Y478094D01*
X-59000D01*
Y479095D01*
X-61000D01*
Y478094D01*
X-62000D01*
Y476094D01*
X-61000D01*
X-60600Y476495D02*
Y475894D01*
X-59400D01*
Y476495D01*
X-58800D01*
Y477695D01*
X-59400D01*
Y478295D01*
X-60600D01*
Y477695D01*
X-61200D01*
Y476495D01*
X-60600D01*
X-61000Y488095D02*
Y487094D01*
X-59000D01*
Y488095D01*
X-58000D01*
Y490095D01*
X-59000D01*
Y491094D01*
X-61000D01*
Y490095D01*
X-62000D01*
Y488095D01*
X-61000D01*
X-60600Y488494D02*
Y487894D01*
X-59400D01*
Y488494D01*
X-58800D01*
Y489694D01*
X-59400D01*
Y490295D01*
X-60600D01*
Y489694D01*
X-61200D01*
Y488494D01*
X-60600D01*
X-61000Y500095D02*
Y499094D01*
X-59000D01*
Y500095D01*
X-58000D01*
Y502095D01*
X-59000D01*
Y503094D01*
X-61000D01*
Y502095D01*
X-62000D01*
Y500095D01*
X-61000D01*
X-60600Y500494D02*
Y499895D01*
X-59400D01*
Y500494D01*
X-58800D01*
Y501694D01*
X-59400D01*
Y502294D01*
X-60600D01*
Y501694D01*
X-61200D01*
Y500494D01*
X-60600D01*
X-61000Y512094D02*
Y511095D01*
X-59000D01*
Y512094D01*
X-58000D01*
Y514094D01*
X-59000D01*
Y515095D01*
X-61000D01*
Y514094D01*
X-62000D01*
Y512094D01*
X-61000D01*
X-60600Y512495D02*
Y511895D01*
X-59400D01*
Y512495D01*
X-58800D01*
Y513694D01*
X-59400D01*
Y514294D01*
X-60600D01*
Y513694D01*
X-61200D01*
Y512495D01*
X-60600D01*
X-61000Y404095D02*
Y403094D01*
X-59000D01*
Y404095D01*
X-58000D01*
Y406095D01*
X-59000D01*
Y407094D01*
X-61000D01*
Y406095D01*
X-62000D01*
Y404095D01*
X-61000D01*
X-60600Y404494D02*
Y403895D01*
X-59400D01*
Y404494D01*
X-58800D01*
Y405694D01*
X-59400D01*
Y406294D01*
X-60600D01*
Y405694D01*
X-61200D01*
Y404494D01*
X-60600D01*
X-61000Y416094D02*
Y415095D01*
X-59000D01*
Y416094D01*
X-58000D01*
Y418094D01*
X-59000D01*
Y419095D01*
X-61000D01*
Y418094D01*
X-62000D01*
Y416094D01*
X-61000D01*
X-60600Y416495D02*
Y415895D01*
X-59400D01*
Y416495D01*
X-58800D01*
Y417695D01*
X-59400D01*
Y418294D01*
X-60600D01*
Y417695D01*
X-61200D01*
Y416495D01*
X-60600D01*
X-61000Y428094D02*
Y427095D01*
X-59000D01*
Y428094D01*
X-58000D01*
Y430094D01*
X-59000D01*
Y431095D01*
X-61000D01*
Y430094D01*
X-62000D01*
Y428094D01*
X-61000D01*
X-60600Y428495D02*
Y427894D01*
X-59400D01*
Y428495D01*
X-58800D01*
Y429695D01*
X-59400D01*
Y430295D01*
X-60600D01*
Y429695D01*
X-61200D01*
Y428495D01*
X-60600D01*
X-61000Y440095D02*
Y439094D01*
X-59000D01*
Y440095D01*
X-58000D01*
Y442095D01*
X-59000D01*
Y443094D01*
X-61000D01*
Y442095D01*
X-62000D01*
Y440095D01*
X-61000D01*
X-60600Y440494D02*
Y439894D01*
X-59400D01*
Y440494D01*
X-58800D01*
Y441694D01*
X-59400D01*
Y442295D01*
X-60600D01*
Y441694D01*
X-61200D01*
Y440494D01*
X-60600D01*
X-61000Y452095D02*
Y451094D01*
X-59000D01*
Y452095D01*
X-58000D01*
Y454095D01*
X-59000D01*
Y455094D01*
X-61000D01*
Y454095D01*
X-62000D01*
Y452095D01*
X-61000D01*
X-60600Y452494D02*
Y451895D01*
X-59400D01*
Y452494D01*
X-58800D01*
Y453694D01*
X-59400D01*
Y454294D01*
X-60600D01*
Y453694D01*
X-61200D01*
Y452494D01*
X-60600D01*
X27000Y59095D02*
Y58095D01*
X29000D01*
Y59095D01*
X30000D01*
Y61094D01*
X29000D01*
Y62094D01*
X27000D01*
Y61094D01*
X26000D01*
Y59095D01*
X27000D01*
X27400Y59495D02*
Y58894D01*
X28600D01*
Y59495D01*
X29200D01*
Y60694D01*
X28600D01*
Y61295D01*
X27400D01*
Y60694D01*
X26800D01*
Y59495D01*
X27400D01*
X27000Y71095D02*
Y70095D01*
X29000D01*
Y71095D01*
X30000D01*
Y73094D01*
X29000D01*
Y74094D01*
X27000D01*
Y73094D01*
X26000D01*
Y71095D01*
X27000D01*
X27400Y71495D02*
Y70894D01*
X28600D01*
Y71495D01*
X29200D01*
Y72694D01*
X28600D01*
Y73295D01*
X27400D01*
Y72694D01*
X26800D01*
Y71495D01*
X27400D01*
X27000Y83095D02*
Y82095D01*
X29000D01*
Y83095D01*
X30000D01*
Y85094D01*
X29000D01*
Y86094D01*
X27000D01*
Y85094D01*
X26000D01*
Y83095D01*
X27000D01*
X27400Y83495D02*
Y82894D01*
X28600D01*
Y83495D01*
X29200D01*
Y84694D01*
X28600D01*
Y85295D01*
X27400D01*
Y84694D01*
X26800D01*
Y83495D01*
X27400D01*
X27000Y95095D02*
Y94095D01*
X29000D01*
Y95095D01*
X30000D01*
Y97095D01*
X29000D01*
Y98094D01*
X27000D01*
Y97095D01*
X26000D01*
Y95095D01*
X27000D01*
X27400Y95495D02*
Y94894D01*
X28600D01*
Y95495D01*
X29200D01*
Y96694D01*
X28600D01*
Y97294D01*
X27400D01*
Y96694D01*
X26800D01*
Y95495D01*
X27400D01*
X-29000Y107095D02*
Y106095D01*
X-27000D01*
Y107095D01*
X-26000D01*
Y109095D01*
X-27000D01*
Y110094D01*
X-29000D01*
Y109095D01*
X-30000D01*
Y107095D01*
X-29000D01*
X-28600Y107494D02*
Y106895D01*
X-27400D01*
Y107494D01*
X-26800D01*
Y108695D01*
X-27400D01*
Y109294D01*
X-28600D01*
Y108695D01*
X-29200D01*
Y107494D01*
X-28600D01*
X-29000Y95095D02*
Y94095D01*
X-27000D01*
Y95095D01*
X-26000D01*
Y97095D01*
X-27000D01*
Y98094D01*
X-29000D01*
Y97095D01*
X-30000D01*
Y95095D01*
X-29000D01*
X-28600Y95495D02*
Y94894D01*
X-27400D01*
Y95495D01*
X-26800D01*
Y96694D01*
X-27400D01*
Y97294D01*
X-28600D01*
Y96694D01*
X-29200D01*
Y95495D01*
X-28600D01*
X-29000Y83095D02*
Y82095D01*
X-27000D01*
Y83095D01*
X-26000D01*
Y85094D01*
X-27000D01*
Y86094D01*
X-29000D01*
Y85094D01*
X-30000D01*
Y83095D01*
X-29000D01*
X-28600Y83495D02*
Y82894D01*
X-27400D01*
Y83495D01*
X-26800D01*
Y84694D01*
X-27400D01*
Y85295D01*
X-28600D01*
Y84694D01*
X-29200D01*
Y83495D01*
X-28600D01*
X-29000Y71095D02*
Y70095D01*
X-27000D01*
Y71095D01*
X-26000D01*
Y73094D01*
X-27000D01*
Y74094D01*
X-29000D01*
Y73094D01*
X-30000D01*
Y71095D01*
X-29000D01*
X-28600Y71495D02*
Y70894D01*
X-27400D01*
Y71495D01*
X-26800D01*
Y72694D01*
X-27400D01*
Y73295D01*
X-28600D01*
Y72694D01*
X-29200D01*
Y71495D01*
X-28600D01*
X-29000Y59095D02*
Y58095D01*
X-27000D01*
Y59095D01*
X-26000D01*
Y61094D01*
X-27000D01*
Y62094D01*
X-29000D01*
Y61094D01*
X-30000D01*
Y59095D01*
X-29000D01*
X-28600Y59495D02*
Y58894D01*
X-27400D01*
Y59495D01*
X-26800D01*
Y60694D01*
X-27400D01*
Y61295D01*
X-28600D01*
Y60694D01*
X-29200D01*
Y59495D01*
X-28600D01*
X-29100Y403995D02*
Y402994D01*
X-27100D01*
Y403995D01*
X-26100D01*
Y405995D01*
X-27100D01*
Y406994D01*
X-29100D01*
Y405995D01*
X-30100D01*
Y403995D01*
X-29100D01*
X-28700Y404394D02*
Y403794D01*
X-27500D01*
Y404394D01*
X-26900D01*
Y405594D01*
X-27500D01*
Y406194D01*
X-28700D01*
Y405594D01*
X-29300D01*
Y404394D01*
X-28700D01*
X-29200Y400195D02*
Y399195D01*
X-27200D01*
Y400195D01*
X-26200D01*
Y402194D01*
X-27200D01*
Y403195D01*
X-29200D01*
Y402194D01*
X-30200D01*
Y400195D01*
X-29200D01*
X-28800Y400595D02*
Y399994D01*
X-27600D01*
Y400595D01*
X-27000D01*
Y401794D01*
X-27600D01*
Y402394D01*
X-28800D01*
Y401794D01*
X-29400D01*
Y400595D01*
X-28800D01*
X24984Y347819D02*
Y346819D01*
X26984D01*
Y347819D01*
X27984D01*
Y349819D01*
X26984D01*
Y350819D01*
X24984D01*
Y349819D01*
X23984D01*
Y347819D01*
X24984D01*
X25384Y348219D02*
Y347619D01*
X26584D01*
Y348219D01*
X27184D01*
Y349419D01*
X26584D01*
Y350019D01*
X25384D01*
Y349419D01*
X24784D01*
Y348219D01*
X25384D01*
X-20500Y175594D02*
Y174594D01*
X-18500D01*
Y175594D01*
X-17500D01*
Y177594D01*
X-18500D01*
Y178595D01*
X-20500D01*
Y177594D01*
X-21500D01*
Y175594D01*
X-20500D01*
X-20100Y175995D02*
Y175394D01*
X-18900D01*
Y175995D01*
X-18300D01*
Y177194D01*
X-18900D01*
Y177795D01*
X-20100D01*
Y177194D01*
X-20700D01*
Y175995D01*
X-20100D01*
X24772Y315323D02*
X25772D01*
X26772Y316323D01*
X27772Y315323D01*
X28772D01*
Y316323D01*
X27772Y317323D01*
X28772Y318323D01*
Y319323D01*
X27772D01*
X26772Y318323D01*
X25772Y319323D01*
X24772D01*
Y318323D01*
X25772Y317323D01*
X24772Y316323D01*
Y315323D01*
X25572Y316123D02*
X26172D01*
X26772Y316723D01*
X27372Y316123D01*
X27972D01*
Y316723D01*
X27372Y317323D01*
X27972Y317923D01*
Y318523D01*
X27372D01*
X26772Y317923D01*
X26172Y318523D01*
X25572D01*
Y317923D01*
X26172Y317323D01*
X25572Y316723D01*
Y316123D01*
X-11630Y374197D02*
Y373197D01*
X-9630D01*
Y374197D01*
X-8630D01*
Y376197D01*
X-9630D01*
Y377197D01*
X-11630D01*
Y376197D01*
X-12630D01*
Y374197D01*
X-11630D01*
X-11230Y374597D02*
Y373997D01*
X-10030D01*
Y374597D01*
X-9430D01*
Y375797D01*
X-10030D01*
Y376397D01*
X-11230D01*
Y375797D01*
X-11830D01*
Y374597D01*
X-11230D01*
X-17929Y137583D02*
Y136583D01*
X-15929D01*
Y137583D01*
X-14929D01*
Y139583D01*
X-15929D01*
Y140583D01*
X-17929D01*
Y139583D01*
X-18929D01*
Y137583D01*
X-17929D01*
X-17529Y137983D02*
Y137383D01*
X-16329D01*
Y137983D01*
X-15729D01*
Y139183D01*
X-16329D01*
Y139783D01*
X-17529D01*
Y139183D01*
X-18129D01*
Y137983D01*
X-17529D01*
X-25409Y148213D02*
Y147213D01*
X-23410D01*
Y148213D01*
X-22410D01*
Y150213D01*
X-23410D01*
Y151213D01*
X-25409D01*
Y150213D01*
X-26409D01*
Y148213D01*
X-25409D01*
X-25010Y148613D02*
Y148013D01*
X-23810D01*
Y148613D01*
X-23210D01*
Y149813D01*
X-23810D01*
Y150413D01*
X-25010D01*
Y149813D01*
X-25609D01*
Y148613D01*
X-25010D01*
X-15567Y134039D02*
Y133039D01*
X-13567D01*
Y134039D01*
X-12567D01*
Y136039D01*
X-13567D01*
Y137039D01*
X-15567D01*
Y136039D01*
X-16567D01*
Y134039D01*
X-15567D01*
X-15167Y134439D02*
Y133839D01*
X-13967D01*
Y134439D01*
X-13367D01*
Y135639D01*
X-13967D01*
Y136239D01*
X-15167D01*
Y135639D01*
X-15767D01*
Y134439D01*
X-15167D01*
X-28600Y172494D02*
Y171494D01*
X-26600D01*
Y172494D01*
X-25600D01*
Y174495D01*
X-26600D01*
Y175495D01*
X-28600D01*
Y174495D01*
X-29600D01*
Y172494D01*
X-28600D01*
X-28200Y172895D02*
Y172294D01*
X-27000D01*
Y172895D01*
X-26400D01*
Y174094D01*
X-27000D01*
Y174695D01*
X-28200D01*
Y174094D01*
X-28800D01*
Y172895D01*
X-28200D01*
X7100Y435094D02*
Y434094D01*
X9100D01*
Y435094D01*
X10100D01*
Y437094D01*
X9100D01*
Y438095D01*
X7100D01*
Y437094D01*
X6100D01*
Y435094D01*
X7100D01*
X7500Y435495D02*
Y434895D01*
X8700D01*
Y435495D01*
X9300D01*
Y436694D01*
X8700D01*
Y437294D01*
X7500D01*
Y436694D01*
X6900D01*
Y435495D01*
X7500D01*
X-3100Y434094D02*
Y433095D01*
X-1100D01*
Y434094D01*
X-100D01*
Y436095D01*
X-1100D01*
Y437094D01*
X-3100D01*
Y436095D01*
X-4100D01*
Y434094D01*
X-3100D01*
X-2700Y434494D02*
Y433894D01*
X-1500D01*
Y434494D01*
X-900D01*
Y435695D01*
X-1500D01*
Y436295D01*
X-2700D01*
Y435695D01*
X-3300D01*
Y434494D01*
X-2700D01*
X-57500Y387194D02*
X-56500D01*
X-55500Y388194D01*
X-54500Y387194D01*
X-53500D01*
Y388194D01*
X-54500Y389194D01*
X-53500Y390195D01*
Y391195D01*
X-54500D01*
X-55500Y390195D01*
X-56500Y391195D01*
X-57500D01*
Y390195D01*
X-56500Y389194D01*
X-57500Y388194D01*
Y387194D01*
X-56700Y387995D02*
X-56100D01*
X-55500Y388595D01*
X-54900Y387995D01*
X-54300D01*
Y388595D01*
X-54900Y389194D01*
X-54300Y389794D01*
Y390394D01*
X-54900D01*
X-55500Y389794D01*
X-56100Y390394D01*
X-56700D01*
Y389794D01*
X-56100Y389194D01*
X-56700Y388595D01*
Y387995D01*
X-38750Y359644D02*
X-37750D01*
X-36750Y360644D01*
X-35750Y359644D01*
X-34750D01*
Y360644D01*
X-35750Y361644D01*
X-34750Y362644D01*
Y363644D01*
X-35750D01*
X-36750Y362644D01*
X-37750Y363644D01*
X-38750D01*
Y362644D01*
X-37750Y361644D01*
X-38750Y360644D01*
Y359644D01*
X-37950Y360444D02*
X-37350D01*
X-36750Y361044D01*
X-36150Y360444D01*
X-35550D01*
Y361044D01*
X-36150Y361644D01*
X-35550Y362244D01*
Y362844D01*
X-36150D01*
X-36750Y362244D01*
X-37350Y362844D01*
X-37950D01*
Y362244D01*
X-37350Y361644D01*
X-37950Y361044D01*
Y360444D01*
X-7700Y112794D02*
X-6700D01*
X-5700Y113795D01*
X-4700Y112794D01*
X-3700D01*
Y113795D01*
X-4700Y114795D01*
X-3700Y115795D01*
Y116795D01*
X-4700D01*
X-5700Y115795D01*
X-6700Y116795D01*
X-7700D01*
Y115795D01*
X-6700Y114795D01*
X-7700Y113795D01*
Y112794D01*
X-6900Y113594D02*
X-6300D01*
X-5700Y114195D01*
X-5100Y113594D01*
X-4500D01*
Y114195D01*
X-5100Y114795D01*
X-4500Y115394D01*
Y115995D01*
X-5100D01*
X-5700Y115394D01*
X-6300Y115995D01*
X-6900D01*
Y115394D01*
X-6300Y114795D01*
X-6900Y114195D01*
Y113594D01*
X-20100Y147494D02*
Y146494D01*
X-18100D01*
Y147494D01*
X-17100D01*
Y149495D01*
X-18100D01*
Y150495D01*
X-20100D01*
Y149495D01*
X-21100D01*
Y147494D01*
X-20100D01*
X-19700Y147895D02*
Y147294D01*
X-18500D01*
Y147895D01*
X-17900D01*
Y149094D01*
X-18500D01*
Y149695D01*
X-19700D01*
Y149094D01*
X-20300D01*
Y147895D01*
X-19700D01*
X-19200Y379995D02*
X-18200D01*
X-17200Y380995D01*
X-16200Y379995D01*
X-15200D01*
Y380995D01*
X-16200Y381995D01*
X-15200Y382995D01*
Y383995D01*
X-16200D01*
X-17200Y382995D01*
X-18200Y383995D01*
X-19200D01*
Y382995D01*
X-18200Y381995D01*
X-19200Y380995D01*
Y379995D01*
X-18400Y380795D02*
X-17800D01*
X-17200Y381395D01*
X-16600Y380795D01*
X-16000D01*
Y381395D01*
X-16600Y381995D01*
X-16000Y382594D01*
Y383194D01*
X-16600D01*
X-17200Y382594D01*
X-17800Y383194D01*
X-18400D01*
Y382594D01*
X-17800Y381995D01*
X-18400Y381395D01*
Y380795D01*
X42000Y314194D02*
X43000D01*
X44000Y315195D01*
X45000Y314194D01*
X46000D01*
Y315195D01*
X45000Y316195D01*
X46000Y317195D01*
Y318195D01*
X45000D01*
X44000Y317195D01*
X43000Y318195D01*
X42000D01*
Y317195D01*
X43000Y316195D01*
X42000Y315195D01*
Y314194D01*
X42800Y314995D02*
X43400D01*
X44000Y315595D01*
X44600Y314995D01*
X45200D01*
Y315595D01*
X44600Y316195D01*
X45200Y316794D01*
Y317394D01*
X44600D01*
X44000Y316794D01*
X43400Y317394D01*
X42800D01*
Y316794D01*
X43400Y316195D01*
X42800Y315595D01*
Y314995D01*
X40500Y258194D02*
X41500D01*
X42500Y259194D01*
X43500Y258194D01*
X44500D01*
Y259194D01*
X43500Y260194D01*
X44500Y261194D01*
Y262194D01*
X43500D01*
X42500Y261194D01*
X41500Y262194D01*
X40500D01*
Y261194D01*
X41500Y260194D01*
X40500Y259194D01*
Y258194D01*
X41300Y258995D02*
X41900D01*
X42500Y259594D01*
X43100Y258995D01*
X43700D01*
Y259594D01*
X43100Y260194D01*
X43700Y260794D01*
Y261395D01*
X43100D01*
X42500Y260794D01*
X41900Y261395D01*
X41300D01*
Y260794D01*
X41900Y260194D01*
X41300Y259594D01*
Y258995D01*
X-8100Y481994D02*
X-7100D01*
X-6100Y482995D01*
X-5100Y481994D01*
X-4100D01*
Y482995D01*
X-5100Y483994D01*
X-4100Y484995D01*
Y485994D01*
X-5100D01*
X-6100Y484995D01*
X-7100Y485994D01*
X-8100D01*
Y484995D01*
X-7100Y483994D01*
X-8100Y482995D01*
Y481994D01*
X-7300Y482795D02*
X-6700D01*
X-6100Y483394D01*
X-5500Y482795D01*
X-4900D01*
Y483394D01*
X-5500Y483994D01*
X-4900Y484594D01*
Y485194D01*
X-5500D01*
X-6100Y484594D01*
X-6700Y485194D01*
X-7300D01*
Y484594D01*
X-6700Y483994D01*
X-7300Y483394D01*
Y482795D01*
X-1700Y481894D02*
X-700D01*
X300Y482895D01*
X1300Y481894D01*
X2300D01*
Y482895D01*
X1300Y483894D01*
X2300Y484895D01*
Y485894D01*
X1300D01*
X300Y484895D01*
X-700Y485894D01*
X-1700D01*
Y484895D01*
X-700Y483894D01*
X-1700Y482895D01*
Y481894D01*
X-900Y482694D02*
X-300D01*
X300Y483294D01*
X900Y482694D01*
X1500D01*
Y483294D01*
X900Y483894D01*
X1500Y484494D01*
Y485094D01*
X900D01*
X300Y484494D01*
X-300Y485094D01*
X-900D01*
Y484494D01*
X-300Y483894D01*
X-900Y483294D01*
Y482694D01*
X4600Y481795D02*
X5600D01*
X6600Y482795D01*
X7600Y481795D01*
X8600D01*
Y482795D01*
X7600Y483794D01*
X8600Y484795D01*
Y485794D01*
X7600D01*
X6600Y484795D01*
X5600Y485794D01*
X4600D01*
Y484795D01*
X5600Y483794D01*
X4600Y482795D01*
Y481795D01*
X5400Y482594D02*
X6000D01*
X6600Y483194D01*
X7200Y482594D01*
X7800D01*
Y483194D01*
X7200Y483794D01*
X7800Y484395D01*
Y484995D01*
X7200D01*
X6600Y484395D01*
X6000Y484995D01*
X5400D01*
Y484395D01*
X6000Y483794D01*
X5400Y483194D01*
Y482594D01*
X-2000Y71694D02*
X-1000D01*
X0Y72694D01*
X1000Y71694D01*
X2000D01*
Y72694D01*
X1000Y73694D01*
X2000Y74695D01*
Y75695D01*
X1000D01*
X0Y74695D01*
X-1000Y75695D01*
X-2000D01*
Y74695D01*
X-1000Y73694D01*
X-2000Y72694D01*
Y71694D01*
X-1200Y72495D02*
X-600D01*
X0Y73094D01*
X600Y72495D01*
X1200D01*
Y73094D01*
X600Y73694D01*
X1200Y74295D01*
Y74894D01*
X600D01*
X0Y74295D01*
X-600Y74894D01*
X-1200D01*
Y74295D01*
X-600Y73694D01*
X-1200Y73094D01*
Y72495D01*
X12900Y47194D02*
X13900D01*
X14900Y48195D01*
X15900Y47194D01*
X16900D01*
Y48195D01*
X15900Y49194D01*
X16900Y50195D01*
Y51195D01*
X15900D01*
X14900Y50195D01*
X13900Y51195D01*
X12900D01*
Y50195D01*
X13900Y49194D01*
X12900Y48195D01*
Y47194D01*
X13700Y47995D02*
X14300D01*
X14900Y48594D01*
X15500Y47995D01*
X16100D01*
Y48594D01*
X15500Y49194D01*
X16100Y49795D01*
Y50394D01*
X15500D01*
X14900Y49795D01*
X14300Y50394D01*
X13700D01*
Y49795D01*
X14300Y49194D01*
X13700Y48594D01*
Y47995D01*
X2300Y123294D02*
Y122294D01*
X4300D01*
Y123294D01*
X5300D01*
Y125294D01*
X4300D01*
Y126295D01*
X2300D01*
Y125294D01*
X1300D01*
Y123294D01*
X2300D01*
X2700Y123695D02*
Y123094D01*
X3900D01*
Y123695D01*
X4500D01*
Y124894D01*
X3900D01*
Y125495D01*
X2700D01*
Y124894D01*
X2100D01*
Y123695D01*
X2700D01*
X-9500Y173495D02*
Y172494D01*
X-7500D01*
Y173495D01*
X-6500D01*
Y175495D01*
X-7500D01*
Y176495D01*
X-9500D01*
Y175495D01*
X-10500D01*
Y173495D01*
X-9500D01*
X-9100Y173895D02*
Y173294D01*
X-7900D01*
Y173895D01*
X-7300D01*
Y175094D01*
X-7900D01*
Y175695D01*
X-9100D01*
Y175094D01*
X-9700D01*
Y173895D01*
X-9100D01*
X-32100Y390094D02*
Y389094D01*
X-30100D01*
Y390094D01*
X-29100D01*
Y392094D01*
X-30100D01*
Y393094D01*
X-32100D01*
Y392094D01*
X-33100D01*
Y390094D01*
X-32100D01*
X-31700Y390494D02*
Y389895D01*
X-30500D01*
Y390494D01*
X-29900D01*
Y391694D01*
X-30500D01*
Y392295D01*
X-31700D01*
Y391694D01*
X-32300D01*
Y390494D01*
X-31700D01*
X-33400Y368595D02*
Y367595D01*
X-31400D01*
Y368595D01*
X-30400D01*
Y370595D01*
X-31400D01*
Y371595D01*
X-33400D01*
Y370595D01*
X-34400D01*
Y368595D01*
X-33400D01*
X-33000Y368994D02*
Y368394D01*
X-31800D01*
Y368994D01*
X-31200D01*
Y370195D01*
X-31800D01*
Y370795D01*
X-33000D01*
Y370195D01*
X-33600D01*
Y368994D01*
X-33000D01*
X38000Y227994D02*
Y226994D01*
X40000D01*
Y227994D01*
X41000D01*
Y229995D01*
X40000D01*
Y230995D01*
X38000D01*
Y229995D01*
X37000D01*
Y227994D01*
X38000D01*
X38400Y228395D02*
Y227795D01*
X39600D01*
Y228395D01*
X40200D01*
Y229594D01*
X39600D01*
Y230194D01*
X38400D01*
Y229594D01*
X37800D01*
Y228395D01*
X38400D01*
X-700Y289394D02*
Y288394D01*
X1300D01*
Y289394D01*
X2300D01*
Y291394D01*
X1300D01*
Y292394D01*
X-700D01*
Y291394D01*
X-1700D01*
Y289394D01*
X-700D01*
X-300Y289794D02*
Y289194D01*
X900D01*
Y289794D01*
X1500D01*
Y290995D01*
X900D01*
Y291595D01*
X-300D01*
Y290995D01*
X-900D01*
Y289794D01*
X-300D01*
X7000Y312295D02*
Y311295D01*
X9000D01*
Y312295D01*
X10000D01*
Y314295D01*
X9000D01*
Y315295D01*
X7000D01*
Y314295D01*
X6000D01*
Y312295D01*
X7000D01*
X7400Y312695D02*
Y312094D01*
X8600D01*
Y312695D01*
X9200D01*
Y313895D01*
X8600D01*
Y314494D01*
X7400D01*
Y313895D01*
X6800D01*
Y312695D01*
X7400D01*
X-38400Y246094D02*
Y249427D01*
X-36734Y251093D01*
X-35068Y249427D01*
Y246094D01*
Y248594D01*
X-38400D01*
X20000Y217994D02*
X21000D01*
X22000Y218994D01*
X23000Y217994D01*
X24000D01*
Y218994D01*
X23000Y219994D01*
X24000Y220994D01*
Y221994D01*
X23000D01*
X22000Y220994D01*
X21000Y221994D01*
X20000D01*
Y220994D01*
X21000Y219994D01*
X20000Y218994D01*
Y217994D01*
X20800Y218794D02*
X21400D01*
X22000Y219394D01*
X22600Y218794D01*
X23200D01*
Y219394D01*
X22600Y219994D01*
X23200Y220595D01*
Y221195D01*
X22600D01*
X22000Y220595D01*
X21400Y221195D01*
X20800D01*
Y220595D01*
X21400Y219994D01*
X20800Y219394D01*
Y218794D01*
X-38500Y222195D02*
Y221195D01*
X-36500D01*
Y222195D01*
X-35500D01*
Y224195D01*
X-36500D01*
Y225195D01*
X-38500D01*
Y224195D01*
X-39500D01*
Y222195D01*
X-38500D01*
X-38100Y222594D02*
Y221994D01*
X-36900D01*
Y222594D01*
X-36300D01*
Y223795D01*
X-36900D01*
Y224394D01*
X-38100D01*
Y223795D01*
X-38700D01*
Y222594D01*
X-38100D01*
X-1800Y239094D02*
Y238094D01*
X200D01*
Y239094D01*
X1200D01*
Y241094D01*
X200D01*
Y242094D01*
X-1800D01*
Y241094D01*
X-2800D01*
Y239094D01*
X-1800D01*
X-1400Y239494D02*
Y238895D01*
X-200D01*
Y239494D01*
X400D01*
Y240694D01*
X-200D01*
Y241295D01*
X-1400D01*
Y240694D01*
X-2000D01*
Y239494D01*
X-1400D01*
X-32534Y183857D02*
Y182857D01*
X-30534D01*
Y183857D01*
X-29534D01*
Y185857D01*
X-30534D01*
Y186857D01*
X-32534D01*
Y185857D01*
X-33534D01*
Y183857D01*
X-32534D01*
X-32134Y184257D02*
Y183657D01*
X-30934D01*
Y184257D01*
X-30334D01*
Y185457D01*
X-30934D01*
Y186057D01*
X-32134D01*
Y185457D01*
X-32734D01*
Y184257D01*
X-32134D01*
X-32734Y171547D02*
Y170547D01*
X-30734D01*
Y171547D01*
X-29734D01*
Y173547D01*
X-30734D01*
Y174547D01*
X-32734D01*
Y173547D01*
X-33734D01*
Y171547D01*
X-32734D01*
X-32334Y171947D02*
Y171347D01*
X-31134D01*
Y171947D01*
X-30534D01*
Y173147D01*
X-31134D01*
Y173747D01*
X-32334D01*
Y173147D01*
X-32934D01*
Y171947D01*
X-32334D01*
X-31100Y174195D02*
Y173195D01*
X-29100D01*
Y174195D01*
X-28100D01*
Y176195D01*
X-29100D01*
Y177194D01*
X-31100D01*
Y176195D01*
X-32100D01*
Y174195D01*
X-31100D01*
X-30700Y174594D02*
Y173995D01*
X-29500D01*
Y174594D01*
X-28900D01*
Y175794D01*
X-29500D01*
Y176394D01*
X-30700D01*
Y175794D01*
X-31300D01*
Y174594D01*
X-30700D01*
X-33400Y168494D02*
Y167494D01*
X-31400D01*
Y168494D01*
X-30400D01*
Y170494D01*
X-31400D01*
Y171494D01*
X-33400D01*
Y170494D01*
X-34400D01*
Y168494D01*
X-33400D01*
X-33000Y168895D02*
Y168295D01*
X-31800D01*
Y168895D01*
X-31200D01*
Y170095D01*
X-31800D01*
Y170694D01*
X-33000D01*
Y170095D01*
X-33600D01*
Y168895D01*
X-33000D01*
X-28000Y149894D02*
Y148895D01*
X-26000D01*
Y149894D01*
X-25000D01*
Y151894D01*
X-26000D01*
Y152894D01*
X-28000D01*
Y151894D01*
X-29000D01*
Y149894D01*
X-28000D01*
X-27600Y150294D02*
Y149695D01*
X-26400D01*
Y150294D01*
X-25800D01*
Y151495D01*
X-26400D01*
Y152094D01*
X-27600D01*
Y151495D01*
X-28200D01*
Y150294D01*
X-27600D01*
X-42700Y248294D02*
Y247294D01*
X-40700D01*
Y248294D01*
X-39700D01*
Y250294D01*
X-40700D01*
Y251294D01*
X-42700D01*
Y250294D01*
X-43700D01*
Y248294D01*
X-42700D01*
X-42300Y248694D02*
Y248095D01*
X-41100D01*
Y248694D01*
X-40500D01*
Y249894D01*
X-41100D01*
Y250495D01*
X-42300D01*
Y249894D01*
X-42900D01*
Y248694D01*
X-42300D01*
X-4700Y248400D02*
Y247400D01*
X-2700D01*
Y248400D01*
X-1700D01*
Y250400D01*
X-2700D01*
Y251400D01*
X-4700D01*
Y250400D01*
X-5700D01*
Y248400D01*
X-4700D01*
X-4300Y248800D02*
Y248200D01*
X-3100D01*
Y248800D01*
X-2500D01*
Y250000D01*
X-3100D01*
Y250600D01*
X-4300D01*
Y250000D01*
X-4900D01*
Y248800D01*
X-4300D01*
X-6709Y252260D02*
Y251260D01*
X-4709D01*
Y252260D01*
X-3709D01*
Y254260D01*
X-4709D01*
Y255260D01*
X-6709D01*
Y254260D01*
X-7709D01*
Y252260D01*
X-6709D01*
X-6309Y252660D02*
Y252060D01*
X-5109D01*
Y252660D01*
X-4509D01*
Y253860D01*
X-5109D01*
Y254460D01*
X-6309D01*
Y253860D01*
X-6909D01*
Y252660D01*
X-6309D01*
X-5331Y256985D02*
Y255985D01*
X-3331D01*
Y256985D01*
X-2331D01*
Y258985D01*
X-3331D01*
Y259985D01*
X-5331D01*
Y258985D01*
X-6331D01*
Y256985D01*
X-5331D01*
X-4931Y257385D02*
Y256785D01*
X-3731D01*
Y257385D01*
X-3131D01*
Y258585D01*
X-3731D01*
Y259185D01*
X-4931D01*
Y258585D01*
X-5531D01*
Y257385D01*
X-4931D01*
X-2083Y261414D02*
Y260414D01*
X-83D01*
Y261414D01*
X917D01*
Y263414D01*
X-83D01*
Y264414D01*
X-2083D01*
Y263414D01*
X-3083D01*
Y261414D01*
X-2083D01*
X-1683Y261814D02*
Y261214D01*
X-483D01*
Y261814D01*
X117D01*
Y263014D01*
X-483D01*
Y263614D01*
X-1683D01*
Y263014D01*
X-2283D01*
Y261814D01*
X-1683D01*
X-4051Y275293D02*
Y274293D01*
X-2051D01*
Y275293D01*
X-1051D01*
Y277293D01*
X-2051D01*
Y278293D01*
X-4051D01*
Y277293D01*
X-5051D01*
Y275293D01*
X-4051D01*
X-3651Y275693D02*
Y275093D01*
X-2451D01*
Y275693D01*
X-1851D01*
Y276893D01*
X-2451D01*
Y277493D01*
X-3651D01*
Y276893D01*
X-4251D01*
Y275693D01*
X-3651D01*
X-14583Y174197D02*
Y173197D01*
X-12583D01*
Y174197D01*
X-11583D01*
Y176197D01*
X-12583D01*
Y177197D01*
X-14583D01*
Y176197D01*
X-15583D01*
Y174197D01*
X-14583D01*
X-14183Y174597D02*
Y173997D01*
X-12983D01*
Y174597D01*
X-12383D01*
Y175797D01*
X-12983D01*
Y176397D01*
X-14183D01*
Y175797D01*
X-14783D01*
Y174597D01*
X-14183D01*
X-23000Y197895D02*
Y196895D01*
X-21000D01*
Y197895D01*
X-20000D01*
Y199894D01*
X-21000D01*
Y200894D01*
X-23000D01*
Y199894D01*
X-24000D01*
Y197895D01*
X-23000D01*
X-22600Y198294D02*
Y197695D01*
X-21400D01*
Y198294D01*
X-20800D01*
Y199495D01*
X-21400D01*
Y200095D01*
X-22600D01*
Y199495D01*
X-23200D01*
Y198294D01*
X-22600D01*
X-14976Y207071D02*
Y206071D01*
X-12976D01*
Y207071D01*
X-11976D01*
Y209071D01*
X-12976D01*
Y210071D01*
X-14976D01*
Y209071D01*
X-15976D01*
Y207071D01*
X-14976D01*
X-14576Y207471D02*
Y206871D01*
X-13376D01*
Y207471D01*
X-12776D01*
Y208671D01*
X-13376D01*
Y209271D01*
X-14576D01*
Y208671D01*
X-15176D01*
Y207471D01*
X-14576D01*
X-11100Y220500D02*
Y219500D01*
X-9100D01*
Y220500D01*
X-8100D01*
Y222500D01*
X-9100D01*
Y223500D01*
X-11100D01*
Y222500D01*
X-12100D01*
Y220500D01*
X-11100D01*
X-10700Y220900D02*
Y220300D01*
X-9500D01*
Y220900D01*
X-8900D01*
Y222100D01*
X-9500D01*
Y222700D01*
X-10700D01*
Y222100D01*
X-11300D01*
Y220900D01*
X-10700D01*
X-20193Y211894D02*
Y210894D01*
X-18193D01*
Y211894D01*
X-17193D01*
Y213894D01*
X-18193D01*
Y214894D01*
X-20193D01*
Y213894D01*
X-21193D01*
Y211894D01*
X-20193D01*
X-19793Y212294D02*
Y211694D01*
X-18593D01*
Y212294D01*
X-17993D01*
Y213494D01*
X-18593D01*
Y214094D01*
X-19793D01*
Y213494D01*
X-20393D01*
Y212294D01*
X-19793D01*
X-39091Y195358D02*
Y194358D01*
X-37091D01*
Y195358D01*
X-36091D01*
Y197358D01*
X-37091D01*
Y198358D01*
X-39091D01*
Y197358D01*
X-40091D01*
Y195358D01*
X-39091D01*
X-38691Y195758D02*
Y195158D01*
X-37491D01*
Y195758D01*
X-36891D01*
Y196958D01*
X-37491D01*
Y197558D01*
X-38691D01*
Y196958D01*
X-39291D01*
Y195758D01*
X-38691D01*
X25300Y205000D02*
Y204000D01*
X27300D01*
Y205000D01*
X28300D01*
Y207000D01*
X27300D01*
Y208000D01*
X25300D01*
Y207000D01*
X24300D01*
Y205000D01*
X25300D01*
X25700Y205400D02*
Y204800D01*
X26900D01*
Y205400D01*
X27500D01*
Y206600D01*
X26900D01*
Y207200D01*
X25700D01*
Y206600D01*
X25100D01*
Y205400D01*
X25700D01*
X36600Y178400D02*
Y177400D01*
X38600D01*
Y178400D01*
X39600D01*
Y180400D01*
X38600D01*
Y181400D01*
X36600D01*
Y180400D01*
X35600D01*
Y178400D01*
X36600D01*
X37000Y178800D02*
Y178200D01*
X38200D01*
Y178800D01*
X38800D01*
Y180000D01*
X38200D01*
Y180600D01*
X37000D01*
Y180000D01*
X36400D01*
Y178800D01*
X37000D01*
X14749Y189659D02*
Y188659D01*
X16749D01*
Y189659D01*
X17749D01*
Y191659D01*
X16749D01*
Y192659D01*
X14749D01*
Y191659D01*
X13749D01*
Y189659D01*
X14749D01*
X15149Y190059D02*
Y189459D01*
X16349D01*
Y190059D01*
X16949D01*
Y191259D01*
X16349D01*
Y191859D01*
X15149D01*
Y191259D01*
X14549D01*
Y190059D01*
X15149D01*
X-9600Y183900D02*
Y182900D01*
X-7600D01*
Y183900D01*
X-6600D01*
Y185900D01*
X-7600D01*
Y186900D01*
X-9600D01*
Y185900D01*
X-10600D01*
Y183900D01*
X-9600D01*
X-9200Y184300D02*
Y183700D01*
X-8000D01*
Y184300D01*
X-7400D01*
Y185500D01*
X-8000D01*
Y186100D01*
X-9200D01*
Y185500D01*
X-9800D01*
Y184300D01*
X-9200D01*
X23134Y170900D02*
Y169900D01*
X25134D01*
Y170900D01*
X26134D01*
Y172900D01*
X25134D01*
Y173900D01*
X23134D01*
Y172900D01*
X22134D01*
Y170900D01*
X23134D01*
X23534Y171300D02*
Y170700D01*
X24734D01*
Y171300D01*
X25334D01*
Y172500D01*
X24734D01*
Y173100D01*
X23534D01*
Y172500D01*
X22934D01*
Y171300D01*
X23534D01*
X10800Y177495D02*
Y176495D01*
X12800D01*
Y177495D01*
X13800D01*
Y179495D01*
X12800D01*
Y180494D01*
X10800D01*
Y179495D01*
X9800D01*
Y177495D01*
X10800D01*
X11200Y177894D02*
Y177295D01*
X12400D01*
Y177894D01*
X13000D01*
Y179095D01*
X12400D01*
Y179694D01*
X11200D01*
Y179095D01*
X10600D01*
Y177894D01*
X11200D01*
X6400Y202900D02*
Y201900D01*
X8400D01*
Y202900D01*
X9400D01*
Y204900D01*
X8400D01*
Y205900D01*
X6400D01*
Y204900D01*
X5400D01*
Y202900D01*
X6400D01*
X6800Y203300D02*
Y202700D01*
X8000D01*
Y203300D01*
X8600D01*
Y204500D01*
X8000D01*
Y205100D01*
X6800D01*
Y204500D01*
X6200D01*
Y203300D01*
X6800D01*
X4512Y193193D02*
Y192193D01*
X6512D01*
Y193193D01*
X7512D01*
Y195193D01*
X6512D01*
Y196193D01*
X4512D01*
Y195193D01*
X3512D01*
Y193193D01*
X4512D01*
X4912Y193593D02*
Y192993D01*
X6112D01*
Y193593D01*
X6712D01*
Y194793D01*
X6112D01*
Y195393D01*
X4912D01*
Y194793D01*
X4312D01*
Y193593D01*
X4912D01*
X25500Y180100D02*
Y179100D01*
X27500D01*
Y180100D01*
X28500D01*
Y182100D01*
X27500D01*
Y183100D01*
X25500D01*
Y182100D01*
X24500D01*
Y180100D01*
X25500D01*
X25900Y180500D02*
Y179900D01*
X27100D01*
Y180500D01*
X27700D01*
Y181700D01*
X27100D01*
Y182300D01*
X25900D01*
Y181700D01*
X25300D01*
Y180500D01*
X25900D01*
X14847Y186608D02*
Y185608D01*
X16847D01*
Y186608D01*
X17847D01*
Y188608D01*
X16847D01*
Y189608D01*
X14847D01*
Y188608D01*
X13847D01*
Y186608D01*
X14847D01*
X15247Y187008D02*
Y186408D01*
X16447D01*
Y187008D01*
X17047D01*
Y188208D01*
X16447D01*
Y188808D01*
X15247D01*
Y188208D01*
X14647D01*
Y187008D01*
X15247D01*
X10713Y186697D02*
Y185697D01*
X12713D01*
Y186697D01*
X13713D01*
Y188697D01*
X12713D01*
Y189697D01*
X10713D01*
Y188697D01*
X9713D01*
Y186697D01*
X10713D01*
X11113Y187097D02*
Y186497D01*
X12313D01*
Y187097D01*
X12913D01*
Y188297D01*
X12313D01*
Y188897D01*
X11113D01*
Y188297D01*
X10513D01*
Y187097D01*
X11113D01*
X6382Y182670D02*
Y181670D01*
X8382D01*
Y182670D01*
X9382D01*
Y184670D01*
X8382D01*
Y185670D01*
X6382D01*
Y184670D01*
X5382D01*
Y182670D01*
X6382D01*
X6782Y183070D02*
Y182470D01*
X7982D01*
Y183070D01*
X8582D01*
Y184270D01*
X7982D01*
Y184870D01*
X6782D01*
Y184270D01*
X6182D01*
Y183070D01*
X6782D01*
X6500Y178495D02*
Y177495D01*
X8500D01*
Y178495D01*
X9500D01*
Y180494D01*
X8500D01*
Y181494D01*
X6500D01*
Y180494D01*
X5500D01*
Y178495D01*
X6500D01*
X6900Y178894D02*
Y178295D01*
X8100D01*
Y178894D01*
X8700D01*
Y180095D01*
X8100D01*
Y180694D01*
X6900D01*
Y180095D01*
X6300D01*
Y178894D01*
X6900D01*
X-4740Y174492D02*
Y173492D01*
X-2740D01*
Y174492D01*
X-1740D01*
Y176492D01*
X-2740D01*
Y177492D01*
X-4740D01*
Y176492D01*
X-5740D01*
Y174492D01*
X-4740D01*
X-4340Y174892D02*
Y174292D01*
X-3140D01*
Y174892D01*
X-2540D01*
Y176092D01*
X-3140D01*
Y176692D01*
X-4340D01*
Y176092D01*
X-4940D01*
Y174892D01*
X-4340D01*
X-7103Y170957D02*
Y169957D01*
X-5103D01*
Y170957D01*
X-4103D01*
Y172957D01*
X-5103D01*
Y173957D01*
X-7103D01*
Y172957D01*
X-8103D01*
Y170957D01*
X-7103D01*
X-6703Y171357D02*
Y170757D01*
X-5503D01*
Y171357D01*
X-4903D01*
Y172557D01*
X-5503D01*
Y173157D01*
X-6703D01*
Y172557D01*
X-7303D01*
Y171357D01*
X-6703D01*
X2248Y180111D02*
Y179111D01*
X4248D01*
Y180111D01*
X5248D01*
Y182111D01*
X4248D01*
Y183111D01*
X2248D01*
Y182111D01*
X1248D01*
Y180111D01*
X2248D01*
X2648Y180511D02*
Y179911D01*
X3848D01*
Y180511D01*
X4448D01*
Y181711D01*
X3848D01*
Y182311D01*
X2648D01*
Y181711D01*
X2048D01*
Y180511D01*
X2648D01*
X-5300Y192100D02*
Y191100D01*
X-3300D01*
Y192100D01*
X-2300D01*
Y194100D01*
X-3300D01*
Y195100D01*
X-5300D01*
Y194100D01*
X-6300D01*
Y192100D01*
X-5300D01*
X-4900Y192500D02*
Y191900D01*
X-3700D01*
Y192500D01*
X-3100D01*
Y193700D01*
X-3700D01*
Y194300D01*
X-4900D01*
Y193700D01*
X-5500D01*
Y192500D01*
X-4900D01*
X1067Y189551D02*
Y188551D01*
X3067D01*
Y189551D01*
X4067D01*
Y191551D01*
X3067D01*
Y192551D01*
X1067D01*
Y191551D01*
X67D01*
Y189551D01*
X1067D01*
X1467Y189951D02*
Y189351D01*
X2667D01*
Y189951D01*
X3267D01*
Y191151D01*
X2667D01*
Y191751D01*
X1467D01*
Y191151D01*
X867D01*
Y189951D01*
X1467D01*
X4709Y185319D02*
Y184319D01*
X6709D01*
Y185319D01*
X7709D01*
Y187319D01*
X6709D01*
Y188319D01*
X4709D01*
Y187319D01*
X3709D01*
Y185319D01*
X4709D01*
X5109Y185719D02*
Y185119D01*
X6309D01*
Y185719D01*
X6909D01*
Y186919D01*
X6309D01*
Y187519D01*
X5109D01*
Y186919D01*
X4509D01*
Y185719D01*
X5109D01*
X-606Y184737D02*
Y183737D01*
X1394D01*
Y184737D01*
X2394D01*
Y186737D01*
X1394D01*
Y187737D01*
X-606D01*
Y186737D01*
X-1606D01*
Y184737D01*
X-606D01*
X-206Y185137D02*
Y184537D01*
X994D01*
Y185137D01*
X1594D01*
Y186337D01*
X994D01*
Y186937D01*
X-206D01*
Y186337D01*
X-806D01*
Y185137D01*
X-206D01*
X11796Y189462D02*
Y188462D01*
X13796D01*
Y189462D01*
X14796D01*
Y191462D01*
X13796D01*
Y192462D01*
X11796D01*
Y191462D01*
X10796D01*
Y189462D01*
X11796D01*
X12196Y189862D02*
Y189262D01*
X13396D01*
Y189862D01*
X13996D01*
Y191062D01*
X13396D01*
Y191662D01*
X12196D01*
Y191062D01*
X11596D01*
Y189862D01*
X12196D01*
X10615Y192415D02*
Y191415D01*
X12615D01*
Y192415D01*
X13615D01*
Y194415D01*
X12615D01*
Y195415D01*
X10615D01*
Y194415D01*
X9615D01*
Y192415D01*
X10615D01*
X11015Y192815D02*
Y192215D01*
X12215D01*
Y192815D01*
X12815D01*
Y194015D01*
X12215D01*
Y194615D01*
X11015D01*
Y194015D01*
X10415D01*
Y192815D01*
X11015D01*
X25300Y191200D02*
Y190200D01*
X27300D01*
Y191200D01*
X28300D01*
Y193200D01*
X27300D01*
Y194200D01*
X25300D01*
Y193200D01*
X24300D01*
Y191200D01*
X25300D01*
X25700Y191600D02*
Y191000D01*
X26900D01*
Y191600D01*
X27500D01*
Y192800D01*
X26900D01*
Y193400D01*
X25700D01*
Y192800D01*
X25100D01*
Y191600D01*
X25700D01*
X-4740Y46954D02*
Y45954D01*
X-2740D01*
Y46954D01*
X-1740D01*
Y48954D01*
X-2740D01*
Y49954D01*
X-4740D01*
Y48954D01*
X-5740D01*
Y46954D01*
X-4740D01*
X-4340Y47354D02*
Y46754D01*
X-3140D01*
Y47354D01*
X-2540D01*
Y48554D01*
X-3140D01*
Y49154D01*
X-4340D01*
Y48554D01*
X-4940D01*
Y47354D01*
X-4340D01*
X2740Y47035D02*
Y46035D01*
X4740D01*
Y47035D01*
X5740D01*
Y49035D01*
X4740D01*
Y50035D01*
X2740D01*
Y49035D01*
X1740D01*
Y47035D01*
X2740D01*
X3140Y47435D02*
Y46835D01*
X4340D01*
Y47435D01*
X4940D01*
Y48635D01*
X4340D01*
Y49235D01*
X3140D01*
Y48635D01*
X2540D01*
Y47435D01*
X3140D01*
X5100Y122200D02*
Y121200D01*
X7100D01*
Y122200D01*
X8100D01*
Y124200D01*
X7100D01*
Y125200D01*
X5100D01*
Y124200D01*
X4100D01*
Y122200D01*
X5100D01*
X5500Y122600D02*
Y122000D01*
X6700D01*
Y122600D01*
X7300D01*
Y123800D01*
X6700D01*
Y124400D01*
X5500D01*
Y123800D01*
X4900D01*
Y122600D01*
X5500D01*
X-7900Y119900D02*
Y118900D01*
X-5900D01*
Y119900D01*
X-4900D01*
Y121900D01*
X-5900D01*
Y122900D01*
X-7900D01*
Y121900D01*
X-8900D01*
Y119900D01*
X-7900D01*
X-7500Y120300D02*
Y119700D01*
X-6300D01*
Y120300D01*
X-5700D01*
Y121500D01*
X-6300D01*
Y122100D01*
X-7500D01*
Y121500D01*
X-8100D01*
Y120300D01*
X-7500D01*
X29700Y256500D02*
Y255500D01*
X31700D01*
Y256500D01*
X32700D01*
Y258500D01*
X31700D01*
Y259500D01*
X29700D01*
Y258500D01*
X28700D01*
Y256500D01*
X29700D01*
X30100Y256900D02*
Y256300D01*
X31300D01*
Y256900D01*
X31900D01*
Y258100D01*
X31300D01*
Y258700D01*
X30100D01*
Y258100D01*
X29500D01*
Y256900D01*
X30100D01*
X33100Y250700D02*
Y249700D01*
X35100D01*
Y250700D01*
X36100D01*
Y252700D01*
X35100D01*
Y253700D01*
X33100D01*
Y252700D01*
X32100D01*
Y250700D01*
X33100D01*
X33500Y251100D02*
Y250500D01*
X34700D01*
Y251100D01*
X35300D01*
Y252300D01*
X34700D01*
Y252900D01*
X33500D01*
Y252300D01*
X32900D01*
Y251100D01*
X33500D01*
X-33500Y425400D02*
Y424400D01*
X-31500D01*
Y425400D01*
X-30500D01*
Y427400D01*
X-31500D01*
Y428400D01*
X-33500D01*
Y427400D01*
X-34500D01*
Y425400D01*
X-33500D01*
X-33100Y425800D02*
Y425200D01*
X-31900D01*
Y425800D01*
X-31300D01*
Y427000D01*
X-31900D01*
Y427600D01*
X-33100D01*
Y427000D01*
X-33700D01*
Y425800D01*
X-33100D01*
X-36277Y523923D02*
Y522923D01*
X-34277D01*
Y523923D01*
X-33277D01*
Y525923D01*
X-34277D01*
Y526923D01*
X-36277D01*
Y525923D01*
X-37277D01*
Y523923D01*
X-36277D01*
X-35877Y524323D02*
Y523723D01*
X-34677D01*
Y524323D01*
X-34077D01*
Y525523D01*
X-34677D01*
Y526123D01*
X-35877D01*
Y525523D01*
X-36477D01*
Y524323D01*
X-35877D01*
X-17623Y159324D02*
Y158324D01*
X-15623D01*
Y159324D01*
X-14623D01*
Y161324D01*
X-15623D01*
Y162324D01*
X-17623D01*
Y161324D01*
X-18623D01*
Y159324D01*
X-17623D01*
X-17223Y159724D02*
Y159124D01*
X-16023D01*
Y159724D01*
X-15423D01*
Y160924D01*
X-16023D01*
Y161524D01*
X-17223D01*
Y160924D01*
X-17823D01*
Y159724D01*
X-17223D01*
X-20685Y162386D02*
Y161386D01*
X-18685D01*
Y162386D01*
X-17685D01*
Y164386D01*
X-18685D01*
Y165386D01*
X-20685D01*
Y164386D01*
X-21685D01*
Y162386D01*
X-20685D01*
X-20285Y162786D02*
Y162186D01*
X-19085D01*
Y162786D01*
X-18485D01*
Y163986D01*
X-19085D01*
Y164586D01*
X-20285D01*
Y163986D01*
X-20885D01*
Y162786D01*
X-20285D01*
X-20685Y156261D02*
Y155261D01*
X-18685D01*
Y156261D01*
X-17685D01*
Y158261D01*
X-18685D01*
Y159261D01*
X-20685D01*
Y158261D01*
X-21685D01*
Y156261D01*
X-20685D01*
X-20285Y156661D02*
Y156061D01*
X-19085D01*
Y156661D01*
X-18485D01*
Y157861D01*
X-19085D01*
Y158461D01*
X-20285D01*
Y157861D01*
X-20885D01*
Y156661D01*
X-20285D01*
X-23747Y159324D02*
Y158324D01*
X-21747D01*
Y159324D01*
X-20747D01*
Y161324D01*
X-21747D01*
Y162324D01*
X-23747D01*
Y161324D01*
X-24747D01*
Y159324D01*
X-23747D01*
X-23347Y159724D02*
Y159124D01*
X-22147D01*
Y159724D01*
X-21547D01*
Y160924D01*
X-22147D01*
Y161524D01*
X-23347D01*
Y160924D01*
X-23947D01*
Y159724D01*
X-23347D01*
X-26810Y162386D02*
Y161386D01*
X-24810D01*
Y162386D01*
X-23810D01*
Y164386D01*
X-24810D01*
Y165386D01*
X-26810D01*
Y164386D01*
X-27810D01*
Y162386D01*
X-26810D01*
X-26410Y162786D02*
Y162186D01*
X-25210D01*
Y162786D01*
X-24610D01*
Y163986D01*
X-25210D01*
Y164586D01*
X-26410D01*
Y163986D01*
X-27010D01*
Y162786D01*
X-26410D01*
X-23747Y165448D02*
Y164448D01*
X-21747D01*
Y165448D01*
X-20747D01*
Y167448D01*
X-21747D01*
Y168448D01*
X-23747D01*
Y167448D01*
X-24747D01*
Y165448D01*
X-23747D01*
X-23347Y165848D02*
Y165248D01*
X-22147D01*
Y165848D01*
X-21547D01*
Y167048D01*
X-22147D01*
Y167648D01*
X-23347D01*
Y167048D01*
X-23947D01*
Y165848D01*
X-23347D01*
X-17623Y165448D02*
Y164448D01*
X-15623D01*
Y165448D01*
X-14623D01*
Y167448D01*
X-15623D01*
Y168448D01*
X-17623D01*
Y167448D01*
X-18623D01*
Y165448D01*
X-17623D01*
X-17223Y165848D02*
Y165248D01*
X-16023D01*
Y165848D01*
X-15423D01*
Y167048D01*
X-16023D01*
Y167648D01*
X-17223D01*
Y167048D01*
X-17823D01*
Y165848D01*
X-17223D01*
X-20685Y168510D02*
Y167510D01*
X-18685D01*
Y168510D01*
X-17685D01*
Y170510D01*
X-18685D01*
Y171510D01*
X-20685D01*
Y170510D01*
X-21685D01*
Y168510D01*
X-20685D01*
X-20285Y168910D02*
Y168310D01*
X-19085D01*
Y168910D01*
X-18485D01*
Y170110D01*
X-19085D01*
Y170710D01*
X-20285D01*
Y170110D01*
X-20885D01*
Y168910D01*
X-20285D01*
X-25013Y234732D02*
Y233732D01*
X-23013D01*
Y234732D01*
X-22013D01*
Y236732D01*
X-23013D01*
Y237732D01*
X-25013D01*
Y236732D01*
X-26013D01*
Y234732D01*
X-25013D01*
X-24613Y235132D02*
Y234531D01*
X-23413D01*
Y235132D01*
X-22813D01*
Y236332D01*
X-23413D01*
Y236931D01*
X-24613D01*
Y236332D01*
X-25213D01*
Y235132D01*
X-24613D01*
X-25013Y230401D02*
Y229401D01*
X-23013D01*
Y230401D01*
X-22013D01*
Y232401D01*
X-23013D01*
Y233401D01*
X-25013D01*
Y232401D01*
X-26013D01*
Y230401D01*
X-25013D01*
X-24613Y230801D02*
Y230201D01*
X-23413D01*
Y230801D01*
X-22813D01*
Y232001D01*
X-23413D01*
Y232601D01*
X-24613D01*
Y232001D01*
X-25213D01*
Y230801D01*
X-24613D01*
X-25013Y239062D02*
Y238062D01*
X-23013D01*
Y239062D01*
X-22013D01*
Y241062D01*
X-23013D01*
Y242062D01*
X-25013D01*
Y241062D01*
X-26013D01*
Y239062D01*
X-25013D01*
X-24613Y239462D02*
Y238862D01*
X-23413D01*
Y239462D01*
X-22813D01*
Y240662D01*
X-23413D01*
Y241262D01*
X-24613D01*
Y240662D01*
X-25213D01*
Y239462D01*
X-24613D01*
X-33675Y239062D02*
Y238062D01*
X-31675D01*
Y239062D01*
X-30675D01*
Y241062D01*
X-31675D01*
Y242062D01*
X-33675D01*
Y241062D01*
X-34675D01*
Y239062D01*
X-33675D01*
X-33275Y239462D02*
Y238862D01*
X-32075D01*
Y239462D01*
X-31475D01*
Y240662D01*
X-32075D01*
Y241262D01*
X-33275D01*
Y240662D01*
X-33875D01*
Y239462D01*
X-33275D01*
X-33675Y234732D02*
Y233732D01*
X-31675D01*
Y234732D01*
X-30675D01*
Y236732D01*
X-31675D01*
Y237732D01*
X-33675D01*
Y236732D01*
X-34675D01*
Y234732D01*
X-33675D01*
X-33275Y235132D02*
Y234531D01*
X-32075D01*
Y235132D01*
X-31475D01*
Y236332D01*
X-32075D01*
Y236931D01*
X-33275D01*
Y236332D01*
X-33875D01*
Y235132D01*
X-33275D01*
X-33675Y230401D02*
Y229401D01*
X-31675D01*
Y230401D01*
X-30675D01*
Y232401D01*
X-31675D01*
Y233401D01*
X-33675D01*
Y232401D01*
X-34675D01*
Y230401D01*
X-33675D01*
X-33275Y230801D02*
Y230201D01*
X-32075D01*
Y230801D01*
X-31475D01*
Y232001D01*
X-32075D01*
Y232601D01*
X-33275D01*
Y232001D01*
X-33875D01*
Y230801D01*
X-33275D01*
X-29344Y239062D02*
Y238062D01*
X-27344D01*
Y239062D01*
X-26344D01*
Y241062D01*
X-27344D01*
Y242062D01*
X-29344D01*
Y241062D01*
X-30344D01*
Y239062D01*
X-29344D01*
X-28944Y239462D02*
Y238862D01*
X-27744D01*
Y239462D01*
X-27144D01*
Y240662D01*
X-27744D01*
Y241262D01*
X-28944D01*
Y240662D01*
X-29544D01*
Y239462D01*
X-28944D01*
X-29344Y234732D02*
Y233732D01*
X-27344D01*
Y234732D01*
X-26344D01*
Y236732D01*
X-27344D01*
Y237732D01*
X-29344D01*
Y236732D01*
X-30344D01*
Y234732D01*
X-29344D01*
X-28944Y235132D02*
Y234531D01*
X-27744D01*
Y235132D01*
X-27144D01*
Y236332D01*
X-27744D01*
Y236931D01*
X-28944D01*
Y236332D01*
X-29544D01*
Y235132D01*
X-28944D01*
X-29344Y230401D02*
Y229401D01*
X-27344D01*
Y230401D01*
X-26344D01*
Y232401D01*
X-27344D01*
Y233401D01*
X-29344D01*
Y232401D01*
X-30344D01*
Y230401D01*
X-29344D01*
X-28944Y230801D02*
Y230201D01*
X-27744D01*
Y230801D01*
X-27144D01*
Y232001D01*
X-27744D01*
Y232601D01*
X-28944D01*
Y232001D01*
X-29544D01*
Y230801D01*
X-28944D01*
X-49622Y375772D02*
Y374772D01*
X-47622D01*
Y375772D01*
X-46622D01*
Y377772D01*
X-47622D01*
Y378772D01*
X-49622D01*
Y377772D01*
X-50622D01*
Y375772D01*
X-49622D01*
X-49222Y376172D02*
Y375572D01*
X-48022D01*
Y376172D01*
X-47422D01*
Y377372D01*
X-48022D01*
Y377972D01*
X-49222D01*
Y377372D01*
X-49822D01*
Y376172D01*
X-49222D01*
X-49622Y380102D02*
Y379102D01*
X-47622D01*
Y380102D01*
X-46622D01*
Y382102D01*
X-47622D01*
Y383102D01*
X-49622D01*
Y382102D01*
X-50622D01*
Y380102D01*
X-49622D01*
X-49222Y380502D02*
Y379902D01*
X-48022D01*
Y380502D01*
X-47422D01*
Y381702D01*
X-48022D01*
Y382302D01*
X-49222D01*
Y381702D01*
X-49822D01*
Y380502D01*
X-49222D01*
X-45291Y375772D02*
Y374772D01*
X-43291D01*
Y375772D01*
X-42291D01*
Y377772D01*
X-43291D01*
Y378772D01*
X-45291D01*
Y377772D01*
X-46291D01*
Y375772D01*
X-45291D01*
X-44891Y376172D02*
Y375572D01*
X-43691D01*
Y376172D01*
X-43091D01*
Y377372D01*
X-43691D01*
Y377972D01*
X-44891D01*
Y377372D01*
X-45491D01*
Y376172D01*
X-44891D01*
X-45291Y380102D02*
Y379102D01*
X-43291D01*
Y380102D01*
X-42291D01*
Y382102D01*
X-43291D01*
Y383102D01*
X-45291D01*
Y382102D01*
X-46291D01*
Y380102D01*
X-45291D01*
X-44891Y380502D02*
Y379902D01*
X-43691D01*
Y380502D01*
X-43091D01*
Y381702D01*
X-43691D01*
Y382302D01*
X-44891D01*
Y381702D01*
X-45491D01*
Y380502D01*
X-44891D01*
X-40961Y375772D02*
Y374772D01*
X-38961D01*
Y375772D01*
X-37961D01*
Y377772D01*
X-38961D01*
Y378772D01*
X-40961D01*
Y377772D01*
X-41961D01*
Y375772D01*
X-40961D01*
X-40561Y376172D02*
Y375572D01*
X-39361D01*
Y376172D01*
X-38761D01*
Y377372D01*
X-39361D01*
Y377972D01*
X-40561D01*
Y377372D01*
X-41161D01*
Y376172D01*
X-40561D01*
X-40961Y380102D02*
Y379102D01*
X-38961D01*
Y380102D01*
X-37961D01*
Y382102D01*
X-38961D01*
Y383102D01*
X-40961D01*
Y382102D01*
X-41961D01*
Y380102D01*
X-40961D01*
X-40561Y380502D02*
Y379902D01*
X-39361D01*
Y380502D01*
X-38761D01*
Y381702D01*
X-39361D01*
Y382302D01*
X-40561D01*
Y381702D01*
X-41161D01*
Y380502D01*
X-40561D01*
X-20200Y368100D02*
Y367100D01*
X-18200D01*
Y368100D01*
X-17200D01*
Y370100D01*
X-18200D01*
Y371100D01*
X-20200D01*
Y370100D01*
X-21200D01*
Y368100D01*
X-20200D01*
X-19800Y368500D02*
Y367900D01*
X-18600D01*
Y368500D01*
X-18000D01*
Y369700D01*
X-18600D01*
Y370300D01*
X-19800D01*
Y369700D01*
X-20400D01*
Y368500D01*
X-19800D01*
X-26900Y358800D02*
Y357800D01*
X-24900D01*
Y358800D01*
X-23900D01*
Y360800D01*
X-24900D01*
Y361800D01*
X-26900D01*
Y360800D01*
X-27900D01*
Y358800D01*
X-26900D01*
X-26500Y359200D02*
Y358600D01*
X-25300D01*
Y359200D01*
X-24700D01*
Y360400D01*
X-25300D01*
Y361000D01*
X-26500D01*
Y360400D01*
X-27100D01*
Y359200D01*
X-26500D01*
X-2300Y211600D02*
Y210600D01*
X-300D01*
Y211600D01*
X700D01*
Y213600D01*
X-300D01*
Y214600D01*
X-2300D01*
Y213600D01*
X-3300D01*
Y211600D01*
X-2300D01*
X-1900Y212000D02*
Y211400D01*
X-700D01*
Y212000D01*
X-100D01*
Y213200D01*
X-700D01*
Y213800D01*
X-1900D01*
Y213200D01*
X-2500D01*
Y212000D01*
X-1900D01*
X7100Y221495D02*
Y220495D01*
X9100D01*
Y221495D01*
X10100D01*
Y223495D01*
X9100D01*
Y224495D01*
X7100D01*
Y223495D01*
X6100D01*
Y221495D01*
X7100D01*
X7500Y221895D02*
Y221294D01*
X8700D01*
Y221895D01*
X9300D01*
Y223095D01*
X8700D01*
Y223694D01*
X7500D01*
Y223095D01*
X6900D01*
Y221895D01*
X7500D01*
X13800Y209500D02*
Y208500D01*
X15800D01*
Y209500D01*
X16800D01*
Y211500D01*
X15800D01*
Y212500D01*
X13800D01*
Y211500D01*
X12800D01*
Y209500D01*
X13800D01*
X14200Y209900D02*
Y209300D01*
X15400D01*
Y209900D01*
X16000D01*
Y211100D01*
X15400D01*
Y211700D01*
X14200D01*
Y211100D01*
X13600D01*
Y209900D01*
X14200D01*
X11500Y204700D02*
Y203700D01*
X13500D01*
Y204700D01*
X14500D01*
Y206700D01*
X13500D01*
Y207700D01*
X11500D01*
Y206700D01*
X10500D01*
Y204700D01*
X11500D01*
X11900Y205100D02*
Y204500D01*
X13100D01*
Y205100D01*
X13700D01*
Y206300D01*
X13100D01*
Y206900D01*
X11900D01*
Y206300D01*
X11300D01*
Y205100D01*
X11900D01*
X15600Y221900D02*
Y220900D01*
X17600D01*
Y221900D01*
X18600D01*
Y223900D01*
X17600D01*
Y224900D01*
X15600D01*
Y223900D01*
X14600D01*
Y221900D01*
X15600D01*
X16000Y222300D02*
Y221700D01*
X17200D01*
Y222300D01*
X17800D01*
Y223500D01*
X17200D01*
Y224100D01*
X16000D01*
Y223500D01*
X15400D01*
Y222300D01*
X16000D01*
X13429Y250853D02*
Y249853D01*
X15428D01*
Y250853D01*
X16429D01*
Y252853D01*
X15428D01*
Y253853D01*
X13429D01*
Y252853D01*
X12428D01*
Y250853D01*
X13429D01*
X13828Y251253D02*
Y250653D01*
X15029D01*
Y251253D01*
X15629D01*
Y252453D01*
X15029D01*
Y253053D01*
X13828D01*
Y252453D01*
X13228D01*
Y251253D01*
X13828D01*
X12200Y253800D02*
Y252800D01*
X14200D01*
Y253800D01*
X15200D01*
Y255800D01*
X14200D01*
Y256800D01*
X12200D01*
Y255800D01*
X11200D01*
Y253800D01*
X12200D01*
X12600Y254200D02*
Y253600D01*
X13800D01*
Y254200D01*
X14400D01*
Y255400D01*
X13800D01*
Y256000D01*
X12600D01*
Y255400D01*
X12000D01*
Y254200D01*
X12600D01*
X16300Y215500D02*
Y214500D01*
X18300D01*
Y215500D01*
X19300D01*
Y217500D01*
X18300D01*
Y218500D01*
X16300D01*
Y217500D01*
X15300D01*
Y215500D01*
X16300D01*
X16700Y215900D02*
Y215300D01*
X17900D01*
Y215900D01*
X18500D01*
Y217100D01*
X17900D01*
Y217700D01*
X16700D01*
Y217100D01*
X16100D01*
Y215900D01*
X16700D01*
X-53600Y294600D02*
Y293600D01*
X-51600D01*
Y294600D01*
X-50600D01*
Y296600D01*
X-51600D01*
Y297600D01*
X-53600D01*
Y296600D01*
X-54600D01*
Y294600D01*
X-53600D01*
X-53200Y295000D02*
Y294400D01*
X-52000D01*
Y295000D01*
X-51400D01*
Y296200D01*
X-52000D01*
Y296800D01*
X-53200D01*
Y296200D01*
X-53800D01*
Y295000D01*
X-53200D01*
X-51523Y297200D02*
Y296200D01*
X-49523D01*
Y297200D01*
X-48523D01*
Y299200D01*
X-49523D01*
Y300200D01*
X-51523D01*
Y299200D01*
X-52523D01*
Y297200D01*
X-51523D01*
X-51123Y297600D02*
Y297000D01*
X-49923D01*
Y297600D01*
X-49323D01*
Y298800D01*
X-49923D01*
Y299400D01*
X-51123D01*
Y298800D01*
X-51723D01*
Y297600D01*
X-51123D01*
D189*
X-40700Y200694D02*
G03*
X-40700Y200694I-2000J0D01*
G01*
X-38700Y190894D02*
G03*
X-38700Y190894I-2000J0D01*
G01*
X-42627Y210523D02*
G03*
X-42627Y210523I-2000J0D01*
G01*
X-46512Y230142D02*
G03*
X-46512Y230142I-2000J0D01*
G01*
X-48454Y239952D02*
G03*
X-48454Y239952I-2000J0D01*
G01*
X-50396Y249761D02*
G03*
X-50396Y249761I-2000J0D01*
G01*
X-52339Y259571D02*
G03*
X-52339Y259571I-2000J0D01*
G01*
X-54281Y269380D02*
G03*
X-54281Y269380I-2000J0D01*
G01*
X-56223Y279190D02*
G03*
X-56223Y279190I-2000J0D01*
G01*
X-44569Y220333D02*
G03*
X-44569Y220333I-2000J0D01*
G01*
X-3289Y349778D02*
G03*
X-3289Y349778I-2000J0D01*
G01*
D190*
X-4089D02*
G03*
X-4089Y349778I-1200J0D01*
G01*
%TF.MD5,446436f1bc935810bd96b7346942695b*%
M02*
