G04 Layer_Color=8388736*
%FSLAX25Y25*%
%MOIN*%
%TF.FileFunction,Soldermask,Top*%
%TF.Part,Single*%
G01*
G75*
%TA.AperFunction,SMDPad,CuDef*%
%ADD79R,0.04737X0.04343*%
%ADD80R,0.04343X0.04540*%
%ADD81R,0.04343X0.04737*%
%ADD82R,0.05131X0.03359*%
G04:AMPARAMS|DCode=83|XSize=83mil|YSize=33mil|CornerRadius=0mil|HoleSize=0mil|Usage=FLASHONLY|Rotation=349.000|XOffset=0mil|YOffset=0mil|HoleType=Round|Shape=Round|*
%AMOVALD83*
21,1,0.05000,0.03300,0.00000,0.00000,349.0*
1,1,0.03300,-0.02454,0.00477*
1,1,0.03300,0.02454,-0.00477*
%
%ADD83OVALD83*%

%ADD84R,0.02965X0.16548*%
%ADD85R,0.04934X0.06312*%
%ADD86R,0.03162X0.06312*%
%ADD87R,0.03162X0.07887*%
G04:AMPARAMS|DCode=88|XSize=106.42mil|YSize=74.93mil|CornerRadius=20.73mil|HoleSize=0mil|Usage=FLASHONLY|Rotation=180.000|XOffset=0mil|YOffset=0mil|HoleType=Round|Shape=RoundedRectangle|*
%AMROUNDEDRECTD88*
21,1,0.10642,0.03347,0,0,180.0*
21,1,0.06496,0.07493,0,0,180.0*
1,1,0.04146,-0.03248,0.01673*
1,1,0.04146,0.03248,0.01673*
1,1,0.04146,0.03248,-0.01673*
1,1,0.04146,-0.03248,-0.01673*
%
%ADD88ROUNDEDRECTD88*%
G04:AMPARAMS|DCode=89|XSize=106.42mil|YSize=204.85mil|CornerRadius=28.61mil|HoleSize=0mil|Usage=FLASHONLY|Rotation=90.000|XOffset=0mil|YOffset=0mil|HoleType=Round|Shape=RoundedRectangle|*
%AMROUNDEDRECTD89*
21,1,0.10642,0.14764,0,0,90.0*
21,1,0.04921,0.20485,0,0,90.0*
1,1,0.05721,0.07382,0.02461*
1,1,0.05721,0.07382,-0.02461*
1,1,0.05721,-0.07382,-0.02461*
1,1,0.05721,-0.07382,0.02461*
%
%ADD89ROUNDEDRECTD89*%
%ADD90R,0.06706X0.04737*%
G04:AMPARAMS|DCode=91|XSize=59.18mil|YSize=362.33mil|CornerRadius=16.8mil|HoleSize=0mil|Usage=FLASHONLY|Rotation=180.000|XOffset=0mil|YOffset=0mil|HoleType=Round|Shape=RoundedRectangle|*
%AMROUNDEDRECTD91*
21,1,0.05918,0.32874,0,0,180.0*
21,1,0.02559,0.36233,0,0,180.0*
1,1,0.03359,-0.01279,0.16437*
1,1,0.03359,0.01279,0.16437*
1,1,0.03359,0.01279,-0.16437*
1,1,0.03359,-0.01279,-0.16437*
%
%ADD91ROUNDEDRECTD91*%
G04:AMPARAMS|DCode=92|XSize=78mil|YSize=413.51mil|CornerRadius=21.5mil|HoleSize=0mil|Usage=FLASHONLY|Rotation=180.000|XOffset=0mil|YOffset=0mil|HoleType=Round|Shape=RoundedRectangle|*
%AMROUNDEDRECTD92*
21,1,0.07800,0.37051,0,0,180.0*
21,1,0.03500,0.41351,0,0,180.0*
1,1,0.04300,-0.01750,0.18526*
1,1,0.04300,0.01750,0.18526*
1,1,0.04300,0.01750,-0.18526*
1,1,0.04300,-0.01750,-0.18526*
%
%ADD92ROUNDEDRECTD92*%
%ADD93O,0.03556X0.01981*%
%ADD94O,0.01981X0.03556*%
G04:AMPARAMS|DCode=95|XSize=17.84mil|YSize=39.5mil|CornerRadius=0mil|HoleSize=0mil|Usage=FLASHONLY|Rotation=225.000|XOffset=0mil|YOffset=0mil|HoleType=Round|Shape=Round|*
%AMOVALD95*
21,1,0.02165,0.01784,0.00000,0.00000,315.0*
1,1,0.01784,-0.00766,0.00766*
1,1,0.01784,0.00766,-0.00766*
%
%ADD95OVALD95*%

G04:AMPARAMS|DCode=96|XSize=17.84mil|YSize=39.5mil|CornerRadius=0mil|HoleSize=0mil|Usage=FLASHONLY|Rotation=135.000|XOffset=0mil|YOffset=0mil|HoleType=Round|Shape=Round|*
%AMOVALD96*
21,1,0.02165,0.01784,0.00000,0.00000,225.0*
1,1,0.01784,0.00766,0.00766*
1,1,0.01784,-0.00766,-0.00766*
%
%ADD96OVALD96*%

%ADD97P,0.19505X4X180.0*%
%ADD98R,0.01587X0.04540*%
%ADD99R,0.04540X0.01587*%
G04:AMPARAMS|DCode=100|XSize=17.84mil|YSize=31.62mil|CornerRadius=5.97mil|HoleSize=0mil|Usage=FLASHONLY|Rotation=180.000|XOffset=0mil|YOffset=0mil|HoleType=Round|Shape=RoundedRectangle|*
%AMROUNDEDRECTD100*
21,1,0.01784,0.01968,0,0,180.0*
21,1,0.00591,0.03162,0,0,180.0*
1,1,0.01194,-0.00295,0.00984*
1,1,0.01194,0.00295,0.00984*
1,1,0.01194,0.00295,-0.00984*
1,1,0.01194,-0.00295,-0.00984*
%
%ADD100ROUNDEDRECTD100*%
%ADD101R,0.03359X0.05131*%
G04:AMPARAMS|DCode=102|XSize=47.37mil|YSize=43.43mil|CornerRadius=0mil|HoleSize=0mil|Usage=FLASHONLY|Rotation=135.000|XOffset=0mil|YOffset=0mil|HoleType=Round|Shape=Rectangle|*
%AMROTATEDRECTD102*
4,1,4,0.03210,-0.00139,0.00139,-0.03210,-0.03210,0.00139,-0.00139,0.03210,0.03210,-0.00139,0.0*
%
%ADD102ROTATEDRECTD102*%

G04:AMPARAMS|DCode=103|XSize=47.37mil|YSize=43.43mil|CornerRadius=0mil|HoleSize=0mil|Usage=FLASHONLY|Rotation=225.000|XOffset=0mil|YOffset=0mil|HoleType=Round|Shape=Rectangle|*
%AMROTATEDRECTD103*
4,1,4,0.00139,0.03210,0.03210,0.00139,-0.00139,-0.03210,-0.03210,-0.00139,0.00139,0.03210,0.0*
%
%ADD103ROTATEDRECTD103*%

%ADD104R,0.04343X0.03556*%
%ADD105R,0.09068X0.05524*%
%ADD106R,0.05524X0.09068*%
G04:AMPARAMS|DCode=107|XSize=31.62mil|YSize=47.37mil|CornerRadius=6.95mil|HoleSize=0mil|Usage=FLASHONLY|Rotation=180.000|XOffset=0mil|YOffset=0mil|HoleType=Round|Shape=RoundedRectangle|*
%AMROUNDEDRECTD107*
21,1,0.03162,0.03347,0,0,180.0*
21,1,0.01772,0.04737,0,0,180.0*
1,1,0.01391,-0.00886,0.01673*
1,1,0.01391,0.00886,0.01673*
1,1,0.01391,0.00886,-0.01673*
1,1,0.01391,-0.00886,-0.01673*
%
%ADD107ROUNDEDRECTD107*%
%ADD108O,0.02572X0.06312*%
%ADD109R,0.04540X0.04343*%
%ADD110R,0.07887X0.05328*%
%ADD111R,0.13123X0.13123*%
%ADD112O,0.01587X0.04540*%
%ADD113O,0.04540X0.01587*%
%ADD114O,0.03162X0.06509*%
%ADD115R,0.14186X0.10642*%
G04:AMPARAMS|DCode=116|XSize=59.18mil|YSize=51.31mil|CornerRadius=8.33mil|HoleSize=0mil|Usage=FLASHONLY|Rotation=281.000|XOffset=0mil|YOffset=0mil|HoleType=Round|Shape=RoundedRectangle|*
%AMROUNDEDRECTD116*
21,1,0.05918,0.03465,0,0,281.0*
21,1,0.04252,0.05131,0,0,281.0*
1,1,0.01666,-0.01295,-0.02418*
1,1,0.01666,-0.02106,0.01756*
1,1,0.01666,0.01295,0.02418*
1,1,0.01666,0.02106,-0.01756*
%
%ADD116ROUNDEDRECTD116*%
G04:AMPARAMS|DCode=117|XSize=82.8mil|YSize=86.74mil|CornerRadius=0mil|HoleSize=0mil|Usage=FLASHONLY|Rotation=135.000|XOffset=0mil|YOffset=0mil|HoleType=Round|Shape=Rectangle|*
%AMROTATEDRECTD117*
4,1,4,0.05994,0.00139,-0.00139,-0.05994,-0.05994,-0.00139,0.00139,0.05994,0.05994,0.00139,0.0*
%
%ADD117ROTATEDRECTD117*%

G04:AMPARAMS|DCode=118|XSize=51.31mil|YSize=86.74mil|CornerRadius=0mil|HoleSize=0mil|Usage=FLASHONLY|Rotation=315.000|XOffset=0mil|YOffset=0mil|HoleType=Round|Shape=Rectangle|*
%AMROTATEDRECTD118*
4,1,4,-0.04881,-0.01253,0.01253,0.04881,0.04881,0.01253,-0.01253,-0.04881,-0.04881,-0.01253,0.0*
%
%ADD118ROTATEDRECTD118*%

%ADD119R,0.02768X0.03753*%
%ADD120R,0.03556X0.05524*%
%ADD121R,0.05524X0.04737*%
%ADD122R,0.07493X0.07493*%
%ADD123O,0.03162X0.07493*%
%ADD124O,0.03359X0.07296*%
%TA.AperFunction,Conductor*%
%ADD125C,0.03300*%
%TA.AperFunction,ComponentPad*%
%ADD126O,0.08674X0.06312*%
%TA.AperFunction,ViaPad*%
%ADD127C,0.08674*%
%TA.AperFunction,ComponentPad*%
%ADD128C,0.06800*%
%ADD129O,0.06800X0.10737*%
%ADD130C,0.03300*%
%TA.AperFunction,WasherPad*%
%ADD131C,0.00800*%
%TA.AperFunction,ComponentPad*%
%ADD132C,0.00800*%
%ADD133C,0.08674*%
%TA.AperFunction,ViaPad*%
%ADD134C,0.02768*%
%TA.AperFunction,NonConductor*%
G04:AMPARAMS|DCode=135|XSize=60.83mil|YSize=86.74mil|CornerRadius=0mil|HoleSize=0mil|Usage=FLASHONLY|Rotation=11.000|XOffset=0mil|YOffset=0mil|HoleType=Round|Shape=Rectangle|*
%AMROTATEDRECTD135*
4,1,4,-0.02158,-0.04838,-0.03813,0.03677,0.02158,0.04838,0.03813,-0.03677,-0.02158,-0.04838,0.0*
%
%ADD135ROTATEDRECTD135*%

G04:AMPARAMS|DCode=136|XSize=60.7mil|YSize=86.61mil|CornerRadius=0mil|HoleSize=0mil|Usage=FLASHONLY|Rotation=11.000|XOffset=0mil|YOffset=0mil|HoleType=Round|Shape=Rectangle|*
%AMROTATEDRECTD136*
4,1,4,-0.02153,-0.04830,-0.03806,0.03672,0.02153,0.04830,0.03806,-0.03672,-0.02153,-0.04830,0.0*
%
%ADD136ROTATEDRECTD136*%

G36*
X20324Y386329D02*
X20406D01*
X20508Y386322D01*
X20617Y386308D01*
X20739Y386295D01*
X20868Y386281D01*
X21003Y386261D01*
X21295Y386206D01*
X21594Y386125D01*
X21744Y386077D01*
X21893Y386023D01*
X21900Y386016D01*
X21927Y386010D01*
X21968Y385989D01*
X22022Y385969D01*
X22083Y385935D01*
X22158Y385894D01*
X22246Y385847D01*
X22334Y385799D01*
X22531Y385677D01*
X22728Y385527D01*
X22925Y385351D01*
X23013Y385256D01*
X23102Y385154D01*
X23108Y385147D01*
X23122Y385127D01*
X23142Y385100D01*
X23176Y385052D01*
X23210Y384998D01*
X23251Y384930D01*
X23299Y384855D01*
X23353Y384767D01*
X23407Y384665D01*
X23461Y384557D01*
X23516Y384441D01*
X23570Y384312D01*
X23624Y384176D01*
X23679Y384027D01*
X23726Y383871D01*
X23774Y383708D01*
X22721Y383422D01*
Y383429D01*
X22715Y383450D01*
X22701Y383490D01*
X22687Y383531D01*
X22667Y383592D01*
X22647Y383653D01*
X22619Y383728D01*
X22586Y383810D01*
X22511Y383979D01*
X22429Y384156D01*
X22334Y384326D01*
X22226Y384482D01*
Y384489D01*
X22212Y384502D01*
X22198Y384523D01*
X22171Y384543D01*
X22104Y384618D01*
X22008Y384706D01*
X21893Y384801D01*
X21750Y384903D01*
X21581Y385005D01*
X21384Y385100D01*
X21377D01*
X21357Y385113D01*
X21329Y385120D01*
X21289Y385140D01*
X21234Y385154D01*
X21173Y385174D01*
X21105Y385195D01*
X21031Y385222D01*
X20942Y385242D01*
X20847Y385263D01*
X20644Y385303D01*
X20413Y385331D01*
X20168Y385337D01*
X20094D01*
X20032Y385331D01*
X19965D01*
X19883Y385324D01*
X19795Y385317D01*
X19693Y385310D01*
X19591Y385297D01*
X19476Y385276D01*
X19245Y385236D01*
X19007Y385174D01*
X18783Y385093D01*
X18776D01*
X18756Y385079D01*
X18729Y385066D01*
X18688Y385045D01*
X18634Y385025D01*
X18579Y384998D01*
X18444Y384923D01*
X18294Y384828D01*
X18138Y384719D01*
X17982Y384590D01*
X17839Y384448D01*
X17833Y384441D01*
X17826Y384427D01*
X17805Y384407D01*
X17778Y384380D01*
X17751Y384339D01*
X17717Y384298D01*
X17636Y384190D01*
X17547Y384061D01*
X17452Y383918D01*
X17364Y383755D01*
X17283Y383579D01*
X17276Y383572D01*
X17269Y383545D01*
X17255Y383497D01*
X17228Y383436D01*
X17208Y383361D01*
X17181Y383266D01*
X17147Y383165D01*
X17120Y383049D01*
X17086Y382920D01*
X17059Y382784D01*
X17025Y382635D01*
X17004Y382479D01*
X16984Y382323D01*
X16963Y382153D01*
X16957Y381976D01*
X16950Y381800D01*
Y381786D01*
Y381745D01*
Y381684D01*
X16957Y381603D01*
X16963Y381501D01*
X16970Y381385D01*
X16984Y381250D01*
X16997Y381107D01*
X17025Y380958D01*
X17045Y380802D01*
X17079Y380632D01*
X17120Y380469D01*
X17167Y380299D01*
X17221Y380136D01*
X17283Y379980D01*
X17350Y379824D01*
X17357Y379817D01*
X17371Y379790D01*
X17391Y379749D01*
X17425Y379695D01*
X17466Y379627D01*
X17520Y379552D01*
X17581Y379471D01*
X17649Y379376D01*
X17731Y379281D01*
X17819Y379186D01*
X17914Y379090D01*
X18023Y378989D01*
X18138Y378894D01*
X18260Y378805D01*
X18389Y378717D01*
X18532Y378642D01*
X18539Y378636D01*
X18566Y378629D01*
X18607Y378608D01*
X18668Y378581D01*
X18742Y378554D01*
X18824Y378520D01*
X18926Y378486D01*
X19034Y378452D01*
X19150Y378418D01*
X19279Y378384D01*
X19415Y378350D01*
X19557Y378323D01*
X19870Y378276D01*
X20026Y378269D01*
X20189Y378262D01*
X20263D01*
X20318Y378269D01*
X20386D01*
X20467Y378276D01*
X20555Y378289D01*
X20657Y378296D01*
X20766Y378316D01*
X20881Y378330D01*
X21133Y378384D01*
X21397Y378452D01*
X21669Y378547D01*
X21676Y378554D01*
X21703Y378561D01*
X21737Y378574D01*
X21791Y378602D01*
X21852Y378622D01*
X21920Y378656D01*
X21995Y378697D01*
X22076Y378737D01*
X22260Y378826D01*
X22443Y378934D01*
X22613Y379050D01*
X22694Y379111D01*
X22769Y379172D01*
Y380815D01*
X20168D01*
Y381854D01*
X23910D01*
Y378581D01*
X23903Y378574D01*
X23869Y378554D01*
X23821Y378513D01*
X23760Y378466D01*
X23679Y378412D01*
X23591Y378344D01*
X23482Y378276D01*
X23366Y378194D01*
X23237Y378113D01*
X23095Y378031D01*
X22952Y377943D01*
X22796Y377855D01*
X22470Y377692D01*
X22300Y377617D01*
X22131Y377549D01*
X22117Y377542D01*
X22090Y377536D01*
X22042Y377515D01*
X21974Y377495D01*
X21886Y377468D01*
X21791Y377441D01*
X21676Y377413D01*
X21553Y377379D01*
X21418Y377345D01*
X21268Y377318D01*
X21112Y377291D01*
X20949Y377264D01*
X20610Y377223D01*
X20433Y377217D01*
X20250Y377210D01*
X20196D01*
X20121Y377217D01*
X20032D01*
X19917Y377230D01*
X19781Y377237D01*
X19632Y377257D01*
X19469Y377278D01*
X19292Y377311D01*
X19102Y377345D01*
X18905Y377393D01*
X18709Y377447D01*
X18498Y377508D01*
X18294Y377583D01*
X18091Y377671D01*
X17887Y377766D01*
X17873Y377773D01*
X17839Y377794D01*
X17785Y377828D01*
X17710Y377868D01*
X17622Y377929D01*
X17520Y377997D01*
X17412Y378079D01*
X17289Y378174D01*
X17160Y378282D01*
X17031Y378405D01*
X16895Y378534D01*
X16767Y378683D01*
X16637Y378839D01*
X16509Y379002D01*
X16393Y379186D01*
X16284Y379376D01*
X16278Y379389D01*
X16264Y379423D01*
X16237Y379484D01*
X16203Y379559D01*
X16162Y379661D01*
X16115Y379776D01*
X16067Y379912D01*
X16020Y380062D01*
X15965Y380231D01*
X15918Y380415D01*
X15870Y380605D01*
X15830Y380808D01*
X15796Y381026D01*
X15768Y381250D01*
X15755Y381487D01*
X15748Y381725D01*
Y381732D01*
Y381739D01*
Y381759D01*
Y381786D01*
X15755Y381854D01*
Y381942D01*
X15762Y382058D01*
X15775Y382193D01*
X15796Y382343D01*
X15816Y382513D01*
X15843Y382689D01*
X15877Y382879D01*
X15925Y383076D01*
X15972Y383287D01*
X16033Y383490D01*
X16108Y383708D01*
X16189Y383918D01*
X16284Y384129D01*
X16291Y384142D01*
X16312Y384176D01*
X16339Y384237D01*
X16386Y384312D01*
X16441Y384407D01*
X16509Y384509D01*
X16590Y384631D01*
X16678Y384760D01*
X16780Y384889D01*
X16895Y385025D01*
X17025Y385168D01*
X17167Y385303D01*
X17316Y385439D01*
X17473Y385568D01*
X17649Y385684D01*
X17833Y385792D01*
X17846Y385799D01*
X17880Y385813D01*
X17934Y385840D01*
X18009Y385880D01*
X18111Y385921D01*
X18220Y385962D01*
X18355Y386016D01*
X18505Y386064D01*
X18668Y386111D01*
X18844Y386166D01*
X19041Y386206D01*
X19245Y386254D01*
X19455Y386288D01*
X19686Y386315D01*
X19917Y386329D01*
X20162Y386335D01*
X20257D01*
X20324Y386329D01*
D02*
G37*
G36*
X44225Y383884D02*
X44307Y383877D01*
X44388Y383871D01*
X44483Y383864D01*
X44687Y383837D01*
X44911Y383803D01*
X45135Y383749D01*
X45352Y383674D01*
X45359D01*
X45380Y383667D01*
X45407Y383653D01*
X45447Y383633D01*
X45495Y383613D01*
X45549Y383586D01*
X45672Y383518D01*
X45807Y383436D01*
X45950Y383334D01*
X46079Y383219D01*
X46140Y383151D01*
X46194Y383083D01*
Y383076D01*
X46208Y383069D01*
X46222Y383042D01*
X46242Y383015D01*
X46262Y382981D01*
X46289Y382934D01*
X46317Y382879D01*
X46344Y382825D01*
X46378Y382757D01*
X46405Y382682D01*
X46439Y382601D01*
X46473Y382513D01*
X46527Y382316D01*
X46575Y382099D01*
X45515Y381956D01*
Y381963D01*
X45509Y381976D01*
Y382003D01*
X45502Y382037D01*
X45488Y382078D01*
X45475Y382126D01*
X45434Y382234D01*
X45380Y382357D01*
X45305Y382486D01*
X45210Y382608D01*
X45094Y382723D01*
X45088D01*
X45081Y382737D01*
X45061Y382750D01*
X45033Y382764D01*
X44993Y382791D01*
X44952Y382811D01*
X44897Y382839D01*
X44843Y382866D01*
X44775Y382886D01*
X44701Y382913D01*
X44619Y382940D01*
X44531Y382961D01*
X44436Y382974D01*
X44334Y382988D01*
X44225Y383001D01*
X44042D01*
X43988Y382995D01*
X43927D01*
X43859Y382988D01*
X43777Y382981D01*
X43696Y382968D01*
X43519Y382940D01*
X43343Y382893D01*
X43180Y382832D01*
X43112Y382798D01*
X43044Y382750D01*
X43030Y382737D01*
X42996Y382710D01*
X42942Y382655D01*
X42888Y382587D01*
X42827Y382499D01*
X42772Y382404D01*
X42738Y382295D01*
X42731Y382234D01*
X42725Y382173D01*
Y382166D01*
Y382139D01*
X42731Y382099D01*
X42738Y382044D01*
X42759Y381990D01*
X42779Y381922D01*
X42813Y381861D01*
X42854Y381793D01*
X42860Y381786D01*
X42881Y381766D01*
X42915Y381732D01*
X42956Y381691D01*
X43017Y381650D01*
X43085Y381603D01*
X43173Y381555D01*
X43268Y381508D01*
X43275D01*
X43309Y381494D01*
X43329Y381487D01*
X43363Y381474D01*
X43404Y381467D01*
X43451Y381453D01*
X43505Y381433D01*
X43573Y381413D01*
X43655Y381392D01*
X43743Y381365D01*
X43845Y381338D01*
X43960Y381304D01*
X44089Y381270D01*
X44232Y381229D01*
X44246D01*
X44280Y381216D01*
X44341Y381202D01*
X44422Y381182D01*
X44510Y381155D01*
X44619Y381121D01*
X44741Y381087D01*
X44864Y381053D01*
X45128Y380971D01*
X45393Y380890D01*
X45522Y380849D01*
X45638Y380808D01*
X45746Y380768D01*
X45834Y380727D01*
X45841D01*
X45855Y380720D01*
X45875Y380707D01*
X45909Y380693D01*
X45950Y380673D01*
X45991Y380645D01*
X46093Y380584D01*
X46208Y380503D01*
X46330Y380401D01*
X46446Y380286D01*
X46547Y380156D01*
Y380150D01*
X46561Y380143D01*
X46575Y380123D01*
X46588Y380089D01*
X46609Y380055D01*
X46629Y380014D01*
X46656Y379960D01*
X46683Y379905D01*
X46731Y379769D01*
X46771Y379613D01*
X46799Y379430D01*
X46812Y379233D01*
Y379226D01*
Y379206D01*
Y379179D01*
X46806Y379138D01*
Y379090D01*
X46799Y379036D01*
X46785Y378975D01*
X46771Y378900D01*
X46738Y378744D01*
X46676Y378574D01*
X46602Y378398D01*
X46547Y378303D01*
X46493Y378215D01*
X46486Y378208D01*
X46480Y378194D01*
X46459Y378167D01*
X46432Y378133D01*
X46398Y378099D01*
X46364Y378052D01*
X46317Y377997D01*
X46262Y377943D01*
X46194Y377889D01*
X46126Y377828D01*
X46052Y377766D01*
X45970Y377705D01*
X45787Y377583D01*
X45577Y377474D01*
X45570D01*
X45549Y377461D01*
X45515Y377454D01*
X45475Y377434D01*
X45414Y377413D01*
X45352Y377393D01*
X45271Y377373D01*
X45189Y377345D01*
X45094Y377318D01*
X44986Y377298D01*
X44877Y377278D01*
X44762Y377257D01*
X44504Y377230D01*
X44232Y377217D01*
X44178D01*
X44110Y377223D01*
X44028D01*
X43920Y377230D01*
X43804Y377244D01*
X43668Y377257D01*
X43526Y377284D01*
X43376Y377311D01*
X43220Y377345D01*
X43057Y377386D01*
X42901Y377434D01*
X42745Y377495D01*
X42596Y377563D01*
X42453Y377644D01*
X42324Y377732D01*
X42317Y377739D01*
X42297Y377760D01*
X42263Y377787D01*
X42222Y377828D01*
X42168Y377882D01*
X42107Y377950D01*
X42046Y378031D01*
X41978Y378119D01*
X41903Y378221D01*
X41835Y378337D01*
X41767Y378459D01*
X41699Y378595D01*
X41638Y378744D01*
X41584Y378907D01*
X41537Y379084D01*
X41496Y379267D01*
X42568Y379437D01*
Y379430D01*
X42575Y379410D01*
X42582Y379376D01*
X42589Y379328D01*
X42603Y379274D01*
X42616Y379213D01*
X42636Y379145D01*
X42664Y379070D01*
X42731Y378914D01*
X42820Y378744D01*
X42874Y378663D01*
X42928Y378588D01*
X42996Y378513D01*
X43071Y378446D01*
X43078Y378439D01*
X43091Y378432D01*
X43112Y378412D01*
X43146Y378391D01*
X43193Y378364D01*
X43241Y378337D01*
X43302Y378310D01*
X43370Y378276D01*
X43451Y378242D01*
X43533Y378215D01*
X43628Y378187D01*
X43730Y378160D01*
X43845Y378140D01*
X43960Y378119D01*
X44089Y378113D01*
X44225Y378106D01*
X44300D01*
X44348Y378113D01*
X44409D01*
X44483Y378119D01*
X44558Y378133D01*
X44646Y378147D01*
X44823Y378181D01*
X45006Y378235D01*
X45183Y378310D01*
X45257Y378350D01*
X45332Y378405D01*
X45339Y378412D01*
X45346Y378418D01*
X45386Y378459D01*
X45447Y378520D01*
X45515Y378608D01*
X45583Y378710D01*
X45644Y378833D01*
X45685Y378968D01*
X45692Y379043D01*
X45699Y379118D01*
Y379124D01*
Y379131D01*
Y379152D01*
X45692Y379179D01*
X45685Y379247D01*
X45658Y379328D01*
X45624Y379423D01*
X45563Y379518D01*
X45488Y379607D01*
X45434Y379654D01*
X45380Y379695D01*
X45366Y379702D01*
X45352Y379708D01*
X45332Y379722D01*
X45298Y379736D01*
X45264Y379756D01*
X45217Y379776D01*
X45156Y379797D01*
X45088Y379824D01*
X45006Y379851D01*
X44918Y379878D01*
X44816Y379912D01*
X44701Y379946D01*
X44572Y379987D01*
X44422Y380021D01*
X44266Y380062D01*
X44252Y380068D01*
X44212Y380075D01*
X44151Y380089D01*
X44069Y380116D01*
X43974Y380136D01*
X43865Y380170D01*
X43743Y380204D01*
X43614Y380245D01*
X43336Y380326D01*
X43064Y380415D01*
X42935Y380455D01*
X42813Y380503D01*
X42704Y380544D01*
X42609Y380584D01*
X42603D01*
X42589Y380598D01*
X42568Y380605D01*
X42535Y380625D01*
X42453Y380673D01*
X42351Y380740D01*
X42243Y380829D01*
X42127Y380931D01*
X42012Y381053D01*
X41917Y381189D01*
Y381195D01*
X41910Y381209D01*
X41896Y381229D01*
X41883Y381257D01*
X41862Y381291D01*
X41842Y381338D01*
X41801Y381440D01*
X41754Y381569D01*
X41720Y381718D01*
X41693Y381874D01*
X41679Y382051D01*
Y382058D01*
Y382071D01*
Y382092D01*
Y382126D01*
X41686Y382160D01*
X41693Y382200D01*
X41706Y382309D01*
X41727Y382431D01*
X41761Y382560D01*
X41808Y382703D01*
X41869Y382839D01*
Y382845D01*
X41876Y382852D01*
X41890Y382873D01*
X41903Y382900D01*
X41951Y382968D01*
X42012Y383049D01*
X42086Y383144D01*
X42182Y383246D01*
X42283Y383348D01*
X42406Y383443D01*
X42419Y383450D01*
X42453Y383477D01*
X42507Y383511D01*
X42589Y383552D01*
X42684Y383599D01*
X42799Y383653D01*
X42935Y383708D01*
X43091Y383755D01*
X43098D01*
X43112Y383762D01*
X43139Y383769D01*
X43166Y383776D01*
X43207Y383789D01*
X43261Y383796D01*
X43315Y383810D01*
X43376Y383823D01*
X43519Y383850D01*
X43675Y383871D01*
X43852Y383884D01*
X44035Y383891D01*
X44164D01*
X44225Y383884D01*
D02*
G37*
G36*
X50845D02*
X50934Y383877D01*
X51042Y383864D01*
X51151Y383843D01*
X51280Y383823D01*
X51409Y383796D01*
X51545Y383762D01*
X51688Y383721D01*
X51830Y383667D01*
X51973Y383606D01*
X52109Y383538D01*
X52244Y383456D01*
X52373Y383361D01*
X52380Y383355D01*
X52400Y383334D01*
X52434Y383307D01*
X52482Y383266D01*
X52536Y383212D01*
X52597Y383144D01*
X52658Y383069D01*
X52733Y382981D01*
X52801Y382879D01*
X52876Y382771D01*
X52944Y382648D01*
X53018Y382513D01*
X53079Y382370D01*
X53141Y382214D01*
X53188Y382051D01*
X53229Y381874D01*
X52176Y381712D01*
Y381718D01*
X52170Y381739D01*
X52163Y381773D01*
X52149Y381813D01*
X52129Y381868D01*
X52109Y381929D01*
X52054Y382071D01*
X51980Y382227D01*
X51884Y382390D01*
X51776Y382540D01*
X51708Y382614D01*
X51640Y382676D01*
X51633Y382682D01*
X51620Y382689D01*
X51599Y382703D01*
X51572Y382730D01*
X51538Y382750D01*
X51491Y382778D01*
X51443Y382811D01*
X51382Y382839D01*
X51246Y382900D01*
X51090Y382954D01*
X50913Y382988D01*
X50818Y382995D01*
X50717Y383001D01*
X50683D01*
X50635Y382995D01*
X50581D01*
X50513Y382981D01*
X50431Y382968D01*
X50343Y382954D01*
X50241Y382927D01*
X50139Y382900D01*
X50031Y382859D01*
X49922Y382811D01*
X49807Y382750D01*
X49698Y382682D01*
X49589Y382608D01*
X49488Y382513D01*
X49386Y382411D01*
X49379Y382404D01*
X49365Y382384D01*
X49338Y382350D01*
X49304Y382302D01*
X49270Y382234D01*
X49223Y382160D01*
X49182Y382065D01*
X49134Y381963D01*
X49087Y381840D01*
X49039Y381705D01*
X48992Y381549D01*
X48958Y381385D01*
X48924Y381202D01*
X48897Y380998D01*
X48883Y380788D01*
X48876Y380557D01*
Y380550D01*
Y380544D01*
Y380523D01*
Y380503D01*
X48883Y380435D01*
Y380347D01*
X48890Y380238D01*
X48904Y380116D01*
X48917Y379987D01*
X48937Y379837D01*
X48965Y379688D01*
X48999Y379532D01*
X49033Y379376D01*
X49080Y379220D01*
X49141Y379070D01*
X49202Y378934D01*
X49277Y378799D01*
X49365Y378683D01*
X49372Y378676D01*
X49386Y378656D01*
X49420Y378629D01*
X49454Y378595D01*
X49508Y378547D01*
X49562Y378500D01*
X49637Y378446D01*
X49712Y378398D01*
X49800Y378344D01*
X49895Y378289D01*
X50004Y378242D01*
X50119Y378194D01*
X50241Y378160D01*
X50370Y378133D01*
X50513Y378113D01*
X50655Y378106D01*
X50717D01*
X50764Y378113D01*
X50818Y378119D01*
X50880Y378126D01*
X50954Y378140D01*
X51029Y378153D01*
X51199Y378201D01*
X51287Y378235D01*
X51375Y378269D01*
X51463Y378316D01*
X51552Y378364D01*
X51640Y378425D01*
X51722Y378493D01*
X51728Y378500D01*
X51742Y378513D01*
X51762Y378534D01*
X51789Y378568D01*
X51823Y378608D01*
X51864Y378663D01*
X51905Y378724D01*
X51952Y378792D01*
X51993Y378873D01*
X52041Y378961D01*
X52088Y379063D01*
X52129Y379172D01*
X52170Y379287D01*
X52210Y379416D01*
X52237Y379552D01*
X52265Y379702D01*
X53331Y379559D01*
Y379545D01*
X53324Y379511D01*
X53310Y379450D01*
X53290Y379376D01*
X53270Y379287D01*
X53236Y379179D01*
X53202Y379057D01*
X53154Y378934D01*
X53100Y378799D01*
X53032Y378656D01*
X52964Y378513D01*
X52876Y378371D01*
X52788Y378228D01*
X52679Y378086D01*
X52563Y377957D01*
X52434Y377834D01*
X52428Y377828D01*
X52400Y377807D01*
X52360Y377780D01*
X52305Y377739D01*
X52237Y377692D01*
X52149Y377637D01*
X52054Y377583D01*
X51946Y377529D01*
X51823Y377468D01*
X51688Y377413D01*
X51545Y377359D01*
X51389Y377311D01*
X51219Y377271D01*
X51042Y377244D01*
X50859Y377223D01*
X50669Y377217D01*
X50608D01*
X50540Y377223D01*
X50452Y377230D01*
X50336Y377244D01*
X50207Y377264D01*
X50065Y377291D01*
X49909Y377325D01*
X49746Y377366D01*
X49576Y377427D01*
X49399Y377495D01*
X49223Y377576D01*
X49046Y377678D01*
X48876Y377787D01*
X48713Y377923D01*
X48557Y378072D01*
X48551Y378086D01*
X48523Y378113D01*
X48483Y378160D01*
X48435Y378228D01*
X48374Y378316D01*
X48306Y378425D01*
X48231Y378554D01*
X48164Y378697D01*
X48089Y378866D01*
X48014Y379050D01*
X47946Y379247D01*
X47885Y379464D01*
X47838Y379702D01*
X47797Y379960D01*
X47770Y380231D01*
X47763Y380523D01*
Y380537D01*
Y380571D01*
Y380625D01*
X47770Y380700D01*
X47776Y380788D01*
X47783Y380890D01*
X47790Y381012D01*
X47804Y381141D01*
X47824Y381277D01*
X47844Y381419D01*
X47905Y381725D01*
X47946Y381881D01*
X47994Y382037D01*
X48041Y382187D01*
X48102Y382336D01*
X48109Y382343D01*
X48116Y382370D01*
X48136Y382411D01*
X48170Y382465D01*
X48204Y382526D01*
X48252Y382601D01*
X48299Y382682D01*
X48360Y382771D01*
X48435Y382866D01*
X48510Y382961D01*
X48598Y383056D01*
X48693Y383151D01*
X48795Y383246D01*
X48904Y383334D01*
X49019Y383422D01*
X49148Y383497D01*
X49155Y383504D01*
X49182Y383518D01*
X49216Y383531D01*
X49270Y383558D01*
X49338Y383586D01*
X49413Y383619D01*
X49501Y383660D01*
X49603Y383694D01*
X49712Y383728D01*
X49827Y383769D01*
X49956Y383803D01*
X50085Y383830D01*
X50228Y383857D01*
X50370Y383877D01*
X50520Y383884D01*
X50676Y383891D01*
X50778D01*
X50845Y383884D01*
D02*
G37*
G36*
X30645Y377359D02*
X29674D01*
Y378296D01*
X29667Y378282D01*
X29640Y378249D01*
X29600Y378194D01*
X29539Y378126D01*
X29464Y378045D01*
X29369Y377957D01*
X29260Y377855D01*
X29138Y377760D01*
X29002Y377658D01*
X28853Y377556D01*
X28683Y377468D01*
X28500Y377386D01*
X28310Y377318D01*
X28099Y377264D01*
X27882Y377230D01*
X27644Y377217D01*
X27590D01*
X27549Y377223D01*
X27501D01*
X27440Y377230D01*
X27373Y377237D01*
X27298Y377244D01*
X27135Y377271D01*
X26958Y377305D01*
X26775Y377359D01*
X26585Y377427D01*
X26578D01*
X26564Y377441D01*
X26537Y377447D01*
X26503Y377468D01*
X26463Y377488D01*
X26415Y377515D01*
X26313Y377576D01*
X26191Y377658D01*
X26076Y377746D01*
X25960Y377855D01*
X25858Y377970D01*
Y377977D01*
X25852Y377984D01*
X25838Y378004D01*
X25818Y378031D01*
X25777Y378099D01*
X25729Y378194D01*
X25675Y378316D01*
X25621Y378452D01*
X25566Y378608D01*
X25526Y378778D01*
Y378785D01*
Y378792D01*
X25519Y378812D01*
Y378839D01*
X25512Y378873D01*
X25505Y378914D01*
X25499Y378968D01*
Y379023D01*
X25492Y379090D01*
X25485Y379165D01*
X25478Y379247D01*
X25471Y379342D01*
Y379437D01*
X25464Y379545D01*
Y379668D01*
Y379790D01*
Y383749D01*
X26551D01*
Y380204D01*
Y380197D01*
Y380170D01*
Y380123D01*
Y380068D01*
Y380000D01*
X26558Y379919D01*
Y379837D01*
Y379742D01*
X26564Y379552D01*
X26578Y379362D01*
X26585Y379274D01*
X26592Y379192D01*
X26599Y379118D01*
X26612Y379057D01*
Y379050D01*
X26619Y379036D01*
X26626Y379016D01*
X26632Y378989D01*
X26660Y378907D01*
X26707Y378812D01*
X26761Y378703D01*
X26836Y378595D01*
X26931Y378486D01*
X27047Y378384D01*
X27053D01*
X27060Y378378D01*
X27081Y378364D01*
X27108Y378350D01*
X27176Y378310D01*
X27271Y378269D01*
X27393Y378221D01*
X27529Y378187D01*
X27685Y378160D01*
X27861Y378147D01*
X27909D01*
X27943Y378153D01*
X27990D01*
X28038Y378160D01*
X28160Y378181D01*
X28296Y378208D01*
X28452Y378249D01*
X28608Y378310D01*
X28771Y378391D01*
X28778D01*
X28792Y378405D01*
X28812Y378418D01*
X28839Y378439D01*
X28914Y378493D01*
X29009Y378568D01*
X29104Y378670D01*
X29206Y378785D01*
X29301Y378921D01*
X29376Y379070D01*
Y379077D01*
X29382Y379090D01*
X29396Y379118D01*
X29403Y379152D01*
X29416Y379199D01*
X29437Y379254D01*
X29450Y379315D01*
X29471Y379389D01*
X29484Y379471D01*
X29498Y379566D01*
X29518Y379668D01*
X29532Y379783D01*
X29545Y379899D01*
X29552Y380034D01*
X29559Y380170D01*
Y380319D01*
Y383749D01*
X30645D01*
Y377359D01*
D02*
G37*
G36*
X55347Y383008D02*
X55354Y383015D01*
X55381Y383049D01*
X55422Y383090D01*
X55483Y383144D01*
X55558Y383212D01*
X55646Y383287D01*
X55748Y383368D01*
X55870Y383450D01*
X55999Y383531D01*
X56142Y383613D01*
X56305Y383687D01*
X56468Y383755D01*
X56651Y383810D01*
X56841Y383850D01*
X57045Y383884D01*
X57255Y383891D01*
X57323D01*
X57371Y383884D01*
X57439D01*
X57507Y383877D01*
X57588Y383871D01*
X57676Y383857D01*
X57866Y383823D01*
X58070Y383769D01*
X58281Y383701D01*
X58484Y383606D01*
X58491D01*
X58505Y383592D01*
X58532Y383579D01*
X58573Y383552D01*
X58613Y383524D01*
X58661Y383490D01*
X58776Y383402D01*
X58899Y383294D01*
X59021Y383165D01*
X59136Y383008D01*
X59184Y382920D01*
X59231Y382832D01*
Y382825D01*
X59238Y382811D01*
X59252Y382778D01*
X59265Y382744D01*
X59285Y382689D01*
X59306Y382628D01*
X59326Y382553D01*
X59347Y382472D01*
X59367Y382377D01*
X59387Y382268D01*
X59408Y382153D01*
X59428Y382024D01*
X59442Y381888D01*
X59455Y381739D01*
X59462Y381576D01*
Y381406D01*
Y377359D01*
X58376D01*
Y381406D01*
Y381413D01*
Y381440D01*
Y381481D01*
X58369Y381542D01*
X58362Y381610D01*
X58355Y381684D01*
X58349Y381766D01*
X58335Y381861D01*
X58287Y382051D01*
X58226Y382248D01*
X58185Y382343D01*
X58138Y382431D01*
X58084Y382513D01*
X58023Y382587D01*
X58016Y382594D01*
X58009Y382601D01*
X57989Y382621D01*
X57955Y382648D01*
X57921Y382676D01*
X57880Y382703D01*
X57826Y382737D01*
X57765Y382778D01*
X57697Y382811D01*
X57629Y382845D01*
X57547Y382873D01*
X57459Y382900D01*
X57357Y382927D01*
X57255Y382947D01*
X57147Y382954D01*
X57031Y382961D01*
X56984D01*
X56950Y382954D01*
X56909D01*
X56855Y382947D01*
X56739Y382927D01*
X56597Y382900D01*
X56447Y382852D01*
X56284Y382791D01*
X56121Y382710D01*
X56115D01*
X56101Y382696D01*
X56081Y382682D01*
X56054Y382662D01*
X55979Y382608D01*
X55891Y382533D01*
X55789Y382431D01*
X55694Y382316D01*
X55598Y382180D01*
X55524Y382031D01*
Y382024D01*
X55517Y382010D01*
X55510Y381983D01*
X55497Y381949D01*
X55483Y381908D01*
X55470Y381854D01*
X55449Y381793D01*
X55436Y381725D01*
X55422Y381644D01*
X55402Y381555D01*
X55388Y381460D01*
X55374Y381352D01*
X55361Y381236D01*
X55354Y381114D01*
X55347Y380985D01*
Y380849D01*
Y377359D01*
X54261D01*
Y386179D01*
X55347D01*
Y383008D01*
D02*
G37*
G36*
X37979Y383884D02*
X38060D01*
X38148Y383877D01*
X38243Y383864D01*
X38454Y383843D01*
X38678Y383810D01*
X38895Y383762D01*
X38997Y383728D01*
X39099Y383694D01*
X39106D01*
X39119Y383687D01*
X39146Y383674D01*
X39180Y383660D01*
X39228Y383640D01*
X39275Y383619D01*
X39384Y383565D01*
X39513Y383490D01*
X39635Y383409D01*
X39751Y383314D01*
X39852Y383212D01*
X39866Y383198D01*
X39893Y383158D01*
X39934Y383097D01*
X39981Y383008D01*
X40043Y382907D01*
X40097Y382778D01*
X40151Y382635D01*
X40192Y382472D01*
Y382458D01*
X40199Y382445D01*
Y382418D01*
X40206Y382384D01*
X40212Y382343D01*
Y382295D01*
X40219Y382241D01*
X40226Y382180D01*
X40233Y382105D01*
Y382024D01*
X40240Y381936D01*
Y381834D01*
X40246Y381725D01*
Y381603D01*
Y381474D01*
Y380034D01*
Y380028D01*
Y380021D01*
Y379994D01*
Y379966D01*
Y379932D01*
Y379892D01*
Y379790D01*
Y379674D01*
X40253Y379539D01*
Y379389D01*
Y379233D01*
X40260Y378907D01*
X40267Y378744D01*
X40273Y378595D01*
X40280Y378452D01*
X40294Y378323D01*
X40301Y378215D01*
X40314Y378126D01*
Y378119D01*
X40321Y378106D01*
Y378086D01*
X40328Y378058D01*
X40335Y378025D01*
X40348Y377984D01*
X40375Y377882D01*
X40409Y377766D01*
X40464Y377631D01*
X40518Y377495D01*
X40593Y377359D01*
X39459D01*
Y377366D01*
X39452Y377373D01*
X39445Y377393D01*
X39432Y377420D01*
X39404Y377488D01*
X39370Y377583D01*
X39330Y377699D01*
X39296Y377834D01*
X39262Y377984D01*
X39241Y378147D01*
X39235Y378140D01*
X39214Y378126D01*
X39180Y378099D01*
X39140Y378065D01*
X39085Y378018D01*
X39024Y377970D01*
X38949Y377923D01*
X38868Y377861D01*
X38691Y377746D01*
X38495Y377624D01*
X38291Y377515D01*
X38182Y377461D01*
X38080Y377420D01*
X38074D01*
X38053Y377413D01*
X38026Y377400D01*
X37985Y377386D01*
X37931Y377373D01*
X37870Y377359D01*
X37802Y377339D01*
X37727Y377318D01*
X37639Y377298D01*
X37551Y377284D01*
X37347Y377250D01*
X37130Y377223D01*
X36892Y377217D01*
X36845D01*
X36790Y377223D01*
X36722D01*
X36634Y377230D01*
X36532Y377244D01*
X36417Y377257D01*
X36295Y377278D01*
X36166Y377305D01*
X36037Y377339D01*
X35901Y377379D01*
X35765Y377434D01*
X35636Y377488D01*
X35507Y377556D01*
X35385Y377637D01*
X35276Y377726D01*
X35269Y377732D01*
X35249Y377753D01*
X35222Y377780D01*
X35188Y377821D01*
X35147Y377868D01*
X35100Y377929D01*
X35045Y378004D01*
X34998Y378086D01*
X34943Y378174D01*
X34889Y378276D01*
X34841Y378384D01*
X34801Y378500D01*
X34767Y378622D01*
X34740Y378758D01*
X34719Y378894D01*
X34712Y379043D01*
Y379050D01*
Y379063D01*
Y379090D01*
X34719Y379124D01*
Y379165D01*
X34726Y379213D01*
X34740Y379328D01*
X34767Y379457D01*
X34801Y379600D01*
X34855Y379749D01*
X34923Y379899D01*
Y379905D01*
X34930Y379919D01*
X34943Y379939D01*
X34964Y379960D01*
X35011Y380034D01*
X35072Y380123D01*
X35154Y380218D01*
X35249Y380319D01*
X35357Y380421D01*
X35480Y380516D01*
X35487D01*
X35493Y380530D01*
X35514Y380537D01*
X35541Y380557D01*
X35616Y380598D01*
X35711Y380652D01*
X35826Y380707D01*
X35955Y380768D01*
X36105Y380829D01*
X36261Y380876D01*
X36267D01*
X36274Y380883D01*
X36295D01*
X36322Y380890D01*
X36356Y380897D01*
X36396Y380903D01*
X36444Y380917D01*
X36498Y380931D01*
X36566Y380937D01*
X36634Y380951D01*
X36716Y380965D01*
X36797Y380978D01*
X36892Y380992D01*
X36994Y381012D01*
X37103Y381026D01*
X37218Y381039D01*
X37232D01*
X37252Y381046D01*
X37279D01*
X37340Y381053D01*
X37435Y381066D01*
X37544Y381080D01*
X37666Y381100D01*
X37802Y381121D01*
X37951Y381148D01*
X38107Y381168D01*
X38264Y381202D01*
X38590Y381263D01*
X38746Y381297D01*
X38888Y381331D01*
X39031Y381372D01*
X39153Y381413D01*
Y381419D01*
Y381447D01*
Y381487D01*
X39160Y381528D01*
Y381623D01*
Y381664D01*
Y381691D01*
Y381698D01*
Y381718D01*
Y381752D01*
X39153Y381800D01*
Y381854D01*
X39146Y381915D01*
X39119Y382058D01*
X39085Y382214D01*
X39031Y382363D01*
X38949Y382506D01*
X38902Y382567D01*
X38848Y382621D01*
X38841Y382628D01*
X38827Y382635D01*
X38807Y382655D01*
X38773Y382682D01*
X38725Y382710D01*
X38671Y382737D01*
X38610Y382771D01*
X38542Y382811D01*
X38454Y382845D01*
X38366Y382879D01*
X38264Y382907D01*
X38155Y382934D01*
X38033Y382961D01*
X37904Y382981D01*
X37768Y382988D01*
X37619Y382995D01*
X37544D01*
X37496Y382988D01*
X37429D01*
X37354Y382981D01*
X37279Y382974D01*
X37191Y382961D01*
X37007Y382927D01*
X36817Y382879D01*
X36641Y382811D01*
X36559Y382771D01*
X36485Y382723D01*
X36478D01*
X36471Y382710D01*
X36451Y382696D01*
X36424Y382669D01*
X36396Y382642D01*
X36362Y382601D01*
X36322Y382560D01*
X36281Y382506D01*
X36240Y382445D01*
X36200Y382377D01*
X36152Y382302D01*
X36111Y382214D01*
X36070Y382119D01*
X36030Y382017D01*
X35989Y381902D01*
X35955Y381779D01*
X34896Y381922D01*
Y381929D01*
X34903Y381949D01*
X34909Y381990D01*
X34923Y382037D01*
X34937Y382092D01*
X34957Y382160D01*
X34984Y382234D01*
X35011Y382316D01*
X35072Y382486D01*
X35154Y382669D01*
X35249Y382852D01*
X35364Y383015D01*
X35371Y383022D01*
X35378Y383035D01*
X35398Y383056D01*
X35425Y383083D01*
X35459Y383117D01*
X35500Y383158D01*
X35555Y383205D01*
X35609Y383253D01*
X35670Y383307D01*
X35745Y383355D01*
X35826Y383409D01*
X35908Y383463D01*
X36003Y383518D01*
X36105Y383565D01*
X36206Y383619D01*
X36322Y383660D01*
X36329D01*
X36349Y383667D01*
X36383Y383681D01*
X36430Y383694D01*
X36492Y383715D01*
X36566Y383735D01*
X36648Y383755D01*
X36736Y383776D01*
X36838Y383796D01*
X36953Y383816D01*
X37069Y383837D01*
X37198Y383857D01*
X37333Y383871D01*
X37476Y383884D01*
X37775Y383891D01*
X37911D01*
X37979Y383884D01*
D02*
G37*
G36*
X33402Y377359D02*
X32316D01*
Y386179D01*
X33402D01*
Y377359D01*
D02*
G37*
G36*
X32981Y374435D02*
X33062Y374429D01*
X33144Y374422D01*
X33239Y374415D01*
X33443Y374388D01*
X33667Y374354D01*
X33891Y374300D01*
X34108Y374225D01*
X34115D01*
X34135Y374218D01*
X34163Y374205D01*
X34203Y374184D01*
X34251Y374164D01*
X34305Y374137D01*
X34427Y374069D01*
X34563Y373987D01*
X34706Y373885D01*
X34835Y373770D01*
X34896Y373702D01*
X34950Y373634D01*
Y373627D01*
X34964Y373621D01*
X34977Y373593D01*
X34998Y373566D01*
X35018Y373532D01*
X35045Y373485D01*
X35072Y373430D01*
X35100Y373376D01*
X35133Y373308D01*
X35161Y373234D01*
X35195Y373152D01*
X35228Y373064D01*
X35283Y372867D01*
X35330Y372650D01*
X34271Y372507D01*
Y372514D01*
X34264Y372527D01*
Y372555D01*
X34258Y372588D01*
X34244Y372629D01*
X34230Y372677D01*
X34190Y372785D01*
X34135Y372908D01*
X34061Y373037D01*
X33966Y373159D01*
X33850Y373274D01*
X33843D01*
X33837Y373288D01*
X33816Y373302D01*
X33789Y373315D01*
X33748Y373342D01*
X33708Y373363D01*
X33653Y373390D01*
X33599Y373417D01*
X33531Y373437D01*
X33456Y373464D01*
X33375Y373492D01*
X33287Y373512D01*
X33191Y373526D01*
X33090Y373539D01*
X32981Y373553D01*
X32798D01*
X32743Y373546D01*
X32682D01*
X32614Y373539D01*
X32533Y373532D01*
X32451Y373519D01*
X32275Y373492D01*
X32098Y373444D01*
X31935Y373383D01*
X31868Y373349D01*
X31800Y373302D01*
X31786Y373288D01*
X31752Y373261D01*
X31698Y373206D01*
X31643Y373138D01*
X31582Y373050D01*
X31528Y372955D01*
X31494Y372847D01*
X31487Y372785D01*
X31481Y372724D01*
Y372718D01*
Y372690D01*
X31487Y372650D01*
X31494Y372595D01*
X31514Y372541D01*
X31535Y372473D01*
X31569Y372412D01*
X31609Y372344D01*
X31616Y372337D01*
X31637Y372317D01*
X31671Y372283D01*
X31711Y372242D01*
X31772Y372201D01*
X31840Y372154D01*
X31929Y372107D01*
X32024Y372059D01*
X32030D01*
X32064Y372045D01*
X32085Y372039D01*
X32119Y372025D01*
X32160Y372018D01*
X32207Y372005D01*
X32261Y371984D01*
X32329Y371964D01*
X32411Y371943D01*
X32499Y371916D01*
X32601Y371889D01*
X32716Y371855D01*
X32845Y371821D01*
X32988Y371780D01*
X33001D01*
X33035Y371767D01*
X33097Y371753D01*
X33178Y371733D01*
X33266Y371706D01*
X33375Y371672D01*
X33497Y371638D01*
X33619Y371604D01*
X33884Y371522D01*
X34149Y371441D01*
X34278Y371400D01*
X34393Y371360D01*
X34502Y371319D01*
X34590Y371278D01*
X34597D01*
X34611Y371271D01*
X34631Y371258D01*
X34665Y371244D01*
X34706Y371224D01*
X34746Y371197D01*
X34848Y371135D01*
X34964Y371054D01*
X35086Y370952D01*
X35201Y370837D01*
X35303Y370708D01*
Y370701D01*
X35317Y370694D01*
X35330Y370674D01*
X35344Y370640D01*
X35364Y370606D01*
X35385Y370565D01*
X35412Y370511D01*
X35439Y370457D01*
X35487Y370321D01*
X35527Y370164D01*
X35555Y369981D01*
X35568Y369784D01*
Y369777D01*
Y369757D01*
Y369730D01*
X35561Y369689D01*
Y369642D01*
X35555Y369587D01*
X35541Y369526D01*
X35527Y369452D01*
X35493Y369295D01*
X35432Y369126D01*
X35357Y368949D01*
X35303Y368854D01*
X35249Y368766D01*
X35242Y368759D01*
X35235Y368745D01*
X35215Y368718D01*
X35188Y368684D01*
X35154Y368650D01*
X35120Y368603D01*
X35072Y368548D01*
X35018Y368494D01*
X34950Y368440D01*
X34882Y368379D01*
X34808Y368318D01*
X34726Y368256D01*
X34543Y368134D01*
X34332Y368026D01*
X34326D01*
X34305Y368012D01*
X34271Y368005D01*
X34230Y367985D01*
X34169Y367965D01*
X34108Y367944D01*
X34027Y367924D01*
X33945Y367897D01*
X33850Y367869D01*
X33742Y367849D01*
X33633Y367829D01*
X33518Y367808D01*
X33259Y367781D01*
X32988Y367768D01*
X32934D01*
X32866Y367774D01*
X32784D01*
X32675Y367781D01*
X32560Y367795D01*
X32424Y367808D01*
X32282Y367836D01*
X32132Y367863D01*
X31976Y367897D01*
X31813Y367937D01*
X31657Y367985D01*
X31501Y368046D01*
X31351Y368114D01*
X31209Y368195D01*
X31080Y368284D01*
X31073Y368290D01*
X31053Y368311D01*
X31019Y368338D01*
X30978Y368379D01*
X30924Y368433D01*
X30863Y368501D01*
X30801Y368583D01*
X30734Y368671D01*
X30659Y368773D01*
X30591Y368888D01*
X30523Y369010D01*
X30455Y369146D01*
X30394Y369295D01*
X30340Y369458D01*
X30292Y369635D01*
X30252Y369818D01*
X31324Y369988D01*
Y369981D01*
X31331Y369961D01*
X31338Y369927D01*
X31345Y369879D01*
X31358Y369825D01*
X31372Y369764D01*
X31392Y369696D01*
X31419Y369621D01*
X31487Y369465D01*
X31576Y369295D01*
X31630Y369214D01*
X31684Y369139D01*
X31752Y369064D01*
X31827Y368997D01*
X31833Y368990D01*
X31847Y368983D01*
X31868Y368963D01*
X31901Y368942D01*
X31949Y368915D01*
X31997Y368888D01*
X32058Y368861D01*
X32125Y368827D01*
X32207Y368793D01*
X32289Y368766D01*
X32383Y368739D01*
X32485Y368711D01*
X32601Y368691D01*
X32716Y368671D01*
X32845Y368664D01*
X32981Y368657D01*
X33056D01*
X33103Y368664D01*
X33164D01*
X33239Y368671D01*
X33314Y368684D01*
X33402Y368698D01*
X33579Y368732D01*
X33762Y368786D01*
X33938Y368861D01*
X34013Y368902D01*
X34088Y368956D01*
X34095Y368963D01*
X34101Y368969D01*
X34142Y369010D01*
X34203Y369071D01*
X34271Y369160D01*
X34339Y369262D01*
X34400Y369384D01*
X34441Y369519D01*
X34448Y369594D01*
X34455Y369669D01*
Y369676D01*
Y369682D01*
Y369703D01*
X34448Y369730D01*
X34441Y369798D01*
X34414Y369879D01*
X34380Y369974D01*
X34319Y370070D01*
X34244Y370158D01*
X34190Y370205D01*
X34135Y370246D01*
X34122Y370253D01*
X34108Y370260D01*
X34088Y370273D01*
X34054Y370287D01*
X34020Y370307D01*
X33972Y370327D01*
X33911Y370348D01*
X33843Y370375D01*
X33762Y370402D01*
X33674Y370429D01*
X33572Y370463D01*
X33456Y370497D01*
X33327Y370538D01*
X33178Y370572D01*
X33022Y370613D01*
X33008Y370620D01*
X32967Y370626D01*
X32906Y370640D01*
X32825Y370667D01*
X32730Y370687D01*
X32621Y370721D01*
X32499Y370755D01*
X32370Y370796D01*
X32092Y370878D01*
X31820Y370966D01*
X31691Y371006D01*
X31569Y371054D01*
X31460Y371095D01*
X31365Y371135D01*
X31358D01*
X31345Y371149D01*
X31324Y371156D01*
X31290Y371176D01*
X31209Y371224D01*
X31107Y371292D01*
X30998Y371380D01*
X30883Y371482D01*
X30768Y371604D01*
X30672Y371740D01*
Y371747D01*
X30666Y371760D01*
X30652Y371780D01*
X30639Y371808D01*
X30618Y371842D01*
X30598Y371889D01*
X30557Y371991D01*
X30509Y372120D01*
X30476Y372269D01*
X30448Y372426D01*
X30435Y372602D01*
Y372609D01*
Y372622D01*
Y372643D01*
Y372677D01*
X30442Y372711D01*
X30448Y372751D01*
X30462Y372860D01*
X30482Y372982D01*
X30516Y373111D01*
X30564Y373254D01*
X30625Y373390D01*
Y373397D01*
X30632Y373403D01*
X30645Y373424D01*
X30659Y373451D01*
X30706Y373519D01*
X30768Y373600D01*
X30842Y373695D01*
X30937Y373797D01*
X31039Y373899D01*
X31161Y373994D01*
X31175Y374001D01*
X31209Y374028D01*
X31263Y374062D01*
X31345Y374103D01*
X31440Y374150D01*
X31555Y374205D01*
X31691Y374259D01*
X31847Y374306D01*
X31854D01*
X31868Y374313D01*
X31895Y374320D01*
X31922Y374327D01*
X31962Y374340D01*
X32017Y374347D01*
X32071Y374361D01*
X32132Y374374D01*
X32275Y374401D01*
X32431Y374422D01*
X32608Y374435D01*
X32791Y374442D01*
X32920D01*
X32981Y374435D01*
D02*
G37*
G36*
X28989Y367910D02*
X28018D01*
Y368847D01*
X28011Y368834D01*
X27984Y368800D01*
X27943Y368745D01*
X27882Y368677D01*
X27807Y368596D01*
X27712Y368508D01*
X27603Y368406D01*
X27481Y368311D01*
X27345Y368209D01*
X27196Y368107D01*
X27026Y368019D01*
X26843Y367937D01*
X26653Y367869D01*
X26442Y367815D01*
X26225Y367781D01*
X25987Y367768D01*
X25933D01*
X25892Y367774D01*
X25845D01*
X25784Y367781D01*
X25716Y367788D01*
X25641Y367795D01*
X25478Y367822D01*
X25302Y367856D01*
X25118Y367910D01*
X24928Y367978D01*
X24921D01*
X24908Y367992D01*
X24881Y367999D01*
X24847Y368019D01*
X24806Y368039D01*
X24758Y368066D01*
X24656Y368127D01*
X24534Y368209D01*
X24419Y368297D01*
X24303Y368406D01*
X24202Y368521D01*
Y368528D01*
X24195Y368535D01*
X24181Y368555D01*
X24161Y368583D01*
X24120Y368650D01*
X24073Y368745D01*
X24018Y368868D01*
X23964Y369003D01*
X23910Y369160D01*
X23869Y369329D01*
Y369336D01*
Y369343D01*
X23862Y369363D01*
Y369391D01*
X23855Y369424D01*
X23848Y369465D01*
X23842Y369519D01*
Y369574D01*
X23835Y369642D01*
X23828Y369716D01*
X23821Y369798D01*
X23814Y369893D01*
Y369988D01*
X23808Y370097D01*
Y370219D01*
Y370341D01*
Y374300D01*
X24894D01*
Y370755D01*
Y370748D01*
Y370721D01*
Y370674D01*
Y370620D01*
Y370551D01*
X24901Y370470D01*
Y370389D01*
Y370293D01*
X24908Y370103D01*
X24921Y369913D01*
X24928Y369825D01*
X24935Y369743D01*
X24942Y369669D01*
X24955Y369608D01*
Y369601D01*
X24962Y369587D01*
X24969Y369567D01*
X24976Y369540D01*
X25003Y369458D01*
X25050Y369363D01*
X25105Y369255D01*
X25179Y369146D01*
X25274Y369037D01*
X25390Y368935D01*
X25397D01*
X25403Y368929D01*
X25424Y368915D01*
X25451Y368902D01*
X25519Y368861D01*
X25614Y368820D01*
X25736Y368773D01*
X25872Y368739D01*
X26028Y368711D01*
X26205Y368698D01*
X26252D01*
X26286Y368705D01*
X26334D01*
X26381Y368711D01*
X26503Y368732D01*
X26639Y368759D01*
X26795Y368800D01*
X26952Y368861D01*
X27114Y368942D01*
X27121D01*
X27135Y368956D01*
X27155Y368969D01*
X27182Y368990D01*
X27257Y369044D01*
X27352Y369119D01*
X27447Y369221D01*
X27549Y369336D01*
X27644Y369472D01*
X27719Y369621D01*
Y369628D01*
X27726Y369642D01*
X27739Y369669D01*
X27746Y369703D01*
X27760Y369750D01*
X27780Y369805D01*
X27793Y369866D01*
X27814Y369940D01*
X27827Y370022D01*
X27841Y370117D01*
X27861Y370219D01*
X27875Y370334D01*
X27889Y370450D01*
X27895Y370585D01*
X27902Y370721D01*
Y370871D01*
Y374300D01*
X28989D01*
Y367910D01*
D02*
G37*
G36*
X37938Y373559D02*
X37944Y373566D01*
X37972Y373600D01*
X38012Y373641D01*
X38074Y373695D01*
X38148Y373763D01*
X38236Y373838D01*
X38338Y373919D01*
X38461Y374001D01*
X38590Y374082D01*
X38732Y374164D01*
X38895Y374238D01*
X39058Y374306D01*
X39241Y374361D01*
X39432Y374401D01*
X39635Y374435D01*
X39846Y374442D01*
X39914D01*
X39961Y374435D01*
X40029D01*
X40097Y374429D01*
X40178Y374422D01*
X40267Y374408D01*
X40457Y374374D01*
X40661Y374320D01*
X40871Y374252D01*
X41075Y374157D01*
X41082D01*
X41095Y374144D01*
X41122Y374130D01*
X41163Y374103D01*
X41204Y374076D01*
X41251Y374042D01*
X41367Y373953D01*
X41489Y373845D01*
X41611Y373716D01*
X41727Y373559D01*
X41774Y373471D01*
X41822Y373383D01*
Y373376D01*
X41828Y373363D01*
X41842Y373329D01*
X41856Y373295D01*
X41876Y373240D01*
X41896Y373179D01*
X41917Y373105D01*
X41937Y373023D01*
X41957Y372928D01*
X41978Y372819D01*
X41998Y372704D01*
X42018Y372575D01*
X42032Y372439D01*
X42046Y372290D01*
X42053Y372127D01*
Y371957D01*
Y367910D01*
X40966D01*
Y371957D01*
Y371964D01*
Y371991D01*
Y372032D01*
X40959Y372093D01*
X40953Y372161D01*
X40946Y372235D01*
X40939Y372317D01*
X40925Y372412D01*
X40878Y372602D01*
X40817Y372799D01*
X40776Y372894D01*
X40728Y372982D01*
X40674Y373064D01*
X40613Y373138D01*
X40606Y373145D01*
X40599Y373152D01*
X40579Y373172D01*
X40545Y373200D01*
X40511Y373227D01*
X40470Y373254D01*
X40416Y373288D01*
X40355Y373329D01*
X40287Y373363D01*
X40219Y373397D01*
X40138Y373424D01*
X40049Y373451D01*
X39948Y373478D01*
X39846Y373498D01*
X39737Y373505D01*
X39622Y373512D01*
X39574D01*
X39540Y373505D01*
X39500D01*
X39445Y373498D01*
X39330Y373478D01*
X39187Y373451D01*
X39038Y373403D01*
X38875Y373342D01*
X38712Y373261D01*
X38705D01*
X38691Y373247D01*
X38671Y373234D01*
X38644Y373213D01*
X38569Y373159D01*
X38481Y373084D01*
X38379Y372982D01*
X38284Y372867D01*
X38189Y372731D01*
X38114Y372582D01*
Y372575D01*
X38107Y372561D01*
X38101Y372534D01*
X38087Y372500D01*
X38074Y372460D01*
X38060Y372405D01*
X38040Y372344D01*
X38026Y372276D01*
X38012Y372195D01*
X37992Y372107D01*
X37979Y372011D01*
X37965Y371903D01*
X37951Y371787D01*
X37944Y371665D01*
X37938Y371536D01*
Y371400D01*
Y367910D01*
X36851D01*
Y376730D01*
X37938D01*
Y373559D01*
D02*
G37*
G36*
X19374Y376724D02*
X19469D01*
X19571Y376717D01*
X19788Y376710D01*
X20012Y376696D01*
X20223Y376669D01*
X20324Y376656D01*
X20413Y376642D01*
X20420D01*
X20440Y376635D01*
X20474Y376629D01*
X20521Y376622D01*
X20576Y376608D01*
X20644Y376595D01*
X20718Y376574D01*
X20793Y376547D01*
X20969Y376493D01*
X21146Y376425D01*
X21329Y376337D01*
X21506Y376228D01*
X21513D01*
X21526Y376214D01*
X21547Y376194D01*
X21581Y376174D01*
X21662Y376106D01*
X21757Y376011D01*
X21873Y375888D01*
X21988Y375746D01*
X22104Y375576D01*
X22212Y375379D01*
Y375372D01*
X22226Y375352D01*
X22239Y375325D01*
X22253Y375284D01*
X22273Y375230D01*
X22300Y375169D01*
X22321Y375101D01*
X22348Y375026D01*
X22375Y374938D01*
X22395Y374843D01*
X22443Y374639D01*
X22470Y374415D01*
X22484Y374177D01*
Y374164D01*
Y374130D01*
X22477Y374069D01*
X22470Y373987D01*
X22463Y373892D01*
X22443Y373777D01*
X22423Y373655D01*
X22395Y373519D01*
X22355Y373369D01*
X22307Y373213D01*
X22253Y373057D01*
X22178Y372894D01*
X22097Y372738D01*
X22002Y372575D01*
X21893Y372419D01*
X21764Y372269D01*
X21757Y372263D01*
X21730Y372235D01*
X21689Y372201D01*
X21621Y372147D01*
X21540Y372093D01*
X21438Y372025D01*
X21316Y371957D01*
X21173Y371882D01*
X21010Y371808D01*
X20820Y371740D01*
X20610Y371672D01*
X20372Y371618D01*
X20114Y371570D01*
X19829Y371529D01*
X19516Y371502D01*
X19347Y371495D01*
X16916D01*
Y367910D01*
X15748D01*
Y376730D01*
X19292D01*
X19374Y376724D01*
D02*
G37*
G36*
X39737Y367424D02*
X39791D01*
X39859Y367417D01*
X40009Y367404D01*
X40185Y367384D01*
X40369Y367356D01*
X40572Y367322D01*
X40409Y366379D01*
X40396D01*
X40375Y366385D01*
X40355D01*
X40287Y366399D01*
X40206Y366412D01*
X40104Y366419D01*
X39995Y366433D01*
X39771Y366440D01*
X39690D01*
X39649Y366433D01*
X39608Y366426D01*
X39500Y366412D01*
X39384Y366385D01*
X39269Y366351D01*
X39160Y366297D01*
X39072Y366222D01*
X39065Y366216D01*
X39038Y366182D01*
X39011Y366127D01*
X38970Y366046D01*
X38949Y365998D01*
X38936Y365937D01*
X38916Y365876D01*
X38902Y365801D01*
X38888Y365720D01*
X38875Y365632D01*
X38868Y365537D01*
Y365435D01*
Y364851D01*
X40111D01*
Y364009D01*
X38875D01*
Y358461D01*
X37788D01*
Y364009D01*
X36831D01*
Y364851D01*
X37788D01*
Y365530D01*
Y365537D01*
Y365557D01*
Y365591D01*
Y365632D01*
X37795Y365686D01*
Y365747D01*
X37802Y365890D01*
X37815Y366046D01*
X37836Y366202D01*
X37863Y366351D01*
X37883Y366419D01*
X37904Y366480D01*
Y366487D01*
X37911Y366501D01*
X37924Y366521D01*
X37938Y366548D01*
X37972Y366630D01*
X38033Y366725D01*
X38107Y366833D01*
X38203Y366949D01*
X38318Y367058D01*
X38454Y367166D01*
X38461D01*
X38474Y367180D01*
X38495Y367193D01*
X38528Y367207D01*
X38569Y367227D01*
X38617Y367248D01*
X38678Y367275D01*
X38746Y367302D01*
X38820Y367322D01*
X38902Y367350D01*
X38990Y367370D01*
X39092Y367390D01*
X39194Y367404D01*
X39309Y367417D01*
X39432Y367431D01*
X39683D01*
X39737Y367424D01*
D02*
G37*
G36*
X42053Y366039D02*
X40966D01*
Y367282D01*
X42053D01*
Y366039D01*
D02*
G37*
G36*
X35894D02*
X34808D01*
Y367282D01*
X35894D01*
Y366039D01*
D02*
G37*
G36*
X52984Y364987D02*
X53032Y364980D01*
X53093Y364973D01*
X53161Y364966D01*
X53236Y364953D01*
X53399Y364905D01*
X53589Y364844D01*
X53690Y364803D01*
X53792Y364756D01*
X53894Y364701D01*
X54003Y364640D01*
X53623Y363642D01*
X53616D01*
X53602Y363649D01*
X53582Y363663D01*
X53555Y363676D01*
X53521Y363697D01*
X53480Y363717D01*
X53378Y363758D01*
X53256Y363798D01*
X53120Y363839D01*
X52978Y363866D01*
X52828Y363873D01*
X52767D01*
X52699Y363860D01*
X52618Y363846D01*
X52516Y363819D01*
X52414Y363785D01*
X52305Y363731D01*
X52197Y363656D01*
X52183Y363649D01*
X52149Y363615D01*
X52102Y363567D01*
X52041Y363506D01*
X51980Y363418D01*
X51912Y363316D01*
X51850Y363201D01*
X51796Y363065D01*
Y363058D01*
X51789Y363038D01*
X51783Y363011D01*
X51769Y362963D01*
X51755Y362909D01*
X51742Y362848D01*
X51722Y362773D01*
X51708Y362692D01*
X51694Y362603D01*
X51674Y362502D01*
X51647Y362291D01*
X51626Y362053D01*
X51620Y361802D01*
Y358461D01*
X50533D01*
Y364851D01*
X51511D01*
Y363873D01*
X51518Y363880D01*
X51525Y363900D01*
X51545Y363941D01*
X51572Y363982D01*
X51606Y364036D01*
X51647Y364104D01*
X51735Y364247D01*
X51837Y364396D01*
X51952Y364545D01*
X52013Y364613D01*
X52074Y364674D01*
X52129Y364729D01*
X52190Y364776D01*
X52197D01*
X52204Y364783D01*
X52244Y364810D01*
X52312Y364844D01*
X52400Y364885D01*
X52502Y364926D01*
X52618Y364960D01*
X52754Y364987D01*
X52889Y364993D01*
X52944D01*
X52984Y364987D01*
D02*
G37*
G36*
X22701Y358461D02*
X21499D01*
X16868Y365380D01*
Y358461D01*
X15748D01*
Y367282D01*
X16943D01*
X21581Y360356D01*
Y367282D01*
X22701D01*
Y358461D01*
D02*
G37*
G36*
X42053D02*
X40966D01*
Y364851D01*
X42053D01*
Y358461D01*
D02*
G37*
G36*
X35894D02*
X34808D01*
Y364851D01*
X35894D01*
Y358461D01*
D02*
G37*
G36*
X32662Y364851D02*
X33742D01*
Y364009D01*
X32662D01*
Y360274D01*
Y360268D01*
Y360254D01*
Y360234D01*
Y360200D01*
Y360118D01*
X32669Y360023D01*
X32675Y359921D01*
X32682Y359826D01*
X32696Y359738D01*
X32709Y359704D01*
X32716Y359677D01*
Y359670D01*
X32730Y359657D01*
X32743Y359629D01*
X32757Y359602D01*
X32818Y359534D01*
X32852Y359500D01*
X32900Y359466D01*
X32906D01*
X32927Y359453D01*
X32954Y359446D01*
X32995Y359432D01*
X33049Y359419D01*
X33110Y359405D01*
X33185Y359398D01*
X33266Y359392D01*
X33341D01*
X33395Y359398D01*
X33463D01*
X33545Y359412D01*
X33633Y359419D01*
X33742Y359432D01*
X33898Y358475D01*
X33891D01*
X33877Y358468D01*
X33850D01*
X33823Y358461D01*
X33782Y358455D01*
X33735Y358448D01*
X33619Y358428D01*
X33497Y358407D01*
X33354Y358394D01*
X33212Y358387D01*
X33076Y358380D01*
X32981D01*
X32927Y358387D01*
X32872D01*
X32743Y358400D01*
X32594Y358428D01*
X32438Y358455D01*
X32295Y358502D01*
X32160Y358563D01*
X32153D01*
X32146Y358570D01*
X32105Y358597D01*
X32051Y358638D01*
X31983Y358692D01*
X31908Y358760D01*
X31833Y358849D01*
X31759Y358944D01*
X31705Y359052D01*
Y359059D01*
X31698Y359066D01*
X31691Y359086D01*
X31684Y359113D01*
X31677Y359154D01*
X31664Y359202D01*
X31650Y359256D01*
X31643Y359324D01*
X31630Y359405D01*
X31616Y359500D01*
X31603Y359602D01*
X31596Y359718D01*
X31589Y359853D01*
X31582Y359996D01*
X31576Y360152D01*
Y360329D01*
Y364009D01*
X30774D01*
Y364851D01*
X31576D01*
Y366433D01*
X32662Y367078D01*
Y364851D01*
D02*
G37*
G36*
X46432Y364987D02*
X46520Y364980D01*
X46636Y364966D01*
X46758Y364946D01*
X46900Y364919D01*
X47057Y364885D01*
X47220Y364837D01*
X47389Y364783D01*
X47559Y364708D01*
X47736Y364627D01*
X47912Y364525D01*
X48082Y364409D01*
X48252Y364274D01*
X48408Y364118D01*
X48415Y364111D01*
X48442Y364077D01*
X48483Y364029D01*
X48537Y363954D01*
X48598Y363866D01*
X48666Y363758D01*
X48741Y363629D01*
X48815Y363486D01*
X48890Y363323D01*
X48965Y363140D01*
X49033Y362936D01*
X49094Y362719D01*
X49148Y362481D01*
X49189Y362223D01*
X49216Y361951D01*
X49223Y361666D01*
Y361660D01*
Y361646D01*
Y361626D01*
Y361598D01*
Y361558D01*
Y361503D01*
X49216Y361449D01*
Y361381D01*
X44443D01*
Y361368D01*
X44449Y361334D01*
Y361279D01*
X44463Y361205D01*
X44470Y361116D01*
X44490Y361015D01*
X44510Y360906D01*
X44538Y360784D01*
X44572Y360655D01*
X44612Y360519D01*
X44660Y360390D01*
X44714Y360254D01*
X44782Y360118D01*
X44857Y359996D01*
X44938Y359874D01*
X45033Y359765D01*
X45040Y359758D01*
X45061Y359745D01*
X45088Y359711D01*
X45128Y359677D01*
X45183Y359636D01*
X45251Y359589D01*
X45318Y359541D01*
X45407Y359487D01*
X45495Y359432D01*
X45604Y359385D01*
X45712Y359337D01*
X45828Y359297D01*
X45957Y359263D01*
X46093Y359236D01*
X46228Y359215D01*
X46378Y359208D01*
X46439D01*
X46480Y359215D01*
X46527D01*
X46588Y359222D01*
X46656Y359236D01*
X46731Y359249D01*
X46887Y359283D01*
X47057Y359337D01*
X47233Y359419D01*
X47315Y359466D01*
X47396Y359521D01*
X47403Y359527D01*
X47417Y359534D01*
X47437Y359555D01*
X47464Y359582D01*
X47505Y359616D01*
X47546Y359657D01*
X47586Y359704D01*
X47641Y359765D01*
X47688Y359826D01*
X47743Y359901D01*
X47804Y359989D01*
X47858Y360077D01*
X47912Y360173D01*
X47967Y360281D01*
X48021Y360403D01*
X48068Y360526D01*
X49182Y360383D01*
Y360369D01*
X49168Y360342D01*
X49155Y360288D01*
X49128Y360220D01*
X49101Y360139D01*
X49060Y360044D01*
X49012Y359935D01*
X48958Y359826D01*
X48897Y359704D01*
X48822Y359575D01*
X48747Y359453D01*
X48652Y359324D01*
X48557Y359202D01*
X48449Y359079D01*
X48326Y358964D01*
X48197Y358855D01*
X48191Y358849D01*
X48164Y358835D01*
X48123Y358808D01*
X48068Y358774D01*
X48000Y358733D01*
X47912Y358685D01*
X47817Y358638D01*
X47702Y358590D01*
X47580Y358536D01*
X47437Y358489D01*
X47288Y358441D01*
X47125Y358400D01*
X46955Y358366D01*
X46771Y358339D01*
X46575Y358326D01*
X46371Y358319D01*
X46310D01*
X46235Y358326D01*
X46140Y358332D01*
X46025Y358346D01*
X45882Y358366D01*
X45733Y358394D01*
X45570Y358428D01*
X45393Y358475D01*
X45217Y358529D01*
X45026Y358597D01*
X44843Y358685D01*
X44660Y358781D01*
X44483Y358896D01*
X44314Y359032D01*
X44151Y359181D01*
X44144Y359195D01*
X44117Y359222D01*
X44076Y359269D01*
X44022Y359337D01*
X43960Y359426D01*
X43893Y359534D01*
X43818Y359663D01*
X43743Y359806D01*
X43662Y359969D01*
X43587Y360152D01*
X43519Y360349D01*
X43458Y360566D01*
X43404Y360797D01*
X43363Y361048D01*
X43336Y361313D01*
X43329Y361598D01*
Y361605D01*
Y361619D01*
Y361639D01*
Y361666D01*
Y361707D01*
X43336Y361755D01*
Y361802D01*
X43343Y361863D01*
X43356Y361999D01*
X43370Y362155D01*
X43397Y362325D01*
X43431Y362515D01*
X43478Y362712D01*
X43533Y362916D01*
X43601Y363126D01*
X43682Y363330D01*
X43770Y363534D01*
X43886Y363737D01*
X44015Y363921D01*
X44157Y364097D01*
X44164Y364111D01*
X44198Y364138D01*
X44246Y364179D01*
X44307Y364240D01*
X44388Y364308D01*
X44490Y364382D01*
X44605Y364464D01*
X44734Y364545D01*
X44884Y364627D01*
X45047Y364708D01*
X45223Y364783D01*
X45414Y364851D01*
X45617Y364912D01*
X45834Y364953D01*
X46065Y364987D01*
X46310Y364993D01*
X46364D01*
X46432Y364987D01*
D02*
G37*
G36*
X27244D02*
X27332Y364980D01*
X27447Y364966D01*
X27576Y364946D01*
X27719Y364919D01*
X27875Y364885D01*
X28045Y364837D01*
X28221Y364783D01*
X28398Y364708D01*
X28581Y364627D01*
X28758Y364525D01*
X28934Y364409D01*
X29104Y364281D01*
X29267Y364124D01*
X29274Y364118D01*
X29301Y364084D01*
X29342Y364036D01*
X29396Y363968D01*
X29464Y363880D01*
X29532Y363771D01*
X29606Y363649D01*
X29688Y363506D01*
X29769Y363343D01*
X29844Y363167D01*
X29912Y362970D01*
X29980Y362753D01*
X30034Y362529D01*
X30075Y362277D01*
X30102Y362019D01*
X30109Y361741D01*
Y361727D01*
Y361687D01*
Y361626D01*
X30102Y361537D01*
X30095Y361435D01*
X30088Y361313D01*
X30075Y361184D01*
X30061Y361042D01*
X30041Y360885D01*
X30021Y360729D01*
X29953Y360403D01*
X29912Y360247D01*
X29858Y360091D01*
X29803Y359942D01*
X29735Y359806D01*
X29729Y359799D01*
X29715Y359772D01*
X29695Y359738D01*
X29667Y359690D01*
X29627Y359629D01*
X29579Y359561D01*
X29525Y359487D01*
X29464Y359405D01*
X29389Y359317D01*
X29308Y359229D01*
X29219Y359134D01*
X29124Y359045D01*
X29016Y358957D01*
X28907Y358869D01*
X28785Y358781D01*
X28656Y358706D01*
X28649Y358699D01*
X28622Y358692D01*
X28588Y358672D01*
X28534Y358645D01*
X28466Y358618D01*
X28391Y358584D01*
X28296Y358550D01*
X28201Y358516D01*
X28086Y358475D01*
X27970Y358441D01*
X27841Y358407D01*
X27705Y358380D01*
X27569Y358353D01*
X27420Y358332D01*
X27271Y358326D01*
X27114Y358319D01*
X27053D01*
X26985Y358326D01*
X26890Y358332D01*
X26775Y358346D01*
X26646Y358366D01*
X26497Y358394D01*
X26340Y358428D01*
X26171Y358468D01*
X25994Y358529D01*
X25811Y358597D01*
X25634Y358679D01*
X25451Y358781D01*
X25274Y358889D01*
X25105Y359025D01*
X24942Y359174D01*
X24935Y359188D01*
X24908Y359215D01*
X24867Y359263D01*
X24813Y359337D01*
X24752Y359426D01*
X24684Y359534D01*
X24609Y359663D01*
X24534Y359806D01*
X24453Y359976D01*
X24378Y360159D01*
X24310Y360363D01*
X24249Y360587D01*
X24195Y360824D01*
X24154Y361082D01*
X24127Y361361D01*
X24120Y361653D01*
Y361660D01*
Y361673D01*
Y361700D01*
Y361727D01*
X24127Y361775D01*
Y361823D01*
X24134Y361877D01*
Y361945D01*
X24147Y362087D01*
X24174Y362257D01*
X24202Y362447D01*
X24242Y362644D01*
X24297Y362855D01*
X24358Y363072D01*
X24439Y363289D01*
X24534Y363506D01*
X24650Y363724D01*
X24779Y363921D01*
X24935Y364111D01*
X25105Y364281D01*
X25111Y364287D01*
X25145Y364314D01*
X25186Y364348D01*
X25254Y364389D01*
X25329Y364443D01*
X25431Y364505D01*
X25539Y364572D01*
X25661Y364640D01*
X25804Y364701D01*
X25953Y364769D01*
X26123Y364830D01*
X26300Y364885D01*
X26490Y364926D01*
X26687Y364966D01*
X26897Y364987D01*
X27114Y364993D01*
X27176D01*
X27244Y364987D01*
D02*
G37*
G36*
X28828Y301421D02*
X28879Y301411D01*
X28929Y301394D01*
X28976Y301371D01*
X29020Y301342D01*
X29059Y301307D01*
X31618Y298748D01*
X31653Y298709D01*
X31682Y298665D01*
X31705Y298618D01*
X31722Y298568D01*
X31732Y298517D01*
X31736Y298465D01*
Y290984D01*
X31732Y290932D01*
X31722Y290880D01*
X31705Y290831D01*
X31682Y290784D01*
X31653Y290740D01*
X31618Y290701D01*
X29059Y288142D01*
X29020Y288107D01*
X28976Y288078D01*
X28929Y288055D01*
X28879Y288038D01*
X28828Y288028D01*
X28776Y288024D01*
X26413D01*
X26361Y288028D01*
X26310Y288038D01*
X26260Y288055D01*
X26213Y288078D01*
X26169Y288107D01*
X26130Y288142D01*
X23571Y290701D01*
X23536Y290740D01*
X23507Y290784D01*
X23484Y290831D01*
X23467Y290880D01*
X23457Y290932D01*
X23453Y290984D01*
Y298465D01*
X23457Y298517D01*
X23467Y298568D01*
X23484Y298618D01*
X23507Y298665D01*
X23536Y298709D01*
X23571Y298748D01*
X26130Y301307D01*
X26169Y301342D01*
X26213Y301371D01*
X26260Y301394D01*
X26310Y301411D01*
X26361Y301421D01*
X26413Y301425D01*
X28776D01*
X28828Y301421D01*
D02*
G37*
%LPC*%
G36*
X39153Y380564D02*
X39146D01*
X39126Y380550D01*
X39092Y380544D01*
X39044Y380523D01*
X38983Y380503D01*
X38902Y380476D01*
X38814Y380449D01*
X38712Y380421D01*
X38590Y380387D01*
X38461Y380353D01*
X38318Y380319D01*
X38155Y380286D01*
X37985Y380252D01*
X37795Y380218D01*
X37598Y380184D01*
X37381Y380150D01*
X37374D01*
X37354Y380143D01*
X37320D01*
X37272Y380136D01*
X37218Y380123D01*
X37157Y380116D01*
X37014Y380089D01*
X36858Y380055D01*
X36702Y380021D01*
X36559Y379980D01*
X36492Y379953D01*
X36437Y379932D01*
X36424Y379926D01*
X36390Y379912D01*
X36342Y379885D01*
X36281Y379844D01*
X36213Y379797D01*
X36145Y379736D01*
X36077Y379668D01*
X36016Y379586D01*
X36009Y379573D01*
X35996Y379545D01*
X35969Y379498D01*
X35941Y379437D01*
X35914Y379362D01*
X35887Y379274D01*
X35874Y379172D01*
X35867Y379070D01*
Y379063D01*
Y379050D01*
Y379029D01*
X35874Y378995D01*
X35887Y378921D01*
X35908Y378819D01*
X35948Y378703D01*
X36003Y378581D01*
X36084Y378466D01*
X36138Y378405D01*
X36193Y378350D01*
X36200D01*
X36206Y378337D01*
X36227Y378323D01*
X36254Y378303D01*
X36288Y378282D01*
X36329Y378262D01*
X36376Y378235D01*
X36437Y378208D01*
X36498Y378181D01*
X36573Y378153D01*
X36648Y378133D01*
X36736Y378113D01*
X36824Y378092D01*
X36926Y378079D01*
X37035Y378072D01*
X37150Y378065D01*
X37211D01*
X37259Y378072D01*
X37313D01*
X37374Y378079D01*
X37442Y378086D01*
X37524Y378099D01*
X37693Y378133D01*
X37883Y378181D01*
X38074Y378249D01*
X38257Y378337D01*
X38264D01*
X38277Y378350D01*
X38304Y378364D01*
X38338Y378384D01*
X38379Y378412D01*
X38427Y378446D01*
X38528Y378534D01*
X38651Y378636D01*
X38766Y378765D01*
X38882Y378914D01*
X38977Y379084D01*
Y379090D01*
X38983Y379104D01*
X38990Y379124D01*
X39004Y379152D01*
X39017Y379192D01*
X39031Y379240D01*
X39051Y379294D01*
X39065Y379355D01*
X39079Y379430D01*
X39099Y379511D01*
X39112Y379600D01*
X39126Y379695D01*
X39140Y379797D01*
X39146Y379912D01*
X39153Y380034D01*
Y380163D01*
Y380564D01*
D02*
G37*
G36*
X19449Y375692D02*
X16916D01*
Y372534D01*
X19306D01*
X19381Y372541D01*
X19476Y372548D01*
X19578Y372555D01*
X19693Y372568D01*
X19822Y372588D01*
X20087Y372636D01*
X20216Y372670D01*
X20352Y372711D01*
X20474Y372758D01*
X20596Y372819D01*
X20705Y372881D01*
X20800Y372955D01*
X20807Y372962D01*
X20820Y372976D01*
X20847Y372996D01*
X20875Y373030D01*
X20908Y373077D01*
X20949Y373132D01*
X20997Y373193D01*
X21044Y373261D01*
X21085Y373342D01*
X21133Y373430D01*
X21173Y373526D01*
X21207Y373634D01*
X21234Y373743D01*
X21261Y373865D01*
X21275Y374001D01*
X21282Y374137D01*
Y374144D01*
Y374164D01*
Y374191D01*
X21275Y374232D01*
Y374279D01*
X21268Y374334D01*
X21248Y374463D01*
X21214Y374612D01*
X21160Y374775D01*
X21092Y374931D01*
X20997Y375087D01*
Y375094D01*
X20983Y375108D01*
X20969Y375128D01*
X20949Y375148D01*
X20888Y375216D01*
X20800Y375298D01*
X20698Y375386D01*
X20569Y375474D01*
X20426Y375549D01*
X20263Y375610D01*
X20250Y375617D01*
X20229D01*
X20202Y375624D01*
X20168Y375630D01*
X20128Y375637D01*
X20073Y375644D01*
X20012Y375651D01*
X19944Y375658D01*
X19863Y375664D01*
X19774Y375671D01*
X19679Y375678D01*
X19564Y375685D01*
X19449Y375692D01*
D02*
G37*
G36*
X46323Y364104D02*
X46249D01*
X46201Y364097D01*
X46133Y364090D01*
X46059Y364077D01*
X45977Y364063D01*
X45889Y364043D01*
X45787Y364016D01*
X45692Y363982D01*
X45583Y363941D01*
X45481Y363893D01*
X45373Y363832D01*
X45271Y363764D01*
X45162Y363690D01*
X45067Y363601D01*
X45061Y363595D01*
X45047Y363581D01*
X45020Y363547D01*
X44986Y363513D01*
X44945Y363459D01*
X44904Y363398D01*
X44857Y363330D01*
X44809Y363248D01*
X44755Y363160D01*
X44707Y363058D01*
X44660Y362950D01*
X44612Y362834D01*
X44578Y362705D01*
X44544Y362569D01*
X44517Y362427D01*
X44504Y362271D01*
X48082D01*
Y362277D01*
X48075Y362305D01*
Y362345D01*
X48068Y362400D01*
X48055Y362468D01*
X48041Y362542D01*
X48021Y362631D01*
X48000Y362719D01*
X47946Y362916D01*
X47878Y363113D01*
X47783Y363303D01*
X47729Y363391D01*
X47668Y363472D01*
X47661Y363479D01*
X47647Y363500D01*
X47613Y363534D01*
X47573Y363574D01*
X47525Y363622D01*
X47464Y363669D01*
X47389Y363731D01*
X47308Y363792D01*
X47213Y363846D01*
X47111Y363907D01*
X47002Y363954D01*
X46880Y364009D01*
X46758Y364043D01*
X46622Y364077D01*
X46473Y364097D01*
X46323Y364104D01*
D02*
G37*
G36*
X27114Y364097D02*
X27081D01*
X27033Y364090D01*
X26979D01*
X26911Y364077D01*
X26829Y364063D01*
X26741Y364043D01*
X26639Y364022D01*
X26537Y363988D01*
X26429Y363948D01*
X26313Y363900D01*
X26198Y363839D01*
X26089Y363771D01*
X25974Y363690D01*
X25865Y363595D01*
X25763Y363486D01*
X25756Y363479D01*
X25743Y363459D01*
X25716Y363425D01*
X25682Y363371D01*
X25641Y363310D01*
X25594Y363228D01*
X25546Y363140D01*
X25499Y363031D01*
X25451Y362909D01*
X25403Y362773D01*
X25356Y362624D01*
X25315Y362461D01*
X25281Y362277D01*
X25254Y362087D01*
X25240Y361877D01*
X25234Y361653D01*
Y361639D01*
Y361598D01*
X25240Y361537D01*
Y361449D01*
X25247Y361347D01*
X25261Y361232D01*
X25281Y361103D01*
X25302Y360960D01*
X25329Y360818D01*
X25363Y360661D01*
X25403Y360512D01*
X25458Y360356D01*
X25519Y360206D01*
X25587Y360071D01*
X25668Y359935D01*
X25763Y359813D01*
X25770Y359806D01*
X25790Y359786D01*
X25818Y359758D01*
X25858Y359718D01*
X25913Y359670D01*
X25974Y359623D01*
X26048Y359568D01*
X26137Y359514D01*
X26225Y359453D01*
X26327Y359398D01*
X26442Y359351D01*
X26558Y359303D01*
X26687Y359263D01*
X26823Y359236D01*
X26965Y359215D01*
X27114Y359208D01*
X27148D01*
X27196Y359215D01*
X27250D01*
X27318Y359229D01*
X27400Y359242D01*
X27488Y359263D01*
X27583Y359283D01*
X27692Y359317D01*
X27800Y359358D01*
X27909Y359405D01*
X28024Y359466D01*
X28133Y359534D01*
X28248Y359616D01*
X28357Y359711D01*
X28459Y359819D01*
X28466Y359826D01*
X28479Y359847D01*
X28506Y359887D01*
X28540Y359935D01*
X28581Y360003D01*
X28629Y360077D01*
X28676Y360173D01*
X28730Y360281D01*
X28778Y360403D01*
X28826Y360546D01*
X28873Y360695D01*
X28914Y360865D01*
X28948Y361048D01*
X28975Y361245D01*
X28989Y361456D01*
X28995Y361687D01*
Y361694D01*
Y361700D01*
Y361741D01*
Y361802D01*
X28989Y361884D01*
X28982Y361979D01*
X28968Y362094D01*
X28948Y362223D01*
X28927Y362359D01*
X28900Y362502D01*
X28866Y362651D01*
X28819Y362800D01*
X28765Y362950D01*
X28703Y363092D01*
X28629Y363235D01*
X28547Y363364D01*
X28452Y363486D01*
X28445Y363493D01*
X28425Y363513D01*
X28398Y363540D01*
X28357Y363581D01*
X28303Y363629D01*
X28242Y363683D01*
X28167Y363737D01*
X28086Y363792D01*
X27990Y363846D01*
X27889Y363907D01*
X27780Y363954D01*
X27665Y364002D01*
X27536Y364043D01*
X27400Y364070D01*
X27264Y364090D01*
X27114Y364097D01*
D02*
G37*
%LPD*%
D79*
X-24400Y585850D02*
D03*
Y579550D02*
D03*
X19000Y250550D02*
D03*
Y244250D02*
D03*
X24500Y250550D02*
D03*
Y244250D02*
D03*
X-31100Y579550D02*
D03*
Y585850D02*
D03*
X-16400Y393950D02*
D03*
Y387650D02*
D03*
X12400Y221845D02*
D03*
Y228144D02*
D03*
X-50200Y282144D02*
D03*
Y275845D02*
D03*
X30100Y250550D02*
D03*
Y244250D02*
D03*
X37600Y167550D02*
D03*
Y173850D02*
D03*
X12400Y233545D02*
D03*
Y239844D02*
D03*
X-58200Y305350D02*
D03*
Y299050D02*
D03*
X32700Y167550D02*
D03*
Y173850D02*
D03*
X-26000Y124244D02*
D03*
Y117945D02*
D03*
X-11600Y239045D02*
D03*
Y245344D02*
D03*
X-20000Y124244D02*
D03*
Y117945D02*
D03*
X-8661Y130709D02*
D03*
Y124409D02*
D03*
X-58200Y287550D02*
D03*
Y293850D02*
D03*
X-22100Y302944D02*
D03*
Y296645D02*
D03*
X-58200Y316850D02*
D03*
Y310550D02*
D03*
X-14173Y124409D02*
D03*
Y130709D02*
D03*
X-37100Y177945D02*
D03*
Y184244D02*
D03*
X27900Y173850D02*
D03*
Y167550D02*
D03*
X-56693Y341732D02*
D03*
Y335433D02*
D03*
X-11600Y230344D02*
D03*
Y224045D02*
D03*
X-59055Y383071D02*
D03*
Y376772D02*
D03*
X-56693Y353937D02*
D03*
Y347638D02*
D03*
X11000Y215850D02*
D03*
Y209550D02*
D03*
X19000Y256345D02*
D03*
Y262644D02*
D03*
X-27800Y302950D02*
D03*
Y296650D02*
D03*
D80*
X-22638Y563189D02*
D03*
X-26378Y573032D02*
D03*
X-30118Y563189D02*
D03*
X-43898D02*
D03*
X-40157Y573032D02*
D03*
X-36417Y563189D02*
D03*
X-9160Y563173D02*
D03*
X-12900Y573016D02*
D03*
X-16640Y563173D02*
D03*
X-22060Y379373D02*
D03*
X-25800Y389216D02*
D03*
X-29540Y379373D02*
D03*
D81*
X-37750Y580700D02*
D03*
X-44050D02*
D03*
X53750Y262695D02*
D03*
X47450D02*
D03*
X54450Y397300D02*
D03*
X48150D02*
D03*
X-50150Y396094D02*
D03*
X-43850D02*
D03*
X-38189Y396063D02*
D03*
X-31890D02*
D03*
X37450Y391800D02*
D03*
X43750D02*
D03*
X-50000Y580709D02*
D03*
X-56299D02*
D03*
X-7750Y598200D02*
D03*
X-1450D02*
D03*
X-26350Y191194D02*
D03*
X-32650D02*
D03*
X-22650Y309894D02*
D03*
X-28950D02*
D03*
X-43950Y287700D02*
D03*
X-50250D02*
D03*
X-3150Y119194D02*
D03*
X3150D02*
D03*
X3950Y222094D02*
D03*
X-2350D02*
D03*
X-7950Y195395D02*
D03*
X-1650D02*
D03*
X37450Y397300D02*
D03*
X43750D02*
D03*
X-6250Y202300D02*
D03*
X50D02*
D03*
X25450Y583500D02*
D03*
X31750D02*
D03*
X26750Y391800D02*
D03*
X33050D02*
D03*
X16050Y397300D02*
D03*
X22350D02*
D03*
X33050D02*
D03*
X26750D02*
D03*
X-43850Y316600D02*
D03*
X-50150D02*
D03*
X27650Y162000D02*
D03*
X33950D02*
D03*
X-26350Y201195D02*
D03*
X-32650D02*
D03*
X-32650Y196195D02*
D03*
X-26350D02*
D03*
X-26149Y185117D02*
D03*
X-19850Y185073D02*
D03*
X-7950Y189495D02*
D03*
X-1650D02*
D03*
X15950Y391800D02*
D03*
X22250D02*
D03*
D82*
X34724Y255854D02*
D03*
Y259594D02*
D03*
Y263335D02*
D03*
X25276D02*
D03*
Y255854D02*
D03*
X4024Y208860D02*
D03*
Y212600D02*
D03*
Y216340D02*
D03*
X-5424D02*
D03*
Y212600D02*
D03*
Y208860D02*
D03*
D83*
X5731Y157200D02*
D03*
D84*
X-37809Y446895D02*
D03*
X-32691D02*
D03*
X-27572D02*
D03*
X-22454D02*
D03*
X-17336D02*
D03*
X-12218D02*
D03*
X-7100D02*
D03*
X-1982D02*
D03*
X3136D02*
D03*
X8254D02*
D03*
X13372D02*
D03*
X18490D02*
D03*
X23609D02*
D03*
D85*
X25740Y274594D02*
D03*
X18260D02*
D03*
X41860Y308494D02*
D03*
X49340D02*
D03*
D86*
X33500Y284095D02*
D03*
X21689D02*
D03*
D87*
X27595Y284882D02*
D03*
D88*
X35126Y273594D02*
D03*
X50874D02*
D03*
D89*
X48500Y286689D02*
D03*
Y298500D02*
D03*
D90*
X-59055Y364961D02*
D03*
Y360236D02*
D03*
D91*
X4500Y24803D02*
D03*
X-4500D02*
D03*
D92*
X15000Y22441D02*
D03*
X-15000D02*
D03*
D93*
X-5784Y243584D02*
D03*
Y241616D02*
D03*
Y239647D02*
D03*
Y237679D02*
D03*
Y235710D02*
D03*
Y233742D02*
D03*
Y231773D02*
D03*
Y229805D02*
D03*
Y227836D02*
D03*
X7371Y227795D02*
D03*
Y229763D02*
D03*
Y231732D02*
D03*
Y233700D02*
D03*
Y235668D02*
D03*
Y237637D02*
D03*
Y239605D02*
D03*
Y241574D02*
D03*
Y243543D02*
D03*
Y245511D02*
D03*
X-5784Y245553D02*
D03*
D94*
X-2137Y227294D02*
D03*
X-169D02*
D03*
X1800D02*
D03*
X3768D02*
D03*
Y245996D02*
D03*
X1800D02*
D03*
X-169D02*
D03*
X-2137D02*
D03*
D95*
X-17597Y151554D02*
D03*
X-16205Y152946D02*
D03*
X-14813Y154338D02*
D03*
X-13421Y155730D02*
D03*
X-12029Y157122D02*
D03*
X-10637Y158514D02*
D03*
X-9245Y159906D02*
D03*
X-7853Y161298D02*
D03*
X-21773Y175217D02*
D03*
X-23165Y173825D02*
D03*
X-24557Y172433D02*
D03*
X-25949Y171042D02*
D03*
X-27341Y169650D02*
D03*
X-28733Y168258D02*
D03*
X-30125Y166866D02*
D03*
X-31517Y165474D02*
D03*
D96*
X-7853D02*
D03*
X-9245Y166866D02*
D03*
X-10637Y168258D02*
D03*
X-12029Y169650D02*
D03*
X-13421Y171042D02*
D03*
X-14813Y172433D02*
D03*
X-16205Y173825D02*
D03*
X-17597Y175217D02*
D03*
X-31517Y161298D02*
D03*
X-30125Y159906D02*
D03*
X-28733Y158514D02*
D03*
X-27341Y157122D02*
D03*
X-25949Y155730D02*
D03*
X-24557Y154338D02*
D03*
X-23165Y152946D02*
D03*
X-21773Y151554D02*
D03*
D97*
X-19685Y163386D02*
D03*
D98*
X7150Y260200D02*
D03*
X5575D02*
D03*
X4000D02*
D03*
X2425D02*
D03*
X850D02*
D03*
X7150Y253389D02*
D03*
X5575D02*
D03*
X4000D02*
D03*
X2425D02*
D03*
X850D02*
D03*
D99*
X7937Y256795D02*
D03*
X63D02*
D03*
D100*
X-56153Y563494D02*
D03*
X-54184D02*
D03*
X-52216D02*
D03*
X-50247D02*
D03*
X-56153Y575306D02*
D03*
X-54184D02*
D03*
X-52216D02*
D03*
X-50247D02*
D03*
D101*
X3740Y62719D02*
D03*
X0D02*
D03*
X-3740D02*
D03*
Y53270D02*
D03*
X0D02*
D03*
X3740D02*
D03*
D102*
X259Y154196D02*
D03*
X-4196Y149741D02*
D03*
X-8526Y363915D02*
D03*
X-4072Y368369D02*
D03*
X8727Y324322D02*
D03*
X4273Y319867D02*
D03*
X19820Y335568D02*
D03*
X24274Y340022D02*
D03*
X-8920Y136356D02*
D03*
X-4466Y140810D02*
D03*
D103*
X-13644Y147896D02*
D03*
X-9190Y143442D02*
D03*
X-17188Y144353D02*
D03*
X-12733Y139899D02*
D03*
D104*
X-55905Y394488D02*
D03*
Y400000D02*
D03*
D105*
X7874Y387795D02*
D03*
Y381890D02*
D03*
Y393701D02*
D03*
X-7874Y381890D02*
D03*
Y393701D02*
D03*
Y387795D02*
D03*
X7874Y301181D02*
D03*
Y295276D02*
D03*
Y307087D02*
D03*
X-7874Y295276D02*
D03*
Y307087D02*
D03*
Y301181D02*
D03*
D106*
X-43307Y352362D02*
D03*
X-37402D02*
D03*
X-49213D02*
D03*
X-37402Y336614D02*
D03*
X-49213D02*
D03*
X-43307D02*
D03*
X43307Y352362D02*
D03*
X49213D02*
D03*
X37402D02*
D03*
X49213Y336614D02*
D03*
X37402D02*
D03*
X43307D02*
D03*
D107*
X-16500Y208067D02*
D03*
X-20240Y217122D02*
D03*
X-12760D02*
D03*
X-16500Y193067D02*
D03*
X-20240Y202122D02*
D03*
X-12760D02*
D03*
D108*
X18250Y210880D02*
D03*
X20750D02*
D03*
X23250D02*
D03*
X25750D02*
D03*
X18250Y234109D02*
D03*
X20750D02*
D03*
X23250D02*
D03*
X25750D02*
D03*
D109*
X1579Y271354D02*
D03*
X11421Y275095D02*
D03*
X1579Y278835D02*
D03*
D110*
X-0Y81890D02*
D03*
Y93307D02*
D03*
D111*
X-28344Y235732D02*
D03*
D112*
X-22439Y225987D02*
D03*
X-24407D02*
D03*
X-26376D02*
D03*
X-28344D02*
D03*
X-30313Y225987D02*
D03*
X-32281D02*
D03*
X-34250Y225987D02*
D03*
Y245476D02*
D03*
X-32281D02*
D03*
X-30313D02*
D03*
X-28344D02*
D03*
X-26376D02*
D03*
X-24407D02*
D03*
X-22439D02*
D03*
D113*
X-38088Y229826D02*
D03*
X-38088Y231795D02*
D03*
Y233763D02*
D03*
Y235732D02*
D03*
Y237700D02*
D03*
X-38088Y239668D02*
D03*
Y241637D02*
D03*
X-18600D02*
D03*
X-18600Y239668D02*
D03*
Y237700D02*
D03*
Y235732D02*
D03*
Y233763D02*
D03*
Y231795D02*
D03*
X-18600Y229826D02*
D03*
D114*
X-51791Y368209D02*
D03*
X-46791D02*
D03*
X-41791D02*
D03*
X-36791D02*
D03*
X-51791Y389665D02*
D03*
X-46791D02*
D03*
X-41791D02*
D03*
X-36791D02*
D03*
D115*
X-44291Y378937D02*
D03*
D116*
X-29302Y133255D02*
D03*
X-30804Y140984D02*
D03*
X-23848Y142336D02*
D03*
X-22345Y134607D02*
D03*
D117*
X10022Y334466D02*
D03*
X-10022Y354510D02*
D03*
D118*
X13418Y349945D02*
D03*
X9437Y353926D02*
D03*
X5456Y357907D02*
D03*
X-5456Y331070D02*
D03*
X-9437Y335051D02*
D03*
X-13418Y339032D02*
D03*
D119*
X-30043Y365508D02*
D03*
X-26500D02*
D03*
Y372594D02*
D03*
X-30043D02*
D03*
D120*
X3000Y562711D02*
D03*
Y577278D02*
D03*
D121*
X25300Y563302D02*
D03*
Y576295D02*
D03*
D122*
X35142Y573932D02*
D03*
Y566058D02*
D03*
X43016Y573932D02*
D03*
Y566058D02*
D03*
D123*
X20000Y201771D02*
D03*
X15000D02*
D03*
X10000D02*
D03*
X5000D02*
D03*
X20000Y173818D02*
D03*
X15000D02*
D03*
X10000D02*
D03*
X5000D02*
D03*
D124*
X-8500Y279217D02*
D03*
X-13500D02*
D03*
X-18500D02*
D03*
X-23500D02*
D03*
X-28500D02*
D03*
X-33500D02*
D03*
X-38500D02*
D03*
X-43500D02*
D03*
X-8500Y256972D02*
D03*
X-13500D02*
D03*
X-18500D02*
D03*
X-23500D02*
D03*
X-28500D02*
D03*
X-33500D02*
D03*
X-38500D02*
D03*
X-43500D02*
D03*
D125*
X2938Y129728D02*
X8185Y156723D01*
X31744Y152144D01*
X30886Y147727D02*
X31744Y152144D01*
X15671Y150684D02*
X30886Y147727D01*
X14812Y146267D02*
X15671Y150684D01*
X14812Y146267D02*
X30027Y143309D01*
X29168Y138892D02*
X30027Y143309D01*
X13953Y141849D02*
X29168Y138892D01*
X13095Y137432D02*
X13953Y141849D01*
X13095Y137432D02*
X28310Y134475D01*
X27451Y130057D02*
X28310Y134475D01*
X12236Y133015D02*
X27451Y130057D01*
X11377Y128597D02*
X12236Y133015D01*
X11377Y128597D02*
X26593Y125640D01*
Y110198D02*
Y125640D01*
D126*
X-45700Y294500D02*
D03*
Y307886D02*
D03*
D127*
X-42700Y200694D02*
D03*
X-40700Y190894D02*
D03*
X-44627Y210523D02*
D03*
X-48512Y230142D02*
D03*
X-50454Y239952D02*
D03*
X-52396Y249761D02*
D03*
X-54339Y259571D02*
D03*
X-56281Y269380D02*
D03*
X-58223Y279190D02*
D03*
X-46569Y220333D02*
D03*
D128*
X47644Y222771D02*
D03*
X35277Y225175D02*
D03*
X37155Y234837D02*
D03*
X39033Y244498D02*
D03*
X51400Y242094D02*
D03*
X49522Y232433D02*
D03*
X31511Y206360D02*
D03*
X43878Y203956D02*
D03*
X42000Y194295D02*
D03*
X40122Y184633D02*
D03*
X27755Y187037D02*
D03*
X29633Y196698D02*
D03*
D129*
X-17100Y597457D02*
D03*
X-27100D02*
D03*
X7500D02*
D03*
X27500D02*
D03*
X17500D02*
D03*
D130*
X2938Y129728D02*
D03*
D131*
X15748Y513779D02*
D03*
X47244D02*
D03*
Y545276D02*
D03*
X15748D02*
D03*
X-47244Y513779D02*
D03*
X-15748D02*
D03*
Y545276D02*
D03*
X-47244D02*
D03*
X-15748Y104331D02*
D03*
X15748D02*
D03*
Y72638D02*
D03*
X-15748D02*
D03*
X-45276Y598425D02*
D03*
X45276D02*
D03*
X54900Y570000D02*
D03*
X14900Y570100D02*
D03*
D132*
X5289Y339199D02*
D03*
X-5289Y349778D02*
D03*
X31496Y431102D02*
D03*
X-31496Y213779D02*
D03*
Y464173D02*
D03*
D133*
X14900Y584800D02*
D03*
X4900D02*
D03*
X-5100D02*
D03*
X-15100D02*
D03*
D134*
X-16623Y160324D02*
D03*
X-19685Y163386D02*
D03*
Y157261D02*
D03*
X-22747Y160324D02*
D03*
X-25810Y163386D02*
D03*
X-22747Y166448D02*
D03*
X-16623Y166448D02*
D03*
X-19685Y169510D02*
D03*
X-24013Y235732D02*
D03*
X-24013Y231401D02*
D03*
Y240062D02*
D03*
X-32675D02*
D03*
X-32675Y235732D02*
D03*
X-32675Y231401D02*
D03*
X-28344Y240062D02*
D03*
X-28344Y235732D02*
D03*
X-28344Y231401D02*
D03*
X-48622Y376772D02*
D03*
Y381102D02*
D03*
X-44291Y376772D02*
D03*
Y381102D02*
D03*
X-39961Y376772D02*
D03*
Y381102D02*
D03*
D135*
X-58876Y268886D02*
D03*
X-56933Y259076D02*
D03*
X-54991Y249267D02*
D03*
X-51106Y229648D02*
D03*
X-49164Y219838D02*
D03*
X-47222Y210029D02*
D03*
X-45295Y200200D02*
D03*
X-60818Y278696D02*
D03*
X-53049Y239457D02*
D03*
D136*
X-43295Y190400D02*
D03*
%TF.MD5,9daba4f4e2c07beffe751d8893e0b6ae*%
M02*
