G04 Layer_Physical_Order=2*
G04 Layer_Color=16711680*
%FSLAX25Y25*%
%MOIN*%
%TF.FileFunction,Copper,L2,Bot,Signal*%
%TF.Part,Single*%
G01*
G75*
%TA.AperFunction,Conductor*%
%ADD56C,0.01968*%
%ADD57C,0.00591*%
%ADD58C,0.03150*%
%ADD59C,0.01181*%
%ADD63C,0.02756*%
%ADD64C,0.02500*%
%ADD65C,0.03937*%
%TA.AperFunction,ComponentPad*%
%ADD66O,0.07874X0.05512*%
%TA.AperFunction,ViaPad*%
%ADD67C,0.07874*%
%TA.AperFunction,ComponentPad*%
%ADD68C,0.06000*%
%ADD69O,0.06000X0.09937*%
%ADD70C,0.02500*%
%ADD71C,0.07874*%
%TA.AperFunction,ViaPad*%
%ADD72C,0.02362*%
%ADD73C,0.03937*%
%ADD74C,0.03150*%
%ADD75C,0.01575*%
%ADD76C,0.01968*%
%TA.AperFunction,NonConductor*%
G04:AMPARAMS|DCode=77|XSize=52.83mil|YSize=78.74mil|CornerRadius=0mil|HoleSize=0mil|Usage=FLASHONLY|Rotation=11.000|XOffset=0mil|YOffset=0mil|HoleType=Round|Shape=Rectangle|*
%AMROTATEDRECTD77*
4,1,4,-0.01842,-0.04369,-0.03344,0.03361,0.01842,0.04369,0.03344,-0.03361,-0.01842,-0.04369,0.0*
%
%ADD77ROTATEDRECTD77*%

%TA.AperFunction,SMDPad,CuDef*%
G04:AMPARAMS|DCode=78|XSize=275.59mil|YSize=196.85mil|CornerRadius=49.21mil|HoleSize=0mil|Usage=FLASHONLY|Rotation=180.000|XOffset=0mil|YOffset=0mil|HoleType=Round|Shape=RoundedRectangle|*
%AMROUNDEDRECTD78*
21,1,0.27559,0.09842,0,0,180.0*
21,1,0.17716,0.19685,0,0,180.0*
1,1,0.09842,-0.08858,0.04921*
1,1,0.09842,0.08858,0.04921*
1,1,0.09842,0.08858,-0.04921*
1,1,0.09842,-0.08858,-0.04921*
%
%ADD78ROUNDEDRECTD78*%
G36*
X-63Y235640D02*
X175Y235490D01*
X289Y235429D01*
X399Y235378D01*
X506Y235335D01*
X609Y235303D01*
X709Y235279D01*
X804Y235265D01*
X897Y235261D01*
X994Y234670D01*
X892Y234664D01*
X793Y234647D01*
X695Y234618D01*
X600Y234578D01*
X507Y234526D01*
X416Y234463D01*
X326Y234389D01*
X240Y234302D01*
X155Y234205D01*
X72Y234096D01*
X-188Y235729D01*
X-63Y235640D01*
D02*
G37*
G36*
X38050Y230367D02*
X38125Y230307D01*
X38202Y230256D01*
X38280Y230214D01*
X38358Y230182D01*
X38438Y230158D01*
X38519Y230143D01*
X38602Y230137D01*
X38685Y230141D01*
X38770Y230153D01*
X37841Y229224D01*
X37854Y229309D01*
X37857Y229393D01*
X37852Y229475D01*
X37837Y229556D01*
X37813Y229636D01*
X37780Y229715D01*
X37738Y229793D01*
X37687Y229869D01*
X37627Y229945D01*
X37558Y230019D01*
X37976Y230436D01*
X38050Y230367D01*
D02*
G37*
G36*
X-42705Y223780D02*
X-42842Y223627D01*
X-42954Y223466D01*
X-43041Y223298D01*
X-43104Y223122D01*
X-43142Y222938D01*
X-43155Y222747D01*
X-43144Y222548D01*
X-43108Y222342D01*
X-43047Y222128D01*
X-42961Y221907D01*
X-44995Y223941D01*
X-44774Y223856D01*
X-44560Y223795D01*
X-44354Y223758D01*
X-44155Y223747D01*
X-43964Y223760D01*
X-43781Y223798D01*
X-43605Y223861D01*
X-43436Y223948D01*
X-43275Y224060D01*
X-43122Y224198D01*
X-42705Y223780D01*
D02*
G37*
G36*
X786Y241063D02*
X723Y240993D01*
X665Y240914D01*
X612Y240827D01*
X563Y240730D01*
X520Y240625D01*
X481Y240511D01*
X447Y240388D01*
X393Y240115D01*
X374Y239965D01*
X-647Y241266D01*
X-509Y241252D01*
X-378Y241247D01*
X-253Y241251D01*
X-136Y241264D01*
X-26Y241286D01*
X77Y241317D01*
X173Y241357D01*
X263Y241407D01*
X345Y241465D01*
X420Y241532D01*
X786Y241063D01*
D02*
G37*
G36*
X-7520Y236662D02*
X-7587Y236588D01*
X-7645Y236506D01*
X-7695Y236417D01*
X-7738Y236320D01*
X-7772Y236216D01*
X-7798Y236104D01*
X-7816Y235985D01*
X-7826Y235858D01*
X-7828Y235724D01*
X-7822Y235582D01*
X-9059Y236680D01*
X-8911Y236690D01*
X-8642Y236729D01*
X-8519Y236758D01*
X-8406Y236792D01*
X-8300Y236833D01*
X-8203Y236879D01*
X-8115Y236931D01*
X-8035Y236990D01*
X-7964Y237054D01*
X-7520Y236662D01*
D02*
G37*
G36*
X-10999Y235254D02*
X-10983Y235156D01*
X-10957Y235057D01*
X-10920Y234957D01*
X-10872Y234856D01*
X-10813Y234755D01*
X-10744Y234653D01*
X-10665Y234550D01*
X-10574Y234447D01*
X-10473Y234344D01*
X-12127D01*
X-12026Y234447D01*
X-11856Y234653D01*
X-11787Y234755D01*
X-11728Y234856D01*
X-11680Y234957D01*
X-11643Y235057D01*
X-11616Y235156D01*
X-11601Y235254D01*
X-11595Y235352D01*
X-11005D01*
X-10999Y235254D01*
D02*
G37*
G36*
X-21677Y221110D02*
X-21681Y221047D01*
X-21677Y220984D01*
X-21665Y220920D01*
X-21643Y220855D01*
X-21613Y220789D01*
X-21575Y220722D01*
X-21527Y220655D01*
X-21472Y220587D01*
X-21407Y220519D01*
X-21824Y220101D01*
X-21893Y220166D01*
X-21961Y220222D01*
X-22028Y220269D01*
X-22094Y220308D01*
X-22160Y220338D01*
X-22225Y220359D01*
X-22289Y220372D01*
X-22353Y220376D01*
X-22416Y220371D01*
X-22478Y220358D01*
X-21664Y221173D01*
X-21677Y221110D01*
D02*
G37*
G36*
X-9169Y220755D02*
X-9213Y220658D01*
X-9242Y220564D01*
X-9257Y220471D01*
X-9257Y220380D01*
X-9242Y220292D01*
X-9214Y220205D01*
X-9170Y220121D01*
X-9113Y220039D01*
X-9041Y219958D01*
X-9744Y219827D01*
X-9807Y219887D01*
X-9952Y220009D01*
X-10123Y220135D01*
X-10320Y220263D01*
X-10663Y220462D01*
X-9111Y220854D01*
X-9169Y220755D01*
D02*
G37*
G36*
X-4750Y219494D02*
X-4753Y219406D01*
X-4746Y219320D01*
X-4731Y219235D01*
X-4707Y219152D01*
X-4673Y219071D01*
X-4631Y218991D01*
X-4579Y218913D01*
X-4518Y218836D01*
X-4449Y218761D01*
X-4866Y218343D01*
X-4941Y218413D01*
X-5018Y218474D01*
X-5096Y218525D01*
X-5176Y218568D01*
X-5257Y218601D01*
X-5341Y218626D01*
X-5425Y218641D01*
X-5511Y218647D01*
X-5599Y218644D01*
X-5689Y218633D01*
X-4738Y219583D01*
X-4750Y219494D01*
D02*
G37*
G36*
X-6163Y222327D02*
X-6160Y222314D01*
X-6151Y222297D01*
X-6138Y222276D01*
X-6120Y222252D01*
X-6068Y222190D01*
X-5953Y222070D01*
X-6370Y221653D01*
X-6414Y221696D01*
X-6576Y221838D01*
X-6597Y221851D01*
X-6614Y221860D01*
X-6627Y221864D01*
X-6637Y221862D01*
X-6162Y222337D01*
X-6163Y222327D01*
D02*
G37*
G36*
X8882Y221601D02*
X8842Y221541D01*
X8806Y221474D01*
X8776Y221398D01*
X8750Y221313D01*
X8728Y221220D01*
X8712Y221119D01*
X8700Y221009D01*
X8691Y220763D01*
X7509D01*
X7507Y220890D01*
X7488Y221119D01*
X7472Y221220D01*
X7450Y221313D01*
X7424Y221398D01*
X7394Y221474D01*
X7358Y221541D01*
X7318Y221601D01*
X7273Y221651D01*
X8927D01*
X8882Y221601D01*
D02*
G37*
G36*
X-2631Y234446D02*
X-2560Y234088D01*
X-2168Y233502D01*
X-1582Y233111D01*
X-891Y232973D01*
X-860Y232979D01*
X-342Y232573D01*
X-269Y232203D01*
X123Y231617D01*
X497Y231367D01*
Y229395D01*
X566Y229049D01*
X761Y228756D01*
X2416Y227101D01*
Y222563D01*
X489Y220636D01*
X-2541D01*
X-4405Y222500D01*
X-4698Y222696D01*
X-5044Y222765D01*
X-5283D01*
X-5394Y222900D01*
X-5440Y223134D01*
X-5500Y223594D01*
X-4809Y223731D01*
X-4223Y224123D01*
X-3831Y224709D01*
X-3694Y225400D01*
X-3831Y226091D01*
X-4223Y226677D01*
X-4597Y226927D01*
Y233187D01*
X-3173Y234611D01*
X-2631Y234446D01*
D02*
G37*
G36*
X-32824Y263307D02*
X-32585Y263147D01*
X-32540Y262784D01*
X-32869Y262291D01*
X-33006Y261600D01*
X-32869Y260909D01*
X-32477Y260323D01*
X-31891Y259931D01*
X-31200Y259794D01*
X-30509Y259931D01*
X-30003Y260269D01*
X-29700Y260178D01*
X-29503Y260051D01*
Y247278D01*
X-29434Y246933D01*
X-29239Y246639D01*
X-23893Y241294D01*
X-23846Y241263D01*
X-23046Y240463D01*
Y223761D01*
X-23380Y223185D01*
X-23491Y223163D01*
X-24077Y222772D01*
X-24444Y222223D01*
X-24544Y222146D01*
X-24951Y222023D01*
X-26761Y223833D01*
X-27054Y224029D01*
X-27400Y224098D01*
X-35973D01*
X-36223Y224472D01*
X-36809Y224863D01*
X-37500Y225001D01*
X-38142Y224873D01*
X-38278Y224897D01*
X-38642Y225092D01*
Y227568D01*
X-36981Y229229D01*
X-36546Y229881D01*
X-36393Y230649D01*
Y245201D01*
X-36360Y245250D01*
X-36192Y246094D01*
X-36360Y246939D01*
X-36393Y246988D01*
Y247063D01*
X-35381Y248075D01*
X-34946Y248726D01*
X-34793Y249495D01*
Y263144D01*
X-34293Y263412D01*
X-33700Y263294D01*
X-33037Y263426D01*
X-32824Y263307D01*
D02*
G37*
G36*
X-4299Y262709D02*
X-4282Y262611D01*
X-4253Y262521D01*
X-4213Y262442D01*
X-4162Y262372D01*
X-4099Y262312D01*
X-4025Y262262D01*
X-3940Y262221D01*
X-3842Y262191D01*
X-3734Y262169D01*
X-5045Y261289D01*
X-5017Y261410D01*
X-4949Y261793D01*
X-4933Y261929D01*
X-4897Y262506D01*
X-4895Y262660D01*
X-4305Y262818D01*
X-4299Y262709D01*
D02*
G37*
G36*
X-2753Y250126D02*
X-2547Y249956D01*
X-2445Y249887D01*
X-2344Y249828D01*
X-2243Y249780D01*
X-2143Y249743D01*
X-2044Y249716D01*
X-1946Y249701D01*
X-1848Y249695D01*
Y249105D01*
X-1946Y249099D01*
X-2044Y249083D01*
X-2143Y249057D01*
X-2243Y249020D01*
X-2344Y248972D01*
X-2445Y248913D01*
X-2547Y248844D01*
X-2650Y248765D01*
X-2753Y248674D01*
X-2857Y248573D01*
Y250227D01*
X-2753Y250126D01*
D02*
G37*
G36*
X-19835Y318905D02*
X-19425Y318370D01*
X-18891Y317960D01*
X-18268Y317702D01*
X-17600Y317614D01*
X-16932Y317702D01*
X-16309Y317960D01*
X-15957Y318230D01*
X-13489Y315762D01*
X-12773Y315283D01*
X-11928Y315115D01*
X6636D01*
X6787Y314615D01*
X6723Y314572D01*
X6331Y313986D01*
X6194Y313295D01*
X6315Y312686D01*
X-339Y306033D01*
X-534Y305740D01*
X-603Y305395D01*
Y291922D01*
X-977Y291672D01*
X-1369Y291086D01*
X-1506Y290394D01*
X-1369Y289703D01*
X-977Y289117D01*
X-391Y288726D01*
X300Y288588D01*
X991Y288726D01*
X1577Y289117D01*
X1969Y289703D01*
X2106Y290394D01*
X1969Y291086D01*
X1577Y291672D01*
X1203Y291922D01*
Y305020D01*
X7726Y311543D01*
X8000Y311488D01*
X8691Y311626D01*
X9277Y312017D01*
X9669Y312603D01*
X9806Y313295D01*
X9669Y313986D01*
X9277Y314572D01*
X9212Y314615D01*
X9364Y315115D01*
X25445D01*
X25481Y315088D01*
X26104Y314830D01*
X26149Y314824D01*
X26339Y314633D01*
X27055Y314155D01*
X27900Y313987D01*
X41792D01*
Y262671D01*
X41209Y262430D01*
X40675Y262020D01*
X40265Y261485D01*
X40104Y261098D01*
X13803D01*
X12595Y262306D01*
X12302Y262501D01*
X11956Y262570D01*
X5644D01*
X5298Y262501D01*
X5005Y262306D01*
X-3503Y253798D01*
X-3994Y253885D01*
X-4046Y253961D01*
X-4432Y254538D01*
X-5018Y254929D01*
X-5709Y255067D01*
X-6400Y254929D01*
X-6986Y254538D01*
X-7098Y254370D01*
X-7675Y254326D01*
X-14802Y261454D01*
X-14431Y262009D01*
X-14294Y262700D01*
X-14431Y263391D01*
X-14823Y263977D01*
X-15409Y264369D01*
X-16100Y264506D01*
X-16791Y264369D01*
X-17197Y264098D01*
X-17697Y264331D01*
Y264873D01*
X-17323Y265123D01*
X-16931Y265709D01*
X-16794Y266400D01*
X-16931Y267091D01*
X-17323Y267677D01*
X-17909Y268069D01*
X-18600Y268206D01*
X-19291Y268069D01*
X-19416Y267986D01*
X-19916Y268253D01*
Y276119D01*
X-19985Y276465D01*
X-20180Y276758D01*
X-24097Y280674D01*
Y283734D01*
X-23597Y284002D01*
X-23491Y283931D01*
X-22800Y283794D01*
X-22109Y283931D01*
X-21523Y284323D01*
X-21450Y284432D01*
X-20950D01*
X-20877Y284323D01*
X-20291Y283931D01*
X-19600Y283794D01*
X-18909Y283931D01*
X-18323Y284323D01*
X-17947Y284885D01*
X-17886Y284949D01*
X-17414Y285060D01*
X-7003Y274649D01*
Y259395D01*
X-6934Y259049D01*
X-6739Y258756D01*
X-6109Y258126D01*
X-6137Y257985D01*
X-6000Y257294D01*
X-5608Y256708D01*
X-5022Y256316D01*
X-4331Y256179D01*
X-3640Y256316D01*
X-3054Y256708D01*
X-2662Y257294D01*
X-2525Y257985D01*
X-2662Y258676D01*
X-2878Y258999D01*
X-2767Y259626D01*
X-2623Y259723D01*
X-2231Y260309D01*
X-2094Y261000D01*
X-2231Y261691D01*
X-2623Y262277D01*
X-3209Y262669D01*
X-3508Y262728D01*
X-3611Y262797D01*
X-3697Y263284D01*
Y274221D01*
X-3310Y274538D01*
X-3051Y274487D01*
X-2360Y274624D01*
X-1774Y275016D01*
X-1383Y275602D01*
X-1245Y276293D01*
X-1383Y276984D01*
X-1557Y277245D01*
X-1566Y277290D01*
X-1761Y277583D01*
X-2054Y277779D01*
X-2099Y277788D01*
X-2360Y277962D01*
X-3051Y278099D01*
X-3743Y277962D01*
X-4329Y277570D01*
X-4720Y276984D01*
X-4803Y276569D01*
X-5239Y276133D01*
X-5861Y276062D01*
X-20553Y290754D01*
Y293203D01*
X-20553Y293203D01*
X-20564Y293254D01*
Y319418D01*
X-20093Y319527D01*
X-19835Y318905D01*
D02*
G37*
G36*
X-33399Y266854D02*
X-33384Y266756D01*
X-33357Y266657D01*
X-33320Y266557D01*
X-33272Y266456D01*
X-33213Y266355D01*
X-33144Y266253D01*
X-33065Y266150D01*
X-32974Y266047D01*
X-32873Y265944D01*
X-34527D01*
X-34426Y266047D01*
X-34256Y266253D01*
X-34187Y266355D01*
X-34128Y266456D01*
X-34080Y266557D01*
X-34043Y266657D01*
X-34016Y266756D01*
X-34001Y266854D01*
X-33995Y266952D01*
X-33405D01*
X-33399Y266854D01*
D02*
G37*
G36*
X-30774Y266253D02*
X-30944Y266047D01*
X-31013Y265945D01*
X-31072Y265844D01*
X-31120Y265743D01*
X-31157Y265643D01*
X-31183Y265544D01*
X-31199Y265446D01*
X-31205Y265348D01*
X-31795D01*
X-31801Y265446D01*
X-31817Y265544D01*
X-31843Y265643D01*
X-31880Y265743D01*
X-31928Y265844D01*
X-31987Y265945D01*
X-32056Y266047D01*
X-32135Y266149D01*
X-32226Y266253D01*
X-32327Y266356D01*
X-30673D01*
X-30774Y266253D01*
D02*
G37*
G36*
X-19416Y261826D02*
X-19239Y261561D01*
X-13703Y256026D01*
Y244071D01*
X-14203Y244022D01*
X-14222Y244118D01*
X-14418Y244411D01*
X-14418Y244411D01*
X-19665Y249658D01*
X-19711Y249689D01*
X-19916Y249893D01*
Y261598D01*
X-19453Y261832D01*
X-19416Y261826D01*
D02*
G37*
G36*
X11569Y242300D02*
X11491Y242326D01*
X11414Y242342D01*
X11339Y242349D01*
X11265Y242345D01*
X11191Y242332D01*
X11119Y242309D01*
X11048Y242276D01*
X10978Y242233D01*
X10909Y242181D01*
X10842Y242119D01*
X10424Y242536D01*
X10501Y242617D01*
X10569Y242699D01*
X10629Y242781D01*
X10681Y242864D01*
X10725Y242948D01*
X10760Y243033D01*
X10787Y243118D01*
X10806Y243204D01*
X10817Y243290D01*
X10819Y243377D01*
X11569Y242300D01*
D02*
G37*
G36*
X27749Y236098D02*
Y230949D01*
X27817Y230604D01*
X28013Y230311D01*
X29916Y228408D01*
X30209Y228212D01*
X30555Y228143D01*
X30555Y228143D01*
X31974D01*
X32544Y227573D01*
X32544Y227551D01*
X32022Y226763D01*
X31722Y225866D01*
X31664Y224922D01*
X31853Y223996D01*
X32275Y223150D01*
X32901Y222442D01*
X33689Y221920D01*
X34586Y221620D01*
X35530Y221562D01*
X36456Y221751D01*
X37302Y222173D01*
X37623Y221795D01*
X36026Y220198D01*
X35830Y219905D01*
X35762Y219559D01*
Y197433D01*
X33403Y195075D01*
X32967Y195345D01*
X33188Y196007D01*
X33246Y196951D01*
X33057Y197877D01*
X32635Y198723D01*
X32009Y199432D01*
X31221Y199953D01*
X30324Y200253D01*
X29689Y200292D01*
X24581Y205401D01*
Y215097D01*
X24593Y215126D01*
X24681Y215794D01*
X24593Y216462D01*
X24581Y216492D01*
Y219994D01*
X24493Y220662D01*
X24235Y221285D01*
X23825Y221820D01*
X23291Y222230D01*
X22668Y222488D01*
X22000Y222576D01*
X21332Y222488D01*
X20709Y222230D01*
X20175Y221820D01*
X19765Y221285D01*
X19507Y220662D01*
X19419Y219994D01*
Y204331D01*
X19507Y203663D01*
X19765Y203041D01*
X20175Y202506D01*
X26033Y196648D01*
X26020Y196446D01*
X26209Y195519D01*
X26631Y194673D01*
X27257Y193965D01*
X28045Y193443D01*
X28942Y193143D01*
X29886Y193086D01*
X30812Y193274D01*
X31658Y193696D01*
X32366Y194323D01*
X32547Y194595D01*
X33018Y194401D01*
X32997Y194295D01*
Y186045D01*
X32497Y185875D01*
X32265Y186177D01*
X31355Y187087D01*
X31368Y187289D01*
X31179Y188216D01*
X30757Y189062D01*
X30131Y189770D01*
X29343Y190292D01*
X28446Y190592D01*
X27502Y190649D01*
X26576Y190461D01*
X25730Y190039D01*
X25272Y189634D01*
X24772Y189859D01*
Y194131D01*
X24704Y194476D01*
X24508Y194770D01*
X15703Y203574D01*
Y206400D01*
X15634Y206746D01*
X15439Y207039D01*
X12803Y209674D01*
Y240097D01*
X13210Y240504D01*
X13495Y240694D01*
X14594Y241794D01*
X15100Y241694D01*
X15791Y241831D01*
X16377Y242223D01*
X16769Y242809D01*
X16906Y243500D01*
X16774Y244164D01*
X16772Y244251D01*
X17028Y244664D01*
X19183D01*
X27749Y236098D01*
D02*
G37*
G36*
X14149Y247915D02*
X14017Y247998D01*
X13651Y248198D01*
X13538Y248246D01*
X13429Y248286D01*
X13326Y248317D01*
X13227Y248339D01*
X13132Y248352D01*
X13043Y248357D01*
X12911Y248947D01*
X13014Y248953D01*
X13114Y248971D01*
X13210Y249000D01*
X13304Y249041D01*
X13395Y249093D01*
X13482Y249158D01*
X13566Y249233D01*
X13648Y249321D01*
X13726Y249420D01*
X13802Y249531D01*
X14149Y247915D01*
D02*
G37*
G36*
X8547Y249420D02*
X8753Y249250D01*
X8855Y249181D01*
X8956Y249123D01*
X9057Y249075D01*
X9157Y249038D01*
X9256Y249011D01*
X9354Y248995D01*
X9452Y248990D01*
Y248399D01*
X9354Y248394D01*
X9256Y248378D01*
X9157Y248351D01*
X9057Y248314D01*
X8956Y248266D01*
X8855Y248208D01*
X8753Y248139D01*
X8651Y248059D01*
X8547Y247969D01*
X8444Y247868D01*
Y249521D01*
X8547Y249420D01*
D02*
G37*
G36*
X7871Y247545D02*
X7718Y247506D01*
X7318Y247377D01*
X7203Y247330D01*
X7005Y247227D01*
X6920Y247173D01*
X6845Y247116D01*
X6779Y247056D01*
X6255Y247367D01*
X6324Y247444D01*
X6382Y247527D01*
X6429Y247616D01*
X6465Y247711D01*
X6491Y247811D01*
X6506Y247917D01*
X6510Y248029D01*
X6503Y248147D01*
X6485Y248271D01*
X6456Y248400D01*
X7871Y247545D01*
D02*
G37*
G36*
X21101Y170454D02*
X21116Y170356D01*
X21143Y170257D01*
X21180Y170157D01*
X21228Y170056D01*
X21287Y169955D01*
X21356Y169853D01*
X21435Y169750D01*
X21526Y169647D01*
X21627Y169544D01*
X19973D01*
X20074Y169647D01*
X20244Y169853D01*
X20313Y169955D01*
X20372Y170056D01*
X20420Y170157D01*
X20457Y170257D01*
X20483Y170356D01*
X20499Y170454D01*
X20505Y170552D01*
X21095D01*
X21101Y170454D01*
D02*
G37*
G36*
X-31453Y170220D02*
X-31247Y170050D01*
X-31145Y169981D01*
X-31044Y169923D01*
X-30943Y169875D01*
X-30843Y169838D01*
X-30744Y169811D01*
X-30646Y169795D01*
X-30548Y169790D01*
Y169199D01*
X-30646Y169194D01*
X-30744Y169178D01*
X-30843Y169151D01*
X-30943Y169114D01*
X-31044Y169066D01*
X-31145Y169008D01*
X-31247Y168939D01*
X-31350Y168859D01*
X-31453Y168769D01*
X-31556Y168668D01*
Y170321D01*
X-31453Y170220D01*
D02*
G37*
G36*
X25839Y167375D02*
X25774Y167390D01*
X25705Y167394D01*
X25634Y167386D01*
X25559Y167366D01*
X25482Y167336D01*
X25402Y167294D01*
X25319Y167240D01*
X25233Y167175D01*
X25144Y167099D01*
X25052Y167011D01*
X24529Y168158D01*
X24620Y168251D01*
X24953Y168633D01*
X24995Y168693D01*
X25028Y168747D01*
X25052Y168796D01*
X25068Y168838D01*
X25839Y167375D01*
D02*
G37*
G36*
X-4961Y172301D02*
X-4902Y172200D01*
X-4837Y172110D01*
X-4766Y172032D01*
X-4690Y171967D01*
X-4608Y171913D01*
X-4520Y171871D01*
X-4426Y171841D01*
X-4327Y171823D01*
X-4221Y171817D01*
X-4466Y171227D01*
X-4544Y171223D01*
X-4631Y171213D01*
X-4726Y171195D01*
X-4941Y171140D01*
X-5061Y171101D01*
X-5470Y170944D01*
X-5623Y170878D01*
X-5014Y172415D01*
X-4961Y172301D01*
D02*
G37*
G36*
X23971Y170730D02*
X23869Y170740D01*
X23770Y170741D01*
X23673Y170733D01*
X23580Y170716D01*
X23489Y170690D01*
X23400Y170654D01*
X23315Y170610D01*
X23232Y170557D01*
X23153Y170495D01*
X23076Y170424D01*
X22658Y170842D01*
X22729Y170919D01*
X22791Y170999D01*
X22844Y171081D01*
X22888Y171167D01*
X22923Y171255D01*
X22950Y171346D01*
X22967Y171439D01*
X22975Y171536D01*
X22974Y171635D01*
X22964Y171738D01*
X23971Y170730D01*
D02*
G37*
G36*
X25379Y184303D02*
X26167Y183782D01*
X27064Y183482D01*
X27698Y183443D01*
X27859Y183282D01*
Y170037D01*
X27359Y169856D01*
X26891Y170169D01*
X26200Y170306D01*
X25684Y170204D01*
X25489Y170504D01*
X25439Y170665D01*
X25803Y171209D01*
X25940Y171900D01*
X25803Y172591D01*
X25411Y173177D01*
X24825Y173569D01*
X24134Y173706D01*
X23443Y173569D01*
X22857Y173177D01*
X22465Y172591D01*
X22328Y171900D01*
X22348Y171795D01*
X22325Y171738D01*
X22277Y171631D01*
X22203Y171564D01*
X21744Y171765D01*
X21703Y171820D01*
Y174175D01*
X24508Y176980D01*
X24704Y177273D01*
X24772Y177619D01*
Y184284D01*
X25240Y184461D01*
X25379Y184303D01*
D02*
G37*
G36*
X2569Y146841D02*
X-505Y131025D01*
X-584Y130619D01*
X-581Y129792D01*
X-416Y128981D01*
X-96Y128218D01*
X367Y127532D01*
X955Y126950D01*
X1644Y126493D01*
X2410Y126180D01*
X2816Y126101D01*
X3743Y125921D01*
X4732Y125506D01*
X6618Y124486D01*
X8356Y123228D01*
X9914Y121755D01*
X11266Y120091D01*
X12390Y118264D01*
X13266Y116307D01*
X13676Y114933D01*
X13672Y114448D01*
X11853Y113897D01*
X11803Y113855D01*
X11738Y113849D01*
X10062Y112953D01*
X10020Y112903D01*
X9958Y112884D01*
X8489Y111678D01*
X8458Y111621D01*
X8400Y111590D01*
X7195Y110121D01*
X7176Y110058D01*
X7125Y110017D01*
X6230Y108341D01*
X6223Y108276D01*
X6182Y108225D01*
X5630Y106407D01*
X5637Y106342D01*
X5606Y106284D01*
X5420Y104393D01*
X5439Y104331D01*
X5420Y104268D01*
X5606Y102377D01*
X5637Y102319D01*
X5630Y102254D01*
X6182Y100436D01*
X6223Y100385D01*
X6230Y100320D01*
X7125Y98645D01*
X7176Y98603D01*
X7195Y98540D01*
X8400Y97072D01*
X8458Y97041D01*
X8489Y96983D01*
X9958Y95778D01*
X10020Y95759D01*
X10062Y95708D01*
X11738Y94812D01*
X11803Y94806D01*
X11853Y94765D01*
X13672Y94213D01*
X13737Y94219D01*
X13794Y94188D01*
X15685Y94002D01*
X15717Y94012D01*
X15748Y93999D01*
X15779Y94012D01*
X15811Y94002D01*
X17702Y94188D01*
X17759Y94219D01*
X17824Y94213D01*
X19643Y94765D01*
X19693Y94806D01*
X19758Y94812D01*
X21434Y95708D01*
X21476Y95759D01*
X21538Y95778D01*
X23007Y96983D01*
X23038Y97041D01*
X23096Y97072D01*
X24301Y98540D01*
X24320Y98603D01*
X24371Y98645D01*
X25266Y100320D01*
X25273Y100385D01*
X25314Y100436D01*
X25866Y102254D01*
X25859Y102319D01*
X25890Y102377D01*
X26076Y104268D01*
X26547Y104333D01*
X31998D01*
X31997Y59852D01*
X31998Y59266D01*
X31883Y58100D01*
X31654Y56951D01*
X31315Y55830D01*
X30866Y54747D01*
X30314Y53714D01*
X29664Y52740D01*
X28921Y51834D01*
X28506Y51419D01*
X28506D01*
X28506Y51419D01*
X16205Y51419D01*
X16191Y51430D01*
X15568Y51688D01*
X14900Y51776D01*
X14232Y51688D01*
X13609Y51430D01*
X13595Y51419D01*
X4997Y51418D01*
X4643Y51772D01*
Y74454D01*
X4643Y74454D01*
X4575Y74800D01*
X4379Y75093D01*
X4379Y75093D01*
X1484Y77987D01*
Y122296D01*
X1416Y122642D01*
X1220Y122934D01*
X1220Y122934D01*
X-2964Y127118D01*
Y142959D01*
X1304Y147227D01*
X2251D01*
X2569Y146841D01*
D02*
G37*
G36*
X4041Y49789D02*
X4057Y49690D01*
X4083Y49591D01*
X4121Y49491D01*
X4168Y49391D01*
X4227Y49290D01*
X4296Y49188D01*
X4376Y49085D01*
X4466Y48982D01*
X4567Y48878D01*
X2913D01*
X3014Y48982D01*
X3184Y49188D01*
X3254Y49290D01*
X3312Y49391D01*
X3360Y49491D01*
X3397Y49591D01*
X3424Y49690D01*
X3440Y49789D01*
X3445Y49887D01*
X4035D01*
X4041Y49789D01*
D02*
G37*
G36*
X-3440Y49709D02*
X-3424Y49610D01*
X-3397Y49511D01*
X-3360Y49411D01*
X-3312Y49310D01*
X-3254Y49209D01*
X-3184Y49107D01*
X-3105Y49005D01*
X-3014Y48902D01*
X-2913Y48798D01*
X-4567D01*
X-4466Y48902D01*
X-4296Y49107D01*
X-4227Y49209D01*
X-4168Y49310D01*
X-4121Y49411D01*
X-4083Y49511D01*
X-4057Y49610D01*
X-4041Y49709D01*
X-4035Y49807D01*
X-3445D01*
X-3440Y49709D01*
D02*
G37*
G36*
X15798Y168124D02*
X15751Y168074D01*
X15709Y168016D01*
X15672Y167949D01*
X15640Y167874D01*
X15613Y167790D01*
X15591Y167697D01*
X15573Y167596D01*
X15561Y167487D01*
X15551Y167241D01*
X14370Y167287D01*
X14368Y167414D01*
X14350Y167643D01*
X14334Y167745D01*
X14314Y167838D01*
X14289Y167923D01*
X14260Y168000D01*
X14226Y168068D01*
X14188Y168128D01*
X14146Y168179D01*
X15798Y168124D01*
D02*
G37*
G36*
X17853Y167579D02*
X17870Y167480D01*
X17898Y167382D01*
X17938Y167286D01*
X17989Y167191D01*
X18052Y167098D01*
X18125Y167006D01*
X18210Y166916D01*
X18307Y166827D01*
X18415Y166740D01*
X16774Y166533D01*
X16866Y166654D01*
X17020Y166885D01*
X17083Y166997D01*
X17136Y167105D01*
X17179Y167211D01*
X17213Y167314D01*
X17237Y167413D01*
X17252Y167510D01*
X17257Y167603D01*
X17847Y167681D01*
X17853Y167579D01*
D02*
G37*
G36*
X-26310Y151853D02*
X-27839Y151726D01*
X-27772Y151802D01*
X-27720Y151879D01*
X-27685Y151956D01*
X-27665Y152034D01*
X-27660Y152113D01*
X-27672Y152192D01*
X-27699Y152272D01*
X-27742Y152353D01*
X-27801Y152434D01*
X-27875Y152516D01*
X-27310Y152785D01*
X-26310Y151853D01*
D02*
G37*
G36*
X10771Y192588D02*
X10667Y192689D01*
X10462Y192859D01*
X10360Y192928D01*
X10259Y192987D01*
X10158Y193035D01*
X10058Y193072D01*
X9959Y193098D01*
X9860Y193114D01*
X9763Y193120D01*
Y193710D01*
X9860Y193716D01*
X9959Y193731D01*
X10058Y193758D01*
X10158Y193795D01*
X10259Y193843D01*
X10360Y193902D01*
X10462Y193971D01*
X10564Y194050D01*
X10667Y194141D01*
X10771Y194242D01*
Y192588D01*
D02*
G37*
G36*
X-14880Y210387D02*
Y209598D01*
X-15254Y209348D01*
X-15645Y208762D01*
X-15783Y208071D01*
X-15645Y207380D01*
X-15254Y206794D01*
X-14836Y206515D01*
Y188028D01*
X-14767Y187682D01*
X-14572Y187389D01*
X-13244Y186061D01*
X-13169Y186011D01*
X-13169Y186009D01*
X-12777Y185423D01*
X-12191Y185031D01*
X-11500Y184894D01*
X-10809Y185031D01*
X-10223Y185423D01*
X-9831Y186009D01*
X-9694Y186700D01*
X-9831Y187391D01*
X-10223Y187977D01*
X-10809Y188369D01*
X-11500Y188506D01*
X-12191Y188369D01*
X-12674Y188046D01*
X-13030Y188402D01*
Y206573D01*
X-12699Y206794D01*
X-12308Y207380D01*
X-12170Y208071D01*
X-12308Y208762D01*
X-12340Y208810D01*
X-11951Y209129D01*
X-11422Y208600D01*
Y204696D01*
X-11353Y204350D01*
X-11157Y204057D01*
X-686Y193585D01*
X-685Y193585D01*
X349Y192550D01*
X349Y192550D01*
X815Y192085D01*
X790Y191829D01*
X398Y191242D01*
X261Y190551D01*
X398Y189860D01*
X790Y189274D01*
X1376Y188882D01*
X1646Y188829D01*
X1775Y188516D01*
X1706Y188171D01*
Y188130D01*
X1626Y188010D01*
X1558Y187664D01*
Y184974D01*
X1626Y184628D01*
X1706Y184508D01*
Y181993D01*
X1614Y181855D01*
X1435Y181759D01*
X1104Y181658D01*
X-710Y183472D01*
X-1003Y183668D01*
X-1349Y183736D01*
X-21557D01*
X-21903Y183668D01*
X-22196Y183472D01*
X-27503Y178165D01*
X-31080D01*
X-31426Y178096D01*
X-31719Y177900D01*
X-32806Y176813D01*
X-33001Y176520D01*
X-33070Y176174D01*
Y173736D01*
X-33403Y173239D01*
X-33661Y173131D01*
X-34009Y173363D01*
X-34700Y173501D01*
X-35391Y173363D01*
X-35977Y172972D01*
X-36369Y172386D01*
X-36506Y171695D01*
X-36369Y171003D01*
X-35977Y170417D01*
X-35400Y170032D01*
Y162730D01*
X-35331Y162384D01*
X-35136Y162091D01*
X-33925Y160880D01*
X-33632Y160684D01*
X-33286Y160616D01*
X-32498D01*
X-30810Y158927D01*
X-31103Y158522D01*
X-31795Y158659D01*
X-32486Y158522D01*
X-33072Y158130D01*
X-33463Y157544D01*
X-33601Y156853D01*
X-33463Y156161D01*
X-33072Y155576D01*
X-32486Y155184D01*
X-31795Y155046D01*
X-31353Y155134D01*
X-28373Y152154D01*
X-28348Y152086D01*
X-28345Y152082D01*
X-28352Y152060D01*
X-28669Y151586D01*
X-28806Y150894D01*
X-28669Y150203D01*
X-28277Y149617D01*
X-27691Y149226D01*
X-27000Y149088D01*
X-26675Y149153D01*
X-26299Y149202D01*
X-26132Y148790D01*
X-26078Y148521D01*
X-25687Y147935D01*
X-25101Y147544D01*
X-24409Y147406D01*
X-23968Y147494D01*
X-17832Y141358D01*
Y140110D01*
X-18206Y139860D01*
X-18598Y139274D01*
X-18735Y138583D01*
X-18598Y137891D01*
X-18206Y137305D01*
X-17620Y136914D01*
X-16929Y136776D01*
X-16252Y136911D01*
X-16236Y136913D01*
X-15739Y136646D01*
X-15726Y136396D01*
X-15844Y136317D01*
X-16236Y135731D01*
X-16373Y135039D01*
X-16236Y134348D01*
X-15844Y133762D01*
X-15258Y133370D01*
X-14567Y133233D01*
X-13876Y133370D01*
X-13290Y133762D01*
X-12898Y134348D01*
X-12761Y135039D01*
X-12898Y135731D01*
X-13290Y136317D01*
X-13664Y136567D01*
Y143961D01*
X-13733Y144307D01*
X-13928Y144600D01*
X-17381Y148053D01*
X-17294Y148495D01*
X-17431Y149186D01*
X-17823Y149772D01*
X-18409Y150163D01*
X-19100Y150301D01*
X-19541Y150213D01*
X-31196Y161868D01*
X-31153Y162309D01*
X-30761Y162894D01*
X-30624Y163586D01*
X-30629Y163611D01*
X-30589Y163810D01*
X-30645Y164093D01*
X-21114Y173624D01*
X-18644D01*
X-18298Y173693D01*
X-18005Y173889D01*
X-15870Y176024D01*
X-10210D01*
X-9943Y175524D01*
X-10169Y175186D01*
X-10306Y174495D01*
X-10169Y173803D01*
X-9777Y173217D01*
X-9191Y172826D01*
X-8500Y172688D01*
X-8264Y172735D01*
X-7839Y172310D01*
X-7909Y171957D01*
X-7772Y171266D01*
X-7607Y171020D01*
X-7874Y170520D01*
X-8858D01*
X-10297Y170331D01*
X-11638Y169775D01*
X-12789Y168892D01*
X-13673Y167740D01*
X-14228Y166400D01*
X-14418Y164961D01*
Y155118D01*
X-14228Y153679D01*
X-13673Y152338D01*
X-12789Y151187D01*
X-11638Y150303D01*
X-10297Y149748D01*
X-8858Y149559D01*
X-1242D01*
X-1051Y149097D01*
X-5687Y144461D01*
X-5883Y144168D01*
X-5951Y143822D01*
Y126255D01*
X-5883Y125909D01*
X-5687Y125616D01*
X-1503Y121432D01*
Y78169D01*
X-4379Y75293D01*
X-4575Y75000D01*
X-4643Y74654D01*
Y51418D01*
X-28504Y51417D01*
X-28902Y51815D01*
X-29619Y52681D01*
X-30251Y53612D01*
X-30793Y54598D01*
X-31240Y55630D01*
X-31587Y56700D01*
X-31833Y57797D01*
X-31974Y58913D01*
X-31992Y59475D01*
X-31992Y59475D01*
X-31993Y59485D01*
X-31995Y59504D01*
X-31997Y59523D01*
X-31998Y59542D01*
Y121210D01*
X-36160Y142025D01*
X-35688Y142187D01*
X-35590Y141991D01*
X-35392Y141737D01*
X-35214Y141470D01*
X-8242Y114498D01*
X-8193Y114126D01*
X-7935Y113504D01*
X-7525Y112969D01*
X-6991Y112559D01*
X-6368Y112301D01*
X-5700Y112213D01*
X-5032Y112301D01*
X-4409Y112559D01*
X-3875Y112969D01*
X-3465Y113504D01*
X-3207Y114126D01*
X-3119Y114795D01*
X-3207Y115463D01*
X-3465Y116085D01*
X-3875Y116620D01*
X-4409Y117030D01*
X-5032Y117288D01*
X-5404Y117337D01*
X-32145Y144078D01*
X-33085Y145957D01*
X-37793Y169499D01*
Y175569D01*
X-33661Y179700D01*
X-30229D01*
X-29461Y179853D01*
X-28810Y180288D01*
X-26965Y182133D01*
X-26530Y182784D01*
X-26377Y183552D01*
Y195779D01*
X-26530Y196547D01*
X-26965Y197198D01*
X-40076Y210309D01*
X-40147Y211410D01*
X-40530Y212539D01*
X-41125Y213432D01*
X-39870Y214686D01*
X-39390Y214459D01*
X-39451Y213842D01*
X-39432Y213779D01*
X-39451Y213717D01*
X-39310Y212289D01*
X-39279Y212231D01*
X-39286Y212166D01*
X-38869Y210793D01*
X-38828Y210743D01*
X-38821Y210677D01*
X-38145Y209412D01*
X-38094Y209371D01*
X-38076Y209308D01*
X-37165Y208199D01*
X-37108Y208168D01*
X-37077Y208110D01*
X-35968Y207200D01*
X-35905Y207181D01*
X-35863Y207131D01*
X-34598Y206454D01*
X-34533Y206448D01*
X-34482Y206406D01*
X-33109Y205990D01*
X-33044Y205996D01*
X-32987Y205965D01*
X-31559Y205825D01*
X-31527Y205834D01*
X-31496Y205822D01*
X-31465Y205834D01*
X-31433Y205825D01*
X-30006Y205965D01*
X-29948Y205996D01*
X-29883Y205990D01*
X-28510Y206406D01*
X-28459Y206448D01*
X-28394Y206454D01*
X-27129Y207131D01*
X-27087Y207181D01*
X-27024Y207200D01*
X-25915Y208110D01*
X-25885Y208168D01*
X-25827Y208199D01*
X-24917Y209308D01*
X-24898Y209371D01*
X-24847Y209412D01*
X-24429Y210194D01*
X-23760Y210385D01*
X-23700Y210350D01*
Y199691D01*
X-23674Y199560D01*
X-23806Y198895D01*
X-23669Y198203D01*
X-23277Y197617D01*
X-22691Y197226D01*
X-22000Y197088D01*
X-21309Y197226D01*
X-20723Y197617D01*
X-20703Y197646D01*
X-20203Y197495D01*
Y191022D01*
X-20577Y190772D01*
X-20969Y190186D01*
X-21106Y189495D01*
X-20969Y188803D01*
X-20577Y188217D01*
X-19991Y187826D01*
X-19300Y187688D01*
X-18609Y187826D01*
X-18023Y188217D01*
X-17631Y188803D01*
X-17494Y189495D01*
X-17631Y190186D01*
X-18023Y190772D01*
X-18397Y191022D01*
Y199118D01*
X-18397Y199118D01*
X-18466Y199463D01*
X-18661Y199756D01*
X-20713Y201807D01*
Y215567D01*
X-20251Y215758D01*
X-14880Y210387D01*
D02*
G37*
G36*
X16573Y186660D02*
X16403Y186454D01*
X16334Y186353D01*
X16275Y186251D01*
X16228Y186151D01*
X16190Y186051D01*
X16164Y185952D01*
X16148Y185853D01*
X16142Y185755D01*
X15552D01*
X15547Y185853D01*
X15531Y185952D01*
X15504Y186051D01*
X15467Y186151D01*
X15419Y186251D01*
X15361Y186353D01*
X15292Y186454D01*
X15212Y186557D01*
X15121Y186660D01*
X15021Y186764D01*
X16674D01*
X16573Y186660D01*
D02*
G37*
G36*
X-2726Y213651D02*
X-2643Y213594D01*
X-2557Y213550D01*
X-2468Y213520D01*
X-2377Y213504D01*
X-2283Y213502D01*
X-2185Y213513D01*
X-2085Y213539D01*
X-1982Y213578D01*
X-1876Y213631D01*
X-2362Y212083D01*
X-2430Y212219D01*
X-2750Y212774D01*
X-2810Y212860D01*
X-2926Y213004D01*
X-2982Y213064D01*
X-2805Y213723D01*
X-2726Y213651D01*
D02*
G37*
G36*
X11472Y207153D02*
X11553Y207095D01*
X11642Y207043D01*
X11739Y206999D01*
X11844Y206962D01*
X11957Y206931D01*
X12078Y206908D01*
X12207Y206892D01*
X12343Y206883D01*
X12488Y206881D01*
X11319Y205712D01*
X11317Y205857D01*
X11292Y206122D01*
X11269Y206243D01*
X11238Y206356D01*
X11201Y206461D01*
X11157Y206558D01*
X11105Y206647D01*
X11047Y206728D01*
X10982Y206801D01*
X11399Y207219D01*
X11472Y207153D01*
D02*
G37*
G36*
X7993Y205504D02*
X8012Y205276D01*
X8028Y205174D01*
X8050Y205081D01*
X8076Y204997D01*
X8106Y204921D01*
X8142Y204853D01*
X8182Y204794D01*
X8227Y204744D01*
X6573D01*
X6618Y204794D01*
X6658Y204853D01*
X6694Y204921D01*
X6724Y204997D01*
X6750Y205081D01*
X6772Y205174D01*
X6788Y205276D01*
X6800Y205386D01*
X6809Y205631D01*
X7991D01*
X7993Y205504D01*
D02*
G37*
G36*
X-17981Y177695D02*
X-18047Y177622D01*
X-18105Y177541D01*
X-18157Y177453D01*
X-18201Y177356D01*
X-18238Y177251D01*
X-18269Y177138D01*
X-18292Y177017D01*
X-18308Y176888D01*
X-18317Y176751D01*
X-18319Y176606D01*
X-19488Y177776D01*
X-19343Y177778D01*
X-19078Y177803D01*
X-18957Y177826D01*
X-18844Y177856D01*
X-18739Y177893D01*
X-18642Y177938D01*
X-18553Y177989D01*
X-18472Y178048D01*
X-18399Y178113D01*
X-17981Y177695D01*
D02*
G37*
G36*
X-29417Y176174D02*
X-28903Y175960D01*
X-28792Y175926D01*
X-28592Y175880D01*
X-28502Y175869D01*
X-28419Y175865D01*
X-28213Y175274D01*
X-28317Y175268D01*
X-28417Y175250D01*
X-28512Y175221D01*
X-28602Y175179D01*
X-28687Y175125D01*
X-28767Y175060D01*
X-28842Y174982D01*
X-28912Y174893D01*
X-28977Y174792D01*
X-29038Y174678D01*
X-29563Y176246D01*
X-29417Y176174D01*
D02*
G37*
G36*
X-32403Y195319D02*
Y186407D01*
X-32811Y186134D01*
X-33203Y185548D01*
X-33340Y184857D01*
X-33212Y184214D01*
X-33237Y184079D01*
X-33432Y183714D01*
X-34493D01*
X-35261Y183562D01*
X-35912Y183126D01*
X-41219Y177819D01*
X-41654Y177168D01*
X-41807Y176400D01*
Y172795D01*
X-42305Y172746D01*
X-44774Y185090D01*
X-44495Y185505D01*
X-39829Y186412D01*
X-39825Y186414D01*
X-39813Y186415D01*
X-38684Y186797D01*
X-37692Y187459D01*
X-36905Y188354D01*
X-36377Y189423D01*
X-36143Y190592D01*
X-36220Y191781D01*
X-36603Y192911D01*
X-37264Y193903D01*
X-38160Y194689D01*
X-39228Y195218D01*
X-40397Y195451D01*
X-41496Y195380D01*
X-41575Y195396D01*
X-46627Y194414D01*
X-46729Y194896D01*
X-46452Y195313D01*
X-41829Y196212D01*
X-41826Y196214D01*
X-41813Y196215D01*
X-40684Y196597D01*
X-39692Y197258D01*
X-38905Y198154D01*
X-38377Y199223D01*
X-38263Y199791D01*
X-36876D01*
X-32403Y195319D01*
D02*
G37*
G36*
X9864Y192462D02*
X9909Y192445D01*
X9961Y192420D01*
X10020Y192386D01*
X10078Y192347D01*
X10240Y192213D01*
X10326Y192130D01*
X10384Y192107D01*
X10922Y191747D01*
X11036Y191670D01*
X11203Y191267D01*
X11127Y191153D01*
X10989Y190462D01*
X11127Y189771D01*
X11519Y189185D01*
X12105Y188793D01*
X12796Y188656D01*
X12877Y188169D01*
Y187088D01*
X10363Y184574D01*
X8909D01*
X8659Y184948D01*
X8073Y185339D01*
X7382Y185477D01*
X6691Y185339D01*
X6105Y184948D01*
X5713Y184362D01*
X5579Y183688D01*
X5504Y183636D01*
X5110Y183450D01*
X4694Y183866D01*
Y185314D01*
X4625Y185660D01*
X4545Y185779D01*
Y186858D01*
X4625Y186978D01*
X4690Y187303D01*
X9852Y192465D01*
X9864Y192462D01*
D02*
G37*
G36*
X7035Y178409D02*
X6881Y178473D01*
X6236Y178694D01*
X6133Y178718D01*
X5953Y178746D01*
X5875Y178749D01*
X5621Y179340D01*
X5726Y179346D01*
X5825Y179364D01*
X5919Y179393D01*
X6007Y179435D01*
X6088Y179489D01*
X6163Y179555D01*
X6233Y179632D01*
X6296Y179722D01*
X6354Y179824D01*
X6405Y179937D01*
X7035Y178409D01*
D02*
G37*
G36*
X11788Y177313D02*
X11643Y177311D01*
X11378Y177286D01*
X11257Y177263D01*
X11144Y177233D01*
X11039Y177196D01*
X10942Y177151D01*
X10853Y177100D01*
X10772Y177041D01*
X10699Y176976D01*
X10282Y177393D01*
X10347Y177466D01*
X10405Y177548D01*
X10457Y177636D01*
X10501Y177733D01*
X10538Y177838D01*
X10569Y177951D01*
X10592Y178072D01*
X10608Y178201D01*
X10617Y178338D01*
X10619Y178483D01*
X11788Y177313D01*
D02*
G37*
G36*
X-27312Y347514D02*
X-27457Y347511D01*
X-27722Y347486D01*
X-27843Y347463D01*
X-27956Y347433D01*
X-28061Y347395D01*
X-28158Y347351D01*
X-28247Y347300D01*
X-28328Y347241D01*
X-28401Y347176D01*
X-28819Y347593D01*
X-28753Y347667D01*
X-28695Y347747D01*
X-28643Y347836D01*
X-28599Y347933D01*
X-28562Y348038D01*
X-28532Y348151D01*
X-28508Y348272D01*
X-28492Y348401D01*
X-28483Y348538D01*
X-28481Y348683D01*
X-27312Y347514D01*
D02*
G37*
G36*
X-23365Y391883D02*
Y372476D01*
X-24282Y371559D01*
X-24478Y371266D01*
X-24546Y370920D01*
Y347561D01*
X-25005Y347316D01*
X-25198Y347395D01*
X-25309Y347469D01*
X-25444Y347496D01*
X-25470Y347506D01*
X-25625Y347882D01*
X-25624Y348041D01*
X-25494Y348694D01*
X-25631Y349386D01*
X-26023Y349972D01*
X-26609Y350363D01*
X-27150Y350471D01*
X-27185Y350553D01*
X-27116Y350899D01*
Y360596D01*
X-25737Y361975D01*
X-25541Y362268D01*
X-25472Y362613D01*
X-25472Y362614D01*
Y387511D01*
X-24851Y388132D01*
X-24655Y388425D01*
X-24587Y388771D01*
Y391556D01*
X-24551Y391736D01*
Y392415D01*
X-24089Y392606D01*
X-23365Y391883D01*
D02*
G37*
G36*
X-30103Y360296D02*
Y351762D01*
X-34302Y347563D01*
X-34764Y347755D01*
Y356289D01*
X-30565Y360487D01*
X-30103Y360296D01*
D02*
G37*
G36*
X-18416Y367389D02*
X-18061Y367200D01*
Y323879D01*
X-18240Y323612D01*
X-18408Y322767D01*
Y322631D01*
X-18891Y322431D01*
X-19425Y322020D01*
X-19835Y321486D01*
X-20093Y320863D01*
X-20564Y320972D01*
Y335395D01*
X-19461Y336497D01*
X-19266Y336790D01*
X-19197Y337136D01*
Y367283D01*
X-19191Y367295D01*
X-18561Y367421D01*
X-18416Y367389D01*
D02*
G37*
G36*
X-25274Y344853D02*
X-25444Y344647D01*
X-25513Y344545D01*
X-25572Y344444D01*
X-25620Y344343D01*
X-25657Y344243D01*
X-25684Y344144D01*
X-25699Y344046D01*
X-25705Y343948D01*
X-26295D01*
X-26301Y344046D01*
X-26316Y344144D01*
X-26343Y344243D01*
X-26380Y344343D01*
X-26428Y344444D01*
X-26487Y344545D01*
X-26556Y344647D01*
X-26635Y344749D01*
X-26726Y344853D01*
X-26827Y344956D01*
X-25173D01*
X-25274Y344853D01*
D02*
G37*
G36*
X-29515Y346062D02*
X-29583Y345986D01*
X-29641Y345903D01*
X-29689Y345814D01*
X-29727Y345719D01*
X-29755Y345617D01*
X-29772Y345509D01*
X-29780Y345394D01*
X-29777Y345274D01*
X-29765Y345147D01*
X-29742Y345014D01*
X-31113Y345938D01*
X-30961Y345969D01*
X-30685Y346040D01*
X-30561Y346081D01*
X-30342Y346172D01*
X-30246Y346223D01*
X-30160Y346277D01*
X-30084Y346335D01*
X-30016Y346396D01*
X-29515Y346062D01*
D02*
G37*
G36*
X-16802Y588996D02*
X-17383Y588755D01*
X-18329Y588029D01*
X-19055Y587083D01*
X-19511Y585982D01*
X-19667Y584800D01*
X-19511Y583618D01*
X-19055Y582517D01*
X-18329Y581571D01*
X-17383Y580845D01*
X-17107Y580731D01*
Y575600D01*
X-16954Y574832D01*
X-16519Y574181D01*
X-2007Y559669D01*
Y504921D01*
X-1854Y504153D01*
X-1419Y503502D01*
X4486Y497597D01*
X5137Y497161D01*
X5906Y497009D01*
X11653D01*
X44842Y463819D01*
Y405418D01*
X44995Y404650D01*
X45430Y403999D01*
X53750Y395679D01*
X53592Y395130D01*
X53333Y395070D01*
X52351Y396052D01*
X51961Y396313D01*
X51500Y396404D01*
X51500Y396404D01*
X41499D01*
X38484Y399419D01*
X38477Y399923D01*
X38869Y400509D01*
X39006Y401200D01*
X38869Y401891D01*
X38477Y402477D01*
X37891Y402869D01*
X37200Y403006D01*
X36509Y402869D01*
X35923Y402477D01*
X35531Y401891D01*
X35394Y401200D01*
X35531Y400509D01*
X35923Y399923D01*
X35996Y399874D01*
Y399000D01*
X35996Y399000D01*
X36087Y398539D01*
X36349Y398148D01*
X40148Y394349D01*
X40539Y394087D01*
X41000Y393996D01*
X47687D01*
X47799Y393496D01*
X47323Y393177D01*
X47073Y392803D01*
X22174D01*
X14719Y400259D01*
X14806Y400700D01*
X14669Y401391D01*
X14277Y401977D01*
X13691Y402369D01*
X13000Y402506D01*
X12559Y402419D01*
X-2772Y417749D01*
X-2607Y418292D01*
X-2409Y418331D01*
X-1823Y418723D01*
X-1431Y419309D01*
X-1294Y420000D01*
X-1381Y420441D01*
X1674Y423497D01*
X6573D01*
X6823Y423123D01*
X7409Y422731D01*
X8100Y422594D01*
X8791Y422731D01*
X9377Y423123D01*
X9769Y423709D01*
X9906Y424400D01*
X9769Y425091D01*
X9377Y425677D01*
X9003Y425927D01*
Y434567D01*
X9377Y434817D01*
X9769Y435403D01*
X9906Y436095D01*
X9769Y436786D01*
X9377Y437372D01*
X8791Y437763D01*
X8100Y437901D01*
X7409Y437763D01*
X6823Y437372D01*
X6431Y436786D01*
X6294Y436095D01*
X6431Y435403D01*
X6823Y434817D01*
X7197Y434567D01*
Y425927D01*
X6823Y425677D01*
X6573Y425303D01*
X1300D01*
X954Y425234D01*
X661Y425039D01*
X-2659Y421719D01*
X-3100Y421806D01*
X-3791Y421669D01*
X-4377Y421277D01*
X-4769Y420691D01*
X-4808Y420493D01*
X-5351Y420328D01*
X-5881Y420859D01*
X-5794Y421300D01*
X-5931Y421991D01*
X-6323Y422577D01*
X-6909Y422969D01*
X-7600Y423106D01*
X-8291Y422969D01*
X-8877Y422577D01*
X-9269Y421991D01*
X-9406Y421300D01*
X-9269Y420609D01*
X-8877Y420023D01*
X-8291Y419631D01*
X-7600Y419494D01*
X-7159Y419581D01*
X11281Y401141D01*
X11194Y400700D01*
X11331Y400009D01*
X11723Y399423D01*
X12309Y399031D01*
X13000Y398894D01*
X13441Y398981D01*
X21161Y391261D01*
X21454Y391066D01*
X21800Y390997D01*
X47073D01*
X47323Y390623D01*
X47909Y390231D01*
X48237Y390166D01*
X48401Y389623D01*
X46792Y388014D01*
X46313Y387298D01*
X46145Y386453D01*
Y321462D01*
X43377Y318694D01*
X43332Y318688D01*
X42709Y318430D01*
X42674Y318402D01*
X29094D01*
X29007Y318613D01*
X28597Y319148D01*
X28062Y319558D01*
X27440Y319816D01*
X26772Y319904D01*
X26104Y319816D01*
X25481Y319558D01*
X25445Y319531D01*
X-11013D01*
X-13803Y322321D01*
X-13646Y323114D01*
Y380648D01*
X-13814Y381493D01*
X-14292Y382209D01*
X-14701Y382618D01*
X-14707Y382663D01*
X-14965Y383285D01*
X-15375Y383820D01*
X-15909Y384230D01*
X-16532Y384488D01*
X-17200Y384576D01*
X-17868Y384488D01*
X-18491Y384230D01*
X-18697Y384071D01*
X-19197Y384318D01*
Y397395D01*
X-19266Y397740D01*
X-19461Y398033D01*
X-24061Y402633D01*
X-24756Y403328D01*
X-26315Y404887D01*
X-26294Y404994D01*
X-26431Y405686D01*
X-26823Y406272D01*
X-27409Y406663D01*
X-28100Y406801D01*
X-28486Y406724D01*
X-28732Y407185D01*
X-2541Y433376D01*
X-2100Y433288D01*
X-1409Y433426D01*
X-823Y433817D01*
X-431Y434403D01*
X-294Y435094D01*
X-431Y435786D01*
X-823Y436372D01*
X-1409Y436763D01*
X-2100Y436901D01*
X-2791Y436763D01*
X-3377Y436372D01*
X-3769Y435786D01*
X-3906Y435094D01*
X-3819Y434653D01*
X-27335Y411137D01*
X-27797Y411328D01*
Y444526D01*
X-21080Y451242D01*
X-20885Y451536D01*
X-20816Y451881D01*
X-20816Y451881D01*
Y468292D01*
X-20354Y468483D01*
X-9135Y457265D01*
X-9135Y457265D01*
X-8614Y456917D01*
X-8000Y456794D01*
X-8000Y456794D01*
X20835D01*
X28709Y448920D01*
X28731Y448809D01*
X29123Y448223D01*
X29709Y447831D01*
X30400Y447694D01*
X31091Y447831D01*
X31677Y448223D01*
X32069Y448809D01*
X32206Y449500D01*
X32069Y450191D01*
X31677Y450777D01*
X31091Y451169D01*
X30980Y451191D01*
X22635Y459535D01*
X22115Y459883D01*
X21500Y460006D01*
X21500Y460006D01*
X-7335D01*
X-27276Y479947D01*
Y575882D01*
X-27276Y575882D01*
X-27398Y576496D01*
X-27746Y577017D01*
X-27747Y577017D01*
X-31129Y580400D01*
X-22034Y589496D01*
X-16901D01*
X-16802Y588996D01*
D02*
G37*
G36*
X-47599Y572283D02*
X-47666Y572237D01*
X-47717Y572186D01*
X-47751Y572131D01*
X-47770Y572072D01*
X-47772Y572009D01*
X-47758Y571941D01*
X-47728Y571869D01*
X-47682Y571793D01*
X-47619Y571713D01*
X-47541Y571629D01*
X-48191Y571443D01*
X-49035Y572464D01*
X-47599Y572283D01*
D02*
G37*
G36*
X57087Y616643D02*
X57911Y616643D01*
X59530Y616321D01*
X61054Y615690D01*
X62426Y614773D01*
X63592Y613607D01*
X64509Y612235D01*
X65140Y610711D01*
X65462Y609093D01*
X65462Y608268D01*
X65462Y608268D01*
X65462Y608268D01*
X65462Y288585D01*
X65452Y288090D01*
X65452Y288089D01*
X65452Y288089D01*
X65452D01*
X65452Y288089D01*
X38666Y154157D01*
X27025Y156428D01*
X26879Y156906D01*
X35720Y165746D01*
X35720Y165746D01*
X35915Y166039D01*
X35984Y166385D01*
X35984Y166385D01*
Y193431D01*
X38108Y195555D01*
X38545Y195285D01*
X38445Y194985D01*
X38387Y194042D01*
X38576Y193115D01*
X38998Y192269D01*
X39624Y191561D01*
X40412Y191040D01*
X41309Y190740D01*
X42253Y190682D01*
X43179Y190870D01*
X44025Y191292D01*
X44733Y191919D01*
X45255Y192707D01*
X45555Y193604D01*
X45613Y194547D01*
X45424Y195474D01*
X45002Y196320D01*
X44376Y197028D01*
X43588Y197549D01*
X42691Y197850D01*
X41747Y197907D01*
X40821Y197719D01*
X39975Y197297D01*
X39267Y196670D01*
X39249Y196644D01*
X38749Y196794D01*
Y218696D01*
X43619Y223566D01*
X43681Y223552D01*
X44081Y223332D01*
X44031Y222518D01*
X44220Y221592D01*
X44642Y220746D01*
X45268Y220038D01*
X46056Y219516D01*
X46953Y219216D01*
X47897Y219158D01*
X48823Y219347D01*
X49669Y219769D01*
X50377Y220395D01*
X50899Y221184D01*
X51199Y222080D01*
X51257Y223024D01*
X51068Y223950D01*
X50646Y224796D01*
X50020Y225504D01*
X49231Y226026D01*
X48335Y226326D01*
X47391Y226384D01*
X46465Y226195D01*
X45619Y225774D01*
X44911Y225147D01*
X44484Y224503D01*
X43984Y224653D01*
Y230120D01*
X45393Y231530D01*
X46042D01*
X46098Y231254D01*
X46520Y230408D01*
X47146Y229700D01*
X47934Y229178D01*
X48831Y228878D01*
X49775Y228820D01*
X50701Y229009D01*
X51547Y229430D01*
X52255Y230057D01*
X52777Y230845D01*
X53077Y231742D01*
X53135Y232685D01*
X52946Y233612D01*
X52524Y234458D01*
X51898Y235166D01*
X51109Y235688D01*
X50213Y235988D01*
X49269Y236046D01*
X48343Y235857D01*
X47497Y235435D01*
X46789Y234809D01*
X46267Y234020D01*
X46038Y233336D01*
X45019D01*
X44674Y233267D01*
X44381Y233071D01*
X44381Y233071D01*
X42491Y231181D01*
X40413Y233259D01*
X40710Y234146D01*
X40768Y235089D01*
X40579Y236016D01*
X40157Y236862D01*
X39531Y237570D01*
X38743Y238092D01*
X37846Y238392D01*
X36902Y238449D01*
X35976Y238261D01*
X35130Y237839D01*
X34422Y237213D01*
X33900Y236424D01*
X33600Y235528D01*
X33542Y234584D01*
X33731Y233658D01*
X33759Y233602D01*
X33325Y233350D01*
X33177Y233572D01*
X32803Y233822D01*
Y236991D01*
X37211Y241399D01*
X37446Y241243D01*
X38342Y240943D01*
X39286Y240886D01*
X40212Y241074D01*
X41058Y241496D01*
X41766Y242122D01*
X42288Y242911D01*
X42588Y243807D01*
X42646Y244751D01*
X42457Y245677D01*
X42035Y246523D01*
X41409Y247232D01*
X40621Y247753D01*
X39724Y248053D01*
X38780Y248111D01*
X37854Y247923D01*
X37008Y247501D01*
X36300Y246874D01*
X35778Y246086D01*
X35478Y245189D01*
X35420Y244246D01*
X35609Y243319D01*
X35931Y242673D01*
X31261Y238004D01*
X31066Y237711D01*
X31050Y237634D01*
X30520Y237528D01*
X30472Y237600D01*
X20666Y247405D01*
X20373Y247601D01*
X20028Y247670D01*
X16639D01*
X16404Y248111D01*
X16469Y248209D01*
X16606Y248900D01*
X16469Y249591D01*
X16077Y250177D01*
X15706Y250426D01*
Y250575D01*
X16097Y251162D01*
X16235Y251853D01*
X16097Y252544D01*
X15706Y253130D01*
X15120Y253522D01*
X14428Y253659D01*
X13737Y253522D01*
X13151Y253130D01*
X13081Y253025D01*
X12479D01*
X12377Y253177D01*
X12003Y253427D01*
Y258073D01*
X12377Y258323D01*
X12769Y258909D01*
X12839Y259259D01*
X13083Y259360D01*
X13429Y259291D01*
X40104D01*
X40265Y258904D01*
X40675Y258369D01*
X41209Y257959D01*
X41832Y257701D01*
X42500Y257613D01*
X43168Y257701D01*
X43791Y257959D01*
X44325Y258369D01*
X44735Y258904D01*
X44993Y259526D01*
X44999Y259571D01*
X45561Y260133D01*
X46040Y260850D01*
X46208Y261695D01*
Y314868D01*
X46235Y314904D01*
X46493Y315526D01*
X46499Y315571D01*
X49914Y318986D01*
X50393Y319702D01*
X50560Y320547D01*
Y327095D01*
X51060Y327332D01*
X51409Y327065D01*
X52032Y326807D01*
X52700Y326719D01*
X53368Y326807D01*
X53991Y327065D01*
X54525Y327475D01*
X54935Y328009D01*
X55193Y328632D01*
X55281Y329300D01*
X55193Y329968D01*
X54935Y330591D01*
X54707Y330888D01*
Y384401D01*
X59656Y389350D01*
X60091Y390001D01*
X60244Y390769D01*
Y394031D01*
X60091Y394799D01*
X59656Y395450D01*
X48857Y406250D01*
Y464650D01*
X48704Y465418D01*
X48269Y466070D01*
X13904Y500435D01*
X13252Y500870D01*
X12484Y501023D01*
X6737D01*
X2007Y505753D01*
Y560500D01*
X1854Y561268D01*
X1419Y561919D01*
X-13093Y576431D01*
Y580731D01*
X-12817Y580845D01*
X-11871Y581571D01*
X-11145Y582517D01*
X-10689Y583618D01*
X-10533Y584800D01*
X-10689Y585982D01*
X-11145Y587083D01*
X-11871Y588029D01*
X-12817Y588755D01*
X-13398Y588996D01*
X-13299Y589496D01*
X-7600D01*
X-7600Y589496D01*
X-7139Y589587D01*
X-6748Y589849D01*
X-5186Y591411D01*
X-5100Y591394D01*
X-4409Y591531D01*
X-3823Y591923D01*
X-3431Y592509D01*
X-3294Y593200D01*
X-3431Y593891D01*
X-3823Y594477D01*
X-4409Y594869D01*
X-5100Y595006D01*
X-5791Y594869D01*
X-6377Y594477D01*
X-6769Y593891D01*
X-6906Y593200D01*
X-6889Y593114D01*
X-8099Y591904D01*
X-15084D01*
X-15198Y592153D01*
X-15221Y592404D01*
X-14539Y592927D01*
X-13964Y593677D01*
X-13602Y594551D01*
X-13478Y595488D01*
Y599425D01*
X-13602Y600362D01*
X-13964Y601236D01*
X-14539Y601986D01*
X-15289Y602562D01*
X-16163Y602923D01*
X-17100Y603047D01*
X-18037Y602923D01*
X-18911Y602562D01*
X-19661Y601986D01*
X-20236Y601236D01*
X-20598Y600362D01*
X-20721Y599425D01*
Y595488D01*
X-20598Y594551D01*
X-20236Y593677D01*
X-19661Y592927D01*
X-18979Y592404D01*
X-19002Y592153D01*
X-19116Y591904D01*
X-22068D01*
X-22486Y592183D01*
X-23100Y592306D01*
X-23714Y592183D01*
X-24235Y591835D01*
X-34065Y582006D01*
X-59114D01*
X-59209Y582069D01*
X-59900Y582206D01*
X-60591Y582069D01*
X-61177Y581677D01*
X-61569Y581091D01*
X-61706Y580400D01*
X-61569Y579709D01*
X-61177Y579123D01*
X-60591Y578731D01*
X-59900Y578594D01*
X-59209Y578731D01*
X-59114Y578794D01*
X-34065D01*
X-30487Y575217D01*
Y556088D01*
X-30950Y555897D01*
X-46936Y571884D01*
X-46923Y572023D01*
X-46531Y572609D01*
X-46394Y573300D01*
X-46531Y573991D01*
X-46923Y574577D01*
X-47509Y574969D01*
X-48200Y575106D01*
X-48891Y574969D01*
X-49477Y574577D01*
X-49869Y573991D01*
X-49989Y573389D01*
X-50272Y573197D01*
X-50480Y573116D01*
X-50709Y573269D01*
X-51400Y573406D01*
X-52091Y573269D01*
X-52677Y572877D01*
X-53069Y572291D01*
X-53206Y571600D01*
X-53069Y570909D01*
X-52677Y570323D01*
X-52091Y569931D01*
X-51400Y569794D01*
X-50709Y569931D01*
X-50123Y570323D01*
X-49575Y570298D01*
X-32836Y553559D01*
Y477533D01*
X-32768Y477187D01*
X-32572Y476894D01*
X-23803Y468126D01*
Y452744D01*
X-30520Y446028D01*
X-30716Y445735D01*
X-30784Y445389D01*
Y418486D01*
X-31284Y418219D01*
X-31509Y418369D01*
X-32200Y418506D01*
X-32891Y418369D01*
X-33477Y417977D01*
X-33869Y417391D01*
X-34006Y416700D01*
X-33919Y416259D01*
X-35157Y415020D01*
X-35353Y414727D01*
X-35422Y414381D01*
Y400353D01*
X-35884Y400161D01*
X-37297Y401574D01*
Y442486D01*
X-24661Y455122D01*
X-24661Y455122D01*
X-24466Y455415D01*
X-24397Y455761D01*
Y467600D01*
X-24466Y467946D01*
X-24661Y468239D01*
X-33397Y476974D01*
Y523945D01*
X-33397Y523945D01*
X-33466Y524291D01*
X-33566Y524442D01*
X-33471Y524923D01*
X-33608Y525614D01*
X-34000Y526200D01*
X-34586Y526592D01*
X-35277Y526729D01*
X-35969Y526592D01*
X-36555Y526200D01*
X-36946Y525614D01*
X-37084Y524923D01*
X-36946Y524231D01*
X-36555Y523645D01*
X-35969Y523254D01*
X-35277Y523116D01*
X-35203Y523056D01*
Y476600D01*
X-35134Y476254D01*
X-34939Y475961D01*
X-26203Y467226D01*
Y456135D01*
X-38839Y443499D01*
X-39034Y443206D01*
X-39103Y442861D01*
Y401200D01*
X-39034Y400854D01*
X-38839Y400561D01*
X-31540Y393263D01*
X-31685Y392784D01*
X-31791Y392763D01*
X-32377Y392372D01*
X-32769Y391786D01*
X-32906Y391094D01*
X-32769Y390403D01*
X-32377Y389817D01*
X-32003Y389567D01*
Y371833D01*
X-32164Y371586D01*
X-32400Y371401D01*
X-33091Y371263D01*
X-33677Y370872D01*
X-34069Y370286D01*
X-34206Y369595D01*
X-34069Y368903D01*
X-33677Y368317D01*
X-33091Y367926D01*
X-32400Y367788D01*
X-31709Y367926D01*
X-31322Y368184D01*
X-30822Y367936D01*
Y364455D01*
X-33711Y361566D01*
X-34189Y361796D01*
X-34256Y362312D01*
X-34514Y362935D01*
X-34925Y363469D01*
X-35459Y363879D01*
X-36082Y364137D01*
X-36750Y364225D01*
X-37418Y364137D01*
X-38040Y363879D01*
X-38338Y363651D01*
X-41418D01*
X-53493Y375726D01*
Y387607D01*
X-53265Y387904D01*
X-53007Y388526D01*
X-52919Y389194D01*
X-53007Y389862D01*
X-53265Y390485D01*
X-53675Y391020D01*
X-54209Y391430D01*
X-54832Y391688D01*
X-55500Y391776D01*
X-56168Y391688D01*
X-56791Y391430D01*
X-57325Y391020D01*
X-57735Y390485D01*
X-57993Y389862D01*
X-58081Y389194D01*
X-57993Y388526D01*
X-57735Y387904D01*
X-57507Y387607D01*
Y374894D01*
X-57354Y374126D01*
X-56919Y373475D01*
X-43669Y360225D01*
X-43018Y359790D01*
X-42250Y359637D01*
X-41410D01*
X-41119Y359282D01*
Y341071D01*
X-40966Y340303D01*
X-40531Y339652D01*
X-38714Y337835D01*
Y331961D01*
X-38658Y331676D01*
Y329524D01*
X-38714Y329239D01*
Y267500D01*
X-38662Y267236D01*
X-38704Y267173D01*
X-38857Y266405D01*
Y263795D01*
X-38807Y263546D01*
Y250326D01*
X-39459Y249674D01*
X-40002Y249838D01*
X-40031Y249986D01*
X-40423Y250572D01*
X-41009Y250963D01*
X-41700Y251101D01*
X-42391Y250963D01*
X-42977Y250572D01*
X-43369Y249986D01*
X-43506Y249294D01*
X-43369Y248603D01*
X-42977Y248017D01*
X-42838Y247924D01*
X-42834Y247907D01*
X-42639Y247614D01*
X-41764Y246740D01*
Y231764D01*
X-43468Y230059D01*
X-43799Y230125D01*
X-43981Y230234D01*
X-44032Y231029D01*
X-44414Y232158D01*
X-45076Y233150D01*
X-45971Y233937D01*
X-47040Y234465D01*
X-48209Y234699D01*
X-49307Y234628D01*
X-49387Y234644D01*
X-54471Y233656D01*
X-54575Y234135D01*
X-54298Y234553D01*
X-49583Y235469D01*
X-49580Y235471D01*
X-49567Y235472D01*
X-48438Y235854D01*
X-47446Y236516D01*
X-46659Y237411D01*
X-46131Y238480D01*
X-45897Y239649D01*
X-45974Y240839D01*
X-46357Y241968D01*
X-47018Y242960D01*
X-47914Y243747D01*
X-48982Y244275D01*
X-50151Y244508D01*
X-51250Y244437D01*
X-51329Y244454D01*
X-56432Y243462D01*
X-56536Y243941D01*
X-56260Y244358D01*
X-51525Y245279D01*
X-51522Y245281D01*
X-51509Y245282D01*
X-50380Y245664D01*
X-49388Y246325D01*
X-48602Y247221D01*
X-48073Y248290D01*
X-47840Y249459D01*
X-47917Y250648D01*
X-48299Y251778D01*
X-48960Y252769D01*
X-49856Y253556D01*
X-50925Y254084D01*
X-52094Y254318D01*
X-53192Y254247D01*
X-53271Y254263D01*
X-58393Y253268D01*
X-58498Y253747D01*
X-58221Y254164D01*
X-53467Y255088D01*
X-53464Y255090D01*
X-53452Y255091D01*
X-52323Y255473D01*
X-51331Y256135D01*
X-50544Y257031D01*
X-50016Y258099D01*
X-49782Y259268D01*
X-49859Y260458D01*
X-50241Y261587D01*
X-50903Y262579D01*
X-51798Y263366D01*
X-52867Y263894D01*
X-54036Y264127D01*
X-55134Y264056D01*
X-55214Y264073D01*
X-60354Y263073D01*
X-60459Y263553D01*
X-60182Y263970D01*
X-55410Y264898D01*
X-55407Y264900D01*
X-55394Y264901D01*
X-54265Y265283D01*
X-53273Y265945D01*
X-52486Y266840D01*
X-51958Y267909D01*
X-51724Y269078D01*
X-51801Y270268D01*
X-52184Y271397D01*
X-52845Y272389D01*
X-53741Y273175D01*
X-54809Y273704D01*
X-55978Y273937D01*
X-57077Y273866D01*
X-57156Y273882D01*
X-62331Y272876D01*
X-65452Y288483D01*
X-65455Y288495D01*
X-65458Y288520D01*
X-65461Y288545D01*
X-65462Y288570D01*
Y608268D01*
Y609093D01*
X-65140Y610711D01*
X-64509Y612235D01*
X-63592Y613607D01*
X-62426Y614773D01*
X-61054Y615690D01*
X-59530Y616321D01*
X-57912Y616643D01*
X-57087D01*
X-57087Y616643D01*
X57087Y616643D01*
D02*
G37*
G36*
X-19307Y367924D02*
X-19402Y367927D01*
X-19486Y367916D01*
X-19561Y367894D01*
X-19626Y367858D01*
X-19680Y367810D01*
X-19725Y367749D01*
X-19760Y367675D01*
X-19785Y367588D01*
X-19800Y367489D01*
X-19805Y367377D01*
X-20395Y367627D01*
X-20375Y368980D01*
X-19307Y367924D01*
D02*
G37*
G36*
X-30891Y370686D02*
X-30963Y370607D01*
X-31026Y370524D01*
X-31081Y370436D01*
X-31127Y370343D01*
X-31164Y370246D01*
X-31193Y370144D01*
X-31213Y370037D01*
X-31225Y369925D01*
X-31228Y369809D01*
X-31223Y369687D01*
X-32307Y370772D01*
X-32186Y370766D01*
X-32069Y370770D01*
X-31958Y370781D01*
X-31851Y370801D01*
X-31748Y370830D01*
X-31651Y370868D01*
X-31558Y370914D01*
X-31470Y370968D01*
X-31387Y371032D01*
X-31309Y371103D01*
X-30891Y370686D01*
D02*
G37*
G36*
X-27017Y401038D02*
X-26992Y400772D01*
X-26969Y400651D01*
X-26938Y400538D01*
X-26901Y400433D01*
X-26857Y400336D01*
X-26805Y400247D01*
X-26747Y400167D01*
X-26682Y400094D01*
X-27099Y399676D01*
X-27172Y399741D01*
X-27253Y399800D01*
X-27342Y399851D01*
X-27439Y399896D01*
X-27544Y399933D01*
X-27657Y399963D01*
X-27778Y399986D01*
X-27907Y400002D01*
X-28043Y400011D01*
X-28188Y400013D01*
X-27019Y401183D01*
X-27017Y401038D01*
D02*
G37*
G36*
X-23393Y286621D02*
X-23821Y286193D01*
X-23823Y286196D01*
X-23829Y286204D01*
X-23838Y286215D01*
X-23952Y286334D01*
X-24028Y286410D01*
X-23610Y286828D01*
X-23393Y286621D01*
D02*
G37*
G36*
X-20176Y287222D02*
X-20107Y287168D01*
X-20028Y287113D01*
X-19837Y287001D01*
X-19725Y286943D01*
X-19325Y286762D01*
X-19170Y286700D01*
X-20691Y286052D01*
X-20648Y286170D01*
X-20617Y286283D01*
X-20599Y286392D01*
X-20594Y286496D01*
X-20601Y286596D01*
X-20621Y286692D01*
X-20653Y286784D01*
X-20698Y286871D01*
X-20756Y286954D01*
X-20827Y287033D01*
X-20233Y287275D01*
X-20176Y287222D01*
D02*
G37*
%LPC*%
G36*
X13100Y314606D02*
X12409Y314469D01*
X11823Y314077D01*
X11431Y313491D01*
X11294Y312800D01*
X11431Y312109D01*
X11823Y311523D01*
X11894Y311475D01*
Y269483D01*
X11394Y269276D01*
X5006Y275665D01*
Y280000D01*
X4883Y280614D01*
X4535Y281135D01*
X4535Y281135D01*
X-11165Y296835D01*
X-11686Y297183D01*
X-12300Y297306D01*
X-12300Y297306D01*
X-14214D01*
X-14309Y297369D01*
X-15000Y297506D01*
X-15691Y297369D01*
X-16277Y296977D01*
X-16669Y296391D01*
X-16806Y295700D01*
X-16669Y295009D01*
X-16277Y294423D01*
X-15691Y294031D01*
X-15000Y293894D01*
X-14309Y294031D01*
X-14214Y294094D01*
X-12965D01*
X1794Y279335D01*
Y275000D01*
X1794Y275000D01*
X1917Y274385D01*
X2265Y273865D01*
X9765Y266365D01*
X9765Y266365D01*
X10285Y266017D01*
X10900Y265894D01*
X12714D01*
X12809Y265831D01*
X13500Y265694D01*
X14191Y265831D01*
X14777Y266223D01*
X15169Y266809D01*
X15306Y267500D01*
X15169Y268191D01*
X15106Y268286D01*
Y312400D01*
X15106Y312400D01*
X14983Y313014D01*
X14813Y313270D01*
X14769Y313491D01*
X14377Y314077D01*
X13791Y314469D01*
X13100Y314606D01*
D02*
G37*
G36*
X18300Y230606D02*
X17609Y230469D01*
X17023Y230077D01*
X16631Y229491D01*
X16494Y228800D01*
X16631Y228109D01*
X17023Y227523D01*
X17397Y227273D01*
Y224974D01*
X17041Y224619D01*
X16600Y224706D01*
X15909Y224569D01*
X15323Y224177D01*
X14931Y223591D01*
X14794Y222900D01*
X14931Y222209D01*
X15323Y221623D01*
X15909Y221231D01*
X16600Y221094D01*
X17291Y221231D01*
X17877Y221623D01*
X18269Y222209D01*
X18406Y222900D01*
X18319Y223341D01*
X18939Y223961D01*
X19134Y224254D01*
X19203Y224600D01*
Y227273D01*
X19577Y227523D01*
X19969Y228109D01*
X20106Y228800D01*
X19969Y229491D01*
X19577Y230077D01*
X18991Y230469D01*
X18300Y230606D01*
D02*
G37*
G36*
X31258Y209973D02*
X30332Y209784D01*
X29486Y209363D01*
X28778Y208736D01*
X28256Y207948D01*
X27956Y207051D01*
X27898Y206107D01*
X28087Y205181D01*
X28509Y204335D01*
X29135Y203627D01*
X29923Y203105D01*
X30820Y202805D01*
X31764Y202747D01*
X32690Y202936D01*
X33536Y203358D01*
X34244Y203984D01*
X34766Y204772D01*
X35066Y205669D01*
X35124Y206613D01*
X34935Y207539D01*
X34514Y208385D01*
X33887Y209093D01*
X33099Y209615D01*
X32202Y209915D01*
X31258Y209973D01*
D02*
G37*
G36*
X15748Y82969D02*
X15717Y82957D01*
X15685Y82966D01*
X13794Y82780D01*
X13737Y82749D01*
X13672Y82756D01*
X11853Y82204D01*
X11803Y82162D01*
X11738Y82156D01*
X10062Y81260D01*
X10020Y81210D01*
X9958Y81191D01*
X8489Y79985D01*
X8458Y79928D01*
X8400Y79897D01*
X7195Y78428D01*
X7176Y78365D01*
X7125Y78324D01*
X6230Y76648D01*
X6223Y76583D01*
X6182Y76532D01*
X5630Y74714D01*
X5637Y74649D01*
X5606Y74591D01*
X5420Y72701D01*
X5439Y72638D01*
X5420Y72575D01*
X5606Y70684D01*
X5637Y70626D01*
X5630Y70561D01*
X6182Y68743D01*
X6223Y68692D01*
X6230Y68627D01*
X7125Y66952D01*
X7176Y66910D01*
X7195Y66847D01*
X8400Y65379D01*
X8458Y65348D01*
X8489Y65290D01*
X9958Y64085D01*
X10020Y64066D01*
X10062Y64015D01*
X11738Y63120D01*
X11803Y63113D01*
X11853Y63072D01*
X13672Y62520D01*
X13737Y62526D01*
X13794Y62496D01*
X15685Y62309D01*
X15717Y62319D01*
X15748Y62306D01*
X15779Y62319D01*
X15811Y62309D01*
X17702Y62496D01*
X17759Y62526D01*
X17824Y62520D01*
X19643Y63072D01*
X19693Y63113D01*
X19758Y63120D01*
X21434Y64015D01*
X21476Y64066D01*
X21538Y64085D01*
X23007Y65290D01*
X23038Y65348D01*
X23096Y65379D01*
X24301Y66847D01*
X24320Y66910D01*
X24371Y66952D01*
X25266Y68627D01*
X25273Y68692D01*
X25314Y68743D01*
X25866Y70561D01*
X25859Y70626D01*
X25890Y70684D01*
X26076Y72575D01*
X26057Y72638D01*
X26076Y72701D01*
X25890Y74591D01*
X25859Y74649D01*
X25866Y74714D01*
X25314Y76532D01*
X25273Y76583D01*
X25266Y76648D01*
X24371Y78324D01*
X24320Y78365D01*
X24301Y78428D01*
X23096Y79897D01*
X23038Y79928D01*
X23007Y79985D01*
X21538Y81191D01*
X21476Y81210D01*
X21434Y81260D01*
X19758Y82156D01*
X19693Y82162D01*
X19643Y82204D01*
X17824Y82756D01*
X17759Y82749D01*
X17702Y82780D01*
X15811Y82966D01*
X15779Y82957D01*
X15748Y82969D01*
D02*
G37*
G36*
X-15748Y114662D02*
X-15779Y114649D01*
X-15811Y114659D01*
X-17702Y114473D01*
X-17759Y114442D01*
X-17824Y114448D01*
X-19643Y113897D01*
X-19693Y113855D01*
X-19758Y113849D01*
X-21434Y112953D01*
X-21476Y112903D01*
X-21538Y112884D01*
X-23007Y111678D01*
X-23038Y111621D01*
X-23096Y111590D01*
X-24301Y110121D01*
X-24320Y110058D01*
X-24371Y110017D01*
X-25266Y108341D01*
X-25273Y108276D01*
X-25314Y108225D01*
X-25866Y106407D01*
X-25859Y106342D01*
X-25890Y106284D01*
X-26076Y104393D01*
X-26057Y104331D01*
X-26076Y104268D01*
X-25890Y102377D01*
X-25859Y102319D01*
X-25866Y102254D01*
X-25314Y100436D01*
X-25273Y100385D01*
X-25266Y100320D01*
X-24371Y98645D01*
X-24320Y98603D01*
X-24301Y98540D01*
X-23096Y97072D01*
X-23038Y97041D01*
X-23007Y96983D01*
X-21538Y95778D01*
X-21476Y95759D01*
X-21434Y95708D01*
X-19758Y94812D01*
X-19693Y94806D01*
X-19643Y94765D01*
X-17824Y94213D01*
X-17759Y94219D01*
X-17702Y94188D01*
X-15811Y94002D01*
X-15779Y94012D01*
X-15748Y93999D01*
X-15717Y94012D01*
X-15685Y94002D01*
X-13794Y94188D01*
X-13737Y94219D01*
X-13672Y94213D01*
X-11853Y94765D01*
X-11803Y94806D01*
X-11738Y94812D01*
X-10062Y95708D01*
X-10020Y95759D01*
X-9958Y95778D01*
X-8489Y96983D01*
X-8458Y97041D01*
X-8400Y97072D01*
X-7195Y98540D01*
X-7176Y98603D01*
X-7125Y98645D01*
X-6230Y100320D01*
X-6223Y100385D01*
X-6182Y100436D01*
X-5630Y102254D01*
X-5637Y102319D01*
X-5606Y102377D01*
X-5420Y104268D01*
X-5439Y104331D01*
X-5420Y104393D01*
X-5606Y106284D01*
X-5637Y106342D01*
X-5630Y106407D01*
X-6182Y108225D01*
X-6223Y108276D01*
X-6230Y108341D01*
X-7125Y110017D01*
X-7176Y110058D01*
X-7195Y110121D01*
X-8400Y111590D01*
X-8458Y111621D01*
X-8489Y111678D01*
X-9958Y112884D01*
X-10020Y112903D01*
X-10062Y112953D01*
X-11738Y113849D01*
X-11803Y113855D01*
X-11853Y113897D01*
X-13672Y114448D01*
X-13737Y114442D01*
X-13794Y114473D01*
X-15685Y114659D01*
X-15717Y114649D01*
X-15748Y114662D01*
D02*
G37*
G36*
Y82969D02*
X-15779Y82957D01*
X-15811Y82966D01*
X-17702Y82780D01*
X-17759Y82749D01*
X-17824Y82756D01*
X-19643Y82204D01*
X-19693Y82162D01*
X-19758Y82156D01*
X-21434Y81260D01*
X-21476Y81210D01*
X-21538Y81191D01*
X-23007Y79985D01*
X-23038Y79928D01*
X-23096Y79897D01*
X-24301Y78428D01*
X-24320Y78365D01*
X-24371Y78324D01*
X-25266Y76648D01*
X-25273Y76583D01*
X-25314Y76532D01*
X-25866Y74714D01*
X-25859Y74649D01*
X-25890Y74591D01*
X-26076Y72701D01*
X-26057Y72638D01*
X-26076Y72575D01*
X-25890Y70684D01*
X-25859Y70626D01*
X-25866Y70561D01*
X-25314Y68743D01*
X-25273Y68692D01*
X-25266Y68627D01*
X-24371Y66952D01*
X-24320Y66910D01*
X-24301Y66847D01*
X-23096Y65379D01*
X-23038Y65348D01*
X-23007Y65290D01*
X-21538Y64085D01*
X-21476Y64066D01*
X-21434Y64015D01*
X-19758Y63120D01*
X-19693Y63113D01*
X-19643Y63072D01*
X-17824Y62520D01*
X-17759Y62526D01*
X-17702Y62496D01*
X-15811Y62309D01*
X-15779Y62319D01*
X-15748Y62306D01*
X-15717Y62319D01*
X-15685Y62309D01*
X-13794Y62496D01*
X-13737Y62526D01*
X-13672Y62520D01*
X-11853Y63072D01*
X-11803Y63113D01*
X-11738Y63120D01*
X-10062Y64015D01*
X-10020Y64066D01*
X-9958Y64085D01*
X-8489Y65290D01*
X-8458Y65348D01*
X-8400Y65379D01*
X-7195Y66847D01*
X-7176Y66910D01*
X-7125Y66952D01*
X-6230Y68627D01*
X-6223Y68692D01*
X-6182Y68743D01*
X-5630Y70561D01*
X-5637Y70626D01*
X-5606Y70684D01*
X-5420Y72575D01*
X-5439Y72638D01*
X-5420Y72701D01*
X-5606Y74591D01*
X-5637Y74649D01*
X-5630Y74714D01*
X-6182Y76532D01*
X-6223Y76583D01*
X-6230Y76648D01*
X-7125Y78324D01*
X-7176Y78365D01*
X-7195Y78428D01*
X-8400Y79897D01*
X-8458Y79928D01*
X-8489Y79985D01*
X-9958Y81191D01*
X-10020Y81210D01*
X-10062Y81260D01*
X-11738Y82156D01*
X-11803Y82162D01*
X-11853Y82204D01*
X-13672Y82756D01*
X-13737Y82749D01*
X-13794Y82780D01*
X-15685Y82966D01*
X-15717Y82957D01*
X-15748Y82969D01*
D02*
G37*
G36*
Y555607D02*
X-15779Y555594D01*
X-15811Y555604D01*
X-17702Y555418D01*
X-17759Y555387D01*
X-17824Y555393D01*
X-19643Y554842D01*
X-19693Y554800D01*
X-19758Y554794D01*
X-21434Y553898D01*
X-21476Y553848D01*
X-21538Y553829D01*
X-23007Y552623D01*
X-23038Y552565D01*
X-23096Y552535D01*
X-24301Y551066D01*
X-24320Y551003D01*
X-24371Y550962D01*
X-25266Y549286D01*
X-25273Y549221D01*
X-25314Y549170D01*
X-25866Y547352D01*
X-25859Y547287D01*
X-25890Y547229D01*
X-26076Y545338D01*
X-26057Y545276D01*
X-26076Y545213D01*
X-25890Y543322D01*
X-25859Y543264D01*
X-25866Y543199D01*
X-25314Y541381D01*
X-25273Y541330D01*
X-25266Y541265D01*
X-24371Y539590D01*
X-24320Y539548D01*
X-24301Y539485D01*
X-23096Y538017D01*
X-23038Y537986D01*
X-23007Y537928D01*
X-21538Y536723D01*
X-21476Y536704D01*
X-21434Y536653D01*
X-19758Y535757D01*
X-19693Y535751D01*
X-19643Y535709D01*
X-17824Y535158D01*
X-17759Y535164D01*
X-17702Y535133D01*
X-15811Y534947D01*
X-15779Y534957D01*
X-15748Y534944D01*
X-15717Y534957D01*
X-15685Y534947D01*
X-13794Y535133D01*
X-13737Y535164D01*
X-13672Y535158D01*
X-11853Y535709D01*
X-11803Y535751D01*
X-11738Y535757D01*
X-10062Y536653D01*
X-10020Y536704D01*
X-9958Y536723D01*
X-8489Y537928D01*
X-8458Y537986D01*
X-8400Y538017D01*
X-7195Y539485D01*
X-7176Y539548D01*
X-7125Y539590D01*
X-6230Y541265D01*
X-6223Y541330D01*
X-6182Y541381D01*
X-5630Y543199D01*
X-5637Y543264D01*
X-5606Y543322D01*
X-5420Y545213D01*
X-5439Y545276D01*
X-5420Y545338D01*
X-5606Y547229D01*
X-5637Y547287D01*
X-5630Y547352D01*
X-6182Y549170D01*
X-6223Y549221D01*
X-6230Y549286D01*
X-7125Y550962D01*
X-7176Y551003D01*
X-7195Y551066D01*
X-8400Y552535D01*
X-8458Y552565D01*
X-8489Y552623D01*
X-9958Y553829D01*
X-10020Y553848D01*
X-10062Y553898D01*
X-11738Y554794D01*
X-11803Y554800D01*
X-11853Y554842D01*
X-13672Y555393D01*
X-13737Y555387D01*
X-13794Y555418D01*
X-15685Y555604D01*
X-15717Y555594D01*
X-15748Y555607D01*
D02*
G37*
G36*
Y524111D02*
X-15779Y524098D01*
X-15811Y524108D01*
X-17702Y523922D01*
X-17759Y523891D01*
X-17824Y523897D01*
X-19643Y523346D01*
X-19693Y523304D01*
X-19758Y523298D01*
X-21434Y522402D01*
X-21476Y522352D01*
X-21538Y522332D01*
X-23007Y521127D01*
X-23038Y521069D01*
X-23096Y521039D01*
X-24301Y519570D01*
X-24320Y519507D01*
X-24371Y519466D01*
X-25266Y517790D01*
X-25273Y517725D01*
X-25314Y517674D01*
X-25866Y515856D01*
X-25859Y515791D01*
X-25890Y515733D01*
X-26076Y513842D01*
X-26057Y513779D01*
X-26076Y513717D01*
X-25890Y511826D01*
X-25859Y511768D01*
X-25866Y511703D01*
X-25314Y509885D01*
X-25273Y509834D01*
X-25266Y509769D01*
X-24371Y508093D01*
X-24320Y508052D01*
X-24301Y507989D01*
X-23096Y506521D01*
X-23038Y506490D01*
X-23007Y506432D01*
X-21538Y505227D01*
X-21476Y505207D01*
X-21434Y505157D01*
X-19758Y504261D01*
X-19693Y504255D01*
X-19643Y504213D01*
X-17824Y503662D01*
X-17759Y503668D01*
X-17702Y503637D01*
X-15811Y503451D01*
X-15779Y503461D01*
X-15748Y503448D01*
X-15717Y503461D01*
X-15685Y503451D01*
X-13794Y503637D01*
X-13737Y503668D01*
X-13672Y503662D01*
X-11853Y504213D01*
X-11803Y504255D01*
X-11738Y504261D01*
X-10062Y505157D01*
X-10020Y505207D01*
X-9958Y505227D01*
X-8489Y506432D01*
X-8458Y506490D01*
X-8400Y506521D01*
X-7195Y507989D01*
X-7176Y508052D01*
X-7125Y508093D01*
X-6230Y509769D01*
X-6223Y509834D01*
X-6182Y509885D01*
X-5630Y511703D01*
X-5637Y511768D01*
X-5606Y511826D01*
X-5420Y513717D01*
X-5439Y513779D01*
X-5420Y513842D01*
X-5606Y515733D01*
X-5637Y515791D01*
X-5630Y515856D01*
X-6182Y517674D01*
X-6223Y517725D01*
X-6230Y517790D01*
X-7125Y519466D01*
X-7176Y519507D01*
X-7195Y519570D01*
X-8400Y521039D01*
X-8458Y521069D01*
X-8489Y521127D01*
X-9958Y522332D01*
X-10020Y522352D01*
X-10062Y522402D01*
X-11738Y523298D01*
X-11803Y523304D01*
X-11853Y523346D01*
X-13672Y523897D01*
X-13737Y523891D01*
X-13794Y523922D01*
X-15685Y524108D01*
X-15717Y524098D01*
X-15748Y524111D01*
D02*
G37*
G36*
X-10630Y377003D02*
X-11321Y376866D01*
X-11907Y376474D01*
X-12299Y375888D01*
X-12436Y375197D01*
X-12299Y374506D01*
X-11907Y373920D01*
X-11321Y373528D01*
X-10630Y373391D01*
X-10189Y373478D01*
X15109Y348180D01*
X15109Y348180D01*
X15402Y347985D01*
X15748Y347916D01*
X24457D01*
X24707Y347542D01*
X25293Y347150D01*
X25984Y347012D01*
X26676Y347150D01*
X27261Y347542D01*
X27653Y348128D01*
X27791Y348819D01*
X27653Y349510D01*
X27261Y350096D01*
X26676Y350488D01*
X25984Y350625D01*
X25293Y350488D01*
X24707Y350096D01*
X24457Y349722D01*
X16122D01*
X-8911Y374756D01*
X-8824Y375197D01*
X-8961Y375888D01*
X-9353Y376474D01*
X-9939Y376866D01*
X-10630Y377003D01*
D02*
G37*
G36*
X-5165Y351810D02*
X-5289Y351785D01*
X-5414Y351810D01*
X-5952Y351702D01*
X-6057Y351632D01*
X-6182Y351607D01*
X-6638Y351303D01*
X-6709Y351197D01*
X-6814Y351126D01*
X-7119Y350670D01*
X-7144Y350546D01*
X-7214Y350440D01*
X-7321Y349902D01*
X-7296Y349778D01*
X-7321Y349653D01*
X-7214Y349115D01*
X-7144Y349009D01*
X-7119Y348885D01*
X-6814Y348429D01*
X-6760Y348393D01*
X-6735Y348332D01*
X-6674Y348307D01*
X-6638Y348253D01*
X-6182Y347948D01*
X-6057Y347923D01*
X-5952Y347853D01*
X-5414Y347746D01*
X-5289Y347771D01*
X-5165Y347746D01*
X-4627Y347853D01*
X-4521Y347923D01*
X-4397Y347948D01*
X-3941Y348253D01*
X-3870Y348358D01*
X-3764Y348429D01*
X-3460Y348885D01*
X-3435Y349009D01*
X-3364Y349115D01*
X-3258Y349653D01*
X-3282Y349778D01*
X-3258Y349902D01*
X-3364Y350440D01*
X-3435Y350546D01*
X-3460Y350670D01*
X-3764Y351126D01*
X-3819Y351163D01*
X-3844Y351223D01*
X-3904Y351248D01*
X-3941Y351303D01*
X-4397Y351607D01*
X-4521Y351632D01*
X-4627Y351702D01*
X-5165Y351810D01*
D02*
G37*
G36*
X5414Y341833D02*
X5289Y341808D01*
X5165Y341833D01*
X4397Y341680D01*
X4291Y341609D01*
X4166Y341585D01*
X3515Y341149D01*
X3444Y341044D01*
X3339Y340973D01*
X2904Y340322D01*
X2879Y340197D01*
X2808Y340092D01*
X2655Y339323D01*
X2680Y339199D01*
X2655Y339074D01*
X2808Y338306D01*
X2879Y338200D01*
X2904Y338076D01*
X3339Y337424D01*
X3393Y337388D01*
X3418Y337328D01*
X3479Y337303D01*
X3515Y337248D01*
X4166Y336813D01*
X4291Y336788D01*
X4397Y336718D01*
X5165Y336565D01*
X5289Y336590D01*
X5414Y336565D01*
X6182Y336718D01*
X6288Y336788D01*
X6413Y336813D01*
X7064Y337248D01*
X7134Y337354D01*
X7240Y337424D01*
X7675Y338076D01*
X7700Y338200D01*
X7771Y338306D01*
X7923Y339074D01*
X7899Y339199D01*
X7923Y339323D01*
X7771Y340092D01*
X7700Y340197D01*
X7675Y340322D01*
X7240Y340973D01*
X7186Y341009D01*
X7161Y341070D01*
X7100Y341095D01*
X7064Y341149D01*
X6413Y341585D01*
X6288Y341609D01*
X6182Y341680D01*
X5414Y341833D01*
D02*
G37*
G36*
X8858Y495323D02*
X-8858D01*
X-10297Y495134D01*
X-11638Y494578D01*
X-12789Y493695D01*
X-13673Y492544D01*
X-14228Y491203D01*
X-14418Y489764D01*
Y479921D01*
X-14228Y478482D01*
X-13673Y477142D01*
X-12789Y475990D01*
X-11638Y475107D01*
X-10297Y474551D01*
X-8858Y474362D01*
X8858D01*
X10297Y474551D01*
X11638Y475107D01*
X12789Y475990D01*
X13673Y477142D01*
X14228Y478482D01*
X14418Y479921D01*
Y489764D01*
X14228Y491203D01*
X13673Y492544D01*
X12789Y493695D01*
X11638Y494578D01*
X10297Y495134D01*
X8858Y495323D01*
D02*
G37*
G36*
X31496Y439060D02*
X31465Y439047D01*
X31433Y439057D01*
X30006Y438917D01*
X29948Y438886D01*
X29883Y438892D01*
X28510Y438476D01*
X28459Y438434D01*
X28394Y438428D01*
X27129Y437751D01*
X27087Y437701D01*
X27024Y437682D01*
X25915Y436772D01*
X25885Y436714D01*
X25827Y436683D01*
X24917Y435574D01*
X24898Y435511D01*
X24847Y435470D01*
X24171Y434204D01*
X24164Y434139D01*
X24123Y434089D01*
X23706Y432716D01*
X23713Y432651D01*
X23682Y432593D01*
X23541Y431165D01*
X23560Y431102D01*
X23541Y431040D01*
X23682Y429612D01*
X23713Y429554D01*
X23706Y429489D01*
X24123Y428116D01*
X24164Y428065D01*
X24171Y428000D01*
X24847Y426735D01*
X24898Y426693D01*
X24917Y426631D01*
X25827Y425522D01*
X25885Y425491D01*
X25915Y425433D01*
X27024Y424523D01*
X27087Y424504D01*
X27129Y424453D01*
X28394Y423777D01*
X28459Y423771D01*
X28510Y423729D01*
X29883Y423313D01*
X29948Y423319D01*
X30006Y423288D01*
X31433Y423147D01*
X31465Y423157D01*
X31496Y423144D01*
X31527Y423157D01*
X31559Y423147D01*
X32987Y423288D01*
X33044Y423319D01*
X33109Y423313D01*
X34482Y423729D01*
X34533Y423771D01*
X34598Y423777D01*
X35863Y424453D01*
X35905Y424504D01*
X35968Y424523D01*
X37077Y425433D01*
X37108Y425491D01*
X37165Y425522D01*
X38076Y426631D01*
X38094Y426693D01*
X38145Y426735D01*
X38821Y428000D01*
X38828Y428065D01*
X38869Y428116D01*
X39286Y429489D01*
X39279Y429554D01*
X39310Y429612D01*
X39451Y431040D01*
X39432Y431102D01*
X39451Y431165D01*
X39310Y432593D01*
X39279Y432651D01*
X39286Y432716D01*
X38869Y434089D01*
X38828Y434139D01*
X38821Y434204D01*
X38145Y435470D01*
X38094Y435511D01*
X38076Y435574D01*
X37165Y436683D01*
X37108Y436714D01*
X37077Y436772D01*
X35968Y437682D01*
X35905Y437701D01*
X35863Y437751D01*
X34598Y438428D01*
X34533Y438434D01*
X34482Y438476D01*
X33109Y438892D01*
X33044Y438886D01*
X32987Y438917D01*
X31559Y439057D01*
X31527Y439047D01*
X31496Y439060D01*
D02*
G37*
G36*
X-53900Y279444D02*
X-57529Y278725D01*
X-56811Y275096D01*
X-56295Y275271D01*
X-55346Y275903D01*
X-54594Y276760D01*
X-54088Y277782D01*
X-53865Y278901D01*
X-53900Y279444D01*
D02*
G37*
G36*
X47244Y555607D02*
X47213Y555594D01*
X47181Y555604D01*
X45291Y555418D01*
X45233Y555387D01*
X45168Y555393D01*
X43349Y554842D01*
X43299Y554800D01*
X43234Y554794D01*
X41558Y553898D01*
X41516Y553848D01*
X41454Y553829D01*
X39985Y552623D01*
X39954Y552565D01*
X39897Y552535D01*
X38691Y551066D01*
X38672Y551003D01*
X38622Y550962D01*
X37726Y549286D01*
X37719Y549221D01*
X37678Y549170D01*
X37126Y547352D01*
X37133Y547287D01*
X37102Y547229D01*
X36916Y545338D01*
X36935Y545276D01*
X36916Y545213D01*
X37102Y543322D01*
X37133Y543264D01*
X37126Y543199D01*
X37678Y541381D01*
X37719Y541330D01*
X37726Y541265D01*
X38622Y539590D01*
X38672Y539548D01*
X38691Y539485D01*
X39897Y538017D01*
X39954Y537986D01*
X39985Y537928D01*
X41454Y536723D01*
X41516Y536704D01*
X41558Y536653D01*
X43234Y535757D01*
X43299Y535751D01*
X43349Y535709D01*
X45168Y535158D01*
X45233Y535164D01*
X45291Y535133D01*
X47181Y534947D01*
X47213Y534957D01*
X47244Y534944D01*
X47275Y534957D01*
X47307Y534947D01*
X49198Y535133D01*
X49255Y535164D01*
X49321Y535158D01*
X51139Y535709D01*
X51189Y535751D01*
X51254Y535757D01*
X52930Y536653D01*
X52972Y536704D01*
X53034Y536723D01*
X54503Y537928D01*
X54534Y537986D01*
X54592Y538017D01*
X55797Y539485D01*
X55816Y539548D01*
X55867Y539590D01*
X56762Y541265D01*
X56769Y541330D01*
X56810Y541381D01*
X57362Y543199D01*
X57355Y543264D01*
X57386Y543322D01*
X57573Y545213D01*
X57553Y545276D01*
X57573Y545338D01*
X57386Y547229D01*
X57355Y547287D01*
X57362Y547352D01*
X56810Y549170D01*
X56769Y549221D01*
X56762Y549286D01*
X55867Y550962D01*
X55816Y551003D01*
X55797Y551066D01*
X54592Y552535D01*
X54534Y552565D01*
X54503Y552623D01*
X53034Y553829D01*
X52972Y553848D01*
X52930Y553898D01*
X51254Y554794D01*
X51189Y554800D01*
X51139Y554842D01*
X49321Y555393D01*
X49255Y555387D01*
X49198Y555418D01*
X47307Y555604D01*
X47275Y555594D01*
X47244Y555607D01*
D02*
G37*
G36*
X54963Y579528D02*
X54900Y579509D01*
X54837Y579528D01*
X53487Y579395D01*
X53429Y579364D01*
X53364Y579370D01*
X52065Y578976D01*
X52014Y578935D01*
X51949Y578928D01*
X50752Y578289D01*
X50711Y578238D01*
X50648Y578219D01*
X49599Y577358D01*
X49568Y577300D01*
X49510Y577269D01*
X48649Y576220D01*
X48630Y576158D01*
X48580Y576116D01*
X47940Y574919D01*
X47934Y574854D01*
X47892Y574803D01*
X47498Y573505D01*
X47505Y573440D01*
X47474Y573382D01*
X47341Y572031D01*
X47350Y571999D01*
X47338Y571969D01*
Y568032D01*
X47350Y568001D01*
X47341Y567969D01*
X47474Y566618D01*
X47505Y566561D01*
X47498Y566495D01*
X47892Y565197D01*
X47934Y565146D01*
X47940Y565081D01*
X48580Y563884D01*
X48630Y563842D01*
X48649Y563780D01*
X49510Y562731D01*
X49568Y562700D01*
X49599Y562642D01*
X50648Y561781D01*
X50711Y561762D01*
X50752Y561711D01*
X51949Y561072D01*
X52014Y561065D01*
X52065Y561024D01*
X53364Y560630D01*
X53429Y560636D01*
X53487Y560605D01*
X54837Y560472D01*
X54900Y560491D01*
X54963Y560472D01*
X56313Y560605D01*
X56371Y560636D01*
X56436Y560630D01*
X57735Y561024D01*
X57785Y561065D01*
X57851Y561072D01*
X59048Y561711D01*
X59089Y561762D01*
X59152Y561781D01*
X60201Y562642D01*
X60232Y562700D01*
X60290Y562731D01*
X61150Y563780D01*
X61169Y563842D01*
X61220Y563884D01*
X61860Y565081D01*
X61866Y565146D01*
X61908Y565197D01*
X62302Y566495D01*
X62295Y566561D01*
X62326Y566618D01*
X62459Y567969D01*
X62450Y568001D01*
X62462Y568032D01*
Y571969D01*
X62450Y571999D01*
X62459Y572031D01*
X62326Y573382D01*
X62295Y573440D01*
X62302Y573505D01*
X61908Y574803D01*
X61866Y574854D01*
X61860Y574919D01*
X61220Y576116D01*
X61169Y576158D01*
X61150Y576220D01*
X60290Y577269D01*
X60232Y577300D01*
X60201Y577358D01*
X59152Y578219D01*
X59089Y578238D01*
X59048Y578289D01*
X57851Y578928D01*
X57785Y578935D01*
X57735Y578976D01*
X56436Y579370D01*
X56371Y579364D01*
X56313Y579395D01*
X54963Y579528D01*
D02*
G37*
G36*
X45276Y610912D02*
X45251Y610902D01*
X45225Y610910D01*
X43372Y610764D01*
X43325Y610740D01*
X43273Y610748D01*
X41465Y610314D01*
X41423Y610283D01*
X41370D01*
X39652Y609572D01*
X39615Y609535D01*
X39563Y609526D01*
X37978Y608555D01*
X37947Y608512D01*
X37897Y608496D01*
X36483Y607289D01*
X36459Y607242D01*
X36412Y607218D01*
X35205Y605804D01*
X35188Y605754D01*
X35146Y605723D01*
X34174Y604138D01*
X34166Y604086D01*
X34129Y604048D01*
X33417Y602331D01*
Y602278D01*
X33386Y602236D01*
X32952Y600428D01*
X32961Y600376D01*
X32937Y600329D01*
X32791Y598475D01*
X32807Y598425D01*
X32791Y598375D01*
X32937Y596522D01*
X32961Y596475D01*
X32952Y596423D01*
X33386Y594615D01*
X33417Y594572D01*
Y594520D01*
X34129Y592802D01*
X34166Y592765D01*
X34174Y592712D01*
X35146Y591127D01*
X35188Y591096D01*
X35205Y591046D01*
X36412Y589633D01*
X36459Y589609D01*
X36483Y589562D01*
X37897Y588354D01*
X37947Y588338D01*
X37978Y588295D01*
X39563Y587324D01*
X39615Y587316D01*
X39652Y587278D01*
X41370Y586567D01*
X41423D01*
X41465Y586536D01*
X43273Y586102D01*
X43325Y586110D01*
X43372Y586086D01*
X45225Y585940D01*
X45251Y585949D01*
X45276Y585938D01*
X45300Y585949D01*
X45326Y585940D01*
X47179Y586086D01*
X47226Y586110D01*
X47278Y586102D01*
X49086Y586536D01*
X49129Y586567D01*
X49181D01*
X50899Y587278D01*
X50936Y587316D01*
X50988Y587324D01*
X52573Y588295D01*
X52604Y588338D01*
X52654Y588354D01*
X54068Y589562D01*
X54092Y589609D01*
X54139Y589633D01*
X55347Y591046D01*
X55363Y591096D01*
X55405Y591127D01*
X56377Y592712D01*
X56385Y592765D01*
X56422Y592802D01*
X57134Y594520D01*
Y594572D01*
X57165Y594615D01*
X57599Y596423D01*
X57591Y596475D01*
X57614Y596522D01*
X57760Y598375D01*
X57744Y598425D01*
X57760Y598475D01*
X57614Y600329D01*
X57591Y600376D01*
X57599Y600428D01*
X57165Y602236D01*
X57134Y602278D01*
Y602331D01*
X56422Y604048D01*
X56385Y604086D01*
X56377Y604138D01*
X55405Y605723D01*
X55363Y605754D01*
X55347Y605804D01*
X54139Y607218D01*
X54092Y607242D01*
X54068Y607289D01*
X52654Y608496D01*
X52604Y608512D01*
X52573Y608555D01*
X50988Y609526D01*
X50936Y609535D01*
X50899Y609572D01*
X49181Y610283D01*
X49129D01*
X49086Y610314D01*
X47278Y610748D01*
X47226Y610740D01*
X47179Y610764D01*
X45326Y610910D01*
X45300Y610902D01*
X45276Y610912D01*
D02*
G37*
G36*
X14963Y579628D02*
X14900Y579609D01*
X14837Y579628D01*
X13487Y579495D01*
X13429Y579464D01*
X13364Y579470D01*
X12065Y579076D01*
X12015Y579035D01*
X11949Y579028D01*
X10752Y578389D01*
X10711Y578338D01*
X10648Y578319D01*
X9599Y577458D01*
X9568Y577400D01*
X9510Y577369D01*
X8649Y576320D01*
X8630Y576258D01*
X8580Y576216D01*
X7940Y575019D01*
X7934Y574954D01*
X7892Y574903D01*
X7498Y573605D01*
X7505Y573539D01*
X7474Y573482D01*
X7341Y572131D01*
X7350Y572099D01*
X7338Y572069D01*
Y568131D01*
X7350Y568101D01*
X7341Y568069D01*
X7474Y566718D01*
X7505Y566660D01*
X7498Y566595D01*
X7892Y565297D01*
X7934Y565246D01*
X7940Y565181D01*
X8580Y563984D01*
X8630Y563942D01*
X8649Y563880D01*
X9510Y562831D01*
X9568Y562800D01*
X9599Y562742D01*
X10648Y561881D01*
X10711Y561862D01*
X10752Y561811D01*
X11949Y561172D01*
X12015Y561165D01*
X12065Y561124D01*
X13364Y560730D01*
X13429Y560736D01*
X13487Y560705D01*
X14837Y560572D01*
X14900Y560591D01*
X14963Y560572D01*
X16313Y560705D01*
X16371Y560736D01*
X16436Y560730D01*
X17735Y561124D01*
X17785Y561165D01*
X17851Y561172D01*
X19048Y561811D01*
X19089Y561862D01*
X19152Y561881D01*
X20201Y562742D01*
X20232Y562800D01*
X20290Y562831D01*
X21150Y563880D01*
X21170Y563942D01*
X21220Y563984D01*
X21860Y565181D01*
X21866Y565246D01*
X21908Y565297D01*
X22302Y566595D01*
X22295Y566660D01*
X22326Y566718D01*
X22459Y568069D01*
X22450Y568101D01*
X22462Y568131D01*
Y572069D01*
X22450Y572099D01*
X22459Y572131D01*
X22326Y573482D01*
X22295Y573539D01*
X22302Y573605D01*
X21908Y574903D01*
X21866Y574954D01*
X21860Y575019D01*
X21220Y576216D01*
X21170Y576258D01*
X21150Y576320D01*
X20290Y577369D01*
X20232Y577400D01*
X20201Y577458D01*
X19152Y578319D01*
X19089Y578338D01*
X19048Y578389D01*
X17851Y579028D01*
X17785Y579035D01*
X17735Y579076D01*
X16436Y579470D01*
X16371Y579464D01*
X16313Y579495D01*
X14963Y579628D01*
D02*
G37*
G36*
X15748Y555607D02*
X15717Y555594D01*
X15685Y555604D01*
X13794Y555418D01*
X13737Y555387D01*
X13672Y555393D01*
X11853Y554842D01*
X11803Y554800D01*
X11738Y554794D01*
X10062Y553898D01*
X10020Y553848D01*
X9958Y553829D01*
X8489Y552623D01*
X8458Y552565D01*
X8400Y552535D01*
X7195Y551066D01*
X7176Y551003D01*
X7125Y550962D01*
X6230Y549286D01*
X6223Y549221D01*
X6182Y549170D01*
X5630Y547352D01*
X5637Y547287D01*
X5606Y547229D01*
X5420Y545338D01*
X5439Y545276D01*
X5420Y545213D01*
X5606Y543322D01*
X5637Y543264D01*
X5630Y543199D01*
X6182Y541381D01*
X6223Y541330D01*
X6230Y541265D01*
X7125Y539590D01*
X7176Y539548D01*
X7195Y539485D01*
X8400Y538017D01*
X8458Y537986D01*
X8489Y537928D01*
X9958Y536723D01*
X10020Y536704D01*
X10062Y536653D01*
X11738Y535757D01*
X11803Y535751D01*
X11853Y535709D01*
X13672Y535158D01*
X13737Y535164D01*
X13794Y535133D01*
X15685Y534947D01*
X15717Y534957D01*
X15748Y534944D01*
X15779Y534957D01*
X15811Y534947D01*
X17702Y535133D01*
X17759Y535164D01*
X17824Y535158D01*
X19643Y535709D01*
X19693Y535751D01*
X19758Y535757D01*
X21434Y536653D01*
X21476Y536704D01*
X21538Y536723D01*
X23007Y537928D01*
X23038Y537986D01*
X23096Y538017D01*
X24301Y539485D01*
X24320Y539548D01*
X24371Y539590D01*
X25266Y541265D01*
X25273Y541330D01*
X25314Y541381D01*
X25866Y543199D01*
X25859Y543264D01*
X25890Y543322D01*
X26076Y545213D01*
X26057Y545276D01*
X26076Y545338D01*
X25890Y547229D01*
X25859Y547287D01*
X25866Y547352D01*
X25314Y549170D01*
X25273Y549221D01*
X25266Y549286D01*
X24371Y550962D01*
X24320Y551003D01*
X24301Y551066D01*
X23096Y552535D01*
X23038Y552565D01*
X23007Y552623D01*
X21538Y553829D01*
X21476Y553848D01*
X21434Y553898D01*
X19758Y554794D01*
X19693Y554800D01*
X19643Y554842D01*
X17824Y555393D01*
X17759Y555387D01*
X17702Y555418D01*
X15811Y555604D01*
X15779Y555594D01*
X15748Y555607D01*
D02*
G37*
G36*
X47244Y524111D02*
X47213Y524098D01*
X47181Y524108D01*
X45291Y523922D01*
X45233Y523891D01*
X45168Y523897D01*
X43349Y523346D01*
X43299Y523304D01*
X43234Y523298D01*
X41558Y522402D01*
X41516Y522352D01*
X41454Y522332D01*
X39985Y521127D01*
X39954Y521069D01*
X39897Y521039D01*
X38691Y519570D01*
X38672Y519507D01*
X38622Y519466D01*
X37726Y517790D01*
X37719Y517725D01*
X37678Y517674D01*
X37126Y515856D01*
X37133Y515791D01*
X37102Y515733D01*
X36916Y513842D01*
X36935Y513779D01*
X36916Y513717D01*
X37102Y511826D01*
X37133Y511768D01*
X37126Y511703D01*
X37678Y509885D01*
X37719Y509834D01*
X37726Y509769D01*
X38622Y508093D01*
X38672Y508052D01*
X38691Y507989D01*
X39897Y506521D01*
X39954Y506490D01*
X39985Y506432D01*
X41454Y505227D01*
X41516Y505207D01*
X41558Y505157D01*
X43234Y504261D01*
X43299Y504255D01*
X43349Y504213D01*
X45168Y503662D01*
X45233Y503668D01*
X45291Y503637D01*
X47181Y503451D01*
X47213Y503461D01*
X47244Y503448D01*
X47275Y503461D01*
X47307Y503451D01*
X49198Y503637D01*
X49255Y503668D01*
X49321Y503662D01*
X51139Y504213D01*
X51189Y504255D01*
X51254Y504261D01*
X52930Y505157D01*
X52972Y505207D01*
X53034Y505227D01*
X54503Y506432D01*
X54534Y506490D01*
X54592Y506521D01*
X55797Y507989D01*
X55816Y508052D01*
X55867Y508093D01*
X56762Y509769D01*
X56769Y509834D01*
X56810Y509885D01*
X57362Y511703D01*
X57355Y511768D01*
X57386Y511826D01*
X57573Y513717D01*
X57553Y513779D01*
X57573Y513842D01*
X57386Y515733D01*
X57355Y515791D01*
X57362Y515856D01*
X56810Y517674D01*
X56769Y517725D01*
X56762Y517790D01*
X55867Y519466D01*
X55816Y519507D01*
X55797Y519570D01*
X54592Y521039D01*
X54534Y521069D01*
X54503Y521127D01*
X53034Y522332D01*
X52972Y522352D01*
X52930Y522402D01*
X51254Y523298D01*
X51189Y523304D01*
X51139Y523346D01*
X49321Y523897D01*
X49255Y523891D01*
X49198Y523922D01*
X47307Y524108D01*
X47275Y524098D01*
X47244Y524111D01*
D02*
G37*
G36*
X15748D02*
X15717Y524098D01*
X15685Y524108D01*
X13794Y523922D01*
X13737Y523891D01*
X13672Y523897D01*
X11853Y523346D01*
X11803Y523304D01*
X11738Y523298D01*
X10062Y522402D01*
X10020Y522352D01*
X9958Y522332D01*
X8489Y521127D01*
X8458Y521069D01*
X8400Y521039D01*
X7195Y519570D01*
X7176Y519507D01*
X7125Y519466D01*
X6230Y517790D01*
X6223Y517725D01*
X6182Y517674D01*
X5630Y515856D01*
X5637Y515791D01*
X5606Y515733D01*
X5420Y513842D01*
X5439Y513779D01*
X5420Y513717D01*
X5606Y511826D01*
X5637Y511768D01*
X5630Y511703D01*
X6182Y509885D01*
X6223Y509834D01*
X6230Y509769D01*
X7125Y508093D01*
X7176Y508052D01*
X7195Y507989D01*
X8400Y506521D01*
X8458Y506490D01*
X8489Y506432D01*
X9958Y505227D01*
X10020Y505207D01*
X10062Y505157D01*
X11738Y504261D01*
X11803Y504255D01*
X11853Y504213D01*
X13672Y503662D01*
X13737Y503668D01*
X13794Y503637D01*
X15685Y503451D01*
X15717Y503461D01*
X15748Y503448D01*
X15779Y503461D01*
X15811Y503451D01*
X17702Y503637D01*
X17759Y503668D01*
X17824Y503662D01*
X19643Y504213D01*
X19693Y504255D01*
X19758Y504261D01*
X21434Y505157D01*
X21476Y505207D01*
X21538Y505227D01*
X23007Y506432D01*
X23038Y506490D01*
X23096Y506521D01*
X24301Y507989D01*
X24320Y508052D01*
X24371Y508093D01*
X25266Y509769D01*
X25273Y509834D01*
X25314Y509885D01*
X25866Y511703D01*
X25859Y511768D01*
X25890Y511826D01*
X26076Y513717D01*
X26057Y513779D01*
X26076Y513842D01*
X25890Y515733D01*
X25859Y515791D01*
X25866Y515856D01*
X25314Y517674D01*
X25273Y517725D01*
X25266Y517790D01*
X24371Y519466D01*
X24320Y519507D01*
X24301Y519570D01*
X23096Y521039D01*
X23038Y521069D01*
X23007Y521127D01*
X21538Y522332D01*
X21476Y522352D01*
X21434Y522402D01*
X19758Y523298D01*
X19693Y523304D01*
X19643Y523346D01*
X17824Y523897D01*
X17759Y523891D01*
X17702Y523922D01*
X15811Y524108D01*
X15779Y524098D01*
X15748Y524111D01*
D02*
G37*
G36*
X39869Y188245D02*
X38943Y188057D01*
X38097Y187635D01*
X37389Y187009D01*
X36867Y186220D01*
X36567Y185324D01*
X36509Y184380D01*
X36698Y183454D01*
X37120Y182608D01*
X37746Y181900D01*
X38534Y181378D01*
X39431Y181078D01*
X40375Y181020D01*
X41301Y181209D01*
X42147Y181630D01*
X42855Y182257D01*
X43377Y183045D01*
X43677Y183942D01*
X43735Y184885D01*
X43546Y185812D01*
X43124Y186658D01*
X42498Y187366D01*
X41710Y187888D01*
X40813Y188188D01*
X39869Y188245D01*
D02*
G37*
G36*
X-47244Y555607D02*
X-47275Y555594D01*
X-47307Y555604D01*
X-49198Y555418D01*
X-49255Y555387D01*
X-49321Y555393D01*
X-51139Y554842D01*
X-51189Y554800D01*
X-51254Y554794D01*
X-52930Y553898D01*
X-52972Y553848D01*
X-53034Y553829D01*
X-54503Y552623D01*
X-54534Y552565D01*
X-54592Y552535D01*
X-55797Y551066D01*
X-55816Y551003D01*
X-55867Y550962D01*
X-56762Y549286D01*
X-56769Y549221D01*
X-56810Y549170D01*
X-57362Y547352D01*
X-57355Y547287D01*
X-57386Y547229D01*
X-57573Y545338D01*
X-57553Y545276D01*
X-57573Y545213D01*
X-57386Y543322D01*
X-57355Y543264D01*
X-57362Y543199D01*
X-56810Y541381D01*
X-56769Y541330D01*
X-56762Y541265D01*
X-55867Y539590D01*
X-55816Y539548D01*
X-55797Y539485D01*
X-54592Y538017D01*
X-54534Y537986D01*
X-54503Y537928D01*
X-53034Y536723D01*
X-52972Y536704D01*
X-52930Y536653D01*
X-51254Y535757D01*
X-51189Y535751D01*
X-51139Y535709D01*
X-49321Y535158D01*
X-49255Y535164D01*
X-49198Y535133D01*
X-47307Y534947D01*
X-47275Y534957D01*
X-47244Y534944D01*
X-47213Y534957D01*
X-47181Y534947D01*
X-45291Y535133D01*
X-45233Y535164D01*
X-45168Y535158D01*
X-43349Y535709D01*
X-43299Y535751D01*
X-43234Y535757D01*
X-41558Y536653D01*
X-41516Y536704D01*
X-41454Y536723D01*
X-39985Y537928D01*
X-39954Y537986D01*
X-39897Y538017D01*
X-38691Y539485D01*
X-38672Y539548D01*
X-38622Y539590D01*
X-37726Y541265D01*
X-37719Y541330D01*
X-37678Y541381D01*
X-37126Y543199D01*
X-37133Y543264D01*
X-37102Y543322D01*
X-36916Y545213D01*
X-36935Y545276D01*
X-36916Y545338D01*
X-37102Y547229D01*
X-37133Y547287D01*
X-37126Y547352D01*
X-37678Y549170D01*
X-37719Y549221D01*
X-37726Y549286D01*
X-38622Y550962D01*
X-38672Y551003D01*
X-38691Y551066D01*
X-39897Y552535D01*
X-39954Y552565D01*
X-39985Y552623D01*
X-41454Y553829D01*
X-41516Y553848D01*
X-41558Y553898D01*
X-43234Y554794D01*
X-43299Y554800D01*
X-43349Y554842D01*
X-45168Y555393D01*
X-45233Y555387D01*
X-45291Y555418D01*
X-47181Y555604D01*
X-47213Y555594D01*
X-47244Y555607D01*
D02*
G37*
G36*
X16909Y602770D02*
X16614Y602732D01*
X15789Y602390D01*
X15080Y601846D01*
X14536Y601137D01*
X14194Y600311D01*
X14077Y599425D01*
Y598047D01*
X16909D01*
Y602770D01*
D02*
G37*
G36*
X19500Y606104D02*
X19500Y606104D01*
X-19657D01*
X-19657Y606104D01*
X-20118Y606013D01*
X-20508Y605752D01*
X-24290Y601970D01*
X-24539Y601986D01*
X-25289Y602562D01*
X-26163Y602923D01*
X-27100Y603047D01*
X-28037Y602923D01*
X-28911Y602562D01*
X-29661Y601986D01*
X-30236Y601236D01*
X-30598Y600362D01*
X-30722Y599425D01*
Y595488D01*
X-30598Y594551D01*
X-30236Y593677D01*
X-29661Y592927D01*
X-28911Y592352D01*
X-28037Y591990D01*
X-27100Y591867D01*
X-26163Y591990D01*
X-25289Y592352D01*
X-24539Y592927D01*
X-23964Y593677D01*
X-23602Y594551D01*
X-23479Y595488D01*
Y599375D01*
X-19158Y603696D01*
X19001D01*
X21396Y601301D01*
Y599665D01*
X20896Y599632D01*
X20806Y600311D01*
X20464Y601137D01*
X19920Y601846D01*
X19211Y602390D01*
X18386Y602732D01*
X18090Y602770D01*
Y597457D01*
Y592143D01*
X18386Y592182D01*
X19211Y592524D01*
X19920Y593068D01*
X20464Y593777D01*
X20806Y594602D01*
X20896Y595281D01*
X21396Y595249D01*
Y590500D01*
X21396Y590500D01*
X21487Y590039D01*
X21661Y589780D01*
X21699Y589664D01*
X21731Y589627D01*
X21707Y589568D01*
X21619Y588900D01*
X21707Y588232D01*
X21965Y587609D01*
X22375Y587075D01*
X22909Y586665D01*
X23532Y586407D01*
X23577Y586401D01*
X29792Y580186D01*
Y495557D01*
X29665Y495391D01*
X29407Y494768D01*
X29319Y494100D01*
X29407Y493432D01*
X29665Y492809D01*
X30075Y492275D01*
X30609Y491865D01*
X31232Y491607D01*
X31900Y491519D01*
X32568Y491607D01*
X33191Y491865D01*
X33725Y492275D01*
X34135Y492809D01*
X34393Y493432D01*
X34481Y494100D01*
X34393Y494768D01*
X34208Y495216D01*
Y581100D01*
X34040Y581945D01*
X33561Y582661D01*
X26699Y589523D01*
X26693Y589568D01*
X26435Y590191D01*
X26025Y590725D01*
X25491Y591135D01*
X24868Y591393D01*
X24200Y591481D01*
X24180Y591478D01*
X23804Y591808D01*
Y593721D01*
X24304Y593821D01*
X24364Y593677D01*
X24939Y592927D01*
X25689Y592352D01*
X26563Y591990D01*
X27500Y591867D01*
X28437Y591990D01*
X29311Y592352D01*
X30061Y592927D01*
X30636Y593677D01*
X30998Y594551D01*
X31122Y595488D01*
Y599425D01*
X30998Y600362D01*
X30636Y601236D01*
X30061Y601986D01*
X29311Y602562D01*
X28437Y602923D01*
X27500Y603047D01*
X26563Y602923D01*
X25689Y602562D01*
X24939Y601986D01*
X24364Y601236D01*
X24304Y601092D01*
X23804Y601192D01*
Y601800D01*
X23713Y602261D01*
X23451Y602652D01*
X23451Y602652D01*
X20351Y605752D01*
X19961Y606013D01*
X19500Y606104D01*
D02*
G37*
G36*
X16909Y596866D02*
X14077D01*
Y595488D01*
X14194Y594602D01*
X14536Y593777D01*
X15080Y593068D01*
X15789Y592524D01*
X16614Y592182D01*
X16909Y592143D01*
Y596866D01*
D02*
G37*
G36*
X-45276Y610912D02*
X-45300Y610902D01*
X-45326Y610910D01*
X-47179Y610764D01*
X-47226Y610740D01*
X-47278Y610748D01*
X-49086Y610314D01*
X-49129Y610283D01*
X-49181D01*
X-50899Y609572D01*
X-50936Y609535D01*
X-50988Y609526D01*
X-52573Y608555D01*
X-52604Y608512D01*
X-52654Y608496D01*
X-54068Y607289D01*
X-54092Y607242D01*
X-54139Y607218D01*
X-55347Y605804D01*
X-55363Y605754D01*
X-55405Y605723D01*
X-56377Y604138D01*
X-56385Y604086D01*
X-56422Y604048D01*
X-57134Y602331D01*
Y602278D01*
X-57165Y602236D01*
X-57599Y600428D01*
X-57591Y600376D01*
X-57614Y600329D01*
X-57760Y598475D01*
X-57744Y598425D01*
X-57760Y598375D01*
X-57614Y596522D01*
X-57591Y596475D01*
X-57599Y596423D01*
X-57165Y594615D01*
X-57134Y594572D01*
Y594520D01*
X-56422Y592802D01*
X-56385Y592765D01*
X-56377Y592712D01*
X-55405Y591127D01*
X-55363Y591096D01*
X-55347Y591046D01*
X-54139Y589633D01*
X-54092Y589609D01*
X-54068Y589562D01*
X-52654Y588354D01*
X-52604Y588338D01*
X-52573Y588295D01*
X-50988Y587324D01*
X-50936Y587316D01*
X-50899Y587278D01*
X-49181Y586567D01*
X-49129D01*
X-49086Y586536D01*
X-47278Y586102D01*
X-47226Y586110D01*
X-47179Y586086D01*
X-45326Y585940D01*
X-45300Y585949D01*
X-45276Y585938D01*
X-45251Y585949D01*
X-45225Y585940D01*
X-43372Y586086D01*
X-43325Y586110D01*
X-43273Y586102D01*
X-41465Y586536D01*
X-41423Y586567D01*
X-41370D01*
X-39652Y587278D01*
X-39615Y587316D01*
X-39563Y587324D01*
X-37978Y588295D01*
X-37947Y588338D01*
X-37897Y588354D01*
X-36483Y589562D01*
X-36459Y589609D01*
X-36412Y589633D01*
X-35205Y591046D01*
X-35188Y591096D01*
X-35146Y591127D01*
X-34174Y592712D01*
X-34166Y592765D01*
X-34129Y592802D01*
X-33417Y594520D01*
Y594572D01*
X-33386Y594615D01*
X-32952Y596423D01*
X-32961Y596475D01*
X-32937Y596522D01*
X-32791Y598375D01*
X-32807Y598425D01*
X-32791Y598475D01*
X-32937Y600329D01*
X-32961Y600376D01*
X-32952Y600428D01*
X-33386Y602236D01*
X-33417Y602278D01*
Y602331D01*
X-34129Y604048D01*
X-34166Y604086D01*
X-34174Y604138D01*
X-35146Y605723D01*
X-35188Y605754D01*
X-35205Y605804D01*
X-36412Y607218D01*
X-36459Y607242D01*
X-36483Y607289D01*
X-37897Y608496D01*
X-37947Y608512D01*
X-37978Y608555D01*
X-39563Y609526D01*
X-39615Y609535D01*
X-39652Y609572D01*
X-41370Y610283D01*
X-41423D01*
X-41465Y610314D01*
X-43273Y610748D01*
X-43325Y610740D01*
X-43372Y610764D01*
X-45225Y610910D01*
X-45251Y610902D01*
X-45276Y610912D01*
D02*
G37*
G36*
X-5100Y589367D02*
X-6282Y589211D01*
X-7383Y588755D01*
X-8329Y588029D01*
X-9055Y587083D01*
X-9511Y585982D01*
X-9667Y584800D01*
X-9511Y583618D01*
X-9055Y582517D01*
X-8329Y581571D01*
X-7383Y580845D01*
X-6282Y580389D01*
X-5100Y580233D01*
X-3918Y580389D01*
X-2817Y580845D01*
X-1871Y581571D01*
X-1145Y582517D01*
X-689Y583618D01*
X-533Y584800D01*
X-689Y585982D01*
X-1145Y587083D01*
X-1871Y588029D01*
X-2817Y588755D01*
X-3918Y589211D01*
X-5100Y589367D01*
D02*
G37*
G36*
X14900D02*
X13718Y589211D01*
X12617Y588755D01*
X11671Y588029D01*
X10945Y587083D01*
X10489Y585982D01*
X10333Y584800D01*
X10489Y583618D01*
X10945Y582517D01*
X11116Y582294D01*
X9426Y580603D01*
X7689D01*
X7519Y581103D01*
X8129Y581571D01*
X8855Y582517D01*
X9311Y583618D01*
X9467Y584800D01*
X9311Y585982D01*
X8855Y587083D01*
X8129Y588029D01*
X7183Y588755D01*
X6082Y589211D01*
X4900Y589367D01*
X3718Y589211D01*
X2617Y588755D01*
X1671Y588029D01*
X945Y587083D01*
X489Y585982D01*
X333Y584800D01*
X489Y583618D01*
X945Y582517D01*
X1671Y581571D01*
X2617Y580845D01*
X3567Y580451D01*
X3750Y579927D01*
X3261Y579439D01*
X3066Y579146D01*
X2997Y578800D01*
Y555100D01*
X3025Y554959D01*
X2894Y554300D01*
X3031Y553609D01*
X3423Y553023D01*
X4009Y552631D01*
X4700Y552494D01*
X5391Y552631D01*
X5977Y553023D01*
X6369Y553609D01*
X6506Y554300D01*
X6369Y554991D01*
X5977Y555577D01*
X5391Y555969D01*
X4803Y556086D01*
Y578426D01*
X5174Y578797D01*
X9800D01*
X10146Y578866D01*
X10439Y579061D01*
X12394Y581016D01*
X12617Y580845D01*
X13718Y580389D01*
X14900Y580233D01*
X16082Y580389D01*
X17183Y580845D01*
X18129Y581571D01*
X18855Y582517D01*
X19311Y583618D01*
X19467Y584800D01*
X19311Y585982D01*
X18855Y587083D01*
X18129Y588029D01*
X17183Y588755D01*
X16082Y589211D01*
X14900Y589367D01*
D02*
G37*
G36*
X7500Y603047D02*
X6563Y602923D01*
X5689Y602562D01*
X4939Y601986D01*
X4364Y601236D01*
X4002Y600362D01*
X3878Y599425D01*
Y595488D01*
X4002Y594551D01*
X4364Y593677D01*
X4939Y592927D01*
X5689Y592352D01*
X6563Y591990D01*
X7500Y591867D01*
X8437Y591990D01*
X9311Y592352D01*
X10061Y592927D01*
X10636Y593677D01*
X10998Y594551D01*
X11122Y595488D01*
Y599425D01*
X10998Y600362D01*
X10636Y601236D01*
X10061Y601986D01*
X9311Y602562D01*
X8437Y602923D01*
X7500Y603047D01*
D02*
G37*
G36*
X-59636Y283284D02*
X-60152Y283109D01*
X-61101Y282477D01*
X-61853Y281620D01*
X-62358Y280598D01*
X-62582Y279480D01*
X-62547Y278936D01*
X-58917Y279655D01*
X-59636Y283284D01*
D02*
G37*
G36*
X-42300Y302806D02*
X-42991Y302669D01*
X-43086Y302606D01*
X-51620D01*
X-52235Y302483D01*
X-52756Y302135D01*
X-52756Y302135D01*
X-56491Y298400D01*
X-56839Y297879D01*
X-56962Y297264D01*
X-56962Y297264D01*
Y292556D01*
X-56962Y292556D01*
X-56839Y291941D01*
X-56491Y291421D01*
X-50806Y285735D01*
Y272086D01*
X-50869Y271991D01*
X-51006Y271300D01*
X-50869Y270609D01*
X-50477Y270023D01*
X-49891Y269631D01*
X-49200Y269494D01*
X-48509Y269631D01*
X-47923Y270023D01*
X-47531Y270609D01*
X-47503Y270749D01*
X-47003Y270700D01*
Y254827D01*
X-47377Y254577D01*
X-47769Y253991D01*
X-47906Y253300D01*
X-47769Y252609D01*
X-47377Y252023D01*
X-46791Y251631D01*
X-46100Y251494D01*
X-45409Y251631D01*
X-44823Y252023D01*
X-44431Y252609D01*
X-44294Y253300D01*
X-44431Y253991D01*
X-44823Y254577D01*
X-45197Y254827D01*
Y285681D01*
X-44697Y285888D01*
X-42003Y283195D01*
Y269827D01*
X-42377Y269577D01*
X-42769Y268991D01*
X-42906Y268300D01*
X-42769Y267609D01*
X-42377Y267023D01*
X-41791Y266631D01*
X-41100Y266494D01*
X-40409Y266631D01*
X-39823Y267023D01*
X-39431Y267609D01*
X-39294Y268300D01*
X-39431Y268991D01*
X-39823Y269577D01*
X-40197Y269827D01*
Y283569D01*
X-40266Y283914D01*
X-40461Y284207D01*
X-40461Y284207D01*
X-46879Y290625D01*
X-46672Y291125D01*
X-44519D01*
X-43645Y291240D01*
X-42831Y291577D01*
X-42132Y292113D01*
X-41596Y292812D01*
X-41259Y293626D01*
X-41144Y294500D01*
X-41259Y295374D01*
X-41596Y296188D01*
X-42132Y296887D01*
X-42831Y297423D01*
X-43645Y297760D01*
X-44519Y297875D01*
X-46881D01*
X-47755Y297760D01*
X-48343Y297517D01*
X-48784Y297861D01*
X-48717Y298200D01*
X-48854Y298891D01*
X-48895Y298953D01*
X-48660Y299394D01*
X-43086D01*
X-42991Y299331D01*
X-42300Y299194D01*
X-41609Y299331D01*
X-41023Y299723D01*
X-40631Y300309D01*
X-40494Y301000D01*
X-40631Y301691D01*
X-41023Y302277D01*
X-41609Y302669D01*
X-42300Y302806D01*
D02*
G37*
G36*
X51147Y245707D02*
X50221Y245519D01*
X49375Y245097D01*
X48667Y244470D01*
X48145Y243682D01*
X47845Y242786D01*
X47787Y241842D01*
X47976Y240915D01*
X48398Y240069D01*
X49024Y239361D01*
X49812Y238840D01*
X50709Y238540D01*
X51653Y238482D01*
X52579Y238670D01*
X53425Y239092D01*
X54133Y239719D01*
X54655Y240507D01*
X54955Y241404D01*
X55013Y242347D01*
X54824Y243273D01*
X54402Y244120D01*
X53776Y244828D01*
X52988Y245350D01*
X52091Y245650D01*
X51147Y245707D01*
D02*
G37*
G36*
X-44519Y311063D02*
X-45110D01*
Y308476D01*
X-41420D01*
X-41450Y308708D01*
X-41768Y309474D01*
X-42273Y310132D01*
X-42930Y310637D01*
X-43697Y310954D01*
X-44519Y311063D01*
D02*
G37*
G36*
X-46291D02*
X-46881D01*
X-47703Y310954D01*
X-48469Y310637D01*
X-49127Y310132D01*
X-49632Y309474D01*
X-49950Y308708D01*
X-49980Y308476D01*
X-46291D01*
Y311063D01*
D02*
G37*
G36*
X-41420Y307295D02*
X-45110D01*
Y304709D01*
X-44519D01*
X-43697Y304817D01*
X-42930Y305135D01*
X-42273Y305640D01*
X-41768Y306297D01*
X-41450Y307064D01*
X-41420Y307295D01*
D02*
G37*
G36*
X-46291D02*
X-49980D01*
X-49950Y307064D01*
X-49632Y306297D01*
X-49127Y305640D01*
X-48469Y305135D01*
X-47703Y304817D01*
X-46881Y304709D01*
X-46291D01*
Y307295D01*
D02*
G37*
G36*
X-38100Y482406D02*
X-38791Y482269D01*
X-39377Y481877D01*
X-39769Y481291D01*
X-39906Y480600D01*
X-39819Y480159D01*
X-49639Y470339D01*
X-49834Y470046D01*
X-49903Y469700D01*
Y407774D01*
X-60339Y397339D01*
X-60534Y397046D01*
X-60603Y396700D01*
Y373700D01*
X-60534Y373354D01*
X-60339Y373061D01*
X-56903Y369626D01*
Y327927D01*
X-57277Y327677D01*
X-57669Y327091D01*
X-57806Y326400D01*
X-57669Y325709D01*
X-57277Y325123D01*
X-56691Y324731D01*
X-56000Y324594D01*
X-55309Y324731D01*
X-54723Y325123D01*
X-54331Y325709D01*
X-54194Y326400D01*
X-54331Y327091D01*
X-54723Y327677D01*
X-55097Y327927D01*
Y370000D01*
X-55166Y370346D01*
X-55361Y370639D01*
X-58797Y374074D01*
Y396326D01*
X-48361Y406761D01*
X-48361Y406761D01*
X-48166Y407054D01*
X-48097Y407400D01*
X-48097Y407400D01*
Y469326D01*
X-38541Y478881D01*
X-38100Y478794D01*
X-37409Y478931D01*
X-36823Y479323D01*
X-36431Y479909D01*
X-36294Y480600D01*
X-36431Y481291D01*
X-36823Y481877D01*
X-37409Y482269D01*
X-38100Y482406D01*
D02*
G37*
G36*
X-31496Y468188D02*
X-31537Y468171D01*
X-31580Y468182D01*
X-32453Y468067D01*
X-32528Y468024D01*
X-32614D01*
X-33428Y467687D01*
X-33489Y467626D01*
X-33573Y467603D01*
X-34272Y467067D01*
X-34315Y466992D01*
X-34390Y466949D01*
X-34926Y466250D01*
X-34949Y466167D01*
X-35010Y466106D01*
X-35347Y465291D01*
Y465205D01*
X-35390Y465130D01*
X-35505Y464257D01*
X-35483Y464173D01*
X-35505Y464090D01*
X-35390Y463216D01*
X-35347Y463141D01*
Y463055D01*
X-35010Y462241D01*
X-34949Y462180D01*
X-34926Y462096D01*
X-34390Y461397D01*
X-34315Y461354D01*
X-34272Y461279D01*
X-33573Y460743D01*
X-33489Y460721D01*
X-33428Y460660D01*
X-32614Y460322D01*
X-32528D01*
X-32453Y460279D01*
X-31580Y460164D01*
X-31537Y460176D01*
X-31496Y460159D01*
X-31455Y460176D01*
X-31413Y460164D01*
X-30539Y460279D01*
X-30464Y460322D01*
X-30378D01*
X-29564Y460660D01*
X-29503Y460721D01*
X-29419Y460743D01*
X-28720Y461279D01*
X-28677Y461354D01*
X-28602Y461397D01*
X-28066Y462096D01*
X-28043Y462180D01*
X-27982Y462241D01*
X-27645Y463055D01*
Y463141D01*
X-27602Y463216D01*
X-27487Y464090D01*
X-27509Y464173D01*
X-27487Y464257D01*
X-27602Y465130D01*
X-27645Y465205D01*
Y465291D01*
X-27982Y466106D01*
X-28043Y466167D01*
X-28066Y466250D01*
X-28602Y466949D01*
X-28677Y466992D01*
X-28720Y467067D01*
X-29419Y467603D01*
X-29503Y467626D01*
X-29564Y467687D01*
X-30378Y468024D01*
X-30464D01*
X-30539Y468067D01*
X-31413Y468182D01*
X-31455Y468171D01*
X-31496Y468188D01*
D02*
G37*
G36*
X-47244Y524111D02*
X-47275Y524098D01*
X-47307Y524108D01*
X-49198Y523922D01*
X-49255Y523891D01*
X-49321Y523897D01*
X-51139Y523346D01*
X-51189Y523304D01*
X-51254Y523298D01*
X-52930Y522402D01*
X-52972Y522352D01*
X-53034Y522332D01*
X-54503Y521127D01*
X-54534Y521069D01*
X-54592Y521039D01*
X-55797Y519570D01*
X-55816Y519507D01*
X-55867Y519466D01*
X-56762Y517790D01*
X-56769Y517725D01*
X-56810Y517674D01*
X-57362Y515856D01*
X-57355Y515791D01*
X-57386Y515733D01*
X-57573Y513842D01*
X-57553Y513779D01*
X-57573Y513717D01*
X-57386Y511826D01*
X-57355Y511768D01*
X-57362Y511703D01*
X-56810Y509885D01*
X-56769Y509834D01*
X-56762Y509769D01*
X-55867Y508093D01*
X-55816Y508052D01*
X-55797Y507989D01*
X-54592Y506521D01*
X-54534Y506490D01*
X-54503Y506432D01*
X-53034Y505227D01*
X-52972Y505207D01*
X-52930Y505157D01*
X-51254Y504261D01*
X-51189Y504255D01*
X-51139Y504213D01*
X-49321Y503662D01*
X-49255Y503668D01*
X-49198Y503637D01*
X-47307Y503451D01*
X-47275Y503461D01*
X-47244Y503448D01*
X-47213Y503461D01*
X-47181Y503451D01*
X-45291Y503637D01*
X-45233Y503668D01*
X-45168Y503662D01*
X-43349Y504213D01*
X-43299Y504255D01*
X-43234Y504261D01*
X-41558Y505157D01*
X-41516Y505207D01*
X-41454Y505227D01*
X-39985Y506432D01*
X-39954Y506490D01*
X-39897Y506521D01*
X-38691Y507989D01*
X-38672Y508052D01*
X-38622Y508093D01*
X-37726Y509769D01*
X-37719Y509834D01*
X-37678Y509885D01*
X-37126Y511703D01*
X-37133Y511768D01*
X-37102Y511826D01*
X-36916Y513717D01*
X-36935Y513779D01*
X-36916Y513842D01*
X-37102Y515733D01*
X-37133Y515791D01*
X-37126Y515856D01*
X-37678Y517674D01*
X-37719Y517725D01*
X-37726Y517790D01*
X-38622Y519466D01*
X-38672Y519507D01*
X-38691Y519570D01*
X-39897Y521039D01*
X-39954Y521069D01*
X-39985Y521127D01*
X-41454Y522332D01*
X-41516Y522352D01*
X-41558Y522402D01*
X-43234Y523298D01*
X-43299Y523304D01*
X-43349Y523346D01*
X-45168Y523897D01*
X-45233Y523891D01*
X-45291Y523922D01*
X-47181Y524108D01*
X-47213Y524098D01*
X-47244Y524111D01*
D02*
G37*
G36*
X43625Y207569D02*
X42699Y207380D01*
X41853Y206959D01*
X41145Y206332D01*
X40623Y205544D01*
X40323Y204647D01*
X40265Y203704D01*
X40454Y202777D01*
X40876Y201931D01*
X41502Y201223D01*
X42290Y200701D01*
X43187Y200401D01*
X44131Y200343D01*
X45057Y200532D01*
X45903Y200954D01*
X46611Y201580D01*
X47133Y202369D01*
X47433Y203265D01*
X47491Y204209D01*
X47302Y205135D01*
X46880Y205981D01*
X46254Y206689D01*
X45466Y207211D01*
X44569Y207511D01*
X43625Y207569D01*
D02*
G37*
G36*
X-58688Y278496D02*
X-62317Y277777D01*
X-62143Y277261D01*
X-61510Y276313D01*
X-60653Y275560D01*
X-59631Y275055D01*
X-58513Y274832D01*
X-57969Y274867D01*
X-58688Y278496D01*
D02*
G37*
G36*
X-57934Y283548D02*
X-58477Y283513D01*
X-57759Y279884D01*
X-54129Y280603D01*
X-54304Y281118D01*
X-54937Y282067D01*
X-55793Y282820D01*
X-56816Y283325D01*
X-57934Y283548D01*
D02*
G37*
%LPD*%
G36*
X23088Y590857D02*
X23173Y590800D01*
X23274Y590746D01*
X23390Y590695D01*
X23521Y590648D01*
X23668Y590604D01*
X24008Y590525D01*
X24410Y590461D01*
X22639Y588690D01*
X22609Y588899D01*
X22496Y589432D01*
X22452Y589579D01*
X22405Y589710D01*
X22354Y589826D01*
X22300Y589927D01*
X22243Y590012D01*
X22182Y590082D01*
X23018Y590918D01*
X23088Y590857D01*
D02*
G37*
G36*
X-49797Y297253D02*
X-49967Y297047D01*
X-50036Y296945D01*
X-50095Y296844D01*
X-50143Y296743D01*
X-50180Y296643D01*
X-50206Y296544D01*
X-50222Y296446D01*
X-50228Y296348D01*
X-50818D01*
X-50823Y296446D01*
X-50839Y296544D01*
X-50866Y296643D01*
X-50903Y296743D01*
X-50951Y296844D01*
X-51009Y296945D01*
X-51078Y297047D01*
X-51158Y297149D01*
X-51249Y297253D01*
X-51350Y297357D01*
X-49696D01*
X-49797Y297253D01*
D02*
G37*
G36*
X-51874Y294653D02*
X-52044Y294447D01*
X-52113Y294345D01*
X-52172Y294244D01*
X-52220Y294143D01*
X-52257Y294043D01*
X-52284Y293944D01*
X-52299Y293846D01*
X-52305Y293748D01*
X-52895D01*
X-52901Y293846D01*
X-52917Y293944D01*
X-52943Y294043D01*
X-52980Y294143D01*
X-53028Y294244D01*
X-53087Y294345D01*
X-53156Y294447D01*
X-53235Y294549D01*
X-53326Y294653D01*
X-53427Y294757D01*
X-51773D01*
X-51874Y294653D01*
D02*
G37*
D56*
X13500Y267500D02*
Y312400D01*
X10900Y267500D02*
X13500D01*
X3400Y275000D02*
X10900Y267500D01*
X-15000Y295700D02*
X-12300D01*
X3400Y280000D01*
Y275000D02*
Y280000D01*
X-28882Y479282D02*
X-8000Y458400D01*
X-59900Y580400D02*
X-33400D01*
X-28882Y575882D01*
Y479282D02*
Y575882D01*
X13100Y312800D02*
X13500Y312400D01*
X-33400Y580400D02*
X-23100Y590700D01*
X-8000Y458400D02*
X21500D01*
X30400Y449500D01*
X-49200Y271300D02*
Y286400D01*
X-51620Y301000D02*
X-42300D01*
X-55356Y292556D02*
X-49200Y286400D01*
X-55356Y297264D02*
X-51620Y301000D01*
X-55356Y292556D02*
Y297264D01*
D57*
X14100Y251577D02*
X14376Y251853D01*
X-22648Y292724D02*
Y336258D01*
X-23829Y292235D02*
Y336748D01*
X-25010Y291746D02*
Y337237D01*
X-26191Y291256D02*
Y337726D01*
X-21467Y293213D02*
Y335769D01*
X-26191Y337726D02*
X-26000Y337917D01*
X-28000Y338171D02*
X-27372Y337544D01*
Y290767D02*
Y337544D01*
X-29181Y337682D02*
X-28554Y337055D01*
Y290278D02*
Y337055D01*
X-21467Y293213D02*
X-21457Y293203D01*
Y290380D02*
Y293203D01*
Y290380D02*
X-6100Y275023D01*
X-22648Y292724D02*
X-22638Y292714D01*
Y289262D02*
Y292714D01*
Y289262D02*
X-19600Y286224D01*
X-23829Y292235D02*
X-23819Y292225D01*
Y286619D02*
Y292225D01*
X-25010Y291746D02*
X-25000Y291735D01*
Y280300D02*
Y291735D01*
X-26191Y291256D02*
X-26181Y291246D01*
X-27372Y290767D02*
X-27362Y290757D01*
X-28554Y290278D02*
X-28543Y290268D01*
X-33262Y333388D02*
Y339879D01*
Y333388D02*
X-33206Y333331D01*
Y327869D02*
Y333331D01*
X-33262Y327812D02*
X-33206Y327869D01*
X-34443Y332899D02*
Y339604D01*
Y332899D02*
X-34387Y332842D01*
Y328358D02*
Y332842D01*
X-34443Y328301D02*
X-34387Y328358D01*
X-34443Y268438D02*
Y328301D01*
X-34519Y414381D02*
X-32200Y416700D01*
X-34519Y399189D02*
Y414381D01*
X-29881Y445389D02*
X-22900Y452370D01*
X-29881Y410654D02*
Y445389D01*
X-32629Y407906D02*
X-29881Y410654D01*
X-32629Y399083D02*
Y407906D01*
Y399083D02*
X-26635Y393089D01*
X-28700Y444900D02*
X-21719Y451881D01*
X-28700Y410165D02*
Y444900D01*
X-31448Y407417D02*
X-28700Y410165D01*
X-31448Y399572D02*
Y407417D01*
Y399572D02*
X-25454Y393578D01*
X-30200Y274377D02*
Y335370D01*
X-31381Y273888D02*
Y334881D01*
X-30200Y274377D02*
X-25900Y270077D01*
Y247919D02*
Y270077D01*
X-27081Y247429D02*
Y269588D01*
X-31381Y273888D02*
X-27081Y269588D01*
X-11300Y233500D02*
Y244723D01*
X-18600Y262200D02*
X-12800Y256400D01*
Y234923D02*
Y256400D01*
X-13367Y234356D02*
X-12800Y234923D01*
X-13367Y226677D02*
X-12167Y225477D01*
X-15057Y226696D02*
X-13348Y224988D01*
X-16238Y226207D02*
X-14529Y224498D01*
X-17419Y225718D02*
X-15710Y224009D01*
X-13367Y226677D02*
Y234356D01*
X-20303Y249019D02*
X-15057Y243772D01*
X-16238Y226207D02*
Y243283D01*
X-20793Y247838D02*
X-16238Y243283D01*
X-17419Y225718D02*
Y242794D01*
X-21282Y246657D02*
X-17419Y242794D01*
X-18600Y225229D02*
Y242304D01*
X-21771Y245476D02*
X-18600Y242304D01*
X-19781Y224739D02*
Y241815D01*
X-22260Y244295D02*
X-19781Y241815D01*
X-20962Y224250D02*
Y241326D01*
X-22750Y243113D02*
X-20962Y241326D01*
X-22765Y243113D02*
X-22750D01*
X-27081Y247429D02*
X-22765Y243113D01*
X-22143Y223761D02*
Y240837D01*
X-23239Y241932D02*
X-22143Y240837D01*
X-23254Y241932D02*
X-23239D01*
X-28600Y247278D02*
X-23254Y241932D01*
X-12606Y186700D02*
X-11500D01*
X-27000Y150894D02*
Y152058D01*
X-31795Y156853D02*
X-27000Y152058D01*
X-34700Y171695D02*
X-34497Y171492D01*
Y162730D02*
Y171492D01*
Y162730D02*
X-33286Y161519D01*
X-32124D01*
X-32430Y163586D02*
X-21488Y174528D01*
X-32430Y162872D02*
Y163586D01*
X-32124Y161519D02*
X-19100Y148495D01*
X-643Y234780D02*
X-300Y234436D01*
X430Y238028D02*
X9170Y246767D01*
X-2236Y238028D02*
X430D01*
X-2264Y238000D02*
X-2236Y238028D01*
X-6600Y238000D02*
X-2264D01*
X51Y236761D02*
X1160D01*
X-35Y236846D02*
X51Y236761D01*
X-1747Y236846D02*
X-35D01*
X-1832Y236761D02*
X-1747Y236846D01*
X-2300Y236761D02*
X-1832D01*
X-891Y234780D02*
X-643D01*
X-829Y234965D02*
X2929D01*
X1400Y229395D02*
Y232894D01*
X-9000Y235600D02*
X-6600Y238000D01*
X-5358Y233704D02*
X-2300Y236761D01*
X1352Y218552D02*
X4500Y221700D01*
X-5900Y219795D02*
X-4657Y218552D01*
X863Y219733D02*
X3319Y222189D01*
X-2915Y219733D02*
X863D01*
X-5044Y221861D02*
X-2915Y219733D01*
X-4657Y218552D02*
X1352D01*
X3319Y222189D02*
Y227476D01*
X4500Y221700D02*
Y233395D01*
X1400Y229395D02*
X3319Y227476D01*
X2929Y234965D02*
X4500Y233395D01*
X-6161Y221861D02*
X-5044D01*
X-7200Y222900D02*
X-6161Y221861D01*
X-5500Y233704D02*
X-5358D01*
X-5500Y225400D02*
Y233704D01*
X-47Y194224D02*
X988Y193189D01*
X-47Y194224D02*
X-47D01*
X-28100Y343400D02*
X-28000Y343300D01*
X-26000Y337917D02*
Y345800D01*
X-33305Y343476D02*
X-30807Y340979D01*
Y338993D02*
Y340979D01*
X-32081Y339389D02*
X-31988Y339482D01*
Y340489D01*
X-34486Y342987D02*
X-31988Y340489D01*
X-33262Y339879D02*
X-33169Y339971D01*
Y340000D01*
X-35667Y342498D02*
X-33169Y340000D01*
X-36848Y342008D02*
X-34443Y339604D01*
X-28019Y350899D02*
Y360970D01*
X-33305Y345613D02*
X-28019Y350899D01*
X-49000Y407400D02*
Y469700D01*
X-59700Y396700D02*
X-49000Y407400D01*
X-59700Y373700D02*
Y396700D01*
Y373700D02*
X-56000Y370000D01*
Y326400D02*
Y370000D01*
X-49000Y469700D02*
X-38100Y480600D01*
X3900Y555100D02*
X4700Y554300D01*
X3900Y555100D02*
Y578800D01*
X4800Y579700D01*
X9800D01*
X14900Y584800D01*
X-46100Y253300D02*
Y286200D01*
X-18600Y262200D02*
Y266400D01*
X-20819Y249519D02*
Y276119D01*
X-22000Y249030D02*
Y275630D01*
X-23181Y248540D02*
Y275141D01*
X-24362Y248051D02*
Y274651D01*
X-20819Y249519D02*
X-20319Y249019D01*
X-22000Y249030D02*
X-20808Y247838D01*
X-23181Y248540D02*
X-21297Y246657D01*
X-24362Y248051D02*
X-21787Y245476D01*
X-28600Y247278D02*
Y267223D01*
X-31500Y261900D02*
Y267200D01*
Y261900D02*
X-31200Y261600D01*
X-33700Y265100D02*
Y267694D01*
X-34443Y268438D02*
X-33700Y267694D01*
X-18600Y225229D02*
X-16891Y223520D01*
X-19781Y224739D02*
X-18072Y223031D01*
X-20962Y224250D02*
X-19253Y222541D01*
X-22800Y221495D02*
X-21616Y220310D01*
X-22797Y199691D02*
Y218591D01*
X-23633Y219428D02*
X-22797Y218591D01*
X-23656Y219428D02*
X-23633D01*
X-24867Y220638D02*
X-23656Y219428D01*
X-24867Y220638D02*
Y220661D01*
X-27400Y223195D02*
X-24867Y220661D01*
X-9000Y235500D02*
Y235600D01*
X-15057Y226696D02*
Y243772D01*
X-21616Y201433D02*
X-19300Y199118D01*
X-21616Y201433D02*
Y220310D01*
X18733Y167844D02*
X19944Y166633D01*
X17552Y165948D02*
X17700Y165800D01*
X19944Y166633D02*
X21656D01*
X22867Y167844D01*
Y170633D01*
X-19300Y189495D02*
Y199118D01*
X11100Y251900D02*
Y259600D01*
X-4600Y261700D02*
Y275495D01*
Y261700D02*
X-3900Y261000D01*
X-6100Y259395D02*
Y275023D01*
X14552Y248652D02*
X14800Y248900D01*
X9315Y250761D02*
X10244Y249833D01*
X6744Y250761D02*
X9315D01*
X10244Y249833D02*
X11956D01*
X9755Y248652D02*
X14552D01*
X9712Y248694D02*
X9755Y248652D01*
X12885Y250761D02*
X13684D01*
X11956Y249833D02*
X12885Y250761D01*
X13684D02*
X14300Y251377D01*
X19557Y245567D02*
X28652Y236472D01*
X2448Y238072D02*
X9943Y245567D01*
X7600Y248694D02*
X9712D01*
X12856Y241333D02*
X15023Y243500D01*
X15100D01*
X12762Y241333D02*
X12856D01*
X11900Y240471D02*
X12762Y241333D01*
X11705Y243400D02*
X12000D01*
X10633Y242328D02*
X11705Y243400D01*
X7600Y248294D02*
Y248694D01*
X5382Y249400D02*
X6744Y250761D01*
X-51400Y571600D02*
X-51200Y571400D01*
X-49400D01*
X-48565Y572235D02*
X-48200Y572600D01*
Y573300D01*
X-26376Y362613D02*
Y387885D01*
X-28019Y360970D02*
X-26376Y362613D01*
X-29200Y361459D02*
X-27557Y363103D01*
X-29200Y351388D02*
Y361459D01*
X-34486Y346102D02*
X-29200Y351388D01*
X-28738Y363592D02*
Y388863D01*
X-35667Y356663D02*
X-28738Y363592D01*
X-35667Y342498D02*
Y356663D01*
X-29919Y364081D02*
Y389352D01*
X-36848Y357152D02*
X-29919Y364081D01*
X-36848Y342008D02*
Y357152D01*
X-29919Y389352D02*
X-29033Y390238D01*
X-24700Y401995D02*
X-20100Y397395D01*
Y371123D02*
Y397395D01*
X-30267Y400061D02*
X-22462Y392257D01*
Y372101D02*
Y392257D01*
X-28200Y401194D02*
X-21281Y394276D01*
Y371612D02*
Y394276D01*
X-26376Y387885D02*
X-25490Y388771D01*
X-38200Y442861D02*
X-25300Y455761D01*
X-38200Y401200D02*
Y442861D01*
Y401200D02*
X-29033Y392033D01*
X-22900Y452370D02*
Y468500D01*
X-21719Y451881D02*
Y468989D01*
X-31933Y477533D02*
X-22900Y468500D01*
X-30752Y478022D02*
X-21719Y468989D01*
X-49400Y571400D02*
X-31933Y553933D01*
X-48565Y572235D02*
X-30752Y554422D01*
Y478022D02*
Y554422D01*
X-25900Y247919D02*
X-22276Y244295D01*
X-22260D01*
X-33305Y343476D02*
Y345613D01*
X-30865Y336035D02*
Y338865D01*
Y336035D02*
X-30200Y335370D01*
X-30900Y338900D02*
X-30807Y338993D01*
X-30900Y338900D02*
X-30865Y338865D01*
X31900Y237365D02*
X39033Y244498D01*
X31900Y232295D02*
Y237365D01*
X-34486Y342987D02*
Y346102D01*
X-32046Y335546D02*
Y337754D01*
Y335546D02*
X-31381Y334881D01*
X-32081Y337789D02*
Y339389D01*
Y337789D02*
X-32046Y337754D01*
X-21488Y174528D02*
X-18644D01*
X-31933Y477533D02*
Y553933D01*
X-25454Y391736D02*
Y393578D01*
X-25490Y391700D02*
X-25454Y391736D01*
X-26635Y392535D02*
Y393089D01*
X-25490Y388771D02*
Y391700D01*
X-26671Y392499D02*
X-26635Y392535D01*
X-26671Y389260D02*
Y392499D01*
X-27557Y388374D02*
X-26671Y389260D01*
X-27557Y363103D02*
Y388374D01*
X-30167Y342544D02*
X-29181Y341558D01*
X-30167Y342544D02*
Y344045D01*
X-29181Y337682D02*
Y341558D01*
X-30899Y344777D02*
X-30167Y344045D01*
X-7600Y421300D02*
X13000Y400700D01*
X-3100Y420000D02*
X1300Y424400D01*
X8100D01*
X-34519Y399189D02*
X-27852Y392522D01*
Y389749D02*
Y392522D01*
X-29033Y390238D02*
Y392033D01*
X-28738Y388863D02*
X-27852Y389749D01*
X-31058Y344936D02*
X-30899Y344777D01*
X-28000Y338171D02*
Y343300D01*
X-23819Y286619D02*
X-22800Y285600D01*
X-26181Y279811D02*
Y291246D01*
X-27362Y279322D02*
Y290757D01*
X-28543Y278832D02*
Y290268D01*
Y278832D02*
X-24362Y274651D01*
X-27362Y279322D02*
X-23181Y275141D01*
X-26181Y279811D02*
X-22000Y275630D01*
X-25000Y280300D02*
X-20819Y276119D01*
X-19600Y285600D02*
Y286224D01*
X-21297Y246657D02*
X-21282D01*
X-20808Y247838D02*
X-20793D01*
X-20319Y249019D02*
X-20303D01*
X-21787Y245476D02*
X-21771D01*
X-25300Y455761D02*
Y467600D01*
X21800Y391900D02*
X48600D01*
X13000Y400700D02*
X21800Y391900D01*
X8100Y424400D02*
Y436095D01*
X-28100Y404994D02*
X-27700D01*
X-30267Y406928D02*
X-2100Y435094D01*
X-10630Y375197D02*
X15748Y348819D01*
X25984D01*
X-21752Y176419D02*
Y177627D01*
X-28677Y169494D02*
X-21752Y176419D01*
X-16929Y138583D02*
Y141732D01*
X-24409Y149213D02*
X-16929Y141732D01*
X-19100Y148495D02*
X-14567Y143961D01*
Y135039D02*
Y143961D01*
X-32167Y176174D02*
X-31080Y177261D01*
X-8500Y174495D02*
X-8433Y174561D01*
X-31080Y177261D02*
X-27129D01*
X-27600Y173495D02*
X-27555D01*
X-30267Y400061D02*
Y406928D01*
X-31100Y370895D02*
Y391094D01*
X-32400Y369595D02*
X-31100Y370895D01*
X-27700Y404994D02*
X-25395Y402689D01*
X-24700Y401995D01*
X37767Y230228D02*
X39000Y228994D01*
X300Y290394D02*
Y305395D01*
X8000Y313295D02*
X8100Y313194D01*
X-40861Y231389D02*
Y247114D01*
X-42913Y229337D02*
X-40861Y231389D01*
X-42000Y248253D02*
X-40861Y247114D01*
X29833Y231438D02*
X31044Y230228D01*
X37767D01*
X29833Y231438D02*
Y236961D01*
X28652Y230949D02*
X30555Y229047D01*
X32348D01*
X35277Y226117D01*
Y225175D02*
Y226117D01*
X28652Y230949D02*
Y236472D01*
X2448Y238049D02*
Y238072D01*
X-46569Y220333D02*
X-42913Y223989D01*
Y229337D01*
X-37500Y223195D02*
X-27400D01*
X-800Y239895D02*
Y240094D01*
X1160Y236761D02*
X2448Y238049D01*
X-31712Y184857D02*
X-31534D01*
X-29725Y175569D02*
X-27150D01*
X-32167Y172980D02*
X-31734Y172547D01*
X-31267Y173014D01*
X-30100Y175195D02*
X-29725Y175569D01*
X-32167Y172980D02*
Y176174D01*
X-32400Y169494D02*
X-28677D01*
X-42000Y248253D02*
X-41500Y248753D01*
X-41700Y248953D02*
Y249294D01*
Y248953D02*
X-41500Y248753D01*
X-3700Y249400D02*
X5382D01*
X5644Y261667D02*
X11956D01*
X-11300Y244723D02*
X5644Y261667D01*
X-16100Y261474D02*
Y262700D01*
Y261474D02*
X-7886Y253260D01*
X-5709D01*
X-4690Y257985D02*
X-4331D01*
X-6100Y259395D02*
X-4690Y257985D01*
X-3802Y276293D02*
X-3051D01*
X-4600Y275495D02*
X-3802Y276293D01*
X-3051D02*
X-2400Y276944D01*
X-27129Y177261D02*
X-21557Y182833D01*
X-27150Y175569D02*
X-21068Y181652D01*
X-27555Y173495D02*
X-20579Y180471D01*
X-21752Y177627D02*
X-20090Y179290D01*
X-19500Y176594D02*
X-17986Y178109D01*
X-18644Y174528D02*
X-16244Y176928D01*
X-8010D01*
X-13933Y188028D02*
X-12606Y186700D01*
X-22797Y199691D02*
X-22000Y198895D01*
X-13976Y208071D02*
X-13933Y208028D01*
Y188028D02*
Y208028D01*
X-12167Y220644D02*
Y225477D01*
X-10100Y220600D02*
Y221500D01*
X-13348Y220155D02*
Y224988D01*
X-14529Y219665D02*
Y224498D01*
X-15710Y219176D02*
Y224009D01*
X-16891Y218687D02*
Y223520D01*
X-18072Y218198D02*
Y223031D01*
X-19253Y217708D02*
Y222541D01*
X-20435Y217219D02*
X-13976Y210761D01*
Y208071D02*
Y210761D01*
X-42700Y200694D02*
X-36502D01*
X-31500Y195693D01*
Y185069D02*
Y195693D01*
X14863Y189546D02*
Y189708D01*
X15749Y190594D01*
Y190659D01*
X13600Y191553D02*
X13682Y191634D01*
X13600Y190495D02*
Y191553D01*
X22867Y170633D02*
X24134Y171900D01*
X20800Y168700D02*
Y174549D01*
X23869Y177619D01*
X17552Y165948D02*
Y174642D01*
X21457Y178548D01*
X11783Y173884D02*
X17914Y180015D01*
X11294Y175065D02*
X15847Y179619D01*
X9552Y176247D02*
X11800Y178495D01*
X12762Y171522D02*
X20276Y179037D01*
X12272Y172703D02*
X19095Y179526D01*
X4134Y189734D02*
X9872Y195472D01*
X15847Y179619D02*
Y187608D01*
X10737Y183670D02*
X13799Y186732D01*
X13780Y186751D02*
X13799Y186732D01*
X13780Y186751D02*
Y188464D01*
X14863Y189546D01*
X7382Y183670D02*
X10737D01*
X7382Y183605D02*
Y183670D01*
X8356Y177428D02*
X9567Y178638D01*
Y180351D01*
X8356Y181561D02*
X9567Y180351D01*
X-8010Y176928D02*
X-6575Y175492D01*
X-8433Y174561D02*
X-7314D01*
X-7064Y174311D01*
X-6575Y175492D02*
X-3740D01*
X-5482Y174311D02*
X-4596Y173425D01*
X-7064Y174311D02*
X-5482D01*
X-4596Y173425D02*
X-2884D01*
X-6103Y171957D02*
X-5667Y171522D01*
X12762D01*
X-2884Y173425D02*
X-2162Y172703D01*
X12272D01*
X-20090Y179290D02*
X-2816D01*
X-20579Y180471D02*
X-2327D01*
X-21068Y181652D02*
X-1838D01*
X-21557Y182833D02*
X-1349D01*
X1181Y180303D01*
Y180255D02*
Y180303D01*
Y180255D02*
X2392Y179044D01*
X-1838Y181652D02*
X0Y179814D01*
Y179766D02*
Y179814D01*
X-2327Y180471D02*
X-1181Y179325D01*
Y179277D02*
Y179325D01*
X-2816Y179290D02*
X-2362Y178835D01*
Y178787D02*
Y178835D01*
X-17986Y178109D02*
X-3354D01*
X871Y173884D01*
X-2362Y178787D02*
X1360Y175065D01*
X-1181Y179277D02*
X1849Y176247D01*
X0Y179766D02*
X2338Y177428D01*
X7050Y179044D02*
X7500Y179495D01*
X2392Y179044D02*
X7050D01*
X2338Y177428D02*
X8356D01*
X1849Y176247D02*
X9552D01*
X1360Y175065D02*
X11294D01*
X871Y173884D02*
X11783D01*
X-10519Y204696D02*
X-47Y194224D01*
X2000Y192000D02*
X2067Y191933D01*
X988Y193189D02*
X2067Y192110D01*
Y191933D02*
Y192110D01*
X4134Y190002D02*
Y191713D01*
X2610Y181750D02*
X3248Y181111D01*
X5721Y181561D02*
X8356D01*
X3791Y183492D02*
X5721Y181561D01*
X4134Y189695D02*
Y189734D01*
X2067Y190551D02*
Y191933D01*
X2610Y188171D02*
X4134Y189695D01*
X3791Y183492D02*
Y185314D01*
X3642Y185463D02*
X3791Y185314D01*
X3642Y185463D02*
Y187175D01*
X3791Y187324D01*
Y187681D01*
X2461Y184974D02*
X2610Y184825D01*
X2461Y184974D02*
Y187664D01*
X2610Y187813D01*
Y188171D01*
Y181750D02*
Y184825D01*
X9872Y195472D02*
X10749D01*
X10759Y195482D01*
X3791Y187681D02*
X9524Y193415D01*
X13682Y191634D02*
Y194271D01*
X12471Y195482D02*
X13682Y194271D01*
X10759Y195482D02*
X12471D01*
X9524Y193415D02*
X11615D01*
X-5048Y143822D02*
X441Y149311D01*
X-3867Y143333D02*
X930Y148130D01*
X441Y149311D02*
X11264D01*
X14665Y152713D01*
X930Y148130D02*
X11753D01*
X15846Y152224D01*
X-3740Y47954D02*
Y74654D01*
X-600Y77794D01*
X14665Y156065D02*
X16034Y157434D01*
X14665Y152713D02*
Y156065D01*
X16034Y157434D02*
X24460D01*
X33900Y166874D01*
Y194295D01*
X36665Y197059D01*
Y219559D01*
X37155Y234837D02*
X37558D01*
X36665Y219559D02*
X41900Y224795D01*
X37558Y234837D02*
X41900Y230494D01*
Y224795D02*
Y230494D01*
X3740Y48035D02*
Y74454D01*
X581Y77613D02*
X3740Y74454D01*
X15846Y155576D02*
X16523Y156253D01*
X15846Y152224D02*
Y155576D01*
X16523Y156253D02*
X24949D01*
X35081Y166385D01*
Y193805D01*
X37846Y196570D01*
Y219070D01*
X43081Y224305D01*
Y230494D01*
X45019Y232433D01*
X49522D01*
X-5048Y126255D02*
Y143822D01*
Y126255D02*
X-600Y121807D01*
Y77794D02*
Y121807D01*
X581Y77613D02*
Y122296D01*
X-34300Y476600D02*
X-25300Y467600D01*
X-34300Y476600D02*
Y523945D01*
X-35277Y524923D02*
X-34300Y523945D01*
X-33262Y271885D02*
Y327812D01*
Y271885D02*
X-28600Y267223D01*
X-20435Y217219D02*
Y222052D01*
X-22143Y223761D02*
X-20435Y222052D01*
X12960Y196663D02*
X17914Y191709D01*
Y180015D02*
Y191709D01*
X13449Y197844D02*
X19095Y192198D01*
Y179526D02*
Y192198D01*
X13939Y199025D02*
X20276Y192687D01*
Y179037D02*
Y192687D01*
X14428Y200206D02*
X21457Y193177D01*
Y178548D02*
Y193177D01*
X14917Y201387D02*
X22688Y193616D01*
Y178108D02*
Y193616D01*
X-20100Y369100D02*
X-19200D01*
X-21467Y335769D02*
X-20100Y337136D01*
X-22648Y336258D02*
X-21281Y337625D01*
Y369942D01*
X-20100Y371123D01*
X-23829Y336748D02*
X-22462Y338115D01*
Y370431D01*
X-21281Y371612D01*
X-25010Y337237D02*
X-23643Y338604D01*
Y370920D01*
X-22462Y372101D01*
X-19253Y217708D02*
X-10519Y208974D01*
Y204696D02*
Y208974D01*
X-18072Y218198D02*
X-9338Y209463D01*
Y205185D02*
Y209463D01*
X-16891Y218687D02*
X-8157Y209952D01*
Y205674D02*
Y209952D01*
X-15710Y219176D02*
X-6976Y210442D01*
Y206164D02*
Y210442D01*
X-14529Y219665D02*
X-5794Y210931D01*
Y206653D02*
Y210931D01*
X-13348Y220155D02*
X-4613Y211420D01*
Y207142D02*
Y211420D01*
X-12167Y220644D02*
X-3432Y211909D01*
Y207631D02*
Y211909D01*
X-10100Y220600D02*
X-2000Y212500D01*
X-1900Y212600D01*
X-1300D01*
X2812Y201387D02*
X14917D01*
X2322Y200206D02*
X14428D01*
X1833Y199025D02*
X13939D01*
X1344Y197844D02*
X13449D01*
X855Y196663D02*
X12960D01*
X-9338Y205185D02*
X4134Y191713D01*
X-8157Y205674D02*
X855Y196663D01*
X-6976Y206164D02*
X1344Y197844D01*
X-5794Y206653D02*
X1833Y199025D01*
X-4613Y207142D02*
X2322Y200206D01*
X-3432Y207631D02*
X2812Y201387D01*
X23869Y177619D02*
Y194131D01*
X14800Y203200D02*
X23869Y194131D01*
X10633Y207567D02*
Y242328D01*
Y207567D02*
X12500Y205700D01*
X11900Y209300D02*
Y240471D01*
Y209300D02*
X14800Y206400D01*
Y203200D02*
Y206400D01*
X14376Y251853D02*
X14428D01*
X11956Y261667D02*
X13429Y260194D01*
X42500D01*
X9170Y246767D02*
X20028D01*
X29833Y236961D01*
X9943Y245567D02*
X19557D01*
X16600Y222900D02*
X18300Y224600D01*
Y228800D01*
X-50523Y292992D02*
X-41100Y283569D01*
X-52600Y292700D02*
Y295600D01*
Y292700D02*
X-46100Y286200D01*
X-41100Y268300D02*
Y283569D01*
X-50523Y292992D02*
Y298200D01*
X14100Y251577D02*
X14300Y251377D01*
X-829Y234965D02*
X-643Y234780D01*
X-800Y239895D02*
X7600Y248294D01*
X-22817Y285583D02*
Y285600D01*
X-32430Y162872D02*
X-31492Y163810D01*
X-31058Y344936D02*
X-27300Y348694D01*
X-31712Y184857D02*
X-31500Y185069D01*
X-20100Y337136D02*
Y369100D01*
X300Y305395D02*
X8100Y313194D01*
X-3867Y126744D02*
Y143333D01*
Y126744D02*
X581Y122296D01*
X18733Y167844D02*
Y174153D01*
X22688Y178108D01*
D58*
X-16200Y321595D02*
Y322767D01*
X-17600Y320195D02*
X-16200Y321595D01*
X-11928Y317323D02*
X26772D01*
X48353Y386453D02*
X54300Y392400D01*
X48353Y320547D02*
Y386453D01*
X27900Y316195D02*
X44000D01*
X26772Y317323D02*
X27900Y316195D01*
X44000D02*
X48353Y320547D01*
X32000Y494200D02*
Y581100D01*
X31900Y494100D02*
X32000Y494200D01*
X24200Y588900D02*
X32000Y581100D01*
X0Y47894D02*
Y73694D01*
Y45195D02*
Y47894D01*
X44000Y261695D02*
Y316195D01*
X42500Y260194D02*
X44000Y261695D01*
X9000Y43295D02*
X14900Y49194D01*
X0Y45195D02*
X1900Y43295D01*
X9000D01*
X-15854Y323114D02*
Y380648D01*
X-16200Y322767D02*
X-15854Y323114D01*
X-17200Y381995D02*
X-15854Y380648D01*
X-16200Y321595D02*
X-11928Y317323D01*
D59*
X26200Y168500D02*
Y168994D01*
X14961Y165199D02*
Y168955D01*
X16722Y163438D02*
X20643D01*
X14961Y165199D02*
X16722Y163438D01*
X14961Y168955D02*
X15000Y168994D01*
X51500Y395200D02*
X54300Y392400D01*
X41000Y395200D02*
X51500D01*
X37200Y399000D02*
X41000Y395200D01*
X37200Y399000D02*
Y401200D01*
X-7600Y590700D02*
X-5100Y593200D01*
X-23100Y590700D02*
X-7600D01*
X22600Y590500D02*
X24200Y588900D01*
X22600Y590500D02*
Y601800D01*
X19500Y604900D02*
X22600Y601800D01*
X-19657Y604900D02*
X19500D01*
X-27100Y597457D02*
X-19657Y604900D01*
X6782Y203900D02*
X7400D01*
X8100Y212382D02*
Y222495D01*
X7400Y204518D02*
Y211682D01*
X8100Y212382D01*
X6782Y203900D02*
X7400Y204518D01*
X20643Y163438D02*
X26200Y168994D01*
D63*
X-39112Y341071D02*
X-36707Y338666D01*
Y331961D02*
Y338666D01*
Y331961D02*
X-36650Y331905D01*
X-36707Y267500D02*
X-36231Y267024D01*
X-36231D01*
X-36850Y266405D02*
X-36231Y267024D01*
X-36850Y263795D02*
Y266405D01*
Y263795D02*
X-36800Y263746D01*
X-36707Y329239D02*
X-36650Y329295D01*
X-36707Y267500D02*
Y329239D01*
X-36650Y329295D02*
Y331905D01*
X-28384Y183552D02*
Y195779D01*
X-34493Y181707D02*
X-30229D01*
X-39800Y176400D02*
X-34493Y181707D01*
X-30229D02*
X-28384Y183552D01*
X-39800Y169300D02*
Y176400D01*
X-33795Y142889D02*
X-5700Y114795D01*
X-35000Y145300D02*
X-33795Y142889D01*
X-39800Y169300D02*
X-35000Y145300D01*
X0Y504921D02*
Y560500D01*
Y504921D02*
X5906Y499016D01*
X-36800Y249495D02*
Y263746D01*
X-39112Y341071D02*
Y359282D01*
X46850Y405418D02*
Y464650D01*
Y405418D02*
X58237Y394031D01*
Y390769D02*
Y394031D01*
X52700Y385232D02*
X58237Y390769D01*
X52700Y329300D02*
Y385232D01*
X12484Y499016D02*
X46850Y464650D01*
X5906Y499016D02*
X12484D01*
X-15100Y575600D02*
Y584800D01*
Y575600D02*
X0Y560500D01*
X-44627Y210523D02*
X-43129D01*
X-55500Y374894D02*
Y389194D01*
Y374894D02*
X-42250Y361644D01*
X-36750D01*
X-39112Y359282D02*
X-36750Y361644D01*
X-40664Y221576D02*
X-40650Y221590D01*
X-44627Y210523D02*
Y212768D01*
X-38400Y230649D02*
Y246094D01*
X-40650Y228399D02*
X-38400Y230649D01*
X-40650Y221590D02*
Y228399D01*
X-44627Y212768D02*
X-40748Y216647D01*
Y217802D01*
X-40664Y217887D01*
Y221576D01*
X-43129Y210523D02*
X-28384Y195779D01*
X-38400Y246094D02*
Y247895D01*
X-36800Y249495D01*
D64*
X2938Y129728D02*
X3300Y129367D01*
Y124294D02*
Y129367D01*
D65*
X23278Y160288D02*
X30440Y167451D01*
X15417Y160288D02*
X23278D01*
X27755Y187037D02*
X30440Y184352D01*
X15211Y160494D02*
X15417Y160288D01*
X455Y160494D02*
X15211D01*
X0Y160039D02*
X455Y160494D01*
X22000Y204331D02*
X29633Y196698D01*
X30440Y167451D02*
Y184352D01*
X22000Y204331D02*
Y219994D01*
D66*
X-45700Y294500D02*
D03*
Y307886D02*
D03*
D67*
X-42700Y200694D02*
D03*
X-40700Y190894D02*
D03*
X-44627Y210523D02*
D03*
X-48512Y230142D02*
D03*
X-50454Y239952D02*
D03*
X-52396Y249761D02*
D03*
X-54339Y259571D02*
D03*
X-56281Y269380D02*
D03*
X-58223Y279190D02*
D03*
X-46569Y220333D02*
D03*
D68*
X47644Y222771D02*
D03*
X35277Y225175D02*
D03*
X37155Y234837D02*
D03*
X39033Y244498D02*
D03*
X51400Y242094D02*
D03*
X49522Y232433D02*
D03*
X31511Y206360D02*
D03*
X43878Y203956D02*
D03*
X42000Y194295D02*
D03*
X40122Y184633D02*
D03*
X27755Y187037D02*
D03*
X29633Y196698D02*
D03*
D69*
X-17100Y597457D02*
D03*
X-27100D02*
D03*
X7500D02*
D03*
X27500D02*
D03*
X17500D02*
D03*
D70*
X2938Y129728D02*
D03*
D71*
X14900Y584800D02*
D03*
X4900D02*
D03*
X-5100D02*
D03*
X-15100D02*
D03*
D72*
X-12300Y360500D02*
D03*
X10400Y311300D02*
D03*
X31100Y345400D02*
D03*
X38200Y163100D02*
D03*
X37718Y189618D02*
D03*
X34300Y219500D02*
D03*
X26700Y217500D02*
D03*
X-33100Y153600D02*
D03*
X-19400Y324400D02*
D03*
Y332300D02*
D03*
X-35600Y470700D02*
D03*
X-47200Y477100D02*
D03*
X-46800Y461100D02*
D03*
Y424300D02*
D03*
X-42700Y414500D02*
D03*
X-39800Y330600D02*
D03*
X-53100Y309900D02*
D03*
X-53500Y322000D02*
D03*
X-45300Y323300D02*
D03*
X-61900Y328600D02*
D03*
X-62300Y348000D02*
D03*
X-53543Y357677D02*
D03*
X-31800Y356800D02*
D03*
X-2200Y361600D02*
D03*
X-3500Y340700D02*
D03*
X1700Y327000D02*
D03*
X-3500Y322000D02*
D03*
X24500Y331800D02*
D03*
X5500Y345600D02*
D03*
X15500Y341400D02*
D03*
X42000Y343800D02*
D03*
X43900Y368500D02*
D03*
X26500Y371600D02*
D03*
X41200Y385000D02*
D03*
X27600Y354400D02*
D03*
X18700Y381300D02*
D03*
X9800Y366800D02*
D03*
X-600Y372100D02*
D03*
X-45500Y401800D02*
D03*
X-20900Y406200D02*
D03*
X-8900Y405600D02*
D03*
X5900Y400500D02*
D03*
X14000Y411900D02*
D03*
X4300Y416200D02*
D03*
X29600Y416100D02*
D03*
X26600Y404400D02*
D03*
X35200Y443400D02*
D03*
X-11000Y433800D02*
D03*
X-4700Y426200D02*
D03*
X-12000Y420100D02*
D03*
X-23900Y422100D02*
D03*
X-41500Y424900D02*
D03*
X-38500Y458800D02*
D03*
X-16000Y457700D02*
D03*
X39100Y502100D02*
D03*
X38200Y488500D02*
D03*
X21900Y475800D02*
D03*
X-8400Y468800D02*
D03*
X24300Y497200D02*
D03*
X-400Y498400D02*
D03*
X-18600Y487000D02*
D03*
X-39800Y497300D02*
D03*
X-24000Y501600D02*
D03*
X-42500Y528100D02*
D03*
X-22500Y527700D02*
D03*
X21700Y528000D02*
D03*
X37300Y530700D02*
D03*
X25900Y555200D02*
D03*
X25300Y569800D02*
D03*
X-11700Y601400D02*
D03*
X-11300Y594100D02*
D03*
X1300Y593400D02*
D03*
X-34700Y569500D02*
D03*
X-7400Y555600D02*
D03*
X-17700Y568500D02*
D03*
X-3000Y576300D02*
D03*
X-32200Y416700D02*
D03*
X43300Y218900D02*
D03*
X42200Y212500D02*
D03*
X40100Y200600D02*
D03*
X30100Y246600D02*
D03*
X17400Y239400D02*
D03*
X21900Y238900D02*
D03*
X29800Y240800D02*
D03*
X46100Y247100D02*
D03*
X58300Y266600D02*
D03*
X50700Y257900D02*
D03*
Y266600D02*
D03*
X39500Y266500D02*
D03*
X30100Y263100D02*
D03*
X25900Y266400D02*
D03*
X18600Y266600D02*
D03*
X13500Y267500D02*
D03*
X-1900Y271700D02*
D03*
X2100Y285300D02*
D03*
X-15000Y308000D02*
D03*
X-16000Y275000D02*
D03*
X-18000Y292900D02*
D03*
X-10300Y287100D02*
D03*
X-14300Y287700D02*
D03*
X-43600Y273500D02*
D03*
X-26500Y273600D02*
D03*
X-16000Y256500D02*
D03*
X-15200Y246900D02*
D03*
X-36900Y226500D02*
D03*
X-41600Y184200D02*
D03*
X-22000Y194300D02*
D03*
X-16000Y197300D02*
D03*
X-4700Y185900D02*
D03*
X-11500Y186700D02*
D03*
X-31795Y156853D02*
D03*
X-32430Y163586D02*
D03*
X-34700Y171695D02*
D03*
X36400Y155800D02*
D03*
X31300Y156800D02*
D03*
X10400Y119100D02*
D03*
X8300Y121300D02*
D03*
X700Y144700D02*
D03*
X200Y141400D02*
D03*
X-500Y138000D02*
D03*
X-1100Y134700D02*
D03*
X-1800Y131300D02*
D03*
X-1500Y127900D02*
D03*
X400Y125400D02*
D03*
X-10600Y312500D02*
D03*
X-600Y308900D02*
D03*
X8700Y289300D02*
D03*
X-48500Y262000D02*
D03*
X-42600Y265000D02*
D03*
X-16500Y269300D02*
D03*
X-10500Y263900D02*
D03*
X34500Y216200D02*
D03*
X28900Y210700D02*
D03*
X21800Y228900D02*
D03*
X25800Y223400D02*
D03*
X-2500Y232100D02*
D03*
X-891Y234780D02*
D03*
X1400Y232894D02*
D03*
X-300Y221800D02*
D03*
X-15000Y295700D02*
D03*
X-42300Y301000D02*
D03*
X-49200Y271300D02*
D03*
X18300Y228800D02*
D03*
X26200Y168500D02*
D03*
X-41100Y268300D02*
D03*
X-30899Y344777D02*
D03*
X-28100Y343400D02*
D03*
X-27300Y348694D02*
D03*
X-38100Y480600D02*
D03*
X4700Y554300D02*
D03*
X-56000Y326400D02*
D03*
X-46100Y253300D02*
D03*
X-18600Y266400D02*
D03*
X-16100Y262700D02*
D03*
X-31500Y267200D02*
D03*
X-31200Y261600D02*
D03*
X-33700Y265100D02*
D03*
X-22800Y221495D02*
D03*
X-11300Y233500D02*
D03*
X-9000Y235500D02*
D03*
X-7200Y222900D02*
D03*
X-5500Y225400D02*
D03*
X-5900Y219795D02*
D03*
X17700Y165800D02*
D03*
X20800Y168700D02*
D03*
X15000Y168994D02*
D03*
X11100Y259600D02*
D03*
X-3900Y261000D02*
D03*
X14800Y248900D02*
D03*
X11100Y251900D02*
D03*
X12000Y243400D02*
D03*
X15100Y243500D02*
D03*
X7600Y248694D02*
D03*
X-51400Y571600D02*
D03*
X-48200Y573300D02*
D03*
X31900Y232295D02*
D03*
X-3100Y420000D02*
D03*
X-19600Y285600D02*
D03*
X-22800D02*
D03*
X-26000Y345800D02*
D03*
X48600Y391900D02*
D03*
X13100Y312800D02*
D03*
X8100Y424400D02*
D03*
X13000Y400700D02*
D03*
X-7600Y421300D02*
D03*
X37200Y401200D02*
D03*
X30400Y449500D02*
D03*
X-59900Y580400D02*
D03*
X-5100Y593200D02*
D03*
X0Y47894D02*
D03*
X-19300Y189495D02*
D03*
X-59000Y369394D02*
D03*
X14100Y428094D02*
D03*
X4000Y432594D02*
D03*
X-22600Y433994D02*
D03*
X17000Y467195D02*
D03*
X37300Y461195D02*
D03*
X43700Y401694D02*
D03*
X-18000Y131994D02*
D03*
X-12500Y346394D02*
D03*
X-14900Y116894D02*
D03*
X-4300Y98694D02*
D03*
X4300D02*
D03*
X11800Y116400D02*
D03*
X-19300Y140795D02*
D03*
X60000Y585094D02*
D03*
X-36000Y614094D02*
D03*
X-48000D02*
D03*
X48000D02*
D03*
X36000D02*
D03*
X24000D02*
D03*
X12000D02*
D03*
X0D02*
D03*
X-12000D02*
D03*
X-24000D02*
D03*
X60000Y405094D02*
D03*
Y417095D02*
D03*
Y429095D02*
D03*
Y441094D02*
D03*
Y453094D02*
D03*
Y465095D02*
D03*
Y477095D02*
D03*
Y489094D02*
D03*
Y501094D02*
D03*
Y513095D02*
D03*
Y525095D02*
D03*
Y537094D02*
D03*
Y549094D02*
D03*
X-60000Y525095D02*
D03*
Y537094D02*
D03*
Y549094D02*
D03*
Y561095D02*
D03*
Y465095D02*
D03*
Y477095D02*
D03*
Y489094D02*
D03*
Y501094D02*
D03*
Y513095D02*
D03*
Y405094D02*
D03*
Y417095D02*
D03*
Y429095D02*
D03*
Y441094D02*
D03*
Y453094D02*
D03*
X28000Y60094D02*
D03*
Y72095D02*
D03*
Y84095D02*
D03*
Y96095D02*
D03*
X-28000Y108095D02*
D03*
Y96095D02*
D03*
Y84095D02*
D03*
Y72095D02*
D03*
Y60094D02*
D03*
X-28100Y404994D02*
D03*
X-28200Y401194D02*
D03*
X25984Y348819D02*
D03*
X-19500Y176594D02*
D03*
X-10630Y375197D02*
D03*
X-16929Y138583D02*
D03*
X-24409Y149213D02*
D03*
X-14567Y135039D02*
D03*
X-27600Y173495D02*
D03*
X8100Y436095D02*
D03*
X-2100Y435094D02*
D03*
X-19100Y148495D02*
D03*
X3300Y124294D02*
D03*
X-8500Y174495D02*
D03*
X-31100Y391094D02*
D03*
X-32400Y369595D02*
D03*
X39000Y228994D02*
D03*
X300Y290394D02*
D03*
X8000Y313295D02*
D03*
X-37500Y223195D02*
D03*
X-800Y240094D02*
D03*
X-31534Y184857D02*
D03*
X-31734Y172547D02*
D03*
X-30100Y175195D02*
D03*
X-32400Y169494D02*
D03*
X-27000Y150894D02*
D03*
X-41700Y249294D02*
D03*
X-3700Y249400D02*
D03*
X-5709Y253260D02*
D03*
X-4331Y257985D02*
D03*
X-1083Y262414D02*
D03*
X-3051Y276293D02*
D03*
X-22000Y198895D02*
D03*
X-13976Y208071D02*
D03*
X-10100Y221500D02*
D03*
X-19193Y212894D02*
D03*
X-38091Y196358D02*
D03*
X26300Y206000D02*
D03*
X37600Y179400D02*
D03*
X15749Y190659D02*
D03*
X-8600Y184900D02*
D03*
X24134Y171900D02*
D03*
X11800Y178495D02*
D03*
X7400Y203900D02*
D03*
X5512Y194193D02*
D03*
X26500Y181100D02*
D03*
X15847Y187608D02*
D03*
X11713Y187697D02*
D03*
X7382Y183670D02*
D03*
X7500Y179495D02*
D03*
X-3740Y175492D02*
D03*
X-6103Y171957D02*
D03*
X3248Y181111D02*
D03*
X-4300Y193100D02*
D03*
X2067Y190551D02*
D03*
X5709Y186319D02*
D03*
X394Y185737D02*
D03*
X12796Y190462D02*
D03*
X11615Y193415D02*
D03*
X26300Y192200D02*
D03*
X-3740Y47954D02*
D03*
X3740Y48035D02*
D03*
X6100Y123200D02*
D03*
X-6900Y120900D02*
D03*
X30700Y257500D02*
D03*
X34100Y251700D02*
D03*
X-32500Y426400D02*
D03*
X-35277Y524923D02*
D03*
X-19200Y369100D02*
D03*
X-25900Y359800D02*
D03*
X-1300Y212600D02*
D03*
X8100Y222495D02*
D03*
X14800Y210500D02*
D03*
X12500Y205700D02*
D03*
X16600Y222900D02*
D03*
X14428Y251853D02*
D03*
X13200Y254800D02*
D03*
X17300Y216500D02*
D03*
X-52600Y295600D02*
D03*
X-50523Y298200D02*
D03*
D73*
X-17600Y320195D02*
D03*
X54300Y392400D02*
D03*
X52700Y329300D02*
D03*
X10827Y478346D02*
D03*
X-10827D02*
D03*
X0Y477362D02*
D03*
Y492126D02*
D03*
X10827Y491142D02*
D03*
X-10827D02*
D03*
X31900Y494100D02*
D03*
X24200Y588900D02*
D03*
X22100Y215794D02*
D03*
X26772Y317323D02*
D03*
X-55500Y389194D02*
D03*
X-36750Y361644D02*
D03*
X-5700Y114795D02*
D03*
X-17200Y381995D02*
D03*
X44000Y316195D02*
D03*
X42500Y260194D02*
D03*
X-6100Y483994D02*
D03*
X300Y483894D02*
D03*
X6600Y483794D02*
D03*
X0Y73694D02*
D03*
X14900Y49194D02*
D03*
X22000Y219994D02*
D03*
D74*
X-38400Y246094D02*
D03*
D75*
X-13583Y175197D02*
D03*
D76*
X-16623Y160324D02*
D03*
X-19685Y163386D02*
D03*
Y157261D02*
D03*
X-22747Y160324D02*
D03*
X-25810Y163386D02*
D03*
X-22747Y166448D02*
D03*
X-16623Y166448D02*
D03*
X-19685Y169510D02*
D03*
X-24013Y235732D02*
D03*
X-24013Y231401D02*
D03*
Y240062D02*
D03*
X-32675D02*
D03*
X-32675Y235732D02*
D03*
X-32675Y231401D02*
D03*
X-28344Y240062D02*
D03*
X-28344Y235732D02*
D03*
X-28344Y231401D02*
D03*
X-48622Y376772D02*
D03*
Y381102D02*
D03*
X-44291Y376772D02*
D03*
Y381102D02*
D03*
X-39961Y376772D02*
D03*
Y381102D02*
D03*
D77*
X-58876Y268886D02*
D03*
X-56933Y259076D02*
D03*
X-54991Y249267D02*
D03*
X-51106Y229648D02*
D03*
X-49164Y219838D02*
D03*
X-47222Y210029D02*
D03*
X-45295Y200200D02*
D03*
X-43295Y190400D02*
D03*
X-60818Y278696D02*
D03*
X-53049Y239457D02*
D03*
D78*
X0Y484842D02*
D03*
Y160039D02*
D03*
%TF.MD5,c8f7802bf3ad2ba3c3e5486531817f79*%
M02*
