G04 Layer_Color=255*
%FSLAX25Y25*%
%MOIN*%
%TF.FileFunction,Pads,Top*%
%TF.Part,Single*%
G01*
G75*
%TA.AperFunction,SMDPad,CuDef*%
%ADD10R,0.03937X0.03543*%
%ADD11R,0.03543X0.03740*%
%ADD12R,0.03543X0.03937*%
%ADD13R,0.04331X0.02559*%
G04:AMPARAMS|DCode=14|XSize=75mil|YSize=25mil|CornerRadius=0mil|HoleSize=0mil|Usage=FLASHONLY|Rotation=349.000|XOffset=0mil|YOffset=0mil|HoleType=Round|Shape=Round|*
%AMOVALD14*
21,1,0.05000,0.02500,0.00000,0.00000,349.0*
1,1,0.02500,-0.02454,0.00477*
1,1,0.02500,0.02454,-0.00477*
%
%ADD14OVALD14*%

%ADD15R,0.02165X0.15748*%
%ADD16R,0.04134X0.05512*%
%ADD17R,0.02362X0.05512*%
%ADD18R,0.02362X0.07087*%
G04:AMPARAMS|DCode=19|XSize=98.42mil|YSize=66.93mil|CornerRadius=16.73mil|HoleSize=0mil|Usage=FLASHONLY|Rotation=180.000|XOffset=0mil|YOffset=0mil|HoleType=Round|Shape=RoundedRectangle|*
%AMROUNDEDRECTD19*
21,1,0.09842,0.03347,0,0,180.0*
21,1,0.06496,0.06693,0,0,180.0*
1,1,0.03346,-0.03248,0.01673*
1,1,0.03346,0.03248,0.01673*
1,1,0.03346,0.03248,-0.01673*
1,1,0.03346,-0.03248,-0.01673*
%
%ADD19ROUNDEDRECTD19*%
G04:AMPARAMS|DCode=20|XSize=98.42mil|YSize=196.85mil|CornerRadius=24.61mil|HoleSize=0mil|Usage=FLASHONLY|Rotation=90.000|XOffset=0mil|YOffset=0mil|HoleType=Round|Shape=RoundedRectangle|*
%AMROUNDEDRECTD20*
21,1,0.09842,0.14764,0,0,90.0*
21,1,0.04921,0.19685,0,0,90.0*
1,1,0.04921,0.07382,0.02461*
1,1,0.04921,0.07382,-0.02461*
1,1,0.04921,-0.07382,-0.02461*
1,1,0.04921,-0.07382,0.02461*
%
%ADD20ROUNDEDRECTD20*%
%ADD21R,0.05905X0.03937*%
G04:AMPARAMS|DCode=22|XSize=51.18mil|YSize=354.33mil|CornerRadius=12.79mil|HoleSize=0mil|Usage=FLASHONLY|Rotation=180.000|XOffset=0mil|YOffset=0mil|HoleType=Round|Shape=RoundedRectangle|*
%AMROUNDEDRECTD22*
21,1,0.05118,0.32874,0,0,180.0*
21,1,0.02559,0.35433,0,0,180.0*
1,1,0.02559,-0.01279,0.16437*
1,1,0.02559,0.01279,0.16437*
1,1,0.02559,0.01279,-0.16437*
1,1,0.02559,-0.01279,-0.16437*
%
%ADD22ROUNDEDRECTD22*%
G04:AMPARAMS|DCode=23|XSize=70mil|YSize=405.51mil|CornerRadius=17.5mil|HoleSize=0mil|Usage=FLASHONLY|Rotation=180.000|XOffset=0mil|YOffset=0mil|HoleType=Round|Shape=RoundedRectangle|*
%AMROUNDEDRECTD23*
21,1,0.07000,0.37051,0,0,180.0*
21,1,0.03500,0.40551,0,0,180.0*
1,1,0.03500,-0.01750,0.18526*
1,1,0.03500,0.01750,0.18526*
1,1,0.03500,0.01750,-0.18526*
1,1,0.03500,-0.01750,-0.18526*
%
%ADD23ROUNDEDRECTD23*%
%ADD24O,0.02756X0.01181*%
%ADD25O,0.01181X0.02756*%
G04:AMPARAMS|DCode=26|XSize=9.84mil|YSize=31.5mil|CornerRadius=0mil|HoleSize=0mil|Usage=FLASHONLY|Rotation=225.000|XOffset=0mil|YOffset=0mil|HoleType=Round|Shape=Round|*
%AMOVALD26*
21,1,0.02165,0.00984,0.00000,0.00000,315.0*
1,1,0.00984,-0.00766,0.00766*
1,1,0.00984,0.00766,-0.00766*
%
%ADD26OVALD26*%

G04:AMPARAMS|DCode=27|XSize=9.84mil|YSize=31.5mil|CornerRadius=0mil|HoleSize=0mil|Usage=FLASHONLY|Rotation=135.000|XOffset=0mil|YOffset=0mil|HoleType=Round|Shape=Round|*
%AMOVALD27*
21,1,0.02165,0.00984,0.00000,0.00000,225.0*
1,1,0.00984,0.00766,0.00766*
1,1,0.00984,-0.00766,-0.00766*
%
%ADD27OVALD27*%

%ADD28P,0.18374X4X180.0*%
%ADD29R,0.00787X0.03740*%
%ADD30R,0.03740X0.00787*%
G04:AMPARAMS|DCode=31|XSize=9.84mil|YSize=23.62mil|CornerRadius=1.97mil|HoleSize=0mil|Usage=FLASHONLY|Rotation=180.000|XOffset=0mil|YOffset=0mil|HoleType=Round|Shape=RoundedRectangle|*
%AMROUNDEDRECTD31*
21,1,0.00984,0.01968,0,0,180.0*
21,1,0.00591,0.02362,0,0,180.0*
1,1,0.00394,-0.00295,0.00984*
1,1,0.00394,0.00295,0.00984*
1,1,0.00394,0.00295,-0.00984*
1,1,0.00394,-0.00295,-0.00984*
%
%ADD31ROUNDEDRECTD31*%
%ADD32R,0.02559X0.04331*%
G04:AMPARAMS|DCode=33|XSize=39.37mil|YSize=35.43mil|CornerRadius=0mil|HoleSize=0mil|Usage=FLASHONLY|Rotation=135.000|XOffset=0mil|YOffset=0mil|HoleType=Round|Shape=Rectangle|*
%AMROTATEDRECTD33*
4,1,4,0.02645,-0.00139,0.00139,-0.02645,-0.02645,0.00139,-0.00139,0.02645,0.02645,-0.00139,0.0*
%
%ADD33ROTATEDRECTD33*%

G04:AMPARAMS|DCode=34|XSize=39.37mil|YSize=35.43mil|CornerRadius=0mil|HoleSize=0mil|Usage=FLASHONLY|Rotation=225.000|XOffset=0mil|YOffset=0mil|HoleType=Round|Shape=Rectangle|*
%AMROTATEDRECTD34*
4,1,4,0.00139,0.02645,0.02645,0.00139,-0.00139,-0.02645,-0.02645,-0.00139,0.00139,0.02645,0.0*
%
%ADD34ROTATEDRECTD34*%

%ADD35R,0.03543X0.02756*%
%ADD36R,0.08268X0.04724*%
%ADD37R,0.04724X0.08268*%
G04:AMPARAMS|DCode=38|XSize=23.62mil|YSize=39.37mil|CornerRadius=2.95mil|HoleSize=0mil|Usage=FLASHONLY|Rotation=180.000|XOffset=0mil|YOffset=0mil|HoleType=Round|Shape=RoundedRectangle|*
%AMROUNDEDRECTD38*
21,1,0.02362,0.03347,0,0,180.0*
21,1,0.01772,0.03937,0,0,180.0*
1,1,0.00591,-0.00886,0.01673*
1,1,0.00591,0.00886,0.01673*
1,1,0.00591,0.00886,-0.01673*
1,1,0.00591,-0.00886,-0.01673*
%
%ADD38ROUNDEDRECTD38*%
%ADD39O,0.01772X0.05512*%
%ADD40R,0.03740X0.03543*%
%ADD41R,0.07087X0.04528*%
%ADD42R,0.12323X0.12323*%
%ADD43O,0.00787X0.03740*%
%ADD44O,0.03740X0.00787*%
%ADD45O,0.02362X0.05709*%
%ADD46R,0.13386X0.09842*%
G04:AMPARAMS|DCode=47|XSize=51.18mil|YSize=43.31mil|CornerRadius=4.33mil|HoleSize=0mil|Usage=FLASHONLY|Rotation=281.000|XOffset=0mil|YOffset=0mil|HoleType=Round|Shape=RoundedRectangle|*
%AMROUNDEDRECTD47*
21,1,0.05118,0.03465,0,0,281.0*
21,1,0.04252,0.04331,0,0,281.0*
1,1,0.00866,-0.01295,-0.02418*
1,1,0.00866,-0.02106,0.01756*
1,1,0.00866,0.01295,0.02418*
1,1,0.00866,0.02106,-0.01756*
%
%ADD47ROUNDEDRECTD47*%
G04:AMPARAMS|DCode=48|XSize=74.8mil|YSize=78.74mil|CornerRadius=0mil|HoleSize=0mil|Usage=FLASHONLY|Rotation=135.000|XOffset=0mil|YOffset=0mil|HoleType=Round|Shape=Rectangle|*
%AMROTATEDRECTD48*
4,1,4,0.05429,0.00139,-0.00139,-0.05429,-0.05429,-0.00139,0.00139,0.05429,0.05429,0.00139,0.0*
%
%ADD48ROTATEDRECTD48*%

G04:AMPARAMS|DCode=49|XSize=43.31mil|YSize=78.74mil|CornerRadius=0mil|HoleSize=0mil|Usage=FLASHONLY|Rotation=315.000|XOffset=0mil|YOffset=0mil|HoleType=Round|Shape=Rectangle|*
%AMROTATEDRECTD49*
4,1,4,-0.04315,-0.01253,0.01253,0.04315,0.04315,0.01253,-0.01253,-0.04315,-0.04315,-0.01253,0.0*
%
%ADD49ROTATEDRECTD49*%

%ADD50R,0.01968X0.02953*%
%ADD51R,0.02756X0.04724*%
%ADD52R,0.04724X0.03937*%
%ADD53R,0.06693X0.06693*%
%ADD54O,0.02362X0.06693*%
%ADD55O,0.02559X0.06496*%
%TA.AperFunction,ComponentPad*%
%ADD66O,0.07874X0.05512*%
%TA.AperFunction,ViaPad*%
%ADD67C,0.07874*%
%TA.AperFunction,ComponentPad*%
%ADD68C,0.06000*%
%ADD69O,0.06000X0.09937*%
%ADD70C,0.02500*%
%ADD71C,0.07874*%
D10*
X-24400Y585850D02*
D03*
Y579550D02*
D03*
X19000Y250550D02*
D03*
Y244250D02*
D03*
X24500Y250550D02*
D03*
Y244250D02*
D03*
X-31100Y579550D02*
D03*
Y585850D02*
D03*
X-16400Y393950D02*
D03*
Y387650D02*
D03*
X12400Y221845D02*
D03*
Y228144D02*
D03*
X-50200Y282144D02*
D03*
Y275845D02*
D03*
X30100Y250550D02*
D03*
Y244250D02*
D03*
X37600Y167550D02*
D03*
Y173850D02*
D03*
X12400Y233545D02*
D03*
Y239844D02*
D03*
X-58200Y305350D02*
D03*
Y299050D02*
D03*
X32700Y167550D02*
D03*
Y173850D02*
D03*
X-26000Y124244D02*
D03*
Y117945D02*
D03*
X-11600Y239045D02*
D03*
Y245344D02*
D03*
X-20000Y124244D02*
D03*
Y117945D02*
D03*
X-8661Y130709D02*
D03*
Y124409D02*
D03*
X-58200Y287550D02*
D03*
Y293850D02*
D03*
X-22100Y302944D02*
D03*
Y296645D02*
D03*
X-58200Y316850D02*
D03*
Y310550D02*
D03*
X-14173Y124409D02*
D03*
Y130709D02*
D03*
X-37100Y177945D02*
D03*
Y184244D02*
D03*
X27900Y173850D02*
D03*
Y167550D02*
D03*
X-56693Y341732D02*
D03*
Y335433D02*
D03*
X-11600Y230344D02*
D03*
Y224045D02*
D03*
X-59055Y383071D02*
D03*
Y376772D02*
D03*
X-56693Y353937D02*
D03*
Y347638D02*
D03*
X11000Y215850D02*
D03*
Y209550D02*
D03*
X19000Y256345D02*
D03*
Y262644D02*
D03*
X-27800Y302950D02*
D03*
Y296650D02*
D03*
D11*
X-22638Y563189D02*
D03*
X-26378Y573032D02*
D03*
X-30118Y563189D02*
D03*
X-43898D02*
D03*
X-40157Y573032D02*
D03*
X-36417Y563189D02*
D03*
X-9160Y563173D02*
D03*
X-12900Y573016D02*
D03*
X-16640Y563173D02*
D03*
X-22060Y379373D02*
D03*
X-25800Y389216D02*
D03*
X-29540Y379373D02*
D03*
D12*
X-37750Y580700D02*
D03*
X-44050D02*
D03*
X53750Y262695D02*
D03*
X47450D02*
D03*
X54450Y397300D02*
D03*
X48150D02*
D03*
X-50150Y396094D02*
D03*
X-43850D02*
D03*
X-38189Y396063D02*
D03*
X-31890D02*
D03*
X37450Y391800D02*
D03*
X43750D02*
D03*
X-50000Y580709D02*
D03*
X-56299D02*
D03*
X-7750Y598200D02*
D03*
X-1450D02*
D03*
X-26350Y191194D02*
D03*
X-32650D02*
D03*
X-22650Y309894D02*
D03*
X-28950D02*
D03*
X-43950Y287700D02*
D03*
X-50250D02*
D03*
X-3150Y119194D02*
D03*
X3150D02*
D03*
X3950Y222094D02*
D03*
X-2350D02*
D03*
X-7950Y195395D02*
D03*
X-1650D02*
D03*
X37450Y397300D02*
D03*
X43750D02*
D03*
X-6250Y202300D02*
D03*
X50D02*
D03*
X25450Y583500D02*
D03*
X31750D02*
D03*
X26750Y391800D02*
D03*
X33050D02*
D03*
X16050Y397300D02*
D03*
X22350D02*
D03*
X33050D02*
D03*
X26750D02*
D03*
X-43850Y316600D02*
D03*
X-50150D02*
D03*
X27650Y162000D02*
D03*
X33950D02*
D03*
X-26350Y201195D02*
D03*
X-32650D02*
D03*
X-32650Y196195D02*
D03*
X-26350D02*
D03*
X-26149Y185117D02*
D03*
X-19850Y185073D02*
D03*
X-7950Y189495D02*
D03*
X-1650D02*
D03*
X15950Y391800D02*
D03*
X22250D02*
D03*
D13*
X34724Y255854D02*
D03*
Y259594D02*
D03*
Y263335D02*
D03*
X25276D02*
D03*
Y255854D02*
D03*
X4024Y208860D02*
D03*
Y212600D02*
D03*
Y216340D02*
D03*
X-5424D02*
D03*
Y212600D02*
D03*
Y208860D02*
D03*
D14*
X5731Y157200D02*
D03*
D15*
X-37809Y446895D02*
D03*
X-32691D02*
D03*
X-27572D02*
D03*
X-22454D02*
D03*
X-17336D02*
D03*
X-12218D02*
D03*
X-7100D02*
D03*
X-1982D02*
D03*
X3136D02*
D03*
X8254D02*
D03*
X13372D02*
D03*
X18490D02*
D03*
X23609D02*
D03*
D16*
X25740Y274594D02*
D03*
X18260D02*
D03*
X41860Y308494D02*
D03*
X49340D02*
D03*
D17*
X33500Y284095D02*
D03*
X21689D02*
D03*
D18*
X27595Y284882D02*
D03*
D19*
X35126Y273594D02*
D03*
X50874D02*
D03*
D20*
X48500Y286689D02*
D03*
Y298500D02*
D03*
D21*
X-59055Y364961D02*
D03*
Y360236D02*
D03*
D22*
X4500Y24803D02*
D03*
X-4500D02*
D03*
D23*
X15000Y22441D02*
D03*
X-15000D02*
D03*
D24*
X-5784Y243584D02*
D03*
Y241616D02*
D03*
Y239647D02*
D03*
Y237679D02*
D03*
Y235710D02*
D03*
Y233742D02*
D03*
Y231773D02*
D03*
Y229805D02*
D03*
Y227836D02*
D03*
X7371Y227795D02*
D03*
Y229763D02*
D03*
Y231732D02*
D03*
Y233700D02*
D03*
Y235668D02*
D03*
Y237637D02*
D03*
Y239605D02*
D03*
Y241574D02*
D03*
Y243543D02*
D03*
Y245511D02*
D03*
X-5784Y245553D02*
D03*
D25*
X-2137Y227294D02*
D03*
X-169D02*
D03*
X1800D02*
D03*
X3768D02*
D03*
Y245996D02*
D03*
X1800D02*
D03*
X-169D02*
D03*
X-2137D02*
D03*
D26*
X-17597Y151554D02*
D03*
X-16205Y152946D02*
D03*
X-14813Y154338D02*
D03*
X-13421Y155730D02*
D03*
X-12029Y157122D02*
D03*
X-10637Y158514D02*
D03*
X-9245Y159906D02*
D03*
X-7853Y161298D02*
D03*
X-21773Y175217D02*
D03*
X-23165Y173825D02*
D03*
X-24557Y172433D02*
D03*
X-25949Y171042D02*
D03*
X-27341Y169650D02*
D03*
X-28733Y168258D02*
D03*
X-30125Y166866D02*
D03*
X-31517Y165474D02*
D03*
D27*
X-7853D02*
D03*
X-9245Y166866D02*
D03*
X-10637Y168258D02*
D03*
X-12029Y169650D02*
D03*
X-13421Y171042D02*
D03*
X-14813Y172433D02*
D03*
X-16205Y173825D02*
D03*
X-17597Y175217D02*
D03*
X-31517Y161298D02*
D03*
X-30125Y159906D02*
D03*
X-28733Y158514D02*
D03*
X-27341Y157122D02*
D03*
X-25949Y155730D02*
D03*
X-24557Y154338D02*
D03*
X-23165Y152946D02*
D03*
X-21773Y151554D02*
D03*
D28*
X-19685Y163386D02*
D03*
D29*
X7150Y260200D02*
D03*
X5575D02*
D03*
X4000D02*
D03*
X2425D02*
D03*
X850D02*
D03*
X7150Y253389D02*
D03*
X5575D02*
D03*
X4000D02*
D03*
X2425D02*
D03*
X850D02*
D03*
D30*
X7937Y256795D02*
D03*
X63D02*
D03*
D31*
X-56153Y563494D02*
D03*
X-54184D02*
D03*
X-52216D02*
D03*
X-50247D02*
D03*
X-56153Y575306D02*
D03*
X-54184D02*
D03*
X-52216D02*
D03*
X-50247D02*
D03*
D32*
X3740Y62719D02*
D03*
X0D02*
D03*
X-3740D02*
D03*
Y53270D02*
D03*
X0D02*
D03*
X3740D02*
D03*
D33*
X259Y154196D02*
D03*
X-4196Y149741D02*
D03*
X-8526Y363915D02*
D03*
X-4072Y368369D02*
D03*
X8727Y324322D02*
D03*
X4273Y319867D02*
D03*
X19820Y335568D02*
D03*
X24274Y340022D02*
D03*
X-8920Y136356D02*
D03*
X-4466Y140810D02*
D03*
D34*
X-13644Y147896D02*
D03*
X-9190Y143442D02*
D03*
X-17188Y144353D02*
D03*
X-12733Y139899D02*
D03*
D35*
X-55905Y394488D02*
D03*
Y400000D02*
D03*
D36*
X7874Y387795D02*
D03*
Y381890D02*
D03*
Y393701D02*
D03*
X-7874Y381890D02*
D03*
Y393701D02*
D03*
Y387795D02*
D03*
X7874Y301181D02*
D03*
Y295276D02*
D03*
Y307087D02*
D03*
X-7874Y295276D02*
D03*
Y307087D02*
D03*
Y301181D02*
D03*
D37*
X-43307Y352362D02*
D03*
X-37402D02*
D03*
X-49213D02*
D03*
X-37402Y336614D02*
D03*
X-49213D02*
D03*
X-43307D02*
D03*
X43307Y352362D02*
D03*
X49213D02*
D03*
X37402D02*
D03*
X49213Y336614D02*
D03*
X37402D02*
D03*
X43307D02*
D03*
D38*
X-16500Y208067D02*
D03*
X-20240Y217122D02*
D03*
X-12760D02*
D03*
X-16500Y193067D02*
D03*
X-20240Y202122D02*
D03*
X-12760D02*
D03*
D39*
X18250Y210880D02*
D03*
X20750D02*
D03*
X23250D02*
D03*
X25750D02*
D03*
X18250Y234109D02*
D03*
X20750D02*
D03*
X23250D02*
D03*
X25750D02*
D03*
D40*
X1579Y271354D02*
D03*
X11421Y275095D02*
D03*
X1579Y278835D02*
D03*
D41*
X-0Y81890D02*
D03*
Y93307D02*
D03*
D42*
X-28344Y235732D02*
D03*
D43*
X-22439Y225987D02*
D03*
X-24407D02*
D03*
X-26376D02*
D03*
X-28344D02*
D03*
X-30313Y225987D02*
D03*
X-32281D02*
D03*
X-34250Y225987D02*
D03*
Y245476D02*
D03*
X-32281D02*
D03*
X-30313D02*
D03*
X-28344D02*
D03*
X-26376D02*
D03*
X-24407D02*
D03*
X-22439D02*
D03*
D44*
X-38088Y229826D02*
D03*
X-38088Y231795D02*
D03*
Y233763D02*
D03*
Y235732D02*
D03*
Y237700D02*
D03*
X-38088Y239668D02*
D03*
Y241637D02*
D03*
X-18600D02*
D03*
X-18600Y239668D02*
D03*
Y237700D02*
D03*
Y235732D02*
D03*
Y233763D02*
D03*
Y231795D02*
D03*
X-18600Y229826D02*
D03*
D45*
X-51791Y368209D02*
D03*
X-46791D02*
D03*
X-41791D02*
D03*
X-36791D02*
D03*
X-51791Y389665D02*
D03*
X-46791D02*
D03*
X-41791D02*
D03*
X-36791D02*
D03*
D46*
X-44291Y378937D02*
D03*
D47*
X-29302Y133255D02*
D03*
X-30804Y140984D02*
D03*
X-23848Y142336D02*
D03*
X-22345Y134607D02*
D03*
D48*
X10022Y334466D02*
D03*
X-10022Y354510D02*
D03*
D49*
X13418Y349945D02*
D03*
X9437Y353926D02*
D03*
X5456Y357907D02*
D03*
X-5456Y331070D02*
D03*
X-9437Y335051D02*
D03*
X-13418Y339032D02*
D03*
D50*
X-30043Y365508D02*
D03*
X-26500D02*
D03*
Y372594D02*
D03*
X-30043D02*
D03*
D51*
X3000Y562711D02*
D03*
Y577278D02*
D03*
D52*
X25300Y563302D02*
D03*
Y576295D02*
D03*
D53*
X35142Y573932D02*
D03*
Y566058D02*
D03*
X43016Y573932D02*
D03*
Y566058D02*
D03*
D54*
X20000Y201771D02*
D03*
X15000D02*
D03*
X10000D02*
D03*
X5000D02*
D03*
X20000Y173818D02*
D03*
X15000D02*
D03*
X10000D02*
D03*
X5000D02*
D03*
D55*
X-8500Y279217D02*
D03*
X-13500D02*
D03*
X-18500D02*
D03*
X-23500D02*
D03*
X-28500D02*
D03*
X-33500D02*
D03*
X-38500D02*
D03*
X-43500D02*
D03*
X-8500Y256972D02*
D03*
X-13500D02*
D03*
X-18500D02*
D03*
X-23500D02*
D03*
X-28500D02*
D03*
X-33500D02*
D03*
X-38500D02*
D03*
X-43500D02*
D03*
D66*
X-45700Y294500D02*
D03*
Y307886D02*
D03*
D67*
X-42700Y200694D02*
D03*
X-40700Y190894D02*
D03*
X-44627Y210523D02*
D03*
X-48512Y230142D02*
D03*
X-50454Y239952D02*
D03*
X-52396Y249761D02*
D03*
X-54339Y259571D02*
D03*
X-56281Y269380D02*
D03*
X-58223Y279190D02*
D03*
X-46569Y220333D02*
D03*
D68*
X47644Y222771D02*
D03*
X35277Y225175D02*
D03*
X37155Y234837D02*
D03*
X39033Y244498D02*
D03*
X51400Y242094D02*
D03*
X49522Y232433D02*
D03*
X31511Y206360D02*
D03*
X43878Y203956D02*
D03*
X42000Y194295D02*
D03*
X40122Y184633D02*
D03*
X27755Y187037D02*
D03*
X29633Y196698D02*
D03*
D69*
X-17100Y597457D02*
D03*
X-27100D02*
D03*
X7500D02*
D03*
X27500D02*
D03*
X17500D02*
D03*
D70*
X2938Y129728D02*
D03*
D71*
X14900Y584800D02*
D03*
X4900D02*
D03*
X-5100D02*
D03*
X-15100D02*
D03*
%TF.MD5,21fa90e9db609f829f4616fd017be05d*%
M02*
