G04 Layer_Color=0*
%FSLAX25Y25*%
%MOIN*%
%TF.FileFunction,Plated,1,2,PTH,Drill*%
%TF.Part,Single*%
G01*
G75*
%TA.AperFunction,ComponentDrill*%
%ADD168C,0.02362*%
%TA.AperFunction,OtherDrill,Pad Free-1 (-427mil,2006.945mil)*%
%ADD169C,0.03937*%
%TA.AperFunction,ComponentDrill*%
%ADD170C,0.03347*%
%ADD171C,0.03150*%
%ADD172C,0.01600*%
%TA.AperFunction,OtherDrill,Pad Free-1 (-407mil,1908.945mil)*%
%ADD173C,0.03937*%
%TA.AperFunction,OtherDrill,Pad Free-1 (-446.27mil,2105.231mil)*%
%ADD174C,0.03937*%
%TA.AperFunction,OtherDrill,Pad Free-1 (-485.117mil,2301.423mil)*%
%ADD175C,0.03937*%
%TA.AperFunction,OtherDrill,Pad Free-1 (-504.541mil,2399.518mil)*%
%ADD176C,0.03937*%
%TA.AperFunction,OtherDrill,Pad Free-1 (-523.964mil,2497.613mil)*%
%ADD177C,0.03937*%
%TA.AperFunction,OtherDrill,Pad Free-1 (-543.388mil,2595.709mil)*%
%ADD178C,0.03937*%
%TA.AperFunction,OtherDrill,Pad Free-1 (-562.811mil,2693.805mil)*%
%ADD179C,0.03937*%
%TA.AperFunction,OtherDrill,Pad Free-1 (-582.234mil,2791.9mil)*%
%ADD180C,0.03937*%
%TA.AperFunction,OtherDrill,Pad Free-1 (-465.694mil,2203.327mil)*%
%ADD181C,0.03937*%
%TA.AperFunction,ComponentDrill*%
%ADD182C,0.03543*%
%ADD183C,0.14567*%
%ADD184C,0.06693*%
%TA.AperFunction,ViaDrill,NotFilled*%
%ADD185C,0.01181*%
%ADD186C,0.01968*%
%ADD187C,0.01575*%
D168*
X-45700Y294500D02*
D03*
Y307886D02*
D03*
D169*
X-42700Y200694D02*
D03*
D170*
X47644Y222771D02*
D03*
X35277Y225175D02*
D03*
X37155Y234837D02*
D03*
X39033Y244498D02*
D03*
X51400Y242094D02*
D03*
X49522Y232433D02*
D03*
X31511Y206360D02*
D03*
X43878Y203956D02*
D03*
X42000Y194295D02*
D03*
X40122Y184633D02*
D03*
X27755Y187037D02*
D03*
X29633Y196698D02*
D03*
D171*
X-17100Y597457D02*
D03*
X-27100D02*
D03*
X7500D02*
D03*
X27500D02*
D03*
X17500D02*
D03*
D172*
X2938Y129728D02*
D03*
D173*
X-40700Y190894D02*
D03*
D174*
X-44627Y210523D02*
D03*
D175*
X-48512Y230142D02*
D03*
D176*
X-50454Y239952D02*
D03*
D177*
X-52396Y249761D02*
D03*
D178*
X-54339Y259571D02*
D03*
D179*
X-56281Y269380D02*
D03*
D180*
X-58223Y279190D02*
D03*
D181*
X-46569Y220333D02*
D03*
D182*
X14900Y584800D02*
D03*
X4900D02*
D03*
X-5100D02*
D03*
X-15100D02*
D03*
D183*
X31496Y431102D02*
D03*
X-31496Y213779D02*
D03*
D184*
Y464173D02*
D03*
D185*
X-12300Y360500D02*
D03*
X10400Y311300D02*
D03*
X31100Y345400D02*
D03*
X38200Y163100D02*
D03*
X37718Y189618D02*
D03*
X34300Y219500D02*
D03*
X26700Y217500D02*
D03*
X-33100Y153600D02*
D03*
X-19400Y324400D02*
D03*
Y332300D02*
D03*
X-35600Y470700D02*
D03*
X-47200Y477100D02*
D03*
X-46800Y461100D02*
D03*
Y424300D02*
D03*
X-42700Y414500D02*
D03*
X-39800Y330600D02*
D03*
X-53100Y309900D02*
D03*
X-53500Y322000D02*
D03*
X-45300Y323300D02*
D03*
X-61900Y328600D02*
D03*
X-62300Y348000D02*
D03*
X-53543Y357677D02*
D03*
X-31800Y356800D02*
D03*
X-2200Y361600D02*
D03*
X-3500Y340700D02*
D03*
X1700Y327000D02*
D03*
X-3500Y322000D02*
D03*
X24500Y331800D02*
D03*
X5500Y345600D02*
D03*
X15500Y341400D02*
D03*
X42000Y343800D02*
D03*
X43900Y368500D02*
D03*
X26500Y371600D02*
D03*
X41200Y385000D02*
D03*
X27600Y354400D02*
D03*
X18700Y381300D02*
D03*
X9800Y366800D02*
D03*
X-600Y372100D02*
D03*
X-45500Y401800D02*
D03*
X-20900Y406200D02*
D03*
X-8900Y405600D02*
D03*
X5900Y400500D02*
D03*
X14000Y411900D02*
D03*
X4300Y416200D02*
D03*
X29600Y416100D02*
D03*
X26600Y404400D02*
D03*
X35200Y443400D02*
D03*
X-11000Y433800D02*
D03*
X-4700Y426200D02*
D03*
X-12000Y420100D02*
D03*
X-23900Y422100D02*
D03*
X-41500Y424900D02*
D03*
X-38500Y458800D02*
D03*
X-16000Y457700D02*
D03*
X39100Y502100D02*
D03*
X38200Y488500D02*
D03*
X21900Y475800D02*
D03*
X-8400Y468800D02*
D03*
X24300Y497200D02*
D03*
X-400Y498400D02*
D03*
X-18600Y487000D02*
D03*
X-39800Y497300D02*
D03*
X-24000Y501600D02*
D03*
X-42500Y528100D02*
D03*
X-22500Y527700D02*
D03*
X21700Y528000D02*
D03*
X37300Y530700D02*
D03*
X25900Y555200D02*
D03*
X25300Y569800D02*
D03*
X-11700Y601400D02*
D03*
X-11300Y594100D02*
D03*
X1300Y593400D02*
D03*
X-34700Y569500D02*
D03*
X-7400Y555600D02*
D03*
X-17700Y568500D02*
D03*
X-3000Y576300D02*
D03*
X-32200Y416700D02*
D03*
X43300Y218900D02*
D03*
X42200Y212500D02*
D03*
X40100Y200600D02*
D03*
X30100Y246600D02*
D03*
X17400Y239400D02*
D03*
X21900Y238900D02*
D03*
X29800Y240800D02*
D03*
X46100Y247100D02*
D03*
X58300Y266600D02*
D03*
X50700Y257900D02*
D03*
Y266600D02*
D03*
X39500Y266500D02*
D03*
X30100Y263100D02*
D03*
X25900Y266400D02*
D03*
X18600Y266600D02*
D03*
X13500Y267500D02*
D03*
X-1900Y271700D02*
D03*
X2100Y285300D02*
D03*
X-15000Y308000D02*
D03*
X-16000Y275000D02*
D03*
X-18000Y292900D02*
D03*
X-10300Y287100D02*
D03*
X-14300Y287700D02*
D03*
X-43600Y273500D02*
D03*
X-26500Y273600D02*
D03*
X-16000Y256500D02*
D03*
X-15200Y246900D02*
D03*
X-36900Y226500D02*
D03*
X-41600Y184200D02*
D03*
X-22000Y194300D02*
D03*
X-16000Y197300D02*
D03*
X-4700Y185900D02*
D03*
X-11500Y186700D02*
D03*
X-31795Y156853D02*
D03*
X-32430Y163586D02*
D03*
X-34700Y171695D02*
D03*
X36400Y155800D02*
D03*
X31300Y156800D02*
D03*
X10400Y119100D02*
D03*
X8300Y121300D02*
D03*
X700Y144700D02*
D03*
X200Y141400D02*
D03*
X-500Y138000D02*
D03*
X-1100Y134700D02*
D03*
X-1800Y131300D02*
D03*
X-1500Y127900D02*
D03*
X400Y125400D02*
D03*
X-10600Y312500D02*
D03*
X-600Y308900D02*
D03*
X8700Y289300D02*
D03*
X-48500Y262000D02*
D03*
X-42600Y265000D02*
D03*
X-16500Y269300D02*
D03*
X-10500Y263900D02*
D03*
X34500Y216200D02*
D03*
X28900Y210700D02*
D03*
X21800Y228900D02*
D03*
X25800Y223400D02*
D03*
X-2500Y232100D02*
D03*
X-891Y234780D02*
D03*
X1400Y232894D02*
D03*
X-300Y221800D02*
D03*
X-15000Y295700D02*
D03*
X-42300Y301000D02*
D03*
X-49200Y271300D02*
D03*
X18300Y228800D02*
D03*
X26200Y168500D02*
D03*
X-41100Y268300D02*
D03*
X-30899Y344777D02*
D03*
X-28100Y343400D02*
D03*
X-27300Y348694D02*
D03*
X-38100Y480600D02*
D03*
X4700Y554300D02*
D03*
X-56000Y326400D02*
D03*
X-46100Y253300D02*
D03*
X-18600Y266400D02*
D03*
X-16100Y262700D02*
D03*
X-31500Y267200D02*
D03*
X-31200Y261600D02*
D03*
X-33700Y265100D02*
D03*
X-22800Y221495D02*
D03*
X-11300Y233500D02*
D03*
X-9000Y235500D02*
D03*
X-7200Y222900D02*
D03*
X-5500Y225400D02*
D03*
X-5900Y219795D02*
D03*
X17700Y165800D02*
D03*
X20800Y168700D02*
D03*
X15000Y168994D02*
D03*
X11100Y259600D02*
D03*
X-3900Y261000D02*
D03*
X14800Y248900D02*
D03*
X11100Y251900D02*
D03*
X12000Y243400D02*
D03*
X15100Y243500D02*
D03*
X7600Y248694D02*
D03*
X-51400Y571600D02*
D03*
X-48200Y573300D02*
D03*
X31900Y232295D02*
D03*
X-3100Y420000D02*
D03*
X-19600Y285600D02*
D03*
X-22800D02*
D03*
X-26000Y345800D02*
D03*
X48600Y391900D02*
D03*
X13100Y312800D02*
D03*
X8100Y424400D02*
D03*
X13000Y400700D02*
D03*
X-7600Y421300D02*
D03*
X37200Y401200D02*
D03*
X30400Y449500D02*
D03*
X-59900Y580400D02*
D03*
X-5100Y593200D02*
D03*
X0Y47894D02*
D03*
X-19300Y189495D02*
D03*
X-59000Y369394D02*
D03*
X14100Y428094D02*
D03*
X4000Y432594D02*
D03*
X-22600Y433994D02*
D03*
X17000Y467195D02*
D03*
X37300Y461195D02*
D03*
X43700Y401694D02*
D03*
X-18000Y131994D02*
D03*
X-12500Y346394D02*
D03*
X-14900Y116894D02*
D03*
X-4300Y98694D02*
D03*
X4300D02*
D03*
X11800Y116400D02*
D03*
X-19300Y140795D02*
D03*
X60000Y585094D02*
D03*
X-36000Y614094D02*
D03*
X-48000D02*
D03*
X48000D02*
D03*
X36000D02*
D03*
X24000D02*
D03*
X12000D02*
D03*
X0D02*
D03*
X-12000D02*
D03*
X-24000D02*
D03*
X60000Y405094D02*
D03*
Y417095D02*
D03*
Y429095D02*
D03*
Y441094D02*
D03*
Y453094D02*
D03*
Y465095D02*
D03*
Y477095D02*
D03*
Y489094D02*
D03*
Y501094D02*
D03*
Y513095D02*
D03*
Y525095D02*
D03*
Y537094D02*
D03*
Y549094D02*
D03*
X-60000Y525095D02*
D03*
Y537094D02*
D03*
Y549094D02*
D03*
Y561095D02*
D03*
Y465095D02*
D03*
Y477095D02*
D03*
Y489094D02*
D03*
Y501094D02*
D03*
Y513095D02*
D03*
Y405094D02*
D03*
Y417095D02*
D03*
Y429095D02*
D03*
Y441094D02*
D03*
Y453094D02*
D03*
X28000Y60094D02*
D03*
Y72095D02*
D03*
Y84095D02*
D03*
Y96095D02*
D03*
X-28000Y108095D02*
D03*
Y96095D02*
D03*
Y84095D02*
D03*
Y72095D02*
D03*
Y60094D02*
D03*
X-28100Y404994D02*
D03*
X-28200Y401194D02*
D03*
X25984Y348819D02*
D03*
X-19500Y176594D02*
D03*
X-10630Y375197D02*
D03*
X-16929Y138583D02*
D03*
X-24409Y149213D02*
D03*
X-14567Y135039D02*
D03*
X-27600Y173495D02*
D03*
X8100Y436095D02*
D03*
X-2100Y435094D02*
D03*
X-19100Y148495D02*
D03*
X3300Y124294D02*
D03*
X-8500Y174495D02*
D03*
X-31100Y391094D02*
D03*
X-32400Y369595D02*
D03*
X39000Y228994D02*
D03*
X300Y290394D02*
D03*
X8000Y313295D02*
D03*
X-37500Y223195D02*
D03*
X-800Y240094D02*
D03*
X-31534Y184857D02*
D03*
X-31734Y172547D02*
D03*
X-30100Y175195D02*
D03*
X-32400Y169494D02*
D03*
X-27000Y150894D02*
D03*
X-41700Y249294D02*
D03*
X-3700Y249400D02*
D03*
X-5709Y253260D02*
D03*
X-4331Y257985D02*
D03*
X-1083Y262414D02*
D03*
X-3051Y276293D02*
D03*
X-13583Y175197D02*
D03*
X-22000Y198895D02*
D03*
X-13976Y208071D02*
D03*
X-10100Y221500D02*
D03*
X-19193Y212894D02*
D03*
X-38091Y196358D02*
D03*
X26300Y206000D02*
D03*
X37600Y179400D02*
D03*
X15749Y190659D02*
D03*
X-8600Y184900D02*
D03*
X24134Y171900D02*
D03*
X11800Y178495D02*
D03*
X7400Y203900D02*
D03*
X5512Y194193D02*
D03*
X26500Y181100D02*
D03*
X15847Y187608D02*
D03*
X11713Y187697D02*
D03*
X7382Y183670D02*
D03*
X7500Y179495D02*
D03*
X-3740Y175492D02*
D03*
X-6103Y171957D02*
D03*
X3248Y181111D02*
D03*
X-4300Y193100D02*
D03*
X2067Y190551D02*
D03*
X5709Y186319D02*
D03*
X394Y185737D02*
D03*
X12796Y190462D02*
D03*
X11615Y193415D02*
D03*
X26300Y192200D02*
D03*
X-3740Y47954D02*
D03*
X3740Y48035D02*
D03*
X6100Y123200D02*
D03*
X-6900Y120900D02*
D03*
X30700Y257500D02*
D03*
X34100Y251700D02*
D03*
X-32500Y426400D02*
D03*
X-35277Y524923D02*
D03*
X-16623Y160324D02*
D03*
X-19685Y163386D02*
D03*
Y157261D02*
D03*
X-22747Y160324D02*
D03*
X-25810Y163386D02*
D03*
X-22747Y166448D02*
D03*
X-16623Y166448D02*
D03*
X-19685Y169510D02*
D03*
X-24013Y235732D02*
D03*
X-24013Y231401D02*
D03*
Y240062D02*
D03*
X-32675D02*
D03*
X-32675Y235732D02*
D03*
X-32675Y231401D02*
D03*
X-28344Y240062D02*
D03*
X-28344Y235732D02*
D03*
X-28344Y231401D02*
D03*
X-48622Y376772D02*
D03*
Y381102D02*
D03*
X-44291Y376772D02*
D03*
Y381102D02*
D03*
X-39961Y376772D02*
D03*
Y381102D02*
D03*
X-19200Y369100D02*
D03*
X-25900Y359800D02*
D03*
X-1300Y212600D02*
D03*
X8100Y222495D02*
D03*
X14800Y210500D02*
D03*
X12500Y205700D02*
D03*
X16600Y222900D02*
D03*
X14428Y251853D02*
D03*
X13200Y254800D02*
D03*
X17300Y216500D02*
D03*
X-52600Y295600D02*
D03*
X-50523Y298200D02*
D03*
D186*
X-17600Y320195D02*
D03*
X54300Y392400D02*
D03*
X52700Y329300D02*
D03*
X10827Y478346D02*
D03*
X-10827D02*
D03*
X0Y477362D02*
D03*
Y492126D02*
D03*
X10827Y491142D02*
D03*
X-10827D02*
D03*
X31900Y494100D02*
D03*
X24200Y588900D02*
D03*
X22100Y215794D02*
D03*
X26772Y317323D02*
D03*
X-55500Y389194D02*
D03*
X-36750Y361644D02*
D03*
X-5700Y114795D02*
D03*
X-17200Y381995D02*
D03*
X44000Y316195D02*
D03*
X42500Y260194D02*
D03*
X-6100Y483994D02*
D03*
X300Y483894D02*
D03*
X6600Y483794D02*
D03*
X0Y73694D02*
D03*
X14900Y49194D02*
D03*
X22000Y219994D02*
D03*
D187*
X-38400Y246094D02*
D03*
%TF.MD5,9d1728e329eae3a9db66297828ded99b*%
M02*
