G04 Layer_Color=0*
%FSLAX25Y25*%
%MOIN*%
%TF.FileFunction,Profile,NP*%
%TF.Part,Single*%
G01*
G75*
%TA.AperFunction,Profile*%
%ADD149C,0.00100*%
D149*
X-28506Y51419D02*
G02*
X-31992Y59475I8436J8431D01*
G01*
X-31992D01*
D02*
G02*
X-31998Y59552I496J77D01*
G01*
Y121210D01*
X-65452Y288483D01*
X-65452Y288484D01*
X-65452Y288483D01*
D02*
G02*
X-65462Y288583I491J100D01*
G01*
Y608268D01*
D02*
G02*
X-57087Y616643I8376J-0D01*
G01*
X57087D01*
D02*
G02*
X65462Y608268I0J-8376D01*
G01*
Y288189D01*
D02*
G02*
X65452Y288089I-501J0D01*
G01*
X65452Y288091D01*
X65452Y288089D01*
X31998Y120817D01*
Y59852D01*
X31998Y59851D01*
D02*
G03*
X31998Y59854I-501J0D01*
G01*
X31998Y59851D01*
D02*
G02*
X28506Y51419I-11927J0D01*
G01*
D02*
G02*
X28504Y51417I-8436J8431D01*
G01*
X28504Y51417D01*
D02*
G03*
X28506Y51419I-355J355D01*
G01*
X28504Y51417D01*
D02*
G03*
X24124Y40841I10576J-10576D01*
G01*
Y0D01*
D02*
G02*
X23622Y-501I-501J0D01*
G01*
X-23622D01*
D02*
G02*
X-24124Y0I0J501D01*
G01*
Y40841D01*
D02*
G03*
X-28504Y51417I-14956J0D01*
G01*
D02*
G02*
X-28506Y51419I355J355D01*
G01*
%TF.MD5,8cddcfb72060818c91f950eb41b3f5cf*%
M02*
