G04 Layer_Color=128*
%FSLAX25Y25*%
%MOIN*%
%TF.FileFunction,Drillmap*%
%TF.Part,Single*%
G01*
G75*
%TA.AperFunction,NonConductor*%
%ADD143C,0.00500*%
D143*
X-46881Y294500D02*
X-44519D01*
X-45700Y293319D02*
Y295681D01*
X-46881Y307886D02*
X-44519D01*
X-45700Y306705D02*
Y309067D01*
X-44668Y200694D02*
X-40731D01*
X-42700Y198726D02*
Y202663D01*
X45971Y222771D02*
X49317D01*
X47644Y221098D02*
Y224444D01*
X33604Y225175D02*
X36950D01*
X35277Y223502D02*
Y226848D01*
X35482Y234837D02*
X38828D01*
X37155Y233163D02*
Y236510D01*
X37360Y244498D02*
X40706D01*
X39033Y242825D02*
Y246172D01*
X49727Y242094D02*
X53073D01*
X51400Y240421D02*
Y243768D01*
X47849Y232433D02*
X51195D01*
X49522Y230760D02*
Y234106D01*
X29838Y206360D02*
X33184D01*
X31511Y204687D02*
Y208033D01*
X42205Y203956D02*
X45551D01*
X43878Y202283D02*
Y205629D01*
X40327Y194295D02*
X43673D01*
X42000Y192621D02*
Y195968D01*
X38449Y184633D02*
X41795D01*
X40122Y182960D02*
Y186306D01*
X26082Y187037D02*
X29428D01*
X27755Y185363D02*
Y188710D01*
X27960Y196698D02*
X31306D01*
X29633Y195025D02*
Y198372D01*
X-18675Y597457D02*
X-15525D01*
X-17100Y595882D02*
Y599031D01*
X-28675Y597457D02*
X-25525D01*
X-27100Y595882D02*
Y599031D01*
X5925Y597457D02*
X9075D01*
X7500Y595882D02*
Y599031D01*
X25925Y597457D02*
X29075D01*
X27500Y595882D02*
Y599031D01*
X15925Y597457D02*
X19075D01*
X17500Y595882D02*
Y599031D01*
X2138Y129728D02*
X3738D01*
X2938Y128928D02*
Y130528D01*
X-42669Y190894D02*
X-38732D01*
X-40700Y188926D02*
Y192863D01*
X-46595Y210523D02*
X-42658D01*
X-44627Y208555D02*
Y212492D01*
X6102Y513779D02*
X25394D01*
X15748Y504134D02*
Y523425D01*
X37598Y513779D02*
X56890D01*
X47244Y504134D02*
Y523425D01*
X37598Y545276D02*
X56890D01*
X47244Y535630D02*
Y554921D01*
X6102Y545276D02*
X25394D01*
X15748Y535630D02*
Y554921D01*
X-56890Y513779D02*
X-37598D01*
X-47244Y504134D02*
Y523425D01*
X-25394Y513779D02*
X-6102D01*
X-15748Y504134D02*
Y523425D01*
X-25394Y545276D02*
X-6102D01*
X-15748Y535630D02*
Y554921D01*
X-56890Y545276D02*
X-37598D01*
X-47244Y535630D02*
Y554921D01*
X-25394Y104331D02*
X-6102D01*
X-15748Y94685D02*
Y113976D01*
X6102Y104331D02*
X25394D01*
X15748Y94685D02*
Y113976D01*
X6102Y72638D02*
X25394D01*
X15748Y62992D02*
Y82284D01*
X-25394Y72638D02*
X-6102D01*
X-15748Y62992D02*
Y82284D01*
X-57087Y598425D02*
X-33465D01*
X-45276Y586614D02*
Y610236D01*
X33465Y598425D02*
X57087D01*
X45276Y586614D02*
Y610236D01*
X-50480Y230142D02*
X-46543D01*
X-48512Y228174D02*
Y232111D01*
X-52423Y239952D02*
X-48486D01*
X-50454Y237983D02*
Y241920D01*
X-54365Y249761D02*
X-50428D01*
X-52396Y247793D02*
Y251730D01*
X-56307Y259571D02*
X-52370D01*
X-54339Y257602D02*
Y261539D01*
X-58250Y269380D02*
X-54313D01*
X-56281Y267412D02*
Y271349D01*
X-60192Y279190D02*
X-56255D01*
X-58223Y277221D02*
Y281158D01*
X-48538Y220333D02*
X-44601D01*
X-46569Y218364D02*
Y222301D01*
X48010Y570000D02*
X61790D01*
X54900Y563110D02*
Y576890D01*
X8010Y570100D02*
X21790D01*
X14900Y563210D02*
Y576990D01*
X3321Y339199D02*
X7258D01*
X5289Y337230D02*
Y341167D01*
X-6667Y349778D02*
X-3911D01*
X-5289Y348400D02*
Y351155D01*
X13128Y584800D02*
X16672D01*
X14900Y583028D02*
Y586572D01*
X3128Y584800D02*
X6672D01*
X4900Y583028D02*
Y586572D01*
X-6872Y584800D02*
X-3328D01*
X-5100Y583028D02*
Y586572D01*
X-16872Y584800D02*
X-13328D01*
X-15100Y583028D02*
Y586572D01*
X24213Y431102D02*
X38780D01*
X31496Y423819D02*
Y438386D01*
X-38780Y213779D02*
X-24213D01*
X-31496Y206496D02*
Y221063D01*
X-34843Y464173D02*
X-28150D01*
X-31496Y460827D02*
Y467520D01*
X-12890Y360500D02*
X-11709D01*
X-12300Y359910D02*
Y361090D01*
X9809Y311300D02*
X10991D01*
X10400Y310710D02*
Y311891D01*
X30509Y345400D02*
X31691D01*
X31100Y344810D02*
Y345990D01*
X37609Y163100D02*
X38791D01*
X38200Y162509D02*
Y163691D01*
X37128Y189618D02*
X38309D01*
X37718Y189027D02*
Y190208D01*
X33709Y219500D02*
X34891D01*
X34300Y218910D02*
Y220091D01*
X26109Y217500D02*
X27291D01*
X26700Y216910D02*
Y218091D01*
X-33691Y153600D02*
X-32509D01*
X-33100Y153009D02*
Y154191D01*
X-19990Y324400D02*
X-18810D01*
X-19400Y323810D02*
Y324991D01*
X-19990Y332300D02*
X-18810D01*
X-19400Y331710D02*
Y332891D01*
X-36191Y470700D02*
X-35009D01*
X-35600Y470110D02*
Y471290D01*
X-47791Y477100D02*
X-46609D01*
X-47200Y476510D02*
Y477691D01*
X-47391Y461100D02*
X-46209D01*
X-46800Y460509D02*
Y461691D01*
X-47391Y424300D02*
X-46209D01*
X-46800Y423709D02*
Y424891D01*
X-43291Y414500D02*
X-42109D01*
X-42700Y413909D02*
Y415091D01*
X-40391Y330600D02*
X-39209D01*
X-39800Y330010D02*
Y331190D01*
X-53690Y309900D02*
X-52509D01*
X-53100Y309310D02*
Y310490D01*
X-54090Y322000D02*
X-52909D01*
X-53500Y321410D02*
Y322590D01*
X-45891Y323300D02*
X-44709D01*
X-45300Y322709D02*
Y323890D01*
X-62490Y328600D02*
X-61309D01*
X-61900Y328010D02*
Y329190D01*
X-62890Y348000D02*
X-61709D01*
X-62300Y347410D02*
Y348590D01*
X-54134Y357677D02*
X-52953D01*
X-53543Y357087D02*
Y358268D01*
X-32391Y356800D02*
X-31209D01*
X-31800Y356209D02*
Y357390D01*
X-2791Y361600D02*
X-1609D01*
X-2200Y361010D02*
Y362191D01*
X-4091Y340700D02*
X-2909D01*
X-3500Y340109D02*
Y341290D01*
X1110Y327000D02*
X2290D01*
X1700Y326410D02*
Y327590D01*
X-4091Y322000D02*
X-2909D01*
X-3500Y321410D02*
Y322590D01*
X23910Y331800D02*
X25091D01*
X24500Y331209D02*
Y332390D01*
X4909Y345600D02*
X6091D01*
X5500Y345009D02*
Y346191D01*
X14909Y341400D02*
X16091D01*
X15500Y340809D02*
Y341990D01*
X41409Y343800D02*
X42591D01*
X42000Y343210D02*
Y344391D01*
X43309Y368500D02*
X44491D01*
X43900Y367910D02*
Y369091D01*
X25909Y371600D02*
X27091D01*
X26500Y371009D02*
Y372190D01*
X40609Y385000D02*
X41791D01*
X41200Y384409D02*
Y385591D01*
X27009Y354400D02*
X28191D01*
X27600Y353809D02*
Y354991D01*
X18110Y381300D02*
X19290D01*
X18700Y380710D02*
Y381891D01*
X9209Y366800D02*
X10391D01*
X9800Y366210D02*
Y367390D01*
X-1190Y372100D02*
X-10D01*
X-600Y371510D02*
Y372691D01*
X-46091Y401800D02*
X-44909D01*
X-45500Y401209D02*
Y402390D01*
X-21490Y406200D02*
X-20310D01*
X-20900Y405610D02*
Y406790D01*
X-9491Y405600D02*
X-8309D01*
X-8900Y405010D02*
Y406190D01*
X5309Y400500D02*
X6491D01*
X5900Y399909D02*
Y401090D01*
X13409Y411900D02*
X14591D01*
X14000Y411309D02*
Y412491D01*
X3709Y416200D02*
X4891D01*
X4300Y415610D02*
Y416790D01*
X29009Y416100D02*
X30191D01*
X29600Y415510D02*
Y416690D01*
X26009Y404400D02*
X27191D01*
X26600Y403809D02*
Y404990D01*
X34609Y443400D02*
X35791D01*
X35200Y442809D02*
Y443991D01*
X-11591Y433800D02*
X-10409D01*
X-11000Y433210D02*
Y434390D01*
X-5291Y426200D02*
X-4109D01*
X-4700Y425609D02*
Y426791D01*
X-12591Y420100D02*
X-11409D01*
X-12000Y419510D02*
Y420690D01*
X-24490Y422100D02*
X-23310D01*
X-23900Y421510D02*
Y422690D01*
X-42091Y424900D02*
X-40909D01*
X-41500Y424309D02*
Y425491D01*
X-39091Y458800D02*
X-37909D01*
X-38500Y458210D02*
Y459390D01*
X-16590Y457700D02*
X-15409D01*
X-16000Y457109D02*
Y458290D01*
X38509Y502100D02*
X39691D01*
X39100Y501510D02*
Y502691D01*
X37609Y488500D02*
X38791D01*
X38200Y487910D02*
Y489090D01*
X21309Y475800D02*
X22490D01*
X21900Y475210D02*
Y476391D01*
X-8991Y468800D02*
X-7809D01*
X-8400Y468210D02*
Y469390D01*
X23709Y497200D02*
X24891D01*
X24300Y496609D02*
Y497790D01*
X-991Y498400D02*
X190D01*
X-400Y497810D02*
Y498990D01*
X-19191Y487000D02*
X-18010D01*
X-18600Y486410D02*
Y487591D01*
X-40391Y497300D02*
X-39209D01*
X-39800Y496709D02*
Y497891D01*
X-24590Y501600D02*
X-23410D01*
X-24000Y501010D02*
Y502190D01*
X-43091Y528100D02*
X-41909D01*
X-42500Y527509D02*
Y528690D01*
X-23090Y527700D02*
X-21910D01*
X-22500Y527109D02*
Y528291D01*
X21110Y528000D02*
X22290D01*
X21700Y527410D02*
Y528590D01*
X36709Y530700D02*
X37891D01*
X37300Y530110D02*
Y531290D01*
X25310Y555200D02*
X26491D01*
X25900Y554609D02*
Y555791D01*
X24710Y569800D02*
X25891D01*
X25300Y569209D02*
Y570391D01*
X-12291Y601400D02*
X-11109D01*
X-11700Y600809D02*
Y601991D01*
X-11891Y594100D02*
X-10709D01*
X-11300Y593509D02*
Y594691D01*
X709Y593400D02*
X1891D01*
X1300Y592809D02*
Y593991D01*
X-35291Y569500D02*
X-34109D01*
X-34700Y568910D02*
Y570090D01*
X-7991Y555600D02*
X-6809D01*
X-7400Y555010D02*
Y556190D01*
X-18291Y568500D02*
X-17109D01*
X-17700Y567909D02*
Y569091D01*
X-3591Y576300D02*
X-2410D01*
X-3000Y575709D02*
Y576891D01*
X-32791Y416700D02*
X-31609D01*
X-32200Y416110D02*
Y417290D01*
X42709Y218900D02*
X43891D01*
X43300Y218309D02*
Y219491D01*
X41609Y212500D02*
X42791D01*
X42200Y211910D02*
Y213090D01*
X39509Y200600D02*
X40691D01*
X40100Y200009D02*
Y201191D01*
X29509Y246600D02*
X30691D01*
X30100Y246009D02*
Y247190D01*
X16809Y239400D02*
X17990D01*
X17400Y238809D02*
Y239990D01*
X21309Y238900D02*
X22490D01*
X21900Y238310D02*
Y239491D01*
X29209Y240800D02*
X30391D01*
X29800Y240210D02*
Y241390D01*
X45509Y247100D02*
X46691D01*
X46100Y246510D02*
Y247691D01*
X57709Y266600D02*
X58890D01*
X58300Y266009D02*
Y267191D01*
X50109Y257900D02*
X51291D01*
X50700Y257310D02*
Y258490D01*
X50109Y266600D02*
X51291D01*
X50700Y266009D02*
Y267191D01*
X38909Y266500D02*
X40091D01*
X39500Y265910D02*
Y267091D01*
X29509Y263100D02*
X30691D01*
X30100Y262509D02*
Y263690D01*
X25310Y266400D02*
X26491D01*
X25900Y265809D02*
Y266990D01*
X18010Y266600D02*
X19191D01*
X18600Y266009D02*
Y267191D01*
X12910Y267500D02*
X14090D01*
X13500Y266910D02*
Y268091D01*
X-2490Y271700D02*
X-1309D01*
X-1900Y271110D02*
Y272290D01*
X1510Y285300D02*
X2691D01*
X2100Y284710D02*
Y285891D01*
X-15590Y308000D02*
X-14410D01*
X-15000Y307410D02*
Y308591D01*
X-16590Y275000D02*
X-15409D01*
X-16000Y274410D02*
Y275590D01*
X-18590Y292900D02*
X-17410D01*
X-18000Y292309D02*
Y293491D01*
X-10891Y287100D02*
X-9709D01*
X-10300Y286509D02*
Y287690D01*
X-14890Y287700D02*
X-13710D01*
X-14300Y287109D02*
Y288291D01*
X-44191Y273500D02*
X-43009D01*
X-43600Y272909D02*
Y274091D01*
X-27091Y273600D02*
X-25909D01*
X-26500Y273009D02*
Y274190D01*
X-16590Y256500D02*
X-15409D01*
X-16000Y255909D02*
Y257090D01*
X-15790Y246900D02*
X-14609D01*
X-15200Y246309D02*
Y247491D01*
X-37491Y226500D02*
X-36309D01*
X-36900Y225909D02*
Y227091D01*
X-42191Y184200D02*
X-41009D01*
X-41600Y183609D02*
Y184791D01*
X-22591Y194300D02*
X-21409D01*
X-22000Y193709D02*
Y194891D01*
X-16590Y197300D02*
X-15409D01*
X-16000Y196709D02*
Y197891D01*
X-5291Y185900D02*
X-4109D01*
X-4700Y185309D02*
Y186491D01*
X-12091Y186700D02*
X-10909D01*
X-11500Y186109D02*
Y187291D01*
X-32385Y156853D02*
X-31204D01*
X-31795Y156262D02*
Y157443D01*
X-33021Y163586D02*
X-31840D01*
X-32430Y162995D02*
Y164176D01*
X-35291Y171695D02*
X-34109D01*
X-34700Y171104D02*
Y172285D01*
X35809Y155800D02*
X36991D01*
X36400Y155209D02*
Y156391D01*
X30709Y156800D02*
X31891D01*
X31300Y156209D02*
Y157391D01*
X9809Y119100D02*
X10991D01*
X10400Y118509D02*
Y119691D01*
X7709Y121300D02*
X8891D01*
X8300Y120709D02*
Y121891D01*
X109Y144700D02*
X1290D01*
X700Y144109D02*
Y145291D01*
X-390Y141400D02*
X790D01*
X200Y140809D02*
Y141991D01*
X-1091Y138000D02*
X91D01*
X-500Y137409D02*
Y138591D01*
X-1691Y134700D02*
X-509D01*
X-1100Y134109D02*
Y135291D01*
X-2390Y131300D02*
X-1209D01*
X-1800Y130709D02*
Y131891D01*
X-2090Y127900D02*
X-910D01*
X-1500Y127309D02*
Y128491D01*
X-190Y125400D02*
X991D01*
X400Y124809D02*
Y125991D01*
X-11191Y312500D02*
X-10009D01*
X-10600Y311910D02*
Y313090D01*
X-1190Y308900D02*
X-10D01*
X-600Y308310D02*
Y309490D01*
X8109Y289300D02*
X9291D01*
X8700Y288709D02*
Y289891D01*
X-49091Y262000D02*
X-47909D01*
X-48500Y261409D02*
Y262591D01*
X-43191Y265000D02*
X-42009D01*
X-42600Y264409D02*
Y265591D01*
X-17090Y269300D02*
X-15910D01*
X-16500Y268709D02*
Y269890D01*
X-11091Y263900D02*
X-9909D01*
X-10500Y263310D02*
Y264491D01*
X33909Y216200D02*
X35091D01*
X34500Y215610D02*
Y216791D01*
X28309Y210700D02*
X29491D01*
X28900Y210109D02*
Y211291D01*
X21210Y228900D02*
X22390D01*
X21800Y228309D02*
Y229490D01*
X25210Y223400D02*
X26391D01*
X25800Y222810D02*
Y223991D01*
X-3091Y232100D02*
X-1909D01*
X-2500Y231509D02*
Y232691D01*
X-1481Y234780D02*
X-300D01*
X-891Y234189D02*
Y235370D01*
X809Y232894D02*
X1991D01*
X1400Y232304D02*
Y233485D01*
X-891Y221800D02*
X291D01*
X-300Y221210D02*
Y222391D01*
X-15590Y295700D02*
X-14410D01*
X-15000Y295110D02*
Y296290D01*
X-42891Y301000D02*
X-41709D01*
X-42300Y300410D02*
Y301590D01*
X-49791Y271300D02*
X-48609D01*
X-49200Y270709D02*
Y271890D01*
X17709Y228800D02*
X18891D01*
X18300Y228209D02*
Y229391D01*
X25609Y168500D02*
X26791D01*
X26200Y167909D02*
Y169091D01*
X-41691Y268300D02*
X-40509D01*
X-41100Y267709D02*
Y268891D01*
X-31489Y344777D02*
X-30308D01*
X-30899Y344186D02*
Y345368D01*
X-28691Y343400D02*
X-27509D01*
X-28100Y342810D02*
Y343990D01*
X-27891Y348694D02*
X-26709D01*
X-27300Y348104D02*
Y349285D01*
X-38691Y480600D02*
X-37509D01*
X-38100Y480010D02*
Y481190D01*
X4109Y554300D02*
X5291D01*
X4700Y553710D02*
Y554890D01*
X-56590Y326400D02*
X-55409D01*
X-56000Y325810D02*
Y326991D01*
X-46691Y253300D02*
X-45509D01*
X-46100Y252710D02*
Y253890D01*
X-19191Y266400D02*
X-18010D01*
X-18600Y265809D02*
Y266990D01*
X-16691Y262700D02*
X-15509D01*
X-16100Y262109D02*
Y263291D01*
X-32091Y267200D02*
X-30909D01*
X-31500Y266610D02*
Y267791D01*
X-31791Y261600D02*
X-30609D01*
X-31200Y261010D02*
Y262191D01*
X-34291Y265100D02*
X-33109D01*
X-33700Y264510D02*
Y265690D01*
X-23391Y221495D02*
X-22209D01*
X-22800Y220904D02*
Y222085D01*
X-11891Y233500D02*
X-10709D01*
X-11300Y232909D02*
Y234090D01*
X-9591Y235500D02*
X-8409D01*
X-9000Y234910D02*
Y236090D01*
X-7791Y222900D02*
X-6609D01*
X-7200Y222309D02*
Y223491D01*
X-6091Y225400D02*
X-4909D01*
X-5500Y224810D02*
Y225991D01*
X-6491Y219795D02*
X-5309D01*
X-5900Y219204D02*
Y220385D01*
X17109Y165800D02*
X18291D01*
X17700Y165209D02*
Y166391D01*
X20210Y168700D02*
X21391D01*
X20800Y168109D02*
Y169291D01*
X14410Y168994D02*
X15590D01*
X15000Y168404D02*
Y169585D01*
X10509Y259600D02*
X11691D01*
X11100Y259010D02*
Y260191D01*
X-4491Y261000D02*
X-3309D01*
X-3900Y260409D02*
Y261591D01*
X14209Y248900D02*
X15391D01*
X14800Y248309D02*
Y249490D01*
X10509Y251900D02*
X11691D01*
X11100Y251309D02*
Y252490D01*
X11409Y243400D02*
X12591D01*
X12000Y242810D02*
Y243990D01*
X14510Y243500D02*
X15690D01*
X15100Y242910D02*
Y244091D01*
X7009Y248694D02*
X8191D01*
X7600Y248104D02*
Y249285D01*
X-51990Y571600D02*
X-50809D01*
X-51400Y571009D02*
Y572191D01*
X-48791Y573300D02*
X-47609D01*
X-48200Y572710D02*
Y573890D01*
X31309Y232295D02*
X32491D01*
X31900Y231704D02*
Y232885D01*
X-3691Y420000D02*
X-2510D01*
X-3100Y419410D02*
Y420590D01*
X-20190Y285600D02*
X-19010D01*
X-19600Y285010D02*
Y286191D01*
X-23391Y285600D02*
X-22209D01*
X-22800Y285010D02*
Y286191D01*
X-26591Y345800D02*
X-25409D01*
X-26000Y345210D02*
Y346391D01*
X-18584Y320195D02*
X-16616D01*
X-17600Y319211D02*
Y321180D01*
X53316Y392400D02*
X55284D01*
X54300Y391416D02*
Y393384D01*
X48009Y391900D02*
X49191D01*
X48600Y391309D02*
Y392491D01*
X51716Y329300D02*
X53684D01*
X52700Y328316D02*
Y330284D01*
X12509Y312800D02*
X13690D01*
X13100Y312210D02*
Y313390D01*
X7509Y424400D02*
X8691D01*
X8100Y423809D02*
Y424991D01*
X12409Y400700D02*
X13590D01*
X13000Y400109D02*
Y401291D01*
X-8191Y421300D02*
X-7009D01*
X-7600Y420710D02*
Y421890D01*
X36609Y401200D02*
X37791D01*
X37200Y400609D02*
Y401791D01*
X29809Y449500D02*
X30991D01*
X30400Y448910D02*
Y450091D01*
X-60491Y580400D02*
X-59310D01*
X-59900Y579810D02*
Y580991D01*
X-5691Y593200D02*
X-4509D01*
X-5100Y592610D02*
Y593790D01*
X9843Y478346D02*
X11811D01*
X10827Y477362D02*
Y479331D01*
X-11811Y478346D02*
X-9843D01*
X-10827Y477362D02*
Y479331D01*
X-984Y477362D02*
X984D01*
X0Y476378D02*
Y478346D01*
X-984Y492126D02*
X984D01*
X0Y491142D02*
Y493110D01*
X9843Y491142D02*
X11811D01*
X10827Y490158D02*
Y492126D01*
X-11811Y491142D02*
X-9843D01*
X-10827Y490158D02*
Y492126D01*
X30916Y494100D02*
X32884D01*
X31900Y493116D02*
Y495084D01*
X23216Y588900D02*
X25184D01*
X24200Y587916D02*
Y589884D01*
X-591Y47894D02*
X591D01*
X0Y47304D02*
Y48485D01*
X21116Y215794D02*
X23084D01*
X22100Y214810D02*
Y216779D01*
X-19891Y189495D02*
X-18710D01*
X-19300Y188904D02*
Y190085D01*
X-59591Y369394D02*
X-58410D01*
X-59000Y368804D02*
Y369985D01*
X13510Y428094D02*
X14691D01*
X14100Y427504D02*
Y428685D01*
X3409Y432594D02*
X4591D01*
X4000Y432004D02*
Y433185D01*
X-23190Y433994D02*
X-22009D01*
X-22600Y433404D02*
Y434585D01*
X16409Y467195D02*
X17591D01*
X17000Y466604D02*
Y467785D01*
X36709Y461195D02*
X37891D01*
X37300Y460604D02*
Y461785D01*
X43109Y401694D02*
X44291D01*
X43700Y401104D02*
Y402285D01*
X-18590Y131994D02*
X-17410D01*
X-18000Y131404D02*
Y132585D01*
X-13091Y346394D02*
X-11909D01*
X-12500Y345804D02*
Y346985D01*
X-15491Y116894D02*
X-14310D01*
X-14900Y116304D02*
Y117485D01*
X-4891Y98694D02*
X-3709D01*
X-4300Y98104D02*
Y99285D01*
X3709Y98694D02*
X4891D01*
X4300Y98104D02*
Y99285D01*
X11209Y116400D02*
X12391D01*
X11800Y115809D02*
Y116991D01*
X-19891Y140795D02*
X-18710D01*
X-19300Y140204D02*
Y141385D01*
X59409Y585094D02*
X60590D01*
X60000Y584504D02*
Y585685D01*
X-36591Y614094D02*
X-35409D01*
X-36000Y613504D02*
Y614685D01*
X-48591Y614094D02*
X-47409D01*
X-48000Y613504D02*
Y614685D01*
X47409Y614094D02*
X48591D01*
X48000Y613504D02*
Y614685D01*
X35409Y614094D02*
X36591D01*
X36000Y613504D02*
Y614685D01*
X23410Y614094D02*
X24590D01*
X24000Y613504D02*
Y614685D01*
X11409Y614094D02*
X12591D01*
X12000Y613504D02*
Y614685D01*
X-591Y614094D02*
X591D01*
X0Y613504D02*
Y614685D01*
X-12591Y614094D02*
X-11409D01*
X-12000Y613504D02*
Y614685D01*
X-24590Y614094D02*
X-23410D01*
X-24000Y613504D02*
Y614685D01*
X59409Y405094D02*
X60590D01*
X60000Y404504D02*
Y405685D01*
X59409Y417095D02*
X60590D01*
X60000Y416504D02*
Y417685D01*
X59409Y429095D02*
X60590D01*
X60000Y428504D02*
Y429685D01*
X59409Y441094D02*
X60590D01*
X60000Y440504D02*
Y441685D01*
X59409Y453094D02*
X60590D01*
X60000Y452504D02*
Y453685D01*
X59409Y465095D02*
X60590D01*
X60000Y464504D02*
Y465685D01*
X59409Y477095D02*
X60590D01*
X60000Y476504D02*
Y477685D01*
X59409Y489094D02*
X60590D01*
X60000Y488504D02*
Y489685D01*
X59409Y501094D02*
X60590D01*
X60000Y500504D02*
Y501685D01*
X59409Y513095D02*
X60590D01*
X60000Y512504D02*
Y513685D01*
X59409Y525095D02*
X60590D01*
X60000Y524504D02*
Y525685D01*
X59409Y537094D02*
X60590D01*
X60000Y536504D02*
Y537685D01*
X59409Y549094D02*
X60590D01*
X60000Y548504D02*
Y549685D01*
X-60590Y525095D02*
X-59409D01*
X-60000Y524504D02*
Y525685D01*
X-60590Y537094D02*
X-59409D01*
X-60000Y536504D02*
Y537685D01*
X-60590Y549094D02*
X-59409D01*
X-60000Y548504D02*
Y549685D01*
X-60590Y561095D02*
X-59409D01*
X-60000Y560504D02*
Y561685D01*
X-60590Y465095D02*
X-59409D01*
X-60000Y464504D02*
Y465685D01*
X-60590Y477095D02*
X-59409D01*
X-60000Y476504D02*
Y477685D01*
X-60590Y489094D02*
X-59409D01*
X-60000Y488504D02*
Y489685D01*
X-60590Y501094D02*
X-59409D01*
X-60000Y500504D02*
Y501685D01*
X-60590Y513095D02*
X-59409D01*
X-60000Y512504D02*
Y513685D01*
X-60590Y405094D02*
X-59409D01*
X-60000Y404504D02*
Y405685D01*
X-60590Y417095D02*
X-59409D01*
X-60000Y416504D02*
Y417685D01*
X-60590Y429095D02*
X-59409D01*
X-60000Y428504D02*
Y429685D01*
X-60590Y441094D02*
X-59409D01*
X-60000Y440504D02*
Y441685D01*
X-60590Y453094D02*
X-59409D01*
X-60000Y452504D02*
Y453685D01*
X27409Y60094D02*
X28591D01*
X28000Y59504D02*
Y60685D01*
X27409Y72095D02*
X28591D01*
X28000Y71504D02*
Y72685D01*
X27409Y84095D02*
X28591D01*
X28000Y83504D02*
Y84685D01*
X27409Y96095D02*
X28591D01*
X28000Y95504D02*
Y96685D01*
X-28591Y108095D02*
X-27409D01*
X-28000Y107504D02*
Y108685D01*
X-28591Y96095D02*
X-27409D01*
X-28000Y95504D02*
Y96685D01*
X-28591Y84095D02*
X-27409D01*
X-28000Y83504D02*
Y84685D01*
X-28591Y72095D02*
X-27409D01*
X-28000Y71504D02*
Y72685D01*
X-28591Y60094D02*
X-27409D01*
X-28000Y59504D02*
Y60685D01*
X-28691Y404994D02*
X-27509D01*
X-28100Y404404D02*
Y405585D01*
X-28791Y401194D02*
X-27609D01*
X-28200Y400604D02*
Y401785D01*
X25394Y348819D02*
X26575D01*
X25984Y348228D02*
Y349410D01*
X-20090Y176594D02*
X-18910D01*
X-19500Y176004D02*
Y177185D01*
X25787Y317323D02*
X27756D01*
X26772Y316339D02*
Y318307D01*
X-11220Y375197D02*
X-10039D01*
X-10630Y374606D02*
Y375787D01*
X-17520Y138583D02*
X-16339D01*
X-16929Y137992D02*
Y139173D01*
X-25000Y149213D02*
X-23819D01*
X-24409Y148622D02*
Y149803D01*
X-15157Y135039D02*
X-13976D01*
X-14567Y134449D02*
Y135630D01*
X-28191Y173495D02*
X-27009D01*
X-27600Y172904D02*
Y174085D01*
X7509Y436095D02*
X8691D01*
X8100Y435504D02*
Y436685D01*
X-2691Y435094D02*
X-1510D01*
X-2100Y434504D02*
Y435685D01*
X-56484Y389194D02*
X-54516D01*
X-55500Y388210D02*
Y390179D01*
X-37734Y361644D02*
X-35765D01*
X-36750Y360660D02*
Y362628D01*
X-6684Y114795D02*
X-4716D01*
X-5700Y113810D02*
Y115779D01*
X-19691Y148495D02*
X-18509D01*
X-19100Y147904D02*
Y149085D01*
X-18184Y381995D02*
X-16216D01*
X-17200Y381010D02*
Y382979D01*
X43016Y316195D02*
X44984D01*
X44000Y315210D02*
Y317179D01*
X41516Y260194D02*
X43484D01*
X42500Y259210D02*
Y261179D01*
X-7084Y483994D02*
X-5116D01*
X-6100Y483010D02*
Y484979D01*
X-684Y483894D02*
X1284D01*
X300Y482910D02*
Y484879D01*
X5616Y483794D02*
X7584D01*
X6600Y482810D02*
Y484779D01*
X-984Y73694D02*
X984D01*
X0Y72710D02*
Y74679D01*
X13916Y49194D02*
X15884D01*
X14900Y48210D02*
Y50179D01*
X2709Y124294D02*
X3891D01*
X3300Y123704D02*
Y124885D01*
X-9091Y174495D02*
X-7909D01*
X-8500Y173904D02*
Y175085D01*
X-31691Y391094D02*
X-30509D01*
X-31100Y390504D02*
Y391685D01*
X-32991Y369595D02*
X-31809D01*
X-32400Y369004D02*
Y370185D01*
X38409Y228994D02*
X39591D01*
X39000Y228404D02*
Y229585D01*
X-291Y290394D02*
X891D01*
X300Y289804D02*
Y290985D01*
X7409Y313295D02*
X8591D01*
X8000Y312704D02*
Y313885D01*
X-39187Y246094D02*
X-37613D01*
X-38400Y245307D02*
Y246882D01*
X21016Y219994D02*
X22984D01*
X22000Y219010D02*
Y220979D01*
X-38091Y223195D02*
X-36909D01*
X-37500Y222604D02*
Y223785D01*
X-1390Y240094D02*
X-209D01*
X-800Y239504D02*
Y240685D01*
X-32124Y184857D02*
X-30943D01*
X-31534Y184266D02*
Y185447D01*
X-32324Y172547D02*
X-31143D01*
X-31734Y171957D02*
Y173138D01*
X-30691Y175195D02*
X-29509D01*
X-30100Y174604D02*
Y175785D01*
X-32991Y169494D02*
X-31809D01*
X-32400Y168904D02*
Y170085D01*
X-27591Y150894D02*
X-26409D01*
X-27000Y150304D02*
Y151485D01*
X-42291Y249294D02*
X-41109D01*
X-41700Y248704D02*
Y249885D01*
X-4291Y249400D02*
X-3109D01*
X-3700Y248810D02*
Y249991D01*
X-6300Y253260D02*
X-5118D01*
X-5709Y252670D02*
Y253851D01*
X-4922Y257985D02*
X-3740D01*
X-4331Y257395D02*
Y258576D01*
X-1673Y262414D02*
X-492D01*
X-1083Y261824D02*
Y263005D01*
X-3642Y276293D02*
X-2461D01*
X-3051Y275703D02*
Y276884D01*
X-14173Y175197D02*
X-12992D01*
X-13583Y174606D02*
Y175787D01*
X-22591Y198895D02*
X-21409D01*
X-22000Y198304D02*
Y199485D01*
X-14567Y208071D02*
X-13386D01*
X-13976Y207480D02*
Y208661D01*
X-10691Y221500D02*
X-9509D01*
X-10100Y220910D02*
Y222091D01*
X-19783Y212894D02*
X-18602D01*
X-19193Y212303D02*
Y213484D01*
X-38681Y196358D02*
X-37500D01*
X-38091Y195768D02*
Y196949D01*
X25709Y206000D02*
X26891D01*
X26300Y205410D02*
Y206591D01*
X37009Y179400D02*
X38191D01*
X37600Y178809D02*
Y179991D01*
X15158Y190659D02*
X16339D01*
X15749Y190068D02*
Y191250D01*
X-9191Y184900D02*
X-8009D01*
X-8600Y184309D02*
Y185491D01*
X23543Y171900D02*
X24724D01*
X24134Y171309D02*
Y172491D01*
X11209Y178495D02*
X12391D01*
X11800Y177904D02*
Y179085D01*
X6809Y203900D02*
X7991D01*
X7400Y203309D02*
Y204491D01*
X4921Y194193D02*
X6102D01*
X5512Y193602D02*
Y194783D01*
X25909Y181100D02*
X27091D01*
X26500Y180509D02*
Y181691D01*
X15257Y187608D02*
X16438D01*
X15847Y187017D02*
Y188198D01*
X11122Y187697D02*
X12303D01*
X11713Y187106D02*
Y188287D01*
X6792Y183670D02*
X7973D01*
X7382Y183080D02*
Y184261D01*
X6909Y179495D02*
X8091D01*
X7500Y178904D02*
Y180085D01*
X-4331Y175492D02*
X-3150D01*
X-3740Y174902D02*
Y176083D01*
X-6693Y171957D02*
X-5512D01*
X-6103Y171367D02*
Y172548D01*
X2658Y181111D02*
X3839D01*
X3248Y180521D02*
Y181702D01*
X-4891Y193100D02*
X-3709D01*
X-4300Y192509D02*
Y193691D01*
X1476Y190551D02*
X2657D01*
X2067Y189961D02*
Y191142D01*
X5118Y186319D02*
X6299D01*
X5709Y185728D02*
Y186909D01*
X-197Y185737D02*
X984D01*
X394Y185147D02*
Y186328D01*
X12205Y190462D02*
X13386D01*
X12796Y189872D02*
Y191053D01*
X11024Y193415D02*
X12205D01*
X11615Y192824D02*
Y194006D01*
X25709Y192200D02*
X26891D01*
X26300Y191609D02*
Y192791D01*
X-4331Y47954D02*
X-3150D01*
X-3740Y47364D02*
Y48545D01*
X3150Y48035D02*
X4331D01*
X3740Y47444D02*
Y48625D01*
X5509Y123200D02*
X6691D01*
X6100Y122609D02*
Y123791D01*
X-7491Y120900D02*
X-6309D01*
X-6900Y120309D02*
Y121491D01*
X30109Y257500D02*
X31291D01*
X30700Y256909D02*
Y258090D01*
X33509Y251700D02*
X34691D01*
X34100Y251110D02*
Y252291D01*
X-33091Y426400D02*
X-31909D01*
X-32500Y425809D02*
Y426991D01*
X-35868Y524923D02*
X-34687D01*
X-35277Y524332D02*
Y525513D01*
X-17213Y160324D02*
X-16032D01*
X-16623Y159733D02*
Y160914D01*
X-20276Y163386D02*
X-19094D01*
X-19685Y162795D02*
Y163976D01*
X-20276Y157261D02*
X-19094D01*
X-19685Y156671D02*
Y157852D01*
X-23338Y160324D02*
X-22157D01*
X-22747Y159733D02*
Y160914D01*
X-26400Y163386D02*
X-25219D01*
X-25810Y162795D02*
Y163976D01*
X-23338Y166448D02*
X-22157D01*
X-22747Y165858D02*
Y167039D01*
X-17213Y166448D02*
X-16032D01*
X-16623Y165858D02*
Y167039D01*
X-20276Y169510D02*
X-19094D01*
X-19685Y168920D02*
Y170101D01*
X-24604Y235732D02*
X-23423D01*
X-24013Y235141D02*
Y236322D01*
X-24604Y231401D02*
X-23423D01*
X-24013Y230810D02*
Y231991D01*
X-24604Y240062D02*
X-23423D01*
X-24013Y239472D02*
Y240653D01*
X-33265Y240062D02*
X-32084D01*
X-32675Y239472D02*
Y240653D01*
X-33265Y235732D02*
X-32084D01*
X-32675Y235141D02*
Y236322D01*
X-33265Y231401D02*
X-32084D01*
X-32675Y230810D02*
Y231991D01*
X-28935Y240062D02*
X-27754D01*
X-28344Y239472D02*
Y240653D01*
X-28935Y235732D02*
X-27753D01*
X-28344Y235141D02*
Y236322D01*
X-28935Y231401D02*
X-27754D01*
X-28344Y230810D02*
Y231991D01*
X-49213Y376772D02*
X-48031D01*
X-48622Y376181D02*
Y377362D01*
X-49213Y381102D02*
X-48031D01*
X-48622Y380512D02*
Y381693D01*
X-44882Y376772D02*
X-43701D01*
X-44291Y376181D02*
Y377362D01*
X-44882Y381102D02*
X-43701D01*
X-44291Y380512D02*
Y381693D01*
X-40551Y376772D02*
X-39370D01*
X-39961Y376181D02*
Y377362D01*
X-40551Y381102D02*
X-39370D01*
X-39961Y380512D02*
Y381693D01*
X-19791Y369100D02*
X-18609D01*
X-19200Y368510D02*
Y369690D01*
X-26491Y359800D02*
X-25310D01*
X-25900Y359209D02*
Y360390D01*
X-1891Y212600D02*
X-709D01*
X-1300Y212010D02*
Y213191D01*
X7509Y222495D02*
X8691D01*
X8100Y221904D02*
Y223085D01*
X14209Y210500D02*
X15391D01*
X14800Y209910D02*
Y211090D01*
X11909Y205700D02*
X13091D01*
X12500Y205110D02*
Y206291D01*
X16010Y222900D02*
X17190D01*
X16600Y222309D02*
Y223491D01*
X13838Y251853D02*
X15019D01*
X14428Y251262D02*
Y252443D01*
X12609Y254800D02*
X13791D01*
X13200Y254209D02*
Y255391D01*
X16710Y216500D02*
X17890D01*
X17300Y215910D02*
Y217091D01*
X-53190Y295600D02*
X-52009D01*
X-52600Y295009D02*
Y296191D01*
X-51113Y298200D02*
X-49932D01*
X-50523Y297609D02*
Y298791D01*
%TF.MD5,4f838f931c3325f5fe2032ed26b56a26*%
M02*
