G04 Layer_Color=32896*
%FSLAX25Y25*%
%MOIN*%
%TF.FileFunction,Legend,Bot*%
%TF.Part,Single*%
G01*
G75*
%TA.AperFunction,NonConductor*%
%ADD137C,0.00984*%
%ADD138C,0.00787*%
%ADD139C,0.01000*%
G36*
X14364Y141270D02*
X14529Y141246D01*
X14679Y141212D01*
X14820Y141164D01*
X14946Y141105D01*
X15067Y141042D01*
X15174Y140974D01*
X15271Y140906D01*
X15358Y140834D01*
X15431Y140766D01*
X15494Y140703D01*
X15547Y140645D01*
X15586Y140596D01*
X15615Y140562D01*
X15634Y140538D01*
X15639Y140528D01*
Y141178D01*
X16338D01*
Y136614D01*
X15562D01*
Y139102D01*
X15557Y139262D01*
X15547Y139408D01*
X15528Y139539D01*
X15508Y139660D01*
X15479Y139767D01*
X15450Y139864D01*
X15416Y139951D01*
X15382Y140029D01*
X15353Y140092D01*
X15319Y140150D01*
X15290Y140193D01*
X15261Y140232D01*
X15242Y140261D01*
X15222Y140281D01*
X15212Y140290D01*
X15208Y140295D01*
X15140Y140349D01*
X15067Y140397D01*
X14994Y140441D01*
X14921Y140480D01*
X14853Y140509D01*
X14781Y140533D01*
X14650Y140572D01*
X14587Y140586D01*
X14533Y140596D01*
X14485Y140601D01*
X14441Y140606D01*
X14407Y140611D01*
X14359D01*
X14247Y140606D01*
X14145Y140591D01*
X14053Y140567D01*
X13971Y140543D01*
X13908Y140514D01*
X13859Y140494D01*
X13845Y140484D01*
X13830Y140475D01*
X13825Y140470D01*
X13820D01*
X13743Y140412D01*
X13675Y140354D01*
X13617Y140290D01*
X13573Y140227D01*
X13539Y140174D01*
X13520Y140130D01*
X13505Y140101D01*
X13500Y140096D01*
Y140092D01*
X13486Y140043D01*
X13471Y139995D01*
X13447Y139883D01*
X13432Y139767D01*
X13418Y139655D01*
X13413Y139548D01*
Y139505D01*
X13408Y139466D01*
Y139432D01*
Y139408D01*
Y139393D01*
Y139388D01*
Y136614D01*
X12632D01*
Y139418D01*
Y139515D01*
Y139607D01*
X12637Y139689D01*
Y139762D01*
X12642Y139830D01*
X12647Y139893D01*
X12652Y139946D01*
Y139995D01*
X12656Y140038D01*
X12661Y140072D01*
X12666Y140101D01*
X12671Y140126D01*
Y140145D01*
X12676Y140159D01*
Y140169D01*
X12705Y140290D01*
X12744Y140397D01*
X12783Y140494D01*
X12821Y140577D01*
X12860Y140645D01*
X12889Y140693D01*
X12904Y140712D01*
X12909Y140727D01*
X12918Y140732D01*
Y140737D01*
X12991Y140824D01*
X13069Y140902D01*
X13156Y140970D01*
X13243Y141023D01*
X13316Y141071D01*
X13350Y141086D01*
X13379Y141100D01*
X13403Y141115D01*
X13423Y141125D01*
X13432Y141130D01*
X13437D01*
X13568Y141178D01*
X13699Y141217D01*
X13830Y141241D01*
X13947Y141261D01*
X13995Y141265D01*
X14043Y141270D01*
X14087Y141275D01*
X14126Y141280D01*
X14194D01*
X14364Y141270D01*
D02*
G37*
G36*
X-4226D02*
X-4061Y141246D01*
X-3911Y141212D01*
X-3771Y141164D01*
X-3644Y141105D01*
X-3523Y141042D01*
X-3416Y140974D01*
X-3319Y140906D01*
X-3232Y140834D01*
X-3159Y140766D01*
X-3096Y140703D01*
X-3043Y140645D01*
X-3004Y140596D01*
X-2975Y140562D01*
X-2956Y140538D01*
X-2951Y140528D01*
Y141178D01*
X-2252D01*
Y136614D01*
X-3029D01*
Y139102D01*
X-3033Y139262D01*
X-3043Y139408D01*
X-3062Y139539D01*
X-3082Y139660D01*
X-3111Y139767D01*
X-3140Y139864D01*
X-3174Y139951D01*
X-3208Y140029D01*
X-3237Y140092D01*
X-3271Y140150D01*
X-3300Y140193D01*
X-3329Y140232D01*
X-3349Y140261D01*
X-3368Y140281D01*
X-3378Y140290D01*
X-3382Y140295D01*
X-3450Y140349D01*
X-3523Y140397D01*
X-3596Y140441D01*
X-3669Y140480D01*
X-3737Y140509D01*
X-3809Y140533D01*
X-3940Y140572D01*
X-4003Y140586D01*
X-4057Y140596D01*
X-4105Y140601D01*
X-4149Y140606D01*
X-4183Y140611D01*
X-4231D01*
X-4343Y140606D01*
X-4445Y140591D01*
X-4537Y140567D01*
X-4619Y140543D01*
X-4682Y140514D01*
X-4731Y140494D01*
X-4745Y140484D01*
X-4760Y140475D01*
X-4765Y140470D01*
X-4770D01*
X-4847Y140412D01*
X-4915Y140354D01*
X-4973Y140290D01*
X-5017Y140227D01*
X-5051Y140174D01*
X-5070Y140130D01*
X-5085Y140101D01*
X-5090Y140096D01*
Y140092D01*
X-5104Y140043D01*
X-5119Y139995D01*
X-5143Y139883D01*
X-5158Y139767D01*
X-5172Y139655D01*
X-5177Y139548D01*
Y139505D01*
X-5182Y139466D01*
Y139432D01*
Y139408D01*
Y139393D01*
Y139388D01*
Y136614D01*
X-5958D01*
Y139418D01*
Y139515D01*
Y139607D01*
X-5953Y139689D01*
Y139762D01*
X-5948Y139830D01*
X-5943Y139893D01*
X-5939Y139946D01*
Y139995D01*
X-5934Y140038D01*
X-5929Y140072D01*
X-5924Y140101D01*
X-5919Y140126D01*
Y140145D01*
X-5914Y140159D01*
Y140169D01*
X-5885Y140290D01*
X-5846Y140397D01*
X-5807Y140494D01*
X-5769Y140577D01*
X-5730Y140645D01*
X-5701Y140693D01*
X-5686Y140712D01*
X-5681Y140727D01*
X-5672Y140732D01*
Y140737D01*
X-5599Y140824D01*
X-5521Y140902D01*
X-5434Y140970D01*
X-5347Y141023D01*
X-5274Y141071D01*
X-5240Y141086D01*
X-5211Y141100D01*
X-5187Y141115D01*
X-5167Y141125D01*
X-5158Y141130D01*
X-5153D01*
X-5022Y141178D01*
X-4891Y141217D01*
X-4760Y141241D01*
X-4643Y141261D01*
X-4595Y141265D01*
X-4546Y141270D01*
X-4503Y141275D01*
X-4464Y141280D01*
X-4396D01*
X-4226Y141270D01*
D02*
G37*
G36*
X-12030Y136614D02*
X-12806D01*
Y138423D01*
X-13344Y138947D01*
X-14863Y136614D01*
X-15818D01*
X-13892Y139480D01*
X-15643Y141178D01*
X-14639D01*
X-12806Y139321D01*
Y142914D01*
X-12030D01*
Y136614D01*
D02*
G37*
G36*
X949Y141275D02*
X1113Y141251D01*
X1269Y141222D01*
X1414Y141178D01*
X1550Y141130D01*
X1676Y141076D01*
X1792Y141018D01*
X1899Y140960D01*
X1991Y140902D01*
X2074Y140843D01*
X2146Y140790D01*
X2205Y140742D01*
X2248Y140698D01*
X2282Y140669D01*
X2307Y140649D01*
X2311Y140640D01*
X2413Y140514D01*
X2505Y140383D01*
X2588Y140237D01*
X2651Y140092D01*
X2709Y139946D01*
X2758Y139796D01*
X2796Y139650D01*
X2830Y139510D01*
X2855Y139374D01*
X2874Y139253D01*
X2884Y139141D01*
X2893Y139044D01*
X2898Y139000D01*
Y138966D01*
X2903Y138933D01*
Y138903D01*
Y138884D01*
Y138869D01*
Y138860D01*
Y138855D01*
X2898Y138651D01*
X2879Y138462D01*
X2850Y138283D01*
X2811Y138118D01*
X2767Y137962D01*
X2719Y137822D01*
X2665Y137691D01*
X2607Y137575D01*
X2554Y137473D01*
X2501Y137381D01*
X2452Y137303D01*
X2408Y137240D01*
X2370Y137191D01*
X2341Y137157D01*
X2321Y137138D01*
X2316Y137128D01*
X2200Y137022D01*
X2079Y136925D01*
X1953Y136842D01*
X1822Y136774D01*
X1691Y136711D01*
X1555Y136663D01*
X1429Y136624D01*
X1303Y136590D01*
X1186Y136566D01*
X1080Y136546D01*
X978Y136532D01*
X895Y136522D01*
X827Y136517D01*
X774Y136512D01*
X730D01*
X585Y136517D01*
X444Y136527D01*
X313Y136546D01*
X192Y136571D01*
X75Y136600D01*
X-31Y136634D01*
X-133Y136668D01*
X-220Y136706D01*
X-303Y136740D01*
X-371Y136774D01*
X-434Y136808D01*
X-482Y136837D01*
X-521Y136862D01*
X-550Y136881D01*
X-569Y136891D01*
X-574Y136896D01*
X-667Y136973D01*
X-754Y137056D01*
X-831Y137143D01*
X-899Y137230D01*
X-967Y137322D01*
X-1021Y137410D01*
X-1074Y137502D01*
X-1118Y137589D01*
X-1156Y137667D01*
X-1190Y137744D01*
X-1219Y137812D01*
X-1239Y137870D01*
X-1258Y137919D01*
X-1268Y137958D01*
X-1278Y137977D01*
Y137987D01*
X-482Y138089D01*
X-448Y138001D01*
X-410Y137914D01*
X-371Y137836D01*
X-332Y137768D01*
X-293Y137705D01*
X-249Y137642D01*
X-211Y137589D01*
X-177Y137545D01*
X-138Y137502D01*
X-109Y137468D01*
X-80Y137439D01*
X-51Y137414D01*
X-31Y137395D01*
X-17Y137381D01*
X-7Y137376D01*
X-2Y137371D01*
X56Y137332D01*
X114Y137298D01*
X240Y137240D01*
X362Y137201D01*
X473Y137177D01*
X527Y137167D01*
X575Y137157D01*
X619Y137153D01*
X653D01*
X682Y137148D01*
X726D01*
X832Y137153D01*
X929Y137167D01*
X1026Y137187D01*
X1118Y137211D01*
X1201Y137240D01*
X1278Y137274D01*
X1356Y137308D01*
X1419Y137346D01*
X1482Y137385D01*
X1531Y137419D01*
X1579Y137453D01*
X1618Y137482D01*
X1647Y137507D01*
X1666Y137531D01*
X1681Y137540D01*
X1686Y137545D01*
X1754Y137623D01*
X1812Y137710D01*
X1865Y137798D01*
X1914Y137895D01*
X1953Y137992D01*
X1986Y138084D01*
X2015Y138181D01*
X2040Y138273D01*
X2059Y138360D01*
X2074Y138438D01*
X2088Y138511D01*
X2093Y138574D01*
X2103Y138627D01*
Y138666D01*
X2108Y138690D01*
Y138700D01*
X-1302D01*
Y138748D01*
X-1307Y138787D01*
Y138826D01*
Y138855D01*
Y138874D01*
Y138889D01*
Y138899D01*
Y138903D01*
X-1302Y139107D01*
X-1283Y139301D01*
X-1253Y139485D01*
X-1215Y139655D01*
X-1171Y139810D01*
X-1122Y139956D01*
X-1069Y140087D01*
X-1016Y140203D01*
X-962Y140305D01*
X-909Y140397D01*
X-860Y140475D01*
X-817Y140538D01*
X-778Y140591D01*
X-749Y140625D01*
X-729Y140649D01*
X-725Y140654D01*
X-613Y140766D01*
X-492Y140863D01*
X-371Y140945D01*
X-245Y141018D01*
X-118Y141076D01*
X3Y141130D01*
X124Y141168D01*
X240Y141202D01*
X352Y141226D01*
X454Y141246D01*
X541Y141261D01*
X624Y141270D01*
X687Y141275D01*
X735Y141280D01*
X774D01*
X949Y141275D01*
D02*
G37*
G36*
X-8722D02*
X-8625Y141256D01*
X-8543Y141231D01*
X-8470Y141202D01*
X-8407Y141173D01*
X-8359Y141149D01*
X-8330Y141130D01*
X-8325Y141125D01*
X-8320D01*
X-8276Y141091D01*
X-8237Y141052D01*
X-8194Y141008D01*
X-8150Y140960D01*
X-8068Y140853D01*
X-7995Y140746D01*
X-7932Y140645D01*
X-7903Y140596D01*
X-7878Y140557D01*
X-7859Y140528D01*
X-7845Y140499D01*
X-7840Y140484D01*
X-7835Y140480D01*
Y141178D01*
X-7136D01*
Y136614D01*
X-7912D01*
Y139000D01*
X-7917Y139180D01*
X-7932Y139350D01*
X-7951Y139500D01*
X-7966Y139573D01*
X-7975Y139636D01*
X-7985Y139694D01*
X-8000Y139747D01*
X-8009Y139791D01*
X-8019Y139830D01*
X-8029Y139864D01*
X-8034Y139883D01*
X-8038Y139898D01*
Y139902D01*
X-8077Y139999D01*
X-8121Y140082D01*
X-8169Y140155D01*
X-8213Y140218D01*
X-8257Y140261D01*
X-8291Y140295D01*
X-8315Y140320D01*
X-8325Y140324D01*
X-8402Y140378D01*
X-8480Y140417D01*
X-8553Y140441D01*
X-8625Y140460D01*
X-8683Y140470D01*
X-8732Y140480D01*
X-8776D01*
X-8882Y140475D01*
X-8984Y140455D01*
X-9081Y140426D01*
X-9169Y140397D01*
X-9241Y140368D01*
X-9270Y140354D01*
X-9295Y140339D01*
X-9314Y140329D01*
X-9329Y140320D01*
X-9338Y140315D01*
X-9343D01*
X-9615Y141028D01*
X-9537Y141071D01*
X-9464Y141110D01*
X-9392Y141144D01*
X-9319Y141173D01*
X-9183Y141217D01*
X-9067Y141251D01*
X-9013Y141261D01*
X-8965Y141265D01*
X-8921Y141270D01*
X-8887Y141275D01*
X-8858Y141280D01*
X-8819D01*
X-8722Y141275D01*
D02*
G37*
G36*
X23331Y138569D02*
Y138472D01*
X23336Y138380D01*
X23341Y138297D01*
X23346Y138219D01*
X23351Y138147D01*
X23360Y138084D01*
X23365Y138025D01*
X23375Y137972D01*
X23385Y137928D01*
X23390Y137890D01*
X23399Y137856D01*
X23404Y137831D01*
X23409Y137807D01*
X23414Y137793D01*
X23419Y137788D01*
Y137783D01*
X23457Y137696D01*
X23506Y137618D01*
X23554Y137550D01*
X23608Y137492D01*
X23656Y137448D01*
X23695Y137419D01*
X23724Y137395D01*
X23729Y137390D01*
X23734D01*
X23821Y137342D01*
X23913Y137308D01*
X24005Y137284D01*
X24093Y137269D01*
X24166Y137259D01*
X24195Y137254D01*
X24224Y137250D01*
X24277D01*
X24355Y137254D01*
X24427Y137259D01*
X24563Y137288D01*
X24675Y137332D01*
X24728Y137356D01*
X24772Y137381D01*
X24811Y137405D01*
X24849Y137429D01*
X24879Y137453D01*
X24903Y137473D01*
X24922Y137487D01*
X24937Y137502D01*
X24941Y137507D01*
X24946Y137511D01*
X24990Y137565D01*
X25024Y137633D01*
X25058Y137701D01*
X25087Y137778D01*
X25135Y137943D01*
X25170Y138108D01*
X25179Y138186D01*
X25189Y138258D01*
X25199Y138326D01*
X25203Y138384D01*
X25208Y138433D01*
X25213Y138472D01*
Y138491D01*
Y138501D01*
X25965Y138394D01*
Y138224D01*
X25950Y138064D01*
X25931Y137919D01*
X25907Y137778D01*
X25878Y137652D01*
X25839Y137536D01*
X25800Y137434D01*
X25761Y137337D01*
X25722Y137254D01*
X25684Y137182D01*
X25645Y137123D01*
X25611Y137070D01*
X25582Y137031D01*
X25562Y137007D01*
X25548Y136988D01*
X25543Y136983D01*
X25456Y136900D01*
X25363Y136828D01*
X25262Y136765D01*
X25160Y136706D01*
X25053Y136663D01*
X24946Y136624D01*
X24845Y136590D01*
X24743Y136566D01*
X24646Y136546D01*
X24558Y136532D01*
X24476Y136522D01*
X24408Y136517D01*
X24350Y136512D01*
X24306Y136507D01*
X24272D01*
X24170Y136512D01*
X24069Y136517D01*
X23976Y136527D01*
X23884Y136541D01*
X23797Y136561D01*
X23719Y136580D01*
X23642Y136600D01*
X23574Y136619D01*
X23516Y136638D01*
X23457Y136658D01*
X23409Y136677D01*
X23370Y136697D01*
X23341Y136711D01*
X23317Y136721D01*
X23302Y136731D01*
X23297D01*
X23220Y136774D01*
X23152Y136823D01*
X23084Y136876D01*
X23026Y136929D01*
X22972Y136983D01*
X22924Y137041D01*
X22875Y137094D01*
X22837Y137148D01*
X22803Y137196D01*
X22774Y137240D01*
X22749Y137284D01*
X22725Y137317D01*
X22711Y137351D01*
X22701Y137371D01*
X22691Y137385D01*
Y137390D01*
X22657Y137478D01*
X22628Y137570D01*
X22599Y137667D01*
X22580Y137768D01*
X22546Y137972D01*
X22531Y138069D01*
X22521Y138166D01*
X22512Y138258D01*
X22507Y138346D01*
X22502Y138418D01*
Y138486D01*
X22497Y138540D01*
Y138583D01*
Y138608D01*
Y138617D01*
Y142914D01*
X23331D01*
Y138569D01*
D02*
G37*
G36*
X1841Y134546D02*
X1065D01*
Y135434D01*
X1841D01*
Y134546D01*
D02*
G37*
G36*
X-10080Y136614D02*
X-10856D01*
Y141178D01*
X-10080D01*
Y136614D01*
D02*
G37*
G36*
X-25455D02*
X-26338D01*
Y137497D01*
X-25455D01*
Y136614D01*
D02*
G37*
G36*
X-9931Y121653D02*
X-10765D01*
Y124515D01*
X-13724D01*
Y125257D01*
X-10765D01*
Y127212D01*
X-14185D01*
Y127954D01*
X-9931D01*
Y121653D01*
D02*
G37*
G36*
X-15387D02*
X-16270D01*
Y122536D01*
X-15387D01*
Y121653D01*
D02*
G37*
G36*
X10260D02*
X9483D01*
Y126217D01*
X10260D01*
Y121653D01*
D02*
G37*
G36*
X3925D02*
X3149D01*
Y127954D01*
X3925D01*
Y121653D01*
D02*
G37*
G36*
X-4315Y126314D02*
X-4189Y126305D01*
X-4077Y126290D01*
X-3975Y126271D01*
X-3932Y126261D01*
X-3893Y126251D01*
X-3854Y126247D01*
X-3825Y126237D01*
X-3805Y126232D01*
X-3786Y126227D01*
X-3776Y126222D01*
X-3771D01*
X-3660Y126188D01*
X-3563Y126149D01*
X-3480Y126111D01*
X-3413Y126077D01*
X-3354Y126048D01*
X-3316Y126023D01*
X-3291Y126004D01*
X-3282Y125999D01*
X-3194Y125931D01*
X-3122Y125858D01*
X-3054Y125786D01*
X-3000Y125718D01*
X-2957Y125660D01*
X-2923Y125611D01*
X-2913Y125592D01*
X-2903Y125577D01*
X-2898Y125572D01*
Y125567D01*
X-2855Y125470D01*
X-2821Y125369D01*
X-2797Y125277D01*
X-2782Y125189D01*
X-2772Y125112D01*
X-2768Y125083D01*
X-2763Y125058D01*
Y125034D01*
Y125019D01*
Y125010D01*
Y125005D01*
X-2772Y124879D01*
X-2792Y124767D01*
X-2816Y124661D01*
X-2850Y124568D01*
X-2879Y124496D01*
X-2894Y124462D01*
X-2908Y124437D01*
X-2918Y124418D01*
X-2928Y124404D01*
X-2932Y124394D01*
Y124389D01*
X-3000Y124292D01*
X-3083Y124205D01*
X-3165Y124132D01*
X-3243Y124069D01*
X-3316Y124020D01*
X-3374Y123986D01*
X-3398Y123972D01*
X-3413Y123967D01*
X-3422Y123957D01*
X-3427D01*
X-3495Y123928D01*
X-3573Y123899D01*
X-3660Y123865D01*
X-3752Y123836D01*
X-3946Y123773D01*
X-4145Y123715D01*
X-4237Y123686D01*
X-4324Y123661D01*
X-4402Y123637D01*
X-4470Y123623D01*
X-4528Y123603D01*
X-4572Y123593D01*
X-4601Y123589D01*
X-4611Y123584D01*
X-4722Y123555D01*
X-4829Y123530D01*
X-4921Y123501D01*
X-5003Y123477D01*
X-5076Y123453D01*
X-5139Y123433D01*
X-5197Y123414D01*
X-5246Y123395D01*
X-5290Y123380D01*
X-5324Y123366D01*
X-5348Y123351D01*
X-5372Y123341D01*
X-5387Y123332D01*
X-5396Y123327D01*
X-5406Y123322D01*
X-5445Y123293D01*
X-5484Y123259D01*
X-5537Y123196D01*
X-5581Y123128D01*
X-5605Y123060D01*
X-5624Y123002D01*
X-5629Y122953D01*
X-5634Y122934D01*
Y122919D01*
Y122915D01*
Y122910D01*
X-5629Y122856D01*
X-5624Y122803D01*
X-5595Y122706D01*
X-5551Y122619D01*
X-5503Y122546D01*
X-5455Y122483D01*
X-5411Y122439D01*
X-5382Y122410D01*
X-5377Y122405D01*
X-5372Y122400D01*
X-5319Y122362D01*
X-5265Y122333D01*
X-5139Y122279D01*
X-5008Y122240D01*
X-4882Y122216D01*
X-4819Y122206D01*
X-4766Y122197D01*
X-4712Y122192D01*
X-4669D01*
X-4635Y122187D01*
X-4581D01*
X-4484Y122192D01*
X-4392Y122197D01*
X-4310Y122211D01*
X-4227Y122226D01*
X-4155Y122245D01*
X-4087Y122265D01*
X-4029Y122284D01*
X-3970Y122308D01*
X-3922Y122333D01*
X-3878Y122352D01*
X-3844Y122371D01*
X-3810Y122391D01*
X-3786Y122405D01*
X-3771Y122420D01*
X-3762Y122425D01*
X-3757Y122430D01*
X-3704Y122478D01*
X-3655Y122531D01*
X-3616Y122585D01*
X-3577Y122643D01*
X-3514Y122764D01*
X-3466Y122876D01*
X-3447Y122929D01*
X-3432Y122978D01*
X-3422Y123021D01*
X-3413Y123060D01*
X-3408Y123094D01*
X-3403Y123118D01*
X-3398Y123133D01*
Y123138D01*
X-2632Y123016D01*
X-2661Y122885D01*
X-2695Y122759D01*
X-2734Y122643D01*
X-2777Y122536D01*
X-2826Y122439D01*
X-2874Y122352D01*
X-2923Y122269D01*
X-2976Y122197D01*
X-3025Y122134D01*
X-3068Y122075D01*
X-3112Y122027D01*
X-3151Y121988D01*
X-3180Y121959D01*
X-3204Y121940D01*
X-3219Y121925D01*
X-3224Y121920D01*
X-3316Y121857D01*
X-3418Y121799D01*
X-3524Y121750D01*
X-3636Y121707D01*
X-3747Y121673D01*
X-3864Y121644D01*
X-3975Y121620D01*
X-4082Y121600D01*
X-4184Y121581D01*
X-4281Y121571D01*
X-4363Y121561D01*
X-4441Y121556D01*
X-4499D01*
X-4547Y121552D01*
X-4586D01*
X-4780Y121561D01*
X-4965Y121581D01*
X-5047Y121595D01*
X-5125Y121610D01*
X-5202Y121624D01*
X-5270Y121644D01*
X-5328Y121663D01*
X-5387Y121678D01*
X-5430Y121692D01*
X-5474Y121707D01*
X-5503Y121721D01*
X-5527Y121726D01*
X-5542Y121736D01*
X-5547D01*
X-5697Y121814D01*
X-5828Y121901D01*
X-5886Y121944D01*
X-5940Y121988D01*
X-5988Y122032D01*
X-6036Y122071D01*
X-6075Y122109D01*
X-6109Y122148D01*
X-6134Y122182D01*
X-6158Y122206D01*
X-6177Y122231D01*
X-6192Y122250D01*
X-6196Y122260D01*
X-6201Y122265D01*
X-6240Y122328D01*
X-6279Y122396D01*
X-6332Y122522D01*
X-6376Y122643D01*
X-6400Y122755D01*
X-6410Y122808D01*
X-6420Y122852D01*
X-6425Y122890D01*
Y122924D01*
X-6429Y122953D01*
Y122973D01*
Y122987D01*
Y122992D01*
X-6420Y123133D01*
X-6400Y123264D01*
X-6371Y123375D01*
X-6337Y123472D01*
X-6318Y123511D01*
X-6298Y123550D01*
X-6284Y123579D01*
X-6269Y123603D01*
X-6260Y123627D01*
X-6250Y123642D01*
X-6240Y123647D01*
Y123652D01*
X-6167Y123744D01*
X-6085Y123826D01*
X-5998Y123899D01*
X-5915Y123957D01*
X-5843Y124001D01*
X-5813Y124020D01*
X-5784Y124035D01*
X-5760Y124045D01*
X-5745Y124054D01*
X-5736Y124059D01*
X-5731D01*
X-5668Y124088D01*
X-5590Y124117D01*
X-5508Y124146D01*
X-5416Y124176D01*
X-5226Y124234D01*
X-5037Y124292D01*
X-4950Y124316D01*
X-4863Y124340D01*
X-4785Y124365D01*
X-4722Y124384D01*
X-4664Y124399D01*
X-4620Y124408D01*
X-4596Y124418D01*
X-4586D01*
X-4484Y124447D01*
X-4392Y124471D01*
X-4310Y124496D01*
X-4237Y124515D01*
X-4174Y124534D01*
X-4116Y124549D01*
X-4067Y124564D01*
X-4029Y124578D01*
X-3995Y124588D01*
X-3965Y124593D01*
X-3941Y124602D01*
X-3927Y124607D01*
X-3903Y124617D01*
X-3898D01*
X-3830Y124651D01*
X-3767Y124685D01*
X-3718Y124719D01*
X-3675Y124748D01*
X-3645Y124777D01*
X-3621Y124801D01*
X-3607Y124816D01*
X-3602Y124821D01*
X-3573Y124869D01*
X-3548Y124913D01*
X-3534Y124961D01*
X-3519Y125000D01*
X-3514Y125039D01*
X-3510Y125068D01*
Y125087D01*
Y125092D01*
X-3514Y125136D01*
X-3519Y125180D01*
X-3544Y125257D01*
X-3582Y125325D01*
X-3626Y125388D01*
X-3665Y125436D01*
X-3704Y125475D01*
X-3728Y125495D01*
X-3738Y125504D01*
X-3786Y125538D01*
X-3835Y125563D01*
X-3951Y125606D01*
X-4077Y125640D01*
X-4203Y125660D01*
X-4261Y125669D01*
X-4320Y125674D01*
X-4368Y125679D01*
X-4412D01*
X-4451Y125684D01*
X-4581D01*
X-4659Y125674D01*
X-4732Y125664D01*
X-4800Y125655D01*
X-4863Y125640D01*
X-4921Y125621D01*
X-4974Y125601D01*
X-5023Y125587D01*
X-5062Y125567D01*
X-5100Y125548D01*
X-5130Y125533D01*
X-5159Y125514D01*
X-5178Y125504D01*
X-5193Y125495D01*
X-5197Y125485D01*
X-5202D01*
X-5285Y125403D01*
X-5353Y125315D01*
X-5406Y125223D01*
X-5445Y125136D01*
X-5474Y125058D01*
X-5484Y125024D01*
X-5493Y124995D01*
X-5498Y124971D01*
Y124952D01*
X-5503Y124942D01*
Y124937D01*
X-6260Y125039D01*
X-6226Y125194D01*
X-6187Y125335D01*
X-6163Y125398D01*
X-6138Y125456D01*
X-6119Y125509D01*
X-6095Y125558D01*
X-6075Y125597D01*
X-6056Y125635D01*
X-6036Y125669D01*
X-6022Y125694D01*
X-6007Y125713D01*
X-5998Y125732D01*
X-5988Y125737D01*
Y125742D01*
X-5949Y125791D01*
X-5906Y125839D01*
X-5813Y125921D01*
X-5711Y125994D01*
X-5615Y126052D01*
X-5527Y126101D01*
X-5488Y126120D01*
X-5455Y126135D01*
X-5425Y126149D01*
X-5406Y126159D01*
X-5391Y126164D01*
X-5387D01*
X-5231Y126217D01*
X-5071Y126256D01*
X-4911Y126280D01*
X-4766Y126300D01*
X-4698Y126305D01*
X-4640Y126310D01*
X-4581Y126314D01*
X-4538Y126319D01*
X-4446D01*
X-4315Y126314D01*
D02*
G37*
G36*
X-19004Y136614D02*
X-19839D01*
Y139582D01*
X-23112D01*
Y136614D01*
X-23946D01*
Y142914D01*
X-23112D01*
Y140324D01*
X-19839D01*
Y142914D01*
X-19004D01*
Y136614D01*
D02*
G37*
G36*
X19519Y141275D02*
X19621Y141265D01*
X19718Y141256D01*
X19810Y141241D01*
X19893Y141226D01*
X19975Y141212D01*
X20048Y141197D01*
X20111Y141183D01*
X20169Y141168D01*
X20222Y141154D01*
X20266Y141139D01*
X20300Y141130D01*
X20324Y141120D01*
X20339Y141115D01*
X20344D01*
X20426Y141086D01*
X20499Y141047D01*
X20572Y141013D01*
X20640Y140974D01*
X20698Y140936D01*
X20756Y140897D01*
X20809Y140863D01*
X20853Y140824D01*
X20892Y140790D01*
X20931Y140756D01*
X20960Y140727D01*
X20984Y140703D01*
X21003Y140683D01*
X21018Y140669D01*
X21023Y140659D01*
X21027Y140654D01*
X21110Y140538D01*
X21178Y140407D01*
X21236Y140276D01*
X21280Y140155D01*
X21299Y140096D01*
X21318Y140043D01*
X21333Y139995D01*
X21343Y139956D01*
X21352Y139922D01*
X21357Y139893D01*
X21362Y139878D01*
Y139873D01*
X20606Y139771D01*
X20581Y139859D01*
X20552Y139941D01*
X20523Y140014D01*
X20494Y140082D01*
X20465Y140145D01*
X20431Y140198D01*
X20402Y140247D01*
X20373Y140290D01*
X20344Y140329D01*
X20315Y140358D01*
X20290Y140387D01*
X20271Y140407D01*
X20252Y140426D01*
X20237Y140436D01*
X20232Y140446D01*
X20227D01*
X20174Y140480D01*
X20116Y140509D01*
X19990Y140557D01*
X19854Y140591D01*
X19723Y140615D01*
X19660Y140625D01*
X19606Y140630D01*
X19553Y140635D01*
X19505D01*
X19471Y140640D01*
X19417D01*
X19311Y140635D01*
X19214Y140630D01*
X19121Y140615D01*
X19034Y140596D01*
X18957Y140577D01*
X18884Y140557D01*
X18821Y140533D01*
X18758Y140509D01*
X18709Y140480D01*
X18666Y140455D01*
X18627Y140436D01*
X18593Y140417D01*
X18569Y140397D01*
X18554Y140383D01*
X18544Y140378D01*
X18540Y140373D01*
X18501Y140334D01*
X18467Y140290D01*
X18408Y140189D01*
X18370Y140082D01*
X18346Y139970D01*
X18326Y139868D01*
X18321Y139825D01*
Y139786D01*
X18316Y139752D01*
Y139728D01*
Y139713D01*
Y139708D01*
Y139689D01*
Y139660D01*
Y139592D01*
X18321Y139563D01*
Y139534D01*
Y139515D01*
Y139510D01*
X18408Y139480D01*
X18510Y139451D01*
X18612Y139427D01*
X18724Y139403D01*
X18957Y139359D01*
X19068Y139335D01*
X19180Y139321D01*
X19286Y139301D01*
X19383Y139286D01*
X19471Y139272D01*
X19548Y139262D01*
X19616Y139253D01*
X19660Y139248D01*
X19679D01*
X19694Y139243D01*
X19703D01*
X19786Y139233D01*
X19864Y139224D01*
X19936Y139209D01*
X20004Y139199D01*
X20062Y139190D01*
X20121Y139180D01*
X20169Y139170D01*
X20218Y139165D01*
X20256Y139156D01*
X20290Y139146D01*
X20320Y139141D01*
X20344Y139136D01*
X20363Y139131D01*
X20378D01*
X20382Y139127D01*
X20387D01*
X20499Y139093D01*
X20606Y139049D01*
X20698Y139005D01*
X20780Y138966D01*
X20848Y138928D01*
X20901Y138899D01*
X20921Y138884D01*
X20935Y138879D01*
X20940Y138869D01*
X20945D01*
X21032Y138802D01*
X21110Y138729D01*
X21178Y138656D01*
X21236Y138588D01*
X21280Y138525D01*
X21314Y138472D01*
X21328Y138457D01*
X21338Y138443D01*
X21343Y138433D01*
Y138428D01*
X21391Y138321D01*
X21430Y138215D01*
X21454Y138113D01*
X21474Y138021D01*
X21483Y137938D01*
X21488Y137904D01*
Y137875D01*
X21493Y137851D01*
Y137831D01*
Y137822D01*
Y137817D01*
X21488Y137710D01*
X21474Y137613D01*
X21454Y137516D01*
X21430Y137429D01*
X21401Y137346D01*
X21367Y137269D01*
X21328Y137196D01*
X21289Y137133D01*
X21256Y137075D01*
X21217Y137022D01*
X21183Y136978D01*
X21154Y136944D01*
X21129Y136915D01*
X21110Y136896D01*
X21095Y136881D01*
X21091Y136876D01*
X21013Y136813D01*
X20926Y136755D01*
X20833Y136706D01*
X20741Y136668D01*
X20644Y136629D01*
X20547Y136600D01*
X20455Y136575D01*
X20363Y136556D01*
X20276Y136541D01*
X20193Y136532D01*
X20121Y136522D01*
X20058Y136517D01*
X20009D01*
X19970Y136512D01*
X19936D01*
X19767Y136517D01*
X19611Y136537D01*
X19466Y136561D01*
X19403Y136571D01*
X19340Y136585D01*
X19286Y136600D01*
X19238Y136614D01*
X19194Y136624D01*
X19155Y136634D01*
X19126Y136643D01*
X19107Y136653D01*
X19092Y136658D01*
X19087D01*
X19015Y136687D01*
X18937Y136726D01*
X18792Y136803D01*
X18651Y136891D01*
X18525Y136973D01*
X18467Y137017D01*
X18413Y137051D01*
X18370Y137085D01*
X18331Y137119D01*
X18302Y137143D01*
X18278Y137162D01*
X18263Y137172D01*
X18258Y137177D01*
X18244Y137060D01*
X18219Y136954D01*
X18195Y136857D01*
X18166Y136774D01*
X18142Y136706D01*
X18122Y136658D01*
X18113Y136638D01*
X18108Y136624D01*
X18103Y136619D01*
Y136614D01*
X17293D01*
X17346Y136711D01*
X17385Y136808D01*
X17424Y136905D01*
X17448Y136988D01*
X17468Y137060D01*
X17477Y137090D01*
X17482Y137114D01*
X17487Y137133D01*
Y137148D01*
X17492Y137157D01*
Y137162D01*
X17502Y137225D01*
X17506Y137303D01*
X17516Y137395D01*
X17521Y137497D01*
X17526Y137604D01*
X17531Y137720D01*
X17536Y137953D01*
Y138064D01*
Y138171D01*
X17540Y138268D01*
Y138350D01*
Y138423D01*
Y138452D01*
Y138477D01*
Y138496D01*
Y138515D01*
Y138520D01*
Y138525D01*
Y139553D01*
Y139645D01*
Y139733D01*
X17545Y139810D01*
Y139883D01*
X17550Y139946D01*
Y140004D01*
X17555Y140058D01*
X17560Y140101D01*
X17565Y140140D01*
Y140174D01*
X17570Y140203D01*
X17574Y140227D01*
Y140247D01*
X17579Y140257D01*
Y140266D01*
X17608Y140383D01*
X17647Y140484D01*
X17686Y140577D01*
X17730Y140649D01*
X17763Y140712D01*
X17793Y140756D01*
X17812Y140785D01*
X17822Y140795D01*
X17895Y140868D01*
X17977Y140936D01*
X18064Y140994D01*
X18156Y141047D01*
X18234Y141086D01*
X18268Y141100D01*
X18302Y141115D01*
X18326Y141125D01*
X18346Y141134D01*
X18355Y141139D01*
X18360D01*
X18433Y141164D01*
X18506Y141188D01*
X18661Y141222D01*
X18821Y141246D01*
X18971Y141261D01*
X19039Y141270D01*
X19102Y141275D01*
X19160D01*
X19209Y141280D01*
X19306D01*
X19519Y141275D01*
D02*
G37*
G36*
X-10080Y142027D02*
X-10856D01*
Y142914D01*
X-10080D01*
Y142027D01*
D02*
G37*
G36*
X8873Y136614D02*
X8039D01*
Y139582D01*
X4766D01*
Y136614D01*
X3931D01*
Y142914D01*
X4766D01*
Y140324D01*
X8039D01*
Y142914D01*
X8873D01*
Y136614D01*
D02*
G37*
G36*
X56120Y353584D02*
X56275Y353561D01*
X56431Y353530D01*
X56570Y353491D01*
X56702Y353445D01*
X56826Y353390D01*
X56943Y353328D01*
X57044Y353266D01*
X57137Y353212D01*
X57222Y353150D01*
X57292Y353095D01*
X57346Y353049D01*
X57393Y353010D01*
X57424Y352979D01*
X57447Y352956D01*
X57455Y352948D01*
X57556Y352824D01*
X57649Y352684D01*
X57727Y352537D01*
X57789Y352389D01*
X57851Y352234D01*
X57897Y352079D01*
X57936Y351931D01*
X57967Y351784D01*
X57990Y351644D01*
X58006Y351512D01*
X58021Y351396D01*
X58029Y351295D01*
Y351217D01*
X58037Y351155D01*
Y351116D01*
Y351101D01*
X58029Y350829D01*
X57998Y350581D01*
X57959Y350348D01*
X57944Y350247D01*
X57921Y350147D01*
X57897Y350061D01*
X57874Y349984D01*
X57859Y349914D01*
X57843Y349852D01*
X57828Y349805D01*
X57812Y349774D01*
X57804Y349751D01*
Y349743D01*
X57758Y349626D01*
X57696Y349502D01*
X57571Y349270D01*
X57432Y349044D01*
X57300Y348843D01*
X57230Y348750D01*
X57176Y348664D01*
X57121Y348594D01*
X57067Y348532D01*
X57028Y348486D01*
X56997Y348447D01*
X56982Y348424D01*
X56974Y348416D01*
X57160Y348393D01*
X57331Y348354D01*
X57486Y348315D01*
X57618Y348269D01*
X57727Y348230D01*
X57804Y348199D01*
X57835Y348183D01*
X57859Y348175D01*
X57866Y348168D01*
X57874D01*
Y346872D01*
X57719Y346957D01*
X57564Y347019D01*
X57408Y347081D01*
X57276Y347120D01*
X57160Y347151D01*
X57113Y347167D01*
X57075Y347174D01*
X57044Y347182D01*
X57020D01*
X57005Y347190D01*
X56997D01*
X56896Y347205D01*
X56772Y347213D01*
X56625Y347229D01*
X56462Y347236D01*
X56291Y347244D01*
X56105Y347252D01*
X55732Y347260D01*
X55383D01*
X55228Y347268D01*
X52884D01*
X52760Y347275D01*
X52644D01*
X52543Y347283D01*
X52450D01*
X52364Y347291D01*
X52295Y347299D01*
X52232Y347306D01*
X52178D01*
X52132Y347314D01*
X52093Y347322D01*
X52062D01*
X52046Y347330D01*
X52031D01*
X51845Y347376D01*
X51682Y347438D01*
X51534Y347500D01*
X51418Y347570D01*
X51317Y347624D01*
X51247Y347671D01*
X51200Y347702D01*
X51185Y347718D01*
X51069Y347834D01*
X50960Y347966D01*
X50867Y348106D01*
X50781Y348253D01*
X50719Y348377D01*
X50696Y348431D01*
X50673Y348486D01*
X50657Y348525D01*
X50642Y348556D01*
X50634Y348571D01*
Y348579D01*
X50595Y348695D01*
X50556Y348812D01*
X50502Y349060D01*
X50463Y349316D01*
X50440Y349557D01*
X50424Y349665D01*
X50417Y349766D01*
Y349859D01*
X50409Y349937D01*
Y349999D01*
Y350053D01*
Y350084D01*
Y350092D01*
X50417Y350434D01*
X50432Y350596D01*
X50448Y350752D01*
X50471Y350899D01*
X50494Y351031D01*
X50517Y351163D01*
X50541Y351279D01*
X50564Y351380D01*
X50587Y351473D01*
X50611Y351559D01*
X50634Y351629D01*
X50649Y351683D01*
X50665Y351722D01*
X50673Y351745D01*
Y351753D01*
X50719Y351885D01*
X50781Y352001D01*
X50836Y352117D01*
X50898Y352226D01*
X50960Y352319D01*
X51022Y352412D01*
X51076Y352498D01*
X51138Y352568D01*
X51193Y352630D01*
X51247Y352692D01*
X51293Y352738D01*
X51332Y352777D01*
X51363Y352808D01*
X51387Y352831D01*
X51402Y352839D01*
X51410Y352847D01*
X51596Y352979D01*
X51806Y353087D01*
X52015Y353181D01*
X52209Y353251D01*
X52302Y353281D01*
X52388Y353312D01*
X52465Y353336D01*
X52527Y353351D01*
X52582Y353367D01*
X52628Y353375D01*
X52652Y353382D01*
X52659D01*
X52822Y352172D01*
X52683Y352133D01*
X52551Y352086D01*
X52434Y352040D01*
X52326Y351993D01*
X52225Y351947D01*
X52139Y351892D01*
X52062Y351846D01*
X51992Y351799D01*
X51930Y351753D01*
X51883Y351706D01*
X51837Y351667D01*
X51806Y351636D01*
X51775Y351605D01*
X51759Y351582D01*
X51744Y351574D01*
Y351567D01*
X51689Y351481D01*
X51643Y351388D01*
X51565Y351186D01*
X51511Y350969D01*
X51472Y350760D01*
X51456Y350659D01*
X51449Y350573D01*
X51441Y350488D01*
Y350410D01*
X51433Y350356D01*
Y350309D01*
Y350278D01*
Y350271D01*
X51441Y350100D01*
X51449Y349945D01*
X51472Y349797D01*
X51503Y349658D01*
X51534Y349533D01*
X51565Y349417D01*
X51604Y349316D01*
X51643Y349215D01*
X51689Y349138D01*
X51728Y349068D01*
X51759Y349006D01*
X51790Y348951D01*
X51821Y348913D01*
X51845Y348889D01*
X51852Y348874D01*
X51860Y348866D01*
X51922Y348804D01*
X51992Y348750D01*
X52155Y348657D01*
X52326Y348594D01*
X52504Y348556D01*
X52667Y348525D01*
X52737Y348517D01*
X52799D01*
X52853Y348509D01*
X53109D01*
X53156Y348517D01*
X53241D01*
X53288Y348657D01*
X53334Y348819D01*
X53373Y348983D01*
X53412Y349161D01*
X53482Y349533D01*
X53521Y349712D01*
X53544Y349890D01*
X53575Y350061D01*
X53598Y350216D01*
X53622Y350356D01*
X53637Y350480D01*
X53653Y350589D01*
X53660Y350659D01*
Y350690D01*
X53668Y350713D01*
Y350721D01*
Y350729D01*
X53684Y350860D01*
X53699Y350985D01*
X53722Y351101D01*
X53738Y351210D01*
X53754Y351303D01*
X53769Y351396D01*
X53785Y351473D01*
X53792Y351551D01*
X53808Y351613D01*
X53823Y351667D01*
X53831Y351714D01*
X53839Y351753D01*
X53847Y351784D01*
Y351807D01*
X53854Y351815D01*
Y351823D01*
X53909Y352001D01*
X53979Y352172D01*
X54048Y352319D01*
X54110Y352451D01*
X54172Y352560D01*
X54219Y352645D01*
X54242Y352676D01*
X54250Y352699D01*
X54266Y352707D01*
Y352715D01*
X54374Y352855D01*
X54491Y352979D01*
X54607Y353087D01*
X54716Y353181D01*
X54817Y353251D01*
X54902Y353305D01*
X54925Y353328D01*
X54949Y353344D01*
X54964Y353351D01*
X54972D01*
X55142Y353429D01*
X55313Y353491D01*
X55476Y353530D01*
X55624Y353561D01*
X55756Y353576D01*
X55810Y353584D01*
X55856D01*
X55895Y353592D01*
X55949D01*
X56120Y353584D01*
D02*
G37*
G36*
X55903Y345793D02*
X56105Y345739D01*
X56291Y345677D01*
X56462Y345607D01*
X56617Y345529D01*
X56757Y345452D01*
X56889Y345374D01*
X57005Y345289D01*
X57106Y345211D01*
X57199Y345141D01*
X57276Y345071D01*
X57339Y345009D01*
X57385Y344963D01*
X57416Y344924D01*
X57440Y344901D01*
X57447Y344893D01*
X57548Y344745D01*
X57641Y344583D01*
X57719Y344412D01*
X57789Y344233D01*
X57843Y344055D01*
X57889Y343869D01*
X57928Y343690D01*
X57959Y343519D01*
X57990Y343356D01*
X58006Y343201D01*
X58021Y343069D01*
X58029Y342945D01*
Y342852D01*
X58037Y342775D01*
Y342728D01*
Y342712D01*
X58021Y342402D01*
X57990Y342107D01*
X57967Y341975D01*
X57944Y341851D01*
X57921Y341727D01*
X57889Y341618D01*
X57859Y341525D01*
X57835Y341432D01*
X57812Y341362D01*
X57789Y341292D01*
X57765Y341246D01*
X57758Y341207D01*
X57742Y341184D01*
Y341176D01*
X57618Y340935D01*
X57478Y340726D01*
X57408Y340633D01*
X57339Y340547D01*
X57269Y340470D01*
X57207Y340392D01*
X57145Y340330D01*
X57082Y340276D01*
X57028Y340237D01*
X56989Y340198D01*
X56951Y340167D01*
X56919Y340144D01*
X56904Y340136D01*
X56896Y340128D01*
X56795Y340066D01*
X56687Y340004D01*
X56485Y339919D01*
X56291Y339849D01*
X56112Y339810D01*
X56027Y339795D01*
X55957Y339779D01*
X55895Y339771D01*
X55841D01*
X55794Y339764D01*
X55732D01*
X55507Y339779D01*
X55298Y339810D01*
X55119Y339857D01*
X54964Y339911D01*
X54902Y339942D01*
X54840Y339973D01*
X54793Y339996D01*
X54755Y340020D01*
X54716Y340035D01*
X54692Y340051D01*
X54685Y340066D01*
X54677D01*
X54530Y340183D01*
X54397Y340315D01*
X54281Y340454D01*
X54188Y340586D01*
X54118Y340703D01*
X54087Y340749D01*
X54064Y340796D01*
X54048Y340834D01*
X54033Y340858D01*
X54025Y340873D01*
Y340881D01*
X53979Y340982D01*
X53932Y341106D01*
X53885Y341238D01*
X53839Y341385D01*
X53746Y341688D01*
X53653Y341991D01*
X53614Y342130D01*
X53575Y342270D01*
X53536Y342394D01*
X53505Y342495D01*
X53482Y342588D01*
X53466Y342658D01*
X53451Y342697D01*
Y342712D01*
X53404Y342875D01*
X53365Y343023D01*
X53327Y343155D01*
X53296Y343271D01*
X53265Y343372D01*
X53241Y343465D01*
X53218Y343543D01*
X53195Y343605D01*
X53179Y343659D01*
X53171Y343706D01*
X53156Y343744D01*
X53148Y343768D01*
X53133Y343807D01*
Y343814D01*
X53078Y343923D01*
X53024Y344024D01*
X52970Y344101D01*
X52923Y344171D01*
X52877Y344218D01*
X52838Y344257D01*
X52815Y344280D01*
X52807Y344288D01*
X52729Y344334D01*
X52659Y344373D01*
X52582Y344396D01*
X52520Y344420D01*
X52457Y344427D01*
X52411Y344435D01*
X52372D01*
X52302Y344427D01*
X52232Y344420D01*
X52108Y344381D01*
X52000Y344319D01*
X51899Y344249D01*
X51821Y344187D01*
X51759Y344125D01*
X51728Y344086D01*
X51713Y344070D01*
X51658Y343993D01*
X51619Y343915D01*
X51550Y343729D01*
X51495Y343527D01*
X51464Y343325D01*
X51449Y343232D01*
X51441Y343139D01*
X51433Y343062D01*
Y342992D01*
X51425Y342930D01*
Y342891D01*
Y342860D01*
Y342852D01*
Y342720D01*
X51441Y342596D01*
X51456Y342480D01*
X51472Y342371D01*
X51495Y342270D01*
X51526Y342177D01*
X51557Y342092D01*
X51581Y342014D01*
X51612Y341952D01*
X51643Y341890D01*
X51666Y341843D01*
X51697Y341797D01*
X51713Y341766D01*
X51728Y341742D01*
X51744Y341735D01*
Y341727D01*
X51876Y341595D01*
X52015Y341486D01*
X52163Y341401D01*
X52302Y341339D01*
X52426Y341292D01*
X52481Y341277D01*
X52527Y341261D01*
X52566Y341253D01*
X52597D01*
X52613Y341246D01*
X52621D01*
X52457Y340035D01*
X52209Y340090D01*
X51984Y340152D01*
X51883Y340190D01*
X51790Y340229D01*
X51705Y340260D01*
X51627Y340299D01*
X51565Y340330D01*
X51503Y340361D01*
X51449Y340392D01*
X51410Y340415D01*
X51379Y340439D01*
X51348Y340454D01*
X51340Y340470D01*
X51332D01*
X51255Y340532D01*
X51177Y340602D01*
X51045Y340749D01*
X50929Y340912D01*
X50836Y341067D01*
X50758Y341207D01*
X50727Y341269D01*
X50704Y341323D01*
X50681Y341370D01*
X50665Y341401D01*
X50657Y341424D01*
Y341432D01*
X50572Y341680D01*
X50510Y341936D01*
X50471Y342193D01*
X50440Y342425D01*
X50432Y342534D01*
X50424Y342627D01*
X50417Y342720D01*
X50409Y342790D01*
Y342852D01*
Y342899D01*
Y342930D01*
Y342937D01*
X50417Y343147D01*
X50432Y343349D01*
X50455Y343527D01*
X50486Y343690D01*
X50502Y343760D01*
X50517Y343822D01*
X50525Y343884D01*
X50541Y343931D01*
X50549Y343962D01*
X50556Y343993D01*
X50564Y344008D01*
Y344016D01*
X50618Y344195D01*
X50681Y344350D01*
X50743Y344482D01*
X50797Y344590D01*
X50844Y344683D01*
X50882Y344745D01*
X50913Y344784D01*
X50921Y344800D01*
X51030Y344939D01*
X51146Y345056D01*
X51262Y345164D01*
X51371Y345250D01*
X51464Y345320D01*
X51542Y345374D01*
X51573Y345390D01*
X51596Y345405D01*
X51604Y345413D01*
X51612D01*
X51767Y345483D01*
X51930Y345537D01*
X52077Y345576D01*
X52217Y345599D01*
X52341Y345615D01*
X52388Y345622D01*
X52426Y345630D01*
X52512D01*
X52714Y345615D01*
X52892Y345584D01*
X53063Y345545D01*
X53210Y345491D01*
X53327Y345444D01*
X53381Y345421D01*
X53420Y345397D01*
X53451Y345382D01*
X53474Y345366D01*
X53490Y345358D01*
X53497D01*
X53653Y345250D01*
X53792Y345118D01*
X53909Y344986D01*
X54009Y344862D01*
X54087Y344745D01*
X54141Y344652D01*
X54165Y344614D01*
X54172Y344590D01*
X54188Y344575D01*
Y344567D01*
X54235Y344458D01*
X54281Y344334D01*
X54335Y344195D01*
X54382Y344047D01*
X54483Y343737D01*
X54576Y343419D01*
X54623Y343271D01*
X54661Y343131D01*
X54700Y343007D01*
X54724Y342899D01*
X54755Y342806D01*
X54770Y342736D01*
X54778Y342689D01*
X54786Y342674D01*
X54832Y342495D01*
X54871Y342324D01*
X54918Y342177D01*
X54956Y342045D01*
X54995Y341929D01*
X55026Y341828D01*
X55057Y341735D01*
X55088Y341657D01*
X55111Y341587D01*
X55135Y341533D01*
X55158Y341494D01*
X55173Y341455D01*
X55189Y341432D01*
X55197Y341417D01*
X55205Y341401D01*
X55251Y341339D01*
X55305Y341277D01*
X55406Y341191D01*
X55515Y341122D01*
X55624Y341083D01*
X55717Y341052D01*
X55794Y341044D01*
X55825Y341036D01*
X55864D01*
X55949Y341044D01*
X56035Y341052D01*
X56190Y341098D01*
X56330Y341168D01*
X56446Y341246D01*
X56547Y341323D01*
X56617Y341393D01*
X56664Y341440D01*
X56671Y341447D01*
X56679Y341455D01*
X56741Y341541D01*
X56788Y341626D01*
X56873Y341828D01*
X56935Y342037D01*
X56974Y342239D01*
X56989Y342340D01*
X57005Y342425D01*
X57013Y342511D01*
Y342581D01*
X57020Y342635D01*
Y342681D01*
Y342712D01*
Y342720D01*
X57013Y342875D01*
X57005Y343023D01*
X56982Y343155D01*
X56958Y343287D01*
X56927Y343403D01*
X56896Y343512D01*
X56865Y343605D01*
X56826Y343698D01*
X56788Y343776D01*
X56757Y343845D01*
X56726Y343900D01*
X56695Y343954D01*
X56671Y343993D01*
X56648Y344016D01*
X56640Y344032D01*
X56632Y344039D01*
X56555Y344125D01*
X56470Y344202D01*
X56384Y344264D01*
X56291Y344326D01*
X56097Y344427D01*
X55919Y344505D01*
X55833Y344536D01*
X55756Y344559D01*
X55686Y344575D01*
X55624Y344590D01*
X55569Y344598D01*
X55531Y344606D01*
X55507Y344614D01*
X55500D01*
X55694Y345840D01*
X55903Y345793D01*
D02*
G37*
G36*
X55500Y364153D02*
X55608D01*
X55717Y364145D01*
X55810Y364138D01*
X55895Y364130D01*
X55973Y364122D01*
X56035D01*
X56097Y364114D01*
X56143Y364107D01*
X56182Y364099D01*
X56213D01*
X56237Y364091D01*
X56252D01*
X56446Y364045D01*
X56625Y363983D01*
X56780Y363920D01*
X56919Y363858D01*
X57028Y363804D01*
X57106Y363757D01*
X57137Y363734D01*
X57160Y363719D01*
X57168Y363711D01*
X57176D01*
X57307Y363595D01*
X57432Y363463D01*
X57533Y363331D01*
X57626Y363191D01*
X57696Y363075D01*
X57727Y363020D01*
X57750Y362974D01*
X57773Y362935D01*
X57781Y362904D01*
X57796Y362888D01*
Y362881D01*
X57874Y362663D01*
X57936Y362454D01*
X57975Y362252D01*
X58006Y362066D01*
X58014Y361981D01*
X58021Y361903D01*
X58029Y361833D01*
Y361779D01*
X58037Y361732D01*
Y361701D01*
Y361678D01*
Y361670D01*
X58021Y361399D01*
X57983Y361150D01*
X57921Y360910D01*
X57843Y360692D01*
X57750Y360483D01*
X57649Y360289D01*
X57533Y360118D01*
X57416Y359963D01*
X57307Y359823D01*
X57191Y359699D01*
X57090Y359590D01*
X56997Y359505D01*
X56919Y359435D01*
X56858Y359389D01*
X56819Y359358D01*
X56803Y359350D01*
X57874D01*
Y358240D01*
X50572D01*
Y359482D01*
X54661D01*
X54817Y359489D01*
X54972Y359497D01*
X55104Y359513D01*
X55236Y359528D01*
X55352Y359552D01*
X55461Y359567D01*
X55554Y359583D01*
X55639Y359606D01*
X55709Y359621D01*
X55771Y359645D01*
X55825Y359660D01*
X55864Y359668D01*
X55895Y359683D01*
X55911Y359691D01*
X55919D01*
X56089Y359777D01*
X56244Y359885D01*
X56376Y360002D01*
X56493Y360110D01*
X56578Y360219D01*
X56640Y360304D01*
X56664Y360335D01*
X56679Y360359D01*
X56695Y360374D01*
Y360382D01*
X56788Y360568D01*
X56858Y360747D01*
X56904Y360925D01*
X56935Y361080D01*
X56958Y361220D01*
X56966Y361274D01*
Y361329D01*
X56974Y361367D01*
Y361399D01*
Y361414D01*
Y361422D01*
X56958Y361624D01*
X56927Y361802D01*
X56889Y361957D01*
X56834Y362097D01*
X56788Y362206D01*
X56741Y362283D01*
X56726Y362314D01*
X56710Y362337D01*
X56702Y362345D01*
Y362353D01*
X56586Y362485D01*
X56462Y362594D01*
X56337Y362679D01*
X56213Y362741D01*
X56105Y362795D01*
X56012Y362826D01*
X55981Y362834D01*
X55957Y362842D01*
X55942Y362850D01*
X55934D01*
X55864Y362865D01*
X55779Y362873D01*
X55686Y362881D01*
X55585Y362888D01*
X55367Y362904D01*
X55150Y362912D01*
X54949D01*
X54855Y362919D01*
X50572D01*
Y364161D01*
X55375D01*
X55500Y364153D01*
D02*
G37*
G36*
X57874Y355090D02*
X47794D01*
Y356331D01*
X57874D01*
Y355090D01*
D02*
G37*
G36*
Y336535D02*
X56462D01*
Y337948D01*
X57874D01*
Y336535D01*
D02*
G37*
G36*
X39112Y168339D02*
X34292Y143541D01*
X25325Y145284D01*
X30145Y170082D01*
X39112Y168339D01*
D02*
G37*
G36*
X60891Y276583D02*
X56712Y255081D01*
X47488Y256874D01*
X51667Y278376D01*
X60891Y276583D01*
D02*
G37*
G36*
X54592Y334758D02*
X54902Y334727D01*
X55197Y334681D01*
X55468Y334627D01*
X55717Y334557D01*
X55942Y334479D01*
X56151Y334394D01*
X56345Y334308D01*
X56508Y334231D01*
X56656Y334145D01*
X56780Y334068D01*
X56881Y333998D01*
X56958Y333944D01*
X57013Y333897D01*
X57044Y333866D01*
X57059Y333858D01*
X57230Y333680D01*
X57385Y333493D01*
X57509Y333299D01*
X57626Y333098D01*
X57719Y332896D01*
X57796Y332694D01*
X57866Y332500D01*
X57913Y332314D01*
X57952Y332136D01*
X57983Y331973D01*
X58006Y331825D01*
X58021Y331693D01*
X58029Y331592D01*
X58037Y331515D01*
Y331484D01*
Y331460D01*
Y331453D01*
Y331445D01*
X58029Y331228D01*
X58006Y331018D01*
X57975Y330816D01*
X57928Y330622D01*
X57874Y330444D01*
X57812Y330281D01*
X57750Y330126D01*
X57680Y329986D01*
X57618Y329862D01*
X57556Y329753D01*
X57494Y329652D01*
X57440Y329575D01*
X57393Y329513D01*
X57362Y329466D01*
X57339Y329435D01*
X57331Y329427D01*
X57191Y329280D01*
X57044Y329148D01*
X56881Y329024D01*
X56718Y328923D01*
X56555Y328822D01*
X56392Y328744D01*
X56229Y328667D01*
X56074Y328605D01*
X55934Y328550D01*
X55794Y328512D01*
X55670Y328473D01*
X55569Y328450D01*
X55484Y328426D01*
X55414Y328411D01*
X55375Y328403D01*
X55360D01*
X55197Y329621D01*
X55367Y329652D01*
X55523Y329683D01*
X55670Y329730D01*
X55802Y329777D01*
X55926Y329823D01*
X56043Y329877D01*
X56143Y329932D01*
X56237Y329978D01*
X56314Y330032D01*
X56384Y330079D01*
X56446Y330126D01*
X56493Y330165D01*
X56532Y330195D01*
X56555Y330219D01*
X56570Y330234D01*
X56578Y330242D01*
X56656Y330335D01*
X56726Y330436D01*
X56780Y330537D01*
X56834Y330638D01*
X56873Y330739D01*
X56912Y330840D01*
X56966Y331034D01*
X56982Y331119D01*
X56997Y331204D01*
X57005Y331274D01*
X57013Y331336D01*
X57020Y331391D01*
Y331429D01*
Y331453D01*
Y331460D01*
X57013Y331623D01*
X56989Y331786D01*
X56958Y331934D01*
X56919Y332073D01*
X56865Y332205D01*
X56811Y332330D01*
X56749Y332438D01*
X56687Y332539D01*
X56632Y332624D01*
X56570Y332710D01*
X56516Y332772D01*
X56462Y332834D01*
X56423Y332873D01*
X56392Y332911D01*
X56369Y332927D01*
X56361Y332935D01*
X56229Y333036D01*
X56074Y333121D01*
X55919Y333191D01*
X55748Y333261D01*
X55569Y333315D01*
X55391Y333354D01*
X55212Y333393D01*
X55042Y333424D01*
X54871Y333447D01*
X54724Y333463D01*
X54584Y333478D01*
X54460Y333486D01*
X54359D01*
X54281Y333493D01*
X54219D01*
X53955Y333486D01*
X53715Y333470D01*
X53482Y333439D01*
X53272Y333400D01*
X53086Y333362D01*
X52908Y333307D01*
X52752Y333253D01*
X52613Y333199D01*
X52496Y333144D01*
X52388Y333098D01*
X52302Y333043D01*
X52225Y333005D01*
X52170Y332966D01*
X52132Y332935D01*
X52108Y332919D01*
X52101Y332911D01*
X51984Y332795D01*
X51876Y332679D01*
X51790Y332555D01*
X51713Y332430D01*
X51643Y332298D01*
X51588Y332174D01*
X51542Y332050D01*
X51511Y331934D01*
X51480Y331817D01*
X51464Y331716D01*
X51449Y331623D01*
X51433Y331546D01*
Y331484D01*
X51425Y331429D01*
Y331398D01*
Y331391D01*
X51433Y331274D01*
X51441Y331166D01*
X51480Y330964D01*
X51542Y330785D01*
X51612Y330630D01*
X51643Y330560D01*
X51682Y330506D01*
X51713Y330452D01*
X51736Y330413D01*
X51767Y330382D01*
X51782Y330359D01*
X51790Y330343D01*
X51798Y330335D01*
X51868Y330258D01*
X51953Y330180D01*
X52124Y330056D01*
X52310Y329947D01*
X52489Y329862D01*
X52652Y329800D01*
X52721Y329777D01*
X52784Y329753D01*
X52830Y329738D01*
X52869Y329730D01*
X52892Y329722D01*
X52900D01*
X52714Y328519D01*
X52512Y328566D01*
X52326Y328620D01*
X52147Y328690D01*
X51984Y328760D01*
X51829Y328845D01*
X51689Y328923D01*
X51565Y329008D01*
X51449Y329086D01*
X51348Y329171D01*
X51262Y329241D01*
X51185Y329311D01*
X51123Y329373D01*
X51076Y329427D01*
X51045Y329466D01*
X51022Y329489D01*
X51014Y329497D01*
X50906Y329644D01*
X50812Y329800D01*
X50735Y329955D01*
X50665Y330118D01*
X50603Y330281D01*
X50556Y330444D01*
X50517Y330599D01*
X50486Y330747D01*
X50463Y330894D01*
X50440Y331018D01*
X50424Y331142D01*
X50417Y331243D01*
X50409Y331321D01*
Y331383D01*
Y331422D01*
Y331437D01*
X50417Y331616D01*
X50424Y331786D01*
X50448Y331949D01*
X50479Y332112D01*
X50510Y332260D01*
X50549Y332407D01*
X50595Y332539D01*
X50634Y332663D01*
X50673Y332780D01*
X50719Y332880D01*
X50758Y332966D01*
X50789Y333043D01*
X50820Y333105D01*
X50836Y333144D01*
X50851Y333175D01*
X50859Y333183D01*
X50944Y333330D01*
X51045Y333463D01*
X51146Y333587D01*
X51255Y333703D01*
X51363Y333812D01*
X51472Y333912D01*
X51581Y333998D01*
X51689Y334083D01*
X51790Y334153D01*
X51883Y334207D01*
X51969Y334262D01*
X52039Y334300D01*
X52101Y334339D01*
X52147Y334363D01*
X52178Y334370D01*
X52186Y334378D01*
X52357Y334448D01*
X52527Y334502D01*
X52706Y334557D01*
X52884Y334603D01*
X53233Y334673D01*
X53396Y334696D01*
X53552Y334720D01*
X53699Y334735D01*
X53839Y334743D01*
X53955Y334751D01*
X54056Y334758D01*
X54141Y334766D01*
X54258D01*
X54592Y334758D01*
D02*
G37*
G36*
X57874Y326098D02*
X53730D01*
X53583Y326091D01*
X53443Y326083D01*
X53311Y326067D01*
X53187Y326052D01*
X53078Y326036D01*
X52978Y326013D01*
X52884Y325997D01*
X52807Y325982D01*
X52737Y325958D01*
X52675Y325943D01*
X52628Y325927D01*
X52589Y325912D01*
X52558Y325904D01*
X52543Y325897D01*
X52535D01*
X52364Y325811D01*
X52209Y325703D01*
X52077Y325594D01*
X51961Y325477D01*
X51876Y325377D01*
X51814Y325291D01*
X51790Y325260D01*
X51775Y325237D01*
X51759Y325221D01*
Y325214D01*
X51666Y325027D01*
X51596Y324841D01*
X51542Y324670D01*
X51511Y324507D01*
X51487Y324376D01*
X51480Y324313D01*
Y324267D01*
X51472Y324228D01*
Y324197D01*
Y324182D01*
Y324174D01*
X51480Y324042D01*
X51487Y323918D01*
X51511Y323801D01*
X51542Y323685D01*
X51573Y323584D01*
X51604Y323491D01*
X51643Y323413D01*
X51682Y323336D01*
X51728Y323266D01*
X51767Y323204D01*
X51798Y323157D01*
X51829Y323118D01*
X51860Y323080D01*
X51883Y323056D01*
X51891Y323048D01*
X51899Y323041D01*
X51984Y322971D01*
X52077Y322909D01*
X52178Y322854D01*
X52287Y322808D01*
X52512Y322738D01*
X52729Y322684D01*
X52838Y322668D01*
X52931Y322660D01*
X53016Y322653D01*
X53094Y322645D01*
X53164Y322637D01*
X57874D01*
Y321396D01*
X53055D01*
X52869Y321403D01*
X52698Y321419D01*
X52543Y321434D01*
X52395Y321458D01*
X52263Y321481D01*
X52139Y321504D01*
X52031Y321528D01*
X51938Y321551D01*
X51852Y321574D01*
X51782Y321597D01*
X51720Y321621D01*
X51682Y321636D01*
X51643Y321652D01*
X51627Y321659D01*
X51619D01*
X51519Y321714D01*
X51418Y321768D01*
X51239Y321900D01*
X51092Y322040D01*
X50968Y322179D01*
X50867Y322311D01*
X50828Y322366D01*
X50797Y322412D01*
X50766Y322459D01*
X50750Y322490D01*
X50735Y322505D01*
Y322513D01*
X50626Y322746D01*
X50549Y322987D01*
X50486Y323219D01*
X50448Y323436D01*
X50432Y323537D01*
X50424Y323630D01*
X50417Y323708D01*
Y323786D01*
X50409Y323840D01*
Y323879D01*
Y323910D01*
Y323918D01*
X50417Y324158D01*
X50455Y324391D01*
X50502Y324608D01*
X50564Y324818D01*
X50642Y325004D01*
X50727Y325190D01*
X50820Y325353D01*
X50913Y325501D01*
X51006Y325640D01*
X51099Y325757D01*
X51185Y325858D01*
X51262Y325943D01*
X51325Y326013D01*
X51371Y326059D01*
X51410Y326091D01*
X51418Y326098D01*
X47794D01*
Y327340D01*
X57874D01*
Y326098D01*
D02*
G37*
G36*
X16929Y129134D02*
X16124D01*
Y134498D01*
X14305Y129134D01*
X13554D01*
X11715Y134406D01*
Y129134D01*
X10910D01*
Y135434D01*
X12036D01*
X13549Y131050D01*
X13588Y130928D01*
X13626Y130812D01*
X13665Y130705D01*
X13699Y130608D01*
X13728Y130516D01*
X13752Y130434D01*
X13781Y130361D01*
X13801Y130293D01*
X13820Y130230D01*
X13840Y130182D01*
X13849Y130138D01*
X13864Y130099D01*
X13874Y130070D01*
X13879Y130051D01*
X13883Y130041D01*
Y130036D01*
X13903Y130099D01*
X13922Y130167D01*
X13971Y130312D01*
X14019Y130468D01*
X14068Y130623D01*
X14092Y130691D01*
X14116Y130759D01*
X14135Y130817D01*
X14150Y130870D01*
X14165Y130914D01*
X14174Y130943D01*
X14179Y130967D01*
X14184Y130972D01*
X15678Y135434D01*
X16929D01*
Y129134D01*
D02*
G37*
G36*
X-250Y134828D02*
Y133698D01*
X323D01*
Y133096D01*
X-250D01*
Y130468D01*
Y130341D01*
X-254Y130230D01*
X-259Y130128D01*
X-264Y130031D01*
X-269Y129949D01*
X-279Y129876D01*
X-288Y129808D01*
X-298Y129750D01*
X-303Y129701D01*
X-313Y129663D01*
X-322Y129629D01*
X-327Y129599D01*
X-332Y129580D01*
X-337Y129566D01*
X-342Y129561D01*
Y129556D01*
X-381Y129478D01*
X-434Y129410D01*
X-487Y129347D01*
X-541Y129299D01*
X-589Y129260D01*
X-628Y129231D01*
X-657Y129211D01*
X-662Y129207D01*
X-667D01*
X-764Y129163D01*
X-865Y129129D01*
X-977Y129110D01*
X-1084Y129090D01*
X-1176Y129080D01*
X-1215D01*
X-1254Y129076D01*
X-1321D01*
X-1418Y129080D01*
X-1520Y129085D01*
X-1622Y129095D01*
X-1709Y129110D01*
X-1792Y129124D01*
X-1826Y129129D01*
X-1855Y129134D01*
X-1874Y129139D01*
X-1894D01*
X-1903Y129144D01*
X-1908D01*
X-1797Y129827D01*
X-1719Y129818D01*
X-1656Y129813D01*
X-1598Y129803D01*
X-1549D01*
X-1511Y129798D01*
X-1457D01*
X-1399Y129803D01*
X-1346Y129808D01*
X-1302Y129818D01*
X-1263Y129827D01*
X-1234Y129837D01*
X-1215Y129842D01*
X-1200Y129852D01*
X-1195D01*
X-1161Y129876D01*
X-1137Y129900D01*
X-1094Y129949D01*
X-1084Y129968D01*
X-1074Y129988D01*
X-1064Y129997D01*
Y130002D01*
X-1060Y130021D01*
X-1050Y130046D01*
X-1040Y130109D01*
X-1035Y130177D01*
X-1030Y130249D01*
X-1026Y130317D01*
Y130376D01*
Y130400D01*
Y130414D01*
Y130424D01*
Y130429D01*
Y133096D01*
X-1797D01*
Y133698D01*
X-1026D01*
Y135289D01*
X-250Y134828D01*
D02*
G37*
G36*
X-2311Y133072D02*
X-4319D01*
X-4469Y133077D01*
X-4615Y133082D01*
X-4750Y133087D01*
X-4872D01*
X-4920Y133091D01*
X-4964D01*
X-4998Y133096D01*
X-5046D01*
X-2141Y129760D01*
Y129134D01*
X-6181D01*
Y129798D01*
X-3897D01*
X-3727Y129794D01*
X-3562Y129789D01*
X-3484Y129784D01*
X-3412Y129779D01*
X-3344Y129774D01*
X-3286D01*
X-3232Y129769D01*
X-3184Y129764D01*
X-3150D01*
X-3121Y129760D01*
X-3097D01*
X-3572Y130288D01*
X-6045Y133184D01*
Y133698D01*
X-2311D01*
Y133072D01*
D02*
G37*
G36*
X-9528Y129134D02*
X-10362D01*
Y132102D01*
X-13636D01*
Y129134D01*
X-14470D01*
Y135434D01*
X-13636D01*
Y132844D01*
X-10362D01*
Y135434D01*
X-9528D01*
Y129134D01*
D02*
G37*
G36*
X3199Y133795D02*
X3296Y133775D01*
X3378Y133751D01*
X3451Y133722D01*
X3514Y133693D01*
X3562Y133669D01*
X3592Y133649D01*
X3596Y133644D01*
X3601D01*
X3645Y133610D01*
X3684Y133572D01*
X3727Y133528D01*
X3771Y133479D01*
X3853Y133373D01*
X3926Y133266D01*
X3989Y133164D01*
X4018Y133116D01*
X4043Y133077D01*
X4062Y133048D01*
X4077Y133019D01*
X4081Y133004D01*
X4086Y132999D01*
Y133698D01*
X4785D01*
Y129134D01*
X4009D01*
Y131520D01*
X4004Y131700D01*
X3989Y131869D01*
X3970Y132020D01*
X3955Y132092D01*
X3946Y132155D01*
X3936Y132214D01*
X3921Y132267D01*
X3912Y132311D01*
X3902Y132349D01*
X3892Y132383D01*
X3887Y132403D01*
X3883Y132417D01*
Y132422D01*
X3844Y132519D01*
X3800Y132602D01*
X3752Y132674D01*
X3708Y132737D01*
X3664Y132781D01*
X3630Y132815D01*
X3606Y132839D01*
X3596Y132844D01*
X3519Y132897D01*
X3441Y132936D01*
X3368Y132960D01*
X3296Y132980D01*
X3238Y132990D01*
X3189Y132999D01*
X3145D01*
X3039Y132994D01*
X2937Y132975D01*
X2840Y132946D01*
X2753Y132917D01*
X2680Y132888D01*
X2651Y132873D01*
X2627Y132859D01*
X2607Y132849D01*
X2592Y132839D01*
X2583Y132834D01*
X2578D01*
X2306Y133547D01*
X2384Y133591D01*
X2457Y133630D01*
X2530Y133664D01*
X2602Y133693D01*
X2738Y133737D01*
X2854Y133771D01*
X2908Y133780D01*
X2956Y133785D01*
X3000Y133790D01*
X3034Y133795D01*
X3063Y133800D01*
X3102D01*
X3199Y133795D01*
D02*
G37*
G36*
X7976D02*
X8126Y133780D01*
X8267Y133751D01*
X8403Y133722D01*
X8529Y133683D01*
X8650Y133640D01*
X8757Y133591D01*
X8859Y133547D01*
X8946Y133499D01*
X9024Y133450D01*
X9096Y133407D01*
X9150Y133368D01*
X9198Y133339D01*
X9227Y133315D01*
X9252Y133295D01*
X9256Y133290D01*
X9378Y133169D01*
X9489Y133033D01*
X9581Y132893D01*
X9664Y132737D01*
X9732Y132582D01*
X9790Y132427D01*
X9834Y132272D01*
X9872Y132122D01*
X9901Y131981D01*
X9921Y131845D01*
X9940Y131724D01*
X9950Y131622D01*
Y131573D01*
X9955Y131535D01*
Y131501D01*
X9960Y131467D01*
Y131447D01*
Y131428D01*
Y131418D01*
Y131413D01*
X9955Y131205D01*
X9935Y131006D01*
X9906Y130822D01*
X9867Y130652D01*
X9824Y130492D01*
X9775Y130346D01*
X9722Y130215D01*
X9664Y130094D01*
X9611Y129992D01*
X9557Y129900D01*
X9509Y129823D01*
X9465Y129760D01*
X9426Y129706D01*
X9397Y129672D01*
X9378Y129653D01*
X9373Y129643D01*
X9256Y129536D01*
X9135Y129439D01*
X9009Y129362D01*
X8878Y129289D01*
X8752Y129231D01*
X8621Y129182D01*
X8495Y129139D01*
X8374Y129110D01*
X8262Y129085D01*
X8156Y129066D01*
X8063Y129051D01*
X7981Y129042D01*
X7913Y129037D01*
X7864Y129032D01*
X7821D01*
X7709Y129037D01*
X7603Y129042D01*
X7496Y129056D01*
X7399Y129076D01*
X7302Y129095D01*
X7210Y129119D01*
X7127Y129144D01*
X7045Y129173D01*
X6977Y129197D01*
X6909Y129221D01*
X6856Y129245D01*
X6807Y129265D01*
X6768Y129284D01*
X6744Y129299D01*
X6725Y129304D01*
X6720Y129308D01*
X6628Y129362D01*
X6540Y129425D01*
X6463Y129488D01*
X6385Y129551D01*
X6317Y129614D01*
X6254Y129682D01*
X6196Y129745D01*
X6143Y129808D01*
X6099Y129866D01*
X6060Y129920D01*
X6026Y129968D01*
X5997Y130012D01*
X5978Y130046D01*
X5963Y130070D01*
X5954Y130089D01*
X5949Y130094D01*
X5900Y130191D01*
X5861Y130298D01*
X5823Y130409D01*
X5793Y130521D01*
X5745Y130754D01*
X5731Y130865D01*
X5716Y130977D01*
X5706Y131079D01*
X5697Y131171D01*
X5692Y131258D01*
X5687Y131331D01*
X5682Y131394D01*
Y131438D01*
Y131467D01*
Y131476D01*
X5687Y131675D01*
X5706Y131860D01*
X5735Y132039D01*
X5774Y132199D01*
X5823Y132354D01*
X5871Y132495D01*
X5925Y132621D01*
X5983Y132737D01*
X6041Y132839D01*
X6094Y132927D01*
X6143Y133004D01*
X6191Y133067D01*
X6230Y133116D01*
X6259Y133150D01*
X6278Y133174D01*
X6283Y133179D01*
X6400Y133290D01*
X6521Y133382D01*
X6647Y133465D01*
X6773Y133538D01*
X6904Y133596D01*
X7030Y133649D01*
X7156Y133688D01*
X7278Y133722D01*
X7389Y133746D01*
X7491Y133766D01*
X7583Y133780D01*
X7666Y133790D01*
X7729Y133795D01*
X7777Y133800D01*
X7821D01*
X7976Y133795D01*
D02*
G37*
G36*
X54467Y372433D02*
X54739Y372402D01*
X54995Y372363D01*
X55236Y372309D01*
X55468Y372247D01*
X55678Y372177D01*
X55880Y372107D01*
X56058Y372030D01*
X56229Y371952D01*
X56369Y371882D01*
X56501Y371812D01*
X56601Y371750D01*
X56687Y371696D01*
X56749Y371657D01*
X56780Y371626D01*
X56795Y371618D01*
X56982Y371455D01*
X57152Y371277D01*
X57292Y371091D01*
X57416Y370904D01*
X57525Y370710D01*
X57610Y370516D01*
X57680Y370322D01*
X57742Y370136D01*
X57781Y369966D01*
X57820Y369802D01*
X57843Y369655D01*
X57859Y369531D01*
X57866Y369430D01*
X57874Y369353D01*
Y369321D01*
Y369298D01*
Y369290D01*
Y369283D01*
X57866Y369058D01*
X57835Y368848D01*
X57789Y368646D01*
X57727Y368452D01*
X57649Y368274D01*
X57571Y368111D01*
X57486Y367956D01*
X57393Y367816D01*
X57307Y367692D01*
X57222Y367575D01*
X57137Y367482D01*
X57067Y367405D01*
X57005Y367343D01*
X56958Y367296D01*
X56927Y367265D01*
X56919Y367257D01*
X57331D01*
X57509Y367265D01*
X57672D01*
X57820Y367273D01*
X57952Y367281D01*
X58060Y367288D01*
X58161Y367304D01*
X58246Y367312D01*
X58316Y367319D01*
X58378Y367327D01*
X58425Y367335D01*
X58456Y367343D01*
X58487D01*
X58495Y367350D01*
X58503D01*
X58720Y367428D01*
X58914Y367521D01*
X59077Y367622D01*
X59216Y367731D01*
X59325Y367831D01*
X59403Y367909D01*
X59426Y367940D01*
X59449Y367963D01*
X59457Y367979D01*
X59465Y367987D01*
X59527Y368080D01*
X59581Y368181D01*
X59667Y368390D01*
X59729Y368607D01*
X59768Y368825D01*
X59783Y368926D01*
X59799Y369019D01*
X59806Y369096D01*
Y369174D01*
X59814Y369228D01*
Y369275D01*
Y369306D01*
Y369314D01*
X59806Y369461D01*
X59799Y369601D01*
X59783Y369725D01*
X59760Y369849D01*
X59736Y369958D01*
X59705Y370059D01*
X59674Y370160D01*
X59636Y370245D01*
X59605Y370315D01*
X59574Y370385D01*
X59542Y370439D01*
X59519Y370485D01*
X59496Y370524D01*
X59480Y370548D01*
X59465Y370563D01*
Y370571D01*
X59356Y370687D01*
X59232Y370780D01*
X59100Y370850D01*
X58968Y370904D01*
X58844Y370943D01*
X58790Y370959D01*
X58751Y370974D01*
X58712Y370982D01*
X58681D01*
X58666Y370990D01*
X58658D01*
X58479Y372193D01*
X58697D01*
X58891Y372169D01*
X59077Y372130D01*
X59255Y372084D01*
X59411Y372030D01*
X59558Y371960D01*
X59690Y371890D01*
X59806Y371812D01*
X59907Y371743D01*
X60000Y371673D01*
X60078Y371603D01*
X60140Y371541D01*
X60186Y371494D01*
X60217Y371448D01*
X60241Y371424D01*
X60249Y371417D01*
X60350Y371261D01*
X60443Y371091D01*
X60520Y370920D01*
X60590Y370749D01*
X60644Y370571D01*
X60691Y370392D01*
X60730Y370222D01*
X60761Y370059D01*
X60792Y369903D01*
X60807Y369764D01*
X60823Y369632D01*
X60831Y369523D01*
Y369430D01*
X60838Y369360D01*
Y369321D01*
Y369306D01*
X60831Y369104D01*
X60823Y368910D01*
X60799Y368724D01*
X60776Y368553D01*
X60738Y368390D01*
X60706Y368235D01*
X60668Y368095D01*
X60629Y367963D01*
X60590Y367847D01*
X60551Y367746D01*
X60512Y367661D01*
X60481Y367583D01*
X60458Y367529D01*
X60435Y367482D01*
X60427Y367459D01*
X60419Y367451D01*
X60342Y367312D01*
X60256Y367187D01*
X60163Y367071D01*
X60070Y366962D01*
X59977Y366862D01*
X59884Y366768D01*
X59791Y366691D01*
X59705Y366621D01*
X59620Y366551D01*
X59542Y366497D01*
X59473Y366450D01*
X59411Y366419D01*
X59364Y366388D01*
X59325Y366365D01*
X59302Y366349D01*
X59294D01*
X59147Y366287D01*
X58991Y366233D01*
X58813Y366186D01*
X58619Y366148D01*
X58223Y366086D01*
X58021Y366062D01*
X57828Y366047D01*
X57641Y366031D01*
X57463Y366016D01*
X57307Y366008D01*
X57168D01*
X57051Y366000D01*
X50572D01*
Y367141D01*
X51456D01*
X51270Y367304D01*
X51107Y367475D01*
X50968Y367645D01*
X50851Y367824D01*
X50750Y368010D01*
X50665Y368181D01*
X50595Y368359D01*
X50541Y368522D01*
X50494Y368677D01*
X50463Y368817D01*
X50440Y368949D01*
X50424Y369058D01*
X50417Y369151D01*
X50409Y369220D01*
Y369259D01*
Y369275D01*
X50417Y369453D01*
X50432Y369624D01*
X50455Y369795D01*
X50486Y369950D01*
X50525Y370097D01*
X50564Y370237D01*
X50611Y370369D01*
X50649Y370485D01*
X50696Y370594D01*
X50743Y370687D01*
X50781Y370773D01*
X50820Y370835D01*
X50851Y370897D01*
X50875Y370936D01*
X50890Y370959D01*
X50898Y370967D01*
X50991Y371098D01*
X51092Y371223D01*
X51200Y371339D01*
X51317Y371440D01*
X51425Y371541D01*
X51542Y371634D01*
X51651Y371711D01*
X51759Y371789D01*
X51860Y371851D01*
X51961Y371913D01*
X52046Y371960D01*
X52116Y371999D01*
X52178Y372030D01*
X52225Y372053D01*
X52256Y372061D01*
X52263Y372069D01*
X52426Y372130D01*
X52597Y372193D01*
X52931Y372286D01*
X53257Y372348D01*
X53412Y372371D01*
X53552Y372394D01*
X53691Y372410D01*
X53808Y372418D01*
X53916Y372433D01*
X54009D01*
X54087Y372441D01*
X54188D01*
X54467Y372433D01*
D02*
G37*
G36*
X1841Y129134D02*
X1065D01*
Y133698D01*
X1841D01*
Y129134D01*
D02*
G37*
G36*
X-15978D02*
X-16861D01*
Y130017D01*
X-15978D01*
Y129134D01*
D02*
G37*
G36*
X239Y126314D02*
X341Y126305D01*
X438Y126295D01*
X530Y126280D01*
X613Y126266D01*
X695Y126251D01*
X768Y126237D01*
X831Y126222D01*
X889Y126208D01*
X943Y126193D01*
X986Y126179D01*
X1020Y126169D01*
X1044Y126159D01*
X1059Y126154D01*
X1064D01*
X1146Y126125D01*
X1219Y126086D01*
X1292Y126052D01*
X1360Y126014D01*
X1418Y125975D01*
X1476Y125936D01*
X1529Y125902D01*
X1573Y125863D01*
X1612Y125829D01*
X1651Y125795D01*
X1680Y125766D01*
X1704Y125742D01*
X1723Y125723D01*
X1738Y125708D01*
X1743Y125698D01*
X1748Y125694D01*
X1830Y125577D01*
X1898Y125446D01*
X1956Y125315D01*
X2000Y125194D01*
X2019Y125136D01*
X2039Y125083D01*
X2053Y125034D01*
X2063Y124995D01*
X2073Y124961D01*
X2078Y124932D01*
X2082Y124918D01*
Y124913D01*
X1326Y124811D01*
X1302Y124898D01*
X1273Y124981D01*
X1243Y125053D01*
X1214Y125121D01*
X1185Y125184D01*
X1151Y125238D01*
X1122Y125286D01*
X1093Y125330D01*
X1064Y125369D01*
X1035Y125398D01*
X1011Y125427D01*
X991Y125446D01*
X972Y125466D01*
X957Y125475D01*
X952Y125485D01*
X948D01*
X894Y125519D01*
X836Y125548D01*
X710Y125597D01*
X574Y125630D01*
X443Y125655D01*
X380Y125664D01*
X327Y125669D01*
X273Y125674D01*
X225D01*
X191Y125679D01*
X138D01*
X31Y125674D01*
X-66Y125669D01*
X-158Y125655D01*
X-246Y125635D01*
X-323Y125616D01*
X-396Y125597D01*
X-459Y125572D01*
X-522Y125548D01*
X-570Y125519D01*
X-614Y125495D01*
X-653Y125475D01*
X-687Y125456D01*
X-711Y125436D01*
X-726Y125422D01*
X-735Y125417D01*
X-740Y125412D01*
X-779Y125373D01*
X-813Y125330D01*
X-871Y125228D01*
X-910Y125121D01*
X-934Y125010D01*
X-954Y124908D01*
X-958Y124864D01*
Y124825D01*
X-963Y124792D01*
Y124767D01*
Y124753D01*
Y124748D01*
Y124728D01*
Y124699D01*
Y124631D01*
X-958Y124602D01*
Y124573D01*
Y124554D01*
Y124549D01*
X-871Y124520D01*
X-769Y124491D01*
X-667Y124467D01*
X-556Y124442D01*
X-323Y124399D01*
X-212Y124374D01*
X-100Y124360D01*
X7Y124340D01*
X104Y124326D01*
X191Y124311D01*
X268Y124302D01*
X336Y124292D01*
X380Y124287D01*
X399D01*
X414Y124282D01*
X424D01*
X506Y124273D01*
X584Y124263D01*
X656Y124248D01*
X724Y124239D01*
X783Y124229D01*
X841Y124219D01*
X889Y124209D01*
X938Y124205D01*
X977Y124195D01*
X1011Y124185D01*
X1040Y124180D01*
X1064Y124176D01*
X1083Y124171D01*
X1098D01*
X1103Y124166D01*
X1108D01*
X1219Y124132D01*
X1326Y124088D01*
X1418Y124045D01*
X1500Y124006D01*
X1568Y123967D01*
X1622Y123938D01*
X1641Y123923D01*
X1656Y123918D01*
X1660Y123909D01*
X1665D01*
X1753Y123841D01*
X1830Y123768D01*
X1898Y123695D01*
X1956Y123627D01*
X2000Y123564D01*
X2034Y123511D01*
X2049Y123496D01*
X2058Y123482D01*
X2063Y123472D01*
Y123467D01*
X2111Y123361D01*
X2150Y123254D01*
X2175Y123152D01*
X2194Y123060D01*
X2204Y122978D01*
X2208Y122944D01*
Y122915D01*
X2213Y122890D01*
Y122871D01*
Y122861D01*
Y122856D01*
X2208Y122750D01*
X2194Y122653D01*
X2175Y122556D01*
X2150Y122468D01*
X2121Y122386D01*
X2087Y122308D01*
X2049Y122236D01*
X2010Y122172D01*
X1976Y122114D01*
X1937Y122061D01*
X1903Y122017D01*
X1874Y121983D01*
X1850Y121954D01*
X1830Y121935D01*
X1816Y121920D01*
X1811Y121915D01*
X1733Y121852D01*
X1646Y121794D01*
X1554Y121746D01*
X1462Y121707D01*
X1365Y121668D01*
X1268Y121639D01*
X1175Y121615D01*
X1083Y121595D01*
X996Y121581D01*
X914Y121571D01*
X841Y121561D01*
X778Y121556D01*
X729D01*
X691Y121552D01*
X656D01*
X487Y121556D01*
X332Y121576D01*
X186Y121600D01*
X123Y121610D01*
X60Y121624D01*
X7Y121639D01*
X-42Y121653D01*
X-85Y121663D01*
X-124Y121673D01*
X-153Y121683D01*
X-173Y121692D01*
X-187Y121697D01*
X-192D01*
X-265Y121726D01*
X-343Y121765D01*
X-488Y121843D01*
X-629Y121930D01*
X-755Y122012D01*
X-813Y122056D01*
X-866Y122090D01*
X-910Y122124D01*
X-949Y122158D01*
X-978Y122182D01*
X-1002Y122202D01*
X-1017Y122211D01*
X-1022Y122216D01*
X-1036Y122100D01*
X-1060Y121993D01*
X-1085Y121896D01*
X-1114Y121814D01*
X-1138Y121746D01*
X-1157Y121697D01*
X-1167Y121678D01*
X-1172Y121663D01*
X-1177Y121658D01*
Y121653D01*
X-1987D01*
X-1933Y121750D01*
X-1895Y121847D01*
X-1856Y121944D01*
X-1832Y122027D01*
X-1812Y122100D01*
X-1802Y122129D01*
X-1798Y122153D01*
X-1793Y122172D01*
Y122187D01*
X-1788Y122197D01*
Y122202D01*
X-1778Y122265D01*
X-1773Y122342D01*
X-1764Y122434D01*
X-1759Y122536D01*
X-1754Y122643D01*
X-1749Y122759D01*
X-1744Y122992D01*
Y123104D01*
Y123210D01*
X-1739Y123307D01*
Y123390D01*
Y123463D01*
Y123492D01*
Y123516D01*
Y123535D01*
Y123555D01*
Y123560D01*
Y123564D01*
Y124593D01*
Y124685D01*
Y124772D01*
X-1735Y124850D01*
Y124922D01*
X-1730Y124986D01*
Y125044D01*
X-1725Y125097D01*
X-1720Y125141D01*
X-1715Y125180D01*
Y125213D01*
X-1710Y125242D01*
X-1705Y125267D01*
Y125286D01*
X-1701Y125296D01*
Y125306D01*
X-1671Y125422D01*
X-1633Y125524D01*
X-1594Y125616D01*
X-1550Y125689D01*
X-1516Y125752D01*
X-1487Y125795D01*
X-1468Y125824D01*
X-1458Y125834D01*
X-1385Y125907D01*
X-1303Y125975D01*
X-1216Y126033D01*
X-1123Y126086D01*
X-1046Y126125D01*
X-1012Y126140D01*
X-978Y126154D01*
X-954Y126164D01*
X-934Y126174D01*
X-925Y126179D01*
X-920D01*
X-847Y126203D01*
X-774Y126227D01*
X-619Y126261D01*
X-459Y126285D01*
X-309Y126300D01*
X-241Y126310D01*
X-178Y126314D01*
X-120D01*
X-71Y126319D01*
X26D01*
X239Y126314D01*
D02*
G37*
G36*
X10260Y127066D02*
X9483D01*
Y127954D01*
X10260D01*
Y127066D01*
D02*
G37*
G36*
X20740Y170866D02*
X-19685D01*
Y474016D01*
X20740D01*
Y170866D01*
D02*
G37*
G36*
X16535Y121653D02*
X15735D01*
Y126596D01*
X12427Y121653D01*
X11569D01*
Y127954D01*
X12369D01*
Y123007D01*
X15682Y127954D01*
X16535D01*
Y121653D01*
D02*
G37*
G36*
X8310D02*
X7534D01*
Y123463D01*
X6995Y123986D01*
X5477Y121653D01*
X4522D01*
X6447Y124520D01*
X4697Y126217D01*
X5700D01*
X7534Y124360D01*
Y127954D01*
X8310D01*
Y121653D01*
D02*
G37*
%LPC*%
G36*
X818Y140645D02*
X764D01*
X658Y140640D01*
X551Y140625D01*
X454Y140601D01*
X367Y140577D01*
X279Y140538D01*
X202Y140504D01*
X129Y140460D01*
X61Y140421D01*
X3Y140378D01*
X-51Y140334D01*
X-94Y140300D01*
X-128Y140266D01*
X-157Y140237D01*
X-181Y140213D01*
X-191Y140198D01*
X-196Y140193D01*
X-240Y140135D01*
X-279Y140072D01*
X-346Y139936D01*
X-395Y139796D01*
X-434Y139655D01*
X-448Y139592D01*
X-463Y139529D01*
X-472Y139476D01*
X-482Y139427D01*
X-487Y139388D01*
Y139359D01*
X-492Y139340D01*
Y139335D01*
X2064D01*
X2054Y139447D01*
X2035Y139548D01*
X2011Y139645D01*
X1986Y139738D01*
X1953Y139820D01*
X1919Y139898D01*
X1885Y139970D01*
X1846Y140033D01*
X1812Y140092D01*
X1778Y140140D01*
X1749Y140184D01*
X1720Y140223D01*
X1695Y140247D01*
X1676Y140271D01*
X1666Y140281D01*
X1661Y140286D01*
X1594Y140349D01*
X1516Y140402D01*
X1443Y140451D01*
X1366Y140494D01*
X1293Y140528D01*
X1215Y140557D01*
X1147Y140582D01*
X1075Y140601D01*
X1012Y140615D01*
X953Y140625D01*
X900Y140635D01*
X852Y140640D01*
X818Y140645D01*
D02*
G37*
G36*
X18326Y138903D02*
X18321D01*
Y138617D01*
Y138525D01*
X18326Y138438D01*
X18331Y138355D01*
X18341Y138283D01*
X18350Y138215D01*
X18360Y138152D01*
X18375Y138093D01*
X18384Y138040D01*
X18394Y137996D01*
X18408Y137958D01*
X18418Y137924D01*
X18428Y137895D01*
X18438Y137875D01*
X18442Y137861D01*
X18447Y137851D01*
Y137846D01*
X18515Y137725D01*
X18598Y137618D01*
X18680Y137526D01*
X18767Y137453D01*
X18840Y137390D01*
X18874Y137366D01*
X18903Y137346D01*
X18927Y137332D01*
X18947Y137322D01*
X18957Y137313D01*
X18961D01*
X19092Y137250D01*
X19228Y137201D01*
X19364Y137167D01*
X19485Y137143D01*
X19544Y137133D01*
X19592Y137128D01*
X19636Y137123D01*
X19674D01*
X19708Y137119D01*
X19752D01*
X19835Y137123D01*
X19912Y137128D01*
X19985Y137138D01*
X20048Y137153D01*
X20111Y137167D01*
X20164Y137182D01*
X20218Y137201D01*
X20261Y137220D01*
X20305Y137240D01*
X20339Y137259D01*
X20368Y137274D01*
X20392Y137288D01*
X20412Y137303D01*
X20426Y137313D01*
X20431Y137322D01*
X20436D01*
X20475Y137361D01*
X20514Y137405D01*
X20572Y137487D01*
X20610Y137575D01*
X20640Y137657D01*
X20654Y137730D01*
X20664Y137783D01*
X20669Y137807D01*
Y137822D01*
Y137831D01*
Y137836D01*
X20664Y137909D01*
X20654Y137982D01*
X20635Y138045D01*
X20615Y138098D01*
X20596Y138142D01*
X20576Y138176D01*
X20567Y138195D01*
X20562Y138205D01*
X20518Y138263D01*
X20470Y138312D01*
X20421Y138355D01*
X20373Y138389D01*
X20329Y138418D01*
X20295Y138438D01*
X20271Y138447D01*
X20261Y138452D01*
X20222Y138467D01*
X20174Y138486D01*
X20072Y138515D01*
X19961Y138540D01*
X19849Y138564D01*
X19747Y138583D01*
X19703Y138588D01*
X19665Y138598D01*
X19631Y138603D01*
X19606D01*
X19592Y138608D01*
X19587D01*
X19432Y138632D01*
X19291Y138656D01*
X19155Y138680D01*
X19034Y138705D01*
X18918Y138729D01*
X18816Y138753D01*
X18724Y138777D01*
X18636Y138802D01*
X18564Y138821D01*
X18501Y138840D01*
X18442Y138860D01*
X18399Y138874D01*
X18365Y138889D01*
X18341Y138894D01*
X18326Y138903D01*
D02*
G37*
G36*
X55965Y352273D02*
X55919D01*
X55802Y352265D01*
X55686Y352249D01*
X55585Y352218D01*
X55500Y352187D01*
X55430Y352156D01*
X55375Y352125D01*
X55344Y352110D01*
X55329Y352102D01*
X55236Y352032D01*
X55158Y351955D01*
X55088Y351877D01*
X55034Y351799D01*
X54987Y351729D01*
X54956Y351675D01*
X54941Y351636D01*
X54933Y351621D01*
X54910Y351559D01*
X54879Y351481D01*
X54832Y351318D01*
X54793Y351140D01*
X54755Y350961D01*
X54724Y350798D01*
X54716Y350729D01*
X54700Y350666D01*
X54692Y350612D01*
Y350573D01*
X54685Y350550D01*
Y350542D01*
X54646Y350294D01*
X54607Y350069D01*
X54568Y349852D01*
X54530Y349658D01*
X54491Y349471D01*
X54452Y349308D01*
X54413Y349161D01*
X54374Y349021D01*
X54343Y348905D01*
X54312Y348804D01*
X54281Y348711D01*
X54258Y348641D01*
X54235Y348587D01*
X54227Y348548D01*
X54211Y348525D01*
Y348517D01*
X54817D01*
X54956Y348525D01*
X55088Y348532D01*
X55205Y348548D01*
X55313Y348563D01*
X55414Y348579D01*
X55507Y348602D01*
X55593Y348618D01*
X55662Y348633D01*
X55725Y348657D01*
X55779Y348672D01*
X55825Y348688D01*
X55856Y348703D01*
X55880Y348711D01*
X55895Y348719D01*
X55903D01*
X56097Y348827D01*
X56268Y348959D01*
X56415Y349091D01*
X56532Y349231D01*
X56632Y349347D01*
X56671Y349401D01*
X56702Y349448D01*
X56726Y349487D01*
X56741Y349518D01*
X56757Y349533D01*
Y349541D01*
X56858Y349751D01*
X56935Y349968D01*
X56989Y350185D01*
X57028Y350379D01*
X57044Y350472D01*
X57051Y350550D01*
X57059Y350620D01*
Y350682D01*
X57067Y350736D01*
Y350775D01*
Y350798D01*
Y350806D01*
X57059Y350938D01*
X57051Y351062D01*
X57036Y351179D01*
X57013Y351279D01*
X56989Y351380D01*
X56966Y351466D01*
X56935Y351551D01*
X56904Y351621D01*
X56873Y351691D01*
X56842Y351745D01*
X56819Y351792D01*
X56795Y351830D01*
X56772Y351861D01*
X56757Y351885D01*
X56741Y351892D01*
Y351900D01*
X56679Y351962D01*
X56609Y352024D01*
X56477Y352117D01*
X56337Y352180D01*
X56206Y352226D01*
X56089Y352249D01*
X56004Y352265D01*
X55965Y352273D01*
D02*
G37*
G36*
X27517Y152437D02*
X26878Y149146D01*
X26877Y149141D01*
X26875Y149135D01*
X26869Y149100D01*
X26859Y149049D01*
X26851Y148979D01*
X26836Y148899D01*
X26822Y148801D01*
X26808Y148697D01*
X26792Y148582D01*
X26780Y148460D01*
X26772Y148331D01*
X26758Y148073D01*
X26757Y147948D01*
X26757Y147824D01*
X26770Y147709D01*
X26784Y147599D01*
X26783Y147593D01*
X26791Y147574D01*
X26797Y147543D01*
X26808Y147506D01*
X26822Y147456D01*
X26841Y147404D01*
X26864Y147340D01*
X26892Y147270D01*
X26926Y147198D01*
X26964Y147119D01*
X27008Y147040D01*
X27057Y146959D01*
X27112Y146877D01*
X27180Y146799D01*
X27253Y146714D01*
X27333Y146639D01*
X27338Y146632D01*
X27354Y146623D01*
X27379Y146600D01*
X27414Y146570D01*
X27456Y146538D01*
X27508Y146504D01*
X27566Y146463D01*
X27633Y146414D01*
X27708Y146370D01*
X27788Y146325D01*
X27875Y146284D01*
X27967Y146243D01*
X28171Y146162D01*
X28278Y146135D01*
X28392Y146107D01*
X28403Y146105D01*
X28426Y146100D01*
X28467Y146098D01*
X28524Y146087D01*
X28595Y146085D01*
X28677Y146081D01*
X28766Y146081D01*
X28866Y146080D01*
X28975Y146088D01*
X29084Y146103D01*
X29206Y146120D01*
X29325Y146151D01*
X29450Y146186D01*
X29578Y146232D01*
X29702Y146291D01*
X29823Y146362D01*
X29829Y146367D01*
X29850Y146381D01*
X29885Y146409D01*
X29927Y146443D01*
X29984Y146491D01*
X30042Y146545D01*
X30115Y146614D01*
X30189Y146694D01*
X30268Y146792D01*
X30347Y146895D01*
X30430Y147015D01*
X30515Y147147D01*
X30596Y147291D01*
X30674Y147448D01*
X30749Y147623D01*
X30816Y147811D01*
X30815Y147806D01*
X30818Y147793D01*
X30825Y147768D01*
X30838Y147742D01*
X30848Y147704D01*
X30858Y147661D01*
X30887Y147566D01*
X30925Y147458D01*
X30969Y147349D01*
X31019Y147239D01*
X31072Y147145D01*
X31076Y147138D01*
X31086Y147125D01*
X31104Y147097D01*
X31126Y147058D01*
X31159Y147016D01*
X31196Y146961D01*
X31243Y146898D01*
X31289Y146830D01*
X31347Y146760D01*
X31413Y146676D01*
X31481Y146597D01*
X31552Y146506D01*
X31630Y146420D01*
X31719Y146326D01*
X31902Y146142D01*
X33669Y144464D01*
X33907Y145687D01*
X32555Y146969D01*
X32551Y146976D01*
X32530Y146992D01*
X32500Y147022D01*
X32461Y147065D01*
X32411Y147110D01*
X32357Y147168D01*
X32291Y147228D01*
X32227Y147294D01*
X32084Y147441D01*
X31936Y147594D01*
X31793Y147746D01*
X31729Y147812D01*
X31672Y147882D01*
X31667Y147889D01*
X31657Y147897D01*
X31643Y147918D01*
X31623Y147939D01*
X31570Y148003D01*
X31510Y148086D01*
X31438Y148177D01*
X31375Y148278D01*
X31317Y148378D01*
X31271Y148476D01*
X31268Y148488D01*
X31256Y148520D01*
X31241Y148565D01*
X31218Y148629D01*
X31203Y148703D01*
X31183Y148784D01*
X31170Y148869D01*
X31163Y148959D01*
X31165Y148965D01*
X31164Y148995D01*
X31166Y149036D01*
X31166Y149095D01*
X31176Y149176D01*
X31188Y149269D01*
X31205Y149384D01*
X31230Y149516D01*
X31451Y150653D01*
X34747Y150012D01*
X34938Y150994D01*
X27517Y152437D01*
D02*
G37*
G36*
X29554Y162915D02*
X29359Y161909D01*
X34007Y159838D01*
X34019Y159835D01*
X34040Y159825D01*
X34078Y159806D01*
X34133Y159783D01*
X34198Y159753D01*
X34275Y159720D01*
X34368Y159679D01*
X34460Y159637D01*
X34570Y159592D01*
X34685Y159540D01*
X34806Y159493D01*
X34932Y159439D01*
X35196Y159334D01*
X35466Y159228D01*
X35460Y159229D01*
X35453Y159224D01*
X35436Y159228D01*
X35412Y159227D01*
X35346Y159222D01*
X35268Y159219D01*
X35173Y159214D01*
X35060Y159212D01*
X34940Y159206D01*
X34814Y159201D01*
X34563Y159190D01*
X34443Y159184D01*
X34329Y159176D01*
X34228Y159172D01*
X34143Y159165D01*
X34071Y159161D01*
X34042Y159161D01*
X34023Y159159D01*
X28739Y158721D01*
X28509Y157539D01*
X32062Y155745D01*
X32067Y155744D01*
X32078Y155736D01*
X32094Y155727D01*
X32121Y155716D01*
X32153Y155698D01*
X32191Y155679D01*
X32234Y155658D01*
X32289Y155636D01*
X32343Y155608D01*
X32403Y155578D01*
X32543Y155509D01*
X32701Y155437D01*
X32869Y155357D01*
X33061Y155272D01*
X33257Y155187D01*
X33465Y155093D01*
X33678Y155004D01*
X34123Y154823D01*
X34577Y154657D01*
X34572Y154659D01*
X34542Y154658D01*
X34506Y154654D01*
X34446Y154653D01*
X34381Y154654D01*
X34298Y154653D01*
X34202Y154648D01*
X34089Y154646D01*
X33976Y154644D01*
X33845Y154640D01*
X33707Y154631D01*
X33558Y154630D01*
X33396Y154620D01*
X33235Y154616D01*
X33068Y154607D01*
X32888Y154600D01*
X27891Y154362D01*
X27699Y153374D01*
X35516Y153965D01*
X35701Y154919D01*
X30348Y157573D01*
X30342Y157574D01*
X30320Y157584D01*
X30282Y157603D01*
X30240Y157629D01*
X30191Y157650D01*
X30131Y157680D01*
X29996Y157748D01*
X29857Y157822D01*
X29720Y157884D01*
X29661Y157914D01*
X29607Y157942D01*
X29558Y157963D01*
X29526Y157981D01*
X29531Y157980D01*
X29550Y157983D01*
X29579Y157983D01*
X29616Y157988D01*
X29663Y157984D01*
X29712Y157993D01*
X29771Y157993D01*
X29837Y157998D01*
X29980Y158000D01*
X30136Y158011D01*
X30286Y158017D01*
X30436Y158030D01*
X36398Y158501D01*
X36594Y159513D01*
X29554Y162915D01*
D02*
G37*
G36*
X30768Y169159D02*
X30224Y166360D01*
X30222Y166354D01*
X30217Y166325D01*
X30210Y166291D01*
X30200Y166240D01*
X30188Y166177D01*
X30180Y166107D01*
X30165Y166027D01*
X30154Y165940D01*
X30124Y165756D01*
X30099Y165566D01*
X30087Y165384D01*
X30082Y165296D01*
X30079Y165220D01*
X30078Y165214D01*
X30080Y165196D01*
X30081Y165166D01*
X30078Y165125D01*
X30081Y165077D01*
X30081Y165018D01*
X30086Y164952D01*
X30097Y164884D01*
X30114Y164727D01*
X30142Y164567D01*
X30186Y164399D01*
X30249Y164232D01*
X30248Y164226D01*
X30257Y164213D01*
X30271Y164192D01*
X30282Y164161D01*
X30326Y164081D01*
X30391Y163985D01*
X30474Y163868D01*
X30575Y163748D01*
X30700Y163623D01*
X30847Y163499D01*
X30853Y163498D01*
X30868Y163483D01*
X30889Y163468D01*
X30921Y163449D01*
X30963Y163423D01*
X31010Y163391D01*
X31064Y163362D01*
X31122Y163327D01*
X31192Y163290D01*
X31269Y163257D01*
X31432Y163184D01*
X31617Y163125D01*
X31814Y163074D01*
X31826Y163072D01*
X31854Y163066D01*
X31907Y163062D01*
X31976Y163055D01*
X32057Y163045D01*
X32158Y163043D01*
X32264Y163040D01*
X32383Y163041D01*
X32515Y163051D01*
X32654Y163065D01*
X32795Y163085D01*
X32944Y163121D01*
X33089Y163164D01*
X33241Y163218D01*
X33391Y163284D01*
X33537Y163368D01*
X33544Y163372D01*
X33571Y163391D01*
X33607Y163419D01*
X33663Y163468D01*
X33722Y163527D01*
X33796Y163602D01*
X33873Y163694D01*
X33959Y163801D01*
X34049Y163926D01*
X34137Y164075D01*
X34229Y164241D01*
X34313Y164432D01*
X34396Y164642D01*
X34477Y164875D01*
X34550Y165133D01*
X34584Y165275D01*
X34612Y165418D01*
X34982Y167320D01*
X37998Y166734D01*
X38189Y167717D01*
X30768Y169159D01*
D02*
G37*
%LPD*%
G36*
X30600Y150818D02*
X30190Y148710D01*
X30189Y148704D01*
X30185Y148681D01*
X30178Y148647D01*
X30168Y148596D01*
X30152Y148545D01*
X30139Y148477D01*
X30119Y148404D01*
X30099Y148330D01*
X30048Y148162D01*
X29992Y147995D01*
X29924Y147831D01*
X29886Y147755D01*
X29849Y147685D01*
X29847Y147680D01*
X29840Y147669D01*
X29825Y147654D01*
X29808Y147628D01*
X29766Y147565D01*
X29698Y147489D01*
X29623Y147409D01*
X29524Y147327D01*
X29414Y147248D01*
X29295Y147188D01*
X29290Y147189D01*
X29282Y147179D01*
X29263Y147177D01*
X29237Y147164D01*
X29207Y147158D01*
X29169Y147147D01*
X29076Y147124D01*
X28972Y147109D01*
X28851Y147097D01*
X28721Y147098D01*
X28588Y147118D01*
X28582Y147119D01*
X28565Y147123D01*
X28537Y147128D01*
X28504Y147140D01*
X28459Y147155D01*
X28410Y147176D01*
X28355Y147199D01*
X28294Y147223D01*
X28166Y147295D01*
X28098Y147344D01*
X28031Y147392D01*
X27971Y147451D01*
X27907Y147517D01*
X27849Y147588D01*
X27800Y147669D01*
X27795Y147675D01*
X27786Y147689D01*
X27773Y147715D01*
X27763Y147753D01*
X27742Y147798D01*
X27724Y147855D01*
X27706Y147918D01*
X27686Y147999D01*
X27667Y148085D01*
X27656Y148177D01*
X27647Y148285D01*
X27639Y148399D01*
X27646Y148523D01*
X27653Y148652D01*
X27669Y148797D01*
X27692Y148946D01*
X28149Y151294D01*
X30600Y150818D01*
D02*
G37*
G36*
X34107Y167490D02*
X33734Y165571D01*
X33732Y165559D01*
X33727Y165531D01*
X33716Y165479D01*
X33698Y165417D01*
X33677Y165339D01*
X33655Y165254D01*
X33625Y165159D01*
X33586Y165054D01*
X33503Y164839D01*
X33453Y164736D01*
X33397Y164628D01*
X33337Y164533D01*
X33266Y164440D01*
X33196Y164359D01*
X33118Y164291D01*
X33111Y164286D01*
X33097Y164277D01*
X33076Y164258D01*
X33043Y164241D01*
X32997Y164220D01*
X32945Y164194D01*
X32886Y164164D01*
X32821Y164135D01*
X32746Y164114D01*
X32664Y164089D01*
X32577Y164070D01*
X32480Y164059D01*
X32384Y164054D01*
X32277Y164051D01*
X32160Y164062D01*
X32045Y164079D01*
X32039Y164080D01*
X32022Y164083D01*
X31999Y164088D01*
X31966Y164100D01*
X31926Y164108D01*
X31882Y164122D01*
X31776Y164161D01*
X31656Y164214D01*
X31528Y164286D01*
X31408Y164369D01*
X31292Y164474D01*
X31286Y164475D01*
X31277Y164489D01*
X31262Y164504D01*
X31248Y164524D01*
X31201Y164587D01*
X31147Y164674D01*
X31089Y164774D01*
X31036Y164897D01*
X30997Y165030D01*
X30972Y165177D01*
X30968Y165189D01*
X30972Y165206D01*
X30970Y165230D01*
X30970Y165260D01*
X30971Y165295D01*
X30974Y165342D01*
X30979Y165395D01*
X30984Y165453D01*
X30992Y165523D01*
X31000Y165598D01*
X31010Y165679D01*
X31023Y165777D01*
X31037Y165876D01*
X31059Y165990D01*
X31082Y166110D01*
X31451Y168007D01*
X34107Y167490D01*
D02*
G37*
%LPC*%
G36*
X52548Y269659D02*
X52470Y269656D01*
X52381Y269656D01*
X52193Y269633D01*
X52094Y269611D01*
X51995Y269589D01*
X51889Y269562D01*
X51786Y269523D01*
X51779Y269518D01*
X51760Y269510D01*
X51734Y269497D01*
X51695Y269481D01*
X51648Y269454D01*
X51589Y269424D01*
X51528Y269383D01*
X51460Y269343D01*
X51391Y269291D01*
X51315Y269235D01*
X51242Y269166D01*
X51164Y269098D01*
X51083Y269019D01*
X51007Y268933D01*
X50935Y268834D01*
X50862Y268736D01*
X50855Y268731D01*
X50845Y268709D01*
X50827Y268677D01*
X50801Y268635D01*
X50773Y268581D01*
X50737Y268517D01*
X50698Y268441D01*
X50653Y268361D01*
X50611Y268269D01*
X50568Y268164D01*
X50522Y268055D01*
X50483Y267944D01*
X50441Y267821D01*
X50405Y267692D01*
X50366Y267557D01*
X50340Y267420D01*
X50338Y267409D01*
X50333Y267386D01*
X50324Y267340D01*
X50319Y267282D01*
X50304Y267208D01*
X50293Y267121D01*
X50287Y267027D01*
X50279Y266922D01*
X50268Y266806D01*
X50263Y266688D01*
X50266Y266432D01*
X50282Y266175D01*
X50303Y266040D01*
X50325Y265911D01*
X50330Y265904D01*
X50331Y265880D01*
X50341Y265843D01*
X50357Y265798D01*
X50375Y265741D01*
X50397Y265672D01*
X50424Y265596D01*
X50456Y265518D01*
X50492Y265428D01*
X50534Y265337D01*
X50581Y265245D01*
X50640Y265150D01*
X50698Y265056D01*
X50764Y264966D01*
X50842Y264880D01*
X50920Y264793D01*
X50925Y264787D01*
X50940Y264772D01*
X50965Y264749D01*
X51002Y264724D01*
X51042Y264687D01*
X51093Y264647D01*
X51155Y264600D01*
X51223Y264551D01*
X51302Y264500D01*
X51382Y264455D01*
X51472Y264402D01*
X51570Y264353D01*
X51778Y264265D01*
X51896Y264230D01*
X52013Y264196D01*
X52265Y265125D01*
X52259Y265126D01*
X52238Y265136D01*
X52199Y265150D01*
X52154Y265164D01*
X52100Y265193D01*
X52034Y265217D01*
X51964Y265255D01*
X51890Y265299D01*
X51810Y265344D01*
X51731Y265395D01*
X51654Y265457D01*
X51571Y265521D01*
X51497Y265595D01*
X51429Y265673D01*
X51362Y265757D01*
X51309Y265850D01*
X51305Y265857D01*
X51297Y265877D01*
X51284Y265903D01*
X51268Y265941D01*
X51248Y265993D01*
X51231Y266055D01*
X51209Y266125D01*
X51190Y266212D01*
X51178Y266303D01*
X51162Y266406D01*
X51154Y266515D01*
X51148Y266635D01*
X51149Y266765D01*
X51159Y266905D01*
X51176Y267056D01*
X51200Y267211D01*
X51203Y267223D01*
X51208Y267251D01*
X51217Y267297D01*
X51234Y267353D01*
X51254Y267426D01*
X51276Y267511D01*
X51306Y267600D01*
X51337Y267701D01*
X51418Y267904D01*
X51468Y268007D01*
X51517Y268110D01*
X51577Y268205D01*
X51642Y268294D01*
X51711Y268375D01*
X51784Y268444D01*
X51791Y268448D01*
X51804Y268458D01*
X51826Y268477D01*
X51853Y268496D01*
X51893Y268517D01*
X51934Y268545D01*
X51987Y268576D01*
X52046Y268601D01*
X52175Y268658D01*
X52319Y268696D01*
X52398Y268704D01*
X52482Y268711D01*
X52564Y268707D01*
X52651Y268696D01*
X52657Y268695D01*
X52668Y268693D01*
X52691Y268689D01*
X52719Y268677D01*
X52752Y268665D01*
X52785Y268653D01*
X52879Y268616D01*
X52975Y268562D01*
X53073Y268490D01*
X53124Y268444D01*
X53167Y268394D01*
X53211Y268344D01*
X53253Y268283D01*
X53251Y268277D01*
X53261Y268264D01*
X53269Y268244D01*
X53286Y268211D01*
X53301Y268167D01*
X53320Y268110D01*
X53336Y268041D01*
X53356Y267960D01*
X53378Y267861D01*
X53398Y267751D01*
X53421Y267622D01*
X53440Y267476D01*
X53460Y267306D01*
X53472Y267126D01*
X53486Y266921D01*
X53496Y266700D01*
X53495Y266694D01*
X53500Y266687D01*
X53496Y266670D01*
X53498Y266646D01*
X53503Y266580D01*
X53504Y266497D01*
X53508Y266395D01*
X53514Y266275D01*
X53520Y266150D01*
X53528Y266012D01*
X53549Y265723D01*
X53563Y265578D01*
X53577Y265439D01*
X53593Y265306D01*
X53610Y265178D01*
X53628Y265062D01*
X53651Y264962D01*
X53655Y264956D01*
X53657Y264932D01*
X53667Y264894D01*
X53681Y264844D01*
X53699Y264787D01*
X53727Y264716D01*
X53754Y264640D01*
X53786Y264563D01*
X53865Y264387D01*
X53965Y264202D01*
X54079Y264025D01*
X54146Y263941D01*
X54219Y263862D01*
X54224Y263855D01*
X54240Y263846D01*
X54260Y263824D01*
X54289Y263795D01*
X54331Y263763D01*
X54378Y263730D01*
X54429Y263690D01*
X54491Y263643D01*
X54560Y263600D01*
X54634Y263556D01*
X54721Y263515D01*
X54808Y263474D01*
X55000Y263396D01*
X55108Y263369D01*
X55215Y263342D01*
X55221Y263341D01*
X55244Y263336D01*
X55272Y263331D01*
X55313Y263329D01*
X55372Y263323D01*
X55430Y263318D01*
X55506Y263315D01*
X55583Y263312D01*
X55667Y263319D01*
X55763Y263324D01*
X55859Y263330D01*
X55963Y263345D01*
X56068Y263366D01*
X56174Y263393D01*
X56287Y263424D01*
X56396Y263468D01*
X56403Y263473D01*
X56422Y263481D01*
X56454Y263493D01*
X56494Y263514D01*
X56546Y263540D01*
X56606Y263576D01*
X56672Y263610D01*
X56741Y263656D01*
X56823Y263711D01*
X56900Y263773D01*
X56984Y263840D01*
X57069Y263913D01*
X57157Y263996D01*
X57238Y264081D01*
X57323Y264183D01*
X57403Y264286D01*
X57410Y264291D01*
X57420Y264313D01*
X57443Y264344D01*
X57469Y264386D01*
X57505Y264444D01*
X57541Y264509D01*
X57580Y264590D01*
X57627Y264676D01*
X57675Y264773D01*
X57719Y264877D01*
X57764Y264987D01*
X57811Y265108D01*
X57854Y265236D01*
X57898Y265370D01*
X57931Y265512D01*
X57966Y265659D01*
X57968Y265671D01*
X57975Y265705D01*
X57985Y265756D01*
X57993Y265826D01*
X58003Y265913D01*
X58018Y266017D01*
X58034Y266132D01*
X58046Y266254D01*
X58055Y266389D01*
X58063Y266524D01*
X58061Y266821D01*
X58060Y266969D01*
X58047Y267114D01*
X58028Y267260D01*
X58002Y267401D01*
X57998Y267408D01*
X57996Y267432D01*
X57986Y267470D01*
X57967Y267527D01*
X57950Y267589D01*
X57922Y267660D01*
X57897Y267742D01*
X57861Y267832D01*
X57814Y267930D01*
X57768Y268028D01*
X57711Y268128D01*
X57648Y268235D01*
X57579Y268337D01*
X57505Y268441D01*
X57424Y268545D01*
X57330Y268640D01*
X57326Y268647D01*
X57305Y268663D01*
X57280Y268686D01*
X57239Y268723D01*
X57188Y268763D01*
X57126Y268811D01*
X57058Y268859D01*
X56979Y268910D01*
X56890Y268969D01*
X56794Y269023D01*
X56692Y269079D01*
X56579Y269136D01*
X56457Y269184D01*
X56336Y269231D01*
X56202Y269275D01*
X56066Y269307D01*
X55806Y268397D01*
X55812Y268396D01*
X55828Y268387D01*
X55857Y268381D01*
X55896Y268368D01*
X55945Y268347D01*
X55994Y268325D01*
X56055Y268302D01*
X56120Y268271D01*
X56255Y268203D01*
X56399Y268122D01*
X56540Y268023D01*
X56667Y267916D01*
X56672Y267909D01*
X56682Y267901D01*
X56697Y267886D01*
X56716Y267859D01*
X56745Y267829D01*
X56773Y267788D01*
X56806Y267746D01*
X56837Y267693D01*
X56873Y267633D01*
X56915Y267571D01*
X56948Y267499D01*
X56986Y267421D01*
X57019Y267343D01*
X57049Y267254D01*
X57078Y267160D01*
X57106Y267060D01*
X57105Y267054D01*
X57113Y267035D01*
X57113Y267005D01*
X57122Y266962D01*
X57130Y266913D01*
X57137Y266852D01*
X57140Y266780D01*
X57150Y266707D01*
X57156Y266617D01*
X57157Y266528D01*
X57156Y266433D01*
X57153Y266327D01*
X57134Y266106D01*
X57101Y265875D01*
X57100Y265869D01*
X57096Y265852D01*
X57090Y265818D01*
X57082Y265778D01*
X57067Y265733D01*
X57051Y265677D01*
X57038Y265614D01*
X57013Y265548D01*
X56966Y265397D01*
X56906Y265237D01*
X56832Y265073D01*
X56743Y264919D01*
X56742Y264913D01*
X56734Y264903D01*
X56718Y264882D01*
X56701Y264856D01*
X56676Y264819D01*
X56646Y264783D01*
X56575Y264696D01*
X56492Y264606D01*
X56391Y264513D01*
X56280Y264428D01*
X56160Y264362D01*
X56155Y264363D01*
X56147Y264353D01*
X56129Y264350D01*
X56102Y264338D01*
X56033Y264316D01*
X55945Y264291D01*
X55847Y264275D01*
X55732Y264261D01*
X55607Y264262D01*
X55480Y264275D01*
X55474Y264276D01*
X55462Y264278D01*
X55445Y264282D01*
X55423Y264292D01*
X55356Y264311D01*
X55278Y264338D01*
X55187Y264385D01*
X55096Y264438D01*
X54998Y264511D01*
X54914Y264598D01*
X54908Y264599D01*
X54905Y264612D01*
X54876Y264647D01*
X54839Y264702D01*
X54791Y264788D01*
X54740Y264893D01*
X54716Y264951D01*
X54688Y265022D01*
X54667Y265097D01*
X54640Y265173D01*
X54621Y265260D01*
X54604Y265352D01*
X54605Y265358D01*
X54602Y265370D01*
X54599Y265389D01*
X54593Y265420D01*
X54589Y265456D01*
X54581Y265511D01*
X54575Y265571D01*
X54566Y265644D01*
X54560Y265734D01*
X54549Y265831D01*
X54541Y265945D01*
X54530Y266072D01*
X54523Y266216D01*
X54513Y266378D01*
X54505Y266551D01*
X54495Y266743D01*
X54491Y266756D01*
X54492Y266791D01*
X54491Y266845D01*
X54487Y266916D01*
X54481Y267007D01*
X54470Y267104D01*
X54462Y267218D01*
X54455Y267332D01*
X54427Y267586D01*
X54399Y267835D01*
X54381Y267957D01*
X54356Y268074D01*
X54334Y268174D01*
X54311Y268267D01*
X54306Y268274D01*
X54304Y268292D01*
X54292Y268324D01*
X54276Y268363D01*
X54256Y268414D01*
X54238Y268471D01*
X54174Y268602D01*
X54103Y268752D01*
X54008Y268907D01*
X53901Y269058D01*
X53838Y269130D01*
X53774Y269195D01*
X53768Y269197D01*
X53759Y269210D01*
X53738Y269226D01*
X53707Y269250D01*
X53676Y269274D01*
X53629Y269306D01*
X53582Y269339D01*
X53530Y269373D01*
X53467Y269415D01*
X53403Y269451D01*
X53250Y269522D01*
X53085Y269584D01*
X52994Y269608D01*
X52898Y269632D01*
X52893Y269634D01*
X52875Y269637D01*
X52841Y269643D01*
X52800Y269646D01*
X52753Y269649D01*
X52689Y269655D01*
X52624Y269656D01*
X52548Y269659D01*
D02*
G37*
G36*
X52421Y277427D02*
X52230Y276444D01*
X56515Y275611D01*
X56526Y275609D01*
X56555Y275604D01*
X56607Y275593D01*
X56674Y275574D01*
X56754Y275559D01*
X56844Y275535D01*
X56940Y275511D01*
X57053Y275483D01*
X57277Y275416D01*
X57512Y275341D01*
X57622Y275295D01*
X57726Y275251D01*
X57823Y275203D01*
X57909Y275157D01*
X57915Y275155D01*
X57924Y275142D01*
X57951Y275131D01*
X57977Y275108D01*
X58012Y275077D01*
X58053Y275045D01*
X58138Y274964D01*
X58236Y274856D01*
X58335Y274724D01*
X58381Y274656D01*
X58419Y274577D01*
X58461Y274492D01*
X58492Y274403D01*
X58491Y274397D01*
X58499Y274378D01*
X58506Y274353D01*
X58516Y274315D01*
X58526Y274272D01*
X58538Y274216D01*
X58543Y274150D01*
X58554Y274082D01*
X58562Y274004D01*
X58569Y273914D01*
X58575Y273824D01*
X58573Y273723D01*
X58571Y273623D01*
X58561Y273512D01*
X58545Y273396D01*
X58529Y273281D01*
X58527Y273275D01*
X58526Y273270D01*
X58520Y273235D01*
X58503Y273179D01*
X58488Y273105D01*
X58460Y273022D01*
X58429Y272921D01*
X58395Y272809D01*
X58349Y272693D01*
X58302Y272572D01*
X58243Y272453D01*
X58178Y272330D01*
X58107Y272213D01*
X58027Y272104D01*
X57942Y272002D01*
X57847Y271908D01*
X57743Y271833D01*
X57736Y271828D01*
X57716Y271815D01*
X57677Y271798D01*
X57631Y271778D01*
X57568Y271754D01*
X57486Y271729D01*
X57386Y271707D01*
X57275Y271681D01*
X57147Y271664D01*
X57002Y271651D01*
X56840Y271641D01*
X56662Y271640D01*
X56461Y271643D01*
X56251Y271661D01*
X56015Y271695D01*
X55762Y271738D01*
X51477Y272571D01*
X51286Y271588D01*
X55577Y270754D01*
X55582Y270753D01*
X55588Y270752D01*
X55605Y270748D01*
X55628Y270744D01*
X55685Y270733D01*
X55761Y270724D01*
X55858Y270705D01*
X55967Y270690D01*
X56090Y270678D01*
X56223Y270664D01*
X56368Y270648D01*
X56515Y270637D01*
X56820Y270625D01*
X56975Y270625D01*
X57124Y270631D01*
X57269Y270644D01*
X57404Y270666D01*
X57409Y270665D01*
X57434Y270672D01*
X57472Y270682D01*
X57522Y270696D01*
X57585Y270714D01*
X57654Y270736D01*
X57737Y270767D01*
X57821Y270798D01*
X57919Y270844D01*
X58016Y270890D01*
X58122Y270947D01*
X58225Y271016D01*
X58334Y271090D01*
X58439Y271176D01*
X58546Y271268D01*
X58650Y271372D01*
X58656Y271377D01*
X58672Y271397D01*
X58703Y271433D01*
X58736Y271480D01*
X58782Y271536D01*
X58832Y271609D01*
X58884Y271694D01*
X58945Y271795D01*
X59009Y271907D01*
X59067Y272026D01*
X59129Y272162D01*
X59193Y272310D01*
X59249Y272471D01*
X59306Y272644D01*
X59354Y272830D01*
X59397Y273023D01*
X59400Y273035D01*
X59406Y273069D01*
X59417Y273126D01*
X59425Y273196D01*
X59437Y273288D01*
X59451Y273392D01*
X59462Y273509D01*
X59469Y273638D01*
X59478Y273773D01*
X59482Y273914D01*
X59481Y274062D01*
X59474Y274212D01*
X59462Y274362D01*
X59438Y274515D01*
X59412Y274657D01*
X59375Y274800D01*
X59371Y274807D01*
X59364Y274832D01*
X59347Y274871D01*
X59328Y274922D01*
X59303Y274980D01*
X59270Y275052D01*
X59226Y275132D01*
X59184Y275217D01*
X59125Y275311D01*
X59065Y275400D01*
X58995Y275497D01*
X58919Y275595D01*
X58831Y275689D01*
X58735Y275779D01*
X58634Y275869D01*
X58520Y275951D01*
X58515Y275958D01*
X58488Y275969D01*
X58456Y275987D01*
X58403Y276021D01*
X58338Y276051D01*
X58257Y276091D01*
X58165Y276138D01*
X58055Y276184D01*
X57935Y276237D01*
X57802Y276286D01*
X57654Y276344D01*
X57491Y276394D01*
X57318Y276445D01*
X57127Y276500D01*
X56928Y276545D01*
X56712Y276593D01*
X52421Y277427D01*
D02*
G37*
G36*
X49632Y263076D02*
X49091Y260293D01*
X49089Y260282D01*
X49083Y260253D01*
X49075Y260213D01*
X49069Y260149D01*
X49055Y260081D01*
X49044Y259994D01*
X49033Y259901D01*
X49024Y259796D01*
X49015Y259691D01*
X49010Y259574D01*
X49006Y259337D01*
X49020Y259104D01*
X49033Y258988D01*
X49054Y258884D01*
X49053Y258878D01*
X49061Y258858D01*
X49067Y258828D01*
X49077Y258790D01*
X49098Y258745D01*
X49117Y258687D01*
X49169Y258559D01*
X49240Y258408D01*
X49329Y258255D01*
X49446Y258096D01*
X49514Y258017D01*
X49589Y257944D01*
X49593Y257937D01*
X49609Y257928D01*
X49629Y257906D01*
X49660Y257882D01*
X49701Y257851D01*
X49748Y257818D01*
X49800Y257778D01*
X49857Y257737D01*
X49927Y257700D01*
X49995Y257657D01*
X50152Y257579D01*
X50328Y257509D01*
X50419Y257486D01*
X50515Y257461D01*
X50520Y257460D01*
X50538Y257457D01*
X50560Y257452D01*
X50596Y257451D01*
X50636Y257444D01*
X50688Y257439D01*
X50748Y257440D01*
X50813Y257439D01*
X50955Y257441D01*
X51113Y257458D01*
X51286Y257495D01*
X51374Y257520D01*
X51463Y257550D01*
X51468Y257548D01*
X51482Y257558D01*
X51508Y257570D01*
X51540Y257582D01*
X51580Y257604D01*
X51627Y257630D01*
X51680Y257662D01*
X51740Y257697D01*
X51802Y257739D01*
X51870Y257785D01*
X51939Y257836D01*
X52010Y257894D01*
X52077Y257964D01*
X52149Y258033D01*
X52218Y258108D01*
X52288Y258196D01*
X52287Y258190D01*
X52294Y258165D01*
X52298Y258128D01*
X52307Y258079D01*
X52319Y258018D01*
X52328Y257945D01*
X52349Y257870D01*
X52373Y257782D01*
X52404Y257693D01*
X52433Y257598D01*
X52473Y257502D01*
X52519Y257403D01*
X52571Y257305D01*
X52630Y257210D01*
X52694Y257115D01*
X52767Y257029D01*
X52771Y257023D01*
X52786Y257008D01*
X52806Y256986D01*
X52841Y256956D01*
X52881Y256918D01*
X52927Y256880D01*
X52983Y256833D01*
X53051Y256784D01*
X53119Y256736D01*
X53198Y256685D01*
X53284Y256638D01*
X53381Y256590D01*
X53479Y256547D01*
X53584Y256509D01*
X53697Y256475D01*
X53815Y256446D01*
X53821Y256445D01*
X53838Y256442D01*
X53867Y256436D01*
X53902Y256435D01*
X53948Y256426D01*
X54006Y256421D01*
X54070Y256414D01*
X54135Y256414D01*
X54288Y256407D01*
X54462Y256415D01*
X54644Y256439D01*
X54830Y256480D01*
X54836Y256479D01*
X54849Y256488D01*
X54874Y256495D01*
X54912Y256506D01*
X54951Y256522D01*
X55001Y256536D01*
X55111Y256586D01*
X55241Y256643D01*
X55373Y256712D01*
X55502Y256794D01*
X55628Y256894D01*
X55629Y256900D01*
X55643Y256909D01*
X55657Y256924D01*
X55679Y256943D01*
X55703Y256975D01*
X55732Y257004D01*
X55770Y257045D01*
X55808Y257090D01*
X55847Y257136D01*
X55888Y257193D01*
X55977Y257318D01*
X56065Y257467D01*
X56151Y257634D01*
X56152Y257640D01*
X56161Y257656D01*
X56173Y257683D01*
X56185Y257717D01*
X56205Y257760D01*
X56228Y257815D01*
X56252Y257881D01*
X56273Y257955D01*
X56300Y258032D01*
X56329Y258121D01*
X56360Y258222D01*
X56392Y258323D01*
X56420Y258436D01*
X56448Y258549D01*
X56478Y258674D01*
X56503Y258805D01*
X57053Y261633D01*
X49632Y263076D01*
D02*
G37*
%LPD*%
G36*
X55988Y260820D02*
X55629Y258975D01*
X55628Y258969D01*
X55625Y258952D01*
X55620Y258929D01*
X55614Y258895D01*
X55606Y258855D01*
X55598Y258815D01*
X55572Y258713D01*
X55550Y258599D01*
X55518Y258493D01*
X55492Y258391D01*
X55477Y258346D01*
X55464Y258308D01*
X55463Y258302D01*
X55455Y258292D01*
X55451Y258274D01*
X55441Y258253D01*
X55412Y258193D01*
X55379Y258116D01*
X55334Y258036D01*
X55281Y257946D01*
X55223Y257862D01*
X55154Y257781D01*
X55146Y257770D01*
X55118Y257746D01*
X55081Y257712D01*
X55026Y257669D01*
X54950Y257619D01*
X54870Y257569D01*
X54777Y257522D01*
X54669Y257484D01*
X54664Y257485D01*
X54657Y257480D01*
X54638Y257478D01*
X54613Y257471D01*
X54558Y257458D01*
X54472Y257445D01*
X54375Y257434D01*
X54262Y257432D01*
X54139Y257438D01*
X54012Y257457D01*
X54006Y257458D01*
X53995Y257461D01*
X53972Y257465D01*
X53944Y257476D01*
X53904Y257484D01*
X53866Y257498D01*
X53772Y257534D01*
X53662Y257579D01*
X53550Y257642D01*
X53440Y257717D01*
X53334Y257814D01*
X53329Y257815D01*
X53325Y257828D01*
X53310Y257843D01*
X53291Y257864D01*
X53248Y257920D01*
X53193Y258002D01*
X53141Y258101D01*
X53087Y258218D01*
X53047Y258350D01*
X53016Y258493D01*
X53017Y258499D01*
X53013Y258511D01*
X53012Y258535D01*
X53012Y258565D01*
X53008Y258607D01*
X53006Y258655D01*
X53005Y258714D01*
X53006Y258779D01*
X53009Y258856D01*
X53013Y258938D01*
X53020Y259032D01*
X53027Y259131D01*
X53041Y259235D01*
X53058Y259350D01*
X53075Y259471D01*
X53101Y259603D01*
X53434Y261317D01*
X55988Y260820D01*
D02*
G37*
G36*
X52560Y261487D02*
X52249Y259887D01*
X52248Y259881D01*
X52244Y259858D01*
X52237Y259824D01*
X52228Y259778D01*
X52218Y259727D01*
X52200Y259665D01*
X52187Y259597D01*
X52166Y259524D01*
X52125Y259371D01*
X52084Y259220D01*
X52058Y259147D01*
X52033Y259081D01*
X52009Y259020D01*
X51981Y258967D01*
X51980Y258961D01*
X51972Y258951D01*
X51963Y258935D01*
X51946Y258908D01*
X51910Y258844D01*
X51854Y258772D01*
X51785Y258691D01*
X51704Y258606D01*
X51613Y258534D01*
X51506Y258472D01*
X51500Y258473D01*
X51493Y258469D01*
X51474Y258460D01*
X51454Y258452D01*
X51391Y258429D01*
X51304Y258411D01*
X51206Y258394D01*
X51085Y258382D01*
X50955Y258383D01*
X50817Y258404D01*
X50811Y258406D01*
X50800Y258408D01*
X50782Y258411D01*
X50754Y258417D01*
X50721Y258429D01*
X50687Y258441D01*
X50598Y258471D01*
X50506Y258512D01*
X50397Y258563D01*
X50297Y258630D01*
X50201Y258714D01*
X50195Y258715D01*
X50191Y258722D01*
X50162Y258757D01*
X50124Y258806D01*
X50072Y258875D01*
X50023Y258956D01*
X49977Y259060D01*
X49939Y259168D01*
X49917Y259297D01*
X49918Y259302D01*
X49915Y259315D01*
X49912Y259333D01*
X49912Y259363D01*
X49913Y259398D01*
X49910Y259446D01*
X49910Y259506D01*
X49911Y259571D01*
X49920Y259646D01*
X49924Y259728D01*
X49930Y259822D01*
X49944Y259926D01*
X49961Y260041D01*
X49978Y260162D01*
X49999Y260300D01*
X50027Y260443D01*
X50315Y261923D01*
X52560Y261487D01*
D02*
G37*
%LPC*%
G36*
X7845Y133159D02*
X7821D01*
X7714Y133154D01*
X7617Y133140D01*
X7520Y133121D01*
X7428Y133091D01*
X7345Y133057D01*
X7268Y133024D01*
X7195Y132980D01*
X7127Y132941D01*
X7069Y132902D01*
X7016Y132863D01*
X6972Y132825D01*
X6933Y132791D01*
X6904Y132762D01*
X6885Y132742D01*
X6870Y132728D01*
X6865Y132723D01*
X6797Y132636D01*
X6739Y132543D01*
X6686Y132442D01*
X6642Y132340D01*
X6604Y132233D01*
X6570Y132126D01*
X6545Y132020D01*
X6526Y131918D01*
X6511Y131821D01*
X6497Y131729D01*
X6487Y131646D01*
X6482Y131578D01*
X6477Y131520D01*
Y131476D01*
Y131447D01*
Y131442D01*
Y131438D01*
X6482Y131273D01*
X6492Y131122D01*
X6511Y130982D01*
X6536Y130851D01*
X6565Y130729D01*
X6599Y130623D01*
X6633Y130521D01*
X6667Y130434D01*
X6705Y130356D01*
X6739Y130288D01*
X6773Y130235D01*
X6802Y130186D01*
X6827Y130152D01*
X6846Y130123D01*
X6856Y130109D01*
X6860Y130104D01*
X6933Y130026D01*
X7011Y129958D01*
X7093Y129900D01*
X7171Y129852D01*
X7253Y129808D01*
X7331Y129774D01*
X7409Y129745D01*
X7486Y129721D01*
X7554Y129706D01*
X7617Y129692D01*
X7675Y129682D01*
X7724Y129672D01*
X7763D01*
X7797Y129667D01*
X7821D01*
X7927Y129672D01*
X8029Y129687D01*
X8126Y129706D01*
X8219Y129735D01*
X8301Y129769D01*
X8383Y129803D01*
X8456Y129842D01*
X8519Y129886D01*
X8582Y129924D01*
X8636Y129963D01*
X8679Y129997D01*
X8718Y130031D01*
X8747Y130060D01*
X8767Y130080D01*
X8781Y130094D01*
X8786Y130099D01*
X8854Y130186D01*
X8912Y130283D01*
X8961Y130380D01*
X9004Y130487D01*
X9043Y130599D01*
X9072Y130705D01*
X9096Y130817D01*
X9116Y130919D01*
X9130Y131020D01*
X9145Y131113D01*
X9155Y131195D01*
X9159Y131268D01*
Y131331D01*
X9164Y131375D01*
Y131404D01*
Y131413D01*
X9159Y131573D01*
X9150Y131724D01*
X9130Y131860D01*
X9106Y131991D01*
X9077Y132107D01*
X9043Y132214D01*
X9009Y132311D01*
X8975Y132398D01*
X8941Y132475D01*
X8907Y132539D01*
X8873Y132597D01*
X8844Y132640D01*
X8820Y132679D01*
X8800Y132703D01*
X8791Y132718D01*
X8786Y132723D01*
X8713Y132800D01*
X8636Y132868D01*
X8553Y132927D01*
X8476Y132975D01*
X8393Y133019D01*
X8311Y133053D01*
X8233Y133082D01*
X8160Y133106D01*
X8088Y133121D01*
X8025Y133135D01*
X7966Y133145D01*
X7918Y133154D01*
X7879D01*
X7845Y133159D01*
D02*
G37*
G36*
X54157Y371168D02*
X54095D01*
X53854Y371161D01*
X53629Y371145D01*
X53420Y371114D01*
X53226Y371075D01*
X53047Y371036D01*
X52884Y370990D01*
X52737Y370936D01*
X52605Y370881D01*
X52489Y370827D01*
X52388Y370773D01*
X52302Y370726D01*
X52232Y370687D01*
X52178Y370648D01*
X52139Y370617D01*
X52116Y370602D01*
X52108Y370594D01*
X51992Y370485D01*
X51883Y370369D01*
X51798Y370245D01*
X51720Y370128D01*
X51651Y370012D01*
X51596Y369896D01*
X51550Y369779D01*
X51519Y369671D01*
X51487Y369570D01*
X51472Y369477D01*
X51456Y369399D01*
X51441Y369329D01*
Y369267D01*
X51433Y369228D01*
Y369197D01*
Y369190D01*
X51441Y369034D01*
X51464Y368887D01*
X51495Y368747D01*
X51542Y368607D01*
X51588Y368483D01*
X51651Y368367D01*
X51713Y368258D01*
X51775Y368157D01*
X51837Y368064D01*
X51899Y367987D01*
X51961Y367917D01*
X52008Y367863D01*
X52054Y367816D01*
X52085Y367777D01*
X52108Y367762D01*
X52116Y367754D01*
X52248Y367645D01*
X52395Y367560D01*
X52558Y367475D01*
X52721Y367405D01*
X52884Y367350D01*
X53055Y367304D01*
X53226Y367265D01*
X53381Y367234D01*
X53536Y367203D01*
X53684Y367187D01*
X53808Y367172D01*
X53924Y367164D01*
X54009Y367156D01*
X54141D01*
X54397Y367164D01*
X54630Y367180D01*
X54848Y367211D01*
X55049Y367249D01*
X55236Y367288D01*
X55406Y367343D01*
X55562Y367389D01*
X55694Y367443D01*
X55810Y367498D01*
X55919Y367552D01*
X56004Y367606D01*
X56074Y367645D01*
X56128Y367684D01*
X56167Y367715D01*
X56190Y367731D01*
X56198Y367738D01*
X56314Y367847D01*
X56415Y367963D01*
X56501Y368080D01*
X56578Y368204D01*
X56640Y368320D01*
X56687Y368444D01*
X56733Y368561D01*
X56764Y368670D01*
X56795Y368771D01*
X56819Y368864D01*
X56826Y368949D01*
X56842Y369026D01*
Y369081D01*
X56850Y369127D01*
Y369159D01*
Y369166D01*
X56842Y369321D01*
X56819Y369477D01*
X56788Y369616D01*
X56749Y369756D01*
X56695Y369880D01*
X56640Y369997D01*
X56578Y370105D01*
X56516Y370206D01*
X56462Y370299D01*
X56400Y370377D01*
X56345Y370439D01*
X56291Y370501D01*
X56252Y370540D01*
X56221Y370579D01*
X56198Y370594D01*
X56190Y370602D01*
X56058Y370703D01*
X55911Y370788D01*
X55748Y370866D01*
X55585Y370928D01*
X55414Y370982D01*
X55236Y371029D01*
X55065Y371067D01*
X54894Y371098D01*
X54731Y371122D01*
X54584Y371137D01*
X54444Y371153D01*
X54328Y371161D01*
X54235D01*
X54157Y371168D01*
D02*
G37*
G36*
X-954Y123943D02*
X-958D01*
Y123657D01*
Y123564D01*
X-954Y123477D01*
X-949Y123395D01*
X-939Y123322D01*
X-929Y123254D01*
X-920Y123191D01*
X-905Y123133D01*
X-895Y123079D01*
X-886Y123036D01*
X-871Y122997D01*
X-862Y122963D01*
X-852Y122934D01*
X-842Y122915D01*
X-837Y122900D01*
X-832Y122890D01*
Y122885D01*
X-764Y122764D01*
X-682Y122658D01*
X-600Y122565D01*
X-512Y122493D01*
X-440Y122430D01*
X-406Y122405D01*
X-377Y122386D01*
X-352Y122371D01*
X-333Y122362D01*
X-323Y122352D01*
X-318D01*
X-187Y122289D01*
X-52Y122240D01*
X84Y122206D01*
X206Y122182D01*
X264Y122172D01*
X312Y122168D01*
X356Y122163D01*
X395D01*
X429Y122158D01*
X472D01*
X555Y122163D01*
X632Y122168D01*
X705Y122177D01*
X768Y122192D01*
X831Y122206D01*
X884Y122221D01*
X938Y122240D01*
X981Y122260D01*
X1025Y122279D01*
X1059Y122299D01*
X1088Y122313D01*
X1112Y122328D01*
X1132Y122342D01*
X1146Y122352D01*
X1151Y122362D01*
X1156D01*
X1195Y122400D01*
X1234Y122444D01*
X1292Y122527D01*
X1331Y122614D01*
X1360Y122696D01*
X1374Y122769D01*
X1384Y122822D01*
X1389Y122847D01*
Y122861D01*
Y122871D01*
Y122876D01*
X1384Y122949D01*
X1374Y123021D01*
X1355Y123084D01*
X1335Y123138D01*
X1316Y123181D01*
X1297Y123215D01*
X1287Y123235D01*
X1282Y123244D01*
X1238Y123302D01*
X1190Y123351D01*
X1142Y123395D01*
X1093Y123429D01*
X1049Y123458D01*
X1015Y123477D01*
X991Y123487D01*
X981Y123492D01*
X943Y123506D01*
X894Y123526D01*
X792Y123555D01*
X681Y123579D01*
X569Y123603D01*
X467Y123623D01*
X424Y123627D01*
X385Y123637D01*
X351Y123642D01*
X327D01*
X312Y123647D01*
X307D01*
X152Y123671D01*
X12Y123695D01*
X-124Y123720D01*
X-246Y123744D01*
X-362Y123768D01*
X-464Y123792D01*
X-556Y123817D01*
X-643Y123841D01*
X-716Y123860D01*
X-779Y123880D01*
X-837Y123899D01*
X-881Y123914D01*
X-915Y123928D01*
X-939Y123933D01*
X-954Y123943D01*
D02*
G37*
G36*
X-3687Y370819D02*
X-6493D01*
Y362848D01*
X-3687D01*
Y365014D01*
X7538D01*
Y368663D01*
X-3687D01*
Y370819D01*
D02*
G37*
G36*
X-2833Y359199D02*
X-2983D01*
X-3100Y359188D01*
X-3228D01*
X-3388Y359178D01*
X-3548Y359167D01*
X-3730Y359146D01*
X-4114Y359103D01*
X-4509Y359028D01*
X-4701Y358986D01*
X-4871Y358932D01*
X-5042Y358868D01*
X-5192Y358794D01*
X-5202D01*
X-5223Y358772D01*
X-5266Y358751D01*
X-5319Y358719D01*
X-5373Y358666D01*
X-5447Y358612D01*
X-5533Y358548D01*
X-5618Y358473D01*
X-5714Y358388D01*
X-5800Y358281D01*
X-5896Y358175D01*
X-6002Y358057D01*
X-6088Y357919D01*
X-6184Y357780D01*
X-6269Y357631D01*
X-6355Y357460D01*
Y357449D01*
X-6376Y357417D01*
X-6397Y357364D01*
X-6419Y357300D01*
X-6451Y357204D01*
X-6493Y357097D01*
X-6525Y356980D01*
X-6568Y356841D01*
X-6611Y356681D01*
X-6643Y356510D01*
X-6685Y356329D01*
X-6717Y356137D01*
X-6739Y355923D01*
X-6760Y355710D01*
X-6781Y355241D01*
Y355219D01*
Y355176D01*
Y355102D01*
X-6771Y355006D01*
Y354878D01*
X-6760Y354739D01*
X-6739Y354579D01*
X-6728Y354398D01*
X-6696Y354216D01*
X-6664Y354013D01*
X-6579Y353608D01*
X-6472Y353203D01*
X-6397Y353000D01*
X-6312Y352808D01*
Y352797D01*
X-6290Y352765D01*
X-6269Y352712D01*
X-6227Y352648D01*
X-6184Y352562D01*
X-6130Y352477D01*
X-5992Y352264D01*
X-5832Y352040D01*
X-5629Y351826D01*
X-5522Y351730D01*
X-5405Y351634D01*
X-5277Y351549D01*
X-5149Y351485D01*
X-5138D01*
X-5117Y351474D01*
X-5074Y351453D01*
X-5010Y351431D01*
X-4935Y351410D01*
X-4839Y351378D01*
X-4733Y351346D01*
X-4594Y351314D01*
X-4445Y351293D01*
X-4274Y351261D01*
X-4071Y351229D01*
X-3858Y351207D01*
X-3623Y351186D01*
X-3367Y351165D01*
X-3090Y351154D01*
X-2236D01*
Y354547D01*
X-3388D01*
X-3516Y354558D01*
X-3666Y354568D01*
X-3826Y354579D01*
X-3975Y354600D01*
X-4114Y354643D01*
X-4167Y354664D01*
X-4210Y354686D01*
X-4220Y354696D01*
X-4242Y354707D01*
X-4274Y354739D01*
X-4316Y354792D01*
X-4349Y354846D01*
X-4381Y354920D01*
X-4402Y355016D01*
X-4413Y355123D01*
Y355134D01*
Y355176D01*
X-4402Y355241D01*
X-4381Y355305D01*
X-4349Y355390D01*
X-4295Y355475D01*
X-4231Y355550D01*
X-4135Y355625D01*
X-4124Y355635D01*
X-4082Y355646D01*
X-4018Y355678D01*
X-3932Y355699D01*
X-3815Y355731D01*
X-3676Y355763D01*
X-3516Y355774D01*
X-3324Y355785D01*
X-3207D01*
X-3079Y355774D01*
X-2929Y355763D01*
X-2759Y355742D01*
X-2577Y355710D01*
X-2407Y355667D01*
X-2257Y355603D01*
X-2246Y355593D01*
X-2193Y355561D01*
X-2118Y355497D01*
X-2022Y355401D01*
X-1959Y355347D01*
X-1894Y355273D01*
X-1820Y355187D01*
X-1745Y355091D01*
X-1670Y354984D01*
X-1585Y354856D01*
X-1500Y354718D01*
X-1404Y354568D01*
Y354558D01*
X-1382Y354536D01*
X-1372Y354504D01*
X-1340Y354462D01*
X-1308Y354408D01*
X-1265Y354334D01*
X-1169Y354173D01*
X-1041Y353981D01*
X-902Y353757D01*
X-742Y353523D01*
X-571Y353267D01*
X-379Y353011D01*
X-198Y352744D01*
X5Y352488D01*
X207Y352242D01*
X400Y352008D01*
X592Y351805D01*
X784Y351634D01*
X965Y351495D01*
X976Y351485D01*
X1008Y351463D01*
X1061Y351431D01*
X1146Y351399D01*
X1242Y351346D01*
X1371Y351293D01*
X1520Y351239D01*
X1691Y351175D01*
X1883Y351111D01*
X2107Y351058D01*
X2352Y351005D01*
X2619Y350951D01*
X2918Y350919D01*
X3238Y350887D01*
X3590Y350866D01*
X3963Y350855D01*
X4209D01*
X4326Y350866D01*
X4476Y350876D01*
X4636Y350887D01*
X4796Y350898D01*
X5158Y350940D01*
X5521Y351005D01*
X5703Y351047D01*
X5873Y351090D01*
X6033Y351143D01*
X6172Y351207D01*
X6183D01*
X6204Y351229D01*
X6236Y351250D01*
X6289Y351282D01*
X6353Y351325D01*
X6418Y351367D01*
X6503Y351431D01*
X6588Y351506D01*
X6674Y351591D01*
X6770Y351698D01*
X6866Y351805D01*
X6972Y351933D01*
X7068Y352071D01*
X7164Y352221D01*
X7260Y352392D01*
X7356Y352573D01*
Y352584D01*
X7378Y352616D01*
X7399Y352669D01*
X7431Y352754D01*
X7463Y352851D01*
X7506Y352957D01*
X7548Y353096D01*
X7591Y353245D01*
X7644Y353405D01*
X7687Y353587D01*
X7730Y353779D01*
X7762Y353981D01*
X7794Y354195D01*
X7815Y354430D01*
X7826Y354664D01*
X7837Y354910D01*
Y354931D01*
Y354974D01*
Y355048D01*
X7826Y355155D01*
X7815Y355283D01*
X7805Y355422D01*
X7794Y355593D01*
X7762Y355774D01*
X7741Y355966D01*
X7698Y356158D01*
X7602Y356574D01*
X7538Y356788D01*
X7463Y357001D01*
X7378Y357204D01*
X7282Y357406D01*
X7271Y357417D01*
X7260Y357449D01*
X7228Y357503D01*
X7186Y357577D01*
X7122Y357652D01*
X7058Y357748D01*
X6983Y357855D01*
X6898Y357961D01*
X6695Y358196D01*
X6449Y358410D01*
X6322Y358516D01*
X6183Y358612D01*
X6033Y358698D01*
X5873Y358762D01*
X5863D01*
X5831Y358772D01*
X5788Y358794D01*
X5713Y358815D01*
X5628Y358836D01*
X5521Y358858D01*
X5393Y358890D01*
X5244Y358922D01*
X5084Y358954D01*
X4902Y358975D01*
X4700Y359007D01*
X4486Y359028D01*
X4251Y359050D01*
X3995Y359071D01*
X3729Y359082D01*
X2512D01*
Y355689D01*
X4358D01*
X4486Y355678D01*
X4657Y355667D01*
X4828Y355657D01*
X4988Y355625D01*
X5137Y355593D01*
X5190Y355571D01*
X5244Y355550D01*
X5254Y355539D01*
X5276Y355518D01*
X5319Y355486D01*
X5350Y355433D01*
X5393Y355369D01*
X5436Y355283D01*
X5457Y355176D01*
X5468Y355048D01*
Y355027D01*
Y354984D01*
X5457Y354920D01*
X5436Y354846D01*
X5404Y354760D01*
X5350Y354664D01*
X5286Y354579D01*
X5190Y354504D01*
X5180Y354494D01*
X5137Y354472D01*
X5073Y354451D01*
X4977Y354408D01*
X4860Y354376D01*
X4710Y354355D01*
X4540Y354334D01*
X4337Y354323D01*
X4134D01*
X4038Y354334D01*
X3921Y354344D01*
X3665Y354366D01*
X3387Y354408D01*
X3121Y354462D01*
X3003Y354504D01*
X2896Y354547D01*
X2790Y354600D01*
X2715Y354664D01*
X2694Y354686D01*
X2672Y354707D01*
X2640Y354739D01*
X2598Y354782D01*
X2544Y354846D01*
X2480Y354920D01*
X2406Y355006D01*
X2331Y355113D01*
X2235Y355230D01*
X2128Y355369D01*
X2011Y355529D01*
X1883Y355710D01*
X1744Y355902D01*
X1595Y356126D01*
X1435Y356371D01*
X1424Y356382D01*
X1392Y356436D01*
X1349Y356500D01*
X1285Y356596D01*
X1211Y356702D01*
X1125Y356830D01*
X1040Y356969D01*
X933Y357108D01*
X720Y357417D01*
X506Y357716D01*
X400Y357855D01*
X304Y357983D01*
X218Y358089D01*
X133Y358185D01*
X111Y358207D01*
X58Y358260D01*
X-38Y358335D01*
X-155Y358441D01*
X-315Y358559D01*
X-507Y358676D01*
X-731Y358794D01*
X-988Y358911D01*
X-998D01*
X-1020Y358922D01*
X-1062Y358932D01*
X-1115Y358954D01*
X-1190Y358975D01*
X-1276Y359007D01*
X-1372Y359028D01*
X-1489Y359050D01*
X-1617Y359082D01*
X-1756Y359103D01*
X-1905Y359135D01*
X-2076Y359156D01*
X-2246Y359167D01*
X-2428Y359188D01*
X-2833Y359199D01*
D02*
G37*
G36*
X2480Y380006D02*
X-1180D01*
X-1382Y379995D01*
X-1830D01*
X-2321Y379984D01*
X-2823Y379963D01*
X-3057Y379952D01*
X-3271Y379942D01*
X-3474Y379931D01*
X-3655Y379910D01*
X-3666D01*
X-3698Y379899D01*
X-3740D01*
X-3804Y379888D01*
X-3879Y379867D01*
X-3975Y379856D01*
X-4071Y379824D01*
X-4188Y379792D01*
X-4434Y379717D01*
X-4711Y379611D01*
X-4989Y379472D01*
X-5266Y379291D01*
X-5277Y379280D01*
X-5298Y379269D01*
X-5341Y379237D01*
X-5384Y379195D01*
X-5447Y379141D01*
X-5512Y379077D01*
X-5597Y379003D01*
X-5682Y378917D01*
X-5864Y378714D01*
X-6045Y378469D01*
X-6227Y378192D01*
X-6386Y377872D01*
Y377861D01*
X-6408Y377829D01*
X-6419Y377776D01*
X-6451Y377712D01*
X-6482Y377626D01*
X-6515Y377519D01*
X-6547Y377402D01*
X-6589Y377274D01*
X-6621Y377125D01*
X-6653Y376965D01*
X-6685Y376794D01*
X-6717Y376612D01*
X-6760Y376218D01*
X-6781Y375780D01*
Y375770D01*
Y375727D01*
Y375674D01*
X-6771Y375588D01*
Y375492D01*
X-6760Y375375D01*
X-6749Y375247D01*
X-6739Y375108D01*
X-6685Y374799D01*
X-6621Y374457D01*
X-6536Y374105D01*
X-6408Y373764D01*
Y373753D01*
X-6386Y373721D01*
X-6365Y373678D01*
X-6333Y373614D01*
X-6301Y373540D01*
X-6248Y373444D01*
X-6130Y373241D01*
X-5970Y373006D01*
X-5778Y372771D01*
X-5554Y372526D01*
X-5298Y372312D01*
X-5288Y372302D01*
X-5266Y372291D01*
X-5223Y372259D01*
X-5170Y372227D01*
X-5106Y372184D01*
X-5021Y372131D01*
X-4925Y372078D01*
X-4818Y372024D01*
X-4583Y371918D01*
X-4316Y371811D01*
X-4018Y371715D01*
X-3698Y371662D01*
X-3655D01*
X-3602Y371651D01*
X-3527Y371640D01*
X-3431D01*
X-3314Y371630D01*
X-3164Y371619D01*
X-2993Y371608D01*
X-2801Y371598D01*
X-2577Y371587D01*
X-2332Y371576D01*
X-2055D01*
X-1756Y371566D01*
X-1425Y371555D01*
X2448D01*
X2662Y371566D01*
X2896D01*
X3398Y371576D01*
X3889Y371598D01*
X4123Y371608D01*
X4347Y371630D01*
X4550Y371640D01*
X4732Y371662D01*
X4774D01*
X4817Y371672D01*
X4881Y371683D01*
X4956Y371704D01*
X5041Y371715D01*
X5148Y371747D01*
X5254Y371779D01*
X5511Y371854D01*
X5777Y371971D01*
X6055Y372110D01*
X6332Y372291D01*
X6343Y372302D01*
X6364Y372312D01*
X6396Y372344D01*
X6449Y372387D01*
X6514Y372441D01*
X6577Y372505D01*
X6663Y372579D01*
X6748Y372665D01*
X6919Y372867D01*
X7111Y373113D01*
X7292Y373390D01*
X7452Y373710D01*
Y373721D01*
X7474Y373753D01*
X7485Y373796D01*
X7517Y373870D01*
X7538Y373956D01*
X7570Y374052D01*
X7613Y374169D01*
X7644Y374297D01*
X7677Y374447D01*
X7719Y374607D01*
X7751Y374777D01*
X7773Y374959D01*
X7815Y375354D01*
X7837Y375780D01*
Y375791D01*
Y375834D01*
Y375887D01*
X7826Y375972D01*
Y376068D01*
X7815Y376186D01*
X7805Y376314D01*
X7794Y376463D01*
X7751Y376773D01*
X7687Y377114D01*
X7591Y377466D01*
X7474Y377818D01*
Y377829D01*
X7452Y377861D01*
X7431Y377904D01*
X7399Y377968D01*
X7367Y378042D01*
X7314Y378128D01*
X7196Y378330D01*
X7036Y378565D01*
X6844Y378800D01*
X6620Y379045D01*
X6364Y379259D01*
X6353Y379269D01*
X6332Y379280D01*
X6289Y379312D01*
X6236Y379344D01*
X6161Y379387D01*
X6087Y379440D01*
X5991Y379493D01*
X5884Y379547D01*
X5649Y379654D01*
X5382Y379760D01*
X5084Y379846D01*
X4764Y379910D01*
X4721D01*
X4668Y379920D01*
X4593D01*
X4497Y379931D01*
X4380Y379942D01*
X4230Y379952D01*
X4059D01*
X3867Y379963D01*
X3643Y379974D01*
X3398Y379984D01*
X3121Y379995D01*
X2822D01*
X2480Y380006D01*
D02*
G37*
G36*
X7538Y330166D02*
X-6493D01*
Y327584D01*
Y327573D01*
Y327552D01*
Y327520D01*
Y327467D01*
Y327413D01*
Y327339D01*
Y327168D01*
X-6482Y326954D01*
Y326720D01*
X-6472Y326453D01*
Y326175D01*
X-6440Y325599D01*
X-6429Y325301D01*
X-6408Y325023D01*
X-6386Y324756D01*
X-6355Y324500D01*
X-6323Y324287D01*
X-6290Y324095D01*
Y324084D01*
X-6280Y324052D01*
X-6269Y324009D01*
X-6248Y323945D01*
X-6216Y323860D01*
X-6184Y323775D01*
X-6088Y323561D01*
X-6024Y323444D01*
X-5949Y323327D01*
X-5864Y323199D01*
X-5778Y323081D01*
X-5661Y322953D01*
X-5544Y322825D01*
X-5415Y322708D01*
X-5266Y322601D01*
X-5255Y322590D01*
X-5223Y322580D01*
X-5181Y322548D01*
X-5117Y322505D01*
X-5021Y322462D01*
X-4914Y322420D01*
X-4786Y322366D01*
X-4637Y322302D01*
X-4466Y322249D01*
X-4274Y322196D01*
X-4061Y322153D01*
X-3826Y322110D01*
X-3570Y322067D01*
X-3292Y322036D01*
X-2983Y322025D01*
X-2663Y322014D01*
X-2503D01*
X-2396Y322025D01*
X-2268D01*
X-2118Y322036D01*
X-1948Y322046D01*
X-1766Y322067D01*
X-1404Y322110D01*
X-1041Y322185D01*
X-870Y322238D01*
X-710Y322292D01*
X-571Y322356D01*
X-454Y322430D01*
X-443D01*
X-433Y322452D01*
X-401Y322473D01*
X-369Y322516D01*
X-326Y322558D01*
X-273Y322622D01*
X-219Y322697D01*
X-166Y322782D01*
X-102Y322878D01*
X-48Y322996D01*
X5Y323134D01*
X58Y323273D01*
X111Y323444D01*
X154Y323615D01*
X186Y323817D01*
X218Y324031D01*
Y324020D01*
X229Y323988D01*
X250Y323924D01*
X272Y323849D01*
X293Y323764D01*
X325Y323668D01*
X410Y323444D01*
X517Y323199D01*
X634Y322964D01*
X709Y322846D01*
X784Y322750D01*
X858Y322654D01*
X944Y322580D01*
X965Y322558D01*
X1018Y322516D01*
X1104Y322452D01*
X1211Y322377D01*
X1339Y322302D01*
X1477Y322228D01*
X1627Y322153D01*
X1765Y322110D01*
X1787D01*
X1808Y322099D01*
X1851D01*
X1904Y322089D01*
X1968Y322078D01*
X2064Y322067D01*
X2160Y322057D01*
X2288D01*
X2438Y322046D01*
X2608Y322036D01*
X2800Y322025D01*
X3024D01*
X3270Y322014D01*
X7538D01*
Y325407D01*
X2608D01*
X2502Y325418D01*
X2277Y325429D01*
X2043Y325450D01*
X1819Y325482D01*
X1712Y325503D01*
X1627Y325525D01*
X1552Y325557D01*
X1488Y325589D01*
X1477Y325599D01*
X1445Y325631D01*
X1403Y325685D01*
X1349Y325770D01*
X1296Y325898D01*
X1275Y325973D01*
X1253Y326058D01*
X1232Y326154D01*
X1221Y326261D01*
X1211Y326378D01*
Y326517D01*
X7538D01*
Y330166D01*
D02*
G37*
G36*
Y349713D02*
X-6493D01*
Y346064D01*
X-1468D01*
Y344976D01*
X-6493D01*
Y341327D01*
X7538D01*
Y344976D01*
X1648D01*
Y346064D01*
X7538D01*
Y349713D01*
D02*
G37*
G36*
X2480Y339972D02*
X-1180D01*
X-1382Y339961D01*
X-1830D01*
X-2321Y339950D01*
X-2823Y339929D01*
X-3057Y339918D01*
X-3271Y339908D01*
X-3474Y339897D01*
X-3655Y339876D01*
X-3666D01*
X-3698Y339865D01*
X-3740D01*
X-3804Y339854D01*
X-3879Y339833D01*
X-3975Y339822D01*
X-4071Y339790D01*
X-4188Y339758D01*
X-4434Y339684D01*
X-4711Y339577D01*
X-4989Y339438D01*
X-5266Y339257D01*
X-5277Y339246D01*
X-5298Y339235D01*
X-5341Y339204D01*
X-5384Y339161D01*
X-5447Y339107D01*
X-5512Y339043D01*
X-5597Y338969D01*
X-5682Y338883D01*
X-5864Y338681D01*
X-6045Y338435D01*
X-6227Y338158D01*
X-6386Y337838D01*
Y337827D01*
X-6408Y337795D01*
X-6419Y337742D01*
X-6451Y337678D01*
X-6482Y337592D01*
X-6515Y337486D01*
X-6547Y337368D01*
X-6589Y337240D01*
X-6621Y337091D01*
X-6653Y336931D01*
X-6685Y336760D01*
X-6717Y336579D01*
X-6760Y336184D01*
X-6781Y335746D01*
Y335736D01*
Y335693D01*
Y335640D01*
X-6771Y335554D01*
Y335458D01*
X-6760Y335341D01*
X-6749Y335213D01*
X-6739Y335074D01*
X-6685Y334765D01*
X-6621Y334423D01*
X-6536Y334071D01*
X-6408Y333730D01*
Y333719D01*
X-6386Y333687D01*
X-6365Y333645D01*
X-6333Y333580D01*
X-6301Y333506D01*
X-6248Y333410D01*
X-6130Y333207D01*
X-5970Y332972D01*
X-5778Y332737D01*
X-5554Y332492D01*
X-5298Y332279D01*
X-5288Y332268D01*
X-5266Y332257D01*
X-5223Y332225D01*
X-5170Y332193D01*
X-5106Y332151D01*
X-5021Y332097D01*
X-4925Y332044D01*
X-4818Y331991D01*
X-4583Y331884D01*
X-4316Y331777D01*
X-4018Y331681D01*
X-3698Y331628D01*
X-3655D01*
X-3602Y331617D01*
X-3527Y331607D01*
X-3431D01*
X-3314Y331596D01*
X-3164Y331585D01*
X-2993Y331575D01*
X-2801Y331564D01*
X-2577Y331553D01*
X-2332Y331542D01*
X-2055D01*
X-1756Y331532D01*
X-1425Y331521D01*
X2448D01*
X2662Y331532D01*
X2896D01*
X3398Y331542D01*
X3889Y331564D01*
X4123Y331575D01*
X4347Y331596D01*
X4550Y331607D01*
X4732Y331628D01*
X4774D01*
X4817Y331639D01*
X4881Y331649D01*
X4956Y331670D01*
X5041Y331681D01*
X5148Y331713D01*
X5254Y331745D01*
X5511Y331820D01*
X5777Y331937D01*
X6055Y332076D01*
X6332Y332257D01*
X6343Y332268D01*
X6364Y332279D01*
X6396Y332311D01*
X6449Y332353D01*
X6514Y332407D01*
X6577Y332471D01*
X6663Y332545D01*
X6748Y332631D01*
X6919Y332834D01*
X7111Y333079D01*
X7292Y333356D01*
X7452Y333677D01*
Y333687D01*
X7474Y333719D01*
X7485Y333762D01*
X7517Y333837D01*
X7538Y333922D01*
X7570Y334018D01*
X7613Y334135D01*
X7644Y334263D01*
X7677Y334413D01*
X7719Y334573D01*
X7751Y334743D01*
X7773Y334925D01*
X7815Y335320D01*
X7837Y335746D01*
Y335757D01*
Y335800D01*
Y335853D01*
X7826Y335939D01*
Y336034D01*
X7815Y336152D01*
X7805Y336280D01*
X7794Y336429D01*
X7751Y336739D01*
X7687Y337080D01*
X7591Y337432D01*
X7474Y337784D01*
Y337795D01*
X7452Y337827D01*
X7431Y337870D01*
X7399Y337934D01*
X7367Y338008D01*
X7314Y338094D01*
X7196Y338297D01*
X7036Y338531D01*
X6844Y338766D01*
X6620Y339012D01*
X6364Y339225D01*
X6353Y339235D01*
X6332Y339246D01*
X6289Y339278D01*
X6236Y339310D01*
X6161Y339353D01*
X6087Y339406D01*
X5991Y339460D01*
X5884Y339513D01*
X5649Y339620D01*
X5382Y339726D01*
X5084Y339812D01*
X4764Y339876D01*
X4721D01*
X4668Y339886D01*
X4593D01*
X4497Y339897D01*
X4380Y339908D01*
X4230Y339918D01*
X4059D01*
X3867Y339929D01*
X3643Y339940D01*
X3398Y339950D01*
X3121Y339961D01*
X2822D01*
X2480Y339972D01*
D02*
G37*
G36*
X7538Y389513D02*
X-6493D01*
Y386461D01*
X-166Y384412D01*
X-6493D01*
Y381361D01*
X7538D01*
Y384562D01*
X1168Y386461D01*
X7538D01*
Y389513D01*
D02*
G37*
G36*
X1595Y437421D02*
X-518D01*
Y434305D01*
X-3634D01*
Y432193D01*
X-518D01*
Y429066D01*
X1595D01*
Y432193D01*
X4700D01*
Y434305D01*
X1595D01*
Y437421D01*
D02*
G37*
G36*
X7538Y412144D02*
X-6493D01*
Y409423D01*
Y409412D01*
Y409391D01*
Y409359D01*
Y409305D01*
Y409241D01*
Y409177D01*
Y409092D01*
Y408996D01*
X-6482Y408783D01*
Y408537D01*
X-6472Y408270D01*
X-6461Y407982D01*
X-6451Y407684D01*
X-6429Y407385D01*
X-6419Y407086D01*
X-6386Y406798D01*
X-6365Y406521D01*
X-6333Y406264D01*
X-6290Y406040D01*
X-6248Y405848D01*
Y405838D01*
X-6237Y405806D01*
X-6227Y405763D01*
X-6205Y405699D01*
X-6173Y405614D01*
X-6141Y405528D01*
X-6056Y405315D01*
X-5949Y405091D01*
X-5810Y404856D01*
X-5640Y404632D01*
X-5544Y404525D01*
X-5447Y404429D01*
X-5437Y404419D01*
X-5426Y404408D01*
X-5394Y404387D01*
X-5351Y404354D01*
X-5234Y404269D01*
X-5085Y404173D01*
X-4903Y404066D01*
X-4690Y403970D01*
X-4455Y403885D01*
X-4210Y403821D01*
X-4199D01*
X-4178Y403810D01*
X-4135D01*
X-4071Y403800D01*
X-3996Y403789D01*
X-3890Y403778D01*
X-3772Y403768D01*
X-3623Y403757D01*
X-3452Y403746D01*
X-3260Y403736D01*
X-3047Y403725D01*
X-2801Y403714D01*
X-2535Y403704D01*
X-2225Y403693D01*
X3835D01*
X4006Y403704D01*
X4198D01*
X4401Y403714D01*
X4828Y403736D01*
X5030Y403746D01*
X5244Y403768D01*
X5436Y403789D01*
X5617Y403810D01*
X5767Y403842D01*
X5905Y403874D01*
X5916D01*
X5937Y403885D01*
X5969Y403896D01*
X6012Y403906D01*
X6119Y403960D01*
X6268Y404024D01*
X6428Y404109D01*
X6588Y404216D01*
X6748Y404344D01*
X6898Y404504D01*
X6908Y404525D01*
X6951Y404579D01*
X7015Y404675D01*
X7100Y404803D01*
X7175Y404963D01*
X7260Y405144D01*
X7335Y405358D01*
X7399Y405592D01*
Y405603D01*
X7410Y405624D01*
Y405656D01*
X7421Y405710D01*
X7431Y405784D01*
X7442Y405859D01*
X7452Y405966D01*
X7463Y406072D01*
X7485Y406201D01*
X7495Y406350D01*
X7506Y406510D01*
X7517Y406681D01*
X7527Y406873D01*
Y407086D01*
X7538Y407310D01*
Y407545D01*
Y412144D01*
D02*
G37*
G36*
X2480Y402445D02*
X-1180D01*
X-1382Y402434D01*
X-1830D01*
X-2321Y402423D01*
X-2823Y402402D01*
X-3057Y402391D01*
X-3271Y402381D01*
X-3474Y402370D01*
X-3655Y402349D01*
X-3666D01*
X-3698Y402338D01*
X-3740D01*
X-3804Y402327D01*
X-3879Y402306D01*
X-3975Y402295D01*
X-4071Y402263D01*
X-4188Y402231D01*
X-4434Y402156D01*
X-4711Y402050D01*
X-4989Y401911D01*
X-5266Y401730D01*
X-5277Y401719D01*
X-5298Y401708D01*
X-5341Y401676D01*
X-5384Y401634D01*
X-5447Y401580D01*
X-5512Y401516D01*
X-5597Y401442D01*
X-5682Y401356D01*
X-5864Y401154D01*
X-6045Y400908D01*
X-6227Y400631D01*
X-6386Y400311D01*
Y400300D01*
X-6408Y400268D01*
X-6419Y400215D01*
X-6451Y400151D01*
X-6482Y400065D01*
X-6515Y399958D01*
X-6547Y399841D01*
X-6589Y399713D01*
X-6621Y399564D01*
X-6653Y399404D01*
X-6685Y399233D01*
X-6717Y399051D01*
X-6760Y398657D01*
X-6781Y398219D01*
Y398209D01*
Y398166D01*
Y398113D01*
X-6771Y398027D01*
Y397931D01*
X-6760Y397814D01*
X-6749Y397686D01*
X-6739Y397547D01*
X-6685Y397238D01*
X-6621Y396896D01*
X-6536Y396544D01*
X-6408Y396203D01*
Y396192D01*
X-6386Y396160D01*
X-6365Y396117D01*
X-6333Y396053D01*
X-6301Y395979D01*
X-6248Y395883D01*
X-6130Y395680D01*
X-5970Y395445D01*
X-5778Y395210D01*
X-5554Y394965D01*
X-5298Y394752D01*
X-5288Y394741D01*
X-5266Y394730D01*
X-5223Y394698D01*
X-5170Y394666D01*
X-5106Y394623D01*
X-5021Y394570D01*
X-4925Y394517D01*
X-4818Y394463D01*
X-4583Y394357D01*
X-4316Y394250D01*
X-4018Y394154D01*
X-3698Y394101D01*
X-3655D01*
X-3602Y394090D01*
X-3527Y394079D01*
X-3431D01*
X-3314Y394069D01*
X-3164Y394058D01*
X-2993Y394047D01*
X-2801Y394037D01*
X-2577Y394026D01*
X-2332Y394015D01*
X-2055D01*
X-1756Y394005D01*
X-1425Y393994D01*
X2448D01*
X2662Y394005D01*
X2896D01*
X3398Y394015D01*
X3889Y394037D01*
X4123Y394047D01*
X4347Y394069D01*
X4550Y394079D01*
X4732Y394101D01*
X4774D01*
X4817Y394111D01*
X4881Y394122D01*
X4956Y394143D01*
X5041Y394154D01*
X5148Y394186D01*
X5254Y394218D01*
X5511Y394293D01*
X5777Y394410D01*
X6055Y394549D01*
X6332Y394730D01*
X6343Y394741D01*
X6364Y394752D01*
X6396Y394784D01*
X6449Y394826D01*
X6514Y394880D01*
X6577Y394944D01*
X6663Y395018D01*
X6748Y395104D01*
X6919Y395306D01*
X7111Y395552D01*
X7292Y395829D01*
X7452Y396149D01*
Y396160D01*
X7474Y396192D01*
X7485Y396235D01*
X7517Y396309D01*
X7538Y396395D01*
X7570Y396491D01*
X7613Y396608D01*
X7644Y396736D01*
X7677Y396885D01*
X7719Y397046D01*
X7751Y397216D01*
X7773Y397398D01*
X7815Y397793D01*
X7837Y398219D01*
Y398230D01*
Y398273D01*
Y398326D01*
X7826Y398411D01*
Y398507D01*
X7815Y398625D01*
X7805Y398753D01*
X7794Y398902D01*
X7751Y399212D01*
X7687Y399553D01*
X7591Y399905D01*
X7474Y400257D01*
Y400268D01*
X7452Y400300D01*
X7431Y400343D01*
X7399Y400407D01*
X7367Y400481D01*
X7314Y400567D01*
X7196Y400769D01*
X7036Y401004D01*
X6844Y401239D01*
X6620Y401484D01*
X6364Y401698D01*
X6353Y401708D01*
X6332Y401719D01*
X6289Y401751D01*
X6236Y401783D01*
X6161Y401826D01*
X6087Y401879D01*
X5991Y401932D01*
X5884Y401986D01*
X5649Y402093D01*
X5382Y402199D01*
X5084Y402285D01*
X4764Y402349D01*
X4721D01*
X4668Y402359D01*
X4593D01*
X4497Y402370D01*
X4380Y402381D01*
X4230Y402391D01*
X4059D01*
X3867Y402402D01*
X3643Y402413D01*
X3398Y402423D01*
X3121Y402434D01*
X2822D01*
X2480Y402445D01*
D02*
G37*
G36*
X-2833Y259061D02*
X-2983D01*
X-3100Y259050D01*
X-3228D01*
X-3388Y259040D01*
X-3548Y259029D01*
X-3730Y259008D01*
X-4114Y258965D01*
X-4509Y258890D01*
X-4701Y258848D01*
X-4871Y258794D01*
X-5042Y258730D01*
X-5192Y258656D01*
X-5202D01*
X-5223Y258634D01*
X-5266Y258613D01*
X-5319Y258581D01*
X-5373Y258528D01*
X-5447Y258474D01*
X-5533Y258410D01*
X-5618Y258336D01*
X-5714Y258250D01*
X-5800Y258143D01*
X-5896Y258037D01*
X-6002Y257920D01*
X-6088Y257781D01*
X-6184Y257642D01*
X-6269Y257493D01*
X-6355Y257322D01*
Y257311D01*
X-6376Y257279D01*
X-6397Y257226D01*
X-6419Y257162D01*
X-6451Y257066D01*
X-6493Y256959D01*
X-6525Y256842D01*
X-6568Y256703D01*
X-6611Y256543D01*
X-6643Y256372D01*
X-6685Y256191D01*
X-6717Y255999D01*
X-6739Y255785D01*
X-6760Y255572D01*
X-6781Y255103D01*
Y255081D01*
Y255039D01*
Y254964D01*
X-6771Y254868D01*
Y254740D01*
X-6760Y254601D01*
X-6739Y254441D01*
X-6728Y254260D01*
X-6696Y254078D01*
X-6664Y253875D01*
X-6579Y253470D01*
X-6472Y253065D01*
X-6397Y252862D01*
X-6312Y252670D01*
Y252659D01*
X-6290Y252627D01*
X-6269Y252574D01*
X-6227Y252510D01*
X-6184Y252424D01*
X-6130Y252339D01*
X-5992Y252126D01*
X-5832Y251902D01*
X-5629Y251688D01*
X-5522Y251592D01*
X-5405Y251496D01*
X-5277Y251411D01*
X-5149Y251347D01*
X-5138D01*
X-5117Y251336D01*
X-5074Y251315D01*
X-5010Y251293D01*
X-4935Y251272D01*
X-4839Y251240D01*
X-4733Y251208D01*
X-4594Y251176D01*
X-4445Y251155D01*
X-4274Y251123D01*
X-4071Y251091D01*
X-3858Y251069D01*
X-3623Y251048D01*
X-3367Y251027D01*
X-3090Y251016D01*
X-2236D01*
Y254409D01*
X-3388D01*
X-3516Y254420D01*
X-3666Y254430D01*
X-3826Y254441D01*
X-3975Y254462D01*
X-4114Y254505D01*
X-4167Y254526D01*
X-4210Y254548D01*
X-4220Y254558D01*
X-4242Y254569D01*
X-4274Y254601D01*
X-4316Y254654D01*
X-4349Y254708D01*
X-4381Y254783D01*
X-4402Y254878D01*
X-4413Y254985D01*
Y254996D01*
Y255039D01*
X-4402Y255103D01*
X-4381Y255167D01*
X-4349Y255252D01*
X-4295Y255337D01*
X-4231Y255412D01*
X-4135Y255487D01*
X-4124Y255497D01*
X-4082Y255508D01*
X-4018Y255540D01*
X-3932Y255561D01*
X-3815Y255593D01*
X-3676Y255625D01*
X-3516Y255636D01*
X-3324Y255647D01*
X-3207D01*
X-3079Y255636D01*
X-2929Y255625D01*
X-2759Y255604D01*
X-2577Y255572D01*
X-2407Y255529D01*
X-2257Y255465D01*
X-2246Y255455D01*
X-2193Y255423D01*
X-2118Y255359D01*
X-2022Y255263D01*
X-1959Y255209D01*
X-1894Y255135D01*
X-1820Y255049D01*
X-1745Y254953D01*
X-1670Y254847D01*
X-1585Y254718D01*
X-1500Y254580D01*
X-1404Y254430D01*
Y254420D01*
X-1382Y254398D01*
X-1372Y254366D01*
X-1340Y254324D01*
X-1308Y254270D01*
X-1265Y254196D01*
X-1169Y254036D01*
X-1041Y253843D01*
X-902Y253620D01*
X-742Y253385D01*
X-571Y253129D01*
X-379Y252873D01*
X-198Y252606D01*
X5Y252350D01*
X207Y252104D01*
X400Y251870D01*
X592Y251667D01*
X784Y251496D01*
X965Y251357D01*
X976Y251347D01*
X1008Y251325D01*
X1061Y251293D01*
X1146Y251261D01*
X1242Y251208D01*
X1371Y251155D01*
X1520Y251101D01*
X1691Y251037D01*
X1883Y250973D01*
X2107Y250920D01*
X2352Y250867D01*
X2619Y250813D01*
X2918Y250781D01*
X3238Y250749D01*
X3590Y250728D01*
X3963Y250717D01*
X4209D01*
X4326Y250728D01*
X4476Y250739D01*
X4636Y250749D01*
X4796Y250760D01*
X5158Y250803D01*
X5521Y250867D01*
X5703Y250909D01*
X5873Y250952D01*
X6033Y251005D01*
X6172Y251069D01*
X6183D01*
X6204Y251091D01*
X6236Y251112D01*
X6289Y251144D01*
X6353Y251187D01*
X6418Y251229D01*
X6503Y251293D01*
X6588Y251368D01*
X6674Y251453D01*
X6770Y251560D01*
X6866Y251667D01*
X6972Y251795D01*
X7068Y251934D01*
X7164Y252083D01*
X7260Y252254D01*
X7356Y252435D01*
Y252446D01*
X7378Y252478D01*
X7399Y252531D01*
X7431Y252617D01*
X7463Y252712D01*
X7506Y252819D01*
X7548Y252958D01*
X7591Y253107D01*
X7644Y253267D01*
X7687Y253449D01*
X7730Y253641D01*
X7762Y253843D01*
X7794Y254057D01*
X7815Y254292D01*
X7826Y254526D01*
X7837Y254772D01*
Y254793D01*
Y254836D01*
Y254910D01*
X7826Y255017D01*
X7815Y255145D01*
X7805Y255284D01*
X7794Y255455D01*
X7762Y255636D01*
X7741Y255828D01*
X7698Y256020D01*
X7602Y256436D01*
X7538Y256650D01*
X7463Y256863D01*
X7378Y257066D01*
X7282Y257269D01*
X7271Y257279D01*
X7260Y257311D01*
X7228Y257365D01*
X7186Y257439D01*
X7122Y257514D01*
X7058Y257610D01*
X6983Y257717D01*
X6898Y257823D01*
X6695Y258058D01*
X6449Y258272D01*
X6322Y258378D01*
X6183Y258474D01*
X6033Y258560D01*
X5873Y258624D01*
X5863D01*
X5831Y258634D01*
X5788Y258656D01*
X5713Y258677D01*
X5628Y258698D01*
X5521Y258720D01*
X5393Y258752D01*
X5244Y258784D01*
X5084Y258816D01*
X4902Y258837D01*
X4700Y258869D01*
X4486Y258890D01*
X4251Y258912D01*
X3995Y258933D01*
X3729Y258944D01*
X2512D01*
Y255551D01*
X4358D01*
X4486Y255540D01*
X4657Y255529D01*
X4828Y255519D01*
X4988Y255487D01*
X5137Y255455D01*
X5190Y255433D01*
X5244Y255412D01*
X5254Y255401D01*
X5276Y255380D01*
X5319Y255348D01*
X5350Y255295D01*
X5393Y255231D01*
X5436Y255145D01*
X5457Y255039D01*
X5468Y254910D01*
Y254889D01*
Y254847D01*
X5457Y254783D01*
X5436Y254708D01*
X5404Y254622D01*
X5350Y254526D01*
X5286Y254441D01*
X5190Y254366D01*
X5180Y254356D01*
X5137Y254334D01*
X5073Y254313D01*
X4977Y254270D01*
X4860Y254238D01*
X4710Y254217D01*
X4540Y254196D01*
X4337Y254185D01*
X4134D01*
X4038Y254196D01*
X3921Y254206D01*
X3665Y254228D01*
X3387Y254270D01*
X3121Y254324D01*
X3003Y254366D01*
X2896Y254409D01*
X2790Y254462D01*
X2715Y254526D01*
X2694Y254548D01*
X2672Y254569D01*
X2640Y254601D01*
X2598Y254644D01*
X2544Y254708D01*
X2480Y254783D01*
X2406Y254868D01*
X2331Y254975D01*
X2235Y255092D01*
X2128Y255231D01*
X2011Y255391D01*
X1883Y255572D01*
X1744Y255764D01*
X1595Y255988D01*
X1435Y256234D01*
X1424Y256244D01*
X1392Y256298D01*
X1349Y256362D01*
X1285Y256458D01*
X1211Y256564D01*
X1125Y256692D01*
X1040Y256831D01*
X933Y256970D01*
X720Y257279D01*
X506Y257578D01*
X400Y257717D01*
X304Y257845D01*
X218Y257951D01*
X133Y258048D01*
X111Y258069D01*
X58Y258122D01*
X-38Y258197D01*
X-155Y258304D01*
X-315Y258421D01*
X-507Y258538D01*
X-731Y258656D01*
X-988Y258773D01*
X-998D01*
X-1020Y258784D01*
X-1062Y258794D01*
X-1115Y258816D01*
X-1190Y258837D01*
X-1276Y258869D01*
X-1372Y258890D01*
X-1489Y258912D01*
X-1617Y258944D01*
X-1756Y258965D01*
X-1905Y258997D01*
X-2076Y259018D01*
X-2246Y259029D01*
X-2428Y259050D01*
X-2833Y259061D01*
D02*
G37*
G36*
X7538Y249575D02*
X-6493D01*
Y245926D01*
X7538D01*
Y249575D01*
D02*
G37*
G36*
Y273476D02*
X-6493D01*
Y269827D01*
X7538D01*
Y273476D01*
D02*
G37*
G36*
Y268365D02*
X-6493D01*
Y265314D01*
X-166Y263265D01*
X-6493D01*
Y260213D01*
X7538D01*
Y263415D01*
X1168Y265314D01*
X7538D01*
Y268365D01*
D02*
G37*
G36*
X2992Y212070D02*
X570D01*
Y207461D01*
X2992D01*
Y212070D01*
D02*
G37*
G36*
X7538Y234659D02*
X-6493D01*
Y228566D01*
X-3687D01*
Y231010D01*
X-1020D01*
Y228726D01*
X1648D01*
Y231010D01*
X4732D01*
Y228332D01*
X7538D01*
Y234659D01*
D02*
G37*
G36*
Y244465D02*
X-6493D01*
Y241744D01*
Y241733D01*
Y241712D01*
Y241680D01*
Y241626D01*
Y241562D01*
Y241498D01*
Y241413D01*
Y241317D01*
X-6482Y241104D01*
Y240858D01*
X-6472Y240591D01*
X-6461Y240303D01*
X-6451Y240004D01*
X-6429Y239706D01*
X-6419Y239407D01*
X-6386Y239119D01*
X-6365Y238842D01*
X-6333Y238585D01*
X-6290Y238361D01*
X-6248Y238169D01*
Y238159D01*
X-6237Y238127D01*
X-6227Y238084D01*
X-6205Y238020D01*
X-6173Y237934D01*
X-6141Y237849D01*
X-6056Y237636D01*
X-5949Y237412D01*
X-5810Y237177D01*
X-5640Y236953D01*
X-5544Y236846D01*
X-5447Y236750D01*
X-5437Y236739D01*
X-5426Y236729D01*
X-5394Y236707D01*
X-5351Y236676D01*
X-5234Y236590D01*
X-5085Y236494D01*
X-4903Y236387D01*
X-4690Y236291D01*
X-4455Y236206D01*
X-4210Y236142D01*
X-4199D01*
X-4178Y236131D01*
X-4135D01*
X-4071Y236121D01*
X-3996Y236110D01*
X-3890Y236099D01*
X-3772Y236089D01*
X-3623Y236078D01*
X-3452Y236067D01*
X-3260Y236057D01*
X-3047Y236046D01*
X-2801Y236035D01*
X-2535Y236025D01*
X-2225Y236014D01*
X3835D01*
X4006Y236025D01*
X4198D01*
X4401Y236035D01*
X4828Y236057D01*
X5030Y236067D01*
X5244Y236089D01*
X5436Y236110D01*
X5617Y236131D01*
X5767Y236163D01*
X5905Y236195D01*
X5916D01*
X5937Y236206D01*
X5969Y236217D01*
X6012Y236227D01*
X6119Y236281D01*
X6268Y236345D01*
X6428Y236430D01*
X6588Y236537D01*
X6748Y236665D01*
X6898Y236825D01*
X6908Y236846D01*
X6951Y236900D01*
X7015Y236996D01*
X7100Y237124D01*
X7175Y237284D01*
X7260Y237465D01*
X7335Y237679D01*
X7399Y237913D01*
Y237924D01*
X7410Y237945D01*
Y237977D01*
X7421Y238031D01*
X7431Y238105D01*
X7442Y238180D01*
X7452Y238287D01*
X7463Y238393D01*
X7485Y238521D01*
X7495Y238671D01*
X7506Y238831D01*
X7517Y239001D01*
X7527Y239194D01*
Y239407D01*
X7538Y239631D01*
Y239866D01*
Y244465D01*
D02*
G37*
G36*
Y298647D02*
X-6493D01*
Y294998D01*
X7538D01*
Y298647D01*
D02*
G37*
G36*
Y305710D02*
X-6493D01*
Y299533D01*
X-3687D01*
Y302061D01*
X-1020D01*
Y299810D01*
X1648D01*
Y302061D01*
X7538D01*
Y305710D01*
D02*
G37*
G36*
X1253Y312528D02*
X-1596D01*
Y309882D01*
X1253D01*
Y312528D01*
D02*
G37*
G36*
X7538D02*
X4678D01*
Y309882D01*
X7538D01*
Y312528D01*
D02*
G37*
G36*
X-3687Y321225D02*
X-6493D01*
Y313254D01*
X-3687D01*
Y315420D01*
X7538D01*
Y319069D01*
X-3687D01*
Y321225D01*
D02*
G37*
G36*
X7538Y283976D02*
X-6493D01*
Y277883D01*
X-3687D01*
Y280327D01*
X-1020D01*
Y278043D01*
X1648D01*
Y280327D01*
X4732D01*
Y277648D01*
X7538D01*
Y283976D01*
D02*
G37*
G36*
Y293536D02*
X-6493D01*
Y290954D01*
Y290943D01*
Y290922D01*
Y290890D01*
Y290836D01*
Y290783D01*
Y290708D01*
Y290538D01*
X-6482Y290324D01*
Y290090D01*
X-6472Y289823D01*
Y289545D01*
X-6440Y288969D01*
X-6429Y288670D01*
X-6408Y288393D01*
X-6386Y288126D01*
X-6355Y287870D01*
X-6323Y287657D01*
X-6290Y287465D01*
Y287454D01*
X-6280Y287422D01*
X-6269Y287379D01*
X-6248Y287315D01*
X-6216Y287230D01*
X-6184Y287145D01*
X-6088Y286931D01*
X-6024Y286814D01*
X-5949Y286697D01*
X-5864Y286568D01*
X-5778Y286451D01*
X-5661Y286323D01*
X-5544Y286195D01*
X-5415Y286078D01*
X-5266Y285971D01*
X-5255Y285960D01*
X-5223Y285949D01*
X-5181Y285917D01*
X-5117Y285875D01*
X-5021Y285832D01*
X-4914Y285789D01*
X-4786Y285736D01*
X-4637Y285672D01*
X-4466Y285619D01*
X-4274Y285565D01*
X-4061Y285523D01*
X-3826Y285480D01*
X-3570Y285437D01*
X-3292Y285405D01*
X-2983Y285395D01*
X-2663Y285384D01*
X-2503D01*
X-2396Y285395D01*
X-2268D01*
X-2118Y285405D01*
X-1948Y285416D01*
X-1766Y285437D01*
X-1404Y285480D01*
X-1041Y285555D01*
X-870Y285608D01*
X-710Y285662D01*
X-571Y285725D01*
X-454Y285800D01*
X-443D01*
X-433Y285822D01*
X-401Y285843D01*
X-369Y285886D01*
X-326Y285928D01*
X-273Y285992D01*
X-219Y286067D01*
X-166Y286152D01*
X-102Y286248D01*
X-48Y286366D01*
X5Y286504D01*
X58Y286643D01*
X111Y286814D01*
X154Y286984D01*
X186Y287187D01*
X218Y287401D01*
Y287390D01*
X229Y287358D01*
X250Y287294D01*
X272Y287219D01*
X293Y287134D01*
X325Y287038D01*
X410Y286814D01*
X517Y286568D01*
X634Y286334D01*
X709Y286216D01*
X784Y286120D01*
X858Y286024D01*
X944Y285949D01*
X965Y285928D01*
X1018Y285886D01*
X1104Y285822D01*
X1211Y285747D01*
X1339Y285672D01*
X1477Y285597D01*
X1627Y285523D01*
X1765Y285480D01*
X1787D01*
X1808Y285469D01*
X1851D01*
X1904Y285459D01*
X1968Y285448D01*
X2064Y285437D01*
X2160Y285427D01*
X2288D01*
X2438Y285416D01*
X2608Y285405D01*
X2800Y285395D01*
X3024D01*
X3270Y285384D01*
X7538D01*
Y288777D01*
X2608D01*
X2502Y288788D01*
X2277Y288798D01*
X2043Y288820D01*
X1819Y288852D01*
X1712Y288873D01*
X1627Y288895D01*
X1552Y288927D01*
X1488Y288959D01*
X1477Y288969D01*
X1445Y289001D01*
X1403Y289054D01*
X1349Y289140D01*
X1296Y289268D01*
X1275Y289343D01*
X1253Y289428D01*
X1232Y289524D01*
X1221Y289631D01*
X1211Y289748D01*
Y289887D01*
X7538D01*
Y293536D01*
D02*
G37*
%LPD*%
G36*
X4081Y376346D02*
X4326D01*
X4582Y376335D01*
X4828Y376314D01*
X4945Y376303D01*
X5041Y376292D01*
X5126Y376282D01*
X5190Y376260D01*
X5201D01*
X5233Y376239D01*
X5276Y376207D01*
X5329Y376164D01*
X5382Y376100D01*
X5425Y376026D01*
X5457Y375919D01*
X5468Y375791D01*
Y375770D01*
X5457Y375727D01*
X5446Y375663D01*
X5425Y375588D01*
X5393Y375514D01*
X5329Y375428D01*
X5254Y375364D01*
X5148Y375311D01*
X5126D01*
X5105Y375300D01*
X5073Y375290D01*
X5030D01*
X4977Y375279D01*
X4913Y375268D01*
X4828Y375257D01*
X4732Y375247D01*
X4614Y375236D01*
X4486Y375225D01*
X4337D01*
X4177Y375215D01*
X3995Y375204D01*
X-3111D01*
X-3207Y375215D01*
X-3399D01*
X-3612Y375236D01*
X-3826Y375257D01*
X-3911Y375268D01*
X-3996Y375279D01*
X-4071Y375300D01*
X-4135Y375322D01*
X-4146D01*
X-4178Y375343D01*
X-4220Y375375D01*
X-4274Y375417D01*
X-4327Y375482D01*
X-4370Y375556D01*
X-4402Y375652D01*
X-4413Y375770D01*
Y375780D01*
Y375812D01*
X-4402Y375866D01*
X-4381Y375930D01*
X-4359Y376004D01*
X-4316Y376079D01*
X-4263Y376143D01*
X-4188Y376207D01*
X-4178Y376218D01*
X-4135Y376228D01*
X-4103Y376239D01*
X-4061Y376250D01*
X-4007Y376271D01*
X-3943Y376282D01*
X-3858Y376292D01*
X-3772Y376314D01*
X-3666Y376324D01*
X-3538Y376335D01*
X-3399Y376346D01*
X-3249D01*
X-3068Y376357D01*
X3963D01*
X4081Y376346D01*
D02*
G37*
G36*
X-977Y326506D02*
Y326485D01*
Y326464D01*
Y326421D01*
X-988Y326314D01*
X-998Y326186D01*
X-1020Y326037D01*
X-1041Y325898D01*
X-1084Y325770D01*
X-1137Y325663D01*
X-1147Y325653D01*
X-1180Y325621D01*
X-1244Y325578D01*
X-1286Y325557D01*
X-1340Y325535D01*
X-1404Y325514D01*
X-1478Y325493D01*
X-1574Y325471D01*
X-1670Y325450D01*
X-1788Y325429D01*
X-1926Y325418D01*
X-2076Y325407D01*
X-3111D01*
X-3228Y325418D01*
X-3367Y325439D01*
X-3516Y325471D01*
X-3655Y325514D01*
X-3783Y325567D01*
X-3836Y325610D01*
X-3879Y325653D01*
X-3890Y325663D01*
X-3911Y325695D01*
X-3943Y325759D01*
X-3986Y325845D01*
X-4028Y325962D01*
X-4061Y326111D01*
X-4082Y326304D01*
X-4092Y326517D01*
X-977D01*
Y326506D01*
D02*
G37*
G36*
X4081Y336312D02*
X4326D01*
X4582Y336301D01*
X4828Y336280D01*
X4945Y336269D01*
X5041Y336259D01*
X5126Y336248D01*
X5190Y336227D01*
X5201D01*
X5233Y336205D01*
X5276Y336173D01*
X5329Y336131D01*
X5382Y336067D01*
X5425Y335992D01*
X5457Y335885D01*
X5468Y335757D01*
Y335736D01*
X5457Y335693D01*
X5446Y335629D01*
X5425Y335554D01*
X5393Y335480D01*
X5329Y335394D01*
X5254Y335330D01*
X5148Y335277D01*
X5126D01*
X5105Y335266D01*
X5073Y335256D01*
X5030D01*
X4977Y335245D01*
X4913Y335234D01*
X4828Y335224D01*
X4732Y335213D01*
X4614Y335202D01*
X4486Y335192D01*
X4337D01*
X4177Y335181D01*
X3995Y335170D01*
X-3111D01*
X-3207Y335181D01*
X-3399D01*
X-3612Y335202D01*
X-3826Y335224D01*
X-3911Y335234D01*
X-3996Y335245D01*
X-4071Y335266D01*
X-4135Y335288D01*
X-4146D01*
X-4178Y335309D01*
X-4220Y335341D01*
X-4274Y335384D01*
X-4327Y335448D01*
X-4370Y335522D01*
X-4402Y335618D01*
X-4413Y335736D01*
Y335746D01*
Y335778D01*
X-4402Y335832D01*
X-4381Y335896D01*
X-4359Y335970D01*
X-4316Y336045D01*
X-4263Y336109D01*
X-4188Y336173D01*
X-4178Y336184D01*
X-4135Y336195D01*
X-4103Y336205D01*
X-4061Y336216D01*
X-4007Y336237D01*
X-3943Y336248D01*
X-3858Y336259D01*
X-3772Y336280D01*
X-3666Y336291D01*
X-3538Y336301D01*
X-3399Y336312D01*
X-3249D01*
X-3068Y336323D01*
X3963D01*
X4081Y336312D01*
D02*
G37*
G36*
X5137Y408484D02*
Y408462D01*
Y408420D01*
Y408366D01*
X5116Y408238D01*
X5094Y408078D01*
X5062Y407918D01*
X5009Y407758D01*
X4934Y407630D01*
X4881Y407577D01*
X4828Y407534D01*
X4806Y407523D01*
X4785Y407513D01*
X4753Y407502D01*
X4710Y407491D01*
X4657Y407470D01*
X4582Y407459D01*
X4497Y407438D01*
X4390Y407417D01*
X4262Y407406D01*
X4123Y407385D01*
X3963Y407374D01*
X3782Y407364D01*
X3579Y407353D01*
X3355Y407342D01*
X-2663D01*
X-2855Y407353D01*
X-3068D01*
X-3271Y407364D01*
X-3356Y407374D01*
X-3442Y407385D01*
X-3516Y407396D01*
X-3570Y407406D01*
X-3580D01*
X-3612Y407417D01*
X-3666Y407438D01*
X-3719Y407459D01*
X-3783Y407502D01*
X-3847Y407545D01*
X-3911Y407609D01*
X-3964Y407684D01*
X-3975Y407694D01*
X-3986Y407726D01*
X-4007Y407780D01*
X-4028Y407865D01*
X-4050Y407972D01*
X-4071Y408110D01*
X-4092Y408292D01*
Y408495D01*
X5137D01*
Y408484D01*
D02*
G37*
G36*
X4081Y398785D02*
X4326D01*
X4582Y398774D01*
X4828Y398753D01*
X4945Y398742D01*
X5041Y398731D01*
X5126Y398721D01*
X5190Y398699D01*
X5201D01*
X5233Y398678D01*
X5276Y398646D01*
X5329Y398603D01*
X5382Y398539D01*
X5425Y398465D01*
X5457Y398358D01*
X5468Y398230D01*
Y398209D01*
X5457Y398166D01*
X5446Y398102D01*
X5425Y398027D01*
X5393Y397953D01*
X5329Y397867D01*
X5254Y397803D01*
X5148Y397750D01*
X5126D01*
X5105Y397739D01*
X5073Y397728D01*
X5030D01*
X4977Y397718D01*
X4913Y397707D01*
X4828Y397696D01*
X4732Y397686D01*
X4614Y397675D01*
X4486Y397664D01*
X4337D01*
X4177Y397654D01*
X3995Y397643D01*
X-3111D01*
X-3207Y397654D01*
X-3399D01*
X-3612Y397675D01*
X-3826Y397696D01*
X-3911Y397707D01*
X-3996Y397718D01*
X-4071Y397739D01*
X-4135Y397761D01*
X-4146D01*
X-4178Y397782D01*
X-4220Y397814D01*
X-4274Y397856D01*
X-4327Y397920D01*
X-4370Y397995D01*
X-4402Y398091D01*
X-4413Y398209D01*
Y398219D01*
Y398251D01*
X-4402Y398305D01*
X-4381Y398369D01*
X-4359Y398443D01*
X-4316Y398518D01*
X-4263Y398582D01*
X-4188Y398646D01*
X-4178Y398657D01*
X-4135Y398667D01*
X-4103Y398678D01*
X-4061Y398689D01*
X-4007Y398710D01*
X-3943Y398721D01*
X-3858Y398731D01*
X-3772Y398753D01*
X-3666Y398763D01*
X-3538Y398774D01*
X-3399Y398785D01*
X-3249D01*
X-3068Y398796D01*
X3963D01*
X4081Y398785D01*
D02*
G37*
G36*
X5137Y240805D02*
Y240783D01*
Y240741D01*
Y240687D01*
X5116Y240559D01*
X5094Y240399D01*
X5062Y240239D01*
X5009Y240079D01*
X4934Y239951D01*
X4881Y239898D01*
X4828Y239855D01*
X4806Y239844D01*
X4785Y239834D01*
X4753Y239823D01*
X4710Y239812D01*
X4657Y239791D01*
X4582Y239780D01*
X4497Y239759D01*
X4390Y239738D01*
X4262Y239727D01*
X4123Y239706D01*
X3963Y239695D01*
X3782Y239684D01*
X3579Y239674D01*
X3355Y239663D01*
X-2663D01*
X-2855Y239674D01*
X-3068D01*
X-3271Y239684D01*
X-3356Y239695D01*
X-3442Y239706D01*
X-3516Y239716D01*
X-3570Y239727D01*
X-3580D01*
X-3612Y239738D01*
X-3666Y239759D01*
X-3719Y239780D01*
X-3783Y239823D01*
X-3847Y239866D01*
X-3911Y239930D01*
X-3964Y240004D01*
X-3975Y240015D01*
X-3986Y240047D01*
X-4007Y240101D01*
X-4028Y240186D01*
X-4050Y240293D01*
X-4071Y240431D01*
X-4092Y240613D01*
Y240815D01*
X5137D01*
Y240805D01*
D02*
G37*
G36*
X-977Y289876D02*
Y289855D01*
Y289833D01*
Y289791D01*
X-988Y289684D01*
X-998Y289556D01*
X-1020Y289407D01*
X-1041Y289268D01*
X-1084Y289140D01*
X-1137Y289033D01*
X-1147Y289022D01*
X-1180Y288990D01*
X-1244Y288948D01*
X-1286Y288927D01*
X-1340Y288905D01*
X-1404Y288884D01*
X-1478Y288862D01*
X-1574Y288841D01*
X-1670Y288820D01*
X-1788Y288798D01*
X-1926Y288788D01*
X-2076Y288777D01*
X-3111D01*
X-3228Y288788D01*
X-3367Y288809D01*
X-3516Y288841D01*
X-3655Y288884D01*
X-3783Y288937D01*
X-3836Y288980D01*
X-3879Y289022D01*
X-3890Y289033D01*
X-3911Y289065D01*
X-3943Y289129D01*
X-3986Y289215D01*
X-4028Y289332D01*
X-4061Y289481D01*
X-4082Y289673D01*
X-4092Y289887D01*
X-977D01*
Y289876D01*
D02*
G37*
D137*
X-52756Y283465D02*
Y312992D01*
D138*
X-41339Y474016D02*
X11811D01*
X-41339Y170866D02*
Y474016D01*
Y170866D02*
X41339D01*
Y455905D01*
Y474016D01*
X11811D02*
X41339D01*
D139*
X-45695Y319111D02*
X-48318D01*
X-47006D01*
Y315175D01*
X-49630Y319111D02*
X-52254Y315175D01*
Y319111D02*
X-49630Y315175D01*
X-45695Y321080D02*
Y325016D01*
X-47662D01*
X-48318Y324360D01*
Y323048D01*
X-47662Y322392D01*
X-45695D01*
X-47006D02*
X-48318Y321080D01*
X-49630Y325016D02*
X-52254Y321080D01*
Y325016D02*
X-49630Y321080D01*
X-45695Y330922D02*
Y328298D01*
X-47006Y326986D01*
X-48318Y328298D01*
Y330922D01*
X-49630D02*
Y327642D01*
X-50286Y326986D01*
X-51598D01*
X-52254Y327642D01*
Y330922D01*
X-56190Y330266D02*
X-55534Y330922D01*
X-54222D01*
X-53566Y330266D01*
Y329610D01*
X-54222Y328954D01*
X-55534D01*
X-56190Y328298D01*
Y327642D01*
X-55534Y326986D01*
X-54222D01*
X-53566Y327642D01*
X-57502Y330922D02*
Y326986D01*
X-59470D01*
X-60125Y327642D01*
Y328298D01*
X-59470Y328954D01*
X-57502D01*
X-59470D01*
X-60125Y329610D01*
Y330266D01*
X-59470Y330922D01*
X-57502D01*
X-48318Y336171D02*
X-47662Y336827D01*
X-46350D01*
X-45695Y336171D01*
Y335515D01*
X-46350Y334859D01*
X-47662D01*
X-48318Y334203D01*
Y333547D01*
X-47662Y332891D01*
X-46350D01*
X-45695Y333547D01*
X-52254Y336171D02*
X-51598Y336827D01*
X-50286D01*
X-49630Y336171D01*
Y333547D01*
X-50286Y332891D01*
X-51598D01*
X-52254Y333547D01*
X-53566Y336827D02*
Y332891D01*
X-56190D01*
X-48318Y342077D02*
X-47662Y342733D01*
X-46350D01*
X-45695Y342077D01*
Y341421D01*
X-46350Y340765D01*
X-47662D01*
X-48318Y340109D01*
Y339453D01*
X-47662Y338797D01*
X-46350D01*
X-45695Y339453D01*
X-49630Y342733D02*
Y338797D01*
X-51598D01*
X-52254Y339453D01*
Y342077D01*
X-51598Y342733D01*
X-49630D01*
X-53566Y338797D02*
Y341421D01*
X-54878Y342733D01*
X-56190Y341421D01*
Y338797D01*
Y340765D01*
X-53566D01*
X-45695Y348638D02*
Y344702D01*
X-47662D01*
X-48318Y345358D01*
Y347982D01*
X-47662Y348638D01*
X-45695D01*
X-51598D02*
X-50286D01*
X-49630Y347982D01*
Y345358D01*
X-50286Y344702D01*
X-51598D01*
X-52254Y345358D01*
Y347982D01*
X-51598Y348638D01*
X-53566D02*
Y345358D01*
X-54222Y344702D01*
X-55534D01*
X-56190Y345358D01*
Y348638D01*
X-57502D02*
X-60125D01*
X-58814D01*
Y344702D01*
X-45695Y350608D02*
Y353232D01*
X-47006Y354544D01*
X-48318Y353232D01*
Y350608D01*
Y352576D01*
X-45695D01*
X-49630Y354544D02*
X-50942D01*
X-50286D01*
Y350608D01*
X-49630D01*
X-50942D01*
X-52910D02*
Y354544D01*
X-55534Y350608D01*
Y354544D01*
X-45695Y360449D02*
Y356513D01*
X-48318D01*
X-52254Y360449D02*
X-49630D01*
Y356513D01*
X-52254D01*
X-49630Y358481D02*
X-50942D01*
X-53566Y360449D02*
Y356513D01*
X-55534D01*
X-56190Y357169D01*
Y359793D01*
X-55534Y360449D01*
X-53566D01*
X-45695Y365699D02*
X-46350Y366355D01*
X-47662D01*
X-48318Y365699D01*
Y365043D01*
X-47662Y364387D01*
X-47006D01*
X-47662D01*
X-48318Y363731D01*
Y363075D01*
X-47662Y362419D01*
X-46350D01*
X-45695Y363075D01*
X-49630Y366355D02*
Y363731D01*
X-50942Y362419D01*
X-52254Y363731D01*
Y366355D01*
X-48318Y371604D02*
X-47662Y372260D01*
X-46350D01*
X-45695Y371604D01*
Y368980D01*
X-46350Y368324D01*
X-47662D01*
X-48318Y368980D01*
Y370292D01*
X-47006D01*
X-49630Y368324D02*
Y372260D01*
X-52254Y368324D01*
Y372260D01*
X-53566D02*
Y368324D01*
X-55534D01*
X-56190Y368980D01*
Y371604D01*
X-55534Y372260D01*
X-53566D01*
%TF.MD5,327545a6a8add43dc3f1738dca8d3923*%
M02*
